<svg id="Layer_1" data-name="Layer 1" xmlns="http://www.w3.org/2000/svg" viewBox="0 0 24 24"><defs><style>.cls-1{fill:none;}</style></defs><title>Artboard 1</title><g id="Bounding_Boxes" data-name="Bounding Boxes"><path class="cls-1" d="M0,0H24V24H0Z"/></g><g id="Outline"><path d="M18,20H4V6h9V4H4A2,2,0,0,0,2,6V20a2,2,0,0,0,2,2H18a2,2,0,0,0,2-2V11H18Z"/><polygon points="10.21 16.83 8.25 14.47 5.5 18 16.5 18 12.96 13.29 10.21 16.83"/><path d="M20,4V1H18V4H15s0,2,0,2h3V9s2,0,2,0V6h3V4Z"/></g></svg>