<svg xmlns="http://www.w3.org/2000/svg" viewBox="0 0 43.8 45.18"><defs><style>.cls-1{fill:#fcc130;}.cls-2{fill:#fff;}</style></defs><title>Asset 18</title><g id="Layer_2" data-name="Layer 2"><g id="instaraction"><path class="cls-1" d="M43.76,23.79C43.3,15.35,39.58,6.46,32.06,3.06c-.92-1.05-4-1.4-5.36-1.92C13.41-3.75,1.49,7.85.17,20.48c-1.36,13,5.47,24.62,19.52,24.7C32.25,45.25,44.53,37.61,43.76,23.79Z"/><path class="cls-2" d="M21.82,16.12A1.22,1.22,0,0,0,20.3,15a4.15,4.15,0,0,0-.64.29,22.82,22.82,0,0,1-.31,2.49l.06,0a28.61,28.61,0,0,1-.31,3.57c-.24,1.51-.62,4.63-2.23,5.37-2.67,1.23-3.77-3.23-3.85-4.94a21.1,21.1,0,0,1,1-7.21c.46-1.49-1.87-2.12-2.33-.64C10.37,18.2,9,29.73,16.5,29.26,21.75,28.93,21.9,19.82,21.82,16.12Z"/><path class="cls-2" d="M33.13,19.95c.29-4-4.3-6.22-7.54-4.72a1.15,1.15,0,0,0-1.29.83l0,.07A1,1,0,0,0,24,17.2a30,30,0,0,0-.36,5.51l-.13,0c-1.32.2-1,1.95.06,2.28-.25,4.17.21,5.69-1,9.73a1.21,1.21,0,0,0,2.33.64c1-3.52.64-4.32.86-7.95.05-.85.07-1.74.08-2.64C29,24.3,32.88,23.35,33.13,19.95Zm-2.95.84a7.77,7.77,0,0,1-4.26,1.62,24.27,24.27,0,0,1,.51-4.92C28.53,16.27,32.24,18.81,30.19,20.79Z"/></g></g></svg>