<svg xmlns="http://www.w3.org/2000/svg" viewBox="0 0 45.79 47.17"><defs><style>.cls-1{fill:#fcc130;}</style></defs><title>Asset 17</title><g id="Layer_2" data-name="Layer 2"><g id="instaraction"><path class="cls-1" d="M20.86,47.17h-.18c-6.18,0-11.4-2.24-15.1-6.37C1.35,36.07-.62,29,.17,21.37A25.12,25.12,0,0,1,11.47,2.93,18.6,18.6,0,0,1,28,1.2c.39.14,1,.28,1.59.43,1.54.37,3.13.76,4,1.59,8.27,3.85,11.68,13.61,12.12,21.5h0a19.35,19.35,0,0,1-5.28,14.79C35.91,44.31,28.58,47.17,20.86,47.17ZM21.43,2a16.86,16.86,0,0,0-8.91,2.64,23.09,23.09,0,0,0-10.36,17c-.74,7.06,1.05,13.58,4.91,17.89,3.31,3.7,8,5.67,13.62,5.7,7.23.06,14.11-2.59,18.34-7a17.4,17.4,0,0,0,4.73-13.3h0C43.35,17.47,40.22,8.39,32.64,5l-.2-.09-.14-.17c-.42-.48-2.05-.87-3.14-1.14a17.68,17.68,0,0,1-1.81-.5A17,17,0,0,0,21.43,2Z"/><path class="cls-1" d="M13.54,25.5c-.16-.05-.3-.12-.33-.34.18-.06.57-.43.65-.09-.15.09-.11.43-.33.43m.85,1.37a1.88,1.88,0,0,1-.33-.43c.93-1.75,1.49-4,3-5,.05,0,.08.07.07.17a46.77,46.77,0,0,1-2.75,5.23M19.7,19a2.07,2.07,0,0,0-.46,1.11c-1,2-2.19,3.82-3.08,6-.47.16-.41,1-.92,1.11.86-2.36,2.38-3.86,2.75-6.86.57-.54,1.09-1.14,1.7-1.63Zm.13,2.57c0,.26-.2.31-.13.69-.71.55-1,2-1.44,2.83a4.44,4.44,0,0,1-1.64,1.63c1.41-2.85,2.89-5.59,4.19-8.58a1.83,1.83,0,0,0,.06-.6,6.46,6.46,0,0,1,1.64-1.71c.05,0,.08.07.07.17-1,1.75-1.76,3.81-2.75,5.57m4.85-7.12a75.63,75.63,0,0,0-4.06,8.32c-.28.15-.38.53-.72.6a10.48,10.48,0,0,1,.92-1.89c.79-2.56,2.31-4.18,2.95-6.95.21-.21.49-.58.85-.34a.48.48,0,0,0,.07.26M24.15,18c-.63,1.26-1.08,2.77-2.16,3.43.81-2,1.88-3.7,2.82-5.49.18-.33.2-.84.59-.95.57.68-.92,2.48-1.24,3m1.57.17a25.39,25.39,0,0,0-1.64,2.14,18.08,18.08,0,0,1,2.23-4.2c.59.81-.54,1.27-.59,2.06m-.13,4.12a5,5,0,0,1,1.24-1.72,2.44,2.44,0,0,1-1.24,1.72m-.26-1.54c0,.43-.32.68-.52.51-.11-.52.33-.79.52-1.11.57-.93,1.2-2,1.77-2.92,1.17.84-1.38,3-1.77,3.52m1.7-.34c.29-.73.55-1.5,1.18-1.8A2.43,2.43,0,0,1,27,20.44m2.16-.17c-.23.75-.7.93-1.18,1.55s-1,2-1.64,1.46c.73-1.3,1.6-2.42,2.42-3.6a.58.58,0,0,1,.39.6M30,21.55a17.84,17.84,0,0,1-2.55,2.83,12.88,12.88,0,0,1,1.64-2.23A1.77,1.77,0,0,1,29.85,21c.17,0,.13.29.13.51m-.52,1.89c.48-.65,1.3-1.84,1.57-.6-.07.27-.46.44-.66.86s-.19.32-.52.6c-.63.52-.91,2-1.57.94.31-.3.67-1.12,1.18-1.8m2.49.6c-.79.74-1.25,1.91-2.23,2.4a9.1,9.1,0,0,1,2-2.92c.05.21.3.18.26.51m3,.17a11.88,11.88,0,0,0-2.42-2.4,102,102,0,0,0-8-10.64c-.32,0-.55.13-.85.17-.06.18-.2.25-.2.51A32.08,32.08,0,0,0,19,16.49c-2.19,1.62-3.61,4.25-6,5.66-.66,1.14-1.25,2.36-1.9,3.52.16,1.23,1.08,1.53.72,3h.59a9.93,9.93,0,0,0,1.24,1.46c.4.42.85,1.26,1.38,1.29.77,0,1.74-1.54,2.36-2.23a22,22,0,0,0,2.23-2.32c1.49-1.08,2.63-2.62,4.13-3.69a48,48,0,0,0,6.16,6.18c.4.13.63-.12,1-.17a14.65,14.65,0,0,1,3.86-3.43c-.06-.65.21-.87.13-1.54"/></g></g></svg>