<svg xmlns="http://www.w3.org/2000/svg" viewBox="0 0 382.76 47.17"><defs><style>.cls-1{fill:none;stroke:#4fb3a2;stroke-miterlimit:10;}.cls-2{fill:#4fb3a2;}</style></defs><title>Asset 3</title><g id="Layer_2" data-name="Layer 2"><g id="thank_you" data-name="thank you"><path class="cls-1" d="M23.54,30.81,34.2,45.88H25.84L11.54,25.67a5.23,5.23,0,0,0-1.49,2.1,8,8,0,0,0-.49,2.92V45.88H2.33V33.73a16.59,16.59,0,0,1,1.52-7.65,10.12,10.12,0,0,1,4.8-4.49L1,10.75H9.36l9.57,13.56L26,10.75h8.42Z"/><path class="cls-1" d="M58.07,30l8.51,12.32v3.52H39.64V40H56.95L37.1,10.75h8.39l8.18,12.76,6.47-12.76h8.42Z"/><path class="cls-1" d="M76.39,24.9a15.16,15.16,0,0,1,1.29-4.53A10.33,10.33,0,0,1,80,17a2.59,2.59,0,0,1,.5-.38l-.06-.12q-1.21.21-3,.69t-3.16,1L72.61,12.7a45.62,45.62,0,0,1,7.86-2A49.52,49.52,0,0,1,88.74,10q7.59,0,11.57,3.94t4,11.59V45.88H89.36V40H96.8V24.55a9.78,9.78,0,0,0-1.74-6.25,6,6,0,0,0-5-2.17,5.26,5.26,0,0,0-4.31,2.07A11.13,11.13,0,0,0,83.69,24L81.35,45.88H73.94Z"/><path class="cls-1" d="M112.33,46.29q-1.43-.18-3.21-.56l.09-5.7a27,27,0,0,0,4.31.32,4.18,4.18,0,0,0,3.31-1.24,5.7,5.7,0,0,0,1.09-3.84V16.63h-6.5V10.75h14V35.86q0,5.08-2.63,7.84t-7.41,2.76A24.68,24.68,0,0,1,112.33,46.29Z"/><path class="cls-1" d="M169.66,30.81l10.66,15.07H172l-14.3-20.21a5.23,5.23,0,0,0-1.49,2.1,8,8,0,0,0-.49,2.92V45.88h-7.24V33.73A16.59,16.59,0,0,1,150,26.08a10.12,10.12,0,0,1,4.8-4.49l-7.68-10.84h8.39l9.57,13.56,7.12-13.56h8.42Z"/><path class="cls-1" d="M211.88,15.51l-12.2,30.37h-8l12.08-29.25H184.11V.5h7.5V10.75h20.26Z"/><path class="cls-1" d="M257.76,10.75v5.88h-6V45.88h-7.5V16.63H228.51V10.75Z"/><path class="cls-1" d="M264.7,16.63h-3.54V10.75h11V45.88h-7.5Z"/><path class="cls-1" d="M283.41,24.9a15.15,15.15,0,0,1,1.29-4.53A10.33,10.33,0,0,1,287,17a2.59,2.59,0,0,1,.5-.38l-.06-.12q-1.21.21-3,.69t-3.16,1l-1.65-5.49a45.62,45.62,0,0,1,7.86-2,49.52,49.52,0,0,1,8.27-.75q7.59,0,11.57,3.94t4,11.59V45.88H296.37V40h7.44V24.55a9.78,9.78,0,0,0-1.74-6.25,6,6,0,0,0-5-2.17,5.26,5.26,0,0,0-4.31,2.07A11.13,11.13,0,0,0,290.7,24l-2.33,21.86H281Z"/><path class="cls-1" d="M345.83,10.75V31.31a16.07,16.07,0,0,1-2.05,8.37A13.15,13.15,0,0,1,338,44.9a19.75,19.75,0,0,1-8.61,1.77,37.79,37.79,0,0,1-13.26-2.51l1.65-5.52a35.35,35.35,0,0,0,8.69,2.25,11.65,11.65,0,0,1-1.86-2.45,10.54,10.54,0,0,1-1.15-3l-5.61-24.7h7.53l5.41,25.32a16.77,16.77,0,0,0,1.51,4.4,8.39,8.39,0,0,0,4.48-3.15,9.61,9.61,0,0,0,1.58-5.69V10.75Z"/><path class="cls-1" d="M354,33.85a15.66,15.66,0,0,1,.52-4.55,13,13,0,0,1,1.34-3h6a29.05,29.05,0,0,0-.65,6.82v12.7H354Zm20.77-10.37q0-3.54-1.71-5.2t-5.35-1.65H354.07V10.75h14.15q6.79,0,10.41,3.35t3.62,9.67v22.1h-7.47Z"/><path class="cls-2" d="M33.53,12l-.13-.4a.51.51,0,0,0-1,0c0,.09-.08.18-.12.27-.06-.56-.93-.52-1,.08l0,.25A.44.44,0,0,0,31,12c0-.07,0-.14,0-.2-.12-.52-.8-.42-1,0a4.64,4.64,0,0,0-.23.88,13.1,13.1,0,0,1,.06-1.85c.06-.64-.94-.64-1,0,0,.23,0,.46,0,.68a.46.46,0,0,0-.51.34,5.63,5.63,0,0,0-.15.68,8.48,8.48,0,0,0-.38-1.4c-.22-.57-1.12-.35-1,.21a.48.48,0,0,0-.44.47,13.16,13.16,0,0,0,.34,3.4.44.44,0,0,0,.19.28,9.4,9.4,0,0,0,.83,3.14,5.58,5.58,0,0,1-.33,1.8,5,5,0,0,1-.61-1,47.87,47.87,0,0,0-.62-6.71c-.08-.57-1-.41-1,.13-.05,2-.17,4.64.6,6.73a15.65,15.65,0,0,1-.15,2.11,6.44,6.44,0,0,1-.46-1.28c-.07-1.72,0-3.44-.12-5.16a.5.5,0,0,0-1,0c-.07.51-.11,1.05-.14,1.6a.57.57,0,0,0-.79.44,18.82,18.82,0,0,0,.47,6.55c0,.52.08,1,.08,1.55-.55-1.81-.49-3.83-1.12-5.62a.5.5,0,0,0-1,.13c0,1.57,0,3.14.09,4.7a.55.55,0,0,0-.32-.06,16.11,16.11,0,0,1-.19-2.13.5.5,0,0,0-1,0,17.82,17.82,0,0,0,.36,3.1,20.25,20.25,0,0,0-1.22,2.81l0,0a17.21,17.21,0,0,0,.25-5.93.5.5,0,0,0-.91-.12,13.89,13.89,0,0,0-1,2.58A12.89,12.89,0,0,0,17.42,22a.51.51,0,0,0-.91-.12,7,7,0,0,0-.58,1.49,17.76,17.76,0,0,0,0-3.69.51.51,0,0,0-.85-.35,4.63,4.63,0,0,0-.85,1.14,8,8,0,0,0-.67-4.16.51.51,0,0,0-.91.12,12.72,12.72,0,0,0-.31,2.93c-.17-1.25-.37-2.49-.51-3.75a.54.54,0,0,0-.83-.39,6.82,6.82,0,0,0,.22-.85.5.5,0,0,0-.91-.39A22.4,22.4,0,0,0,8.8,16.72a21.11,21.11,0,0,0,1-5.4A.51.51,0,0,0,9,11a5.11,5.11,0,0,0-.6.83c-.16-.27-.5-.44-.75-.13a11.58,11.58,0,0,0-1.37,2.61,9.68,9.68,0,0,0,.31-2.53.5.5,0,0,0-.93-.25c-.27.42-.52.86-.77,1.3a6.19,6.19,0,0,0,0-1.28A.5.5,0,0,0,4,11.3l-.09.13c0-.08,0-.16,0-.24a.5.5,0,0,0-1,0c0,.83-.07,1.67-.12,2.5,0,.6.8.63,1,.13,0-.08.06-.14.09-.22a5.48,5.48,0,0,0,0,1.11c.07.46.7.44.91.12s.36-.6.54-.9a7,7,0,0,0-.15,2.31.5.5,0,0,0,.84.22A5.19,5.19,0,0,0,6.8,15.3a20.76,20.76,0,0,0-.4,2.39.5.5,0,0,0,.93.25,41.07,41.07,0,0,0,1.22-4.18c-.41,1.86-1.13,3.66-1,5.61a.51.51,0,0,0,.82.38,5.17,5.17,0,0,0,0,1,.52.52,0,0,0,.77.43,20.34,20.34,0,0,1,.89,4.51,33.17,33.17,0,0,1-1.12-3.35.5.5,0,0,0-1,.27,19.69,19.69,0,0,1,.74,4.07c-.08-.2-.16-.41-.23-.62-.15-.51-.31-1-.47-1.51-.08-.3-.17-.59-.26-.89a.5.5,0,0,0-1,.27c.06.23.13.46.2.69.2.69.4,1.37.65,2,.08.27.14.54.2.81A24.07,24.07,0,0,0,6.57,25a.5.5,0,0,0-.91.39,19.11,19.11,0,0,0,1.64,3.83c.08.27.16.55.23.82-.55-1.17-1.1-2.35-1.65-3.52a.5.5,0,0,0-.93.25,11.27,11.27,0,0,0,.2,1.2c-.11-.22-.22-.43-.32-.65-.24-.51-1.1-.15-.91.39a29.06,29.06,0,0,0,3.05,6,11.34,11.34,0,0,1,.74,2.51c-1.57-1.62-2.79-4.67-3.62-6.35-.29-.59-1.12-.07-.86.5C4,32,4.66,33.7,5.5,35.34c.51,1,1.07,1.92,1.51,2.91-1.2-1.59-2-3.46-3.1-5.13a.5.5,0,0,0-.86.5c.81,1.53,1.64,3.06,2.53,4.55a13.83,13.83,0,0,1,1.77,3.12l0,0-.55-.87a54.28,54.28,0,0,0-3-4.58h0l-.08-.1c-.38-.47-1,.13-.79.61s.56,1.22.89,1.89l-.38-.54a.5.5,0,0,0-.86.5c.83,1.73,2,3.28,2.76,5a16.23,16.23,0,0,0-1.91-1.81c-.42-.3-.94.28-.68.68s.35.55.54.82a.52.52,0,0,0-.64.59.49.49,0,0,0-.11.76L3.2,45a.43.43,0,0,0,.61.05,4.56,4.56,0,0,0,1,.87c.4.25.8-.16.73-.56a4.73,4.73,0,0,0-.22-.81,4.86,4.86,0,0,0,.79.56.51.51,0,0,0,.73-.56,9.74,9.74,0,0,0-.37-1.15c.35.37.69.75,1.08,1.09a.51.51,0,0,0,.85-.35A4.5,4.5,0,0,0,8,42.63a.51.51,0,0,0,.44-.49,4.08,4.08,0,0,0-.28-1.44.5.5,0,0,0,.44-.61,9.86,9.86,0,0,0-.87-2.55l.29.2a.5.5,0,0,0,.75-.43,9.14,9.14,0,0,0-.12-1.14.5.5,0,0,0,.88-.29,5.46,5.46,0,0,0-.68-3,.42.42,0,0,0,0-.09,14.15,14.15,0,0,0-.37-2.71.44.44,0,0,0,.16-.24,5.25,5.25,0,0,0,.1-1.32.44.44,0,0,0,.35-.22A3.54,3.54,0,0,0,9.55,27a6,6,0,0,0,.4.55.5.5,0,0,0,.84-.22,7.36,7.36,0,0,0,.13-1.65l.1.14a.5.5,0,0,0,.84-.22c0-.15,0-.29.06-.44a.41.41,0,0,0,.43-.2c.27.22.73.22.8-.21,0-.05,0-.1,0-.15,0,1,0,2.08,0,3.12,0,.66.92.62,1,0,.26-2-.12-4.72.85-6.64.06,3-.69,6.07-.73,9a.5.5,0,0,0,.93.25c1.07-1.82,1-3.92,1.43-5.9,0,2.73-.75,5.44-.63,8.19a.5.5,0,0,0,1,.13c.77-2.61.89-5.37,1.68-8A50.65,50.65,0,0,1,18,30.28a9.43,9.43,0,0,0-.86,2.42c-.07.37.34.77.67.62a.5.5,0,0,0,.74.3c-.18.41-.34.8-.49,1.19l-.17.45c-.22.61.74.86,1,.27l.22-.57c.2-.49.43-1,.66-1.5a12.67,12.67,0,0,1,.91-1.59h.05a4.19,4.19,0,0,0,1.21-1.1,16.64,16.64,0,0,1-.72,2,13,13,0,0,0-1.61,3.47.53.53,0,0,0,.63.62v0a.5.5,0,0,0,.91.39c.71-1,1.3-2.11,2-3.15-.59,1.71-1.51,3.33-2.1,5-.21.62.72.84,1,.27a15.48,15.48,0,0,1,2.16-4c-.31,1.73-1.06,3.37-1.49,5.08a.5.5,0,0,0,1,.27A16.41,16.41,0,0,1,24.68,38c-.41,1.24-1,2.44-1.42,3.69-.17.53.68.91.91.39l.05-.12h0a12.12,12.12,0,0,1,1.33-2.76c-.21,1.29-1,2.5-1,3.86a.5.5,0,0,0,.93.25c.31-.5.57-1,.84-1.5,0,.06.07.13.12.19A15.66,15.66,0,0,0,26,44.68a.5.5,0,0,0,.93.25c.07-.13.13-.27.2-.4-.13.32-.26.63-.36.93a.5.5,0,0,0,.91.39,17.11,17.11,0,0,1,1.68-2.91c-.13.81-.45,1.63-.55,2.4-.06.51.7.65.93.25.37-.64.67-1.26,1.07-1.83,0,.42,0,.84,0,1.28a.5.5,0,0,0,.47.49.41.41,0,0,0,.43.25l.33,0a.51.51,0,0,0,.48-.63l-.12-.57a.48.48,0,0,0-.58-.34,14.09,14.09,0,0,0,0-1.73.51.51,0,0,0-.85-.35,4.66,4.66,0,0,0-.55.55,3.5,3.5,0,0,0-.05-1.16.51.51,0,0,0-.84-.22c-.18.16-.32.34-.47.51a4.29,4.29,0,0,0,0-.87c0-.35-.48-.67-.79-.41a14.29,14.29,0,0,0,.77-2.2.5.5,0,0,0-1-.27c-.09.33-.19.68-.3,1a.58.58,0,0,0-.67,0c-.11.1-.2.2-.3.3.15-1.15.6-2.43,0-3.43a.49.49,0,0,0-.53-.23,1.32,1.32,0,0,0-.5-.5.5.5,0,0,0-.72.56l-.06.06a9.5,9.5,0,0,0,.2-1.73.51.51,0,0,0-.85-.35L24.1,34a10.35,10.35,0,0,0,.44-2,.5.5,0,0,0-.85-.35c-.16.16-.3.33-.44.5.15-.34.29-.69.4-1a.5.5,0,0,0-.74-.56,4.42,4.42,0,0,0,.14-.68.48.48,0,0,0,.73-.12,7.22,7.22,0,0,0,.52-1.53.52.52,0,0,0,.28-.05c2-1.06,3.09-4,2.84-6.29a.49.49,0,0,0,.5-.23,5.2,5.2,0,0,0,.67-1.94.41.41,0,0,0,.35-.14,4.4,4.4,0,0,0,.92-2.07.37.37,0,0,0,.25-.13A4.63,4.63,0,0,0,30.85,16a.51.51,0,0,0,.59-.21,4,4,0,0,0,.69-1.63.4.4,0,0,0,.17-.1,4.93,4.93,0,0,0,.8-1.41A.45.45,0,0,0,33.53,12ZM9.91,20.51a.5.5,0,0,0-.13-.21l.29-.4A20.47,20.47,0,0,0,10.35,22C10.2,21.52,10.06,21,9.91,20.51Zm1-2.73v0s0,0,0,0a.49.49,0,0,0-.77-.4c.24-.54.48-1.09.69-1.64.06.82.12,1.68.18,2.55C11,18.08,10.92,17.93,10.89,17.79Zm8.27,14.49c-.11.2-.21.4-.31.61.2-.71.34-1.43.48-2.15l.11-.24a2.71,2.71,0,0,0,.19.62C19.49,31.5,19.33,31.89,19.16,32.28Zm2.31-2.85a5.49,5.49,0,0,0-.52.44,5.49,5.49,0,0,0,0-2.2s0-.06-.05-.09l.08-.21a17,17,0,0,0,.66,1.76Zm3.18-2.54-.06-.29c0-.4,0-.8,0-1.2a.45.45,0,0,0,.3-.3,6.46,6.46,0,0,0,.22-1c0,.08,0,.17,0,.25a11.59,11.59,0,0,0-.22,1.58.42.42,0,0,0,.23.41A4.06,4.06,0,0,1,24.65,26.89Zm4-8.77a16.25,16.25,0,0,0-.23-2.1,4,4,0,0,0,.52.88A4.59,4.59,0,0,1,28.68,18.11Z"/><path class="cls-2" d="M67.15,11.37a13,13,0,0,0-1.06,2.44,17,17,0,0,1-.64-2.89.5.5,0,0,0-1,0A24.74,24.74,0,0,0,64.12,14c0-.55,0-1.09-.09-1.61a.5.5,0,0,0-1,0c-.16,1.7.2,3.57-.34,5.21-.08-.2-.16-.41-.23-.61a31.37,31.37,0,0,0-.58-4.64c-.1-.58-1-.4-1,.13,0,0,0,.06,0,.09-.06.2-.12.4-.17.6a5.47,5.47,0,0,0-.44-.81.51.51,0,0,0-.91.12,10.76,10.76,0,0,0-.63,4.61l0,0c0-.17-.06-.36-.1-.53a.5.5,0,0,0-1,.13c0,.2,0,.4,0,.61a.51.51,0,0,0-.61.46,24.63,24.63,0,0,0,.24,4.77s0-.09-.05-.14a.43.43,0,0,0-.15-.17c0-.79-.09-1.57-.1-2.35a.5.5,0,0,0-1,0q0,.67,0,1.35a3.48,3.48,0,0,0-.34-.38.51.51,0,0,0-.85.35,10.23,10.23,0,0,0-.05,1.46.51.51,0,0,0-.6.14.5.5,0,0,0-.67.15,13.47,13.47,0,0,0-.85,1.34,19.65,19.65,0,0,0,.25-2.7.51.51,0,0,0-.85-.35,9.73,9.73,0,0,0-1.74,3.3c.16-.92.34-1.85.48-2.77a5.54,5.54,0,0,0-.22-3.31.5.5,0,0,0-.86,0,13.56,13.56,0,0,0-.92,2.65c.21-1.82.47-3.63.64-5.46.05-.58-.81-.64-1-.13-.55,1.68-.92,4.47-1.88,6.3-.08-2.92,1-6.2,1.32-9,.07-.52-.7-.64-.93-.25a18.23,18.23,0,0,0-1.62,4.06c.29-1.52.87-3,1.05-4.54v0h0s0-.09,0-.13c.06-.6-.8-.62-1-.13-.42,1.15-.73,2.33-1.08,3.5.21-1.34.67-2.68.84-4a.5.5,0,0,0-.93-.25,26.3,26.3,0,0,0-.8,3,13.88,13.88,0,0,0,.1-2.51.5.5,0,0,0-.93-.25,17.92,17.92,0,0,0-.94,2c0-.52,0-1.05.05-1.58a.5.5,0,0,0-1-.13c-.12.52-.25,1-.4,1.53a4.25,4.25,0,0,1-1.07-2.08.5.5,0,0,0-1,.27,4.37,4.37,0,0,0,2.06,3,.56.56,0,0,0,.3,0c0,.22,0,.45,0,.67s.55.73.85.35a7.39,7.39,0,0,0,.9-1.52,10.89,10.89,0,0,0,0,2.29c0,.39.52.69.84.37a6.16,6.16,0,0,0,.16,1.64.51.51,0,0,0,.78.25,6.36,6.36,0,0,0,.13,1.38.51.51,0,0,0,.91.12c.28-.65.51-1.32.72-2a16.8,16.8,0,0,0-.26,5.51.5.5,0,0,0,.84.22,6.16,6.16,0,0,0,1.18-1.88,38.86,38.86,0,0,0-.27,4.74.5.5,0,0,0,1,.13c.73-2,.91-4.09,1.54-6.08a24.14,24.14,0,0,1-.58,3.58,27.09,27.09,0,0,0-.54,4.77c0,.46.72.73.93.25.69-1.59,1.14-3.83,2-5.58-.3,2.38-1,4.69-1.44,7a.5.5,0,0,0,1,.27,28.06,28.06,0,0,1,2.06-5.71c-.19,1.14-.56,2.24-.84,3.4a40.72,40.72,0,0,0-.71,4.67c-.08.64.92.63,1,0,.18-1.48.39-2.92.7-4.36a15.8,15.8,0,0,0,.18,2.28c-.08.48-.16,1-.23,1.43,0,.3.26.5.53.49a11.1,11.1,0,0,0-.11,1.46.51.51,0,0,0,.85.35,5.37,5.37,0,0,0,1.27-1.66,5.78,5.78,0,0,0-.29,4,.51.51,0,0,0,.91.12c.2-.34.37-.69.54-1a18.24,18.24,0,0,0-.26,1.87c0,.45.51.6.81.38a6.17,6.17,0,0,0,0,2,.39.39,0,0,0,.11.21l-.13.11,0-.08a.51.51,0,0,0-.73-.56,8.44,8.44,0,0,0-.81.51,1.69,1.69,0,0,0-.29-1.5.51.51,0,0,0-.61-.08,10.68,10.68,0,0,0-2.46,1.78.56.56,0,0,0-.62-.34,7.28,7.28,0,0,0-1.4.39,3,3,0,0,0,.07-.34c0-.35-.34-.53-.63-.48a6.13,6.13,0,0,0-1.89.66,3.32,3.32,0,0,0,.41-.83.51.51,0,0,0-.73-.56,22.23,22.23,0,0,0-2.11,1.39.47.47,0,0,0-.71-.3A16,16,0,0,0,43,42.1a11.32,11.32,0,0,0,1.06-1.92.5.5,0,0,0-.48-.63,3.67,3.67,0,0,0-2.53,1.82c.13-.46.27-.91.42-1.39s-.77-.88-1-.27a15.78,15.78,0,0,0-.79,3.38c0,.47.56.61.85.35.58-.51,1.17-1.57,1.86-2.26a27.14,27.14,0,0,0-2.09,3.37.5.5,0,0,0,.79.61l.48-.44a.51.51,0,0,0,.85.34l.77-.73a.46.46,0,0,0,.59.33c2.07-.83,3.63-2.67,5.73-3.37,0,.08-.08.15-.12.23a12.18,12.18,0,0,0-3.36,2.85c-.34.42.08,1.09.61.79a10.73,10.73,0,0,0,3.43-2.86,8,8,0,0,1,1.2-.52,5.05,5.05,0,0,1-.43.6c-1.2.84-2.31,1.81-3.49,2.7-.5.38,0,1.23.5.86a27,27,0,0,0,2.94-2.11.39.39,0,0,0,.52,0,16.58,16.58,0,0,0,2.36-2,.46.46,0,0,0,.06-.61,11.17,11.17,0,0,1,1.3-1c.17.25-.59,1.16-.69,1.31a38.41,38.41,0,0,1-2.72,3.08.5.5,0,0,0,.71.71c1.29-1,2.35-2.33,3.62-3.37a24.94,24.94,0,0,1-2.4,2.73.5.5,0,0,0,.71.71c1.88-1.53,3.31-3.56,5.28-5h0c-.58,1.6-2.28,3-3.24,4.26-.39.49.23,1.16.71.71,1.65-1.58,2.91-3.55,4.6-5.06a36.78,36.78,0,0,1-3.78,4.78.5.5,0,0,0,.71.71c1-1,2-2.36,3.14-3.32-.64.81-1.31,1.61-1.89,2.47-.31.46.43,1.05.79.61l.08-.1h0v0c1-1.27,2-2.91,3.53-3.65-.18,1.27-1.76,2.62-2.39,3.6-.31.47.41,1,.79.61a19.82,19.82,0,0,1,1.44-1.66q0,.23,0,.47a.5.5,0,0,0,.91.39l.23-.3a.5.5,0,0,0,.87,0,4.15,4.15,0,0,1,.19-.38c.32-.23.38-.39.62-1s-.61-.8-.91-.39l-.1.13a10.39,10.39,0,0,0-.64-2,2.43,2.43,0,0,0-.06-.4.5.5,0,0,0-.33-.33q-.61-1-1.27-2.08a.53.53,0,0,0-.17-.28l-.7-1.12a.51.51,0,0,0-.56-.23,2.69,2.69,0,0,0-1.44,1.41c.12-.83.29-1.66.42-2.5.08-.51-.66-.95-.91-.39a25,25,0,0,1-1.64,3.57c.14-1.71,1-3.34,1.29-5,.08-.51-.65-.94-.91-.39-.19.39-.36.78-.53,1.17.22-.94.45-1.87.63-2.82.1-.53-.62-.91-.91-.39-.67,1.22-1.14,2.54-1.72,3.8.12-1.9,1.39-3.92,1.39-5.78,0-.4-.57-.7-.85-.35-.05.06-.09.14-.14.2,0-.31-.09-.62-.14-.93.1-.33.18-.65.25-1h0a.5.5,0,0,0,.59.05.51.51,0,0,0,.85-.18,7.22,7.22,0,0,0,.32-1.35.42.42,0,0,0,.22-.28,9.08,9.08,0,0,0,.21-1.53c0,.06.05.13.09.19a.51.51,0,0,0,.91-.12,11.75,11.75,0,0,0,.36-2.91l0,0a.51.51,0,0,0,.86,0,5.84,5.84,0,0,0,.93-2.37.5.5,0,0,0,.82,0,5.32,5.32,0,0,0,.7-1.92.52.52,0,0,0,.78-.25,11.74,11.74,0,0,0,.5-2.85,2.54,2.54,0,0,0,.73,1.06.51.51,0,0,0,.79-.1,18.37,18.37,0,0,0,.83-2l0,0a1.5,1.5,0,0,0,.57-1.34C68.12,11.09,67.41,11,67.15,11.37Zm-4,28.35c.17.3.34.61.49.9a.46.46,0,0,0-.39-.06,5.28,5.28,0,0,0-.74.29C62.77,40.49,63,40.11,63.18,39.72Zm-.9-1.05a10.79,10.79,0,0,0-1.17.89C61.42,38.93,61.76,38.41,62.28,38.67Zm-7.22-5.92a14.41,14.41,0,0,0,.21-1.53c.14-.58.3-1.15.45-1.73l.08,0c0,.18.05.35.07.53a.5.5,0,0,0,.33.43C55.8,31.22,55.48,32,55.06,32.74Zm.66-10a6.24,6.24,0,0,1,.33.9c0,.38.07.76.12,1.14s0,.72-.06,1.07A18.79,18.79,0,0,1,55.72,22.7Zm5-3.73a.54.54,0,0,0,.58.11,5.74,5.74,0,0,1-.29,1A7.55,7.55,0,0,1,60.7,19Z"/><path class="cls-2" d="M103.93,34.08a7.51,7.51,0,0,0-2.25-4.19.44.44,0,0,0,.18-.06c.4.33.8.66,1.21,1a.5.5,0,0,0,.73-.56,8,8,0,0,0-1.2-2.14l0-.1.11.08a.51.51,0,0,0,.73-.56,5.89,5.89,0,0,0-.23-.79.42.42,0,0,0,.15-.38c-.07-1.17-.15-2.33-.25-3.49q0-1-.17-2h0c.38.39.91,0,.84-.49A10.78,10.78,0,0,0,101.77,16a.42.42,0,0,0,0-.5l-.08-.1h0a10.13,10.13,0,0,0-1.42-1.6.56.56,0,0,0-.18-.11c-.17-.19-.35-.38-.52-.58-.36-.43-1.13.15-.79.61l.08.1h0l.65.84,0,.12a.53.53,0,0,0-.26.1l-.28.25a5.46,5.46,0,0,0-.53-.3.57.57,0,0,0-.25,0,8,8,0,0,0,.26-1c.07-.43-.49-.92-.84-.49s-1.32,2.27-1.92,2.37-.58-.47-.3-1.13q.39-.7.76-1.43c.29-.57-.54-1.07-.86-.5a18.29,18.29,0,0,0-.9,1.67,16,16,0,0,1-1.05,1.64,5.18,5.18,0,0,1,.55-1.76,23.48,23.48,0,0,0,1.43-2,.5.5,0,0,0-.79-.61,8.51,8.51,0,0,0-1.49,2,16.51,16.51,0,0,1-1.56,1.69,6.51,6.51,0,0,1,.75-1.42c.34-.48.68-1,1.06-1.39a.53.53,0,0,0-.13-.79c.12-.14.24-.28.36-.41a.5.5,0,0,0-.71-.71c-.44.44-.81,1-1.27,1.43,0-.33.14-.66.22-1a.5.5,0,0,0-.91-.39,6.72,6.72,0,0,1-.67.82c0-.16,0-.32,0-.48a.49.49,0,0,0-.56-.48.48.48,0,0,0-.71,0,13.36,13.36,0,0,0-1.84,3.07,33.55,33.55,0,0,0,.59-3.57c.06-.43-.58-.66-.85-.35a6.71,6.71,0,0,0-1.26,2.38,4.06,4.06,0,0,0-.3-1.18.5.5,0,0,0-.79-.1,8.34,8.34,0,0,0-1.28,4.1c-.16-.45-.32-.89-.5-1.32l.1-.15c.25-.33-.1-.73-.44-.75a6,6,0,0,1-.11-1.85c.13-.63-.83-.9-1-.27a4.48,4.48,0,0,0,0,1.1.39.39,0,0,0-.13.08c-.4.46-.77.94-1.13,1.43.22-.64.46-1.28.64-1.94.12-.46-.5-.87-.84-.49a9.08,9.08,0,0,0-1,1.5,18.78,18.78,0,0,0,.36-1.87c.07-.54-.69-.61-.93-.25A9.76,9.76,0,0,0,77,12.72c0-.23.08-.47.12-.7a.5.5,0,0,0-.91-.39A12.23,12.23,0,0,0,74.54,15a6.06,6.06,0,0,1,.29-2.59c.24-.6-.73-.86-1-.27-.65,1.65-.2,3.61-.11,5.33a.5.5,0,0,0,1,.13l.3-.9a.52.52,0,0,0,.75,0l.17-.21a.56.56,0,0,0,.44-.08c.07.63.34,1.11,1.22,1a4.24,4.24,0,0,0,1.7-.68.53.53,0,0,0,.8-.09l.19-.32a.45.45,0,0,0,.13.25.46.46,0,0,0-.14.34c0,.57,0,1.43.12,2.38-.07-.25-.13-.5-.21-.74a.5.5,0,0,0-1,.13A16.77,16.77,0,0,0,79.26,21l-.06-.22a.49.49,0,0,0-1,.12.4.4,0,0,0-.45.35,25.26,25.26,0,0,0-.34,3.24.48.48,0,0,0-.63,0c-1.45,1.51-.71,4.17-.37,6A8.32,8.32,0,0,0,76.7,33a.45.45,0,0,0-.24.42A11.44,11.44,0,0,0,76.78,36q.06.37.14.73a9.55,9.55,0,0,0-.41-.89.5.5,0,0,0-.79-.1c-1,1-.85,2.93-.29,4.77a9,9,0,0,0,.17,1.34,11,11,0,0,1-.07,1.28,6.84,6.84,0,0,1-.38-1.08.5.5,0,0,0-1,.27,6.43,6.43,0,0,0,1.12,2.41.51.51,0,0,0,.91-.12c0-.13.08-.27.11-.4.09.21.19.42.29.61a.51.51,0,0,0,.91-.12c0-.08,0-.16,0-.23l.14.14a.6.6,0,0,0,.29.12,4.51,4.51,0,0,0,.33,1.82c.16.4.87.54,1,0a5.94,5.94,0,0,0,.08-.91.45.45,0,0,0,.28.11c.25.29.78.33.86-.14A25.56,25.56,0,0,1,81,42.29a.57.57,0,0,0,.72-.47c.12-1.1.26-2.19.42-3.28a10.33,10.33,0,0,0,.2-1.34.49.49,0,0,0-.59-.48c0-.87,0-1.75,0-2.63a4,4,0,0,0,.18-.89.52.52,0,0,0,.39-.35A10.29,10.29,0,0,0,82.07,27c.8-.38,1-1.39,1-2.63a.57.57,0,0,0,.19-.39,14.1,14.1,0,0,0-.09-2.53.53.53,0,0,0,.59-.35A6.53,6.53,0,0,0,84,19.65c.08.08.16.18.25.25a.51.51,0,0,0,.71,0,.84.84,0,0,0,.22-1,.48.48,0,0,0-.69-.3,2.41,2.41,0,0,0-.27-.2L84,18c0-.35-.1-.7-.17-1.06a1.19,1.19,0,0,0,.7.26,1.5,1.5,0,0,0,1.22-.59,3.72,3.72,0,0,0,.3.52.51.51,0,0,0,.68.18c.07,0,.14-.12.21-.17l.06.06A1.32,1.32,0,0,0,88.75,17a.48.48,0,0,0,.42,0,5.63,5.63,0,0,0,1.21-.88,3.09,3.09,0,0,0,0,.46c.06.42.58.42.84.22a14.78,14.78,0,0,0,1.13-1,4.21,4.21,0,0,0,.1,1.46.5.5,0,0,0,.84.22c.26-.28.5-.58.73-.88a2.28,2.28,0,0,0,.23.58.51.51,0,0,0,.56.23,4.64,4.64,0,0,0,1.78-1.27,16.87,16.87,0,0,0-1.15,3.11.5.5,0,0,0,.84.49c.17-.16.33-.34.49-.52q.11.3.24.58a5.28,5.28,0,0,0-.09.59.51.51,0,0,0,.7.46q.19.28.4.55l-.09.63-.23-.16a.51.51,0,0,0-.73.56,4.73,4.73,0,0,0,.69,1.73c0,.41-.08.82-.1,1.23a12.27,12.27,0,0,0-1.08,5.4c0,.44.71.75.93.25a12.42,12.42,0,0,0,.46-1.24c1,1.38,2,2.76,3,4.19a13,13,0,0,1,1.85,3,39.54,39.54,0,0,1-4-5.14c-.37-.52-1.22,0-.86.5,1,1.57,2.11,3.08,3.07,4.68a11.42,11.42,0,0,1,1.73,3.42,10.14,10.14,0,0,1-.92-1.06,26.67,26.67,0,0,0-1.49-2.26A23.8,23.8,0,0,0,98.06,34c-.38-.44-1.06.12-.79.61a36,36,0,0,0,2.26,3.29c.41.66.82,1.31,1.27,1.93a8.2,8.2,0,0,1,1.08,2.94l-.24-.2a17.67,17.67,0,0,0-3.32-4.58c-.38-.41-1.11.13-.79.61s.56.87.84,1.33l-.21-.24a.48.48,0,0,0-.61-.06.41.41,0,0,0-.52.35S97,40,97,40h0v0a4.8,4.8,0,0,0,.26,2.35,6.08,6.08,0,0,1-.11,1.7,2,2,0,0,1-.38-.72,16.12,16.12,0,0,0-.08-3.67c0-.51-.89-.73-1-.13l0,.13h0a13.09,13.09,0,0,0-.14,1.83c0-.37,0-.73-.05-1.09a.5.5,0,0,0-1-.13,6.57,6.57,0,0,0-.08,3.21,4.52,4.52,0,0,1-.32,1,2.84,2.84,0,0,1-.52-1.1,6.76,6.76,0,0,0,.15-3c-.09-.55-.8-.4-1,0a5.25,5.25,0,0,0-.23,2.95,3.73,3.73,0,0,1-.18.4,2.14,2.14,0,0,1-.42-1A6.83,6.83,0,0,0,92,40.93c0-.52-.88-.73-1-.13,0,.15,0,.3-.06.46a7.75,7.75,0,0,0-.14-.77.5.5,0,0,0-1,0c0,.1,0,.2-.05.31a.46.46,0,0,0-.4.47A10.19,10.19,0,0,0,90,45.1c.15.41.88.54,1,0,0-.28.07-.56.1-.85a.43.43,0,0,0,.4-.07,2.3,2.3,0,0,0,.84.79A.52.52,0,0,0,93,44.8l.09-.14a3.31,3.31,0,0,0,1,1.12.51.51,0,0,0,.68-.18,4.47,4.47,0,0,0,.36-.66,4.82,4.82,0,0,0,.3.43.5.5,0,0,0,.79-.1,3.73,3.73,0,0,0,.3-.56,2.33,2.33,0,0,0,.89.69c.27.11.53-.12.62-.35a4.89,4.89,0,0,0,.26-1,5.87,5.87,0,0,0,1,1,.5.5,0,0,0,.73-.28,9.44,9.44,0,0,0,1.26,1.18.5.5,0,0,0,.73-.3,3.61,3.61,0,0,0,.12-1.61l.11.06a.51.51,0,0,0,.75-.43,6.8,6.8,0,0,0-.21-1.81l.11.1a.5.5,0,0,0,.73-.3,4.45,4.45,0,0,0-.69-3.14.47.47,0,0,0,.69-.16c.53-1.23-.28-2.44-.94-3.48q-.56-.89-1.16-1.75a18.77,18.77,0,0,0,1.7,1.39A.5.5,0,0,0,103.93,34.08ZM77.78,16.36c.23-.45.44-.91.64-1.37a6.84,6.84,0,0,0-.08.74.43.43,0,0,0,.12.32A2,2,0,0,1,77.78,16.36Zm.1,26.93-.1-.15a15,15,0,0,0,0-2.55A7.12,7.12,0,0,1,77.87,43.29Zm.57-18.75c0-.54.06-1.06.11-1.57a28.43,28.43,0,0,0,1.57,6.25.5.5,0,0,0,0,.27A21.1,21.1,0,0,1,80.46,32C79.82,29.5,79.19,27,78.44,24.54ZM81.24,29c-.33-1.28-.64-2.57-.94-3.86a9.33,9.33,0,0,0,.48.9.47.47,0,0,0,0,.45c.09.17.16.35.24.52A7.27,7.27,0,0,1,81.24,29Zm.67-3.81c-.07.26-.14.38-.22.4-.17-.9-.33-1.8-.49-2.71a3.69,3.69,0,0,0,.66,1A3.29,3.29,0,0,1,81.91,25.18ZM83,19.73l-.13-.21c-.15-.75-.33-1.5-.52-2.23A10.15,10.15,0,0,0,83,18.46,7.46,7.46,0,0,1,83,19.73Zm1.27-4.94v-.12a5.44,5.44,0,0,1,.34-2.33A6.34,6.34,0,0,1,84.27,14.78Zm7-1.26a14.6,14.6,0,0,1-1.07,1.36,11.9,11.9,0,0,0,.62-1.61.53.53,0,0,0,.56.06l0,0Zm9.85,31a9,9,0,0,1-1-1.17,5.06,5.06,0,0,0-.46-1.58,9.43,9.43,0,0,0,1.17,1.34A4.2,4.2,0,0,1,101.11,44.54Zm-.9-27.11c.32.36.62.75.92,1.14.07.18.14.37.2.56s.15.5.21.75c-.48-.76-1-1.52-1.45-2.29Zm2,6.53v0c0,.23,0,.47,0,.7-.29-.39-.62-.77-1-1.14v-.12A5.53,5.53,0,0,0,102.17,24Zm-2.84,2.75c0-.16.07-.31.1-.47l.81.79c0,.09,0,.17,0,.26A9.43,9.43,0,0,0,99.32,26.71Zm1-6.84A11.51,11.51,0,0,1,102,22.8a5.89,5.89,0,0,1-1-.71,5.45,5.45,0,0,0-.31-.94.48.48,0,0,0-.76-.1c-.25-.28-.5-.57-.74-.86,0-.1,0-.2,0-.29a.41.41,0,0,0-.5-.47l.72-1Zm-1.75,8.87c.1-.18.17-.37.25-.55,1.23,1.48,2.93,2.84,3.69,4.55-1.42-1.22-2.68-2.61-4-3.93C98.57,28.77,98.6,28.76,98.61,28.73Z"/><path class="cls-2" d="M124.64,18.93c-.17.12-.32.25-.48.38a4.88,4.88,0,0,0,.62-2.36.5.5,0,0,0-.75-.43l-.29.19a9.11,9.11,0,0,0,.42-1.14.5.5,0,0,0-.84-.49c-.17.15-.33.31-.5.46a15.28,15.28,0,0,0,2.07-3.25c.18-.4-.23-1-.68-.68l-.35.26a.54.54,0,0,0-.75-.35c-.14.08-.28.17-.42.26a4.65,4.65,0,0,0,.43-1,.51.51,0,0,0-.73-.56,24.16,24.16,0,0,0-2.1,1.35.53.53,0,0,0-.54-.21,8.14,8.14,0,0,0-2.18,1,6.59,6.59,0,0,0,.35-.64.5.5,0,0,0-.68-.68c-.38.22-.73.47-1.08.73.25-.41-.19-1.06-.65-.72l-.1.08h0l0,0c-.46.36-.89.74-1.31,1.13a6.84,6.84,0,0,0,.62-1.41.5.5,0,0,0-.84-.49c-.17.17-.33.35-.49.54a.51.51,0,0,0-.71,0,6.93,6.93,0,0,0-1.37,2.51c-.19.41.22.89.6.74-.09.19-.18.38-.26.58-.14.36.18.6.49.61-.11.43.49.75.85.45.6-.5,1.17-1,1.75-1.54a20.25,20.25,0,0,0-1.37,1.53h0l-.08.1c-.37.49.38.93.79.61a38.16,38.16,0,0,1,4.1-3.29c-.25.26-.5.52-.75.78-.61.56-1.22,1.14-1.8,1.74a.5.5,0,0,0,.71.71l1.64-1.59A29.16,29.16,0,0,1,121.35,12a40.76,40.76,0,0,1-3.42,3.24c-.38.39.13,1.13.61.79l.75-.57c-.46.43-.9.87-1.32,1.34a.5.5,0,0,0,.71.71c1.33-1.21,2.67-2.4,4.06-3.52-1.44,2-3.27,3.76-4.41,6a.5.5,0,0,0,.79.61,37.2,37.2,0,0,0,3.05-3c-.18.31-.37.61-.57.91a35.8,35.8,0,0,0-3.32,4.34c-.37.54.48,1,.86.5,1-1.28,2.17-2.69,3.19-4.17a12,12,0,0,1,1.23-1.12,15.85,15.85,0,0,1-2.34,3.37,17.62,17.62,0,0,0-2.6,4.23c-.17.45.53.88.84.49a52.06,52.06,0,0,1,3.95-4.83c-1.42,2.35-3.5,4.29-4.59,6.86-.21.5.34,1,.79.61,1.27-1.21,2.32-2.63,3.49-3.94-1.72,2.82-4.31,5.33-5.82,8.22a.5.5,0,0,0,.79.61c1.79-1.78,3.3-3.85,5.18-5.53-1.85,2.93-4.76,5.19-5.8,8.62a.49.49,0,0,0,.59.61,5.11,5.11,0,0,0-1.11,1.9.48.48,0,0,0,.09.42,6.38,6.38,0,0,0-2.22,1.38,2.69,2.69,0,0,0,.47-1.4.5.5,0,0,0-.63-.48,6.73,6.73,0,0,0-2.11,1.24s0-.09,0-.14a.51.51,0,0,0-.73-.56,6.16,6.16,0,0,0-2.49,3,.53.53,0,0,0,.32.73l-.29.34c-.42.48.27,1.18.71.71,1.24-1.35,2.37-3.06,4-4-.75,1.66-3.25,2.52-3.26,4.64a.5.5,0,0,0,.75.43c1.78-1.21,3-3.36,4.78-4.49-1,1.45-2.58,2.51-3.48,4-.25.42.26,1,.68.68,2.87-1.86,4.74-5,7.26-7.3-1.72,2.48-4,4.57-5.58,7.15a.5.5,0,0,0,.79.61c.65-.66,1.28-1.35,1.89-2a.51.51,0,0,0,0,.07,3.11,3.11,0,0,0,1.32,1,.52.52,0,0,0,.48.12c1.52.19,3-1.24,3.6-3.07a.39.39,0,0,0,0-.08,13.13,13.13,0,0,0,1.45-3.09.51.51,0,0,0-.53-.63,3.49,3.49,0,0,0,.74-2.31.51.51,0,0,0-.85-.35c-.5.46-1,.95-1.44,1.44.08-.15.16-.28.24-.43a.51.51,0,0,0-.49-.75,10.9,10.9,0,0,0,1.55-2.4.51.51,0,0,0-.55-.73,9.22,9.22,0,0,0,1.45-2.75.51.51,0,0,0-.73-.56,23.78,23.78,0,0,0-4.18,4.22c1.71-2.48,4.11-4.57,5.23-7.44.16-.41-.39-.79-.73-.56a15.74,15.74,0,0,0-2.06,1.64,18.34,18.34,0,0,0,2.87-4.9c.19-.53-.49-.76-.84-.49a13,13,0,0,0-1,.89,13.72,13.72,0,0,0,2-3.57C125.5,19.1,125,18.67,124.64,18.93Zm-5.88,20a.53.53,0,0,0,.08.21q-.48.52-.94,1.06a.45.45,0,0,0-.12-.44C118.11,39.46,118.43,39.18,118.75,38.9Zm4.81-1a22,22,0,0,1-1.86,2.59,17.62,17.62,0,0,0-2.37,3.76,2.14,2.14,0,0,1-.72-.58.48.48,0,0,0-.1-.08C120.18,41.64,121.79,39.68,123.56,37.86Z"/><path class="cls-2" d="M178.9,10.72v0a.51.51,0,0,0-.91-.12,5.83,5.83,0,0,0-.52,1.16c-.06-.3-.12-.6-.21-.9a.51.51,0,0,0-.91-.12,5.27,5.27,0,0,0-.45,1.59,5.18,5.18,0,0,0-.56-1c-.22-.3-.84-.35-.91.12,0,.24,0,.48-.05.71-.11-.24-.22-.49-.35-.73a.51.51,0,0,0-.91.12c0,.13,0,.25,0,.38l-.1-.14c-.31-.37-.81,0-.85.35a6.45,6.45,0,0,0,0,1.11l-.1-.2a.51.51,0,0,0-.91.12,8.22,8.22,0,0,0,.28,3.82q.26,1.19.47,2.41a29.13,29.13,0,0,0-1.24-3.64c-.19-.44-.77-.23-.91.12a4,4,0,0,0-.06,2.22c0-.07-.07-.15-.12-.23a.5.5,0,0,0-.93.25,18.83,18.83,0,0,0,.28,4.55,5.14,5.14,0,0,0-1.15-1.59.51.51,0,0,0-.84.22,5.4,5.4,0,0,0-.12,1.89,4.29,4.29,0,0,0-.6-.51.5.5,0,0,0-.75.43,14.64,14.64,0,0,0,.31,1.8l-.08.05c0-.25,0-.49-.08-.74-.1-.53-.8-.41-1,0a33.66,33.66,0,0,0-1.11,3.56,19.75,19.75,0,0,0,.66-4.08.5.5,0,0,0-.93-.25c-.1.19-.18.39-.26.59.05-.55.09-1.1.1-1.65a.5.5,0,0,0-1-.13c-.37,1.45-.4,3-.79,4.47,0-2,.69-3.94.14-5.92a.5.5,0,0,0-1,0c-.13.4-.25.81-.37,1.22a9,9,0,0,0-.19-3.23.5.5,0,0,0-1,0c0,.08,0,.16-.05.24h0c0-.15,0-.31,0-.46a.54.54,0,0,0-.2-.36c.06-.25.13-.5.17-.76.09-.52-.63-.92-.91-.39l-.06.12a11.83,11.83,0,0,0,.32-1.94c0-.55-.66-.6-.93-.25a20.44,20.44,0,0,0-1.81,3.17c.43-1.58.92-3.14,1.26-4.74a.5.5,0,0,0-.91-.39,18.8,18.8,0,0,0-1.38,2.66A34.44,34.44,0,0,0,155.38,11c.05-.5-.71-.67-.93-.25-.09.17-.17.34-.25.51a.48.48,0,0,0-.83,0c-.41.91-.7,1.89-1.08,2.81,0-.52,0-1,0-1.58a.5.5,0,0,0-.93-.25,15.44,15.44,0,0,0-1.12,2.27,8.34,8.34,0,0,1,0-2.33.48.48,0,0,0-.81-.37.43.43,0,0,0-.1-.73h0a.5.5,0,0,0-.93.25,5.17,5.17,0,0,0,.62,3.25.55.55,0,0,0,.31.2,2.27,2.27,0,0,0,.63,1.13.51.51,0,0,0,.79-.1,10,10,0,0,0,.58-1.16,9.73,9.73,0,0,0,.06,1.33.51.51,0,0,0,.93.25l.18-.28a6.51,6.51,0,0,0-.08.94.47.47,0,0,0,.58.47,10.84,10.84,0,0,0-.16,1.79.5.5,0,0,0,.93.25c.2-.4.39-.81.57-1.22-.23.85-.44,1.71-.58,2.58-.07.44.48.91.84.49a16.63,16.63,0,0,0,2-3.3,26.35,26.35,0,0,0-.87,3.52.52.52,0,0,0,0,.14.48.48,0,0,0-.81.36c0,.61,0,1.2,0,1.78-.05-.36-.09-.73-.14-1.1-.07-.63-1.06-.65-1,0a26.88,26.88,0,0,1,.25,6.71c-.85-1.6-.73-3.8-1.61-5.39-.23-.41-1-.26-.93.25a32.32,32.32,0,0,0,1.07,5.12c.11.39.27.82.44,1.26-.62-1.49-1.17-3-1.71-4.55-.21-.6-1.17-.35-1,.27.59,1.75,1.1,3.53,1.72,5.27a19.33,19.33,0,0,1,1.34,4.12c-1.55-2-2.41-5.06-3.45-7.17-.25-.51-1.07-.15-.91.39a40.25,40.25,0,0,0,1.7,4.86c-.22-.39-.43-.79-.67-1.17a.5.5,0,0,0-.91.39,20.5,20.5,0,0,0,2.11,4.24c.35.64.67,1.26,1,1.83l.06.12c.7,1.29,1.77,2.68,2,4.18a8.72,8.72,0,0,1-.81-.78l-.08-.15a35.71,35.71,0,0,0-3.29-5.28c-.32-.4-1,0-.84.49a15.57,15.57,0,0,0,2.58,4.2l.41.6a8.29,8.29,0,0,1,1.2,2.56c-1.75-1.36-2.88-3.47-4-5.32a.5.5,0,0,0-.86.5c.36.69.92,1.51,1.34,2.37a8.52,8.52,0,0,0-.73-1c-.36-.42-.9.05-.84.49a4.85,4.85,0,0,0,.36,1.25c-.35-.27-1,0-.79.48a4.38,4.38,0,0,0,2.08,2.6.51.51,0,0,0,.73-.3c0-.08,0-.15,0-.23a.49.49,0,0,0,.64-.33,3.26,3.26,0,0,0,.08-1.07,9.08,9.08,0,0,0,2.27,1.94.5.5,0,0,0,.73-.3,3.8,3.8,0,0,0-.07-1.43l.19.1a.51.51,0,0,0,.75-.43,6.54,6.54,0,0,0-1.17-3.94.39.39,0,0,0,.08-.3,9.85,9.85,0,0,0-.77-2.77h0c.25.22.78.18.84-.22a6.6,6.6,0,0,0-.27-2.84.49.49,0,0,0,.37-.33,4.83,4.83,0,0,0-.31-2.9.5.5,0,0,0,.64-.33,11.93,11.93,0,0,0,.39-3.08.45.45,0,0,0,.48-.23,3.92,3.92,0,0,0,.42-1.2.55.55,0,0,0,.16-.22,5.74,5.74,0,0,0,.29-1l0,0V25a.38.38,0,0,0,.07.43c0,.1,0,.21,0,.31.09.51.78.43.95,0,.17.33.67.49.87.08a12.23,12.23,0,0,0-.12,2,.5.5,0,0,0,1,.13c.45-1.33.81-2.68,1.17-4-.17,1.6-.53,3.21,0,4.81a.51.51,0,0,0,.91.12c0-.08.08-.16.12-.24s0,0,0,.05a.47.47,0,0,0,.66.44A10.29,10.29,0,0,0,162,32.6c.09.54.81.4,1,0a30.27,30.27,0,0,0,1.05-3.3,12.25,12.25,0,0,0,0,1.61,11.75,11.75,0,0,0,0,3.52c.08.46.6.44.84.16a17.19,17.19,0,0,0,.83,2,.5.5,0,0,0,.93-.25,16.37,16.37,0,0,0-.29-2.3,5.75,5.75,0,0,0,.6,1,.56.56,0,0,0,.26.19c-.09.38-.17.77-.23,1.16a.5.5,0,0,0,1,.27c.29-.92.53-1.85.74-2.79.07-.16.13-.32.21-.48-.21,1.31-.51,2.62-.73,3.93a.52.52,0,0,0,.25.54,10.27,10.27,0,0,0-.33,1.73c0,.48.74.7.93.25.49-1.11.92-3,1.88-4-.48,2.14-1.8,4-1.5,6.32a.5.5,0,0,0,.93.25c.56-1,.9-2.09,1.43-3.07a19.82,19.82,0,0,0-.54,3.33.5.5,0,0,0,.85.35c.71-.85,1-2.36,1.71-3.26-.36,1.76-1.22,3.51-1.47,5.3-.07.5.65.95.91.39a22,22,0,0,1,1.57-3.31,18.82,18.82,0,0,0-.84,3.49c-.06.53.69.63.93.25.36-.56.65-1.14,1-1.7a16.89,16.89,0,0,1-.51,1.72c-.18.53.69.91.91.39a8.71,8.71,0,0,1,.88-1.69q0,.62.06,1.24a.5.5,0,0,0,.93.25l.35-.45c.39.14.89-.26.61-.7L179,44.6a.5.5,0,0,0-.73-.13,8.81,8.81,0,0,0-.1-1.14.5.5,0,0,0-.73-.3l-.33.26a5.17,5.17,0,0,0,0-.74.51.51,0,0,0-.85-.35,4.89,4.89,0,0,0-.53.59c.21-.68.43-1.35.58-2a.51.51,0,0,0-.73-.56,3.26,3.26,0,0,0-1,.72,10.16,10.16,0,0,0,.42-2.24.5.5,0,0,0-.63-.48,3,3,0,0,0-1.65,1.66,23.92,23.92,0,0,0,.44-2.4c.05-.47-.56-.61-.85-.35a6,6,0,0,0-1.34,1.79,15.6,15.6,0,0,0,1.16-4.1.5.5,0,0,0-.63-.48,3.35,3.35,0,0,0-1.18.84,11.18,11.18,0,0,0,.35-1.7A.47.47,0,0,0,170,33c.07-.53.13-1.06.16-1.59a.5.5,0,0,0-.5-.49.49.49,0,0,0,0-.2c-.15-2.49-2-5.42-2-8,1.11,1.73,1.17,4.16,2.12,6a.5.5,0,0,0,.93-.25c-.23-2.58-.94-5.1-1.16-7.67.44,1.63.59,3.35,1.14,4.95.17.5,1,.46,1-.13-.15-1.69-.3-3.39-.58-5.07A26.13,26.13,0,0,0,172.31,24c.21.46.94.22.93-.25a34.22,34.22,0,0,0-.62-5.43c-.15-.81-.42-1.66-.58-2.52.6,1.74,1,3.57,1.42,5.36a.5.5,0,0,0,1-.27,30.18,30.18,0,0,1-.64-3.66c.15.46.3.9.46,1.32s1,.47,1-.13a11.37,11.37,0,0,0-.13-1.43.52.52,0,0,0,.71-.58,24.83,24.83,0,0,1-.44-2.51c.18.67.31,1.36.47,2a.5.5,0,0,0,1-.13c0-.63,0-1.32,0-2l.07.44c.08.51.84.44,1,0,.17-.59.29-1.18.47-1.76,0,.12.06.25.1.37a.5.5,0,0,0,1,0,13.26,13.26,0,0,0,.52-1.82C180,10.37,179,10.1,178.9,10.72ZM165.31,29.07c.06-.35.11-.71.16-1.06.29,1,.58,2,.83,3A7.85,7.85,0,0,0,165.31,29.07Zm1.65.23a25.45,25.45,0,0,1-.84-2.41c.09.18.18.36.27.54.52,1.54,1.11,3.06,1.54,4.63a.47.47,0,0,0,.13.22c-.08.39-.16.77-.25,1.15A24.29,24.29,0,0,0,167,29.3Zm1.76,1.5a.53.53,0,0,0,.5.34l-.12.15a.57.57,0,0,0-.4-.21,23.79,23.79,0,0,0-1.49-4.25,21.43,21.43,0,0,1-.61-2.22C167.77,26.32,168.08,29,168.71,30.8Z"/><path class="cls-2" d="M211.82,11.5a.51.51,0,0,0-.56-.23,2.82,2.82,0,0,0-1,.6.42.42,0,0,0-.36.35v.08l-.09.14c0-.05,0-.1,0-.15a.5.5,0,0,0-.85-.35c-.4.42-.75.9-1.12,1.37a2.64,2.64,0,0,0-.33-.59,6.52,6.52,0,0,0,.26-.9c.09-.46-.47-.88-.84-.49a28.66,28.66,0,0,1-2.38,2.86,7,7,0,0,1,.45-1.44c.22-.58-.6-.79-.91-.39A18.26,18.26,0,0,0,203,14.22c.21-.46.44-.91.64-1.38s-.38-1.08-.79-.61c-.12.14-.23.29-.34.44l.41-.78a.48.48,0,0,0,0-.44l.21-.35a.5.5,0,0,0-.79-.61c-1.16.94-2.18,2-3.27,3A7.59,7.59,0,0,0,200.14,12c.16-.35-.12-.9-.56-.73-1.58.6-2.58,2-3.92,2.93.42-.81,1-1.55,1.46-2.35a.51.51,0,0,0-.56-.73,7.06,7.06,0,0,0-3,2,.41.41,0,0,0-.34.08,18.08,18.08,0,0,0,1.52-2.49c.16-.36-.11-.89-.56-.73a5.08,5.08,0,0,0-2.35,2,14.7,14.7,0,0,0,1-1.66c.2-.42-.23-1-.68-.68-.22.14-.42.3-.62.46a6,6,0,0,0,.62-1.62.5.5,0,0,0-.84-.49,30.39,30.39,0,0,0-2.5,2.53,18.75,18.75,0,0,0,3.19-5.53.5.5,0,0,0-.84-.49c-.35.4-.68.8-1,1.21A20.07,20.07,0,0,0,191.73,2a.5.5,0,0,0-.84-.49c-.16.17-.31.35-.46.52.08-.21.16-.41.23-.63.14-.46-.51-.87-.84-.49-.58.68-1.17,1.47-1.79,2.26a5.28,5.28,0,0,0,.78-2,.51.51,0,0,0-.73-.56,6.9,6.9,0,0,0-1.23.85A.5.5,0,0,0,186,1c-.28.28-.54.58-.8.87.1-.31.2-.61.31-.92.23-.6-.74-.86-1-.27a29.58,29.58,0,0,0-1.1,3.58.49.49,0,0,0,.46.62c-.19.46.46,1,.81.54a23.19,23.19,0,0,1,2.62-3.08C186.52,4,184.94,5.31,184.21,7c-.17.42.39.77.73.56a11.4,11.4,0,0,0,2.41-2.1c-.71,1-1.45,2.05-2.07,3.15a.5.5,0,0,0,.79.61,15.16,15.16,0,0,0,2.3-2.69c-1.33,2.08-2.88,4-4.26,6.07-.33.48.39,1,.79.61a36.91,36.91,0,0,0,3.32-3.69,26.94,26.94,0,0,0-2.52,3.9h-.06a3.23,3.23,0,0,0-1,.61l-.27.22a.34.34,0,0,0-.22.25.5.5,0,0,0-.68.46c0,.05,0,.11,0,.16a.51.51,0,0,0,.37.48c.48.16,1-.23,1.46-.64a3.61,3.61,0,0,0,.06.69.5.5,0,0,0,.73.3c.18-.11.34-.22.51-.34a.43.43,0,0,0,.35.16.86.86,0,0,0,.86.74,2.11,2.11,0,0,0,1.57-.72.65.65,0,0,0,.26.1,3,3,0,0,0,1.55-.26.45.45,0,0,0,.7.27c1.23-.89,2.18-2.22,3.41-3.12a7.69,7.69,0,0,0-1.05,2.24.5.5,0,0,0,.61.62,9.22,9.22,0,0,0,3-2.18,7.25,7.25,0,0,0-1.32,2.13.51.51,0,0,0,.73.56,16.67,16.67,0,0,0,2.55-2l-.5.68c-.38.52.49,1,.86.5l.14-.19h.06c0,.12-.08.24-.11.36a.5.5,0,0,0,.84.49c.12-.12.22-.25.33-.37a5.67,5.67,0,0,0-.15.76.5.5,0,0,0,.75.43,6.15,6.15,0,0,0,1.55-1.78c0,.06,0,.12,0,.18a.51.51,0,0,0,.73.3,4.29,4.29,0,0,0,1-.71,10.51,10.51,0,0,0,.06,2.24h0a.5.5,0,0,0-.85.17,4.13,4.13,0,0,0-.06,2.25,5.66,5.66,0,0,0-.81-.93.51.51,0,0,0-.84.22,2.42,2.42,0,0,0-.06.58.57.57,0,0,0-.41.35,6.68,6.68,0,0,0-.25,1.56.43.43,0,0,0-.3.31,11.22,11.22,0,0,0-.2,4.28.46.46,0,0,0-.65.3,7.86,7.86,0,0,0-.18.85c0-.1-.08-.21-.13-.31a.5.5,0,0,0-.86,0,6.92,6.92,0,0,0-.74,2.82l-.35-.75a.51.51,0,0,0-.91.12,7.37,7.37,0,0,0-.21,1.49.49.49,0,0,0-.75.41,34.28,34.28,0,0,1-.21,4l-.05.05a11.43,11.43,0,0,0-1.45,3.13c-.15.44.49.85.81.51a5.68,5.68,0,0,0,.05.61.46.46,0,0,0-.22.39,9.82,9.82,0,0,0,.44,3,5.46,5.46,0,0,1-.16,1.59,8.88,8.88,0,0,1-1.19-2.92.5.5,0,0,0-1,.13c0,.35-.07.7-.09,1.06a.47.47,0,0,0-.54.48c0,.62,0,1.19,0,1.78,0-.09-.1-.18-.13-.27-.26-.59-1.12-.08-.86.5a5,5,0,0,0,1,1.5.5.5,0,0,0,.84-.22c0-.24.08-.47.11-.7a.4.4,0,0,0,.4-.35c.07-.44.11-.89.15-1.33a5,5,0,0,0,1.19,1.65.51.51,0,0,0,.79-.1,5,5,0,0,0,.35-1c.1.18.19.38.31.55a.51.51,0,0,0,.86,0,2.69,2.69,0,0,0,.19-.32c.12.14.24.29.37.42a.5.5,0,0,0,.79-.1,4.17,4.17,0,0,0,.27-2.78l.12.06a.5.5,0,0,0,.61-.35,7.39,7.39,0,0,0,.2-1.52l.11.13a.51.51,0,0,0,.85-.35,11.91,11.91,0,0,0-.09-3.19h0a.47.47,0,0,0,.56-.09,3.31,3.31,0,0,0,.86-2.09c.93-.36,1.2-1.56,1.24-2.77a.51.51,0,0,0,.39,0,2.73,2.73,0,0,0,1-2.56.43.43,0,0,0,.18-.18,7,7,0,0,0,.56-2.75,1.25,1.25,0,0,0,.39-.1c1-.47,1.11-2,.77-3.65a2.93,2.93,0,0,0,.24-.52v0a.51.51,0,0,0,.79.1,5.65,5.65,0,0,0,1.34-2.86,1,1,0,0,0,.75.43C213.28,19.85,212.67,12.75,211.82,11.5ZM189,14.66l-.12.13c-.11.11-.64.68-.76.65s-.16-.21-.13-.4a26.56,26.56,0,0,0,2-2.19A13.88,13.88,0,0,0,189,14.66Zm2.36-.21a3.92,3.92,0,0,1-.84.38,16.26,16.26,0,0,0,1.91-2.36A9.31,9.31,0,0,0,191.38,14.45Zm8.31,26.33-.19-.18A34,34,0,0,0,198,34.73a.4.4,0,0,0-.31-.23c.05-.55.11-1.1.14-1.65a11.76,11.76,0,0,0,.85,2.67,10,10,0,0,0,1.13,3.4A12.46,12.46,0,0,1,199.69,40.78Zm1.17-7c-.12-.34-.23-.68-.36-1s-.17-.84-.19-1a9.51,9.51,0,0,1,0-3.4A16.78,16.78,0,0,1,200.86,33.75Zm1,2-.08,0a20.23,20.23,0,0,0,0-2.1c.08.16.17.31.26.46C202.14,35.07,202.11,35.75,201.89,35.75Zm1.3-3.58a6.78,6.78,0,0,1-.15,1.12c0-.27,0-.54-.07-.8-.1-1-.17-1.94-.28-2.92a9.79,9.79,0,0,0,.53,1A10,10,0,0,1,203.19,32.17Zm1.39-2.89c-.08.68-.21.91-.36.88,0-.27,0-.52-.06-.72s0-.47-.06-.7a2.37,2.37,0,0,0,.49.33C204.59,29.14,204.59,29.21,204.58,29.27Zm-.43-2.45c-.12-.27-.23-.59-.34-.91a24.91,24.91,0,0,0-.66-3.22,9.72,9.72,0,0,1,0-1.18,13,13,0,0,0,1.1,3,19,19,0,0,1,.41,3.38A5.83,5.83,0,0,1,204.14,26.83Zm4.05-9.1c0-.39,0-.76,0-1.09s0-.53,0-.83.13-.5.21-.74A11.27,11.27,0,0,1,208.2,17.73Zm-1.08-1.5a11.33,11.33,0,0,0-.18,2.3l0,0a.5.5,0,0,0-.2,0c-.11-.47-.2-1-.26-1.46s.13-1,.24-1.44h.06l.27-.17C207.06,15.74,207.09,16,207.12,16.22Zm-.53,7.92a2.34,2.34,0,0,1-.24.74,13.22,13.22,0,0,0-.56-2.74,3.87,3.87,0,0,0,.81.75A3.68,3.68,0,0,1,206.58,24.15Zm4.36-5.74c-.54.37-.4-2.28-.37-2.81,0-.19,0-.38,0-.56.12-.83.22-1.66.29-2.5.39-.47.1-.31.35.2a3.73,3.73,0,0,1,.19,1.25C211.52,14.87,211.79,17.81,210.94,18.4Z"/><path class="cls-2" d="M257.9,11.29a.5.5,0,0,0-1,0c0,.11,0,.21,0,.31,0-.24-.07-.48-.12-.71-.13-.6-.92-.38-1,.13a27.24,27.24,0,0,1-.36,2.8c0-.6-.05-1.21-.07-1.83a.5.5,0,0,0-1-.13,7.35,7.35,0,0,0-.21.74.45.45,0,0,0-.43-.12,4.83,4.83,0,0,0-.29-1,.5.5,0,0,0-.86,0l-.27.61a2.49,2.49,0,0,0-.22-.16.46.46,0,0,0-.52,0c0-.32-.07-.63-.12-.91-.1-.47-.68-.43-.91-.12s-.53.83-.85,1.21c-.11-.39-.2-.79-.3-1.2a.51.51,0,0,0-.84-.22,5.18,5.18,0,0,0-.72.84c0-.16-.07-.32-.09-.48a.51.51,0,0,0-.91-.12l-.61,1a5.64,5.64,0,0,1-.1-.95.5.5,0,0,0-.93-.25c-.22.36-.48.7-.73,1.05l-.16-.33a.5.5,0,0,0-.91.39c.11.35.24.69.36,1a4.19,4.19,0,0,0-.45,1.08c-.15.62.78.88,1,.29l.22.58a3.51,3.51,0,0,1,0,.68,4,4,0,0,1-1.22-1.17,8.91,8.91,0,0,0-1.45-3.09c-.31-.43-1.09-.19-.91.39a11.69,11.69,0,0,0,1.45,3.15,4.27,4.27,0,0,1,.08,1.12,3.35,3.35,0,0,1-.88-.78,5.21,5.21,0,0,0-1.48-3.37.5.5,0,0,0-.84.49,7.73,7.73,0,0,0,1.31,3.2,2.1,2.1,0,0,1-.05.34,5.29,5.29,0,0,1-1.25-1.28,4.84,4.84,0,0,0-1-3,.5.5,0,0,0-.93.25,5.87,5.87,0,0,0,.93,3.07c0,.06,0,.12,0,.19a4.48,4.48,0,0,1-.86-.72,7.37,7.37,0,0,0-1.22-2.9.5.5,0,0,0-.85.35,5.2,5.2,0,0,0,1,2.82c.08.6.06.86-.6.56A7.37,7.37,0,0,0,233.34,11a.51.51,0,0,0-.85.35,7.47,7.47,0,0,0,2.18,4.5,5.08,5.08,0,0,1-1.12-.75c-.07-1.38-1.78-3.23-2.59-3.77a.5.5,0,0,0-.73.56,10.86,10.86,0,0,0,1.89,3.19,1.54,1.54,0,0,1-.5-.1,4.67,4.67,0,0,0-3-3.23.51.51,0,0,0-.56.73,8.32,8.32,0,0,0,.57.94.58.58,0,0,0,0,.23,2.83,2.83,0,0,0,.3.93.5.5,0,0,0-.55.1l-.08.1a.51.51,0,0,0-.08.61c1.15,1.58,2.08,1.5,2.42.8l.27.13a.55.55,0,0,0,.6-.08,1.43,1.43,0,0,0,1.61-.06l.09-.09a5.59,5.59,0,0,0,1.76.95.51.51,0,0,0,.62-.35c0-.07,0-.14,0-.22a1.37,1.37,0,0,0,.84.09,1.16,1.16,0,0,0,.9-.92,5.44,5.44,0,0,0,.88.55.51.51,0,0,0,.68-.18c0-.07,0-.13.07-.19a5.61,5.61,0,0,0,1.51,1.2.51.51,0,0,0,.68-.18,2.65,2.65,0,0,0,.19-.42,3.5,3.5,0,0,0,1.35.75.51.51,0,0,0,.62-.35,4.42,4.42,0,0,0,.12-.76,3.57,3.57,0,0,0,1.31.71.49.49,0,0,0,.44-.1l.1.25a.52.52,0,0,0,1,0c.29.38.6.74.93,1.08-.22.37-.43.72-.58,1-.56-.58-1.12-1.14-1.59-1.67s-1.11.22-.71.71c.6.73,1.18,1.48,1.77,2.22l0,.08-.46-.43a.5.5,0,0,0-.79.61,13.38,13.38,0,0,0,1.8,3l-.06.11c-.18-.26-.36-.51-.56-.76a.5.5,0,0,0-.86.5c.24.5.5,1,.77,1.48-.11.24-.22.47-.32.71-.37-.19-.82.32-.63.74l.18.35,0,0a.43.43,0,0,0,.34.59c.34.63.72,1.27,1.14,1.91l-.38.89A19.35,19.35,0,0,0,245,28.45c-.37-.43-1.09.13-.79.61.46.73,1,1.45,1.53,2.17-.17.44-.33.89-.46,1.35-.22-.22-.44-.44-.68-.64-.41-.35-1.09.09-.79.61s.72,1.12,1.11,1.67a9,9,0,0,0-.08,1c-.36-.42-1.11.15-.78.61,1.14,1.6,2.25,3.22,3.36,4.83a14.16,14.16,0,0,0,.86,1.17c.05.14.1.28.15.43h0a26.51,26.51,0,0,0-3.16-4,.5.5,0,0,0-.79.61,16.82,16.82,0,0,0,.89,1.45.58.58,0,0,0-.29.74,17,17,0,0,0,1.82,3.1v0a3.05,3.05,0,0,1-.64-.5,4.69,4.69,0,0,0-1.1-1.43c-.4-.35-1.12.11-.79.61a10.14,10.14,0,0,0,1,1.31,4.09,4.09,0,0,1,.21.55,9.13,9.13,0,0,1-1.21-1.1c-.45-.46-1.16.24-.71.71a6.41,6.41,0,0,0,2.49,1.82.5.5,0,0,0,.63-.48c0-.17-.05-.33-.08-.49a3.12,3.12,0,0,0,.9.26.36.36,0,0,0,.27-.08,7.54,7.54,0,0,0,2.43,1.74c.36.15.72-.28.61-.62,0-.15-.1-.29-.16-.43a.47.47,0,0,0,.67-.32,6.23,6.23,0,0,0,0-2.77.47.47,0,0,0-.38-.34,3.55,3.55,0,0,0-.19-1.63.51.51,0,0,0-.73-.3l-.19.13,0-.1.31-.94a.51.51,0,0,0,.45-.49c0-.22,0-.44-.07-.66.16-.47.31-.94.47-1.41a7.39,7.39,0,0,0,.53-4.44.45.45,0,0,0-.16-.23,8.08,8.08,0,0,0-1.38-3.2l-.07-.12a.71.71,0,0,0,.2-.17c.73-.95.42-2.34-.32-3.78a.52.52,0,0,0,0-.16,4.56,4.56,0,0,0-.13-1.25l0-.13a.53.53,0,0,0,.57-.21c.71-.94.42-2.26-.31-3.65l.21,0a.51.51,0,0,0,.62-.61,8.55,8.55,0,0,0-.36-1.19,5,5,0,0,0-.1-.94.41.41,0,0,0,.21-.28,4.21,4.21,0,0,0,.07-1.27,2.93,2.93,0,0,0,.25.25c.25.2.78.2.84-.22s.06-.6.08-.9a.56.56,0,0,0,.15-.14c.12-.18.23-.35.33-.53.17.51.29,1.05.44,1.47a.48.48,0,0,0,.62.32.53.53,0,0,0,.63-.18,3.75,3.75,0,0,0,.43-.76v0h0c0,.26.1.52.17.78a.51.51,0,0,0,.91.12,5.48,5.48,0,0,0,.74-1.81,4,4,0,0,0,.46.94c.21.31.84.34.91-.12A20.33,20.33,0,0,0,257.9,11.29Zm-9.81,16.65.17.3c.22.38.49.78.78,1.21a.56.56,0,0,0-.16.07c-.14.11-.26.24-.39.37q-.35-.63-.73-1.24l.33-.71Zm1.5,10.38a8,8,0,0,1-1.22-1.52c.13-.3.27-.59.42-.88A9.44,9.44,0,0,1,249.59,38.32Zm-4-2.27c.1-.12.19-.26.29-.39.37.51.74,1,1.09,1.55l-.15.42c-.42-.53-.85-1-1.28-1.54Zm2-.44c-.11-.17-.22-.33-.32-.47l-.55-.75.54-1q.37.53.71,1.08Q247.81,35,247.61,35.61Zm.78-2.53c-.19-.22-.37-.46-.55-.69q.22-.38.47-.74l.28.47C248.54,32.44,248.47,32.76,248.39,33.08Zm-1.22-5.36q-.41-.63-.86-1.24l.27-.48q.39.6.83,1.16C247.33,27.34,247.25,27.53,247.17,27.71Zm1.23-8.65.16.12.15.23c-.18.41-.4.82-.61,1.22l-.35-.42C247.95,19.83,248.16,19.44,248.4,19.07Zm-1.14,5.61.14-.29a6.24,6.24,0,0,0,1,.75l-.35.75Q247.65,25.27,247.26,24.68Zm-2-10.94a8.72,8.72,0,0,0-.32-.88l.33-.47a3.41,3.41,0,0,0,.34,1,.44.44,0,0,0,.2.19,8,8,0,0,0,.5,1.28Zm1.79-1.2c0,.09,0,.18.08.26A.5.5,0,0,0,248,13a10.93,10.93,0,0,0,.68-.87,10.31,10.31,0,0,0,.3,1,.51.51,0,0,0,.39.34c.12.47.27.95.37,1.44-.31-.57-.6-1.15-.89-1.75s-1.12-.07-.86.5c.11.24.22.47.34.7-.47-.54-1-1-1.47-1.52Zm.1,17.5c.18.25.37.5.56.75-.18.24-.34.49-.49.75l-.43-.61C246.9,30.62,247,30.33,247.15,30Zm-.49,2.49-.56,1-.09-.12c.09-.44.21-.88.35-1.32Zm.93,6.08.12-.28a13.26,13.26,0,0,1,1.15,2.4h0A13.69,13.69,0,0,0,247.59,38.6Zm.19,5.18a8.3,8.3,0,0,0-.51-1.17c.25.24.51.46.77.68l0,.14a.49.49,0,0,0,.62.6c.29.47.55.94.78,1.4A9,9,0,0,1,247.78,43.78Zm1.75-1h0a.52.52,0,0,0,.52,0,14,14,0,0,1-.29,1.43l-.22-.34a.42.42,0,0,0,.1-.28A6.94,6.94,0,0,0,249.53,42.79Zm.68-6a11.48,11.48,0,0,0-.45-1.14l.08.06a.51.51,0,0,0,.73-.3,2.46,2.46,0,0,0,0-1.54l0,0a.55.55,0,0,0,.21.11A7.73,7.73,0,0,1,250.21,36.8Zm.25-4.37c-.27-.27-.53-.56-.8-.85q.06-.5.06-1A5.69,5.69,0,0,1,250.46,32.43ZM249.59,28q-.34-.29-.65-.61l-.35-.59.17-.37.28-.63A3.78,3.78,0,0,1,249.59,28ZM251,14.33c-.27-.41-.49-.86-.78-1.28a3.36,3.36,0,0,0,.4-.48,4.73,4.73,0,0,0,.38,1.65Z"/><path class="cls-2" d="M272.27,16.21l-.17-.38,0,0-.21-.44a5.81,5.81,0,0,0-.26-1.19.49.49,0,0,0,.58-.35,3.81,3.81,0,0,0-.29-2.33c-.25-.59-1.12-.08-.86.5l0,.3c-.09-.12-.19-.24-.28-.37-.31-.44-1.1-.19-.91.39s.4,1.06.61,1.61a.44.44,0,0,0-.13.08c-.25-.75-.57-1.48-.82-2.1a.5.5,0,0,0-1,.27,9,9,0,0,0,1.16,3.2,4,4,0,0,1,.08.73c-.09-.12-.16-.25-.25-.37s-.22-.44-.34-.65a.46.46,0,0,0-.23-.2l0-.06a16.72,16.72,0,0,0-1.61-3.54c-.28-.48-1.11-.16-.91.39A21.06,21.06,0,0,0,268,15.2a7.2,7.2,0,0,1,.23,1.3,10,10,0,0,1-1.28-2c-.14-.23-.29-.45-.44-.67a10.58,10.58,0,0,0-1.5-2.79c-.31-.42-1.1-.2-.91.38a12.14,12.14,0,0,0,1.6,3,4.92,4.92,0,0,1,.13.5,15.44,15.44,0,0,1-1.73-2.22c-.17-.33-.35-.64-.53-.92.32-.34-.14-1-.65-.75a.69.69,0,0,0-.16.12.48.48,0,0,0-.32.72l0,.07a4,4,0,0,0,.22,1.13c-.32,0-.71.26-.57.62s.23.56.36.83a3.94,3.94,0,0,1,.34,1.3c-.37-.5-.67-1.09-1.05-1.56s-1.11.21-.71.71c.69.83,1,1.71,1.86,2.35a.5.5,0,0,0,.73-.3,3,3,0,0,0,.15-.68.49.49,0,0,0,.44,0c.37.65.7,1.17.85,1.44l0,0a.5.5,0,0,0-.79.61c1,1.91,2.21,3.72,3.33,5.58A23.52,23.52,0,0,1,270,28.15c-1.72-1.9-2.42-4.63-4.44-6.34a.5.5,0,0,0-.84.49c.79,3,3.33,5.11,4.74,7.84-.5-.62-.92-1.31-1.4-1.95a41.28,41.28,0,0,0-3.23-3.84c-.45-.47-1.13.23-.71.71a43.89,43.89,0,0,1,3.92,5.21,21.67,21.67,0,0,1,2,3.15c-1.32-1.51-2.24-3.35-3.73-4.74a.5.5,0,0,0-.79.61c.9,1.71,2,3.33,3,5A20.2,20.2,0,0,1,270.18,37c-1.74-2-2.94-4.41-4.8-6.31a.5.5,0,0,0-.79.61,48.9,48.9,0,0,0,3.32,5,12.61,12.61,0,0,1,2,3.39c-1.65-1.62-2.75-4.27-4.22-5.93-.4-.45-1,.12-.79.61A40.07,40.07,0,0,0,267.7,39c.39.61,1,1.35,1.43,2.11C268,39.62,267,38,266,36.41a.5.5,0,0,0-.86.5c.8,1.36,1.41,2.81,2.13,4.21a17.54,17.54,0,0,1,1.36,2.63,9.55,9.55,0,0,1-1-1.26,11.16,11.16,0,0,0-1.1-1.9.5.5,0,0,0-.86.5A16.08,16.08,0,0,0,266.79,43a8.11,8.11,0,0,1,.31.84l0,0a4.84,4.84,0,0,0-.93-1.52,1.66,1.66,0,0,0-1.53.87,7.4,7.4,0,0,0,1.62,2.17.5.5,0,0,0,.81-.19,5,5,0,0,0,.62.42c.3.17.8,0,.75-.43,0-.11,0-.2-.06-.31a9,9,0,0,0,.7.61c.33.25.72-.1.75-.43a4.07,4.07,0,0,0-.44-2.12c.12.12.22.26.33.38a.5.5,0,0,0,.84-.22,3.34,3.34,0,0,0-.33-1.9l.15.11a.5.5,0,0,0,.75-.43,4.38,4.38,0,0,0-.36-1.9.5.5,0,0,0,.8-.38,7,7,0,0,0-1.39-3.65c.14.13.28.26.43.38a.51.51,0,0,0,.85-.35,4.82,4.82,0,0,0-.82-2.64.49.49,0,0,0,.57-.6,8.94,8.94,0,0,0-.71-1.8l.08.07a.5.5,0,0,0,.75-.43,6.62,6.62,0,0,0-1.1-3.23c.08.07.15.15.24.22a.51.51,0,0,0,.85-.35,4,4,0,0,0-.11-1.37.49.49,0,0,0,.78-.25,5.66,5.66,0,0,0-.57-3.35l-.64-1.61.05.06a.51.51,0,0,0,.84-.22,4.15,4.15,0,0,0,.1-2.43A.54.54,0,0,0,272.27,16.21Zm-3.7,1.65.05,0a.41.41,0,0,0,.39-.06c.26.73.53,1.45.81,2.17a20.89,20.89,0,0,1,1.09,2.86C269.94,21.3,269.4,19.5,268.57,17.86Zm-2.57-.5c-.32-.58-.62-1.16-.93-1.74a12.61,12.61,0,0,0,.93.92.59.59,0,0,0,.47.12,31.81,31.81,0,0,0,2,4.64,18.28,18.28,0,0,1,1.72,3.61c-1.91-2-2.86-4.84-4.85-6.86A.51.51,0,0,0,266,17.36Z"/><path class="cls-2" d="M310.31,36.94a.62.62,0,0,0,.09-.4,6.49,6.49,0,0,0-1.48-3,6.34,6.34,0,0,0,.63.31.51.51,0,0,0,.62-.35,4.38,4.38,0,0,0-.6-3.38l.37.15a.51.51,0,0,0,.62-.35,3,3,0,0,0-.46-2.7.5.5,0,0,0,.55-.35,3.65,3.65,0,0,0-.93-2.8l.44.15a.51.51,0,0,0,.56-.73,7.47,7.47,0,0,0-.71-1.11,3.8,3.8,0,0,0,.05-2.22,6.43,6.43,0,0,0,.05-2,.5.5,0,0,0-.84-.22l-.07.08a5.81,5.81,0,0,0,0-1.86.5.5,0,0,0-.84-.22,6.32,6.32,0,0,0-.53.58l-.15-.18a5.61,5.61,0,0,0,0-.81.51.51,0,0,0-.85-.35l-.06.07-.45-.52c0-.06,0-.13,0-.19a.49.49,0,0,0,.14-.66c-1.66-2.22-4.36-3-6.52-4.59-.52-.39-1,.48-.5.86.27.2.54.4.81.59a.51.51,0,0,0-.09.35.45.45,0,0,0-.62.19,9.47,9.47,0,0,0-.41,1c0-.21,0-.43-.08-.64-.08-.5-.67-.41-.9-.1a.48.48,0,0,0-.87.15c-.13.48-.25.94-.4,1.4a5.83,5.83,0,0,0,0-1.65.5.5,0,0,0-.65-.33l.12-.5a.5.5,0,0,0-1-.27c-.09.34-.17.7-.24,1.08a.49.49,0,0,0-.87.13,8.69,8.69,0,0,0-.41,2.73,20.77,20.77,0,0,0-1.39-3.73c-.2-.34-.84-.32-.91.12-.22,1.33.41,2.64.44,3.93-.54-1.06-.81-2.28-1.33-3.35A.45.45,0,0,0,290,11a.44.44,0,0,0-.51-.18,4.31,4.31,0,0,0-1.49,1c.05-.42-.56-.64-.86-.37a6,6,0,0,0-.79.91c0-.13.1-.26.14-.4a.5.5,0,0,0-.84-.49,5.85,5.85,0,0,0-1,1.05c.05-.13.12-.27.16-.4.21-.58-.6-.79-.91-.39-.78,1-1.34,2.17-2.1,3.18.19-.8.53-1.59.7-2.38a.5.5,0,0,0-.61-.6c.06-.48-.65-.83-.92-.32a15.71,15.71,0,0,0-1.25,3.5.5.5,0,0,0,.91.39l.07-.11a3.83,3.83,0,0,0,0,.93.51.51,0,0,0,.85.35c.15-.13.28-.26.41-.4-.09.24-.18.47-.26.71a.5.5,0,0,0,.84.49,6.4,6.4,0,0,0,.87-1v0a.5.5,0,0,0,.84.49c.08-.06.15-.14.22-.21l0,.11a.5.5,0,0,0,.84.49,9.09,9.09,0,0,0,1.38-1.95c.09.33.19.66.31,1l0,0a.43.43,0,0,0,.25.55c.33.83.7,1.65,1.05,2.48a21.59,21.59,0,0,0-1.78-2.6c-.32-.39-1,0-.84.49a21.14,21.14,0,0,0,.88,2.3.56.56,0,0,0-.57.63,15.53,15.53,0,0,0,1.76,4.52,21,21,0,0,1,1.84,3.69,31.23,31.23,0,0,1-2.21-3.6q-1.43-2.32-2.82-4.66c-.34-.57-1.11-.07-.86.5.42,1,.88,1.94,1.36,2.89L285,24a.49.49,0,0,0-.44.62c.06.17.12.34.19.51l-.11.5-.12-.27c-.26-.59-1.12-.08-.86.5l.63,1.41q-.13.58-.27,1.16a6.88,6.88,0,0,0-1.56,4.44.5.5,0,0,0,.93.25c.15-.28.29-.57.42-.87.09.31.19.61.3.92-.08.28-.15.54-.19.79a.5.5,0,0,0-.7.57A19.78,19.78,0,0,0,285.37,39a21.21,21.21,0,0,0,1.15,2.15,10.69,10.69,0,0,1,.48,1.24c-1.37-1.76-2.37-4.19-3.57-5.87-.3-.42-1.14-.18-.91.39l.05.12h0c.85,2,2.71,4.17,3,6.41l-.16-.19A17.32,17.32,0,0,0,283.09,39c-.29-.45-1.13-.17-.91.39l.05.12h0q.25.65.54,1.28a.48.48,0,0,0-.68.56c0,.12.08.25.12.37a.51.51,0,0,0-.54.63,10.38,10.38,0,0,0,.52,1.26l0,.15-.62-.57c-.46-.45-1.17.26-.71.71a21.51,21.51,0,0,0,1.63,1.44.56.56,0,0,0,.77-.06l0,0a.5.5,0,0,0,.8-.15,4,4,0,0,0,.79.61.51.51,0,0,0,.75-.43c0-.08,0-.16,0-.25l0,0a.5.5,0,0,0,.84-.22,5.21,5.21,0,0,0,0-1.48,7.49,7.49,0,0,0,1,1c.3.24.9.12.85-.35a8,8,0,0,0-.15-.94c.28,0,.58-.17.54-.48a14.68,14.68,0,0,0-1-3.55,9.16,9.16,0,0,0,1-5,.46.46,0,0,0-.5-.35.53.53,0,0,0,.39-.48,7.52,7.52,0,0,0-.1-1.11,9.11,9.11,0,0,0,1.28,1.35.51.51,0,0,0,.85-.35,7.59,7.59,0,0,0-.72-2.87h0c.34.25.72-.1.75-.43a6.12,6.12,0,0,0-1.09-3.56.53.53,0,0,0,.34-.6,15.47,15.47,0,0,0-.95-3c.15.26.3.53.46.78s1,.27.93-.25a11.68,11.68,0,0,0-.73-2.91c.1.11.2.23.32.33a.51.51,0,0,0,.79-.1,2.82,2.82,0,0,0,.28-.8,4.86,4.86,0,0,0,.88.79.5.5,0,0,0,.73-.3,9.66,9.66,0,0,0-.31-3.8.59.59,0,0,0,.43-.35,3.25,3.25,0,0,0,.21-1.32,8.69,8.69,0,0,0,.63,1.43.51.51,0,0,0,.91-.12,5.5,5.5,0,0,0,.32-1.65,9.57,9.57,0,0,1,0,1.74c-.07.64.93.63,1,0,0-.33,0-.64.06-1a1.65,1.65,0,0,0,.4.34.49.49,0,0,0,.6-.1.51.51,0,0,0,.91.12,6,6,0,0,0,.51-1.18c0,.28,0,.57,0,.85a.52.52,0,0,0,.57.48h0a.5.5,0,0,0,1,.27c.12-.35.23-.72.35-1.09l-.19.87c-.11.52.66.93.91.39a12.27,12.27,0,0,1,1.3-2.41,11.07,11.07,0,0,1-.75,3.11c-.21.62.73.85,1,.27a9.8,9.8,0,0,1,1.33-2.4,14.35,14.35,0,0,1-1.11,3.46.45.45,0,0,0,.44.61.38.38,0,0,0,0,.11,2.88,2.88,0,0,0,.69,1.61.38.38,0,0,0,0,.29,4.28,4.28,0,0,0,1.13,1.53c-.49-.36-1.17.28-.69.72a31.22,31.22,0,0,0,3.68,3.08,5.12,5.12,0,0,1,1.78,3,8,8,0,0,1-1.29-.7,27.1,27.1,0,0,0-3.88-3.73.5.5,0,0,0-.71.71,21.57,21.57,0,0,0,3.92,3.76,5.81,5.81,0,0,1,1.58,3.49c-2-1.05-3.32-3.26-4.93-4.77-.48-.45-1.1.21-.71.71.26.33.57.69.9,1.06l-.17-.17c-.48-.45-1.09.21-.71.71,1.22,1.55,2.59,3,3.76,4.55a16.7,16.7,0,0,0,1.28,1.6,5.53,5.53,0,0,1,1.17,2.3c-.2-.13-.4-.29-.6-.45A21.36,21.36,0,0,0,305,32.7a.5.5,0,0,0-.79.61,21.08,21.08,0,0,0,4.31,5.51,4.64,4.64,0,0,1,.54,2l-.5-.71c-1.13-1.58-2.2-3.33-3.92-4.33a.5.5,0,0,0-.68.68c.45.76,1,1.59,1.56,2.41l-.8-.59c-.5-.37-.92.38-.61.79,1.42,1.82,2.59,3.9,4.46,5.28a6.93,6.93,0,0,1-.64-.35,6.16,6.16,0,0,1-1.11-.8A9.13,9.13,0,0,0,304,39.77c-.34-.26-1,0-.84.49,0,.11.09.22.15.33-.31-.05-.66.18-.61.5a4.82,4.82,0,0,0-.52-.47c-.37-.28-.83.18-.73.56A6.62,6.62,0,0,0,303,44.1a.52.52,0,0,1-.32-.05,3.31,3.31,0,0,1-1.08-1,10.19,10.19,0,0,0-1.88-3.34c-.3-.37-.94,0-.84.44a1.58,1.58,0,0,0-.44-.21.52.52,0,0,0-.58.26,4,4,0,0,0-.31-.33.51.51,0,0,0-.85.35,4.31,4.31,0,0,0,.29,1.55.52.52,0,0,0-.73.57c.1.4.2.78.29,1.16a4.76,4.76,0,0,0,.26,1.68.53.53,0,0,0,.86.21c0,.12.07.23.13.35a.5.5,0,0,0,1-.27c0-.14-.06-.28-.09-.42a2.52,2.52,0,0,0,.3-.66,1.16,1.16,0,0,0,.37.06,5.29,5.29,0,0,0,1.41,1.29.51.51,0,0,0,.68-.18,2.35,2.35,0,0,0,.32-.91,3.4,3.4,0,0,0,1.78.72A.49.49,0,0,0,304,45a5.3,5.3,0,0,0,.58.33.51.51,0,0,0,.73-.3c0-.06,0-.12,0-.18.26.23.52.46.8.67a.5.5,0,0,0,.68-.18,2.24,2.24,0,0,0,.18-.6,5.56,5.56,0,0,0,2.37.85c.29,0,.47-.25.5-.5a3,3,0,0,0,0-.32.51.51,0,0,0,.11-.2,3.38,3.38,0,0,0-.22-2.45,3.5,3.5,0,0,0,.15-2.33l.17.1a.51.51,0,0,0,.73-.3A3.24,3.24,0,0,0,310.31,36.94ZM284.22,31c.1-.29.19-.59.28-.89.07.25.14.49.21.74s-.09.34-.14.51c-.06-.08-.12-.16-.19-.24A.44.44,0,0,0,284.22,31ZM286,38.11c-.52-1.12-1-2.26-1.61-3.34a.46.46,0,0,0,.23-.12c.47,1,1,2.08,1.47,3.12Zm-.34-10-.43-1,.1-.46a29.06,29.06,0,0,1,1.94,4.43A29.68,29.68,0,0,1,285.7,28.1Zm.06-3.15h0c.34.62.68,1.23,1,1.83a22.16,22.16,0,0,1,2.59,4.75A30.65,30.65,0,0,1,285.75,24.95Zm1.82-10,0-.07a.39.39,0,0,0-.45-.14,13.28,13.28,0,0,1,.92-1.43l.18.38C288,14.07,287.77,14.49,287.57,14.92Zm2.53,4.35a21.67,21.67,0,0,1-1.88-3.32c.16-.39.32-.79.5-1.17l.06.13c.41,1.09.76,2.23,1.26,3.25A3.56,3.56,0,0,1,290.11,19.26Zm.88-1.34a15.68,15.68,0,0,0-1.34-3.45c-.11-.31-.23-.61-.35-.91q.34-.73.62-1.5c.7,2.23,1.84,4.57,1.83,6.93A5.42,5.42,0,0,1,291,17.93ZM306,19.19l-.6-.27a21.76,21.76,0,0,1,1.17-2A15.11,15.11,0,0,1,306,19.19Zm1.9-1.06.2.28c-.12.59-.29,1.17-.45,1.75-.2-.14-.41-.27-.62-.4C307.36,19.21,307.63,18.65,307.94,18.13Zm-4.21.24h0c.47-.76.86-1.56,1.34-2.3-.22.82-.5,1.63-.76,2.44C304.09,18.47,303.91,18.41,303.73,18.37Zm4.84,7a31.18,31.18,0,0,0-3-2.58,6.69,6.69,0,0,0,2.38,1,.51.51,0,0,0,.22,0,5.23,5.23,0,0,1,1.49,2.19A9.58,9.58,0,0,1,308.57,25.35Zm-7.84,19.17a4.64,4.64,0,0,1-.5-.51,1.24,1.24,0,0,0,.28-.6l.17.21A2.53,2.53,0,0,1,300.73,44.52Z"/><path class="cls-2" d="M346.25,15.84a.5.5,0,0,0-.68-.68,13,13,0,0,0-1.95,1.16,3.82,3.82,0,0,0-.23-.65,16.54,16.54,0,0,0,2.47-3.33.5.5,0,0,0-.68-.68,10.49,10.49,0,0,0-2,1.35,6.78,6.78,0,0,0,.49-.94c.18-.44-.39-.74-.73-.56a9.74,9.74,0,0,0-2.24,1.6c.18-.29.37-.59.53-.89a.5.5,0,0,0-.27-.71c.39-.44-.28-1.09-.74-.66a14,14,0,0,0-2.8,3.88.5.5,0,0,0,.61.71c-.08.15-.18.29-.25.44a.5.5,0,0,0,.79.61c1-.82,1.89-1.81,2.86-2.68-.9,1.05-2,2-2.82,3.06-.31.41.28.93.68.68a41.94,41.94,0,0,0,4.44-3.69c-.32.41-.66.82-1,1.21a.61.61,0,0,0-.23.12,4.21,4.21,0,0,0-1.08,1.4,14,14,0,0,0-2,3,10.3,10.3,0,0,0-.53-1.13.5.5,0,0,0-.91.12c-.55,2.37.24,4.67.51,7,.19,1.61.24,3.22.36,4.82-.12.15-.25.3-.37.46a.5.5,0,0,0,.43.75h0a21.12,21.12,0,0,0,.44,2.67l0,0a3.75,3.75,0,0,0-.24.46.53.53,0,0,0-.59.08,6.92,6.92,0,0,0-1.5,3.62l0,0a.5.5,0,0,0-.56.23,6.46,6.46,0,0,0,.11,3.88l0,0c-.07.14-.16.31-.27.48a4.32,4.32,0,0,0-.71-2.78.5.5,0,0,0-.61-.08,1.79,1.79,0,0,0-.65.71,3.82,3.82,0,0,0-.45-.78.53.53,0,0,0-.56-.23l-.06,0-.17-.28c-.25-.37-1-.28-.93.25a4,4,0,0,0,.14.72,1.89,1.89,0,0,0-.16.4,5.59,5.59,0,0,0-1.58-2.67.56.56,0,0,0-.23-.12.46.46,0,0,0-.61-.12,4.76,4.76,0,0,0-.94.89l0,0a16.3,16.3,0,0,0,1.11-3.19.5.5,0,0,0-.79-.4,12.92,12.92,0,0,0,.71-1.56c.18-.49-.5-.82-.84-.49-.18.17-.32.37-.48.55a11,11,0,0,0,.85-3.28.5.5,0,0,0-.63-.48,3.07,3.07,0,0,0-.4.17,5.59,5.59,0,0,0,.18-1.77.5.5,0,0,0-.84-.36,21.63,21.63,0,0,0,1-3.19.5.5,0,0,0-.91-.39c-.38.51-.73,1-1.07,1.56l.31-.83c.45-1.16,1-2.29.58-3.53a.51.51,0,0,0-.73-.3A7.93,7.93,0,0,0,324.94,23l.06-.15c.48-1.09,1.09-2.21.68-3.41a.51.51,0,0,0-.73-.3,7.47,7.47,0,0,0-.67.52,10.13,10.13,0,0,0,1.63-4,.5.5,0,0,0-.85-.35c-.35.39-.69.79-1,1.19a21.66,21.66,0,0,0,1.29-3.27.52.52,0,0,0-.44-.63c.1-.27.19-.53.27-.8a.51.51,0,0,0-.73-.56,7.17,7.17,0,0,0-1.64,1.39,9.71,9.71,0,0,0,.4-1.21.5.5,0,0,0-.84-.49,9.64,9.64,0,0,0-1.11,1c.07-.24.14-.48.19-.73a.5.5,0,0,0-.84-.49,5.17,5.17,0,0,0-.55.61.48.48,0,0,0-.29-.06c-.1-.35-.52-.59-.79-.23-.67.86-.65,2.47-.6,3.51A.57.57,0,0,0,319,15c-.09.22-.19.44-.27.67-.19.53.65.88.91.39a19.12,19.12,0,0,1,1.74-2.76,26.77,26.77,0,0,0-1.89,4.27.5.5,0,0,0,.91.39c1.08-1.54,1.86-3.38,3.14-4.76-.31.69-.68,1.38-1.07,2.06a20.25,20.25,0,0,0-2.1,3.69l-.07.13h0l-.06.12c-.21.52.66.89.91.39.54-1.1,1.23-2.21,1.89-3.34-.95,2-2.06,4-2.81,6-.19.53.68.91.91.39a21.43,21.43,0,0,1,3-4.8c-.43.81-1,1.6-1.32,2.38s-.78,1.82-1.15,2.73a27,27,0,0,0-1.37,3c-.21.53.65.88.91.39a31.14,31.14,0,0,0,1.35-3,10.64,10.64,0,0,1,2.2-2.91,9.87,9.87,0,0,1-1.09,2.78c-.75,1.78-1.36,3.61-2.14,5.37-.25.58.58,1.09.86.5l.47-1a13.78,13.78,0,0,0-.66,5.29.51.51,0,0,0,.93.25,10.17,10.17,0,0,0,.94-1.66,11.18,11.18,0,0,0,0,1.18l0,.1a.39.39,0,0,0,.08.42c0,.11,0,.22,0,.32a5.76,5.76,0,0,0-.12,3,.51.51,0,0,0,.91.12,29.6,29.6,0,0,0,1.68-3.56c.26-.42.5-.85.73-1.29a4.13,4.13,0,0,1,.69-.79c-.42,2.07-1.62,3.92-2.15,6a.49.49,0,0,0,.64.59,6.75,6.75,0,0,0-.24.88.5.5,0,0,0,.91.39c.21-.28.41-.56.61-.85a4.54,4.54,0,0,0-.4,2.39.5.5,0,0,0,.84.22l.15-.2a13.38,13.38,0,0,0,.71,1.6,4.85,4.85,0,0,1,.16,2.13h0A7.5,7.5,0,0,1,328,43.4a8.22,8.22,0,0,0-1.5-3.62.51.51,0,0,0-.85.35A6.24,6.24,0,0,0,327,43.8c-.06.78-.46,1.38-1.16,1,.46-1.93-1.71-5.22-3.08-5.76a.51.51,0,0,0-.56.23,2.29,2.29,0,0,0-.12,1.91A8.47,8.47,0,0,0,321,39.48a.5.5,0,0,0-.85.35A12.1,12.1,0,0,0,321.82,44s0,.1,0,.15c-.11,1.62-.8.07-1.26-.69l-.11-.21a8.53,8.53,0,0,0-1-2.94c-.22-.42-1-.25-.93.25a8.15,8.15,0,0,0,.24,1.24.44.44,0,0,0-.44.35,3.33,3.33,0,0,0,0,1.59,2.23,2.23,0,0,1-.51-.92c0-.64-1-.64-1,0a3,3,0,0,0,1.68,2.3.48.48,0,0,0,.46,0,4.62,4.62,0,0,0,.51.59.5.5,0,0,0,.84-.22,5.06,5.06,0,0,0,.11-.5,7.86,7.86,0,0,0,1,1.05.51.51,0,0,0,.71,0,2.34,2.34,0,0,0,.54-.9c.72.77,1.52,1.18,2.31.77a1.66,1.66,0,0,0,.23-.16,2.55,2.55,0,0,0,1,.48,1.56,1.56,0,0,0,1.24-.21.5.5,0,0,0,.24,0,1,1,0,0,0,.56-.76,6,6,0,0,0,1,.76.53.53,0,0,0,.61-.08,4.24,4.24,0,0,0,3-.83,1.31,1.31,0,0,0,.22.06h.06a1.68,1.68,0,0,0,.56.37A1.49,1.49,0,0,0,335.6,45a1.63,1.63,0,0,0,.59-.15,2.52,2.52,0,0,0,1-1.11,1.36,1.36,0,0,0,1.81,0l.12-.09c.79-.16,1.32-.87,1.64-1.86.91-.08,1.55-.91,2-2a10.43,10.43,0,0,0,1.71-4,.49.49,0,0,0,.31-.43c0-.18,0-.37,0-.56.74-2,1.79-3.9,1.39-6.11a.5.5,0,0,0-.8-.24,4.8,4.8,0,0,0-.55-3.19l0,0c0-.07.09-.13.12-.21a.51.51,0,0,0-.56-.73,6.41,6.41,0,0,0-.71.2c0-.33-.09-.65-.16-1a9.84,9.84,0,0,0,2.05-3.09c.16-.43-.38-.76-.73-.56A11.34,11.34,0,0,0,343.24,21c.12-.54.25-1.11.35-1.69A15.59,15.59,0,0,0,346.25,15.84ZM324.54,29l-.09.33a23.4,23.4,0,0,0-1.2,2.29,18.14,18.14,0,0,1,1.56-5.6A18,18,0,0,1,324.54,29Zm2-6.13a6.84,6.84,0,0,1-.77,2.49,8.78,8.78,0,0,0-.15-1.11.4.4,0,0,0-.22-.28A7.87,7.87,0,0,1,326.55,22.87Zm-.36,9.59-.11.19c-.23.4-.46.78-.7,1.14.2-.6.43-1.16.59-1.64l.4-1.16a10.5,10.5,0,0,1,.82-1.09A9.33,9.33,0,0,1,326.19,32.45Zm-2.6,12a2.32,2.32,0,0,1-.74-.71,6,6,0,0,0-.25-1.28,10.68,10.68,0,0,0,1.48,2.18A2.6,2.6,0,0,1,323.59,44.45ZM323,40.37c.19-.13,1.41,1.89,1.72,3.21C323.87,42.45,322.63,40.64,323,40.37ZM335,42c.47-.38.3,1.19.2,1.47l-.06,0a.45.45,0,0,0-.14-.38l-.21-.22A1,1,0,0,1,335,42ZM329.19,40c.08-.1.15-.21.23-.3a.49.49,0,0,0,.39.23,13.56,13.56,0,0,0,1.49,3.75c0,.08,0,.15,0,.23A6,6,0,0,1,330,42.17,16.56,16.56,0,0,0,329.19,40Zm1,5.07a4.82,4.82,0,0,0,.09-.73,4.82,4.82,0,0,0,.78.66A2.4,2.4,0,0,1,330.21,45Zm10.87-8.23a9.34,9.34,0,0,0-.56-2.55c.72-.88.71-2.86.8-3.7.24-.18.48-.37.71-.57h0a.42.42,0,0,0,.44.12q0,.33,0,.66a24,24,0,0,0-.1,2.86A4.11,4.11,0,0,0,341.08,36.79Zm1,1.49a7,7,0,0,1,.3-3.14A12.83,12.83,0,0,1,342.13,38.28Zm-2.84-14.7c0,.08-.07.15-.1.23a.48.48,0,0,0,.2.53c.08.71.15,1.42.18,2.11l-.1.14c0-.33-.06-.66-.09-1-.18-1.58-.63-3.17-.7-4.76A18,18,0,0,1,339.28,23.57Zm3.49,2.81c-.18.2-.36.4-.56.59,0-.24,0-.47.08-.71l.48-.28C342.77,26.13,342.77,26.26,342.77,26.39ZM340,22.09q-.15-.71-.35-1.38l.12-.05.63-.49c-.07.54-.14,1.07-.2,1.61Zm1.52-2.85,1.27-1.06c0,.19,0,.38,0,.57-.46.49-.92,1-1.36,1.49C341.45,19.92,341.49,19.58,341.55,19.25ZM342.75,17l-.78.63a5.09,5.09,0,0,1,.32-.69l.36-.41A4.1,4.1,0,0,1,342.75,17Zm-2.33,14.15a10,10,0,0,1-.38,2c-.1-.57-.18-1.14-.24-1.71A5.06,5.06,0,0,0,340.43,31.11Zm-1.93,5.51.09-.2c-.31,1.72-.18,3.78.69,4.8a1.78,1.78,0,0,1-.13.44,2.25,2.25,0,0,1-.55.74,1.58,1.58,0,0,1-.6-.73,2.09,2.09,0,0,1-.1-.27,4.45,4.45,0,0,0-.12-2A10.82,10.82,0,0,1,338.5,36.62Zm4.89-.85c0-.38,0-.72,0-1a.49.49,0,0,0,.06-.19c.13-1.24,0-2.8,0-4.32q0-.48.08-1c.29-.3.57-.61.84-.93-.07.68-.2,1.37-.29,2-.18,1.43-.29,2.86-.33,4.3l-.1.26C343.56,35.17,343.47,35.47,343.39,35.77Zm-1.13-14.3a.47.47,0,0,0-.21.12,3,3,0,0,0-.49.7l-.4.29c0-.18,0-.35.05-.53a15.78,15.78,0,0,1,1.28-1.6C342.42,20.79,342.34,21.13,342.26,21.47Z"/><path class="cls-2" d="M381.25,42.22c-.21.2-.39.42-.58.64a8.45,8.45,0,0,0,.56-3,.52.52,0,0,0-.12-.29.46.46,0,0,0,.24-.28,4.42,4.42,0,0,0-.47-2.79.44.44,0,0,0,.2-.27,6.85,6.85,0,0,0-.19-3.59c.07-.3.14-.6.19-.92a.55.55,0,0,0-.26-.55,7,7,0,0,0,.84-2.45.47.47,0,0,0,.4-.46,5.42,5.42,0,0,0-.19-1.58c.78-2.09.14-4.65-.36-6.73-.62-2.58-1.65-5.21-3.93-6.74a.43.43,0,0,0-.61.11,12.63,12.63,0,0,0-4.62-2.43.5.5,0,0,0-.27,1,11.59,11.59,0,0,1,5.77,3.74c.32.54.65,1.07.92,1.63a13.69,13.69,0,0,1,.95,3.35,14.72,14.72,0,0,0-1.05-1.42l-.22-.88a.44.44,0,0,0-.39-.33,11.87,11.87,0,0,0-.82-1.38.51.51,0,0,0-.9.1.56.56,0,0,0-.38,0,8,8,0,0,0-.83-3c-.21-.42-.77-.25-.91.12-.52,1.31,0,2.86.7,4.21a3.89,3.89,0,0,1-.13.53,5.65,5.65,0,0,1-.93-1.29,9.84,9.84,0,0,0-.6-4.49.51.51,0,0,0-.91-.12,5.73,5.73,0,0,0,.33,4.53c-.53.5-1-.4-1.37-1.54a8.32,8.32,0,0,0-.52-3.33.5.5,0,0,0-.91.12c0,.18,0,.38,0,.57a2.69,2.69,0,0,0-1.16-1.43.51.51,0,0,0-.73.3,6.8,6.8,0,0,0,.27,4.12,2.33,2.33,0,0,1-.5-.5c.15-1.12-.29-5.17-2-4.14a1.31,1.31,0,0,0-.58.68,3.71,3.71,0,0,0-.69-1,.51.51,0,0,0-.71,0,2.16,2.16,0,0,0-.68,1.9,2.46,2.46,0,0,0-2-1.45.51.51,0,0,0-.5.5,4.24,4.24,0,0,0,.41,1.89,3.8,3.8,0,0,0-2.47-2A.44.44,0,0,0,358,12a2.25,2.25,0,0,0-2-.84h0a2.25,2.25,0,0,0-.39-.19.5.5,0,0,0-.63.48,4.91,4.91,0,0,0,.4,1.66l-.16-.16a.5.5,0,0,0-.84.49,3.29,3.29,0,0,0,.16.4.58.58,0,0,0-.1.4,3.16,3.16,0,0,0,.48,1.35.51.51,0,0,0,.35.46c.1.11.2.22.32.34a.51.51,0,0,0,.84-.22s0,0,0-.07a1.12,1.12,0,0,0,.87.1,2.41,2.41,0,0,0,.55.39c.81.95,1.77,1.5,2.75,1a1.61,1.61,0,0,0,.89-1.12,1.87,1.87,0,0,0,1.1-.28l.08-.06a1.92,1.92,0,0,0,2.08.26,1.56,1.56,0,0,0,.3-.2c.84.63,1.74.81,2.25.13a9.48,9.48,0,0,0,1.18,1.05.5.5,0,0,0,.61-.08l.07-.08a1.36,1.36,0,0,0,.58.21,1.14,1.14,0,0,0,1-.39,5.26,5.26,0,0,0,1.58,1.71.49.49,0,0,0,.5,0,2.3,2.3,0,0,0,.44-.45,5.09,5.09,0,0,0,1.36,1.4c-.84,1.93-1,4.68-.34,6a.5.5,0,0,0,.86,0c.11-.19.19-.4.28-.6a5.45,5.45,0,0,0,.55,1.06h0c-.36,1.46-.82,2.89-1.27,4.22-.15.42-.29.85-.43,1.26-.2.62.76.87,1,.27.25-.78.54-1.57.86-2.33a9.82,9.82,0,0,0,.44,1.16.42.42,0,0,0,0,.16c0,.29.06.57.09.86-.34.75-.63,1.51-.92,2.2-.2.49.4.74.77.5-.33.71-.63,1.42-.92,2.12h0l-.05.12s0,0,0,0a6.49,6.49,0,0,0-.73-.72c-.4-.28-.79.18-.73.56a6.11,6.11,0,0,0,.92,2.28l-.19.32a.5.5,0,0,0,.79.59c.23.35.47.69.68,1-.39.9-.79,1.79-1.2,2.69h0l-.05.12c-.21.52.68.9.91.38l.15-.34c.24-.58.51-1.17.8-1.74l.11.22a6.24,6.24,0,0,0-1,2.64.5.5,0,0,0,.85.35,10.18,10.18,0,0,0,1-1.49,4.72,4.72,0,0,0,1,1.09h0c-.09.29-.18.59-.25.89a.5.5,0,0,0,.91.39c.31-.44.6-.88.9-1.32l-.09.17a.5.5,0,0,0,.86.5c.65-.9,1.23-1.87.79-3A.51.51,0,0,0,381.25,42.22ZM359.56,14c-.16-.22-1.15-1.67-.22-.73a4.41,4.41,0,0,1,1,1.66A6.39,6.39,0,0,1,359.56,14Zm2.76.16a2.53,2.53,0,0,1-.61-1.06c-.14-.59-.21-.59.18-.13a2.3,2.3,0,0,1,.5,1.13Zm1.78-2.06c0,.05.48,1.4.53,1.87a2.36,2.36,0,0,1,0,.35C364.18,13.46,363.88,12.47,364.11,12.11Zm2,3.75a.8.8,0,0,1-.55-.26,3,3,0,0,0,.19-1.2,10.93,10.93,0,0,0,.83,1.13A.59.59,0,0,1,366.11,15.86Zm3-.43a5.35,5.35,0,0,1-.4-2.31A4,4,0,0,1,369.14,15.43Zm9.13,20.07.13-.23.19-.32.19.52-.37.78c0-.25-.1-.5-.15-.75Zm-.64-8.64a14.48,14.48,0,0,0,.6,1.61c-.11.29-.23.57-.35.86q-.37-.78-.8-1.54C377.24,27.47,377.44,27.17,377.62,26.87Zm3.59-3.46c-.17-.41-.37-.79-.56-1.18a.51.51,0,0,0,.34-.45c0-.22,0-.43,0-.65a13.25,13.25,0,0,1,.33,2.55Zm-.44,1.29q-.21-.24-.46-.47l-.12-.28c-.12-.45-.25-.9-.37-1.35A12.21,12.21,0,0,1,380.78,24.7ZM377.5,36.78q.1.5.21,1l-.41.94-.55-.66Zm2.13,4.44a4,4,0,0,1,.56-.48,8.07,8.07,0,0,1-.28,1.31l-.15-.19Q379.7,41.53,379.63,41.22Zm-3.48-17.85a15.54,15.54,0,0,0,.39-2.34l.17.49a16.18,16.18,0,0,1-.27,3.07A6.32,6.32,0,0,1,376.14,23.37Z"/><path class="cls-2" d="M360.93,32.78c.24-1.51.6-3,.79-4.53.05-.43-.58-.66-.85-.35-.1.12-.18.25-.28.37a11.86,11.86,0,0,1-.72-1.64.52.52,0,0,0-1,.06.5.5,0,0,0-.76.54,13.78,13.78,0,0,0,.86,2.11A12.23,12.23,0,0,0,356.79,27c-.36-.26-.86.17-.73.56h0a.5.5,0,0,0-.78.53,8.86,8.86,0,0,0,.46,1.17.53.53,0,0,0-.68.6,8.76,8.76,0,0,0,1,2.38,6.65,6.65,0,0,0-.81-.54.51.51,0,0,0-.73.56,22,22,0,0,0,2.5,4.38v0a.56.56,0,0,0,.4.61,11.78,11.78,0,0,1,.63,1.23c-1.27-1.34-2-3.25-3.52-4.37-.44-.32-.88.28-.68.68s.5,1,.76,1.42a3,3,0,0,0-.73-.41c-.44-.17-.74.38-.56.73a16.76,16.76,0,0,0,1.79,2.82c-.17-.12-.32-.25-.5-.36-.47-.28-.87.26-.68.68a10.42,10.42,0,0,0,1.65,2.56h0l-.21-.17a.5.5,0,0,0-.73.56,8.29,8.29,0,0,0,.54,1.2,4.61,4.61,0,0,0-.61-.23.5.5,0,0,0-.61.62,4.24,4.24,0,0,0,1.59,2.33.51.51,0,0,0,.84-.22,3,3,0,0,0,.15-.52.51.51,0,0,0,.56-.74l-.44-.69a11.59,11.59,0,0,0,1.76,1.3.51.51,0,0,0,.73-.56c0-.2,0-.4,0-.61a.59.59,0,0,0,.44-.34,11.75,11.75,0,0,0,.39-1.29A8.92,8.92,0,0,0,360.1,44a.5.5,0,0,0,1,0c.75-3.58.07-7.17.13-10.79A.44.44,0,0,0,360.93,32.78Zm-1.4,7a9.68,9.68,0,0,0-1.37-3.17l.16-.32a16.6,16.6,0,0,0,1.29,1.57c0,1,0,2,0,3.07a.39.39,0,0,0-.13.15c-.06.14-.11.28-.16.42q-.61-.78-1.2-1.58a4.52,4.52,0,0,0,.67.44A.51.51,0,0,0,359.53,39.78Zm-2-4.24h-.08c-.37-.55-.74-1.11-1.07-1.68a16.45,16.45,0,0,1,1.23,1.49Z"/></g></g></svg>