<svg id="Layer_1" data-name="Layer 1" xmlns="http://www.w3.org/2000/svg" viewBox="0 0 24 24"><defs><style>.cls-1{fill:none;}</style></defs><title>Artboard 1</title><g id="Bounding_Boxes" data-name="Bounding Boxes"><path class="cls-1" d="M0,0H24V24H0Z"/></g><g id="Outline"><path d="M21,3H3A2.15,2.15,0,0,0,1,5V19a2,2,0,0,0,2,2H21a2.15,2.15,0,0,0,2-2V5A2.15,2.15,0,0,0,21,3Zm0,15.92a.6.6,0,0,1-.08.08H3V5.08L3.08,5H20.91a.6.6,0,0,1,.08.08V18.92Z"/><polygon points="11 15.51 8.5 12.5 5 17 19 17 14.5 11 11 15.51"/></g></svg>