<svg xmlns="http://www.w3.org/2000/svg" viewBox="0 0 260.37 44.72"><defs><style>.cls-1{fill:#666665;}</style></defs><title>Asset 5</title><g id="Layer_2" data-name="Layer 2"><g id="art"><path class="cls-1" d="M21.11,14.23,21,14V11.27H2.58v2a.4.4,0,0,0,0,.51V33.34H21V14.75A.4.4,0,0,0,21.11,14.23Zm-3.73,8.36c.53.33,1,.74,1.57,1.06l-.08.18a.34.34,0,0,0,0,.11A7,7,0,0,1,17.38,22.59ZM16.88,27a.36.36,0,0,0-.45.23v-.9c.18.25.37.49.56.73Zm1.31,2.63a6.44,6.44,0,0,0-1.76-1.21v-.9l0,0A18.62,18.62,0,0,0,18.19,29.67Zm-1.76-4.76V23.68a7.46,7.46,0,0,0,1.28,1.78c.27.29.61.58,1,.89A18,18,0,0,0,16.43,24.91Zm1.19-4c.43.24.84.51,1.28.74.12.21.24.43.35.64a.43.43,0,0,0-.28,0A6,6,0,0,1,17.61,20.86Zm.9-1.25.06.07a.34.34,0,0,0,0,.28l.11.3a7.94,7.94,0,0,1-1.83-1.52A10.71,10.71,0,0,0,18.51,19.62Zm-1.66.23a.44.44,0,0,0-.18.32,2,2,0,0,0,.73,1.57,4,4,0,0,0-.77-.33.35.35,0,0,0-.2,0v-2A5.23,5.23,0,0,0,16.85,19.84Zm3,1.88a.41.41,0,0,0,0-.51l-.09-.09c.24,0,.48-.18.37-.46a3.93,3.93,0,0,0-.49-.87.36.36,0,0,0,.09-.58c-.59-.59-1.31-1-1.93-1.59.41.24.81.48,1.23.7s.8-.3.46-.6-.94-.79-1.39-1.19a10.53,10.53,0,0,1,1.44,1,.42.42,0,0,0,.66-.23h0v5.27C20.1,22.25,20,22,19.83,21.72Zm-1.16-7.14c.47.45.94.9,1.45,1.3l.09,0v.4A22.19,22.19,0,0,0,18.67,14.58ZM20.21,12v1l-.3-.37a.42.42,0,0,0-.19-.62h.49Zm-1.06,0h0a.39.39,0,0,0-.23.56c.13.18.27.36.41.53a12.73,12.73,0,0,0-1.1-.72.4.4,0,0,0-.58.34,5.31,5.31,0,0,0-.74-.42.39.39,0,0,0-.52.52A10.13,10.13,0,0,0,18,15c-.78-.69-1.51-1.44-2.29-2.14l-.22-.19-.42-.35h0L15,12.24c-.28-.22-.63.14-.57.43l-.16-.11a.38.38,0,0,0-.5.12L13.18,12Zm-6.52,1.41a16,16,0,0,0,1.15,1.17.4.4,0,0,0,.66-.25c.18.16.38.31.57.46H12.62a.36.36,0,0,0,.12-.26A5,5,0,0,0,12.63,13.44Zm-1.57.61a3,3,0,0,0,1,.78H11a.33.33,0,0,0,.12-.27A4.8,4.8,0,0,0,11.06,14.05Zm.65-2a.4.4,0,0,0-.09.35c.09.49.22,1,.29,1.45a12.84,12.84,0,0,1-1.25-1.55c-.27-.34-.68,0-.64.37s.16.84.24,1.26a13.57,13.57,0,0,1-1.41-1.83L8.78,12ZM9.4,14.13a2.25,2.25,0,0,0,.91.7H9.2a.36.36,0,0,0,.23-.34A3.62,3.62,0,0,0,9.4,14.13ZM8.4,12a.37.37,0,0,0-.19.43c.12.4.25.77.34,1.16a11.77,11.77,0,0,1-1-1.57l0,0ZM6.89,12a.34.34,0,0,0-.06.32c.16.53.34,1,.51,1.55-.57-.51-1-1.28-1.56-1.73-.26-.2-.8,0-.64.37a10.43,10.43,0,0,0,1,1.68C5.39,13.51,4.76,12.68,4,12ZM7,25.44a4.41,4.41,0,0,0-1-1.22,7.66,7.66,0,0,0,.82.6.36.36,0,0,0,.23.06v1.46L6.8,26A.41.41,0,0,0,7,25.44Zm-.92-8.51.05,0c.31.24.72-.22.52-.52-.35-.56-.72-1.11-1.08-1.65A6.16,6.16,0,0,0,7.07,16l.06,0v2.29A8.34,8.34,0,0,0,6.12,16.93ZM3.34,12.76,4.1,13.9a5.63,5.63,0,0,0-.76-.56Zm0,2a16,16,0,0,0,1,1.37c.18.21.36.4.55.6a5,5,0,0,1-1.2-1.29.35.35,0,0,0-.37-.17Zm0,1.47.22.25a.33.33,0,0,0,0,.5l.3.27a.41.41,0,0,0-.27.58c.11.18.23.35.35.52a.38.38,0,0,0-.08.34c0,.13.07.25.11.37l0,0c-.35-.23-.67.21-.52.52.05.11.11.21.17.32a.35.35,0,0,0-.25.1Zm0,4.37a4.6,4.6,0,0,0,.23.5.38.38,0,0,0-.21.32,2.15,2.15,0,0,0,.27,1.12.39.39,0,0,0-.29.06Zm0,11.94V32a3.65,3.65,0,0,0,.5.48.38.38,0,0,0,0,.07l0,0Zm0-4V27.07l.29.36a.35.35,0,0,0-.15.41,5,5,0,0,0,1,1.55A8.22,8.22,0,0,0,3.34,28.58ZM6.75,28h0l.08.06a.31.31,0,0,0,.29,0v1A13.17,13.17,0,0,0,4.8,26.32C5.47,26.86,6.08,27.52,6.75,28ZM4.94,32.58a.38.38,0,0,0,0-.16.41.41,0,0,0,.39-.3,5.94,5.94,0,0,0,.75.47Zm2.1,0a.36.36,0,0,0,0-.34.38.38,0,0,0,.46-.54A4.36,4.36,0,0,0,7.06,31c.19.15.38.29.59.42l.11,0c.16.21.32.42.46.64A.37.37,0,0,0,8.9,32c.17.19.34.38.52.56ZM9.1,30.17a.36.36,0,0,0-.55.24L8,29.76h1.1a.36.36,0,0,0,.05.13l.45.71C9.45,30.45,9.28,30.3,9.1,30.17Zm1-.41h.6a.4.4,0,0,0,.09.27c.36.45.73.87,1.11,1.28l.15.22A13.42,13.42,0,0,1,10.1,29.76Zm1.47,2.82a.34.34,0,0,0,0-.32L11.39,32a7.22,7.22,0,0,0,.93.59Zm.92-1.75c-.28-.38-.61-.73-.92-1.07h1.31a.39.39,0,0,0-.22.55c.3.53.69,1,1,1.58A9.16,9.16,0,0,1,12.49,30.83Zm.78-1a.36.36,0,0,0-.13-.09H14.2a.29.29,0,0,0,0,.3A13.7,13.7,0,0,0,15,31.65,12,12,0,0,1,13.26,29.85Zm2.4-12.14a.43.43,0,0,0,0,.24s0,.06,0,.09V29H7.9V21.75a.34.34,0,0,0,.14-.4c0-.07-.05-.12-.08-.19a.39.39,0,0,0,.35-.65l-.41-.39V15.6h7.77Zm.71,12.05a18.08,18.08,0,0,0,1.35,1.54,17.45,17.45,0,0,1-2-1.54Zm-.23,2.82a.42.42,0,0,0,0-.41L16,31.78c.29.26.58.51.86.78l0,0Zm1.18,0a.38.38,0,0,0,.13-.39c0-.07,0-.14-.07-.2a5.82,5.82,0,0,0,1.33.59Zm2.89,0H19.07a.38.38,0,0,0,.17-.53,8.84,8.84,0,0,0-1.34-1.65,8.65,8.65,0,0,0,1.9,1.45.39.39,0,0,0,.4,0Zm0-1.46a9.49,9.49,0,0,0-1.32-1.77l.29.13c.38.14.62-.38.37-.64-.74-.79-1.48-1.57-2.14-2.42a17.53,17.53,0,0,0,2.7,1.7l.09,0Zm0-4.25c-.67-.94-1.65-1.65-2.42-2.54a6.35,6.35,0,0,0,2.31,1.5h.11Zm-.91-2.59a.39.39,0,0,0,.27-.19.38.38,0,0,0,.17-.21.34.34,0,0,0,.23-.29.46.46,0,0,0,.25,0V25C19.93,24.73,19.62,24.5,19.31,24.27Z"/><path class="cls-1" d="M32.15,19h0V13.22a.3.3,0,0,0,0-.19V11.27h-2l-.14,0a.31.31,0,0,0-.11,0H23.22V15.6h3.6v8.46h5.32v-4.7A.37.37,0,0,0,32.15,19Zm-4.56-1.15c.2.21.39.42.6.62a.36.36,0,0,0-.09.48c.11.2.24.38.37.56l-.08-.06c-.38-.25-.75.29-.46.6l.34.35a.38.38,0,0,0-.41.62l.13.14a.38.38,0,0,0-.3.2h-.09ZM30.94,14a.39.39,0,0,0,.43,0v.71c-.18-.26-.37-.51-.56-.75Zm.16,1.66a.4.4,0,0,0,.27.1v1.39l-.55-.57a.33.33,0,0,0,0-.25,14.44,14.44,0,0,0-1.69-2.82A23,23,0,0,0,31.1,15.64ZM24,14.83v-.94a2.23,2.23,0,0,0,.54.58.42.42,0,0,0,.51,0,3,3,0,0,0,.62.34Zm1.68-2.56-.13-.1a.41.41,0,0,0-.65.18.38.38,0,0,0-.57.45.42.42,0,0,0-.34.12V12h1.75A.36.36,0,0,0,25.67,12.27Zm2-.24a.35.35,0,0,0,0,.1,6,6,0,0,0,1,2A13.79,13.79,0,0,0,26.41,12Zm-.92,2.8a.38.38,0,0,0,.24-.56l0,0h.13L28,15l1,1.05c-.19-.15-.38-.31-.58-.45s-.72.21-.52.52l.06.09a.39.39,0,0,0-.21.55l.18.24,0,0a.41.41,0,0,0-.26-.09V14.83Zm4,8.46a.4.4,0,0,0-.06-.42l-.31-.34c.12.05.23.11.35.15a.39.39,0,0,0,.37-.64L31.07,22a.42.42,0,0,0,0-.53.43.43,0,0,0,.27-.13v2Z"/><path class="cls-1" d="M35.61,11.27V15.6h3.94V26.53A3.12,3.12,0,0,1,39,28.6a2.16,2.16,0,0,1-1.72.62A16.14,16.14,0,0,1,34.71,29L34.28,29l-.07,4.22.31.07c.73.16,1.39.27,2,.35a15.4,15.4,0,0,0,1.88.11,6.31,6.31,0,0,0,4.78-1.8,7,7,0,0,0,1.7-5V11.27ZM41,25.38c-.36-.25-.79.31-.46.6.55.5,1.23.91,1.8,1.42-.5-.26-1-.56-1.51-.8a.43.43,0,0,0-.51.13c0-.07,0-.13,0-.21V24.45a.33.33,0,0,0,.12.2c.62.53,1.27,1,1.84,1.59A14.54,14.54,0,0,1,41,25.38Zm.19-6.74a4.22,4.22,0,0,0-.49-.2.35.35,0,0,0-.38.12v-.84A7.73,7.73,0,0,0,41.19,18.64Zm-.87,1.61a10.29,10.29,0,0,0,1.33,1.35c-.27-.18-.55-.36-.83-.53a.35.35,0,0,0-.5.13Zm2.75,1.65c.26,0,.54-.31.34-.57a10.15,10.15,0,0,0-1-1,7.87,7.87,0,0,0,1.47.88.28.28,0,0,0,.17,0v1.86A7.66,7.66,0,0,0,43.07,21.91Zm.49-3.54a.39.39,0,0,0,.53-.18v2.12a11.31,11.31,0,0,0-1.24-1.19,5.22,5.22,0,0,0,.5.23.39.39,0,0,0,.43-.56,5,5,0,0,0-.46-.54ZM36,31.23a.38.38,0,0,0-.49.36l-.29-.07a.45.45,0,0,0-.22,0l0-1.15,0,.06A8.38,8.38,0,0,0,36,31.23Zm2.41,1.31a3.9,3.9,0,0,0-.76-.94c.38.22.75.43,1.14.63a.38.38,0,0,0,.56-.31,5.14,5.14,0,0,0,1.3.68,7.1,7.1,0,0,1-2.26.34A.39.39,0,0,0,38.4,32.54ZM41.14,32c-.15-.14-.32-.26-.48-.39l.31.15c.34.16.78-.26.5-.56a3.31,3.31,0,0,0,1,.3h0a4.6,4.6,0,0,1-1.23.85A.34.34,0,0,0,41.14,32Zm-.54-4.22a.41.41,0,0,0-.42,0,4.94,4.94,0,0,0,.11-.71.39.39,0,0,0,.07.09c.6.53,1.26,1,1.87,1.49C41.64,28.44,41.06,28,40.6,27.78Zm.31-3.73a.42.42,0,0,0-.58.3V21.63l0,.06c.22.26.46.49.7.72-.22,0-.42.21-.32.46a6.37,6.37,0,0,0,1.42,1.91C41.72,24.56,41.31,24.26,40.9,24.05Zm3-10.72.16.08v1.08c-.18-.23-.37-.45-.57-.68A.38.38,0,0,0,43.93,13.33ZM42.31,12a.31.31,0,0,0,0,.34l-.06,0a.38.38,0,0,0-.53.17L41,12Zm-5.93,2.8v-.46c.15.1.29.2.45.28a.39.39,0,0,0,.53-.15l.23.17a.36.36,0,0,0,.54-.21l.55.37Zm2.43-2.35-.42-.34a.38.38,0,0,0-.54.54l.05.05a6.32,6.32,0,0,0-1-.63.42.42,0,0,0-.5.12V12H39A.41.41,0,0,0,38.81,12.49Zm.61,2.35a.44.44,0,0,0,0-.29l.33.1a.38.38,0,0,0,.43-.19,7.34,7.34,0,0,0,.66.36.36.36,0,0,0-.22.54,6.69,6.69,0,0,0,.59.72L41,15.91c-.31-.16-.77.19-.52.52a6.45,6.45,0,0,0,.8.86c-.18-.1-.35-.21-.54-.3a.43.43,0,0,0-.37,0V14.83Zm0,14.4c.3.23.62.43.93.64a2.59,2.59,0,0,0-.4-.12.41.41,0,0,0-.49.41q-.44-.21-.9-.39A2.45,2.45,0,0,0,39.42,29.23ZM37.68,30a.42.42,0,0,0,.09.3v0a.37.37,0,0,0-.27.38,8.43,8.43,0,0,0-1.66-.72c.46,0,.93.06,1.41.06C37.42,30,37.55,30,37.68,30Zm5.14,1.16a.46.46,0,0,0-.09-.27c-.08-.1-.16-.19-.25-.28a.39.39,0,0,0,.36-.64l-.48-.42a2.35,2.35,0,0,0,1.06.08c.31-.05.33-.44.17-.64a5.44,5.44,0,0,0-.39-.4l.18.05a.39.39,0,0,0,.43-.56,3.39,3.39,0,0,0-.47-.69h.05a.39.39,0,0,0,.33-.58,7,7,0,0,0-.83-1l.24,0a.39.39,0,0,0,.33-.58,6.17,6.17,0,0,0-.88-1.08,9.54,9.54,0,0,0,1.2.77.38.38,0,0,0,.31,0v1.92A6.51,6.51,0,0,1,42.82,31.12Z"/><path class="cls-1" d="M63.87,11.27H48.23V15.6h2.07a.33.33,0,0,0,.31,0h7l.14.25c.16.25.65.26.7-.09,0,0,0-.1,0-.15h.12v9.06a4.55,4.55,0,0,1-1.25,3.47,5.63,5.63,0,0,1-3.87,1.21,20.64,20.64,0,0,1-4.82-.67l-.38-.09-.47,2.22a.45.45,0,0,0-.13.17.63.63,0,0,0,0,.55l-.25,1.15.36.09a25.32,25.32,0,0,0,6.24.89,11.7,11.7,0,0,0,5.51-1.21l.09,0a.4.4,0,0,0,.48-.36,8.07,8.07,0,0,0,1.2-.91l.15-.16a.36.36,0,0,0,.3-.31c1.45-1.62,2.2-4,2.2-7ZM49,14.83v-.65c.17.22.35.44.53.65Zm.52-2.41a.36.36,0,0,0-.52,0V12h1.33a.34.34,0,0,0,0,.16,5.14,5.14,0,0,0,.27,1.35C50.19,13.18,49.86,12.8,49.51,12.42ZM52.2,12a1.88,1.88,0,0,0-.13,1,6.1,6.1,0,0,0-1-1Zm-.66,2.8a.44.44,0,0,0,.06-.29,11.78,11.78,0,0,0-.36-1.3c.44.5.81,1.06,1.21,1.59Zm1.76,0a.37.37,0,0,0,0-.08c-.07-.44-.38-1.07-.48-1.64.4.56.7,1.18,1.13,1.72ZM54,12.08a2.53,2.53,0,0,0,0,1.44A7.89,7.89,0,0,0,52.92,12h1.14ZM55,14.83c0-.53-.21-1.12-.27-1.69.33.54.56,1.15.91,1.69Zm.66-1.51A4.92,4.92,0,0,0,54.78,12h.91a.48.48,0,0,0-.11.23A3.88,3.88,0,0,0,55.61,13.32Zm1,1.51c-.05-.55-.19-1.09-.26-1.64a8.6,8.6,0,0,1,.85,1.64Zm1.1-2.7a2,2,0,0,0-.25,1.5,4.36,4.36,0,0,0-1.2-1.6h1.56A.43.43,0,0,0,57.72,12.14ZM63.1,22a7.5,7.5,0,0,0-1.93-2.7,7.08,7.08,0,0,0,1.12.75.39.39,0,0,0,.52-.52,4.75,4.75,0,0,0-.48-.77,4.87,4.87,0,0,0,.45.27.4.4,0,0,0,.31,0ZM59.22,30.5a4.12,4.12,0,0,0,.48.35.39.39,0,0,0,.52-.52l-.1-.15a4,4,0,0,0,.51.54,7.2,7.2,0,0,1-.9.7C59.57,31.11,59.39,30.81,59.22,30.5Zm3.35-15.32A.39.39,0,0,0,63.1,15v1.41a12.67,12.67,0,0,0-1.05-1.57A5.08,5.08,0,0,0,62.57,15.18Zm-3,2a.38.38,0,0,0-.26,0v-.73a8.49,8.49,0,0,0,1.12,1.35A6.94,6.94,0,0,0,59.58,17.15Zm2.37.3a27.7,27.7,0,0,0-2.22-2,.29.29,0,0,0,.1-.16A19.71,19.71,0,0,1,61.94,17.46Zm-.85,11.37.16.09a.39.39,0,0,0,.56-.43,9.33,9.33,0,0,0-1.71-2.41,6.85,6.85,0,0,0,2.39,1.77,7.34,7.34,0,0,1-1,1.89A4.4,4.4,0,0,0,61.09,28.82Zm-1.64-4.15a.42.42,0,0,0-.14,0V23.28a.35.35,0,0,0,0,.12,7.75,7.75,0,0,0,1.35,2.21A4.78,4.78,0,0,0,59.45,24.68Zm.15-3.57a.41.41,0,0,0-.28-.09V19.94A19.68,19.68,0,0,0,61.56,23C60.86,22.43,60.26,21.66,59.6,21.11Zm.25-1.76a.38.38,0,0,0-.53,0V18.15c.76,1.24,2,2.09,2.74,3.35C61.19,21,60.52,19.91,59.85,19.35ZM62.51,17l.14.09A.39.39,0,0,0,63.1,17v.92A5,5,0,0,0,62.51,17ZM60.56,12a5.81,5.81,0,0,0,.59,1.1,13.73,13.73,0,0,0-1.13-1c-.32-.23-.72.22-.52.52a29.67,29.67,0,0,0,1.77,2.39A22.71,22.71,0,0,0,59,13a3.45,3.45,0,0,0-.7-1l0,0Zm-2.19,2.8a6.65,6.65,0,0,1-.19-1.73,7.41,7.41,0,0,1,.71,1.73ZM57.82,28.7A4.37,4.37,0,0,0,58.92,27a20,20,0,0,1,1.79,2.7c-.51-.58-.88-1.29-1.63-1.65a.39.39,0,0,0-.56.43c0,.12.07.24.11.35l-.16-.16a.39.39,0,0,0-.64.37,6.49,6.49,0,0,0,1,2.13c-.64-.53-1.19-1.32-1.72-1.84a.35.35,0,0,0-.11-.06A4.38,4.38,0,0,0,57.82,28.7Zm-3.42,1.36a8.54,8.54,0,0,0,.92-.14.5.5,0,0,0,0,.06,10.7,10.7,0,0,0,.87,2.09C55.54,31.52,55.13,30.56,54.41,30.06Zm-1,.06h.23a.36.36,0,0,0,0,.14,3.66,3.66,0,0,0,0,.52,4.57,4.57,0,0,0-.59-.66Zm-3.09.55a6.27,6.27,0,0,0-.95-1l1,.19a.3.3,0,0,0-.16.3A5.1,5.1,0,0,0,50.34,30.67Zm-1.09-.14c.64.65,1.06,1.48,1.76,2.09l.1.06c-.46-.06-.92-.15-1.4-.24,0,0,0,0,0,0C49.7,31.87,49.3,31.13,49.26,30.53Zm2.4,1.71c-.1-.3-.22-.59-.32-.88a9.64,9.64,0,0,0,1,1.41s.06,0,.09,0l-1.08-.11A.35.35,0,0,0,51.65,32.25ZM51,29.93l.68.08a3.45,3.45,0,0,0,.11.76A2.94,2.94,0,0,0,51,29.93Zm1.69,2.92a.38.38,0,0,0,.23-.34,7.77,7.77,0,0,0-.39-1.86c.64.52,1.07,1.5,1.65,2a.39.39,0,0,0,.64-.37c-.1-.4-.23-.77-.32-1.15a13,13,0,0,0,1.36,1.62A15.75,15.75,0,0,1,52.72,32.85Zm4.37-.31a3.31,3.31,0,0,0-.29-1c.1.1.2.21.31.31a.38.38,0,0,0,.6-.46l-.29-.52A7,7,0,0,0,58.58,32,9.35,9.35,0,0,1,57.08,32.54ZM62.75,27c-.23-.31-.49-.62-.77-1a2.09,2.09,0,0,0,.59.16c.31,0,.44-.34.33-.58A6,6,0,0,0,61.73,24a3.48,3.48,0,0,0,.79.36.39.39,0,0,0,.43-.56,7.22,7.22,0,0,0-1-1.54,2.24,2.24,0,0,0,.76.17.38.38,0,0,0,.36-.28V23.8A13.33,13.33,0,0,1,62.75,27Z"/><path class="cls-1" d="M66.23,11.27V15.6h9.53V33.34h5.32V15.6h3.66V11.27Zm5,.77a.35.35,0,0,0,0,.35c.2.35.42.68.63,1-.59-.41-1.1-1-1.7-1.36Zm-4.18,1.41H67V12h.27a.39.39,0,0,0,0,.42l.34.63C67.31,13,67.08,13.19,67.07,13.44ZM69.28,12a.35.35,0,0,0,0,.23,10,10,0,0,0,.49,1.19A14,14,0,0,0,67.91,12Zm-.75,2.8a.36.36,0,0,0,0-.13l-.07-.13a.43.43,0,0,0,.36-.5,4,4,0,0,0-.19-.62c.55.45,1.08.93,1.64,1.38Zm2.37,0a.42.42,0,0,0,.05-.29,5.24,5.24,0,0,0-.46-1.33,5.11,5.11,0,0,0,2.16,1.37c.25.05.58-.18.47-.46a10.23,10.23,0,0,0,.91.71Zm4.31-2.51c-.31-.34-.78.09-.6.46s.28.59.4.89a10.36,10.36,0,0,1-1.08-1.3c-.29-.39-.92,0-.66.39s.4.65.59,1C73.2,13.2,72.61,12.6,72,12h5.62a.3.3,0,0,0-.14.4,15.63,15.63,0,0,0,.74,1.49c-.59-.55-1.1-1.18-1.71-1.72a.38.38,0,0,0-.6.46l.46.9Zm5.11,8.87a4,4,0,0,0-1.22-1.58c-.22-.27-.44-.54-.65-.82a5.55,5.55,0,0,0,.9.75.39.39,0,0,0,.58-.33,2,2,0,0,0-.69-1.51,4,4,0,0,0,.4.22c.26.12.7-.09.56-.43a5.31,5.31,0,0,0-.35-.67l.12.09a.31.31,0,0,0,.35,0ZM77.17,26a.39.39,0,0,0-.48.37,2.25,2.25,0,0,0,.48,1.34l-.47-.35a.32.32,0,0,0-.17-.05V25a15.64,15.64,0,0,0,1.15,1.23A4.66,4.66,0,0,0,77.17,26Zm1-6.29c.22.27.43.54.67.79a.34.34,0,0,0,.26.11,2.63,2.63,0,0,1,.47.75c-.88-.5-1.46-1.61-2.17-2.3ZM80.32,28a9.28,9.28,0,0,0-.78-1l.29.12a.39.39,0,0,0,.43-.56,9.39,9.39,0,0,0-1-1.44,2.25,2.25,0,0,0,.87.34.45.45,0,0,0,.16,0Zm-2.78-5.5A.39.39,0,0,0,77,23a11.36,11.36,0,0,0,1.81,2.8A25.88,25.88,0,0,0,76.69,24a.33.33,0,0,0-.16,0V18.22a5.2,5.2,0,0,0,.74.77c-.27-.17-.71,0-.58.41A5.76,5.76,0,0,0,78,21.25a2.78,2.78,0,0,0-.62-.45.39.39,0,0,0-.52.52c.56,1.18,1.69,1.94,2.45,3A22.24,22.24,0,0,0,77.54,22.54Zm.16-5.43c-.1-.08-.19-.16-.3-.23a.39.39,0,0,0-.56.43c0,.05,0,.1,0,.15a.36.36,0,0,0-.36,0V14.83h-.45a.43.43,0,0,0,0-.22c0-.1,0-.19-.07-.29.24.24.49.48.74.7a.35.35,0,0,0-.18.32A2.7,2.7,0,0,0,77.71,17.12Zm-.44,12.23c-.28-.12-.55.22-.47.47a2.53,2.53,0,0,0,.24.54,5.24,5.24,0,0,0-.49-.23V28.41a9.29,9.29,0,0,0,1.2,1.18A3.71,3.71,0,0,0,77.26,29.34Zm2.36.93a.41.41,0,0,0,.26-.58c-.47-.82-1.77-1.65-2.25-2.59.86.5,1.56,1.25,2.4,1.8a.33.33,0,0,0,.28,0v2.11A6,6,0,0,0,79.62,30.28Zm.27-6.45a.36.36,0,0,0,.19-.33,2.55,2.55,0,0,0-.35-1.19,2.22,2.22,0,0,0,.23.07.42.42,0,0,0,.35-.09v2.14A5.33,5.33,0,0,0,79.89,23.82Zm.42-8a14.86,14.86,0,0,0-1.14-1.73,7.34,7.34,0,0,0,1.14.81ZM78.52,32.58a.36.36,0,0,0,.18-.41.38.38,0,0,0,.31-.64l-.16-.19a5.08,5.08,0,0,0,1.41.9h.06v.32Zm2.77-17.74a.37.37,0,0,0,0-.14,3.78,3.78,0,0,0-.15-.46,3.64,3.64,0,0,0,.77.6Zm.18-2c.18.37.36.74.51,1.11a21.72,21.72,0,0,1-1.65-1.76.39.39,0,0,0-.64.37,6.87,6.87,0,0,0,.51,1.34c-.75-.54-1.38-1.23-2.09-1.86l0,0H82.6a.32.32,0,0,0,0,.32c.11.34.25.66.38,1-.32-.29-.6-.7-.86-.94A.38.38,0,0,0,81.47,12.86Zm2.5,2H83a.39.39,0,0,0,0-.22c0-.14-.08-.28-.12-.41a1.8,1.8,0,0,0,.69.24c.26,0,.42-.27.37-.49s-.07-.26-.11-.39a.31.31,0,0,0,.15,0Zm0-2.15c-.23-.23-.46-.44-.71-.65H84Z"/><path class="cls-1" d="M85.71,11.27V15.6h1.95l0,0a.34.34,0,0,0,.18.06V33.34h5.32V11.27Zm1.49,1.52c-.06-.06-.1-.12-.17-.17a.38.38,0,0,0-.55,0V12h.73a.31.31,0,0,0-.09.24A3.44,3.44,0,0,0,87.19,12.78Zm5.22,10.41A6.51,6.51,0,0,0,92,22.12a.35.35,0,0,0,.33-.37A3.57,3.57,0,0,0,92,20.68l.18.08a.31.31,0,0,0,.21,0Zm-3.79-5.66a.32.32,0,0,0,0,0,5.83,5.83,0,0,0,.48.62.4.4,0,0,0-.35.65l.74.88c.24.3.48.61.72.91A10.12,10.12,0,0,1,91.11,22a10.45,10.45,0,0,0-2.26-1.69.4.4,0,0,0-.22,0Zm3.77,1.37h0v.6a4.48,4.48,0,0,0-.63-1A5,5,0,0,0,92.39,18.91Zm-2.76-3.12c-.26-.18-.69.12-.56.43.53,1.32,1.85,2.15,2.52,3.35a13,13,0,0,1-2.34-2.45.38.38,0,0,0-.62.14V15.52c.3.15.61-.25.47-.53a15.45,15.45,0,0,1,2.29,2.3A22,22,0,0,0,89.63,15.79Zm-.87-1.39a9.09,9.09,0,0,1-.63-1.18,9.72,9.72,0,0,1,.9.94A.43.43,0,0,0,88.75,14.39Zm-.13,16.17c.52.42,1.08.79,1.58,1.23-.37-.14-.74-.29-1.11-.39a.38.38,0,0,0-.41.57l-.05,0ZM89,28.32a.36.36,0,0,0-.37,0V21.28c.95,1.33,2.48,2.2,3.28,3.6-.86-.47-1.65-1.63-2.36-2.16h0l-.08-.06c-.38-.26-.73.29-.46.6s.71.76,1.07,1.14l-.66-.53a.38.38,0,0,0-.54.54c.72.83,1.63,1.46,2.35,2.26a19.83,19.83,0,0,1-1.7-1.25h0l-.08-.06c-.34-.26-.81.33-.46.6.54.42,1,.87,1.55,1.33a7.41,7.41,0,0,0-1.3-.64.39.39,0,0,0-.43.56,18.22,18.22,0,0,0,2.09,2.4C90.22,29.21,89.6,28.67,89,28.32Zm1.55-.19a5,5,0,0,0,1.64.69.41.41,0,0,0,.22,0v1.54a.29.29,0,0,0,0-.16A21.52,21.52,0,0,0,90.54,28.13Zm1.37-4.48a.38.38,0,0,0,.5-.24v.88A6.18,6.18,0,0,0,91.91,23.66Zm.2-10.35a.3.3,0,0,0,.29.19v.58a13.56,13.56,0,0,1-.61-1.22A1,1,0,0,1,92.11,13.3Zm.15,2.23a.39.39,0,0,0,.15.07v1.85a8.79,8.79,0,0,0-.58-.83.4.4,0,0,0,.19-.43,9.46,9.46,0,0,0-.85-2A6,6,0,0,0,92.26,15.53ZM87.82,12h1.83a.39.39,0,0,0-.08.33A13.08,13.08,0,0,0,90.75,15,17.23,17.23,0,0,0,87.82,12Zm3.8,20.54a.34.34,0,0,0,0-.35c-.09-.13-.18-.24-.27-.35l.23.1c.33.12.59-.29.43-.56a3.1,3.1,0,0,0-.84-.87,3.21,3.21,0,0,0,.87.22.38.38,0,0,0,.38-.35v2.18Z"/><path class="cls-1" d="M109,11.27v3.94a.39.39,0,0,0,0,.29v8.82a5.49,5.49,0,0,1-.89,3.23,4.65,4.65,0,0,1-2.21,1.66,10.69,10.69,0,0,1-.73-2.28l-.06-.3v0a.43.43,0,0,0-.13-.52l-3.17-14.83H96.48L100,26.72a6.81,6.81,0,0,0,.74,1.92,7.78,7.78,0,0,0,.51.77,23.15,23.15,0,0,1-4.18-1.2l-.38-.15-1.23,4.09.34.13q1.08.4,2.15.7l0,0a.41.41,0,0,0,.4.08,22.4,22.4,0,0,0,5.59.74,12.42,12.42,0,0,0,5.39-1.11A8.4,8.4,0,0,0,113,29.4a10.17,10.17,0,0,0,1.3-5.28V11.27Zm3.07,5.7c-.8-.54-1.54-1.16-2.3-1.76v-1a.34.34,0,0,0,0,.09C110.37,15.26,111.47,16,112.09,17Zm-1.83.11a.38.38,0,0,0-.19.54,19.69,19.69,0,0,0,1.46,1.84c-.52-.37-1-.89-1.46-1.2a.33.33,0,0,0-.28,0V16.62C109.93,16.78,110.09,16.93,110.25,17.07Zm-.17,3.15a.32.32,0,0,0-.3,0V19c.71.69,1.45,1.34,2.12,2.07C111.27,20.86,110.67,20.44,110.08,20.23Zm-.3,4.09V23c.58,1.09,1.91,1.67,2.54,2.68a8.75,8.75,0,0,1-2.57-.89C109.76,24.65,109.78,24.49,109.78,24.32Zm.38-1.95a.36.36,0,0,0-.38.12V20.92a25.46,25.46,0,0,1,3.51,2.82A25.9,25.9,0,0,0,110.16,22.37Zm2.45-.32h.25c.26,0,.51-.33.33-.58a10.77,10.77,0,0,0-.69-.84h.05a.39.39,0,0,0,.33-.58,6.07,6.07,0,0,0-.55-.83,6.44,6.44,0,0,0,.56.46c.33.23.7-.21.52-.52a4.51,4.51,0,0,0-.76-1h0a.39.39,0,0,0,.56-.43,3,3,0,0,0-.45-1.12l0,0a.39.39,0,0,0,.52-.52,4.79,4.79,0,0,0-.36-.63l.06,0a.35.35,0,0,0,.49-.11v7.43A9.43,9.43,0,0,0,112.62,22.05Zm.94-7a8.69,8.69,0,0,0-.93-1.13c.25,0,.54-.19.43-.47l-.1-.27c.41.15.74-.45.33-.68a5.46,5.46,0,0,0-.91-.41.39.39,0,0,0-.47.47l.1.26c-.34-.23-.67-.52-1-.76h2.54Zm-3.13-3a.35.35,0,0,0,0,.44c.07.1.15.19.23.28h0a.39.39,0,0,0-.43.56c.15.22.32.42.49.62a2.92,2.92,0,0,0-.38-.18.36.36,0,0,0-.46.29V12Zm-1.66,16c.06-.08.09-.17.15-.25.23.36.46.72.68,1.08a9.77,9.77,0,0,0-1-.68Zm-.75.82a7.35,7.35,0,0,0,.51.89c-.28-.21-.56-.42-.85-.61Zm-1.09.77a13.53,13.53,0,0,1,1,1.25,4.23,4.23,0,0,0-1.16-.46c-.09-.09-.18-.18-.26-.28l-.16-.24A6.17,6.17,0,0,0,106.91,29.59Zm-2.15-1.27a9.06,9.06,0,0,0,.54,1.37c-.29-.31-.57-.64-.87-.93A4.34,4.34,0,0,0,104.76,28.31Zm-.51-2.09a21.35,21.35,0,0,0-2.28,1.4,36.47,36.47,0,0,1,1.69-4.19Zm-.42,1.08a19.07,19.07,0,0,0-1.4,2.16.4.4,0,0,0,0,.12,6.61,6.61,0,0,1-.73-.92A19.67,19.67,0,0,0,103.84,27.3Zm-.76-6.6.34,1.59h0a18.14,18.14,0,0,0-2.17,2.27.4.4,0,0,0,.05-.08l.33-.89a19.19,19.19,0,0,1,1.14-2.21A3.93,3.93,0,0,0,103.07,20.7ZM102,15.48l.43,2a.4.4,0,0,0-.23.09,7.45,7.45,0,0,0-1.08,1.29A15.22,15.22,0,0,0,102,15.48Zm-.73-3.18a.33.33,0,0,0,0-.12l.41,1.9a.41.41,0,0,0-.36.17l-.22.33c0-.21.05-.42.07-.63a.37.37,0,0,0-.19-.33.59.59,0,0,1-.19-.17C100.92,13.08,101.07,12.7,101.23,12.31Zm-.4,4.16.27-.44a13.68,13.68,0,0,1-.45,1.7Zm-2.7-1.42L98,14.32c.29-.39.56-.86.88-1.26-.18.66-.47,1.27-.71,1.92A.35.35,0,0,0,98.13,15.05Zm.06.25a.42.42,0,0,0,.65,0c.12-.18.25-.34.37-.51,0,.22,0,.43,0,.64s0,.31,0,.46l-.5,1.75ZM99.55,21l0,.14-.6-2.62a.43.43,0,0,0,.32-.09c.08-.06.14-.13.21-.2a2,2,0,0,0,.09.19.35.35,0,0,0,.33.18C99.75,19.38,99.62,20.18,99.55,21Zm.31-4.59q.18-.64.38-1.28a7.73,7.73,0,0,1,0,.8V16l-.33.51C99.87,16.49,99.87,16.44,99.86,16.38ZM99.93,23a.39.39,0,0,0,.32-.26,15.56,15.56,0,0,1,1.4-3.13,5.11,5.11,0,0,1-.09,1.44,31.07,31.07,0,0,0-1.27,3.55Zm1.22,4.76a6.06,6.06,0,0,1-.41-1.18l-.11-.49a.29.29,0,0,0,.09,0,9.74,9.74,0,0,0,1.75-1.78A21.7,21.7,0,0,0,101.15,27.73Zm.11,2.45a.34.34,0,0,0,.07.17c.37.49.79.95,1.18,1.43a11.19,11.19,0,0,1-2-1.75Zm-3.15-.76c-.26-.23-.79,0-.64.37.08.21.17.41.27.61l-.45-.47a.33.33,0,0,0-.35-.11l.23-.77c.74.27,1.44.49,2.13.68a.32.32,0,0,0,0,.08,7.72,7.72,0,0,0,.87,1.57C99.44,30.81,98.81,30,98.11,29.43Zm1.1,3.06a.43.43,0,0,0,.22-.56c-.06-.12-.12-.24-.19-.35a5.72,5.72,0,0,0,1.92,1.23c.34.12.56-.29.43-.56-.05-.11-.12-.22-.18-.33A6.88,6.88,0,0,0,103.3,33,21.64,21.64,0,0,1,99.21,32.49Zm3.09-2.16.56.06.74,1.18A8.12,8.12,0,0,1,102.29,30.33Zm1.13-.65c.16-.11.3-.23.44-.35a10,10,0,0,0,.75,1.36C104.23,30.34,103.83,30,103.42,29.68Zm8.94-.67A7.65,7.65,0,0,1,109,32a11.32,11.32,0,0,1-4.39,1,.35.35,0,0,0,.31-.46,7.42,7.42,0,0,0-.49-1,10.43,10.43,0,0,0,1.46,1.14.39.39,0,0,0,.52-.52c-.17-.33-.37-.63-.57-.94a3.86,3.86,0,0,0,.65.38.4.4,0,0,0,.44-.05,5.81,5.81,0,0,0,.95.56.39.39,0,0,0,.5-.14h0c.23.12.61,0,.58-.33a2.55,2.55,0,0,0-.26-.84,6.93,6.93,0,0,0,.8.51.39.39,0,0,0,.52-.52,7.47,7.47,0,0,0-.77-1.27,5,5,0,0,0,1.07.65c.27.11.56-.22.47-.47a6.88,6.88,0,0,0-.69-1.43,12.85,12.85,0,0,0,1.49.91c.27.13.69-.09.56-.43a2.93,2.93,0,0,0-.23-.49.38.38,0,0,0,.38-.66l-2.41-1.42a.36.36,0,0,0-.39,0c0-.19.08-.4.11-.6a9.9,9.9,0,0,0,3.3,1,.39.39,0,0,0,.37-.49c-.31-1.15-1.35-1.74-2.17-2.52a17.43,17.43,0,0,0,2.36,1.07A9.16,9.16,0,0,1,112.36,29Z"/><path class="cls-1" d="M135.18,13.29c-1.67-1.66-4.13-2.5-7.29-2.5a30.61,30.61,0,0,0-5.08.46A28.11,28.11,0,0,0,118,12.47l-.34.12,1.23,4.07.38-.14c.54-.2,1.17-.4,1.89-.59l.64-.17a7.6,7.6,0,0,0-.94,1.55,9.65,9.65,0,0,0-.81,2.86l-1.54,13.16h2.23a.36.36,0,0,0,.18,0h2.87l1.45-13.6a6.41,6.41,0,0,1,1.17-3.33,2.8,2.8,0,0,1,2.32-1.11,3.27,3.27,0,0,1,2.73,1.17,5.6,5.6,0,0,1,1,3.55v9h-4.52v4.33h9.83V20.59C137.71,17.41,136.85,14.95,135.18,13.29Zm-16.3.79-.3-1,.26-.08A6.31,6.31,0,0,1,118.88,14.08Zm15.47,8.28-1.19-.89V20.24c.39.44.8.87,1.2,1.32a.35.35,0,0,0-.1.24A2,2,0,0,0,134.35,22.36Zm.21,7.15a8.23,8.23,0,0,1-.72-1.18,15.06,15.06,0,0,1,2.1,1.8.45.45,0,0,0,.24.09,2.9,2.9,0,0,1,.06.56c-.41-.4-.76-.86-1.16-1.26A.35.35,0,0,0,134.57,29.5Zm-.31-2.29c.22.28.71.8,1.1,1.33a4,4,0,0,0-2.16-1.21h0v-1.8A15.25,15.25,0,0,0,134.25,27.21Zm-.8-2.69a.38.38,0,0,0-.29-.1V23.15a12.93,12.93,0,0,0,1.07,1.55,17.74,17.74,0,0,1,1.7,2C135.07,26,134.28,25.25,133.45,24.52Zm.62-5.26c-.32-.11-.64-.19-1-.26,0-.18,0-.36-.08-.53A11.89,11.89,0,0,0,134.07,19.26Zm-1.28-2h-.1c-.05-.14-.09-.28-.16-.41a14.08,14.08,0,0,1,3,1.12C134.64,17.75,133.73,17.45,132.8,17.24Zm.37,11.41a14.87,14.87,0,0,0,1.45,2.2c-.51-.42-1-.94-1.45-1.38Zm2.61-1.13c.18.14.36.3.55.43a.39.39,0,0,0,.56-.23c.16-.75-.39-1.41-.81-2-.68-.91-1.5-1.75-2.11-2.72q.65.49,1.26,1l.1.17a.33.33,0,0,0,.28.18c.16.15.32.28.47.44a.38.38,0,0,0,.65-.28c.07.07.13.15.2.21h0v5.42A7.25,7.25,0,0,0,135.77,27.52ZM137,23.66c-.14-.17-.27-.36-.4-.55a.39.39,0,0,0,.11-.61c-.26-.3-.53-.58-.81-.86.29.15.59.3.89.43a.42.42,0,0,0,.21,0Zm0-3.33c-.5-.4-1-.76-1.57-1.11q-.37-.38-.77-.74a13.41,13.41,0,0,0,1.93.38.35.35,0,0,0,.29-.14A14.5,14.5,0,0,1,136.94,20.33Zm-1.16-5a8.94,8.94,0,0,1,.93,2.66,2.32,2.32,0,0,0-.54-.55.42.42,0,0,0,0-.68,9,9,0,0,0-2.25-.91c.49,0,1,0,1.49,0A.41.41,0,0,0,135.78,15.37Zm-.59-.82h.06a6.93,6.93,0,0,1,.46.7.34.34,0,0,0-.11-.08,18.71,18.71,0,0,0-1.92-.69C134.19,14.5,134.69,14.57,135.19,14.56Zm-7.3-3a14.49,14.49,0,0,1,1.88.12.32.32,0,0,0-.29.26s0,.07,0,.1l0,0a.38.38,0,0,0-.72,0c0,.05,0,.1,0,.16,0-.13-.1-.26-.15-.38a.39.39,0,0,0-.7.09s0,.09,0,.14a6,6,0,0,0-.33-.53ZM120,15.47l-.5.16a.4.4,0,0,0,.07-.11c.29-.72.43-1.51.78-2.19A13.45,13.45,0,0,1,120,15.47Zm1.65-.46-.71.18h0A7.36,7.36,0,0,1,122,12.92,11.7,11.7,0,0,1,121.64,15Zm.62,1.39q.07.2.16.39a.39.39,0,0,0-.52.45,4.07,4.07,0,0,0,.21.61l-.42-.4-.06,0A6.76,6.76,0,0,1,122.26,16.4Zm-1.48,3.88c0-.29.09-.57.15-.84.63,1.43,2,2.48,2.57,3.91a21.34,21.34,0,0,1-2.11-2c-.27-.22-.77,0-.64.37a30.15,30.15,0,0,0,2.16,4,18.71,18.71,0,0,1-2.14-1.7.34.34,0,0,0-.43,0Zm-1.44,12.3.14-1.22a12.85,12.85,0,0,0,.66,1.22Zm.79-3.29a.38.38,0,0,0-.39-.08l.54-4.59a5.55,5.55,0,0,0,.45,1.1.38.38,0,0,0-.56.49c.42.84,1,1.56,1.5,2.35-.19-.17-.37-.36-.57-.56s-.85.1-.6.46c.6.89,1.2,1.77,1.78,2.66A20.87,20.87,0,0,1,120.13,29.28Zm2.94,3.29h-.85a.33.33,0,0,0-.07-.18l-.67-.9a5.44,5.44,0,0,0,1.61.88Zm.15-1.4c-.24-.39-.49-.78-.74-1.16.27.07.6-.13.5-.45a6.16,6.16,0,0,0-.56-1.22c.15.12.3.25.47.36s.74-.21.52-.52c-.62-.88-1.36-1.68-1.89-2.6a3.08,3.08,0,0,0,2.07,1,.36.36,0,0,0,.12,0Zm.58-5.41a22.81,22.81,0,0,0-1.27-2.21,3.14,3.14,0,0,0,1.42.81Zm.31-2.93a5.8,5.8,0,0,0-.57-1,.34.34,0,0,0,.21-.44,9.57,9.57,0,0,0-1-1.86c.18.18.37.35.57.51a.38.38,0,0,0,.6-.46c0-.11-.11-.21-.16-.32.11.11.22.22.34.33a.43.43,0,0,0,.35.08Zm-1-8.9c.08-.18.18-.34.27-.51a15.46,15.46,0,0,0,.73,1.72A6.48,6.48,0,0,0,123.09,13.94Zm1.79,3.7a11.19,11.19,0,0,0-.62-1.08,3.89,3.89,0,0,0,.68.66l.09,0C125,17.39,124.93,17.51,124.88,17.64ZM125,12c-.27-.3-.72,0-.64.37.16.71.37,1.4.56,2.1-.35-.5-.62-1.11-1-1.57a1.55,1.55,0,0,0,.16-.54.39.39,0,0,0-.64-.37,3.56,3.56,0,0,0-.78,1,2,2,0,0,0-.2-.94l.42-.08a31.65,31.65,0,0,1,3.78-.42,4.42,4.42,0,0,0-.08.94l-.15-.23c-.19-.29-.75-.21-.71.19s.08.57.14.85A7.66,7.66,0,0,0,125,12Zm3.66,2.52a3.56,3.56,0,0,0-2.79,1.26.39.39,0,0,0,.07-.31c-.06-.33-.14-.66-.23-1a3.46,3.46,0,0,0,.45.52.39.39,0,0,0,.65-.27,4.79,4.79,0,0,0-.06-.69l.09.12c.28.32.69,0,.64-.37a6.07,6.07,0,0,1-.09-.76l.33.7a.39.39,0,0,0,.68,0l.14.25a.4.4,0,0,0,.54.51,1,1,0,0,0,.26-.19.37.37,0,0,0,.44.14c0,.1.07.2.11.29A5.08,5.08,0,0,0,128.7,14.53Zm1.49-2.69a.34.34,0,0,0-.16-.14,9.74,9.74,0,0,1,2.38.67.39.39,0,0,0-.06.09,12.13,12.13,0,0,1-.47,1.15,7,7,0,0,1,.28-.95c.18-.46-.56-.66-.74-.2s-.26,1.1-.42,1.64A21.48,21.48,0,0,0,130.19,11.84Zm2.09,3.5a.39.39,0,0,0-.21.57l-.07,0a3.64,3.64,0,0,0-.59-.56.35.35,0,0,0,.19.05,1.6,1.6,0,0,0,1.07-.55q.37.15.74.28A7.21,7.21,0,0,0,132.27,15.34Zm.14,14.43v0c.23.38.47.74.7,1.11-.46-.36-.87-.8-1.34-1.15Zm-1.55,0a.31.31,0,0,0,0,.21,10.58,10.58,0,0,0,.76,1.48A19,19,0,0,1,130,29.78Zm-2.21.41v-.41h.54a.37.37,0,0,0,0,.28l.45.8-.62-.6A.36.36,0,0,0,128.65,30.19Zm1.28,2.39a.42.42,0,0,0,0-.18l-.24-.53a8.91,8.91,0,0,0,.74.59c.3.21.62-.14.56-.43,0-.07,0-.14-.06-.21a4,4,0,0,0,1.12.76Zm2.92-.33a6.16,6.16,0,0,0-.49-1,4.43,4.43,0,0,0,1.64,1,.34.34,0,0,0,.29,0l.14.08a.38.38,0,0,0,.55-.25,5.93,5.93,0,0,1,.67.51h-2.88A.34.34,0,0,0,132.84,32.25Zm3.53.33a.46.46,0,0,0,0-.26,3,3,0,0,0-.12-.51l0,0a.39.39,0,0,0,.56-.23,2.38,2.38,0,0,0,.07-.28v1.25Z"/><path class="cls-1" d="M156,31.24a4.3,4.3,0,0,0-.39-.84V11.27h-7.47V15.6h2.15V26.11a.34.34,0,0,0,0,.28v7h5.32V31.71A.38.38,0,0,0,156,31.24Zm-4.14-15.14c.19.44.41.86.64,1.27l-.3-.44a.38.38,0,0,0-.7.3,4.9,4.9,0,0,0,.27.85.39.39,0,0,0-.51.53c.8,1.39,1.84,2.63,2.62,4-.86-.85-1.61-2-2.34-2.76a.38.38,0,0,0-.48,0V15l.15.12a.37.37,0,0,0,.53-.17c.17.16.35.35.53.55A.41.41,0,0,0,151.88,16.11Zm-.57,7.19a4.32,4.32,0,0,0,.23.73l-.36-.42a.33.33,0,0,0-.11-.09V22.14a4.36,4.36,0,0,0,.41.74A.36.36,0,0,0,151.31,23.3Zm.64,2.64a.35.35,0,0,0-.21.43,4.28,4.28,0,0,0,.24.55l-.11-.11a.36.36,0,0,0-.17-.26l-.23-.15-.16-.16a.34.34,0,0,0-.24-.11V24.86A9.58,9.58,0,0,0,152,25.93Zm1.23,2.61h0a13.51,13.51,0,0,1,1.66,2,10.92,10.92,0,0,1-1.76-1.63A.33.33,0,0,0,153.19,28.54Zm-.52-3.87a.39.39,0,0,0,.16-.19,6.29,6.29,0,0,1,1.25,1.79A19.33,19.33,0,0,1,152.67,24.67ZM151.61,12a.48.48,0,0,0,0,.12,7.76,7.76,0,0,0,.41,1.5c-.34-.53-.67-1.08-1-1.62Zm-2.29.75a.32.32,0,0,0-.4-.07V12h.51a.41.41,0,0,0-.15.39C149.3,12.55,149.31,12.66,149.33,12.78Zm.59,2a.29.29,0,0,0,0-.18l0-.09a.37.37,0,0,0,.25-.35c0-.07,0-.13,0-.2a4.37,4.37,0,0,0,.67.82Zm1.16,15V28.49c.45.59.86,1.2,1.31,1.79a4.35,4.35,0,0,0-.82-.57A.38.38,0,0,0,151.08,29.82Zm1.1,2.76a.39.39,0,0,0,0-.32l0-.08a.39.39,0,0,0,.36-.58c-.14-.21-.3-.41-.44-.62a9.39,9.39,0,0,0,2,1.6Zm2.69,0h-.31a.32.32,0,0,0,.12-.38,5.55,5.55,0,0,0-.71-1.37,5.25,5.25,0,0,0,.9.6Zm0-4.42a6.64,6.64,0,0,0-.65-.84l.28.16a.46.46,0,0,0,.37,0Zm0-1.89a5.48,5.48,0,0,0-1-1.65l.13.09c.34.22.69-.2.52-.52l-.1-.17c.12.07.23.15.35.21a.37.37,0,0,0,.14,0Zm0-3.41c-.15-.3-.31-.58-.48-.87a.37.37,0,0,0,.41-.55c-.08-.14-.17-.28-.25-.41a.36.36,0,0,0,.32-.05Zm0-2.66c-.22-.49-.45-1-.71-1.44l.27.17a.4.4,0,0,0,.44,0Zm0-2a9.77,9.77,0,0,0-1.08-2,14.47,14.47,0,0,0-.61-1.7c.32.49.65,1,1,1.42h0l.06.08a.36.36,0,0,0,.61-.12Zm0-2.62v0a19.16,19.16,0,0,1-1.06-1.92,10.43,10.43,0,0,0,.71,1,.32.32,0,0,0,.36.1Z"/><path class="cls-1" d="M172.32,14.77a6.47,6.47,0,0,0-2.83-2.61,9.74,9.74,0,0,0-4.31-.89h-7.41V15.6h7.16a3.13,3.13,0,0,1,2.26.76,2.84,2.84,0,0,1,.78,2.15V33.34h5.32V18.78A8,8,0,0,0,172.32,14.77ZM170,23.33a6.74,6.74,0,0,0-.63-.53.39.39,0,0,0-.56.43,3.83,3.83,0,0,0,.28.58l-.2-.17a.3.3,0,0,0-.18-.05V21.75A7.89,7.89,0,0,0,170,23.33Zm1.7,3.35a.44.44,0,0,0,.06-.45,4.55,4.55,0,0,0-.61-1,3.86,3.86,0,0,0,.63.34.38.38,0,0,0,.47-.47c-.47-1.15-1.74-2.08-2.52-3.14a6.94,6.94,0,0,0,1.84,1.52c.26.14.7-.1.56-.43a7.92,7.92,0,0,0-1.79-2.35,7.58,7.58,0,0,0,2.16,1.54v5.65A3.35,3.35,0,0,0,171.72,26.68Zm-1.44-7a6.89,6.89,0,0,0-1.35-1,.37.37,0,0,0-.19,0v-.1a4.86,4.86,0,0,0,0-.62C169.2,18.51,169.74,19.09,170.28,19.66Zm-1.19,7.41a.4.4,0,0,0-.35,0V24.78a13.14,13.14,0,0,0,2,1.91c-.47-.4-.93-.81-1.43-1.18-.32-.24-.71.22-.52.52a12.84,12.84,0,0,0,1.71,2.1A8.42,8.42,0,0,0,169.09,27.07Zm2.56,1.21c.13.07.24.16.37.23a.42.42,0,0,0,.5-.11v1.07a.34.34,0,0,0,0-.08A8.69,8.69,0,0,0,171.65,28.27Zm0-8.21a.32.32,0,0,0,.25-.44c-.08-.19-.17-.38-.26-.56.2.2.4.39.61.57a.4.4,0,0,0,.26.1v1.34C172.25,20.72,172,20.39,171.66,20.06Zm0-4.91a7.18,7.18,0,0,1,.87,3.58l-.67-.86a.38.38,0,0,0,.29-.46,14.29,14.29,0,0,0-1.84-3.82A5.57,5.57,0,0,1,171.66,15.15ZM161,12a9,9,0,0,0,.16,1.21c-.18-.33-.34-.68-.51-1a.38.38,0,0,0-.7.3c.08.25.16.49.22.74-.26-.36-.5-.73-.77-1.09a.42.42,0,0,0-.18-.14Zm-2.48,2.8V13.56a5.62,5.62,0,0,0,.53.95.39.39,0,0,0,.7-.09,1.87,1.87,0,0,0,0-.38,8.36,8.36,0,0,0,.54.64.39.39,0,0,0,.64-.17s0-.09,0-.13a3.16,3.16,0,0,0,.41.44h-2.88ZM163,12a.32.32,0,0,0-.09.25c0,.49.11,1,.18,1.46-.45-.53-.81-1.14-1.21-1.71Zm-1.07,2.8a.36.36,0,0,0,.16-.28,5.16,5.16,0,0,0-.09-1,6.88,6.88,0,0,0,1.1,1.31Zm1.69-2.75,0-.05h.5a.37.37,0,0,0,0,.08,10.34,10.34,0,0,0,0,1.08C163.92,12.83,163.78,12.45,163.61,12.09Zm1.32,2.75h-.41a.36.36,0,0,0,.41-.36c0-.16,0-.33,0-.49.13.29.27.58.42.85l0,0C165.22,14.85,165.09,14.83,164.94,14.83Zm.34-2.62a2.42,2.42,0,0,0-.1.49c-.11-.23-.22-.45-.34-.67h.57A.39.39,0,0,0,165.28,12.22ZM167,15.29a.32.32,0,0,0,.06-.19c0-.42-.2-1.11-.19-1.69.17.65.21,1.35.38,2Zm1.05.19c-.36-1.11-.25-2.25-.86-3.27a7.76,7.76,0,0,1,1.91.61.39.39,0,0,0,0,.1c.52,1.24,1.36,2.31,1.9,3.52-1-1-1.53-2.58-2.39-3.63-.24-.29-.78,0-.64.37s.24.58.37.87a.4.4,0,0,0-.31.57,41,41,0,0,0,2.48,3.93c-.68-.64-1.24-1.43-1.94-2.07a.39.39,0,0,0-.39-.08,3.15,3.15,0,0,0-.38-.49A.33.33,0,0,0,168,15.48ZM168.74,29a6.39,6.39,0,0,0,.79.9l-.3-.1a.39.39,0,0,0-.43.56,2.75,2.75,0,0,0,.88.91l-.29-.17c-.27-.15-.68.1-.56.43a3.52,3.52,0,0,0,.58,1h-.66ZM172,32.58a1.91,1.91,0,0,0-.36-.61.4.4,0,0,0,.29-.58l-.1-.14a.38.38,0,0,0,.08-.58c-.5-.63-1.13-1.19-1.67-1.81a5.05,5.05,0,0,0,1.82,1.08.39.39,0,0,0,.46-.27v2.9Z"/><path class="cls-1" d="M197.73,11.27h-6l-4.14,7.88L182,11.27h-6l4.83,6.82a6.43,6.43,0,0,0-2.68,2.69,10.48,10.48,0,0,0-1,4.82v3.24a.35.35,0,0,0-.18.53l.18.25V31a.39.39,0,0,0,0,.47v1.83h5.16v-9.6a4.5,4.5,0,0,1,.27-1.63,2.84,2.84,0,0,1,.5-.82l8.53,12.05h6l-6.76-9.55Zm-7.45,12.06a7,7,0,0,0-.31-.72l0,0c.31.33.79-.09.6-.46s-.36-.68-.55-1l.63.64a.36.36,0,0,0,.39.09Zm2.23,5.78c0,.41,0,.82-.07,1.23a.38.38,0,0,0-.28-.06C192.28,29.89,192.39,29.49,192.51,29.11Zm-3.39-5.36a2.88,2.88,0,0,1,.06.42,9.49,9.49,0,0,0-.45,1.19A3.87,3.87,0,0,1,189.12,23.75ZM189.06,28c.17-.42.35-.9.5-1.4-.07.75-.22,1.5-.23,2.18l-.42-.6A.41.41,0,0,0,189.06,28Zm5.72,3.44c-.11-.45-.33-.77-.65-.79a4.54,4.54,0,0,0,.14-.73l.92,1.3A.88.88,0,0,0,194.78,31.4Zm-3.45-5.13-.09.12c0-.33-.08-.66-.14-1l.54.76A.35.35,0,0,0,191.34,26.27Zm-1.08-1.37A3.39,3.39,0,0,0,190,24l.12,0,.43.6A.42.42,0,0,0,190.26,24.89Zm1.67-4.59c-.34-.62-.8-1.18-1.15-1.79a9.81,9.81,0,0,0,1.05,1c.28.21.64-.14.56-.43-.16-.59-.64-1.27-.9-1.92a7.7,7.7,0,0,0,1.33,1.43l0,0Zm1.94-4.67a.39.39,0,0,0,.59-.41,4.55,4.55,0,0,0-.16-.48l.06.08c.32.34.77-.09.6-.46l-.35-.77L195,14a.35.35,0,0,0,.31.1L193.71,17c-.16-.36-.35-.71-.55-1.07l.1.11A.38.38,0,0,0,193.87,15.64ZM192.21,12h1.33a.33.33,0,0,0-.06.18,3.24,3.24,0,0,0,.06.46,3.26,3.26,0,0,0-.3-.27c-.28-.2-.65.13-.56.43l0,.11a.38.38,0,0,0-.45.35c0,.05,0,.11,0,.16-.09-.13-.18-.26-.28-.38a.31.31,0,0,0-.27-.11Zm-.83,1.58a4.84,4.84,0,0,0,.12.51.38.38,0,0,0-.44.47,7.84,7.84,0,0,0,.65,1.59,5.68,5.68,0,0,0-.44-.48.39.39,0,0,0-.64.17,2.49,2.49,0,0,0,.28,1.71,7.86,7.86,0,0,0-.79-.71.38.38,0,0,0-.5.11Zm-1.81,3.45a.27.27,0,0,0,0,.13,5.58,5.58,0,0,0,1.14,2.42c-.52-.51-1-1.07-1.56-1.54l-.06,0Zm-.9,1.72.22.34c-.26,0-.54.14-.44.46a6.37,6.37,0,0,0,.3.76.38.38,0,0,0-.51.45,6.52,6.52,0,0,0,.29.67.4.4,0,0,0-.13.18c0,.08,0,.17-.07.25a7.22,7.22,0,0,0-.4-1.73Zm-1.57,1.32a6.68,6.68,0,0,1,.59,2.61.33.33,0,0,0-.29.26l-.08.52a8.82,8.82,0,0,0-.46-1.61l0-.05A4.83,4.83,0,0,0,187.09,20.11Zm-8.26-6.2a.42.42,0,0,0,.47-.08c0,.27,0,.54.05.8v0Zm1.79,2.53-1.07-1.51a.35.35,0,0,0,.56-.31,4.12,4.12,0,0,1,.11-1.49c.1.67,0,1.4.14,2.06a.36.36,0,0,0,.35.27C180.68,15.8,180.65,16.12,180.62,16.44Zm.14-4.2c0-.07,0-.14-.08-.2h1l.12.17a.33.33,0,0,0-.28.17l-.05.12s0-.08,0-.12A.37.37,0,0,0,180.76,12.24ZM179.65,20a17.76,17.76,0,0,1,1.29,2.38c-.56-.6-1-1.31-1.53-2a.3.3,0,0,0-.08-.07C179.43,20.24,179.54,20.12,179.65,20Zm-.81,1.12,0-.06c.29.74.6,1.46.9,2.19-.41-.48-.77-1-1.2-1.5A6.36,6.36,0,0,1,178.85,21.13Zm-.6,1.72c.55,1,1.23,1.88,1.74,2.88-.47-.54-.85-1.25-1.24-1.76h0l-.06-.08c-.25-.31-.61,0-.63.29A10.94,10.94,0,0,1,178.25,22.85Zm-.2,1.36a.38.38,0,0,0,0,.13,17.46,17.46,0,0,0,1,1.86,5.08,5.08,0,0,0-.93-.82.34.34,0,0,0-.16-.05C178,24.94,178,24.57,178,24.21ZM178,26.5c.64,1,1.4,2,2,3-.56-.59-1-1.29-1.57-1.87a.33.33,0,0,0-.42-.07Zm0,6.08v-.52c.28.19.57.36.87.52Zm0-3.31v-.82c.33.7.71,1.37,1.11,2C178.69,30.09,178.33,29.68,178,29.27Zm3.62,3.31h-1.73a.37.37,0,0,0,0-.3l-.2-.36a4.78,4.78,0,0,0,.57.33.39.39,0,0,0,.52-.52c-.22-.38-.45-.75-.67-1.13a3.79,3.79,0,0,0,.74.47c.27.13.69-.09.56-.43a9.17,9.17,0,0,0-.74-1.53c.27.2.76,0,.62-.38a11.68,11.68,0,0,0-.81-1.72,2.08,2.08,0,0,0,.3.12.39.39,0,0,0,.47-.47,8.93,8.93,0,0,0-.91-2l.18.11c.28.14.68-.09.56-.43s-.33-.9-.51-1.34a5,5,0,0,0,.82.7.32.32,0,0,0,.25,0Zm.32-10.74a4.45,4.45,0,0,0-.16.59,5.22,5.22,0,0,0-.19-.53.41.41,0,0,0,.24-.45c0-.06,0-.13-.06-.19l.15.21a.31.31,0,0,0,.15.1C182,21.65,182,21.74,181.91,21.83Zm-.05-3.13a.34.34,0,0,0-.32-.1l0,0,.41-.2-.89-1.25a.33.33,0,0,0,.23-.24c.2-.87.2-1.8.35-2.68.05,1.1-.09,2.21-.11,3.3,0,.41.64.53.74.13,0,0,.05.06.08.08a8.81,8.81,0,0,0,0,1.55A2.49,2.49,0,0,1,181.86,18.7Zm1.07,1.7a3.58,3.58,0,0,0-.46.48c-.09-.28-.19-.56-.28-.85a1.55,1.55,0,0,0,.21.09.34.34,0,0,0,.26,0,.36.36,0,0,0,.5.09Zm1.05.76-.73-1-.06,0a.44.44,0,0,0,.15-.19,24.45,24.45,0,0,0,.66-2.63,3.62,3.62,0,0,1,.24,1.38A9.06,9.06,0,0,0,184,21.17Zm.52.74a.38.38,0,0,0,.24-.33c0-.43.11-.93.16-1.45.07.87.1,1.75.19,2.63ZM186,20.44a.43.43,0,0,0-.36-.27,14.28,14.28,0,0,0-.31-2.28.36.36,0,0,0-.47-.25,2.65,2.65,0,0,0-.71-1.38.39.39,0,0,0-.6.08,6,6,0,0,0-.41,1.26c0-.22,0-.45,0-.67a.34.34,0,0,0,.22-.33,8.35,8.35,0,0,0-.05-1.1.37.37,0,0,0,0-.13c0-.22,0-.43,0-.63a.35.35,0,0,0-.29-.35,2.7,2.7,0,0,0-.17-.41.39.39,0,0,0-.47-.16,7.24,7.24,0,0,0-.12-.85l4.26,6,0,0a14.54,14.54,0,0,0-.26,2.1Q186.13,20.79,186,20.44Zm.52,4.26a1.7,1.7,0,0,0,.76.42.38.38,0,0,0,.43-.2c0,.39,0,.78.08,1.14a.4.4,0,0,0,.16.28.42.42,0,0,0,.49.08,9.18,9.18,0,0,0-.12.92l-1.84-2.6A.31.31,0,0,0,186.54,24.7Zm3.17,4.58a.31.31,0,0,0,.32-.19,9.25,9.25,0,0,0,.47-1.53c0,.65,0,1.31,0,2a.39.39,0,0,0,.38.36,5.61,5.61,0,0,0,.22.65,4.09,4.09,0,0,0,0,.42.35.35,0,0,0,.49.34l.06.06c.07.68.76,1.09,1.59,1.2H192Zm5.18,3.3.09-.17a2.2,2.2,0,0,0,.76-.45l.44.62Z"/><path class="cls-1" d="M213.77,11.27a.36.36,0,0,0-.15,0h-3.43v10a.43.43,0,0,0-.11.5c0,.07.07.13.11.19a13,13,0,0,1-.26,2.65,4.94,4.94,0,0,1-.69,1.79l-.42.59,4.63.09.12-.13a6.54,6.54,0,0,0,1.35-2.54,12,12,0,0,0,.45-3.42V11.27ZM214.6,21a11.82,11.82,0,0,1-.28,2.64A8.08,8.08,0,0,0,212.9,22a3.76,3.76,0,0,0,.91.4.39.39,0,0,0,.48-.37,2.25,2.25,0,0,0-.55-1.57,2.78,2.78,0,0,0,.42.12.41.41,0,0,0,.43-.18Zm-3-3.33a.4.4,0,0,0-.59.07V15.91c.21.23.46.47.72.72a8.15,8.15,0,0,0,1.07,1.05,3.69,3.69,0,0,1,1.17,2C213,19.29,212.32,18.31,211.55,17.62Zm0,2.36a.37.37,0,0,0-.56.25V18.13c.43,1.2,2.09,2.12,2.48,3.3A12.82,12.82,0,0,1,211.51,20Zm-.44-5.16a.38.38,0,0,0-.12-.08v-.44c.76,1,1.75,1.85,2.43,2.9A20.14,20.14,0,0,1,211.07,14.83ZM211,21.47v-1c.41,1.47,1.9,2.15,2.62,3.37C212.58,23.32,211.82,22.19,211,21.47Zm3.26-3.11c.24,0,.47-.21.38-.47a7,7,0,0,0-1.37-2.1,5,5,0,0,0,.53.35.38.38,0,0,0,.46-.6c-.36-.46-.75-.89-1.11-1.34a5.65,5.65,0,0,0,.82.64c.35.21.68-.2.52-.52a5.16,5.16,0,0,0-.29-.51c.13.12.26.25.4.36l0,0v5.07A3.18,3.18,0,0,0,214.21,18.37ZM212.27,12a4,4,0,0,0,.27.65,4,4,0,0,0-.85-.56.39.39,0,0,0-.52.52,6.4,6.4,0,0,0,.33.61,5.75,5.75,0,0,0-.54-.39V12Zm-1.59,12.7h0c0-.12,0-.25.07-.38.07.12.15.24.23.35a.38.38,0,0,0-.17.63l.07.08-.07,0a.42.42,0,0,0-.32.07C210.55,25.24,210.62,25,210.68,24.73Zm2.43,1.53h-.55a.43.43,0,0,0-.07-.13l-.3-.35a.34.34,0,0,0,.11-.49c-.06-.11-.14-.21-.21-.31a2.08,2.08,0,0,0,1.06.28.39.39,0,0,0,.33-.58l-.12-.17a3,3,0,0,0,.62.21A5.48,5.48,0,0,1,213.11,26.26Z"/><path class="cls-1" d="M220.28,11.27v2.27a.34.34,0,0,0-.07.46l.07.08v9.17a5.79,5.79,0,0,1-1,3.53,6.2,6.2,0,0,1-2.9,2.09,13.87,13.87,0,0,1-7.75.32,18.62,18.62,0,0,1-3.16-1v-.84s.06-.08.09-.13a.39.39,0,0,0-.09-.47V11.27h-5.16v3.2a.36.36,0,0,0,0,.32V31.16l.22.1a27,27,0,0,0,5.76,2,27,27,0,0,0,5.89.68,18.89,18.89,0,0,0,6.68-1.13,10.77,10.77,0,0,0,4.81-3.44,9,9,0,0,0,1.8-5.64V11.27Zm-16.13.93a.37.37,0,0,0,0-.16h.51v1.41c-.38-.08-.84.21-1.31.65l0-.12A8,8,0,0,0,204.15,12.2Zm0,2.91a6.45,6.45,0,0,1-.67.92c0-.28,0-.57,0-.85C204.07,14.59,204.81,14,204.14,15.11Zm-.78,2.35a15.2,15.2,0,0,0,1.31-1.52V17a.42.42,0,0,0-.29,0,4.88,4.88,0,0,0-1.05.69Zm-.52,9a6.53,6.53,0,0,0,1.83-2.1v1.16a.37.37,0,0,0-.42.26,4,4,0,0,0-.15.53,4.8,4.8,0,0,1-.43.81,4.27,4.27,0,0,1-.24.35,9.29,9.29,0,0,1-.89.37.59.59,0,0,1,.1-.4A2,2,0,0,1,202.84,26.47Zm1.38-6.11a4.74,4.74,0,0,0-.63.35,6.18,6.18,0,0,1,.37-.78c.46-.31.62-.17.48.4A.45.45,0,0,0,204.22,20.36ZM204,18.86l0,0c.28-.33.54-.66.75-1v1A.76.76,0,0,0,204,18.86Zm.18,3.23a8.39,8.39,0,0,1-.53,1.4,10.34,10.34,0,0,1-1.86,1.18C202.41,23.73,203.44,23,204.13,22.08ZM201,12h1.2c-.21.2-.42.4-.62.61a.29.29,0,0,0-.28.19l-.09.22a.39.39,0,0,0,0,.06l-.2.25Zm0,2.77a6.26,6.26,0,0,0,.69-.56,3.43,3.43,0,0,0,0,.73.34.34,0,0,0,0,.11,8.93,8.93,0,0,0-.76,1.57Zm0,2.32a.37.37,0,0,0,.5.12A5.83,5.83,0,0,0,202.73,16c0,.3,0,.6-.05.9A9,9,0,0,0,201,19Zm0,2.7a.38.38,0,0,0,.29.05,3.54,3.54,0,0,0,1-.45l0,.3A6.08,6.08,0,0,0,201,22.05Zm0,2.84a.4.4,0,0,0,.42.17,3.64,3.64,0,0,0,.58-.23s0,0,0,.07a.39.39,0,0,0,.22.33A9.72,9.72,0,0,0,201,24.34Zm0,2.89a2.79,2.79,0,0,0,1.86-.7c-.22.42-.44.84-.62,1.27A11,11,0,0,0,201,27.36ZM202.29,31a.4.4,0,0,0-.09.17c-.39-.16-.78-.32-1.16-.5V28.89a4.89,4.89,0,0,0,1.05-.13.69.69,0,0,0,.21.14,2.31,2.31,0,0,0-.74,1c-.1.26.15.46.37.48a4.07,4.07,0,0,0,1,0Zm1.76.84-.93-.32c.88-.33,1.56-1.11,2.4-1.49a9.67,9.67,0,0,0-1.45,1.53A.35.35,0,0,0,204.05,31.85Zm1.23.37-.56-.16a4.08,4.08,0,0,0,1.08-.53A6.86,6.86,0,0,0,205.29,32.22ZM221,12h1.11a4.89,4.89,0,0,0,.69,1.3c-.47-.29-.94-.6-1.43-.87a.37.37,0,0,0-.38,0Zm0,1.13c.57.59,1.14,1.16,1.66,1.77-.55-.41-1.09-.85-1.66-1.25Zm0,3c1,1.17,2.14,2.15,3,3.4a18.38,18.38,0,0,1-2-1.68c-.32-.24-.71.22-.52.52.06.1.14.19.21.29a5.79,5.79,0,0,0-.51-.32l-.12,0Zm0,3.41c.69,1,1.68,1.69,2.4,2.62-.75-.53-1.38-1.25-2.13-1.77a.32.32,0,0,0-.27,0Zm0,1.72c.56.68,1.3,1.32,1.8,2.05A8.86,8.86,0,0,0,221.32,22a.36.36,0,0,0-.28,0Zm0,2a12.56,12.56,0,0,0,1.45,2,7.14,7.14,0,0,0-1.15-1,.36.36,0,0,0-.36,0A8.4,8.4,0,0,0,221,23.27Zm-4.43,6.32a7.52,7.52,0,0,0,2-1.11.45.45,0,0,0-.07.17,3,3,0,0,0,.4,1.7,3,3,0,0,0-1.18-.75.39.39,0,0,0-.49.37,3.93,3.93,0,0,0,.08.46,1.7,1.7,0,0,0-.95-.53A.45.45,0,0,0,216,30l-.16-.19C216.13,29.74,216.38,29.67,216.61,29.58Zm-2.94,3a2,2,0,0,0,.48.23.35.35,0,0,0,.42-.19c.3.11.6.22.9.3-.58.1-1.17.17-1.77.21A2.9,2.9,0,0,1,213.67,32.54Zm-.11-2.28a.42.42,0,0,0-.06.18,3.23,3.23,0,0,0,.11,1,11.6,11.6,0,0,1-.69-1.13Zm-7.14,2.24-.12,0a5.56,5.56,0,0,0,.44-.39.35.35,0,0,0,0-.5l.11-.12a4.73,4.73,0,0,0,0,1.14Zm1.31.25a4,4,0,0,1-.06-1.51,9.45,9.45,0,0,0,.64,1.61Zm.76-2.28c0,.38.05.76.07,1.13a8.51,8.51,0,0,0-.58-1.53c0-.08.1-.15.15-.24l.3.08c.63.14,1.24.23,1.83.29a.35.35,0,0,0-.09.25c0,.11,0,.25,0,.4l-.15-.31a.39.39,0,0,0-.66,0l-.18-.27A.39.39,0,0,0,208.49,30.48Zm.75,2.5a5.22,5.22,0,0,0,.09-1.14l.11.15a.45.45,0,0,0,.57.11,2.51,2.51,0,0,0,.33.35.39.39,0,0,0,.65-.27c0-.08,0-.14,0-.21a9.79,9.79,0,0,0,.7,1.17C210.9,33.13,210.08,33.08,209.24,33Zm7.4-.33a.34.34,0,0,0-.35-.44H216a.33.33,0,0,0,0-.07l0-.13a.42.42,0,0,0,.45-.18,3,3,0,0,0,.2.24c.25.25.79,0,.64-.37l-.22-.53c.31.34.59.78.86,1.14C217.5,32.43,217.08,32.55,216.65,32.65Zm2.1-.64a13.64,13.64,0,0,1-.54-1.33c.4.31.75.72,1.14,1.06C219.15,31.83,219,31.92,218.75,32Zm1.11-4.77a5.91,5.91,0,0,0,1-2.29,3.31,3.31,0,0,0,.34.63.38.38,0,0,0-.51.35,4.22,4.22,0,0,0,.71,1.76l-.43-.41a.39.39,0,0,0-.64.17,2.13,2.13,0,0,0,0,1,6.18,6.18,0,0,0-.56-.64.4.4,0,0,0-.33-.1C219.61,27.52,219.74,27.38,219.86,27.23Zm.35,4.07c-.16-.44-.4-.86-.6-1.29l.49.66c.23.32.88.14.7-.3l0-.09h0l0,0c-.1-.21-.24-.44-.37-.67a4.3,4.3,0,0,0,.78.75c.28.2.65-.13.56-.43s-.39-.91-.55-1.4a7.31,7.31,0,0,0,1.28,1A9.66,9.66,0,0,1,220.21,31.3ZM223,28.9,223,29c-.29-.67-.78-1.27-1.13-1.91a10.25,10.25,0,0,0,1.6,1.25C223.32,28.5,223.18,28.71,223,28.9Zm1.64-5.17a9.15,9.15,0,0,1-.49,3,.35.35,0,0,0,0-.06,7.92,7.92,0,0,0-1.23-2.34l0,0a3.37,3.37,0,0,0,.61.37.39.39,0,0,0,.56-.43,3,3,0,0,0-.41-1.11,3.76,3.76,0,0,0,.65.27.39.39,0,0,0,.34-.08Zm0-1a6.57,6.57,0,0,0-1.23-1.65,5.91,5.91,0,0,0,.76.48.36.36,0,0,0,.47-.08Zm0-3.6a9.56,9.56,0,0,0-.75-1,.38.38,0,0,0,.37-.57,10.9,10.9,0,0,0-1.13-1.41,7,7,0,0,0,.81.45.39.39,0,0,0,.52-.52,10.42,10.42,0,0,0-1.13-1.55c.22.12.44.24.66.34s.77-.17.52-.52-.49-.64-.74-1a4.62,4.62,0,0,0,.84.5Z"/><path class="cls-1" d="M227.68,11.27V15.6h3.6v8.46h5.32V11.27Zm1.68,1.65a.42.42,0,0,0-.21.11l0,0a.37.37,0,0,0-.69.1V12h.79a.35.35,0,0,0,.09.34l.13.15A.35.35,0,0,0,229.36,12.91Zm3.32,4.94a.39.39,0,0,0-.52.52,4.66,4.66,0,0,0,.58.74.4.4,0,0,0-.33.58,3.44,3.44,0,0,0,.39.56,2.49,2.49,0,0,0-.72-.2h0V16.92c.66.77,1.49,1.39,2.12,2.16C233.66,18.68,233.2,18.2,232.68,17.86Zm3.15-1.28-.24-.38a5.28,5.28,0,0,0-.81-1.82c.34.31.68.62,1,.91Zm-1-4.54a.37.37,0,0,0,0,.22l-.09,0a.39.39,0,0,0-.47.47,2,2,0,0,0,.15.32c-.2-.18-.41-.36-.62-.53s-.76,0-.64.37a6.37,6.37,0,0,0,.74,1.5l0,0-.91-1.1A3.61,3.61,0,0,0,231.43,12Zm-2.78,9a7.48,7.48,0,0,0,.6.7.35.35,0,0,0,0,.3l.09.3a.36.36,0,0,0-.16.52l.14.22a.36.36,0,0,0,.24.17H232Zm1.76,2.22a.3.3,0,0,0,0-.23l0-.08.05,0a.38.38,0,0,0,.46-.6,9.94,9.94,0,0,0-.78-.84,9.07,9.07,0,0,0,1.1.82.39.39,0,0,0,.52-.52,3,3,0,0,0-.26-.44l.06,0a.39.39,0,0,0,.43-.56,3.9,3.9,0,0,0-.32-.47h0c.26.07.58-.19.47-.47a4.8,4.8,0,0,0-1-1.47l.15,0a.39.39,0,0,0,.37-.64,14.72,14.72,0,0,1-1.52-1.62A21.2,21.2,0,0,0,235.77,18l.06,0v5.29Z"/><path class="cls-1" d="M255.76,13.4a9.37,9.37,0,0,0-6.58-2.14h-9V15.6h8.66a4.19,4.19,0,0,1,3,.9,3.88,3.88,0,0,1,.92,2.88v3.45a.34.34,0,0,0,0,.54l0,0v3.23a.31.31,0,0,0,0,.35v6.38h5.3V19.55A8,8,0,0,0,255.76,13.4Zm-1.94,17.82a.35.35,0,0,0-.27,0v-2.5l.22.3a.36.36,0,0,0,0,.56,6.59,6.59,0,0,0,1.06.91,2.06,2.06,0,0,0,.11.32,3.16,3.16,0,0,0-.57-.31.38.38,0,0,0-.47.27l0,.22A.38.38,0,0,0,253.82,31.22Zm3.24-10.61-.09,0h0l-.11,0,.46.08v1.88A8,8,0,0,0,255.55,21c.4.1.81.2,1.22.27S257.49,20.8,257.06,20.61Zm-2.13,3.14a.38.38,0,0,0,0-.08l.17.18c.33.31.77.61,1.13,1a9.53,9.53,0,0,1-1.05-.61C255.07,24.06,255,23.91,254.93,23.75Zm1.55,2a5.07,5.07,0,0,0,.55.16.4.4,0,0,0,.28,0v1.21A5,5,0,0,0,256.49,25.78Zm-.23-1.9c-.35-.32-.68-.65-1-1a11,11,0,0,0,2,.68h.05V25A5,5,0,0,0,256.26,23.88Zm-.06-1.45c-.82-.31-1.62-.7-2.43-1.06a.4.4,0,0,0-.22,0v-.77C254.37,21.23,255.39,21.74,256.19,22.43Zm-1.41,1.13a.42.42,0,0,0-.51,0l-.73-.57v-.8C254,22.67,254.36,23.14,254.78,23.57ZM254.66,25c.21.43.44.84.67,1.26a5.77,5.77,0,0,0-1.22-1.07.38.38,0,0,0-.51.13h-.07V24.06C253.89,24.36,254.28,24.69,254.66,25Zm-.82,1.3.3.21c.5.68,1.06,1.32,1.59,2a6.48,6.48,0,0,0-.61-.4q-.76-.76-1.59-1.45v-.42A.29.29,0,0,0,253.85,26.33Zm2.88,2.2a.37.37,0,0,0,.39-.25.4.4,0,0,0,.19-.05V29.3Q257,28.9,256.73,28.53Zm.56-9.53c0,.18,0,.37,0,.56v.22c-.48-.27-1-.51-1.48-.75a8.61,8.61,0,0,0,1.33,0Zm-.18-1.49a.37.37,0,0,0-.32-.2h-.16a.34.34,0,0,0-.18-.34,4.48,4.48,0,0,0-.48-.24c.31,0,.62,0,.93,0C257,17,257.06,17.24,257.11,17.51Zm-1.5-3.15a6,6,0,0,1,1,1.58l-.65-.08a.41.41,0,0,0-.55-.24l-.3.13-.77-.12.19-.26a6.32,6.32,0,0,0,1-.66A.33.33,0,0,0,255.61,14.36Zm-.37,2.86c-.38,0-.76-.08-1.14-.14l.39-.23A7.78,7.78,0,0,0,255.24,17.21Zm-.36-3.53-.33.4c-.21,0-.41.08-.62.13l.3-.24c.29-.24,0-.73-.34-.66a.44.44,0,0,0,0-.3A6.32,6.32,0,0,1,254.88,13.68Zm-3.72-1.5.64.12a4.76,4.76,0,0,0-.66.58A2.32,2.32,0,0,0,251.16,12.18ZM243.21,12a.38.38,0,0,0,0,.23c.17.31.35.61.52.92A9.75,9.75,0,0,1,242.64,12Zm-1.86.73a8,8,0,0,1,.39.72l-.42-.3a.32.32,0,0,0-.34,0V12h.77a.32.32,0,0,0,0,.18A.38.38,0,0,0,241.35,12.76Zm.94,2.07a.32.32,0,0,0,0-.29l.13,0a.39.39,0,0,0,.37-.48l0-.08.33.22a.33.33,0,0,0,.43,0,5.52,5.52,0,0,1,.36.64ZM244.7,12c0,.27.07.65.12,1a12.38,12.38,0,0,1-.79-1Zm-.19,2.8a.38.38,0,0,0,0-.37l-.05-.09h0a.44.44,0,0,0,.43-.18l.25.16a1.4,1.4,0,0,0,.36.49Zm2-2.56a3.49,3.49,0,0,0-.41-.24h1.82l-.1.13a.37.37,0,0,0-.32.53l-.06.1c-.11-.13-.22-.26-.31-.4a.4.4,0,0,0-.57-.09Zm2.39,2.56h-2.07a2,2,0,0,0,.36-.31,2,2,0,0,0,.51.12.37.37,0,0,0,.34-.23l.12.05a3.22,3.22,0,0,0,.94.38Zm.41-1.35c-.12-.48-.17-1-.32-1.45h.21c.41,0,.8,0,1.18.05C250,12.52,249.64,13,249.29,13.48Zm3.35,2.77a3.14,3.14,0,0,0-.24-.31,3.64,3.64,0,0,0-1.52-.82l.09,0,.15-.09a.41.41,0,0,0,.47.27,5.32,5.32,0,0,0,.73-.2.31.31,0,0,0,.32.19,6.32,6.32,0,0,0,1-.19A2.11,2.11,0,0,0,252.63,16.25Zm1.08,2.2a.4.4,0,0,0,.17.4,9.84,9.84,0,0,0,1,.56,6.26,6.26,0,0,0-1-.06.39.39,0,0,0-.35.26v-.25a7.57,7.57,0,0,0-.07-1A.42.42,0,0,0,253.72,18.45Zm-.17,14.12v-.63a4.34,4.34,0,0,0,.87.63Zm1.54,0A.34.34,0,0,0,255,32a3.88,3.88,0,0,1-.79-.53.34.34,0,0,0,.22-.06,14.68,14.68,0,0,1,1.35,1.12l0,0Zm1.14,0a.43.43,0,0,0,.16-.18.38.38,0,0,0,.11-.5c-.09-.15-.21-.3-.33-.45.15.08.29.17.45.24a.38.38,0,0,0,.46-.6l-.22-.23.12-.07.33,0v1.77Z"/><path class="cls-1" d="M241.48,20.73l-.11.18a8.36,8.36,0,0,0-.86,1.88,9.79,9.79,0,0,0-.33,2.88v2.56a.38.38,0,0,0-.24.55l.24.44v4.13h5.16V25.25a17.3,17.3,0,0,1,.38-4l.12-.48ZM241,24.14c.49,1.18,1.86,1.91,2.65,3A20.83,20.83,0,0,1,241,24.9h0C241,24.62,241,24.37,241,24.14Zm2.7-2.18.15.32a8,8,0,0,1-1.15-.79h1.1A.39.39,0,0,0,243.72,22Zm.85,3.29v1.87a5.17,5.17,0,0,0-.49-.79.42.42,0,0,0,.16-.65l-.19-.19a.38.38,0,0,0,.23-.56,7,7,0,0,0-.51-.58l0,0c.34.25.68-.22.52-.52a5.79,5.79,0,0,0-.42-.7,2.59,2.59,0,0,0,.58.16.45.45,0,0,0,.15,0C244.59,23.89,244.57,24.54,244.57,25.25Zm-2.42,7.18a.37.37,0,0,0,.44-.21l.44.35h-1A.47.47,0,0,0,242.15,32.44Zm-.29-2.13a.32.32,0,0,0-.29-.06c-.17-.38-.37-.76-.57-1.13a4.44,4.44,0,0,1,.9.49.34.34,0,0,0,0,.23,5.33,5.33,0,0,0,.3.72Zm2.32-1.09a.36.36,0,0,0,.15-.52,6,6,0,0,0-.66-.73,1.81,1.81,0,0,0,.77.15.41.41,0,0,0,.14,0v1.6C244.44,29.52,244.31,29.37,244.17,29.22Zm.56-6.88-.36-.76a.35.35,0,0,0-.06-.08h.55C244.82,21.76,244.77,22,244.73,22.34Zm-3.79,9.14.17.16a.41.41,0,0,0,0,.37,1,1,0,0,0,.45.56h-.6Zm3.14,1.09a.36.36,0,0,0-.11-.21l-.28-.26a.32.32,0,0,0,.1-.48c-.25-.33-.47-.64-.67-1a9.54,9.54,0,0,1,.86.69.37.37,0,0,0,.58-.08v1.31Z"/><path class="cls-1" d="M12.77,42.75c.18.06.28.21.49.23a1.35,1.35,0,0,0,.35-.69.72.72,0,0,0-.63-.23c.1.41-.13.47-.21.69m-.49-1.16c1.13-.69,2.46.45,2.11,1.31a2,2,0,0,1-1.9.77c-.56-.2-.69-1.52-.21-2.08"/><path class="cls-1" d="M7,43.28c-.55-.32-.51.3,0,0m0-.85a.29.29,0,1,0,.56,0c-.16,0-.42-.15-.56,0m-.14-.93a1.21,1.21,0,0,1,1.48,1c.06.87-1.85,2.11-2.39.92a1.57,1.57,0,0,1,.92-1.93"/><path class="cls-1" d="M.94,42.66c0,.55.95.64.92,0-.18-.43-.62-.1-.92,0m-.78.85c-1-2.18,2.78-2.23,2.32-.38-.16.66-1.69.81-2.32.38"/><path class="cls-1" d="M40.13,43c-.13-.17-.24-.36-.56-.31-.13.43.45.62.56.31m-1.41-1c.94-.54,2.34-.77,2.32.62,0,.85-.93,1.28-1.83,1.15-.54-.14-.67-1.11-.49-1.77"/><path class="cls-1" d="M71,42.85c.18.06.28.21.49.23a1.35,1.35,0,0,0,.35-.69.72.72,0,0,0-.63-.23c.1.41-.13.47-.21.69m-.49-1.16C71.67,41,73,42.14,72.65,43a2,2,0,0,1-1.9.77c-.56-.2-.69-1.52-.21-2.08"/><path class="cls-1" d="M33.37,42.48h-.28c-.1.46.53.34.28,0m-.7.38a.54.54,0,0,0-.07-.39h-.21c0,.25.08.37.28.39m-1.06.38a1.58,1.58,0,0,1,.07-1.16c.42-.85,1.63-.63,2.18-.07.83,1.7-1.47,2.13-2.25,1.23"/><path class="cls-1" d="M65.26,43.38c-.55-.32-.51.3,0,0m0-.85a.29.29,0,1,0,.56,0c-.16,0-.42-.15-.56,0m-.14-.93a1.21,1.21,0,0,1,1.48,1c.06.87-1.85,2.11-2.39.92a1.57,1.57,0,0,1,.92-1.93"/><path class="cls-1" d="M45.55,43.27c.17,0,.21.13.42.08.17-.32,0-.83-.42-.77-.14.16-.05.51,0,.69M46.68,43a.64.64,0,0,0-.56-.93,1.17,1.17,0,0,0,.56.93M45.2,44c-1.74-1.5,1.55-3.57,1.9-1.69.21,1.1-.92,1.67-1.9,1.69"/><path class="cls-1" d="M59.21,42.75c0,.55.95.64.92,0-.18-.43-.62-.1-.92,0m-.78.85c-1-2.18,2.78-2.23,2.32-.38-.16.66-1.69.81-2.32.38"/><path class="cls-1" d="M26.9,43.08a.81.81,0,0,0-.49-.93c.24.22.06.91.49.93m.63.31c-.48.83-2.08.8-2.25-.16-.37-2.09,2.44-2.54,2.25.16"/><path class="cls-1" d="M19.08,41.92c1.59-.29,1.55,2.22.14,2.16a1.09,1.09,0,0,1-.14-2.16"/><path class="cls-1" d="M52.52,42.13a1.36,1.36,0,0,1,1.55,1.31c-.05.67-1.82,1.48-2.39.61a1.4,1.4,0,0,1,.85-1.93"/><path class="cls-1" d="M99.16,43.05c-.13-.17-.24-.36-.56-.31-.13.43.45.62.56.31m-1.41-1c.94-.54,2.34-.77,2.32.62,0,.85-.93,1.28-1.83,1.15-.54-.14-.67-1.11-.49-1.77"/><path class="cls-1" d="M130.07,42.95c.18.06.28.21.49.23a1.34,1.34,0,0,0,.35-.69.72.72,0,0,0-.63-.23c.1.41-.13.47-.21.69m-.49-1.16c1.13-.69,2.46.45,2.11,1.31a2,2,0,0,1-1.9.77c-.56-.2-.69-1.52-.21-2.08"/><path class="cls-1" d="M92.41,42.58h-.28c-.1.46.53.34.28,0m-.7.38a.54.54,0,0,0-.07-.39h-.21c0,.25.08.37.28.39m-1.06.38a1.58,1.58,0,0,1,.07-1.16c.42-.85,1.63-.63,2.18-.07.83,1.7-1.47,2.13-2.25,1.23"/><path class="cls-1" d="M124.29,43.48c-.55-.32-.51.3,0,0m0-.85a.29.29,0,1,0,.56,0c-.16,0-.42-.15-.56,0m-.14-.93a1.21,1.21,0,0,1,1.48,1c.06.87-1.85,2.11-2.39.92a1.57,1.57,0,0,1,.92-1.93"/><path class="cls-1" d="M104.58,43.37c.17,0,.21.13.42.08.17-.32,0-.83-.42-.77-.14.16-.05.51,0,.69m1.13-.31a.64.64,0,0,0-.56-.93,1.17,1.17,0,0,0,.56.93m-1.48,1.08c-1.74-1.5,1.55-3.57,1.9-1.69.21,1.1-.92,1.67-1.9,1.69"/><path class="cls-1" d="M118.24,42.85c0,.55.95.64.92,0-.18-.43-.62-.1-.92,0m-.78.85c-1-2.18,2.78-2.23,2.32-.38-.16.66-1.69.81-2.32.38"/><path class="cls-1" d="M85.93,43.18a.81.81,0,0,0-.49-.93c.24.22.06.91.49.93m.63.31c-.48.83-2.08.8-2.25-.16-.37-2.09,2.44-2.54,2.25.16"/><path class="cls-1" d="M78.12,42c1.59-.29,1.55,2.22.14,2.16A1.09,1.09,0,0,1,78.12,42"/><path class="cls-1" d="M111.55,42.22a1.36,1.36,0,0,1,1.55,1.31c-.05.67-1.82,1.48-2.39.61a1.4,1.4,0,0,1,.85-1.93"/><path class="cls-1" d="M157.43,43.15c-.13-.17-.24-.36-.56-.31-.13.43.45.62.56.31m-1.41-1c.94-.54,2.34-.77,2.32.62,0,.85-.93,1.28-1.83,1.15-.54-.14-.67-1.11-.49-1.77"/><path class="cls-1" d="M188.33,43c.18.06.28.21.49.23a1.35,1.35,0,0,0,.35-.69.72.72,0,0,0-.63-.23c.1.41-.13.47-.21.69m-.49-1.16c1.13-.69,2.46.45,2.11,1.31A2,2,0,0,1,188,44c-.56-.2-.69-1.52-.21-2.08"/><path class="cls-1" d="M150.67,42.67h-.28c-.1.46.53.34.28,0m-.7.38a.54.54,0,0,0-.07-.39h-.21c0,.25.08.37.28.39m-1.06.38a1.58,1.58,0,0,1,.07-1.16c.42-.85,1.63-.63,2.18-.07.83,1.7-1.47,2.13-2.25,1.23"/><path class="cls-1" d="M182.56,43.57c-.55-.32-.51.3,0,0m0-.85a.29.29,0,1,0,.56,0c-.16,0-.42-.15-.56,0m-.14-.93a1.21,1.21,0,0,1,1.48,1c.06.87-1.85,2.11-2.39.92a1.57,1.57,0,0,1,.92-1.93"/><path class="cls-1" d="M162.85,43.46c.17,0,.21.13.42.08.17-.32,0-.83-.42-.77-.14.16-.05.51,0,.69m1.13-.31a.64.64,0,0,0-.56-.93,1.17,1.17,0,0,0,.56.93m-1.48,1.08c-1.74-1.5,1.55-3.57,1.9-1.69.21,1.1-.92,1.67-1.9,1.69"/><path class="cls-1" d="M176.51,42.95c0,.55.95.64.92,0-.18-.43-.62-.1-.92,0m-.78.85c-1-2.18,2.78-2.23,2.32-.38-.16.66-1.69.81-2.32.38"/><path class="cls-1" d="M144.2,43.28a.81.81,0,0,0-.49-.93c.24.22.06.91.49.93m.63.31c-.48.83-2.08.8-2.25-.16-.37-2.09,2.44-2.54,2.25.16"/><path class="cls-1" d="M136.38,42.11c1.59-.29,1.55,2.22.14,2.16a1.09,1.09,0,0,1-.14-2.16"/><path class="cls-1" d="M169.82,42.32a1.36,1.36,0,0,1,1.55,1.31c-.05.67-1.82,1.48-2.39.61a1.4,1.4,0,0,1,.85-1.93"/><path class="cls-1" d="M214.7,43.24c-.13-.17-.24-.36-.56-.31-.13.43.45.62.56.31m-1.41-1c.94-.54,2.34-.77,2.32.62,0,.85-.93,1.28-1.83,1.15-.54-.14-.67-1.11-.49-1.77"/><path class="cls-1" d="M245.6,43.14c.18.06.28.21.49.23a1.35,1.35,0,0,0,.35-.69.72.72,0,0,0-.63-.23c.1.41-.13.47-.21.69M245.11,42c1.13-.69,2.46.45,2.11,1.31a2,2,0,0,1-1.9.77c-.56-.2-.69-1.52-.21-2.08"/><path class="cls-1" d="M207.94,42.77h-.28c-.1.46.53.34.28,0m-.7.38a.54.54,0,0,0-.07-.39H207c0,.25.08.37.28.39m-1.06.38a1.58,1.58,0,0,1,.07-1.16c.42-.85,1.63-.63,2.18-.07.83,1.7-1.47,2.13-2.25,1.23"/><path class="cls-1" d="M239.83,43.67c-.55-.32-.51.3,0,0m0-.85a.29.29,0,1,0,.56,0c-.16,0-.42-.15-.56,0m-.14-.93a1.21,1.21,0,0,1,1.48,1c.06.87-1.85,2.11-2.39.92a1.57,1.57,0,0,1,.92-1.93"/><path class="cls-1" d="M220.12,43.56c.17,0,.21.13.42.08.17-.32,0-.83-.42-.77-.14.16-.05.51,0,.69m1.13-.31a.64.64,0,0,0-.56-.93,1.17,1.17,0,0,0,.56.93m-1.48,1.08c-1.74-1.5,1.55-3.57,1.9-1.69.21,1.1-.92,1.67-1.9,1.69"/><path class="cls-1" d="M233.78,43c0,.55.95.64.92,0-.18-.43-.62-.1-.92,0m-.78.85c-1-2.18,2.78-2.23,2.32-.38-.16.66-1.69.81-2.32.38"/><path class="cls-1" d="M201.47,43.37a.81.81,0,0,0-.49-.93c.24.22.06.91.49.93m.63.31c-.48.83-2.08.8-2.25-.16-.37-2.09,2.44-2.54,2.25.16"/><path class="cls-1" d="M193.65,42.21c1.59-.29,1.55,2.22.14,2.16a1.09,1.09,0,0,1-.14-2.16"/><path class="cls-1" d="M227.09,42.42a1.36,1.36,0,0,1,1.55,1.31c-.05.67-1.82,1.48-2.39.61a1.4,1.4,0,0,1,.85-1.93"/><path class="cls-1" d="M259.73,43.47a.81.81,0,0,0-.49-.93c.24.22.06.91.49.93m.63.31c-.48.83-2.08.8-2.25-.16-.37-2.09,2.44-2.54,2.25.16"/><path class="cls-1" d="M251.92,42.3c1.59-.29,1.55,2.22.14,2.16a1.09,1.09,0,0,1-.14-2.16"/><path class="cls-1" d="M12.77,1.37c.18.06.28.21.49.23a1.35,1.35,0,0,0,.35-.69A.72.72,0,0,0,13,.68c.1.41-.13.47-.21.69M12.28.21c1.13-.69,2.46.45,2.11,1.31a2,2,0,0,1-1.9.77c-.56-.2-.69-1.52-.21-2.08"/><path class="cls-1" d="M7,1.9c-.55-.32-.51.3,0,0m0-.85a.29.29,0,1,0,.56,0C7.4,1,7.13.9,7,1.05M6.86.13a1.21,1.21,0,0,1,1.48,1c.06.87-1.85,2.11-2.39.92A1.57,1.57,0,0,1,6.86.13"/><path class="cls-1" d="M.94,1.27c0,.55.95.64.92,0-.18-.43-.62-.1-.92,0m-.78.85C-.82-.06,2.94-.1,2.49,1.74c-.16.66-1.69.81-2.32.38"/><path class="cls-1" d="M40.13,1.57c-.13-.17-.24-.36-.56-.31-.13.43.45.62.56.31m-1.41-1c.94-.54,2.34-.77,2.32.62,0,.85-.93,1.28-1.83,1.15-.54-.14-.67-1.11-.49-1.77"/><path class="cls-1" d="M71,1.47c.18.06.28.21.49.23A1.35,1.35,0,0,0,71.88,1a.72.72,0,0,0-.63-.23c.1.41-.13.47-.21.69M70.54.31c1.13-.69,2.46.45,2.11,1.31a2,2,0,0,1-1.9.77c-.56-.2-.69-1.52-.21-2.08"/><path class="cls-1" d="M33.37,1.1h-.28c-.1.46.53.34.28,0m-.7.38a.54.54,0,0,0-.07-.39h-.21c0,.25.08.37.28.39m-1.06.38A1.58,1.58,0,0,1,31.68.71c.42-.85,1.63-.63,2.18-.07.83,1.7-1.47,2.13-2.25,1.23"/><path class="cls-1" d="M65.26,2c-.55-.32-.51.3,0,0m0-.85a.29.29,0,1,0,.56,0c-.16,0-.42-.15-.56,0M65.12.22a1.21,1.21,0,0,1,1.48,1c.06.87-1.85,2.11-2.39.92A1.57,1.57,0,0,1,65.12.22"/><path class="cls-1" d="M45.55,1.89c.17,0,.21.13.42.08.17-.32,0-.83-.42-.77-.14.16-.05.51,0,.69m1.13-.31a.64.64,0,0,0-.56-.93,1.17,1.17,0,0,0,.56.93M45.2,2.66C43.46,1.16,46.74-.91,47.1,1c.21,1.1-.92,1.67-1.9,1.69"/><path class="cls-1" d="M59.21,1.37c0,.55.95.64.92,0-.18-.43-.62-.1-.92,0m-.78.85C57.45,0,61.21,0,60.75,1.84c-.16.66-1.69.81-2.32.38"/><path class="cls-1" d="M26.9,1.7A.81.81,0,0,0,26.4.78c.24.22.06.91.49.93m.63.31c-.48.83-2.08.8-2.25-.16C24.9-.24,27.71-.68,27.53,2"/><path class="cls-1" d="M19.08.53c1.59-.29,1.55,2.22.14,2.16A1.09,1.09,0,0,1,19.08.53"/><path class="cls-1" d="M52.52.74a1.36,1.36,0,0,1,1.55,1.31c-.05.67-1.82,1.48-2.39.61A1.4,1.4,0,0,1,52.52.74"/><path class="cls-1" d="M99.16,1.67c-.13-.17-.24-.36-.56-.31-.13.43.45.62.56.31m-1.41-1c.94-.54,2.34-.77,2.32.62,0,.85-.93,1.28-1.83,1.15-.54-.14-.67-1.11-.49-1.77"/><path class="cls-1" d="M130.07,1.57c.18.06.28.21.49.23a1.34,1.34,0,0,0,.35-.69.72.72,0,0,0-.63-.23c.1.41-.13.47-.21.69M129.58.41c1.13-.69,2.46.45,2.11,1.31a2,2,0,0,1-1.9.77c-.56-.2-.69-1.52-.21-2.08"/><path class="cls-1" d="M92.41,1.2h-.28c-.1.46.53.34.28,0m-.7.38a.54.54,0,0,0-.07-.39h-.21c0,.25.08.37.28.39M90.64,2A1.58,1.58,0,0,1,90.72.81C91.13,0,92.35.18,92.9.73c.83,1.7-1.47,2.13-2.25,1.23"/><path class="cls-1" d="M124.29,2.1c-.55-.32-.51.3,0,0m0-.85a.29.29,0,1,0,.56,0c-.16,0-.42-.15-.56,0m-.14-.93a1.21,1.21,0,0,1,1.48,1c.06.87-1.85,2.11-2.39.92a1.57,1.57,0,0,1,.92-1.93"/><path class="cls-1" d="M104.58,2c.17,0,.21.13.42.08.17-.32,0-.83-.42-.77-.14.16-.05.51,0,.69m1.13-.31a.64.64,0,0,0-.56-.93,1.17,1.17,0,0,0,.56.93m-1.48,1.08c-1.74-1.5,1.55-3.57,1.9-1.69.21,1.1-.92,1.67-1.9,1.69"/><path class="cls-1" d="M118.24,1.47c0,.55.95.64.92,0-.18-.43-.62-.1-.92,0m-.78.85c-1-2.18,2.78-2.23,2.32-.38-.16.66-1.69.81-2.32.38"/><path class="cls-1" d="M85.93,1.8a.81.81,0,0,0-.49-.93c.24.22.06.91.49.93m.63.31c-.48.83-2.08.8-2.25-.16-.37-2.09,2.44-2.54,2.25.16"/><path class="cls-1" d="M78.12.63c1.59-.29,1.55,2.22.14,2.16A1.09,1.09,0,0,1,78.12.63"/><path class="cls-1" d="M111.55.84a1.36,1.36,0,0,1,1.55,1.31c-.05.67-1.82,1.48-2.39.61a1.4,1.4,0,0,1,.85-1.93"/><path class="cls-1" d="M157.43,1.77c-.13-.17-.24-.36-.56-.31-.13.43.45.62.56.31M156,.76c.94-.54,2.34-.77,2.32.62,0,.85-.93,1.28-1.83,1.15-.54-.14-.67-1.11-.49-1.77"/><path class="cls-1" d="M188.33,1.66c.18.06.28.21.49.23a1.35,1.35,0,0,0,.35-.69.72.72,0,0,0-.63-.23c.1.41-.13.47-.21.69M187.84.51C189-.19,190.3,1,190,1.82a2,2,0,0,1-1.9.77c-.56-.2-.69-1.52-.21-2.08"/><path class="cls-1" d="M150.67,1.29h-.28c-.1.46.53.34.28,0m-.7.38a.54.54,0,0,0-.07-.39h-.21c0,.25.08.37.28.39m-1.06.38A1.58,1.58,0,0,1,149,.9c.42-.85,1.63-.63,2.18-.07.83,1.7-1.47,2.13-2.25,1.23"/><path class="cls-1" d="M182.56,2.19c-.55-.32-.51.3,0,0m0-.85a.29.29,0,1,0,.56,0c-.16,0-.42-.15-.56,0m-.14-.93a1.21,1.21,0,0,1,1.48,1c.06.87-1.85,2.11-2.39.92a1.57,1.57,0,0,1,.92-1.93"/><path class="cls-1" d="M162.85,2.08c.17,0,.21.13.42.08.17-.32,0-.83-.42-.77-.14.16-.05.51,0,.69M164,1.78a.64.64,0,0,0-.56-.93,1.17,1.17,0,0,0,.56.93M162.5,2.85c-1.74-1.5,1.55-3.57,1.9-1.69.21,1.1-.92,1.67-1.9,1.69"/><path class="cls-1" d="M176.51,1.57c0,.55.95.64.92,0-.18-.43-.62-.1-.92,0m-.78.85c-1-2.18,2.78-2.23,2.32-.38-.16.66-1.69.81-2.32.38"/><path class="cls-1" d="M144.2,1.9A.81.81,0,0,0,143.7,1c.24.22.06.91.49.93m.63.31c-.48.83-2.08.8-2.25-.16C142.2,0,145-.49,144.83,2.21"/><path class="cls-1" d="M136.38.73c1.59-.29,1.55,2.22.14,2.16a1.09,1.09,0,0,1-.14-2.16"/><path class="cls-1" d="M169.82.94a1.36,1.36,0,0,1,1.55,1.31c-.05.67-1.82,1.48-2.39.61a1.4,1.4,0,0,1,.85-1.93"/><path class="cls-1" d="M214.7,1.86c-.13-.17-.24-.36-.56-.31-.13.43.45.62.56.31m-1.41-1c.94-.54,2.34-.77,2.32.62,0,.85-.93,1.28-1.83,1.15-.54-.14-.67-1.11-.49-1.77"/><path class="cls-1" d="M245.6,1.76c.18.06.28.21.49.23a1.35,1.35,0,0,0,.35-.69.72.72,0,0,0-.63-.23c.1.41-.13.47-.21.69M245.11.6c1.13-.69,2.46.45,2.11,1.31a2,2,0,0,1-1.9.77c-.56-.2-.69-1.52-.21-2.08"/><path class="cls-1" d="M207.94,1.39h-.28c-.1.46.53.34.28,0m-.7.38a.54.54,0,0,0-.07-.39H207c0,.25.08.37.28.39m-1.06.38A1.58,1.58,0,0,1,206.25,1c.42-.85,1.63-.63,2.18-.07.83,1.7-1.47,2.13-2.25,1.23"/><path class="cls-1" d="M239.83,2.29c-.55-.32-.51.3,0,0m0-.85a.29.29,0,1,0,.56,0c-.16,0-.42-.15-.56,0m-.14-.93a1.21,1.21,0,0,1,1.48,1c.06.87-1.85,2.11-2.39.92a1.57,1.57,0,0,1,.92-1.93"/><path class="cls-1" d="M220.12,2.18c.17,0,.21.13.42.08.17-.32,0-.83-.42-.77-.14.16-.05.51,0,.69m1.13-.31a.64.64,0,0,0-.56-.93,1.17,1.17,0,0,0,.56.93m-1.48,1.08c-1.74-1.5,1.55-3.57,1.9-1.69.21,1.1-.92,1.67-1.9,1.69"/><path class="cls-1" d="M233.78,1.66c0,.55.95.64.92,0-.18-.43-.62-.1-.92,0m-.78.85c-1-2.18,2.78-2.23,2.32-.38-.16.66-1.69.81-2.32.38"/><path class="cls-1" d="M201.47,2a.81.81,0,0,0-.49-.93c.24.22.06.91.49.93m.63.31c-.48.83-2.08.8-2.25-.16-.37-2.09,2.44-2.54,2.25.16"/><path class="cls-1" d="M193.65.82c1.59-.29,1.55,2.22.14,2.16a1.09,1.09,0,0,1-.14-2.16"/><path class="cls-1" d="M227.09,1a1.36,1.36,0,0,1,1.55,1.31c-.05.67-1.82,1.48-2.39.61A1.4,1.4,0,0,1,227.09,1"/><path class="cls-1" d="M259.73,2.09a.81.81,0,0,0-.49-.93c.24.22.06.91.49.93m.63.31c-.48.83-2.08.8-2.25-.16-.37-2.09,2.44-2.54,2.25.16"/><path class="cls-1" d="M251.92.92c1.59-.29,1.55,2.22.14,2.16a1.09,1.09,0,0,1-.14-2.16"/></g></g></svg>