<svg xmlns="http://www.w3.org/2000/svg" viewBox="0 0 333.59 30.22"><defs><style>.cls-1{fill:#666665;}</style></defs><title>Asset 38</title><g id="Layer_2" data-name="Layer 2"><g id="art"><path class="cls-1" d="M24.31,4.5l-.18-.25V.63H.12V3.21a.52.52,0,0,0,0,.67V29.44h24V5.18A.53.53,0,0,0,24.31,4.5ZM19.44,15.41c.69.43,1.33,1,2,1.38l-.11.24a.44.44,0,0,0,0,.14A9.13,9.13,0,0,1,19.44,15.41Zm-.65,5.81a.46.46,0,0,0-.59.3V20.34c.23.33.48.64.73,1Zm1.71,3.44a8.4,8.4,0,0,0-2.3-1.59V21.9a.38.38,0,0,0,0,.06A24.31,24.31,0,0,0,20.49,24.66Zm-2.3-6.22V16.83a9.74,9.74,0,0,0,1.67,2.32c.35.38.8.76,1.24,1.16A23.54,23.54,0,0,0,18.2,18.44Zm1.55-5.29c.56.32,1.1.67,1.67,1,.16.28.31.56.46.84a.56.56,0,0,0-.36,0A7.87,7.87,0,0,1,19.74,13.16Zm1.17-1.63.08.09A.44.44,0,0,0,21,12l.14.4a10.36,10.36,0,0,1-2.39-2A14,14,0,0,0,20.91,11.53Zm-2.17.29a.57.57,0,0,0-.24.42,2.57,2.57,0,0,0,1,2,5.15,5.15,0,0,0-1-.43.46.46,0,0,0-.26,0V11.29A6.83,6.83,0,0,0,18.75,11.82Zm3.89,2.45a.54.54,0,0,0,0-.67l-.12-.11c.31,0,.63-.23.49-.6a5.13,5.13,0,0,0-.64-1.14.46.46,0,0,0,.12-.76c-.77-.76-1.71-1.37-2.52-2.08.53.31,1.06.63,1.6.92s1-.39.61-.79c-.59-.54-1.22-1-1.82-1.55a13.74,13.74,0,0,1,1.88,1.24.55.55,0,0,0,.86-.3h.06v6.88C23,15,22.82,14.62,22.64,14.27ZM21.12,5c.62.58,1.23,1.18,1.9,1.7a.38.38,0,0,0,.12.06v.52A29,29,0,0,0,21.12,5Zm2-3.32v1.3l-.39-.49a.55.55,0,0,0-.25-.8h.64Zm-1.39,0h0a.51.51,0,0,0-.3.73c.17.24.35.47.53.69a16.61,16.61,0,0,0-1.43-.95.52.52,0,0,0-.76.44,6.93,6.93,0,0,0-1-.55.5.5,0,0,0-.68.68,13.22,13.22,0,0,0,2.14,2.78c-1-.89-2-1.88-3-2.79L17,2.45,16.46,2h0l-.1-.08c-.36-.28-.82.18-.74.56l-.21-.14a.5.5,0,0,0-.65.16L14,1.63ZM13.24,3.47A20.93,20.93,0,0,0,14.75,5a.53.53,0,0,0,.86-.32c.24.21.49.41.74.6H13.22a.47.47,0,0,0,.16-.34A6.52,6.52,0,0,0,13.24,3.47Zm-2,.79a4,4,0,0,0,1.25,1H11.1a.44.44,0,0,0,.16-.35A6.27,6.27,0,0,0,11.2,4.27ZM12,1.63a.52.52,0,0,0-.12.46c.12.65.29,1.26.38,1.89a16.76,16.76,0,0,1-1.63-2c-.36-.44-.89.06-.84.49s.22,1.1.31,1.65A17.71,17.71,0,0,1,8.31,1.71a.44.44,0,0,0-.1-.07ZM9,4.37a2.94,2.94,0,0,0,1.18.92H8.76a.47.47,0,0,0,.3-.44A4.73,4.73,0,0,0,9,4.37ZM7.72,1.63a.49.49,0,0,0-.24.56c.16.52.33,1,.44,1.51a15.37,15.37,0,0,1-1.33-2l0,0Zm-2,0A.44.44,0,0,0,5.67,2c.2.69.45,1.35.66,2C5.59,3.4,5,2.4,4.29,1.81c-.34-.26-1,0-.84.49A13.61,13.61,0,0,0,4.72,4.5C3.79,3.56,3,2.48,2,1.63Zm.2,17.49a5.76,5.76,0,0,0-1.26-1.59,10,10,0,0,0,1.08.78.48.48,0,0,0,.29.07V20.3l-.43-.43A.54.54,0,0,0,5.95,19.13ZM4.75,8l.07.06c.41.31.94-.29.68-.68C5,6.66,4.56,5.95,4.08,5.23A8,8,0,0,0,6,6.75l.08,0v3A10.88,10.88,0,0,0,4.75,8ZM1.12,2.59l1,1.48a7.35,7.35,0,0,0-1-.73Zm0,2.65A20.89,20.89,0,0,0,2.46,7c.23.27.48.53.72.78A6.49,6.49,0,0,1,1.61,6.11a.46.46,0,0,0-.49-.23Zm0,1.92c.09.11.19.22.28.33a.43.43,0,0,0,0,.65l.39.35a.53.53,0,0,0-.35.76c.14.23.31.46.46.68a.5.5,0,0,0-.11.45c0,.17.1.32.15.48l-.06,0c-.45-.3-.88.27-.68.68.07.14.15.28.22.42a.46.46,0,0,0-.32.13Zm0,5.7a6,6,0,0,0,.3.65.5.5,0,0,0-.27.42,2.8,2.8,0,0,0,.35,1.46.51.51,0,0,0-.38.08Zm0,15.59V27.7a4.77,4.77,0,0,0,.65.62.49.49,0,0,0,.06.09l0,0Zm0-5.22v-2c.12.16.25.31.38.46a.45.45,0,0,0-.2.53,6.52,6.52,0,0,0,1.33,2A10.73,10.73,0,0,0,1.12,23.23Zm4.45-.72h0l.1.08a.4.4,0,0,0,.38.06v1.26a17.19,17.19,0,0,0-3-3.63C3.9,21,4.7,21.85,5.57,22.5ZM3.21,28.44a.49.49,0,0,0,0-.21.53.53,0,0,0,.51-.4,7.75,7.75,0,0,0,1,.61Zm2.74,0a.47.47,0,0,0,0-.44.5.5,0,0,0,.6-.71A5.69,5.69,0,0,0,6,26.44c.25.19.5.37.77.54a.43.43,0,0,0,.15.06c.21.27.42.54.6.83a.48.48,0,0,0,.89-.15c.22.25.44.49.67.73ZM8.64,25.3a.47.47,0,0,0-.72.31l-.7-.85H8.66a.47.47,0,0,0,.07.17c.2.3.39.61.58.92C9.09,25.66,8.87,25.48,8.64,25.3Zm1.3-.54h.79a.52.52,0,0,0,.11.35c.47.59.95,1.14,1.45,1.67l.2.29A17.51,17.51,0,0,1,9.94,24.77Zm1.92,3.68a.45.45,0,0,0,0-.42l-.21-.35a9.42,9.42,0,0,0,1.21.77Zm1.2-2.28c-.37-.5-.8-1-1.2-1.4h1.71a.51.51,0,0,0-.28.72c.39.69.9,1.35,1.29,2.06A12,12,0,0,1,13.06,26.16Zm1-1.28a.47.47,0,0,0-.17-.12h1.39a.38.38,0,0,0-.05.4,17.88,17.88,0,0,0,1.09,2.07A15.67,15.67,0,0,1,14.07,24.88ZM17.2,9a.56.56,0,0,0,0,.32s0,.08,0,.12V23.77H7.06V14.32a.44.44,0,0,0,.18-.52c0-.09-.07-.16-.1-.25a.51.51,0,0,0,.45-.85l-.53-.51V6.29H17.2Zm.93,15.73a23.6,23.6,0,0,0,1.76,2,22.77,22.77,0,0,1-2.64-2Zm-.3,3.68a.55.55,0,0,0,0-.53c-.09-.17-.19-.34-.28-.51.38.34.76.67,1.13,1l0,0Zm1.54,0a.5.5,0,0,0,.18-.51c0-.09-.06-.18-.09-.27a7.6,7.6,0,0,0,1.73.77Zm3.77,0H21.65a.5.5,0,0,0,.23-.69,11.53,11.53,0,0,0-1.75-2.15,11.3,11.3,0,0,0,2.48,1.89.51.51,0,0,0,.53,0Zm0-1.91a12.38,12.38,0,0,0-1.72-2.32,3.34,3.34,0,0,0,.38.17c.49.18.81-.5.49-.84-1-1-1.93-2.05-2.79-3.15A22.88,22.88,0,0,0,23,22.63l.12,0Zm0-5.54C22.27,19.77,21,18.84,20,17.68a8.29,8.29,0,0,0,3,2h.14ZM22,17.61a.51.51,0,0,0,.35-.25.5.5,0,0,0,.22-.27.44.44,0,0,0,.3-.37.6.6,0,0,0,.33,0v1.8C22.77,18.2,22.37,17.9,22,17.61Z"/><path class="cls-1" d="M38.71,10.68V3.17a.39.39,0,0,0,0-.24V.63H36.06l-.19,0a.4.4,0,0,0-.15,0H27.06V6.29h4.7v11H38.7V11.19A.48.48,0,0,0,38.71,10.68Zm-6-1.5c.26.27.51.55.78.81a.47.47,0,0,0-.12.62c.14.26.31.49.48.73l-.1-.07c-.49-.33-1,.38-.61.79.14.16.3.31.44.46a.5.5,0,0,0-.54.81l.17.18a.5.5,0,0,0-.39.26h-.12Zm4.38-5a.51.51,0,0,0,.56-.06V5c-.23-.34-.48-.66-.73-1Zm.21,2.17a.52.52,0,0,0,.35.13V8.28c-.24-.25-.48-.5-.72-.74a.43.43,0,0,0,0-.33,18.85,18.85,0,0,0-2.21-3.68A30,30,0,0,0,37.35,6.34Zm-9.29-1V4.05a2.9,2.9,0,0,0,.7.76.55.55,0,0,0,.66,0,3.91,3.91,0,0,0,.81.45Zm2.2-3.35-.17-.13a.54.54,0,0,0-.84.23.49.49,0,0,0-.74.58.55.55,0,0,0-.44.15V1.63h2.28A.47.47,0,0,0,30.26,1.94Zm2.61-.31a.46.46,0,0,0,0,.12,7.8,7.8,0,0,0,1.26,2.56,18,18,0,0,0-2.92-2.69Zm-1.2,3.65A.49.49,0,0,0,32,4.56l0-.05a.52.52,0,0,0,.17,0l1.18,1c.41.46.84.92,1.26,1.37-.25-.2-.49-.41-.76-.59-.42-.29-.94.27-.68.68l.08.11a.51.51,0,0,0-.28.72c.07.11.16.2.24.31l-.06-.05A.54.54,0,0,0,32.76,8V5.29Zm5.28,11a.52.52,0,0,0-.08-.55c-.13-.15-.27-.3-.4-.44.15.07.3.15.46.2a.5.5,0,0,0,.49-.84l-.11-.1a.55.55,0,0,0,0-.69.57.57,0,0,0,.35-.17v2.58Z"/><path class="cls-1" d="M43.24.63V6.29h5.15V20.55a4.07,4.07,0,0,1-.74,2.71,2.82,2.82,0,0,1-2.25.81,21.06,21.06,0,0,1-3.33-.25l-.57-.09-.08,5.5.4.09c1,.21,1.82.36,2.58.45a20.1,20.1,0,0,0,2.46.14,8.23,8.23,0,0,0,6.23-2.34A9.17,9.17,0,0,0,55.3,21V.63Zm7,18.42c-.47-.32-1,.41-.61.79.72.65,1.61,1.19,2.34,1.85-.66-.34-1.29-.73-2-1a.56.56,0,0,0-.66.17c0-.09,0-.18,0-.27v-2.7a.43.43,0,0,0,.15.26c.81.69,1.65,1.34,2.4,2.08A19,19,0,0,1,50.27,19.05Zm.25-8.8a5.51,5.51,0,0,0-.64-.26.46.46,0,0,0-.5.15V9A10.09,10.09,0,0,0,50.52,10.25Zm-1.13,2.11a13.44,13.44,0,0,0,1.73,1.77c-.35-.24-.71-.47-1.08-.69a.46.46,0,0,0-.65.17ZM53,14.52c.34,0,.7-.4.44-.74a13.25,13.25,0,0,0-1.25-1.35,10.28,10.28,0,0,0,1.92,1.14.36.36,0,0,0,.23,0V16A10,10,0,0,0,53,14.52Zm.64-4.62a.51.51,0,0,0,.69-.24v2.77a14.76,14.76,0,0,0-1.62-1.56,6.82,6.82,0,0,0,.66.3.5.5,0,0,0,.56-.73,6.53,6.53,0,0,0-.6-.7ZM43.74,26.69a.5.5,0,0,0-.64.47l-.38-.09a.59.59,0,0,0-.28,0l0-1.5a.49.49,0,0,0,.06.08A10.93,10.93,0,0,0,43.74,26.69Zm3.14,1.71a5.1,5.1,0,0,0-1-1.23c.49.28,1,.57,1.48.83a.5.5,0,0,0,.74-.41,6.71,6.71,0,0,0,1.69.88,9.27,9.27,0,0,1-2.95.44A.51.51,0,0,0,46.88,28.39Zm3.57-.71c-.2-.18-.41-.34-.63-.51l.41.2c.45.21,1-.34.66-.73a4.32,4.32,0,0,0,1.29.39h0a6,6,0,0,1-1.6,1.11A.44.44,0,0,0,50.45,27.69Zm-.71-5.5a.54.54,0,0,0-.55.06,6.45,6.45,0,0,0,.15-.92.51.51,0,0,0,.09.11c.78.69,1.65,1.27,2.44,1.94C51.11,23.05,50.35,22.49,49.74,22.18Zm.4-4.86a.55.55,0,0,0-.76.39V14.15a.48.48,0,0,0,0,.08c.29.33.6.64.92.94-.29,0-.55.28-.42.6a8.32,8.32,0,0,0,1.85,2.49C51.21,18,50.68,17.59,50.14,17.32Zm3.95-14,.21.1V4.84c-.23-.3-.49-.58-.75-.88A.5.5,0,0,0,54.09,3.33ZM52,1.63a.4.4,0,0,0,0,.44l-.08,0a.49.49,0,0,0-.69.22c-.31-.21-.63-.42-1-.62ZM44.24,5.29v-.6c.19.13.38.26.59.37a.51.51,0,0,0,.69-.2l.3.22a.47.47,0,0,0,.71-.27l.72.49Zm3.17-3.06-.55-.44a.5.5,0,0,0-.71.71l.07.07a8.25,8.25,0,0,0-1.32-.82.55.55,0,0,0-.65.16V1.63h3.47A.53.53,0,0,0,47.41,2.22Zm.8,3.06a.57.57,0,0,0,0-.38,3.93,3.93,0,0,0,.44.13.5.5,0,0,0,.56-.24,9.57,9.57,0,0,0,.86.46A.47.47,0,0,0,49.8,6a8.73,8.73,0,0,0,.76.94l-.36-.21c-.4-.21-1,.25-.68.68a8.42,8.42,0,0,0,1,1.12c-.23-.14-.46-.27-.7-.39a.56.56,0,0,0-.48,0V5.29Zm0,18.8c.4.29.81.57,1.22.83a3.39,3.39,0,0,0-.52-.15.53.53,0,0,0-.63.54q-.58-.28-1.18-.51A3.19,3.19,0,0,0,48.21,24.08ZM45.94,25a.54.54,0,0,0,.11.39l0,0a.48.48,0,0,0-.35.5A11,11,0,0,0,43.56,25c.6,0,1.21.08,1.84.08C45.59,25.07,45.76,25,45.94,25Zm6.7,1.51a.6.6,0,0,0-.11-.35c-.1-.13-.21-.25-.32-.36a.5.5,0,0,0,.47-.84c-.2-.19-.42-.37-.63-.55a3.07,3.07,0,0,0,1.38.11c.41-.07.43-.58.22-.84a7.1,7.1,0,0,0-.5-.52l.23.07a.51.51,0,0,0,.56-.73,4.42,4.42,0,0,0-.62-.9h.07a.5.5,0,0,0,.43-.75,9.11,9.11,0,0,0-1.09-1.29l.32,0a.5.5,0,0,0,.43-.75,8.05,8.05,0,0,0-1.15-1.4,12.45,12.45,0,0,0,1.56,1,.5.5,0,0,0,.4,0V21A8.5,8.5,0,0,1,52.64,26.54Z"/><path class="cls-1" d="M80.11.63H59.7V6.29h2.7a.43.43,0,0,0,.4,0h9.12c.06.11.12.22.18.32.21.32.85.34.91-.12,0-.06,0-.13,0-.2h.16V18.11a5.94,5.94,0,0,1-1.63,4.54,7.35,7.35,0,0,1-5,1.58,26.94,26.94,0,0,1-6.29-.87l-.5-.12-.62,2.89a.59.59,0,0,0-.17.23.82.82,0,0,0,0,.72l-.32,1.5.46.12a33,33,0,0,0,8.15,1.16,15.27,15.27,0,0,0,7.19-1.58l.12,0a.52.52,0,0,0,.62-.47,10.53,10.53,0,0,0,1.56-1.18l.19-.2a.47.47,0,0,0,.39-.41c1.89-2.12,2.87-5.16,2.87-9.07ZM60.7,5.29V4.44c.22.29.45.58.7.85Zm.68-3.15a.47.47,0,0,0-.68,0V1.63h1.73a.44.44,0,0,0-.06.2,6.71,6.71,0,0,0,.35,1.76C62.26,3.13,61.83,2.63,61.38,2.14Zm3.51-.51A2.46,2.46,0,0,0,64.72,3a8,8,0,0,0-1.3-1.35ZM64,5.29a.57.57,0,0,0,.08-.38,15.37,15.37,0,0,0-.47-1.7c.57.65,1.06,1.38,1.58,2.08Zm2.3,0a.48.48,0,0,0,0-.1c-.1-.57-.5-1.4-.62-2.14.52.73.91,1.54,1.48,2.24Zm.94-3.59a3.31,3.31,0,0,0-.06,1.88,10.29,10.29,0,0,0-1.38-1.95h1.49A.58.58,0,0,0,67.27,1.69Zm1.21,3.59c0-.69-.28-1.47-.35-2.2.44.7.74,1.5,1.18,2.2Zm.86-2a6.42,6.42,0,0,0-1.08-1.68h1.18a.62.62,0,0,0-.14.31A5.06,5.06,0,0,0,69.34,3.31Zm1.32,2c-.07-.72-.25-1.42-.34-2.14a11.22,11.22,0,0,1,1.11,2.14ZM72.1,1.76a2.6,2.6,0,0,0-.33,2A5.69,5.69,0,0,0,70.2,1.63h2A.57.57,0,0,0,72.1,1.76Zm7,12.84a9.78,9.78,0,0,0-2.51-3.52,9.24,9.24,0,0,0,1.46,1,.5.5,0,0,0,.68-.68,6.2,6.2,0,0,0-.62-1,6.35,6.35,0,0,0,.59.35.52.52,0,0,0,.41,0ZM74,25.74a5.37,5.37,0,0,0,.63.46.5.5,0,0,0,.68-.68l-.13-.2a5.27,5.27,0,0,0,.67.71,9.4,9.4,0,0,1-1.18.91C74.51,26.52,74.27,26.13,74,25.74Zm4.37-20a.51.51,0,0,0,.7-.22V7.36a16.54,16.54,0,0,0-1.37-2.05A6.63,6.63,0,0,0,78.42,5.74ZM74.51,8.31a.5.5,0,0,0-.34-.06v-1a11.08,11.08,0,0,0,1.46,1.76A9.06,9.06,0,0,0,74.51,8.31Zm3.09.4a36.15,36.15,0,0,0-2.89-2.62.38.38,0,0,0,.12-.21A25.72,25.72,0,0,1,77.6,8.71ZM76.49,23.55l.21.11a.51.51,0,0,0,.73-.56c-.36-1.21-1.5-2.12-2.23-3.14a8.94,8.94,0,0,0,3.12,2.31A9.58,9.58,0,0,1,77,24.73,5.74,5.74,0,0,0,76.49,23.55Zm-2.14-5.41a.55.55,0,0,0-.18,0V16.31a.45.45,0,0,0,0,.16A10.11,10.11,0,0,0,76,19.35,6.23,6.23,0,0,0,74.35,18.14Zm.19-4.66a.54.54,0,0,0-.37-.12V12a25.69,25.69,0,0,0,2.93,4C76.18,15.2,75.4,14.19,74.54,13.48Zm.33-2.3a.49.49,0,0,0-.7,0V9.62c1,1.62,2.66,2.73,3.58,4.37C76.62,13.39,75.74,11.91,74.87,11.18Zm3.47-3.09.19.11a.51.51,0,0,0,.59-.08v1.2A6.59,6.59,0,0,0,78.34,8.09ZM75.8,1.63a7.58,7.58,0,0,0,.77,1.44A17.92,17.92,0,0,0,75.1,1.8c-.41-.3-.94.28-.68.68a38.73,38.73,0,0,0,2.31,3.13,29.64,29.64,0,0,0-2.94-2.7,4.5,4.5,0,0,0-.91-1.25l-.05,0ZM72.95,5.29A8.68,8.68,0,0,1,72.71,3a9.67,9.67,0,0,1,.93,2.26Zm-.72,18.09a5.7,5.7,0,0,0,1.43-2.17A26.13,26.13,0,0,1,76,24.74c-.66-.76-1.14-1.69-2.13-2.16a.51.51,0,0,0-.73.56c0,.16.09.31.14.46l-.22-.21a.5.5,0,0,0-.84.49,8.47,8.47,0,0,0,1.25,2.78c-.84-.7-1.55-1.72-2.24-2.4a.45.45,0,0,0-.14-.08A5.72,5.72,0,0,0,72.22,23.38Zm-4.46,1.77A11.15,11.15,0,0,0,69,25a.65.65,0,0,0,0,.08,14,14,0,0,0,1.13,2.73C69.24,27.07,68.7,25.81,67.77,25.15Zm-1.27.08h.3a.47.47,0,0,0-.05.18,4.78,4.78,0,0,0,.05.68,6,6,0,0,0-.77-.87Zm-4,.72a8.18,8.18,0,0,0-1.24-1.34l1.32.25a.39.39,0,0,0-.21.39A6.65,6.65,0,0,0,62.46,26ZM61,25.78c.83.84,1.39,1.94,2.29,2.72a.49.49,0,0,0,.14.08c-.59-.08-1.21-.19-1.83-.31,0,0,0,0,0-.06C61.62,27.53,61.1,26.56,61,25.78ZM64.17,28c-.13-.39-.28-.77-.42-1.14A12.58,12.58,0,0,0,65,28.71s.08,0,.11.06c-.46,0-.93-.09-1.41-.15A.46.46,0,0,0,64.17,28Zm-.82-3,.88.11a4.5,4.5,0,0,0,.15,1A3.84,3.84,0,0,0,63.36,25Zm2.2,3.81a.5.5,0,0,0,.3-.44,10.14,10.14,0,0,0-.51-2.43c.83.68,1.4,2,2.15,2.64a.5.5,0,0,0,.84-.49c-.13-.52-.29-1-.42-1.5a17,17,0,0,0,1.78,2.11A20.55,20.55,0,0,1,65.56,28.8Zm5.7-.4a4.31,4.31,0,0,0-.38-1.25c.13.14.26.27.4.4a.5.5,0,0,0,.79-.61c-.12-.21-.25-.44-.38-.68a9.11,9.11,0,0,0,1.53,1.47A12.21,12.21,0,0,1,71.26,28.4Zm7.4-7.28c-.3-.4-.64-.82-1-1.24a2.73,2.73,0,0,0,.77.2c.41,0,.58-.45.43-.75a7.85,7.85,0,0,0-1.55-2,4.54,4.54,0,0,0,1,.47.51.51,0,0,0,.56-.73,9.42,9.42,0,0,0-1.28-2,2.92,2.92,0,0,0,1,.23.5.5,0,0,0,.47-.36V17A17.4,17.4,0,0,1,78.66,21.11Z"/><path class="cls-1" d="M83.2.63V6.29H95.64V29.44h6.94V6.29h4.77V.63Zm6.54,1a.46.46,0,0,0,0,.45c.26.45.55.88.82,1.33-.77-.53-1.43-1.27-2.23-1.78ZM84.29,3.47H84.2V1.63h.35a.51.51,0,0,0-.05.55l.44.82C84.61,2.83,84.31,3.14,84.29,3.47Zm2.88-1.84a.45.45,0,0,0,0,.3,13.09,13.09,0,0,0,.65,1.55,18.22,18.22,0,0,0-2.43-1.85Zm-1,3.65a.47.47,0,0,0-.05-.17l-.09-.17a.57.57,0,0,0,.46-.65,5.19,5.19,0,0,0-.25-.8c.72.59,1.41,1.21,2.14,1.8Zm3.1,0a.54.54,0,0,0,.07-.38,6.84,6.84,0,0,0-.6-1.73A6.67,6.67,0,0,0,91.57,5c.32.07.76-.23.62-.6a13.36,13.36,0,0,0,1.19.93ZM94.92,2c-.41-.44-1,.12-.79.61s.36.77.52,1.16a13.52,13.52,0,0,1-1.41-1.69c-.37-.51-1.2-.06-.86.5s.53.84.77,1.27c-.84-.7-1.61-1.49-2.43-2.23H98a.4.4,0,0,0-.18.52,20.41,20.41,0,0,0,1,1.95c-.77-.72-1.43-1.55-2.24-2.25a.5.5,0,0,0-.79.61l.59,1.18C95.9,3.1,95.42,2.55,94.92,2Zm6.67,11.58a5.21,5.21,0,0,0-1.6-2.06c-.29-.35-.58-.7-.85-1.07a7.25,7.25,0,0,0,1.18,1,.5.5,0,0,0,.75-.43,2.57,2.57,0,0,0-.9-2,5.17,5.17,0,0,0,.53.29c.34.16.92-.12.73-.56a6.93,6.93,0,0,0-.46-.88l.15.12a.41.41,0,0,0,.46,0Zm-4.11,6.32a.5.5,0,0,0-.63.48,2.93,2.93,0,0,0,.63,1.75c-.2-.16-.4-.32-.61-.46a.41.41,0,0,0-.22-.07v-3a20.41,20.41,0,0,0,1.51,1.61A6.08,6.08,0,0,0,97.48,19.92Zm1.33-8.2c.28.35.57.7.88,1a.44.44,0,0,0,.33.14,3.43,3.43,0,0,1,.61,1c-1.15-.65-1.91-2.1-2.84-3Zm2.78,10.81a12.11,12.11,0,0,0-1-1.24c.13.05.25.11.38.15a.51.51,0,0,0,.56-.73,12.26,12.26,0,0,0-1.27-1.88,2.94,2.94,0,0,0,1.13.44.59.59,0,0,0,.21,0ZM98,15.35a.5.5,0,0,0-.73.56,14.82,14.82,0,0,0,2.36,3.66,33.77,33.77,0,0,0-2.73-2.26.43.43,0,0,0-.21-.06V9.7a6.79,6.79,0,0,0,1,1c-.36-.22-.92.07-.76.53a7.52,7.52,0,0,0,1.75,2.42,3.63,3.63,0,0,0-.81-.59.5.5,0,0,0-.68.68c.73,1.54,2.2,2.53,3.2,3.86A29,29,0,0,0,98,15.35Zm.21-7.08c-.13-.1-.25-.21-.39-.3a.51.51,0,0,0-.73.56c0,.07,0,.13.06.19a.48.48,0,0,0-.47,0V5.29H96a.56.56,0,0,0,0-.29c0-.13-.06-.25-.09-.37.31.32.63.62,1,.92a.46.46,0,0,0-.24.42A3.52,3.52,0,0,0,98.18,8.27Zm-.58,16c-.36-.15-.71.28-.61.61a3.3,3.3,0,0,0,.31.71,6.84,6.84,0,0,0-.65-.3V23a12.12,12.12,0,0,0,1.57,1.54A4.84,4.84,0,0,0,97.6,24.23Zm3.08,1.22a.54.54,0,0,0,.34-.75c-.61-1.07-2.31-2.16-2.93-3.38,1.12.66,2,1.63,3.13,2.35a.43.43,0,0,0,.37.05v2.76A7.77,7.77,0,0,0,100.68,25.45ZM101,17a.48.48,0,0,0,.25-.43,3.33,3.33,0,0,0-.46-1.56,2.9,2.9,0,0,0,.3.09.55.55,0,0,0,.45-.11v2.8A7,7,0,0,0,101,17Zm.55-10.46a19.39,19.39,0,0,0-1.49-2.25,9.58,9.58,0,0,0,1.49,1.05ZM99.24,28.44a.47.47,0,0,0,.23-.53.5.5,0,0,0,.4-.84l-.21-.24A6.62,6.62,0,0,0,101.51,28l.08,0v.42Zm3.61-23.16a.48.48,0,0,0,0-.18,4.94,4.94,0,0,0-.19-.6,4.75,4.75,0,0,0,1,.78Zm.24-2.58c.24.48.47,1,.66,1.45a28.34,28.34,0,0,1-2.15-2.29.5.5,0,0,0-.84.49,9,9,0,0,0,.67,1.75c-1-.71-1.8-1.61-2.73-2.43l-.05,0h5.92a.42.42,0,0,0-.06.41c.15.44.33.86.49,1.29-.42-.38-.79-.91-1.12-1.23A.5.5,0,0,0,103.09,2.7Zm3.27,2.58h-1.3a.51.51,0,0,0,0-.29c0-.19-.1-.36-.16-.54a2.35,2.35,0,0,0,.9.31c.34,0,.54-.35.48-.63s-.09-.35-.14-.51a.4.4,0,0,0,.2,0Zm0-2.81c-.3-.29-.6-.57-.93-.84h.93Z"/><path class="cls-1" d="M108.62.63V6.29h2.54l0,0a.45.45,0,0,0,.24.07V29.44h6.94V.63Zm1.94,2c-.07-.07-.14-.16-.22-.23a.5.5,0,0,0-.72,0v-.8h1a.41.41,0,0,0-.12.31A4.49,4.49,0,0,0,110.56,2.61Zm6.81,13.59a8.5,8.5,0,0,0-.5-1.4.46.46,0,0,0,.44-.48,4.65,4.65,0,0,0-.44-1.41l.23.1a.4.4,0,0,0,.28,0Zm-4.94-7.38a.41.41,0,0,0,0,.07,7.61,7.61,0,0,0,.62.81.52.52,0,0,0-.45.85l1,1.15c.31.4.62.8.95,1.18a13.21,13.21,0,0,1,1.14,1.75,13.64,13.64,0,0,0-3-2.2.52.52,0,0,0-.29-.05Zm4.92,1.79h0v.79a5.85,5.85,0,0,0-.83-1.26A6.56,6.56,0,0,0,117.34,10.61Zm-3.61-4.07c-.34-.24-.9.16-.73.56.7,1.72,2.42,2.81,3.29,4.37a17,17,0,0,1-3-3.2.49.49,0,0,0-.81.18V6.18c.39.19.8-.32.61-.7a20.16,20.16,0,0,1,3,3A28.67,28.67,0,0,0,113.73,6.53Zm-1.14-1.82a11.87,11.87,0,0,1-.82-1.54,12.69,12.69,0,0,1,1.18,1.23A.56.56,0,0,0,112.59,4.71Zm-.17,21.11c.68.54,1.41,1,2.06,1.6-.48-.18-1-.38-1.45-.51a.49.49,0,0,0-.54.74l-.07.07Zm.48-2.93a.47.47,0,0,0-.48,0V13.69c1.23,1.74,3.24,2.86,4.29,4.7-1.13-.61-2.16-2.13-3.08-2.82v0h0l-.1-.08c-.49-.34-1,.38-.61.79s.92,1,1.39,1.48l-.86-.7a.5.5,0,0,0-.71.71c.93,1.08,2.12,1.91,3.07,2.95a25.89,25.89,0,0,1-2.21-1.63h0l-.1-.08c-.45-.34-1.05.44-.61.79.7.55,1.37,1.13,2,1.73a9.67,9.67,0,0,0-1.69-.83.51.51,0,0,0-.56.73,23.78,23.78,0,0,0,2.73,3.13C114.5,24.05,113.69,23.34,112.9,22.89Zm2-.24a6.54,6.54,0,0,0,2.15.89.54.54,0,0,0,.29,0v2a.38.38,0,0,0-.06-.2A28.09,28.09,0,0,0,114.93,22.65Zm1.79-5.84a.5.5,0,0,0,.65-.31v1.15A8.06,8.06,0,0,0,116.72,16.8ZM117,3.29a.4.4,0,0,0,.38.25v.75a17.7,17.7,0,0,1-.8-1.59A1.27,1.27,0,0,1,117,3.29Zm.19,2.91a.51.51,0,0,0,.19.1V8.7a11.48,11.48,0,0,0-.76-1.08.52.52,0,0,0,.25-.57,12.35,12.35,0,0,0-1.11-2.61A7.87,7.87,0,0,0,117.17,6.2Zm-5.8-4.56h2.39a.52.52,0,0,0-.1.43,17.07,17.07,0,0,0,1.54,3.5C113.94,4.24,113,2.63,111.37,1.63Zm5,26.81a.44.44,0,0,0,0-.45c-.11-.16-.23-.32-.35-.46l.3.13c.42.16.77-.38.56-.73a4,4,0,0,0-1.1-1.14,4.19,4.19,0,0,0,1.14.28.5.5,0,0,0,.49-.46v2.84Z"/><path class="cls-1" d="M139,.63V5.78a.51.51,0,0,0,0,.38V17.67a7.16,7.16,0,0,1-1.16,4.21A6.06,6.06,0,0,1,135,24a14,14,0,0,1-1-3l-.08-.39v0a.56.56,0,0,0-.16-.67L129.68.63h-7l4.58,20.16a8.89,8.89,0,0,0,1,2.5,10.16,10.16,0,0,0,.66,1,30.21,30.21,0,0,1-5.45-1.56l-.5-.19-1.6,5.34.44.16q1.4.52,2.81.91l.06.05a.53.53,0,0,0,.52.1,29.24,29.24,0,0,0,7.3,1,16.2,16.2,0,0,0,7-1.45,11,11,0,0,0,4.78-4.32,13.27,13.27,0,0,0,1.7-6.89V.63Zm4,7.43c-1-.7-2-1.52-3-2.3V4.48a.45.45,0,0,0,0,.11C140.81,5.85,142.24,6.83,143,8.06Zm-2.39.15a.5.5,0,0,0-.24.71,25.71,25.71,0,0,0,1.9,2.4c-.68-.49-1.31-1.17-1.9-1.56a.42.42,0,0,0-.37-.06V7.62C140.24,7.83,140.44,8,140.65,8.21Zm-.22,4.12a.41.41,0,0,0-.39.06V10.77c.93.9,1.9,1.75,2.76,2.7C142,13.15,141.2,12.61,140.43,12.33ZM140,17.67V16c.75,1.42,2.5,2.18,3.32,3.5A11.42,11.42,0,0,1,140,18.31C140,18.1,140,17.89,140,17.67Zm.49-2.54a.47.47,0,0,0-.49.16V13.24a33.23,33.23,0,0,1,4.58,3.68A33.8,33.8,0,0,0,140.54,15.13Zm3.2-.42.33,0c.34,0,.67-.43.43-.75a14.06,14.06,0,0,0-.9-1.1h.07a.5.5,0,0,0,.43-.75,7.92,7.92,0,0,0-.72-1.08,8.4,8.4,0,0,0,.73.59c.43.3.91-.28.68-.68a5.89,5.89,0,0,0-1-1.28h0a.51.51,0,0,0,.73-.56A3.88,3.88,0,0,0,144,7.67l.05,0a.5.5,0,0,0,.68-.68,6.25,6.25,0,0,0-.47-.82l.08.06a.46.46,0,0,0,.64-.14v9.69A12.31,12.31,0,0,0,143.74,14.71ZM145,5.52A11.34,11.34,0,0,0,143.74,4c.33,0,.71-.25.56-.61l-.13-.35c.53.2,1-.59.43-.89a7.12,7.12,0,0,0-1.19-.54.5.5,0,0,0-.61.61l.13.34c-.45-.3-.87-.68-1.28-1H145Zm-4.09-3.89a.45.45,0,0,0-.06.57c.09.13.2.25.3.37l0,0a.5.5,0,0,0-.56.73c.2.28.42.55.65.81a3.81,3.81,0,0,0-.5-.23.47.47,0,0,0-.61.38V1.63ZM138.7,22.46c.07-.1.12-.22.19-.33.3.47.6.94.88,1.41a12.76,12.76,0,0,0-1.24-.89C138.58,22.59,138.65,22.53,138.7,22.46Zm-1,1.08a9.6,9.6,0,0,0,.67,1.16c-.36-.28-.73-.54-1.11-.79C137.44,23.79,137.58,23.67,137.72,23.54Zm-1.43,1a17.66,17.66,0,0,1,1.32,1.64,5.52,5.52,0,0,0-1.52-.6c-.12-.12-.24-.23-.35-.36l-.21-.32A8,8,0,0,0,136.29,24.54Zm-2.81-1.66a11.82,11.82,0,0,0,.71,1.79c-.38-.41-.75-.83-1.14-1.22A5.67,5.67,0,0,0,133.49,22.88Zm-.66-2.73a27.87,27.87,0,0,0-3,1.83A47.59,47.59,0,0,1,132,16.52Zm-.54,1.41a24.88,24.88,0,0,0-1.83,2.81.53.53,0,0,0,0,.16,8.62,8.62,0,0,1-1-1.21A25.68,25.68,0,0,0,132.28,21.56Zm-1-8.62.44,2.08,0,0a23.68,23.68,0,0,0-2.84,3,.53.53,0,0,0,.07-.11l.44-1.16a25.05,25.05,0,0,1,1.49-2.89A5.13,5.13,0,0,0,131.28,12.94Zm-1.45-6.81.56,2.6a.52.52,0,0,0-.3.12,9.72,9.72,0,0,0-1.41,1.68A19.87,19.87,0,0,0,129.83,6.13Zm-1-4.14a.43.43,0,0,0,0-.16l.53,2.48a.53.53,0,0,0-.47.23l-.28.43c0-.27.07-.55.1-.82a.49.49,0,0,0-.25-.43.77.77,0,0,1-.24-.22C128.47,3,128.67,2.5,128.88,2Zm-.52,5.44.35-.58a17.85,17.85,0,0,1-.59,2.22Zm-3.53-1.86-.22-1c.38-.5.73-1.13,1.15-1.64-.24.86-.61,1.66-.92,2.51A.45.45,0,0,0,124.83,5.57Zm.08.33a.54.54,0,0,0,.85,0c.15-.23.33-.44.49-.67,0,.29,0,.57,0,.83s0,.4,0,.61c-.22.75-.43,1.51-.66,2.28Zm1.78,7.4-.06.18-.78-3.42a.56.56,0,0,0,.42-.11c.1-.08.18-.17.28-.26a2.57,2.57,0,0,0,.12.25.45.45,0,0,0,.43.23C126.94,11.22,126.78,12.26,126.69,13.3Zm.41-6q.24-.84.49-1.67a10.08,10.08,0,0,1,0,1.05c0,.05,0,.11,0,.16-.14.23-.28.45-.43.66C127.1,7.45,127.1,7.38,127.09,7.31Zm.08,8.6a.51.51,0,0,0,.41-.34,20.31,20.31,0,0,1,1.83-4.09,6.67,6.67,0,0,1-.12,1.88A40.56,40.56,0,0,0,127.65,18Zm1.6,6.21a7.91,7.91,0,0,1-.53-1.54l-.15-.64a.37.37,0,0,0,.11,0,12.72,12.72,0,0,0,2.29-2.32A28.32,28.32,0,0,0,128.77,22.12Zm.15,3.2a.44.44,0,0,0,.09.22c.48.64,1,1.24,1.54,1.87a14.61,14.61,0,0,1-2.6-2.28Zm-4.12-1c-.34-.3-1,0-.84.49.1.28.23.54.36.8l-.58-.61a.43.43,0,0,0-.45-.14l.3-1c1,.35,1.89.64,2.78.88a.42.42,0,0,0,0,.11,10.07,10.07,0,0,0,1.14,2C126.54,26.14,125.71,25.14,124.8,24.33Zm1.43,4a.56.56,0,0,0,.29-.73c-.08-.16-.16-.31-.24-.46a7.46,7.46,0,0,0,2.51,1.61c.45.16.73-.38.56-.73-.07-.15-.16-.28-.24-.42A9,9,0,0,0,131.58,29,28.24,28.24,0,0,1,126.24,28.33Zm4-2.82.73.08c.32.52.65,1,1,1.55A10.59,10.59,0,0,1,130.27,25.51Zm1.47-.85c.2-.14.39-.3.58-.46a13.1,13.1,0,0,0,1,1.78C132.79,25.53,132.28,25.08,131.74,24.66Zm11.67-.87a10,10,0,0,1-4.35,3.93A14.78,14.78,0,0,1,133.33,29a.46.46,0,0,0,.4-.6,9.68,9.68,0,0,0-.64-1.32A13.62,13.62,0,0,0,135,28.6a.5.5,0,0,0,.68-.68c-.23-.42-.48-.83-.75-1.23a5,5,0,0,0,.85.5.53.53,0,0,0,.57-.07,7.58,7.58,0,0,0,1.23.73.51.51,0,0,0,.66-.18l0,0c.3.15.8,0,.75-.43a3.32,3.32,0,0,0-.34-1.09,9,9,0,0,0,1,.66.5.5,0,0,0,.68-.68,9.76,9.76,0,0,0-1-1.66,6.49,6.49,0,0,0,1.39.85c.35.15.72-.28.61-.61a9,9,0,0,0-.9-1.86A16.77,16.77,0,0,0,142.47,24c.36.17.89-.11.73-.56a3.82,3.82,0,0,0-.3-.64.5.5,0,0,0,.5-.87c-1-.63-2.1-1.24-3.15-1.85a.47.47,0,0,0-.51,0c.06-.25.1-.52.15-.78a12.92,12.92,0,0,0,4.31,1.24.5.5,0,0,0,.48-.63c-.41-1.5-1.77-2.27-2.83-3.29a22.75,22.75,0,0,0,3.08,1.39A12,12,0,0,1,143.4,23.79Z"/><path class="cls-1" d="M173.18,3.27C171,1.1,167.8,0,163.67,0A40,40,0,0,0,157,.6a36.69,36.69,0,0,0-6.31,1.6l-.45.16,1.6,5.31.5-.18c.7-.26,1.53-.52,2.46-.77l.84-.22a9.92,9.92,0,0,0-1.22,2,12.6,12.6,0,0,0-1.06,3.74l-2,17.17h2.9a.47.47,0,0,0,.24,0h3.74l1.9-17.75a8.37,8.37,0,0,1,1.53-4.35,3.66,3.66,0,0,1,3-1.45,4.27,4.27,0,0,1,3.56,1.53,7.31,7.31,0,0,1,1.27,4.63V23.79h-5.89v5.66H176.5V12.8C176.49,8.64,175.37,5.44,173.18,3.27Zm-21.27,1L151.52,3l.33-.11A8.23,8.23,0,0,1,151.91,4.3Zm20.2,10.8-1.55-1.16v-1.6c.51.58,1,1.14,1.57,1.72a.46.46,0,0,0-.13.31A2.64,2.64,0,0,0,172.11,15.1Zm.28,9.33a10.75,10.75,0,0,1-.94-1.54,19.66,19.66,0,0,1,2.74,2.35.58.58,0,0,0,.31.12,3.79,3.79,0,0,1,.08.73c-.53-.52-1-1.12-1.51-1.65A.45.45,0,0,0,172.39,24.43Zm-.41-3c.28.37.93,1,1.43,1.73a5.23,5.23,0,0,0-2.82-1.58h0V19.25A19.91,19.91,0,0,0,172,21.44Zm-1-3.51a.5.5,0,0,0-.37-.13V16.14a16.88,16.88,0,0,0,1.39,2,23.15,23.15,0,0,1,2.22,2.62C173,19.88,172,18.89,170.93,17.93Zm.81-6.87c-.42-.14-.84-.25-1.26-.34,0-.24-.06-.47-.1-.69A15.52,15.52,0,0,0,171.74,11.06Zm-1.67-2.63H170c-.07-.18-.12-.37-.2-.53a18.37,18.37,0,0,1,4,1.46C172.49,9.09,171.3,8.7,170.08,8.43Zm.48,14.9a19.41,19.41,0,0,0,1.89,2.87c-.67-.55-1.26-1.23-1.89-1.8Zm3.4-1.48c.24.19.47.39.72.56a.5.5,0,0,0,.73-.3c.21-1-.51-1.85-1.06-2.59-.89-1.19-2-2.29-2.75-3.55q.85.63,1.65,1.32l.13.22a.43.43,0,0,0,.37.24c.2.19.42.37.61.57a.5.5,0,0,0,.84-.37c.09.09.17.19.27.27h0v7.08A9.47,9.47,0,0,0,174,21.85Zm1.54-5c-.19-.22-.36-.47-.53-.71a.51.51,0,0,0,.15-.8c-.34-.39-.69-.76-1.05-1.13.38.2.77.39,1.16.56a.54.54,0,0,0,.27,0Zm0-4.34c-.65-.53-1.35-1-2-1.45q-.48-.5-1-1a17.5,17.5,0,0,0,2.52.5.45.45,0,0,0,.38-.19A18.93,18.93,0,0,1,175.49,12.47ZM174,6a11.67,11.67,0,0,1,1.21,3.47,3,3,0,0,0-.7-.72.55.55,0,0,0,0-.88,11.74,11.74,0,0,0-2.94-1.18c.64,0,1.28,0,1.94,0A.54.54,0,0,0,174,6Zm-.78-1.07.08,0a9,9,0,0,1,.6.91.44.44,0,0,0-.14-.1,24.42,24.42,0,0,0-2.5-.9C171.89,4.85,172.55,4.95,173.2,4.92ZM163.67,1a18.92,18.92,0,0,1,2.46.16.41.41,0,0,0-.38.34s0,.09,0,.13l-.06,0a.5.5,0,0,0-.93,0c0,.07,0,.14-.05.2-.06-.17-.13-.34-.2-.5a.5.5,0,0,0-.91.12c0,.06,0,.12,0,.18a7.82,7.82,0,0,0-.44-.69ZM153.36,6.12l-.65.21a.52.52,0,0,0,.09-.14c.38-.95.56-2,1-2.86A17.56,17.56,0,0,1,153.36,6.12Zm2.16-.59-.93.24h0a9.61,9.61,0,0,1,1.4-3A15.27,15.27,0,0,1,155.52,5.52Zm.8,1.81q.1.26.21.5a.51.51,0,0,0-.67.59,5.32,5.32,0,0,0,.28.8c-.18-.18-.35-.36-.54-.52l-.08,0A8.82,8.82,0,0,1,156.32,7.33Zm-1.93,5.06c0-.37.12-.74.2-1.1.82,1.86,2.63,3.24,3.35,5.1-1.06-.65-1.81-1.86-2.75-2.63-.35-.29-1,0-.84.49.64,1.9,1.92,3.43,2.82,5.18-1-.47-1.91-1.64-2.8-2.22a.45.45,0,0,0-.56.05Zm-1.88,16,.19-1.59a16.77,16.77,0,0,0,.86,1.59Zm1-4.3A.49.49,0,0,0,153,24l.7-6a7.24,7.24,0,0,0,.58,1.44.5.5,0,0,0-.73.64c.55,1.09,1.33,2,2,3.07-.24-.23-.48-.47-.74-.73s-1.11.13-.79.61c.78,1.16,1.57,2.31,2.33,3.48A27.24,27.24,0,0,1,153.54,24.15Zm3.83,4.3h-1.11a.43.43,0,0,0-.09-.24L155.3,27a7.1,7.1,0,0,0,2.11,1.15Zm.2-1.83c-.32-.51-.63-1-1-1.51.36.09.79-.17.65-.59a8,8,0,0,0-.73-1.59c.2.16.4.32.61.47.41.27,1-.28.68-.68-.8-1.15-1.77-2.2-2.46-3.4a4,4,0,0,0,2.7,1.34.47.47,0,0,0,.16,0Zm.75-7.06a29.76,29.76,0,0,0-1.66-2.89,4.1,4.1,0,0,0,1.86,1.06Zm.41-3.82A7.57,7.57,0,0,0,158,14.5a.44.44,0,0,0,.28-.57A12.49,12.49,0,0,0,157,11.5c.24.23.48.46.74.67a.5.5,0,0,0,.79-.61c-.06-.14-.14-.28-.21-.42.15.14.29.29.45.43a.57.57,0,0,0,.45.1ZM157.41,4.12c.11-.23.24-.45.36-.67a20.17,20.17,0,0,0,1,2.25A8.46,8.46,0,0,0,157.41,4.12ZM159.75,9a14.61,14.61,0,0,0-.81-1.41,5.07,5.07,0,0,0,.88.86l.12.06C159.87,8.62,159.8,8.78,159.75,9ZM160,1.6c-.35-.39-.94,0-.84.49.21.92.49,1.83.73,2.74-.46-.66-.81-1.44-1.29-2.05a2,2,0,0,0,.21-.7.5.5,0,0,0-.84-.49,4.64,4.64,0,0,0-1,1.33,2.61,2.61,0,0,0-.26-1.23l.55-.1A41.31,41.31,0,0,1,162.14,1a5.77,5.77,0,0,0-.1,1.22l-.2-.3c-.25-.38-1-.27-.93.25,0,.37.11.74.18,1.11A10,10,0,0,0,160,1.6Zm4.77,3.28a4.64,4.64,0,0,0-3.65,1.65.51.51,0,0,0,.1-.4c-.08-.44-.18-.87-.29-1.3a4.51,4.51,0,0,0,.58.68.51.51,0,0,0,.85-.35,6.26,6.26,0,0,0-.08-.91l.12.16c.36.41.91,0,.84-.49a7.92,7.92,0,0,1-.12-1l.43.92a.51.51,0,0,0,.89-.06c.05.11.12.21.18.32a.52.52,0,0,0,.7.66,1.25,1.25,0,0,0,.33-.25.49.49,0,0,0,.58.18c0,.13.1.25.15.38A6.62,6.62,0,0,0,164.73,4.89Zm1.94-3.51a.44.44,0,0,0-.21-.18,12.71,12.71,0,0,1,3.11.87.51.51,0,0,0-.07.12,15.83,15.83,0,0,1-.61,1.5,9.09,9.09,0,0,1,.37-1.24c.24-.6-.73-.86-1-.27s-.34,1.43-.55,2.14A28,28,0,0,0,166.67,1.38ZM169.4,6a.51.51,0,0,0-.28.75l-.1,0a4.75,4.75,0,0,0-.78-.73.46.46,0,0,0,.24.07,2.09,2.09,0,0,0,1.4-.72q.48.2,1,.36A9.41,9.41,0,0,0,169.4,6Zm.18,18.84,0,0c.3.49.61,1,.91,1.45-.59-.48-1.13-1-1.75-1.5Zm-2,0a.41.41,0,0,0,0,.27,13.8,13.8,0,0,0,1,1.93,24.85,24.85,0,0,1-2.11-2.2Zm-2.88.53v-.53h.71a.48.48,0,0,0,.05.37c.2.35.4.7.59,1l-.81-.78A.47.47,0,0,0,164.67,25.32Zm1.66,3.12a.55.55,0,0,0,0-.24l-.31-.7a11.63,11.63,0,0,0,1,.77c.39.28.81-.18.73-.56,0-.09-.05-.18-.07-.27a5.24,5.24,0,0,0,1.46,1Zm3.8-.43a8,8,0,0,0-.64-1.33A5.79,5.79,0,0,0,171.64,28a.44.44,0,0,0,.38,0l.18.11a.49.49,0,0,0,.72-.32,7.74,7.74,0,0,1,.87.67H170A.44.44,0,0,0,170.13,28Zm4.61.43a.61.61,0,0,0,.06-.34,4,4,0,0,0-.16-.66l0,0a.5.5,0,0,0,.73-.3,3.1,3.1,0,0,0,.09-.36v1.64Z"/><path class="cls-1" d="M200.38,26.7a5.62,5.62,0,0,0-.51-1.1V.63h-9.75V6.29h2.81V20a.45.45,0,0,0,0,.36v9.07h6.94V27.32A.49.49,0,0,0,200.38,26.7ZM195,6.95c.25.57.54,1.12.84,1.66L195.43,8a.5.5,0,0,0-.91.39,6.39,6.39,0,0,0,.35,1.11.51.51,0,0,0-.67.7c1,1.81,2.4,3.43,3.42,5.24-1.12-1.11-2.11-2.56-3.05-3.6a.5.5,0,0,0-.63-.05V5.54l.19.15a.49.49,0,0,0,.69-.22c.22.21.46.45.69.72A.53.53,0,0,0,195,6.95Zm-.74,9.38a5.64,5.64,0,0,0,.3.95l-.46-.55a.43.43,0,0,0-.15-.11V14.83a5.69,5.69,0,0,0,.54,1A.47.47,0,0,0,194.24,16.33Zm.84,3.44a.46.46,0,0,0-.27.56,5.59,5.59,0,0,0,.31.71L195,20.9a.47.47,0,0,0-.23-.34c-.09-.06-.2-.12-.3-.19l-.2-.21a.44.44,0,0,0-.31-.14V18.37A12.5,12.5,0,0,0,195.08,19.77Zm1.61,3.41h0a17.63,17.63,0,0,1,2.16,2.6,14.25,14.25,0,0,1-2.29-2.12A.44.44,0,0,0,196.69,23.18ZM196,18.13a.51.51,0,0,0,.21-.25,8.21,8.21,0,0,1,1.63,2.33A25.23,25.23,0,0,1,196,18.13Zm-1.37-16.5a.62.62,0,0,0,0,.15,10.13,10.13,0,0,0,.54,2c-.44-.7-.87-1.4-1.3-2.11Zm-3,1a.42.42,0,0,0-.52-.09V1.63h.66a.54.54,0,0,0-.2.51C191.62,2.3,191.63,2.46,191.65,2.61Zm.77,2.67a.38.38,0,0,0,.05-.24s0-.08,0-.12a.48.48,0,0,0,.32-.45c0-.09,0-.17,0-.25a5.7,5.7,0,0,0,.87,1.07Zm1.51,19.56V23.11c.59.77,1.13,1.57,1.7,2.34a5.68,5.68,0,0,0-1.06-.74A.49.49,0,0,0,193.94,24.85Zm1.43,3.6a.51.51,0,0,0,0-.42l-.05-.1a.51.51,0,0,0,.46-.75c-.19-.28-.4-.54-.57-.81a12.26,12.26,0,0,0,2.59,2.09Zm3.51,0h-.41a.42.42,0,0,0,.16-.5,7.24,7.24,0,0,0-.92-1.79,6.86,6.86,0,0,0,1.17.79Zm0-5.77a8.67,8.67,0,0,0-.85-1.1,4.19,4.19,0,0,0,.37.21.6.6,0,0,0,.49,0Zm0-2.47a7.15,7.15,0,0,0-1.36-2.16l.16.12c.45.29.9-.26.68-.68l-.13-.22c.15.1.3.2.46.28a.48.48,0,0,0,.18,0Zm0-4.45c-.19-.39-.4-.76-.62-1.13a.48.48,0,0,0,.53-.71c-.1-.18-.22-.36-.33-.54a.47.47,0,0,0,.42-.07Zm0-3.47c-.28-.64-.59-1.27-.93-1.88a4.07,4.07,0,0,0,.35.23.53.53,0,0,0,.57-.06Zm0-2.65A12.75,12.75,0,0,0,197.47,7a18.88,18.88,0,0,0-.8-2.22c.42.63.85,1.26,1.33,1.86v0h0l.08.1a.48.48,0,0,0,.79-.16Zm0-3.42v0a25,25,0,0,1-1.39-2.51A13.62,13.62,0,0,0,198.41,5a.42.42,0,0,0,.47.12Z"/><path class="cls-1" d="M221.66,5.2A8.45,8.45,0,0,0,218,1.79,12.72,12.72,0,0,0,212.35.63h-9.67V6.29H212a4.08,4.08,0,0,1,3,1,3.7,3.7,0,0,1,1,2.81V29.44h6.94v-19A10.4,10.4,0,0,0,221.66,5.2Zm-3,11.18a8.79,8.79,0,0,0-.82-.69.5.5,0,0,0-.73.56,5,5,0,0,0,.37.75c-.09-.07-.16-.15-.26-.22a.39.39,0,0,0-.23-.07V14.31A10.3,10.3,0,0,0,218.67,16.37Zm2.21,4.38a.57.57,0,0,0,.08-.58,5.94,5.94,0,0,0-.8-1.26,5,5,0,0,0,.83.44.5.5,0,0,0,.62-.61c-.61-1.5-2.27-2.71-3.29-4.1a9.06,9.06,0,0,0,2.4,2c.35.18.91-.13.73-.56A10.34,10.34,0,0,0,219.11,13a9.89,9.89,0,0,0,2.82,2v7.38A4.37,4.37,0,0,0,220.88,20.75ZM219,11.59a9,9,0,0,0-1.76-1.31.48.48,0,0,0-.25-.05v-.13a6.34,6.34,0,0,0-.06-.81C217.58,10.08,218.29,10.84,219,11.59Zm-1.55,9.67a.52.52,0,0,0-.45,0v-3a17.15,17.15,0,0,0,2.63,2.49c-.62-.52-1.21-1.06-1.86-1.54-.42-.31-.92.28-.68.68a16.75,16.75,0,0,0,2.23,2.74A11,11,0,0,0,217.45,21.25Zm3.34,1.57c.16.1.31.21.49.29a.54.54,0,0,0,.65-.14v1.4a.45.45,0,0,0,0-.1A11.34,11.34,0,0,0,220.79,22.83Zm0-10.72a.42.42,0,0,0,.33-.58c-.1-.25-.22-.49-.34-.73.26.26.52.51.8.74a.52.52,0,0,0,.34.13v1.75C221.57,13,221.19,12.54,220.8,12.11Zm0-6.41a9.38,9.38,0,0,1,1.13,4.67l-.87-1.13a.49.49,0,0,0,.38-.6,18.66,18.66,0,0,0-2.4-5A7.28,7.28,0,0,1,220.8,5.7ZM206.92,1.63a11.72,11.72,0,0,0,.21,1.58c-.23-.43-.44-.88-.67-1.32a.5.5,0,0,0-.91.39c.1.33.21.65.29,1-.34-.47-.66-.95-1-1.42a.54.54,0,0,0-.24-.18Zm-3.23,3.65V3.63a7.34,7.34,0,0,0,.69,1.24.51.51,0,0,0,.91-.12,2.45,2.45,0,0,0,.06-.5,10.91,10.91,0,0,0,.71.84.5.5,0,0,0,.84-.22c0-.06,0-.11,0-.17a4.12,4.12,0,0,0,.53.57h-3.76Zm5.8-3.65a.42.42,0,0,0-.12.32c0,.64.15,1.28.24,1.91-.58-.7-1.05-1.49-1.58-2.23Zm-1.4,3.65a.47.47,0,0,0,.2-.37,6.74,6.74,0,0,0-.11-1.35,9,9,0,0,0,1.44,1.72ZM210.3,1.7a.39.39,0,0,0-.05-.07h.66a.48.48,0,0,0,0,.11,13.5,13.5,0,0,0,.05,1.41C210.7,2.67,210.52,2.17,210.3,1.7ZM212,5.29h-.53a.47.47,0,0,0,.54-.47c0-.21,0-.43,0-.64.17.38.35.75.55,1.11l0,0C212.4,5.31,212.22,5.29,212,5.29Zm.45-3.42a3.16,3.16,0,0,0-.14.64c-.14-.3-.29-.59-.45-.88h.74A.51.51,0,0,0,212.47,1.87Zm2.23,4a.41.41,0,0,0,.07-.25c0-.55-.26-1.45-.25-2.21.23.85.28,1.76.5,2.63C214.91,6,214.8,5.94,214.7,5.89Zm1.37.25c-.47-1.45-.33-2.94-1.12-4.26a10.13,10.13,0,0,1,2.5.79.51.51,0,0,0,0,.13c.68,1.62,1.77,3,2.48,4.59C218.7,6,218,4,216.84,2.64c-.31-.37-1,0-.84.49s.32.76.49,1.13a.52.52,0,0,0-.41.74,53.5,53.5,0,0,0,3.24,5.14c-.89-.83-1.61-1.86-2.54-2.7a.51.51,0,0,0-.51-.1,4.12,4.12,0,0,0-.49-.64A.44.44,0,0,0,216.07,6.13ZM217,23.82A8.34,8.34,0,0,0,218,25a3.33,3.33,0,0,0-.4-.13.51.51,0,0,0-.56.73,3.58,3.58,0,0,0,1.15,1.19l-.38-.22c-.36-.2-.89.14-.73.56a4.59,4.59,0,0,0,.76,1.31H217Zm4.25,4.63a2.49,2.49,0,0,0-.47-.8.52.52,0,0,0,.37-.75l-.13-.18a.5.5,0,0,0,.11-.76c-.65-.82-1.47-1.55-2.18-2.36A6.59,6.59,0,0,0,221.33,25a.51.51,0,0,0,.61-.35v3.78Z"/><path class="cls-1" d="M254.82.63H247l-5.4,10.28L234.36.63h-7.87l6.31,8.9a8.39,8.39,0,0,0-3.5,3.51A13.68,13.68,0,0,0,228,19.33v4.23a.46.46,0,0,0-.23.69l.23.32v1.87a.51.51,0,0,0,0,.62v2.38h6.73V16.92a5.87,5.87,0,0,1,.35-2.13,3.71,3.71,0,0,1,.65-1.07l11.13,15.73h7.85L245.91,17ZM245.1,16.38a9.07,9.07,0,0,0-.41-.94l0,0c.41.43,1-.12.79-.61s-.47-.88-.72-1.31l.82.83a.47.47,0,0,0,.51.11ZM248,23.91c0,.53-.06,1.07-.09,1.61a.49.49,0,0,0-.37-.07C247.71,24.93,247.85,24.42,248,23.91Zm-4.43-7a3.76,3.76,0,0,1,.07.54,12.39,12.39,0,0,0-.59,1.55A5,5,0,0,1,243.59,16.92Zm-.08,5.5c.22-.54.46-1.17.66-1.83-.1,1-.28,2-.3,2.85l-.55-.78A.54.54,0,0,0,243.51,22.41ZM251,26.91c-.14-.59-.44-1-.85-1a5.92,5.92,0,0,0,.18-1l1.2,1.7A1.15,1.15,0,0,0,251,26.91Zm-4.5-6.7-.12.16c-.05-.43-.11-.86-.19-1.29l.7,1A.46.46,0,0,0,246.48,20.21Zm-1.41-1.79a4.42,4.42,0,0,0-.35-1.14.47.47,0,0,0,.16,0l.56.79A.55.55,0,0,0,245.08,18.42Zm2.18-6c-.44-.81-1-1.55-1.5-2.34a12.81,12.81,0,0,0,1.37,1.26c.36.28.84-.18.73-.56-.21-.76-.83-1.65-1.17-2.51a10,10,0,0,0,1.73,1.86l.06,0Zm2.54-6.09a.5.5,0,0,0,.77-.54,5.94,5.94,0,0,0-.21-.62l.08.1c.41.45,1-.12.79-.61l-.46-1,.5.54a.46.46,0,0,0,.41.13l-2.08,3.83c-.21-.47-.45-.93-.71-1.39l.13.15A.5.5,0,0,0,249.79,6.34Zm-2.18-4.7h1.73a.44.44,0,0,0-.07.24,4.23,4.23,0,0,0,.08.6,4.26,4.26,0,0,0-.4-.35c-.36-.26-.85.17-.73.56l.06.15a.49.49,0,0,0-.59.46c0,.07,0,.14,0,.21-.12-.17-.23-.34-.36-.5a.41.41,0,0,0-.35-.14ZM246.53,3.7a6.32,6.32,0,0,0,.16.67.5.5,0,0,0-.58.61A10.24,10.24,0,0,0,247,7a7.41,7.41,0,0,0-.57-.63.5.5,0,0,0-.84.22,3.26,3.26,0,0,0,.36,2.24,10.25,10.25,0,0,0-1-.93.49.49,0,0,0-.65.14Zm-2.36,4.5a.35.35,0,0,0,0,.17,7.29,7.29,0,0,0,1.48,3.16c-.67-.67-1.31-1.39-2-2l-.08,0ZM243,10.45l.28.44c-.34,0-.7.19-.57.6a8.31,8.31,0,0,0,.4,1,.5.5,0,0,0-.66.59,8.51,8.51,0,0,0,.38.87.52.52,0,0,0-.17.23c0,.11-.06.22-.09.33a9.42,9.42,0,0,0-.53-2.26Zm-2,1.72a8.72,8.72,0,0,1,.77,3.4.44.44,0,0,0-.38.35l-.1.68a11.51,11.51,0,0,0-.61-2.1s0,0,0-.07A6.31,6.31,0,0,0,240.94,12.17ZM230.15,4.08a.54.54,0,0,0,.61-.1c0,.35,0,.7.07,1v0Zm2.34,3.3-1.39-2a.46.46,0,0,0,.73-.4A5.37,5.37,0,0,1,232,3.08c.13.88,0,1.83.18,2.69a.47.47,0,0,0,.46.35C232.58,6.54,232.54,7,232.49,7.38Zm.19-5.48c0-.09-.06-.18-.1-.26h1.26l.16.23a.44.44,0,0,0-.37.22l-.07.16c0-.05,0-.1,0-.15A.49.49,0,0,0,232.68,1.9ZM231.23,12a23.18,23.18,0,0,1,1.68,3.11c-.73-.78-1.31-1.71-2-2.55a.4.4,0,0,0-.11-.09C230.94,12.34,231.09,12.19,231.23,12Zm-1.05,1.47,0-.07c.37,1,.78,1.9,1.18,2.85-.54-.63-1-1.35-1.57-2A8.3,8.3,0,0,1,230.18,13.5Zm-.78,2.25c.72,1.27,1.61,2.46,2.26,3.76-.62-.7-1.11-1.63-1.62-2.3h0l-.08-.1c-.32-.4-.8,0-.82.38A14.27,14.27,0,0,1,229.4,15.75Zm-.27,1.78a.5.5,0,0,0,0,.17,22.78,22.78,0,0,0,1.31,2.42,6.62,6.62,0,0,0-1.22-1.08A.44.44,0,0,0,229,19C229.05,18.47,229.09,18,229.13,17.53Zm-.1,3c.83,1.33,1.82,2.56,2.61,3.91-.73-.77-1.33-1.69-2.05-2.44a.43.43,0,0,0-.55-.09Zm0,7.94v-.68c.37.24.74.48,1.13.68Zm0-4.31V23.06c.44.91.93,1.78,1.44,2.65C230,25.2,229.51,24.66,229,24.13Zm4.73,4.31H231.5a.49.49,0,0,0,0-.39l-.27-.46a6.23,6.23,0,0,0,.74.43.5.5,0,0,0,.68-.68c-.29-.49-.58-1-.88-1.47a5,5,0,0,0,1,.61c.36.17.9-.12.73-.56a12,12,0,0,0-1-2c.35.26,1,0,.81-.5a15.25,15.25,0,0,0-1.06-2.24,2.71,2.71,0,0,0,.39.16.5.5,0,0,0,.61-.62,11.66,11.66,0,0,0-1.19-2.56l.23.14c.36.18.88-.12.73-.56-.2-.59-.43-1.17-.67-1.75a6.52,6.52,0,0,0,1.08.91.42.42,0,0,0,.33.05Zm.42-14a5.8,5.8,0,0,0-.21.77,6.81,6.81,0,0,0-.25-.69.53.53,0,0,0,.31-.59c0-.08,0-.17-.07-.25l.2.27a.41.41,0,0,0,.2.13C234.29,14.18,234.23,14.3,234.18,14.42Zm-.07-4.08a.45.45,0,0,0-.42-.13l.07,0,.54-.26-1.16-1.63a.43.43,0,0,0,.3-.32c.26-1.13.26-2.35.46-3.5.07,1.43-.12,2.88-.14,4.31,0,.54.84.69,1,.17,0,0,.07.07.11.11a11.5,11.5,0,0,0,.06,2A3.24,3.24,0,0,1,234.11,10.34Zm1.39,2.22a4.67,4.67,0,0,0-.59.62c-.11-.37-.24-.74-.36-1.11a2,2,0,0,0,.28.12.45.45,0,0,0,.34,0,.46.46,0,0,0,.66.12Zm1.37,1-1-1.35-.08.06A.58.58,0,0,0,236,12a31.91,31.91,0,0,0,.86-3.44,4.72,4.72,0,0,1,.31,1.8A11.83,11.83,0,0,0,236.88,13.56Zm.68,1a.5.5,0,0,0,.32-.44c0-.56.14-1.21.21-1.89.09,1.14.13,2.29.25,3.43Zm2-1.92a.57.57,0,0,0-.47-.35,18.63,18.63,0,0,0-.4-3,.47.47,0,0,0-.61-.32,3.46,3.46,0,0,0-.93-1.81.5.5,0,0,0-.79.1,7.88,7.88,0,0,0-.53,1.64c0-.29,0-.59.06-.88a.45.45,0,0,0,.29-.43,10.9,10.9,0,0,0-.07-1.43A.48.48,0,0,0,236,6c0-.28,0-.56,0-.82a.45.45,0,0,0-.37-.46,3.53,3.53,0,0,0-.22-.53.51.51,0,0,0-.62-.2,9.45,9.45,0,0,0-.16-1.11l5.55,7.87,0,0a19,19,0,0,0-.35,2.74Q239.69,13.06,239.54,12.6Zm.68,5.56a2.22,2.22,0,0,0,1,.55.49.49,0,0,0,.57-.27c0,.51,0,1,.1,1.49a.53.53,0,0,0,.2.36.55.55,0,0,0,.64.11,12,12,0,0,0-.15,1.2l-2.4-3.39A.4.4,0,0,0,240.22,18.16Zm4.14,6a.41.41,0,0,0,.42-.24,12.08,12.08,0,0,0,.62-2c0,.85,0,1.71.06,2.56a.51.51,0,0,0,.49.48,7.32,7.32,0,0,0,.29.85,5.34,5.34,0,0,0,0,.55.46.46,0,0,0,.64.45l.07.08c.09.89,1,1.42,2.07,1.57h-1.58Zm6.76,4.3.12-.22a2.87,2.87,0,0,0,1-.59l.57.81Z"/><path class="cls-1" d="M275.76.63a.46.46,0,0,0-.2,0h-4.47v13a.56.56,0,0,0-.14.65c0,.09.09.17.14.25a17,17,0,0,1-.34,3.46,6.44,6.44,0,0,1-.9,2.33l-.55.77,6,.12.15-.17a8.54,8.54,0,0,0,1.76-3.32,15.72,15.72,0,0,0,.59-4.46V.63Zm1.08,12.64a15.43,15.43,0,0,1-.37,3.44,10.54,10.54,0,0,0-1.85-2.08,4.91,4.91,0,0,0,1.19.52.51.51,0,0,0,.63-.48,2.94,2.94,0,0,0-.72-2,3.63,3.63,0,0,0,.55.16.53.53,0,0,0,.56-.24Zm-4-4.34a.52.52,0,0,0-.77.09V6.69c.28.3.6.62.94.94A10.64,10.64,0,0,0,274.42,9a4.82,4.82,0,0,1,1.52,2.63C274.69,11.11,273.87,9.82,272.86,8.93Zm0,3.08a.48.48,0,0,0-.73.33V9.59c.57,1.57,2.73,2.77,3.24,4.3A16.73,16.73,0,0,1,272.81,12Zm-.57-6.73a.49.49,0,0,0-.15-.1V4.61c1,1.31,2.29,2.41,3.17,3.79C274.08,7.61,273.26,6.25,272.24,5.28ZM272.09,14V12.6c.53,1.92,2.48,2.81,3.42,4.39C274.2,16.36,273.22,14.88,272.09,14Zm4.25-4.05c.31,0,.62-.28.49-.61A9.13,9.13,0,0,0,275,6.55a6.48,6.48,0,0,0,.69.45.5.5,0,0,0,.61-.79c-.48-.6-1-1.17-1.45-1.75A7.38,7.38,0,0,0,276,5.3c.45.28.89-.26.68-.68a6.73,6.73,0,0,0-.38-.67c.17.16.34.32.53.47l.05,0v6.62A4.15,4.15,0,0,0,276.34,9.9ZM273.8,1.63a5.15,5.15,0,0,0,.36.85A5.25,5.25,0,0,0,273,1.75a.5.5,0,0,0-.68.68,8.35,8.35,0,0,0,.43.79,7.51,7.51,0,0,0-.71-.51V1.63Zm-2.08,16.58h0c0-.16.06-.33.09-.5.1.15.19.31.3.46a.5.5,0,0,0-.22.82l.09.1-.1,0a.55.55,0,0,0-.41.1C271.56,18.87,271.65,18.55,271.72,18.21Zm3.17,2h-.71a.56.56,0,0,0-.1-.17l-.4-.46a.45.45,0,0,0,.15-.64c-.08-.14-.18-.27-.27-.41a2.71,2.71,0,0,0,1.38.37.5.5,0,0,0,.43-.75l-.15-.22a3.91,3.91,0,0,0,.81.28A7.15,7.15,0,0,1,274.89,20.21Z"/><path class="cls-1" d="M284.26.63v3a.44.44,0,0,0-.09.6l.09.11v12a7.55,7.55,0,0,1-1.35,4.6,8.09,8.09,0,0,1-3.78,2.73A18.11,18.11,0,0,1,269,24a24.31,24.31,0,0,1-4.12-1.27v-1.1c0-.06.08-.11.11-.17a.51.51,0,0,0-.11-.61V.63h-6.73V4.81a.47.47,0,0,0,0,.42V26.59l.28.14a35.28,35.28,0,0,0,7.52,2.6,35.22,35.22,0,0,0,7.69.89,24.65,24.65,0,0,0,8.71-1.47,14.06,14.06,0,0,0,6.28-4.49A11.68,11.68,0,0,0,291,16.9V.63Zm-21,1.22a.49.49,0,0,0,0-.22h.66V3.47c-.5-.1-1.1.27-1.71.84,0-.05,0-.11,0-.16A10.41,10.41,0,0,0,263.21,1.85Zm0,3.8a8.42,8.42,0,0,1-.87,1.2c0-.37,0-.74,0-1.11C263.1,5,264.07,4.15,263.19,5.65Zm-1,3.07a19.84,19.84,0,0,0,1.71-2V8.12a.55.55,0,0,0-.38,0,6.36,6.36,0,0,0-1.37.9Zm-.68,11.75a8.53,8.53,0,0,0,2.38-2.75v1.51a.49.49,0,0,0-.55.34,5.25,5.25,0,0,0-.2.7,6.26,6.26,0,0,1-.56,1.06,5.57,5.57,0,0,1-.32.46,12.13,12.13,0,0,1-1.16.48.77.77,0,0,1,.13-.53A2.65,2.65,0,0,1,261.5,20.47Zm1.8-8a6.18,6.18,0,0,0-.82.46,8.07,8.07,0,0,1,.49-1c.6-.41.81-.23.63.52A.58.58,0,0,0,263.3,12.5Zm-.35-2,0,0c.36-.44.7-.86,1-1.25v1.25A1,1,0,0,0,262.95,10.54Zm.23,4.21a11,11,0,0,1-.69,1.83,13.49,13.49,0,0,1-2.42,1.54C260.93,16.9,262.27,15.93,263.18,14.75Zm-4-13.11h1.57c-.28.26-.54.53-.8.8a.38.38,0,0,0-.36.25l-.12.28a.5.5,0,0,0,0,.08l-.26.33Zm0,3.62a8.18,8.18,0,0,0,.9-.73,4.48,4.48,0,0,0,0,1,.44.44,0,0,0,.05.15,11.66,11.66,0,0,0-1,2Zm0,3a.48.48,0,0,0,.66.15,7.61,7.61,0,0,0,1.54-1.6c0,.39,0,.78-.07,1.18a11.78,11.78,0,0,0-2.13,2.74Zm0,3.52a.5.5,0,0,0,.37.07,4.63,4.63,0,0,0,1.3-.59l-.06.4a7.93,7.93,0,0,0-1.62,3Zm0,3.71a.52.52,0,0,0,.55.22,4.75,4.75,0,0,0,.76-.29s0,.06,0,.09a.51.51,0,0,0,.28.43,12.69,12.69,0,0,0-1.59,1.74Zm0,3.77a3.64,3.64,0,0,0,2.42-.92c-.29.55-.57,1.09-.81,1.66a14.29,14.29,0,0,0-1.61,1.62Zm1.63,7.12a.52.52,0,0,0-.12.22c-.51-.21-1-.42-1.51-.66V23.64a6.38,6.38,0,0,0,1.37-.16.91.91,0,0,0,.28.18,3,3,0,0,0-1,1.25c-.13.33.2.6.48.63a5.31,5.31,0,0,0,1.3,0Zm2.3,1.09-1.21-.42c1.15-.43,2-1.45,3.14-1.94a12.62,12.62,0,0,0-1.89,2A.46.46,0,0,0,263.08,27.49Zm1.61.48-.73-.21a5.33,5.33,0,0,0,1.41-.69A9,9,0,0,0,264.69,28ZM285.26,1.63h1.45a6.38,6.38,0,0,0,.9,1.7c-.61-.39-1.22-.78-1.86-1.13a.48.48,0,0,0-.49,0Zm0,1.47c.74.77,1.48,1.51,2.17,2.31-.72-.54-1.42-1.11-2.17-1.63Zm0,3.86c1.24,1.53,2.79,2.81,3.88,4.43a24,24,0,0,1-2.64-2.19c-.41-.31-.93.28-.68.68.08.13.18.25.27.38a7.55,7.55,0,0,0-.67-.42.55.55,0,0,0-.16-.06Zm0,4.44c.9,1.26,2.19,2.21,3.13,3.42-1-.69-1.8-1.63-2.78-2.3a.42.42,0,0,0-.35-.06Zm0,2.24c.72.89,1.69,1.72,2.34,2.68a11.56,11.56,0,0,0-2-1.68.47.47,0,0,0-.36-.05Zm0,2.64A16.39,16.39,0,0,0,287.14,19a9.32,9.32,0,0,0-1.5-1.28.47.47,0,0,0-.48,0A11,11,0,0,0,285.25,16.29Zm-5.79,8.24a9.81,9.81,0,0,0,2.61-1.44.59.59,0,0,0-.09.22,3.89,3.89,0,0,0,.52,2.22,3.87,3.87,0,0,0-1.53-1,.5.5,0,0,0-.63.48,5.12,5.12,0,0,0,.11.61,2.22,2.22,0,0,0-1.23-.69.59.59,0,0,0-.49.14l-.21-.25C278.85,24.75,279.16,24.65,279.47,24.54Zm-3.84,3.86a2.58,2.58,0,0,0,.63.3.46.46,0,0,0,.55-.25c.39.14.78.29,1.17.4-.75.12-1.52.22-2.31.28A3.78,3.78,0,0,1,275.63,28.39Zm-.14-3a.55.55,0,0,0-.08.24,4.22,4.22,0,0,0,.14,1.31,15.14,15.14,0,0,1-.9-1.48C274.94,25.48,275.21,25.45,275.49,25.42Zm-9.31,2.93-.15,0a7.26,7.26,0,0,0,.57-.5.46.46,0,0,0,0-.65l.15-.16a6.18,6.18,0,0,0,.06,1.48Zm1.71.33a5.18,5.18,0,0,1-.07-2,12.33,12.33,0,0,0,.83,2.1Zm1-3c0,.5.07,1,.09,1.47a11.1,11.1,0,0,0-.76-2c.06-.1.13-.2.19-.31l.39.1c.82.18,1.61.29,2.39.38a.46.46,0,0,0-.12.33c0,.14,0,.32,0,.53l-.19-.4a.51.51,0,0,0-.85,0l-.23-.35A.5.5,0,0,0,268.87,25.71Zm1,3.26a6.82,6.82,0,0,0,.11-1.49l.14.2a.58.58,0,0,0,.75.14,3.27,3.27,0,0,0,.43.46.51.51,0,0,0,.85-.35c0-.1,0-.19,0-.27a12.78,12.78,0,0,0,.91,1.53C272,29.17,270.94,29.1,269.85,29Zm9.66-.43a.44.44,0,0,0-.46-.57,2.52,2.52,0,0,1-.35,0,.44.44,0,0,0,0-.1l-.06-.17a.55.55,0,0,0,.59-.23,4,4,0,0,0,.26.32c.33.33,1,0,.84-.49L280,26.6c.4.45.76,1,1.12,1.48C280.62,28.26,280.07,28.4,279.52,28.54Zm2.74-.84a17.8,17.8,0,0,1-.71-1.73c.53.4,1,.94,1.49,1.38C282.78,27.47,282.53,27.59,282.26,27.7Zm1.45-6.23a7.71,7.71,0,0,0,1.3-3,4.32,4.32,0,0,0,.45.82.49.49,0,0,0-.67.46A5.51,5.51,0,0,0,285.7,22l-.55-.54a.5.5,0,0,0-.84.22,2.78,2.78,0,0,0,0,1.27,8.06,8.06,0,0,0-.73-.84.52.52,0,0,0-.43-.12C283.38,21.85,283.56,21.67,283.71,21.46Zm.46,5.31c-.21-.57-.52-1.12-.78-1.68L284,26c.3.41,1.15.18.91-.39l-.06-.12h0l0,0c-.13-.28-.31-.57-.49-.87a5.61,5.61,0,0,0,1,1c.37.26.85-.17.73-.56-.15-.55-.51-1.19-.72-1.82a9.55,9.55,0,0,0,1.67,1.34A12.61,12.61,0,0,1,284.16,26.77Zm3.69-3.13-.07.08c-.38-.87-1-1.66-1.47-2.5a13.38,13.38,0,0,0,2.09,1.63C288.22,23.13,288,23.39,287.85,23.64ZM290,16.9a11.94,11.94,0,0,1-.64,4,.46.46,0,0,0,0-.08,10.33,10.33,0,0,0-1.6-3l0,0a4.4,4.4,0,0,0,.79.48.51.51,0,0,0,.73-.56,3.94,3.94,0,0,0-.54-1.45,4.91,4.91,0,0,0,.85.36.51.51,0,0,0,.44-.11Zm0-1.33a8.58,8.58,0,0,0-1.6-2.16,7.71,7.71,0,0,0,1,.63.47.47,0,0,0,.61-.11Zm0-4.7a12.48,12.48,0,0,0-1-1.27.5.5,0,0,0,.48-.74A14.23,14.23,0,0,0,288,7a9.08,9.08,0,0,0,1.06.59.5.5,0,0,0,.68-.68,13.6,13.6,0,0,0-1.47-2c.28.16.57.31.87.44s1-.23.68-.68-.63-.84-1-1.26a6,6,0,0,0,1.1.65Z"/><path class="cls-1" d="M293.91.63V6.29h4.7v11h6.94V.63Zm2.2,2.15a.55.55,0,0,0-.28.15l0,0a.49.49,0,0,0-.9.14V1.63h1a.45.45,0,0,0,.12.45l.17.19A.45.45,0,0,0,296.11,2.78Zm4.33,6.45a.5.5,0,0,0-.68.68,6.08,6.08,0,0,0,.76,1,.53.53,0,0,0-.43.76,4.49,4.49,0,0,0,.51.73,3.25,3.25,0,0,0-.94-.26h0V8c.85,1,1.95,1.82,2.77,2.82C301.72,10.31,301.12,9.68,300.44,9.23Zm4.11-1.67-.31-.5a6.89,6.89,0,0,0-1.06-2.38c.44.41.89.81,1.37,1.18Zm-1.31-5.93a.48.48,0,0,0,0,.28l-.12,0a.5.5,0,0,0-.61.61,2.64,2.64,0,0,0,.19.41c-.26-.24-.53-.47-.81-.69s-1,0-.84.49a8.32,8.32,0,0,0,1,2l-.06,0-1.19-1.43a4.71,4.71,0,0,0-2-1.61Zm-3.63,11.8a9.76,9.76,0,0,0,.78.92.45.45,0,0,0-.07.4c0,.16.08.28.12.39a.47.47,0,0,0-.21.68l.18.29a.47.47,0,0,0,.32.22h-1.12Zm2.3,2.9a.39.39,0,0,0,0-.3l0-.1.07,0a.5.5,0,0,0,.61-.79,13,13,0,0,0-1-1.09A11.84,11.84,0,0,0,303,15.15a.5.5,0,0,0,.68-.68,3.89,3.89,0,0,0-.34-.57l.08,0a.51.51,0,0,0,.56-.73,5.09,5.09,0,0,0-.42-.62l.05,0c.34.09.76-.25.61-.61A6.26,6.26,0,0,0,302.94,10l.19.06a.5.5,0,0,0,.49-.84,19.21,19.21,0,0,1-2-2.12,27.67,27.67,0,0,0,2.84,2.23l.08,0v6.91Z"/><path class="cls-1" d="M330.56,3.42c-2-1.85-4.88-2.79-8.58-2.79H310.27V6.29h11.31a5.47,5.47,0,0,1,3.89,1.17,5.07,5.07,0,0,1,1.2,3.76v4.5a.45.45,0,0,0,0,.71l0,0v4.21a.41.41,0,0,0,0,.46v8.32h6.92v-18C333.59,8,332.57,5.28,330.56,3.42ZM328,26.68a.46.46,0,0,0-.36,0V23.46l.29.39a.47.47,0,0,0-.06.72,8.6,8.6,0,0,0,1.38,1.18,2.69,2.69,0,0,0,.15.42,4.13,4.13,0,0,0-.74-.41.5.5,0,0,0-.62.35l-.06.29A.49.49,0,0,0,328,26.68Zm4.23-13.85-.12,0h0l-.14-.05.6.1v2.45a10.47,10.47,0,0,0-2.31-1.88c.52.13,1.05.26,1.59.35S332.82,13.08,332.26,12.83Zm-2.78,4.1a.49.49,0,0,0-.06-.1l.23.23c.43.4,1,.8,1.47,1.26a12.43,12.43,0,0,1-1.37-.8C329.66,17.33,329.56,17.13,329.48,16.93Zm2,2.65a6.62,6.62,0,0,0,.72.21.52.52,0,0,0,.36-.06v1.58A6.52,6.52,0,0,0,331.51,19.58Zm-.3-2.48c-.46-.42-.89-.85-1.32-1.3a14.33,14.33,0,0,0,2.63.88h.07v1.93A6.55,6.55,0,0,0,331.21,17.09Zm-.08-1.89c-1.08-.4-2.11-.91-3.17-1.38a.53.53,0,0,0-.28,0v-1C328.75,13.63,330.08,14.3,331.13,15.21Zm-1.84,1.48a.55.55,0,0,0-.67,0c-.33-.25-.65-.5-.95-.74v-1C328.22,15.52,328.73,16.12,329.29,16.69Zm-.15,1.91c.27.56.57,1.1.88,1.64a7.53,7.53,0,0,0-1.59-1.4.49.49,0,0,0-.66.17h-.09V17.33C328.13,17.72,328.63,18.15,329.13,18.6Zm-1.06,1.69.4.28c.66.89,1.38,1.73,2.08,2.58a8.46,8.46,0,0,0-.8-.52q-1-1-2.07-1.9v-.55A.37.37,0,0,0,328.07,20.29Zm3.76,2.87a.48.48,0,0,0,.51-.33.52.52,0,0,0,.25-.07v1.4Q332.22,23.65,331.83,23.16Zm.74-12.43c0,.24,0,.48,0,.73v.29c-.63-.36-1.28-.67-1.94-1a11.24,11.24,0,0,0,1.73,0A.62.62,0,0,0,332.56,10.72Zm-.23-1.95a.48.48,0,0,0-.42-.27h-.2a.45.45,0,0,0-.23-.45,5.85,5.85,0,0,0-.62-.31c.41,0,.81,0,1.22,0C332.17,8.1,332.26,8.43,332.33,8.78Zm-2-4.11a7.82,7.82,0,0,1,1.3,2.06l-.85-.11a.54.54,0,0,0-.72-.32l-.39.17-1-.16L329,6a8.25,8.25,0,0,0,1.3-.87A.43.43,0,0,0,330.37,4.66Zm-.49,3.73c-.5,0-1-.1-1.49-.18a5.74,5.74,0,0,1,.51-.3A10.15,10.15,0,0,0,329.89,8.39Zm-.47-4.61-.43.53c-.27,0-.54.11-.81.17l.4-.32c.38-.32,0-.95-.44-.86a.58.58,0,0,0,0-.39A8.25,8.25,0,0,1,329.42,3.78Zm-4.86-2,.84.15a6.21,6.21,0,0,0-.86.76A3,3,0,0,0,324.56,1.82Zm-10.37-.19a.49.49,0,0,0,.06.31c.23.4.46.8.68,1.2a12.73,12.73,0,0,1-1.49-1.5Zm-2.43,1a10.49,10.49,0,0,1,.51.93l-.55-.39a.41.41,0,0,0-.45,0V1.63h1a.41.41,0,0,0,0,.23A.5.5,0,0,0,311.76,2.58ZM313,5.29a.41.41,0,0,0,0-.37l.17,0a.51.51,0,0,0,.48-.63l0-.1c.14.1.28.2.43.29a.43.43,0,0,0,.56-.06,7.21,7.21,0,0,1,.47.84Zm3.15-3.65c.05.36.09.84.16,1.36a16.15,16.15,0,0,1-1-1.36Zm-.25,3.65a.5.5,0,0,0,0-.48l-.07-.12h0a.57.57,0,0,0,.56-.23l.32.2a1.83,1.83,0,0,0,.47.63Zm2.58-3.34a4.56,4.56,0,0,0-.54-.32h2.37l-.13.17a.49.49,0,0,0-.41.7l-.08.14c-.14-.17-.28-.34-.41-.52a.52.52,0,0,0-.74-.12Zm3.12,3.34h-2.7a2.55,2.55,0,0,0,.46-.4A2.61,2.61,0,0,0,320,5a.49.49,0,0,0,.44-.3l.16.07a4.2,4.2,0,0,0,1.22.49Zm.54-1.76c-.16-.62-.23-1.27-.41-1.89H322c.54,0,1,0,1.54.07C323,2.27,322.58,2.91,322.12,3.52Zm4.37,3.62a4.1,4.1,0,0,0-.32-.4,4.75,4.75,0,0,0-2-1.08l.11,0,.2-.12a.53.53,0,0,0,.61.35,6.94,6.94,0,0,0,1-.26.41.41,0,0,0,.42.25,8.25,8.25,0,0,0,1.3-.25A2.75,2.75,0,0,0,326.48,7.14ZM327.9,10a.52.52,0,0,0,.22.53,12.84,12.84,0,0,0,1.31.73,8.17,8.17,0,0,0-1.29-.07.51.51,0,0,0-.46.34v-.32a9.88,9.88,0,0,0-.09-1.36A.55.55,0,0,0,327.9,10Zm-.22,18.43v-.82a5.67,5.67,0,0,0,1.13.82Zm2,0a.44.44,0,0,0-.12-.72,5.06,5.06,0,0,1-1-.7.44.44,0,0,0,.28-.08,19.16,19.16,0,0,1,1.76,1.46l.06,0Zm1.49,0a.57.57,0,0,0,.21-.23.5.5,0,0,0,.15-.66c-.12-.19-.27-.39-.43-.59.19.11.38.22.58.31a.5.5,0,0,0,.61-.79c-.09-.11-.19-.2-.29-.3a.65.65,0,0,0,.15-.09c.14,0,.29,0,.44,0v2.31Z"/><path class="cls-1" d="M311.92,13l-.15.24a10.91,10.91,0,0,0-1.12,2.45,12.78,12.78,0,0,0-.43,3.75v3.34a.5.5,0,0,0-.31.72l.31.57v5.39H317V18.89a22.58,22.58,0,0,1,.5-5.28l.16-.62Zm-.6,4.45c.64,1.54,2.43,2.5,3.45,3.92-1.25-.65-2.65-2.28-3.51-2.93h0C311.27,18.06,311.29,17.73,311.33,17.43Zm3.52-2.84.2.42a10.41,10.41,0,0,1-1.5-1H315A.51.51,0,0,0,314.85,14.59Zm1.11,4.3v2.44a6.75,6.75,0,0,0-.64-1,.55.55,0,0,0,.21-.84l-.24-.25a.5.5,0,0,0,.3-.73,9.12,9.12,0,0,0-.66-.76l0,0c.44.32.88-.28.68-.68a7.56,7.56,0,0,0-.55-.92,3.37,3.37,0,0,0,.76.21.59.59,0,0,0,.2,0C316,17.11,316,18,316,18.89Zm-3.16,9.38a.49.49,0,0,0,.58-.27l.57.45h-1.27A.61.61,0,0,0,312.8,28.26Zm-.38-2.78a.42.42,0,0,0-.38-.07c-.23-.5-.48-1-.74-1.48a5.79,5.79,0,0,1,1.18.64.44.44,0,0,0,0,.29,7,7,0,0,0,.39.93Zm3-1.42a.47.47,0,0,0,.19-.68,7.81,7.81,0,0,0-.86-1,2.36,2.36,0,0,0,1,.2.53.53,0,0,0,.19-.05v2.09C315.79,24.46,315.62,24.26,315.44,24.06Zm.73-9-.46-1a.45.45,0,0,0-.08-.1h.72C316.28,14.33,316.22,14.69,316.17,15.08ZM311.23,27l.22.22a.54.54,0,0,0,0,.49,1.26,1.26,0,0,0,.58.73h-.79Zm4.09,1.43a.48.48,0,0,0-.14-.27l-.36-.34a.42.42,0,0,0,.14-.63c-.32-.44-.62-.84-.88-1.26a12.45,12.45,0,0,1,1.12.9.49.49,0,0,0,.76-.11v1.71Z"/></g></g></svg>