<svg xmlns="http://www.w3.org/2000/svg" viewBox="0 0 27.79 169.12"><defs><style>.cls-1{fill:#666665;}</style></defs><title>Asset 37</title><g id="Layer_2" data-name="Layer 2"><g id="header"><path class="cls-1" d="M22.58,106.49l-3.75,0a6.14,6.14,0,0,0-.78-.35.35.35,0,0,0-.48.34l-6.35,0-.77-.3a.37.37,0,0,0-.48.29l-5,0-.41-.09a.46.46,0,0,0-.32.08l-3.28,0-.12,18,21.62.15ZM14,110.88H12.24a.4.4,0,0,0,.28-.59l-.07-.1C13,110.43,13.47,110.67,14,110.88Zm.45-.58a13.17,13.17,0,0,0,1.23.59H14.24A.43.43,0,0,0,14.44,110.3Zm-4.77.55H8.46a.4.4,0,0,0,0-.38,9.24,9.24,0,0,0,1,.34h.15Zm-5.34-.36.33.32H4.43V111a14.24,14.24,0,0,1-1.2-.87L3.09,110C3.5,110.18,3.91,110.35,4.33,110.49Zm7.77,10.13c.57.47,1.13.95,1.71,1.4q.29.25.55.52a17.59,17.59,0,0,1-1.45-1c-.79-.54-1.61-1-2.4-1.55h1.72A.36.36,0,0,0,12.11,120.63ZM13,120h1.34a.4.4,0,0,0,.06.48l.26.24a4.73,4.73,0,0,0,.62.81C14.54,121,13.8,120.49,13,120Zm4.72,3.28c.2.14.4.28.6.4l-2.83,0a.39.39,0,0,0,.31-.26.42.42,0,0,0,.55-.37,6.88,6.88,0,0,0,1,.36A.37.37,0,0,0,17.74,123.29Zm-2.43.38H13.75a.4.4,0,0,0,.38-.3A4.09,4.09,0,0,0,15.31,123.67Zm4.82,0a.41.41,0,0,0-.13-.08,6.23,6.23,0,0,1-1-.5.39.39,0,0,0,.26-.49,10.32,10.32,0,0,0,1.42,1.07Zm-10.58-.3a.44.44,0,0,0,.58-.2c.22.13.44.26.66.38a.4.4,0,0,0,.54-.55,8.81,8.81,0,0,0,1,.42c.32.11.5-.16.48-.43.25.19.5.38.76.55a.37.37,0,0,0,.18.07l-6.3,0a.4.4,0,0,0,.07-.6c-.08-.09-.17-.17-.26-.25l.21.11c.27.12.74-.08.59-.45,0-.07-.07-.14-.1-.21A8.91,8.91,0,0,0,9.55,123.41Zm-6.09,0h0a.39.39,0,0,0-.08-.11L3,123a3.37,3.37,0,0,1,.82.23c.43.14.72-.53.31-.73l-.62-.3c.48.2,1,.4,1.43.62a13.52,13.52,0,0,0,1.39.78l.1,0-2.65,0A.39.39,0,0,0,3.47,123.41Zm5.65-3.15a18,18,0,0,0,1.44,1.43c-.89-.55-1.74-1.19-2.64-1.71H9A.41.41,0,0,0,9.11,120.26ZM3.74,117.2c.36.15.7-.42.39-.67-.14-.11-.29-.21-.44-.32.16.08.32.16.48.25a.38.38,0,0,0,.22.06v1.28l-.91-.71Zm.5-2.72a5.5,5.5,0,0,0-.9-.9l.09,0c.31.08.68-.29.46-.59l-.12-.15L4,113a.37.37,0,0,0,.38,0l0,2.6c-.25-.18-.5-.37-.74-.57l.18.08C4.27,115.32,4.45,114.76,4.24,114.49Zm1.11,4.67-.17-.08,0-6.93a1.79,1.79,0,0,0,.69,0,.39.39,0,0,0,.27-.49l12.08.08-.05,7.53Zm-.93-7.26v.43c-.3-.27-.62-.53-.93-.79l.06,0a.38.38,0,0,0,.36,0A5.08,5.08,0,0,0,4.43,111.89Zm-2.14-.41a.4.4,0,0,0-.24.67l.39.43a2.57,2.57,0,0,0-.45,0,.49.49,0,0,0-.27.14v-1.92A5.48,5.48,0,0,0,2.29,111.48Zm-.13,2.18a.4.4,0,0,0-.35.59,5.92,5.92,0,0,0,.44.56.39.39,0,0,0-.41.49,2.23,2.23,0,0,0,.29.55l-.24,0a.4.4,0,0,0-.18.06l0-2.6Zm0,3.42a.47.47,0,0,0,0,.57c.07.08.15.15.22.22-.1,0-.2,0-.31,0a.41.41,0,0,0-.29.68c.54.53,1.13,1,1.71,1.45a3.5,3.5,0,0,0-.81-.14.41.41,0,0,0-.29.68c.11.14.23.26.35.39a.48.48,0,0,0-.14.11c-.31-.1-.63-.2-1-.28l0-4.12C1.86,116.77,2,116.93,2.19,117.08Zm19.34,4.76a.38.38,0,0,0,.15.06v1.82h-.49a.35.35,0,0,0,.14-.41,5.71,5.71,0,0,0-.24-.56.4.4,0,0,0,.39-.59,6.07,6.07,0,0,0-.31-.59C21.28,121.65,21.4,121.75,21.53,121.84Zm-3.29-1.48,0,0a9.66,9.66,0,0,0,1.16,1.3l.16.19c-.56-.51-1.11-1-1.69-1.53a.41.41,0,0,0-.59.05,6.54,6.54,0,0,0-.72-.36h1.54a.31.31,0,0,0,.06.23l.06.08Zm.88-6.46c.53.73,1.22,1.38,1.72,2.14-.34-.29-.64-.61-1-.92a.4.4,0,0,0-.57.56l.33.37a.4.4,0,0,0-.56.52,5.94,5.94,0,0,0,.61.94c-.32-.19-.82.19-.56.53l.06.08h0a21.16,21.16,0,0,1,1.65,2.17c-.54-.48-1.05-1-1.6-1.45a.41.41,0,0,0-.25-.09l0-7a9.86,9.86,0,0,1,2.23,2.83c-.57-.37-1.08-.83-1.62-1.23C19.36,113.12,18.89,113.58,19.13,113.9Zm.46-3.11a10.45,10.45,0,0,1,1.64,1.63c-.62-.46-1.19-1-1.81-1.47h0l-.08-.06a.32.32,0,0,0-.44,0h-.38a.33.33,0,0,0,0-.48l-.24-.2A10.36,10.36,0,0,0,19.58,110.79Zm-1.93.11h-1a.38.38,0,0,0-.06-.47c-.14-.13-.29-.25-.44-.37A16.69,16.69,0,0,0,17.66,110.9Zm4.12-3.62v.81a9,9,0,0,1-1.57-.82Zm-3.68,0A23.39,23.39,0,0,0,20,108.74l-.27-.14a.3.3,0,0,0-.15,0c-.71-.4-1.37-.91-2.07-1.33Zm-2,0a.4.4,0,0,0,.08.18,14,14,0,0,0,2.53,2.15c-1.47-.71-2.81-1.7-4.33-2.33Zm-5.54,0c.23.21.47.41.72.6a6.8,6.8,0,0,0-.85-.24.38.38,0,0,0-.48.35c-.56-.26-1.13-.48-1.71-.72Zm-8.11-.05a.38.38,0,0,0,.06.11.39.39,0,0,0-.28.49.44.44,0,0,0-.05.21.41.41,0,0,0-.26.47,2.05,2.05,0,0,0,.17.57.4.4,0,0,0-.31.24v-2.1Z"/><path class="cls-1" d="M20.15,135.52h1.35l.12.07a.44.44,0,0,0,.47-.06h.3l0-3.45a.38.38,0,0,0,0-.64l0-4.68-2.89,0-.09-.06a.43.43,0,0,0-.6.06h-.7l0,3a.42.42,0,0,0-.42.48l-7.85-.05,0,5.25,9.79.07A.4.4,0,0,0,20.15,135.52ZM14,131a.4.4,0,0,0,.09.33c.59.68,1.22,1.32,1.83,2-1-.67-1.83-1.58-2.79-2.32Zm2.75,3.66h-1a.36.36,0,0,0,0-.37c-.08-.11-.17-.21-.25-.31A6.4,6.4,0,0,0,16.73,134.69Zm-4.16-.58a8,8,0,0,0,1.08.55H11.81c0-.09-.06-.16-.1-.25a2.76,2.76,0,0,0,.46,0A.4.4,0,0,0,12.57,134.12Zm5.23.58a.32.32,0,0,0,0-.37c-.27-.36-.56-.7-.86-1,.6.45,1.18.93,1.75,1.41Zm2.12,0A36.78,36.78,0,0,0,15,131l2.43,0a.44.44,0,0,0-.09.62,17.27,17.27,0,0,0,2.86,3Zm1.68-1.53v1c-.3-.44-.62-.87-.95-1.3a2.68,2.68,0,0,0,.79.29A.45.45,0,0,0,21.6,133.18Zm-1.39.45A19.12,19.12,0,0,1,18,131.1l-.06-.05h.36C18.88,131.93,19.56,132.78,20.21,133.63Zm1.36-4.92.06,0v.33l-1.1-.86C20.88,128.38,21.23,128.54,21.57,128.72Zm-2.48-.12a.39.39,0,0,0-.14-.11v-.38a2.42,2.42,0,0,1,.45.35.38.38,0,0,0,.28.11c.65.45,1.24,1,1.88,1.45l.06,0v.88A14,14,0,0,1,19.1,128.6Zm-.15,1.05A16.17,16.17,0,0,1,20.71,132a14.51,14.51,0,0,1-1.77-1.67ZM11.64,131c.42.5.88,1,1.34,1.42-.42-.35-.84-.7-1.29-1s-.81.31-.49.63l.55.53-.78-.64a.42.42,0,0,0-.31-.11V131Z"/><path class="cls-1" d="M10.61,155.94,16,156a.43.43,0,0,0,.3,0l6,0,0-5.23L9.51,150.7a5.32,5.32,0,0,1-3.13-.88,4.5,4.5,0,0,1-1.59-2.14A10.46,10.46,0,0,1,7,147l15.35-3.17,0-5.29L7.22,141.86a6.72,6.72,0,0,0-1.75.65l-.09,0a.39.39,0,0,0-.5.38l-.25.16a22.8,22.8,0,0,1,1.18-4l.16-.4-4-1.24-.13.35a22.92,22.92,0,0,0-1.57,8A12.18,12.18,0,0,0,1.28,151a8.24,8.24,0,0,0,3.22,3.61,10,10,0,0,0,5.16,1.31h.59A.43.43,0,0,0,10.61,155.94Zm2.45-.79c-.33-.92-1-1.77-1.32-2.69,1,.89,1.9,1.91,2.94,2.7Zm-.52-3.63a.41.41,0,0,0,.09.31c.62.75,1.29,1.45,1.9,2.19-.92-.79-1.79-1.72-2.67-2.5Zm3.82,3.65a10.91,10.91,0,0,0-.65-1,6.45,6.45,0,0,0,1.5.8c.42.15.62-.39.39-.67l-.13-.14,1.32,1Zm-1.42-3.64h1a.38.38,0,0,0,.05.19,6.36,6.36,0,0,0,.51.72A12.81,12.81,0,0,0,14.94,151.53Zm-5.44,0h1.21A9.22,9.22,0,0,0,12,154.65c-1.23-.79-2.29-2.27-3.38-3.21A7.93,7.93,0,0,0,9.5,151.5Zm1.8,3.64h-.63a11.33,11.33,0,0,0-.56-1.08A10.19,10.19,0,0,0,11.3,155.14Zm-5.4-.71a.45.45,0,0,0,0-.15l.08,0a6,6,0,0,0,.58.31.4.4,0,0,0,.49-.63,25.09,25.09,0,0,1-2.16-2.37c1.12.77,1.87,2.15,2.88,3,.3.26.82,0,.67-.4q.5.46,1,.94A9.8,9.8,0,0,1,5.9,154.43Zm13.69.76a.35.35,0,0,0,0-.37c-.12-.18-.25-.35-.39-.52a9.89,9.89,0,0,0,.94.73c.35.24.72-.21.55-.55,0-.1-.11-.18-.16-.27a4.43,4.43,0,0,0,.41.22.44.44,0,0,0,.53-.13v.91Zm1.88-3.06-.83-.56h.84Zm-13.72-.86a.41.41,0,0,0,0,.42c.33.61.71,1.18,1.09,1.75C7.88,152.6,6.93,151.78,6,151a.42.42,0,0,0,.16-.39A5.46,5.46,0,0,0,7.76,151.28ZM9.68,145c.29.14.57.28.86.4l-1,.2a.36.36,0,0,0,0-.1,3.65,3.65,0,0,0-.64-.83Zm-2.34.56a10.42,10.42,0,0,1-3.3-1l.21-.21C5.3,144.74,6.31,145.21,7.34,145.6Zm7.52-1.05a8,8,0,0,0-1.16-.92,9.12,9.12,0,0,0,2.4.66Zm1.75-.36a.46.46,0,0,0,.05-.42l.36.15c.35.13.64-.34.44-.61.39.16.79.31,1.2.45Zm2.58-.53a.35.35,0,0,0,0-.44c-.07-.09-.14-.17-.21-.25a6.25,6.25,0,0,0,1.07.51Zm2.34-.48-.71.15a.41.41,0,0,0,0-.2.44.44,0,0,0,.2-.58v0l.09,0a.37.37,0,0,0,.41-.14Zm-4.67-2.6,2.36-.52a.4.4,0,0,0,.08.16c.23.27.63.6,1,1-.4-.27-.8-.55-1.22-.79a.4.4,0,0,0-.55.55l.06.11-.76-.5a.36.36,0,0,0-.57.25Zm-1.13.25,0,.07c.53.54,1.11,1,1.66,1.55-.86-.36-1.72-.75-2.59-1.09-.32-.13-.53.19-.48.46l-.91-.49Zm-4.41,1,1.08-.24a.43.43,0,0,0,.14.18c.73.57,1.57,1,2.34,1.5C13.67,142.85,12.53,142.22,11.33,141.78Zm-2.67.59,1.85-.41a.4.4,0,0,0,.09.37,15.35,15.35,0,0,0,2.7,2A47.76,47.76,0,0,1,8.66,142.37Zm-2.07.52a6,6,0,0,1,.8-.24l.17,0a.39.39,0,0,0,.17.27c.83.54,1.68,1,2.49,1.58-.51-.25-1-.55-1.46-.75C8.05,143.39,7.32,143.13,6.59,142.88Zm-4.27-4.22c0-.09.06-.19.09-.29l.49.15a.44.44,0,0,0,0,.1,7,7,0,0,0,.68.91,10.52,10.52,0,0,1-.91-.8A.41.41,0,0,0,2.32,138.66Zm-.48,1.5c.08-.29.19-.59.28-.88v0a4.64,4.64,0,0,1,1.08,1.28c-.3-.16-.58-.37-.87-.51A.4.4,0,0,0,1.84,140.17Zm-.6,2.94.05-.36c.3.28.61.56.92.83C1.89,143.42,1.57,143.25,1.24,143.11Zm4.22.34A15.32,15.32,0,0,1,8.09,145c-1-.35-2.09-.84-3.14-1.22C5.11,143.67,5.29,143.56,5.46,143.45Zm-4.37,2,0,0c0-.44,0-.88.07-1.32l.47.43a.45.45,0,0,0-.23.38.35.35,0,0,0,0,.22,2.65,2.65,0,0,0,.44.81Zm2.08.66a5.79,5.79,0,0,1,1.25.88l-.32.15c-.32-.32-.69-.62-1-.93A.42.42,0,0,0,3.17,146.09Zm-1.58,3.54a11.78,11.78,0,0,1-.54-3.23c.44.33.89.66,1.35,1a5.88,5.88,0,0,1,1.2,1.2,7.45,7.45,0,0,1-1.38-.65.4.4,0,0,0-.41.69c.82.62,1.88.92,2.73,1.49-.9-.18-1.79-.42-2.7-.52A.32.32,0,0,0,1.59,149.63Z"/><path class="cls-1" d="M9.1,168.74l6.31,0,.05,0a.37.37,0,0,0,.24,0l6.46,0,.06-9.08-4.29,0,0,3.85-6.53,0-.13-.09a.33.33,0,0,0-.49.09l-3.5,0a3,3,0,0,1-2-.56,2.08,2.08,0,0,1-.59-1.67c0-.3,0-.59,0-.88.34.32.86-.22.54-.59a1.52,1.52,0,0,0-.45-.36c0-.22,0-.45.08-.66l.08-.46-4.17-.09-.07.32c-.16.7-.28,1.35-.35,1.93a15.07,15.07,0,0,0-.12,1.84A6.19,6.19,0,0,0,2,167a6.89,6.89,0,0,0,4.91,1.7H8.27c0,.06.07.12.1.18C8.56,169.3,9.06,169.09,9.1,168.74Zm-6.26-9.5-.29-.17,1.46,0c0,.08,0,.17,0,.25a2.55,2.55,0,0,0-.92-.19A.4.4,0,0,0,2.84,159.24Zm6.91,5.07H11.1a19.14,19.14,0,0,1,3.24,3.16A26.39,26.39,0,0,1,9.76,164.31Zm1.45,2.56a27.62,27.62,0,0,1-3.59-2.58h.84C9.37,165.18,10.32,166,11.21,166.88Zm1.35-2.54h1.84a.4.4,0,0,0,.12.29A15.52,15.52,0,0,0,19,168H17.75a.33.33,0,0,0-.13-.29A47.56,47.56,0,0,0,12.56,164.33Zm1.95,2.15A23.1,23.1,0,0,1,16.7,168h-1Q15.15,167.21,14.51,166.48Zm6.87-.93,0,2.47h-.24s0,0,0,0a6,6,0,0,0-.64-1.31,2.35,2.35,0,0,0,.31.07c.33,0,.46-.36.35-.6a4.15,4.15,0,0,0-.41-.67,2.45,2.45,0,0,0,.36.12A.4.4,0,0,0,21.38,165.55Zm-2.57.22c-.21-.14-.41-.28-.6-.44-.42-.34-.84-.66-1.28-1h.9a.42.42,0,0,0,.09.35C18.21,165.07,18.52,165.42,18.82,165.77Zm1.24-5.23h1.36v.38A7.43,7.43,0,0,1,20.06,160.53Zm1.35,1.87v2.19a4.55,4.55,0,0,0-.43-.72.38.38,0,0,0,.33-.37,1.68,1.68,0,0,0-.36-1.08l.13,0A.37.37,0,0,0,21.4,162.4Zm-2.42.82a.38.38,0,0,0-.27,0v-.54a13.59,13.59,0,0,1,1.52,1.59A10.92,10.92,0,0,0,19,163.23ZM3.88,160.84c0,.14,0,.28,0,.42s0,.24,0,.35l-.19-.17a17.67,17.67,0,0,1-1.29-1.54C2.91,160.21,3.39,160.54,3.88,160.84ZM1.3,159.68l.07.11a4.36,4.36,0,0,0,1.45,1.87q.55.61,1.12,1.2a.36.36,0,0,0,.11.29,32,32,0,0,0,5.61,4.8H8.72a17,17,0,0,0-2.5-2.42c-1.57-1.45-3.1-3-4.53-4.59a.39.39,0,0,0-.58,0c0-.12,0-.25,0-.36C1.19,160.3,1.24,160,1.3,159.68Zm-.14,4.06c0-.21-.07-.42-.09-.65.49.68,1,1.35,1.5,2q-.55-.62-1.1-1.25A.33.33,0,0,0,1.15,163.74Zm.32-1.44a.39.39,0,0,0-.44-.07c0-.27,0-.55,0-.81.56.8,1.15,1.58,1.74,2.36C2.38,163.27,1.95,162.76,1.48,162.3Zm1,4.15a4.42,4.42,0,0,1-.84-1.13c.56.63,1.13,1.23,1.75,1.8A4.56,4.56,0,0,1,2.52,166.45Zm4.36,1.48a9.36,9.36,0,0,1-1.35-.1l-.42-.6a7,7,0,0,0,.68.42.4.4,0,0,0,.49-.63l-1-1.25.08.07c.7.66,1.62,1.32,2.31,2.09Z"/><path class="cls-1" d="M8.14,3.64a.41.41,0,0,0,0,.72v.75l12,.37c.2.07.4.15.61.21a.36.36,0,0,0,.44-.18l1.35,0a4.5,4.5,0,0,0,1.23.19.41.41,0,0,0,.29-.15l2.8.09,0-5.43L8.16.6ZM22.9,1.15l0,0c.42.41,1,.76,1.46,1.16-.68-.38-1.34-.79-2-1.19Zm-2.84.05a.43.43,0,0,0-.09.47l-.81-.45Zm-2.33,0a.39.39,0,0,0,.11.19c1.33,1.32,3.31,2,4.75,3.26a19.15,19.15,0,0,1-2.71-1.57,13,13,0,0,0-3.69-1.77.4.4,0,0,0-.39.67l.07.07c-.45-.29-.9-.55-1.36-.79Zm-6.84.12h.76a.42.42,0,0,0,.13.53c.91.69,1.89,1.3,2.75,2C13.23,3.23,12.13,2.16,10.88,1.36Zm2.49.25c.34.27.69.53,1,.79-.64-.37-1.3-.71-2-1.07h.81A.32.32,0,0,0,13.37,1.61Zm7.2-.43h.35a.36.36,0,0,0,.06.07c.53.44,1.08.84,1.62,1.27C21.92,2.09,21.24,1.64,20.57,1.19ZM9.92,1.38a.4.4,0,0,0,.09.37c.61.71,1.36,1.27,2,1.91A19.82,19.82,0,0,0,10.2,2.57a.43.43,0,0,0-.61.4.4.4,0,0,0-.49.56,4,4,0,0,0,.18.36L8.94,3.8l0-2.4ZM25.55,4.86a.37.37,0,0,0-.11-.55l-.29-.18A.37.37,0,0,0,25.09,4a6.21,6.21,0,0,0-.47-.63c.32.16.64.32,1,.45a.39.39,0,0,0,.47-.24V4.87Z"/><path class="cls-1" d="M5,5A2.83,2.83,0,0,0,5.81,2.9a.39.39,0,0,0,0-.41l0-.06A2.69,2.69,0,0,0,5,.8a2.67,2.67,0,0,0-2-.8,2.64,2.64,0,0,0-2,.77A2.85,2.85,0,0,0,.33,2.85a2.85,2.85,0,0,0,.76,2.09,2.65,2.65,0,0,0,2,.8A2.66,2.66,0,0,0,5,5Zm-.57-.57a1.8,1.8,0,0,1-.65.42.47.47,0,0,0-.13-.26h.06A.39.39,0,0,0,4,4H4a.4.4,0,0,0,.23-.58l.37,0A.35.35,0,0,0,4.9,3L5,3a2,2,0,0,1-.55,1.37ZM1.13,2.86a2.05,2.05,0,0,1,.55-1.52,1.76,1.76,0,0,1,1-.51.38.38,0,0,0,0,.36l-.06,0c-.37-.15-.69.42-.39.67A6.16,6.16,0,0,0,3,2.35c-.41-.17-.81-.38-1.17-.52s-.71.51-.31.73.6.3.9.46c-.24-.08-.49-.16-.72-.26-.49-.19-.68.58-.22.77l.68.27A.43.43,0,0,0,2,4.48l-.1.08a1.83,1.83,0,0,1-.2-.17A2.05,2.05,0,0,1,1.13,2.86Z"/><path class="cls-1" d="M3.73,22.32l11,.07a7.82,7.82,0,0,0,3.95-.93,6.36,6.36,0,0,0,2.58-2.75,9.56,9.56,0,0,0,.9-4.22l0-7.26-4.29,0V8.39a.34.34,0,0,0-.06.57l.05,0,0,5.21a3,3,0,0,1-.75,2.18,2.75,2.75,0,0,1-2.09.74L.48,17.05l0,5.25H2.34a4.61,4.61,0,0,0,1,.22A.34.34,0,0,0,3.73,22.32ZM20.31,8h1v.51A8.45,8.45,0,0,0,20.31,8ZM19,10.17a.36.36,0,0,0-.3-.05V9.69c.37.32.72.64,1.05,1Zm1.65.3c.14.06.28.13.43.18a.36.36,0,0,0,.29,0v.76A8.6,8.6,0,0,0,20.62,10.47Zm-2,2.69v-.67c.39.43.85.78,1.27,1.17A7.11,7.11,0,0,0,18.64,13.16Zm2,.17.14.07a.47.47,0,0,0,.49-.08v.74A4.16,4.16,0,0,0,20.69,13.33Zm-5.78,8.26a.4.4,0,0,0,.31-.39,5.5,5.5,0,0,0,.75.16c.35,0,.47-.39.32-.64a10.48,10.48,0,0,0,1.2.41A7.45,7.45,0,0,1,14.91,21.58Zm3.59-1.07.08,0c-.11.08-.22.16-.34.23l-.21.1a.42.42,0,0,0-.09-.39,7.37,7.37,0,0,0-.6-.6C17.76,20.09,18.15,20.3,18.5,20.51ZM6.93,18.35A6.54,6.54,0,0,0,5.5,18.2a.38.38,0,0,0-.25.11A5.94,5.94,0,0,0,3.63,18l-.24-.1L7,17.9a.36.36,0,0,0,.18.36l.58.32-.2-.06-.32-.17A.4.4,0,0,0,6.93,18.35Zm1.54-.44,3,0a.42.42,0,0,0,.13.14c.56.37,1.16.77,1.79,1.15.41.29.8.59,1.18.92a11.38,11.38,0,0,1-1.15-.59l-.55-.33a16.27,16.27,0,0,0-1.5-.83c-.46-.21-.87.43-.41.69.69.4,1.42.75,2.1,1.18l-.91-.37A17.62,17.62,0,0,0,8.47,17.91Zm4.46,0h.75a.37.37,0,0,0,.14.52c.64.36,1.28.71,1.88,1.12-.62-.3-1.24-.65-1.83-1C13.56,18.35,13.24,18.14,12.93,17.94Zm5.66-3a5.38,5.38,0,0,0,0-.59c.29.32.59.62.91.91Zm2.57.81A15.61,15.61,0,0,0,20,14.57a8.42,8.42,0,0,0,1.07.44.37.37,0,0,0,.22,0c0,.27,0,.54-.07.79A.47.47,0,0,0,21.16,15.7Zm-.91.55.52.12a.43.43,0,0,0,.39-.12,7.65,7.65,0,0,1-.66,2.11c-.08.16-.18.29-.27.43a.32.32,0,0,0-.16-.17.42.42,0,0,0,.27-.58,3.44,3.44,0,0,0-.54-.83,5.34,5.34,0,0,0,.65.14c.35,0,.53-.46.29-.68S20.4,16.39,20.24,16.26Zm-2.54.66a3.07,3.07,0,0,0,.31-.4.39.39,0,0,0,.08.11c.33.33.67.63,1,1A11,11,0,0,1,17.7,16.91Zm-1.42,1.55c.85.09,1.57.42,2.42.48h0l.89.37a.41.41,0,0,0,.25,0,5.68,5.68,0,0,1-.79.84.36.36,0,0,0-.18-.34,20.59,20.59,0,0,0-4.11-1.87H15a4.63,4.63,0,0,0,1-.1A.43.43,0,0,0,16.28,18.47Zm-15-.61h0a.31.31,0,0,0,.29.32l.35.07a.44.44,0,0,0,0,.66,24.54,24.54,0,0,0,2.58,1.42,13.41,13.41,0,0,0-2.83-1.09.43.43,0,0,0-.45.21Zm0,3.65V19.82A.43.43,0,0,0,1.4,20c.51.34,1.06.61,1.57.93l-.75-.26a.42.42,0,0,0-.5.49l-.25.31a.27.27,0,0,0,0,.07Zm5,0a.36.36,0,0,0,.33-.41,10.31,10.31,0,0,0,1,.42Zm4.48,0a.35.35,0,0,0-.1-.45q.5.26,1,.46Z"/><path class="cls-1" d="M22,27.88a.41.41,0,0,0,.06-.61l-.06,0,0-3.06-4.29,0,0,3.52h-.08a.43.43,0,0,0-.36,0L9.48,27.6l0,5.25L22,32.93Zm-3.47-2.19V25a5.08,5.08,0,0,0,.7.88c-.16-.07-.31-.14-.47-.19A.35.35,0,0,0,18.56,25.69Zm1.53-.1c.33.1.66.2,1,.29a.41.41,0,0,0,.16,0v.67C20.84,26.24,20.45,25.93,20.09,25.59Zm-5,2.85a.44.44,0,0,0,.12.25.4.4,0,0,0-.36.3c-.36-.19-.72-.39-1.09-.56ZM18,30.12a.36.36,0,0,0,0-.24,3.61,3.61,0,0,0-1-1,7.14,7.14,0,0,1,1.5.65A7.45,7.45,0,0,1,20,31.23,6.83,6.83,0,0,1,18,30.12Zm2.41-.46c-.64-.41-1.21-1-1.82-1.43v-.34C19.15,28.49,19.82,29,20.37,29.65Zm-10.09-1.1c.44.14.87.3,1.3.48a.37.37,0,0,0,0,.26,4.85,4.85,0,0,0,.53.72c-.29-.12-.58-.25-.87-.36s-.67.4-.39.67l.2.17a3,3,0,0,0-.45,0,.44.44,0,0,0-.37.25Zm0,3.5V31a.38.38,0,0,0,.08.11l.43.37a1.27,1.27,0,0,0,.19.53Zm5.94,0,0,0-.45-.33a3.25,3.25,0,0,0,1.07.2.42.42,0,0,0,.4-.42c.38.21.76.41,1.15.61Zm4.69,0a.41.41,0,0,0,.22-.47,3.19,3.19,0,0,0-.37-.78.39.39,0,0,0,.36,0l.12,0v1.23Z"/><path class="cls-1" d="M21.89,48.4a.39.39,0,0,0,0-.41h0l0-4.45a.42.42,0,0,0,.29-.6,5,5,0,0,0-.28-.44L22,36l-4.29,0-.07,10.09L8.79,46a4.42,4.42,0,0,1-3.37-1.24A5.49,5.49,0,0,1,4.27,41,20.17,20.17,0,0,1,5,36.29l.1-.4L1,35l-.1.37A24.81,24.81,0,0,0,0,41.47,14.76,14.76,0,0,0,.11,43.4a.42.42,0,0,0,0,.34,10.41,10.41,0,0,0,.77,2.7.43.43,0,0,0,.09.33l.23.26a8,8,0,0,0,1.09,1.58c1.58,1.73,4,2.62,7.25,2.64l12.27.08ZM2.77,36.88a3.94,3.94,0,0,1,.85.51.4.4,0,0,0,.26.09l-.08.4C3.44,37.56,3.1,37.23,2.77,36.88ZM1,39.51l-.09,0c0-.18.05-.36.08-.54a6.76,6.76,0,0,1,1.16,1A5.72,5.72,0,0,1,1,39.51Zm2.23.71a2.4,2.4,0,0,0-.67-1c.22.06.45.11.67.15a.48.48,0,0,0,.33-.08A16.16,16.16,0,0,0,3.47,41s0,0,0,.07a3.23,3.23,0,0,0-.42-.38A.42.42,0,0,0,3.25,40.22Zm-2.43.91c0-.26,0-.53,0-.8a11,11,0,0,1,1.81,1.06A15.27,15.27,0,0,1,1,41.13.43.43,0,0,0,.83,41.13Zm2.84,1.65a6.88,6.88,0,0,0-.78-.57c.21,0,.42,0,.64,0h0C3.58,42.42,3.63,42.6,3.67,42.79ZM.83,41.94c.65.39,1.32.71,1.93,1.13-.62,0-1.24,0-1.87,0C.85,42.72.84,42.33.83,41.94Zm4.6,6.89a.41.41,0,0,0,.47-.08l.26.11a.34.34,0,0,0,.19.38l.26.12L6,49.13a17.73,17.73,0,0,1-1.94-.92Zm6.85,1.37a.4.4,0,0,0-.27-.39l-.89-.35a3,3,0,0,0-.15-.36,11.51,11.51,0,0,0,2.34,1.36h-1A.44.44,0,0,0,12.28,50.21Zm.44-1.62c1,.63,1.95,1.33,3,1.9H14.6a.35.35,0,0,0-.09-.4C13.93,49.56,13.32,49.07,12.71,48.59Zm4.58,1.91a.33.33,0,0,0-.08-.13,24.26,24.26,0,0,0-2.48-1.92C15.9,49.07,17,50,18.17,50.5Zm-4.93-3a12,12,0,0,0-1.27-.66l3.72,0a.32.32,0,0,0,0,.3,8.12,8.12,0,0,0,.92,1.06,6.65,6.65,0,0,0-3-1.18A.4.4,0,0,0,12.37,47.47ZM10,47.2a11.29,11.29,0,0,0,.86.87c-.59-.44-1.18-.88-1.8-1.27h.86A.43.43,0,0,0,10,47.2Zm10.25,3.32H18.89a.44.44,0,0,0,0-.53,11.32,11.32,0,0,0-.82-.8A24.1,24.1,0,0,0,20.27,50.52Zm-1.19-1.63c-1.07-.69-2.11-1.42-3.22-2h1.49a.34.34,0,0,0,.06.2l.06.08h0A16.64,16.64,0,0,0,19.08,48.89Zm.41-.82c-.4-.4-.78-.81-1.17-1.21h.09v-.2C18.76,47.14,19.14,47.6,19.49,48.07Zm1.66-8.73v1.17c-.51-.73-1.1-1.39-1.63-2.1A5.63,5.63,0,0,0,21.15,39.34Zm-2.67-1c.16.24.32.48.5.71h0a.45.45,0,0,0-.48.07Zm0,1.35a13.63,13.63,0,0,0,1.92,2.21c-.47-.33-.92-.69-1.41-1a.36.36,0,0,0-.52.11Zm0,4.2,0-2.4,0,0C19,42,19.54,42.55,20,43.14c-.3-.26-.6-.51-.91-.75a.4.4,0,0,0-.59.24,1.88,1.88,0,0,0,.29,1.27A.44.44,0,0,0,18.44,43.85ZM21.08,45h0v.4c-.39-.43-.93-.94-1.33-1.43A12.64,12.64,0,0,0,21.08,45Zm-2.31.85a.34.34,0,0,0-.35,0V44.67c.72.93,1.49,1.81,2.16,2.77C19.93,47,19.33,46.24,18.77,45.84ZM3.83,43.75a.32.32,0,0,0,.08,0,4.67,4.67,0,0,0,.92,1.59,4.19,4.19,0,0,0,1.06.82.42.42,0,0,0-.09.73l.26.18-1.42-.71-.26-.15.07,0a.4.4,0,0,0,.09-.63,2.59,2.59,0,0,0-.46-.33.39.39,0,0,0,0-.68,13,13,0,0,0-1.78-.66A6.42,6.42,0,0,0,3.83,43.75Zm-1.66.88a.34.34,0,0,0-.13.09,4.32,4.32,0,0,0-.8-.13l-.07,0c0-.12-.07-.23-.09-.35C1.44,44.4,1.81,44.51,2.18,44.63Z"/><path class="cls-1" d="M12.59,56.39l-.19-.12a8.15,8.15,0,0,0-1.84-.85,6.41,6.41,0,0,0-1.18-.25h0a.37.37,0,0,0-.34,0c-.39,0-.81-.06-1.28-.06L.22,55l0,5.09,7.93.05a16.88,16.88,0,0,1,3.95.4l.5.13Zm-9-.54a.35.35,0,0,0,.11.26C4.64,57,6,57.81,6.59,59c-1.6-.42-2.73-2.26-4.21-3a.42.42,0,0,0-.59.46q-.38-.28-.77-.54v-.1Zm2.85,0H7.85a.42.42,0,0,0,.09.25c.53.68,1.15,1.28,1.74,1.9A18.86,18.86,0,0,0,6.42,55.86Zm-.72,0a.37.37,0,0,0,0,.53A24.38,24.38,0,0,1,8.32,58.6c-1.3-.43-2.59-1.86-3.66-2.75Zm3.82,3.55a.34.34,0,0,0,.1-.49h0a7.93,7.93,0,0,0,1,.6Q10.11,59.44,9.51,59.41Zm2.28-2.58v1.05q-.19-.23-.39-.44a.41.41,0,0,0,.14-.65l-.18-.18C11.49,56.68,11.65,56.75,11.79,56.83ZM1,57a14.24,14.24,0,0,0,1.71,1.35l.13.14a8,8,0,0,1-1.13-.73c-.4-.29-.74.3-.49.63l.09.17a.38.38,0,0,0-.12.63l.14.12H1Z"/><path class="cls-1" d="M19.65,70.42A9.17,9.17,0,0,0,21.79,64v-.34a.45.45,0,0,0,.2-.45,2.85,2.85,0,0,0-.2-.63l0-7.37-3.23,0L18.26,55a.42.42,0,0,0-.56.18h-.14l-.06,8.49a4.32,4.32,0,0,1-.74,2.68l-.14-.11c-.39-.32-1,.23-.57.56l.12.1a4.39,4.39,0,0,1-2.35.53L.14,67.33l0,5.23,13.5.09A7.85,7.85,0,0,0,19.65,70.42ZM16,68.09a7.53,7.53,0,0,0,.91,1.13c-.7-.3-1.36-.77-2-1h-.07a5.12,5.12,0,0,0,1.14-.27A.35.35,0,0,0,16,68.09Zm-1.36.08a.43.43,0,0,0-.15.67l.38.34a9.76,9.76,0,0,0-2-1h1A7.3,7.3,0,0,0,14.6,68.18Zm-2.25,0a.37.37,0,0,0-.08.61c.23.19.47.37.71.55-.63-.4-1.24-.82-1.89-1.16Zm-3.43,0,0,.08a15.21,15.21,0,0,0,3.53,2.47c-2.32-.68-4.5-1.9-6.85-2.57Zm4.78,3.66h-.09l-2.28,0a.45.45,0,0,0-.15-.23c-.49-.38-1-.73-1.53-1.05A19.18,19.18,0,0,0,13.7,71.85Zm-7.59,0a.43.43,0,0,0,0-.68c-.91-.54-1.87-1-2.79-1.5,1.76.6,3.42,1.58,5.18,2.19ZM2.44,70a4.2,4.2,0,0,0-1.27-.14A.42.42,0,0,0,.93,70V69h0A11.87,11.87,0,0,0,2.44,70ZM5.35,71.8H3.94a.44.44,0,0,0-.08-.17,3.16,3.16,0,0,0-.47-.45A12.76,12.76,0,0,0,5.35,71.8Zm9,0a.37.37,0,0,0,.07-.59,5.64,5.64,0,0,0-.45-.42,5.54,5.54,0,0,0,1.56.53.4.4,0,0,0,.39-.67l-.16-.15a4,4,0,0,0,.93.26.4.4,0,0,0,.41-.64,3.18,3.18,0,0,0,.95.16.41.41,0,0,0,.29-.68L18,69.25a4.07,4.07,0,0,0,.66.17.41.41,0,0,0,.46-.59c0-.09-.1-.16-.15-.24a5.91,5.91,0,0,0,.68.22.41.41,0,0,0,.24,0,6,6,0,0,1-.8,1.07A6.76,6.76,0,0,1,14.31,71.83Zm6.07-4.15c-.08.22-.17.43-.26.63a2.5,2.5,0,0,0-.38-.93ZM21,56v1a8.17,8.17,0,0,0-1.09-1ZM18.5,57.07a.41.41,0,0,0-.15,0V56.2a15.73,15.73,0,0,1,1.81,1.95A13.16,13.16,0,0,0,18.5,57.07ZM21,59.55v.78c-.36-.48-.73-1-1.11-1.42A7.28,7.28,0,0,0,21,59.55Zm-2.69.57v-.9c.49,1.27,1.76,2.05,2.46,3.16C19.94,61.68,19.35,60.63,18.33,60.12ZM21,63.46V64c0,.2,0,.4,0,.6l-.64-.4a.42.42,0,0,0,.06-.45,12.82,12.82,0,0,0-1.15-2A8.48,8.48,0,0,0,21,63.46Zm-1.67,0a.39.39,0,0,0,0,.09c-.23-.14-.46-.28-.7-.41a.41.41,0,0,0-.31,0V61.83C18.65,62.37,19,62.89,19.32,63.44Zm-1.19,1.75a12,12,0,0,0,1,.88l.21.22-.6-.31a.4.4,0,0,0-.55.55c.2.41.56.82.81,1.25a7.37,7.37,0,0,1-1.64-.94A4,4,0,0,0,18.13,65.19ZM16.8,67.41a8.68,8.68,0,0,1,.92.86,10.32,10.32,0,0,1-1.14-.68C16.66,67.54,16.72,67.47,16.8,67.41Zm-13,.74a.31.31,0,0,0,.18.42,42.89,42.89,0,0,1,5.31,2.67c-2.72-.75-5.18-2.6-8-2.91a.34.34,0,0,0-.3.13v-.33ZM.92,70.59s0,0,0,.05c.51.34,1.08.57,1.58.89a.43.43,0,0,0,0,.24H.91Z"/><path class="cls-1" d="M21.68,80l6.08,0,0-5.25-10.36-.07L17.36,85a.46.46,0,0,0,0,.29v.95l-2.6-1.1a4.06,4.06,0,0,0-1.63-1,.39.39,0,0,0-.43.16L.06,78.93l0,3.41a.32.32,0,0,0,0,.24v1.95L18.23,92,21.6,92Zm5.17-2,.12,0v1.21H25.9a.42.42,0,0,0-.15-.48l-.83-.62a7.63,7.63,0,0,0,1.43.58.41.41,0,0,0,.46-.59c-.06-.09-.13-.17-.2-.26Zm-2.53,1.22h-1a.33.33,0,0,0-.09-.11,24.92,24.92,0,0,0-2.06-1.44C22.21,78.16,23.28,78.74,24.32,79.24Zm2.6-2.73H27v.64a12.24,12.24,0,0,1-1.59-1.06A10.06,10.06,0,0,1,26.92,76.51Zm-8.45.29a.34.34,0,0,0-.25,0V75.55l3,0a.41.41,0,0,0,0,.11.42.42,0,0,0,0,.54l-.82-.46c-.42-.25-.74.27-.49.6a10,10,0,0,0-1.07-.3c-.36-.08-.72.38-.39.67l.22.18ZM22.7,76a.42.42,0,0,0-.26-.41l-.07,0h1.57v0c-.27.08-.46.45-.19.66.44.35.88.69,1.29,1.06C24.25,76.92,23.5,76.43,22.7,76Zm-4.5,2.88V77.57l.38.27a.36.36,0,0,0,.11.56,8,8,0,0,1,1,.61l-.62-.14a.4.4,0,0,0-.31.73l0,0a.46.46,0,0,0-.25.41A8.11,8.11,0,0,1,18.2,78.91Zm2.65,2.22h0v1.32s0,0,0,0a2.92,2.92,0,0,0-.56-.71.35.35,0,0,0,.21-.44,2.41,2.41,0,0,0-.13-.3Zm-2.68,2.14V81.19l.35.81a.37.37,0,0,0-.13.62c.34.29.76.55,1.12.85a5.53,5.53,0,0,0-1.19-.24A.33.33,0,0,0,18.17,83.27Zm2-.28h.29a.4.4,0,0,0,.36-.25v1A2.89,2.89,0,0,0,20.2,83Zm-2,1.81V84a10.22,10.22,0,0,0,1.13,1.08C18.92,85,18.55,84.89,18.16,84.81Zm1.44-.49a8,8,0,0,0,.93.25.41.41,0,0,0,.32-.07v1A12.53,12.53,0,0,0,19.6,84.32Zm1.23,1.85,0,3.31a7.19,7.19,0,0,0-1-1,.37.37,0,0,0-.08-.17,3.32,3.32,0,0,0,.5.13c.27,0,.61-.17.5-.49a5,5,0,0,0-1.6-2.08,6.51,6.51,0,0,0,1.45.34A.34.34,0,0,0,20.83,86.17ZM18.15,86a8.39,8.39,0,0,1,1.41,1.34c-.47-.2-.93-.45-1.41-.66ZM1,80.65a.38.38,0,0,0-.17-.08v-.44l2.56,1.08a.41.41,0,0,0-.31.47c-.48-.41-1-.81-1.43-1.19A.42.42,0,0,0,1,80.65ZM.84,82.24v-.51l.66.89C1.29,82.49,1.07,82.37.84,82.24Zm7.74,1.14a.34.34,0,0,0-.1.37q-.67-.51-1.36-1ZM4.7,84.63a5.35,5.35,0,0,0-1-.54l-.61-.77C3.61,83.75,4.16,84.19,4.7,84.63Zm-2.27,0a.41.41,0,0,0-.05-.1c-.19-.24-.37-.49-.54-.74.25.18.5.36.74.55a.32.32,0,0,0,.28.34l.2.06.31.26a.47.47,0,0,0,.13.08Zm8.07-.45,2.62,1.1c.4.48.87.94,1.25,1.44a7,7,0,0,0-1.92-.87C11.81,85.31,11.16,84.71,10.51,84.2Zm.26,2.7a.38.38,0,0,0-.1-.35l-.25-.24a8.06,8.06,0,0,0,.94.63l.82.55a.37.37,0,0,0,0,.09,5.79,5.79,0,0,0,1.09.92C12.44,88,11.59,87.44,10.76,86.89Zm9,2.76c.49.49,1.43,1.34.23,1.05h0a.38.38,0,0,0,0-.43,6.14,6.14,0,0,0-1.12-1.39A10.29,10.29,0,0,1,19.75,89.65Zm-1.29,1.56-2.27-.93a.38.38,0,0,0,0-.28l0-.07.53.23a.37.37,0,0,0,.46-.22l.68.56h0l.08.06a.31.31,0,0,0,.39,0c.31.22.62.43.95.63Z"/></g></g></svg>