<svg xmlns="http://www.w3.org/2000/svg" viewBox="0 0 21.92 13.03"><defs><style>.cls-1{fill:#53b0a1;}</style></defs><title>Asset 34</title><g id="Layer_2" data-name="Layer 2"><g id="instaraction"><path class="cls-1" d="M18.69,11.71c0,.08-.06.17-.19.18s-.23-.31,0-.36.23.06.23.18m.75-.46a1,1,0,0,1-.23.18c-1-.51-2.18-.81-2.72-1.65,0,0,0,0,.09,0a25.55,25.55,0,0,1,2.86,1.5m-4.31-2.9a1.13,1.13,0,0,0,.61.25c1.1.55,2.09,1.2,3.28,1.68.09.26.55.22.61.5-1.29-.47-2.11-1.3-3.75-1.5-.29-.31-.62-.6-.89-.93Zm1.41-.07c.14,0,.17.11.37.07.3.39,1.09.53,1.55.79a2.42,2.42,0,0,1,.89.89c-1.55-.77-3.06-1.58-4.69-2.29a1,1,0,0,0-.33,0,3.53,3.53,0,0,1-.94-.89s0,0,.09,0c1,.55,2.08,1,3,1.5M12.64,5.62a41.32,41.32,0,0,0,4.54,2.22c.08.15.29.21.33.39a5.72,5.72,0,0,1-1-.5c-1.4-.43-2.28-1.26-3.8-1.61-.12-.12-.32-.27-.19-.47a.26.26,0,0,0,.14,0m2,.29c.69.34,1.51.59,1.87,1.18-1.07-.44-2-1-3-1.54-.18-.1-.46-.11-.52-.32.37-.31,1.35.5,1.64.68m.09-.86a13.87,13.87,0,0,0,1.17.89,9.88,9.88,0,0,1-2.3-1.22c.44-.32.69.29,1.13.32M17,5.12A2.73,2.73,0,0,1,16,4.44a1.33,1.33,0,0,1,.94.68m-.84.14c.23,0,.37.17.28.29-.28.06-.43-.18-.61-.29l-1.59-1c.46-.64,1.65.75,1.92,1m-.19-.93c-.4-.16-.82-.3-1-.64a1.33,1.33,0,0,1,1,.64m-.09-1.18c.41.13.51.38.84.64s1.07.57.8.89c-.71-.4-1.32-.87-2-1.32a.32.32,0,0,1,.33-.21m.7-.43a9.75,9.75,0,0,1,1.55,1.4,7,7,0,0,1-1.22-.89,1,1,0,0,1-.61-.43c0-.09.16-.07.28-.07m1,.29c-.35-.26-1-.71-.33-.86.15,0,.24.25.47.36s.17.1.33.29c.28.34,1.09.5.52.86-.16-.17-.61-.37-1-.64m.33-1.36c.4.43,1,.68,1.31,1.22A5,5,0,0,1,17.61,1.8c.12,0,.1-.16.28-.14M18,0a6.49,6.49,0,0,0-1.31,1.32A55.73,55.73,0,0,0,10.86,5.7c0,.17.07.3.09.47s.14.11.28.11a17.53,17.53,0,0,0,2.53,2.47c.89,1.19,2.32,2,3.09,3.26.62.36,1.29.68,1.92,1,.67-.09.84-.59,1.64-.39v-.32a5.43,5.43,0,0,0,.8-.68c.23-.22.69-.47.7-.75s-.84-.95-1.22-1.29a12,12,0,0,0-1.27-1.22c-.59-.81-1.43-1.43-2-2.25A26.24,26.24,0,0,0,20.8,2.76c.07-.22-.06-.34-.09-.57A8,8,0,0,1,18.83.08C18.47.11,18.35,0,18,0"/><path class="cls-1" d="M7.83,11.71c0,.08-.06.17-.19.18s-.23-.31,0-.36.23.06.23.18m.75-.46a1,1,0,0,1-.23.18c-1-.51-2.18-.81-2.72-1.65,0,0,0,0,.09,0a25.55,25.55,0,0,1,2.86,1.5M4.27,8.34a1.13,1.13,0,0,0,.61.25C6,9.15,7,9.79,8.16,10.27c.09.26.55.22.61.5C7.47,10.31,6.66,9.48,5,9.27c-.29-.31-.62-.6-.89-.93Zm1.41-.07c.14,0,.17.11.37.07.3.39,1.09.53,1.55.79a2.42,2.42,0,0,1,.89.89C6.93,9.26,5.43,8.45,3.8,7.73a1,1,0,0,0-.33,0,3.53,3.53,0,0,1-.94-.89s0,0,.09,0c1,.55,2.08,1,3,1.5M1.78,5.62A41.32,41.32,0,0,0,6.33,7.84c.08.15.29.21.33.39a5.72,5.72,0,0,1-1-.5c-1.4-.43-2.28-1.26-3.8-1.61-.12-.12-.32-.27-.19-.47a.26.26,0,0,0,.14,0m2,.29c.69.34,1.51.59,1.87,1.18-1.07-.44-2-1-3-1.54-.18-.1-.46-.11-.52-.32.37-.31,1.35.5,1.64.68m.09-.86A13.87,13.87,0,0,0,5,5.95a9.88,9.88,0,0,1-2.3-1.22c.44-.32.69.29,1.13.32m2.25.07a2.73,2.73,0,0,1-.94-.68,1.33,1.33,0,0,1,.94.68m-.84.14c.23,0,.37.17.28.29-.28.06-.43-.18-.61-.29l-1.59-1c.46-.64,1.65.75,1.92,1m-.19-.93c-.4-.16-.82-.3-1-.64a1.33,1.33,0,0,1,1,.64M5,3.16c.41.13.51.38.84.64s1.07.57.8.89c-.71-.4-1.32-.87-2-1.32A.32.32,0,0,1,5,3.16m.7-.43a9.75,9.75,0,0,1,1.55,1.4A7,7,0,0,1,6,3.23a1,1,0,0,1-.61-.43c0-.09.16-.07.28-.07M6.7,3c-.35-.26-1-.71-.33-.86.15,0,.24.25.47.36s.17.1.33.29c.28.34,1.09.5.52.86-.16-.17-.61-.37-1-.64M7,1.65c.4.43,1,.68,1.31,1.22A5,5,0,0,1,6.75,1.8c.12,0,.1-.16.28-.14M7.12,0A6.49,6.49,0,0,0,5.81,1.33,55.73,55.73,0,0,0,0,5.7c0,.17.07.3.09.47s.14.11.28.11A17.53,17.53,0,0,0,2.91,8.74C3.79,9.93,5.23,10.71,6,12c.62.36,1.29.68,1.92,1,.67-.09.84-.59,1.64-.39v-.32a5.43,5.43,0,0,0,.8-.68c.23-.22.69-.47.7-.75s-.84-.95-1.22-1.29A12,12,0,0,0,8.58,8.38c-.59-.81-1.43-1.43-2-2.25A26.24,26.24,0,0,0,9.94,2.76c.07-.22-.06-.34-.09-.57A8,8,0,0,1,8,.08C7.61.11,7.49,0,7.12,0"/></g></g></svg>