<svg xmlns="http://www.w3.org/2000/svg" viewBox="0 0 260.37 47.47"><defs><style>.cls-1{fill:#52afa0;}</style></defs><title>Asset 1</title><g id="Layer_2" data-name="Layer 2"><g id="art"><path class="cls-1" d="M12.77,1.37c.18.06.28.21.49.23a1.35,1.35,0,0,0,.35-.69A.72.72,0,0,0,13,.68c.1.41-.13.47-.21.69M12.28.21c1.13-.69,2.46.45,2.11,1.31a2,2,0,0,1-1.9.77c-.56-.2-.69-1.52-.21-2.08"/><path class="cls-1" d="M7,1.9c-.55-.32-.51.3,0,0m0-.85a.29.29,0,1,0,.56,0C7.4,1,7.13.9,7,1.05M6.86.13a1.21,1.21,0,0,1,1.48,1c.06.87-1.85,2.11-2.39.92A1.57,1.57,0,0,1,6.86.13"/><path class="cls-1" d="M.94,1.27c0,.55.95.64.92,0-.18-.43-.62-.1-.92,0m-.78.85C-.82-.06,2.94-.1,2.49,1.74c-.16.66-1.69.81-2.32.38"/><path class="cls-1" d="M40.13,1.57c-.13-.17-.24-.36-.56-.31-.13.43.45.62.56.31m-1.41-1c.94-.54,2.34-.77,2.32.62,0,.85-.93,1.28-1.83,1.15-.54-.14-.67-1.11-.49-1.77"/><path class="cls-1" d="M71,1.47c.18.06.28.21.49.23A1.35,1.35,0,0,0,71.88,1a.72.72,0,0,0-.63-.23c.1.41-.13.47-.21.69M70.54.31c1.13-.69,2.46.45,2.11,1.31a2,2,0,0,1-1.9.77c-.56-.2-.69-1.52-.21-2.08"/><path class="cls-1" d="M33.37,1.1h-.28c-.1.46.53.34.28,0m-.7.38a.54.54,0,0,0-.07-.39h-.21c0,.25.08.37.28.39m-1.06.38A1.58,1.58,0,0,1,31.68.71c.42-.85,1.63-.63,2.18-.07.83,1.7-1.47,2.13-2.25,1.23"/><path class="cls-1" d="M65.26,2c-.55-.32-.51.3,0,0m0-.85a.29.29,0,1,0,.56,0c-.16,0-.42-.15-.56,0M65.12.22a1.21,1.21,0,0,1,1.48,1c.06.87-1.85,2.11-2.39.92A1.57,1.57,0,0,1,65.12.22"/><path class="cls-1" d="M45.55,1.89c.17,0,.21.13.42.08.17-.32,0-.83-.42-.77-.14.16-.05.51,0,.69m1.13-.31a.64.64,0,0,0-.56-.93,1.17,1.17,0,0,0,.56.93M45.2,2.66C43.46,1.16,46.74-.91,47.1,1c.21,1.1-.92,1.67-1.9,1.69"/><path class="cls-1" d="M59.21,1.37c0,.55.95.64.92,0-.18-.43-.62-.1-.92,0m-.78.85C57.45,0,61.21,0,60.75,1.84c-.16.66-1.69.81-2.32.38"/><path class="cls-1" d="M26.9,1.7A.81.81,0,0,0,26.4.78c.24.22.06.91.49.93m.63.31c-.48.83-2.08.8-2.25-.16C24.9-.24,27.71-.68,27.53,2"/><path class="cls-1" d="M19.08.53c1.59-.29,1.55,2.22.14,2.16A1.09,1.09,0,0,1,19.08.53"/><path class="cls-1" d="M52.52.74a1.36,1.36,0,0,1,1.55,1.31c-.05.67-1.82,1.48-2.39.61A1.4,1.4,0,0,1,52.52.74"/><path class="cls-1" d="M99.16,1.67c-.13-.17-.24-.36-.56-.31-.13.43.45.62.56.31m-1.41-1c.94-.54,2.34-.77,2.32.62,0,.85-.93,1.28-1.83,1.15-.54-.14-.67-1.11-.49-1.77"/><path class="cls-1" d="M130.07,1.57c.18.06.28.21.49.23a1.34,1.34,0,0,0,.35-.69.72.72,0,0,0-.63-.23c.1.41-.13.47-.21.69M129.58.41c1.13-.69,2.46.45,2.11,1.31a2,2,0,0,1-1.9.77c-.56-.2-.69-1.52-.21-2.08"/><path class="cls-1" d="M92.41,1.2h-.28c-.1.46.53.34.28,0m-.7.38a.54.54,0,0,0-.07-.39h-.21c0,.25.08.37.28.39M90.64,2A1.58,1.58,0,0,1,90.72.81C91.13,0,92.35.18,92.9.73c.83,1.7-1.47,2.13-2.25,1.23"/><path class="cls-1" d="M124.29,2.1c-.55-.32-.51.3,0,0m0-.85a.29.29,0,1,0,.56,0c-.16,0-.42-.15-.56,0m-.14-.93a1.21,1.21,0,0,1,1.48,1c.06.87-1.85,2.11-2.39.92a1.57,1.57,0,0,1,.92-1.93"/><path class="cls-1" d="M104.58,2c.17,0,.21.13.42.08.17-.32,0-.83-.42-.77-.14.16-.05.51,0,.69m1.13-.31a.64.64,0,0,0-.56-.93,1.17,1.17,0,0,0,.56.93m-1.48,1.08c-1.74-1.5,1.55-3.57,1.9-1.69.21,1.1-.92,1.67-1.9,1.69"/><path class="cls-1" d="M118.24,1.47c0,.55.95.64.92,0-.18-.43-.62-.1-.92,0m-.78.85c-1-2.18,2.78-2.23,2.32-.38-.16.66-1.69.81-2.32.38"/><path class="cls-1" d="M85.93,1.8a.81.81,0,0,0-.49-.93c.24.22.06.91.49.93m.63.31c-.48.83-2.08.8-2.25-.16-.37-2.09,2.44-2.54,2.25.16"/><path class="cls-1" d="M78.12.63c1.59-.29,1.55,2.22.14,2.16A1.09,1.09,0,0,1,78.12.63"/><path class="cls-1" d="M111.55.84a1.36,1.36,0,0,1,1.55,1.31c-.05.67-1.82,1.48-2.39.61a1.4,1.4,0,0,1,.85-1.93"/><path class="cls-1" d="M157.43,1.77c-.13-.17-.24-.36-.56-.31-.13.43.45.62.56.31M156,.76c.94-.54,2.34-.77,2.32.62,0,.85-.93,1.28-1.83,1.15-.54-.14-.67-1.11-.49-1.77"/><path class="cls-1" d="M188.33,1.66c.18.06.28.21.49.23a1.35,1.35,0,0,0,.35-.69.72.72,0,0,0-.63-.23c.1.41-.13.47-.21.69M187.84.51C189-.19,190.3,1,190,1.82a2,2,0,0,1-1.9.77c-.56-.2-.69-1.52-.21-2.08"/><path class="cls-1" d="M150.67,1.29h-.28c-.1.46.53.34.28,0m-.7.38a.54.54,0,0,0-.07-.39h-.21c0,.25.08.37.28.39m-1.06.38A1.58,1.58,0,0,1,149,.9c.42-.85,1.63-.63,2.18-.07.83,1.7-1.47,2.13-2.25,1.23"/><path class="cls-1" d="M182.56,2.19c-.55-.32-.51.3,0,0m0-.85a.29.29,0,1,0,.56,0c-.16,0-.42-.15-.56,0m-.14-.93a1.21,1.21,0,0,1,1.48,1c.06.87-1.85,2.11-2.39.92a1.57,1.57,0,0,1,.92-1.93"/><path class="cls-1" d="M162.85,2.08c.17,0,.21.13.42.08.17-.32,0-.83-.42-.77-.14.16-.05.51,0,.69M164,1.78a.64.64,0,0,0-.56-.93,1.17,1.17,0,0,0,.56.93M162.5,2.85c-1.74-1.5,1.55-3.57,1.9-1.69.21,1.1-.92,1.67-1.9,1.69"/><path class="cls-1" d="M176.51,1.57c0,.55.95.64.92,0-.18-.43-.62-.1-.92,0m-.78.85c-1-2.18,2.78-2.23,2.32-.38-.16.66-1.69.81-2.32.38"/><path class="cls-1" d="M144.2,1.9A.81.81,0,0,0,143.7,1c.24.22.06.91.49.93m.63.31c-.48.83-2.08.8-2.25-.16C142.2,0,145-.49,144.83,2.21"/><path class="cls-1" d="M136.38.73c1.59-.29,1.55,2.22.14,2.16a1.09,1.09,0,0,1-.14-2.16"/><path class="cls-1" d="M169.82.94a1.36,1.36,0,0,1,1.55,1.31c-.05.67-1.82,1.48-2.39.61a1.4,1.4,0,0,1,.85-1.93"/><path class="cls-1" d="M214.7,1.86c-.13-.17-.24-.36-.56-.31-.13.43.45.62.56.31m-1.41-1c.94-.54,2.34-.77,2.32.62,0,.85-.93,1.28-1.83,1.15-.54-.14-.67-1.11-.49-1.77"/><path class="cls-1" d="M245.6,1.76c.18.06.28.21.49.23a1.35,1.35,0,0,0,.35-.69.72.72,0,0,0-.63-.23c.1.41-.13.47-.21.69M245.11.6c1.13-.69,2.46.45,2.11,1.31a2,2,0,0,1-1.9.77c-.56-.2-.69-1.52-.21-2.08"/><path class="cls-1" d="M207.94,1.39h-.28c-.1.46.53.34.28,0m-.7.38a.54.54,0,0,0-.07-.39H207c0,.25.08.37.28.39m-1.06.38A1.58,1.58,0,0,1,206.25,1c.42-.85,1.63-.63,2.18-.07.83,1.7-1.47,2.13-2.25,1.23"/><path class="cls-1" d="M239.83,2.29c-.55-.32-.51.3,0,0m0-.85a.29.29,0,1,0,.56,0c-.16,0-.42-.15-.56,0m-.14-.93a1.21,1.21,0,0,1,1.48,1c.06.87-1.85,2.11-2.39.92a1.57,1.57,0,0,1,.92-1.93"/><path class="cls-1" d="M220.12,2.18c.17,0,.21.13.42.08.17-.32,0-.83-.42-.77-.14.16-.05.51,0,.69m1.13-.31a.64.64,0,0,0-.56-.93,1.17,1.17,0,0,0,.56.93m-1.48,1.08c-1.74-1.5,1.55-3.57,1.9-1.69.21,1.1-.92,1.67-1.9,1.69"/><path class="cls-1" d="M233.78,1.66c0,.55.95.64.92,0-.18-.43-.62-.1-.92,0m-.78.85c-1-2.18,2.78-2.23,2.32-.38-.16.66-1.69.81-2.32.38"/><path class="cls-1" d="M201.47,2a.81.81,0,0,0-.49-.93c.24.22.06.91.49.93m.63.31c-.48.83-2.08.8-2.25-.16-.37-2.09,2.44-2.54,2.25.16"/><path class="cls-1" d="M193.65.82c1.59-.29,1.55,2.22.14,2.16a1.09,1.09,0,0,1-.14-2.16"/><path class="cls-1" d="M227.09,1a1.36,1.36,0,0,1,1.55,1.31c-.05.67-1.82,1.48-2.39.61A1.4,1.4,0,0,1,227.09,1"/><path class="cls-1" d="M259.73,2.09a.81.81,0,0,0-.49-.93c.24.22.06.91.49.93m.63.31c-.48.83-2.08.8-2.25-.16-.37-2.09,2.44-2.54,2.25.16"/><path class="cls-1" d="M251.92.92c1.59-.29,1.55,2.22.14,2.16a1.09,1.09,0,0,1-.14-2.16"/><path class="cls-1" d="M12.77,45.5c.18.06.28.21.49.23a1.35,1.35,0,0,0,.35-.69.72.72,0,0,0-.63-.23c.1.41-.13.47-.21.69m-.49-1.16c1.13-.69,2.46.45,2.11,1.31a2,2,0,0,1-1.9.77c-.56-.2-.69-1.52-.21-2.08"/><path class="cls-1" d="M7,46c-.55-.32-.51.3,0,0m0-.85a.29.29,0,1,0,.56,0c-.16,0-.42-.15-.56,0m-.14-.93a1.21,1.21,0,0,1,1.48,1c.06.87-1.85,2.11-2.39.92a1.57,1.57,0,0,1,.92-1.93"/><path class="cls-1" d="M.94,45.4c0,.55.95.64.92,0-.18-.43-.62-.1-.92,0m-.78.85c-1-2.18,2.78-2.23,2.32-.38-.16.66-1.69.81-2.32.38"/><path class="cls-1" d="M40.13,45.7c-.13-.17-.24-.36-.56-.31-.13.43.45.62.56.31m-1.41-1c.94-.54,2.34-.77,2.32.62,0,.85-.93,1.28-1.83,1.15-.54-.14-.67-1.11-.49-1.77"/><path class="cls-1" d="M71,45.6c.18.06.28.21.49.23a1.35,1.35,0,0,0,.35-.69.72.72,0,0,0-.63-.23c.1.41-.13.47-.21.69m-.49-1.16c1.13-.69,2.46.45,2.11,1.31a2,2,0,0,1-1.9.77c-.56-.2-.69-1.52-.21-2.08"/><path class="cls-1" d="M33.37,45.23h-.28c-.1.46.53.34.28,0m-.7.38a.54.54,0,0,0-.07-.39h-.21c0,.25.08.37.28.39M31.61,46a1.58,1.58,0,0,1,.07-1.16c.42-.85,1.63-.63,2.18-.07.83,1.7-1.47,2.13-2.25,1.23"/><path class="cls-1" d="M65.26,46.13c-.55-.32-.51.3,0,0m0-.85a.29.29,0,1,0,.56,0c-.16,0-.42-.15-.56,0m-.14-.93a1.21,1.21,0,0,1,1.48,1c.06.87-1.85,2.11-2.39.92a1.57,1.57,0,0,1,.92-1.93"/><path class="cls-1" d="M45.55,46c.17,0,.21.13.42.08.17-.32,0-.83-.42-.77-.14.16-.05.51,0,.69m1.13-.31a.64.64,0,0,0-.56-.93,1.17,1.17,0,0,0,.56.93M45.2,46.79c-1.74-1.5,1.55-3.57,1.9-1.69.21,1.1-.92,1.67-1.9,1.69"/><path class="cls-1" d="M59.21,45.5c0,.55.95.64.92,0-.18-.43-.62-.1-.92,0m-.78.85c-1-2.18,2.78-2.23,2.32-.38-.16.66-1.69.81-2.32.38"/><path class="cls-1" d="M26.9,45.83a.81.81,0,0,0-.49-.93c.24.22.06.91.49.93m.63.31c-.48.83-2.08.8-2.25-.16-.37-2.09,2.44-2.54,2.25.16"/><path class="cls-1" d="M19.08,44.66c1.59-.29,1.55,2.22.14,2.16a1.09,1.09,0,0,1-.14-2.16"/><path class="cls-1" d="M52.52,44.87a1.36,1.36,0,0,1,1.55,1.31c-.05.67-1.82,1.48-2.39.61a1.4,1.4,0,0,1,.85-1.93"/><path class="cls-1" d="M99.16,45.8c-.13-.17-.24-.36-.56-.31-.13.43.45.62.56.31m-1.41-1c.94-.54,2.34-.77,2.32.62,0,.85-.93,1.28-1.83,1.15-.54-.14-.67-1.11-.49-1.77"/><path class="cls-1" d="M130.07,45.7c.18.06.28.21.49.23a1.34,1.34,0,0,0,.35-.69.72.72,0,0,0-.63-.23c.1.41-.13.47-.21.69m-.49-1.16c1.13-.69,2.46.45,2.11,1.31a2,2,0,0,1-1.9.77c-.56-.2-.69-1.52-.21-2.08"/><path class="cls-1" d="M92.41,45.33h-.28c-.1.46.53.34.28,0m-.7.38a.54.54,0,0,0-.07-.39h-.21c0,.25.08.37.28.39m-1.06.38a1.58,1.58,0,0,1,.07-1.16c.42-.85,1.63-.63,2.18-.07.83,1.7-1.47,2.13-2.25,1.23"/><path class="cls-1" d="M124.29,46.23c-.55-.32-.51.3,0,0m0-.85a.29.29,0,1,0,.56,0c-.16,0-.42-.15-.56,0m-.14-.93a1.21,1.21,0,0,1,1.48,1c.06.87-1.85,2.11-2.39.92a1.57,1.57,0,0,1,.92-1.93"/><path class="cls-1" d="M104.58,46.12c.17,0,.21.13.42.08.17-.32,0-.83-.42-.77-.14.16-.05.51,0,.69m1.13-.31a.64.64,0,0,0-.56-.93,1.17,1.17,0,0,0,.56.93m-1.48,1.08c-1.74-1.5,1.55-3.57,1.9-1.69.21,1.1-.92,1.67-1.9,1.69"/><path class="cls-1" d="M118.24,45.6c0,.55.95.64.92,0-.18-.43-.62-.1-.92,0m-.78.85c-1-2.18,2.78-2.23,2.32-.38-.16.66-1.69.81-2.32.38"/><path class="cls-1" d="M85.93,45.93a.81.81,0,0,0-.49-.93c.24.22.06.91.49.93m.63.31c-.48.83-2.08.8-2.25-.16-.37-2.09,2.44-2.54,2.25.16"/><path class="cls-1" d="M78.12,44.76c1.59-.29,1.55,2.22.14,2.16a1.09,1.09,0,0,1-.14-2.16"/><path class="cls-1" d="M111.55,45a1.36,1.36,0,0,1,1.55,1.31c-.05.67-1.82,1.48-2.39.61a1.4,1.4,0,0,1,.85-1.93"/><path class="cls-1" d="M157.43,45.9c-.13-.17-.24-.36-.56-.31-.13.43.45.62.56.31m-1.41-1c.94-.54,2.34-.77,2.32.62,0,.85-.93,1.28-1.83,1.15-.54-.14-.67-1.11-.49-1.77"/><path class="cls-1" d="M188.33,45.79c.18.06.28.21.49.23a1.35,1.35,0,0,0,.35-.69.72.72,0,0,0-.63-.23c.1.41-.13.47-.21.69m-.49-1.16c1.13-.69,2.46.45,2.11,1.31a2,2,0,0,1-1.9.77c-.56-.2-.69-1.52-.21-2.08"/><path class="cls-1" d="M150.67,45.42h-.28c-.1.46.53.34.28,0m-.7.38a.54.54,0,0,0-.07-.39h-.21c0,.25.08.37.28.39m-1.06.38A1.58,1.58,0,0,1,149,45c.42-.85,1.63-.63,2.18-.07.83,1.7-1.47,2.13-2.25,1.23"/><path class="cls-1" d="M182.56,46.32c-.55-.32-.51.3,0,0m0-.85a.29.29,0,1,0,.56,0c-.16,0-.42-.15-.56,0m-.14-.93a1.21,1.21,0,0,1,1.48,1c.06.87-1.85,2.11-2.39.92a1.57,1.57,0,0,1,.92-1.93"/><path class="cls-1" d="M162.85,46.21c.17,0,.21.13.42.08.17-.32,0-.83-.42-.77-.14.16-.05.51,0,.69m1.13-.31a.64.64,0,0,0-.56-.93,1.17,1.17,0,0,0,.56.93M162.5,47c-1.74-1.5,1.55-3.57,1.9-1.69.21,1.1-.92,1.67-1.9,1.69"/><path class="cls-1" d="M176.51,45.7c0,.55.95.64.92,0-.18-.43-.62-.1-.92,0m-.78.85c-1-2.18,2.78-2.23,2.32-.38-.16.66-1.69.81-2.32.38"/><path class="cls-1" d="M144.2,46a.81.81,0,0,0-.49-.93c.24.22.06.91.49.93m.63.31c-.48.83-2.08.8-2.25-.16-.37-2.09,2.44-2.54,2.25.16"/><path class="cls-1" d="M136.38,44.86c1.59-.29,1.55,2.22.14,2.16a1.09,1.09,0,0,1-.14-2.16"/><path class="cls-1" d="M169.82,45.07a1.36,1.36,0,0,1,1.55,1.31c-.05.67-1.82,1.48-2.39.61a1.4,1.4,0,0,1,.85-1.93"/><path class="cls-1" d="M214.7,46c-.13-.17-.24-.36-.56-.31-.13.43.45.62.56.31m-1.41-1c.94-.54,2.34-.77,2.32.62,0,.85-.93,1.28-1.83,1.15-.54-.14-.67-1.11-.49-1.77"/><path class="cls-1" d="M245.6,45.89c.18.06.28.21.49.23a1.35,1.35,0,0,0,.35-.69.72.72,0,0,0-.63-.23c.1.41-.13.47-.21.69m-.49-1.16c1.13-.69,2.46.45,2.11,1.31a2,2,0,0,1-1.9.77c-.56-.2-.69-1.52-.21-2.08"/><path class="cls-1" d="M207.94,45.52h-.28c-.1.46.53.34.28,0m-.7.38a.54.54,0,0,0-.07-.39H207c0,.25.08.37.28.39m-1.06.38a1.58,1.58,0,0,1,.07-1.16c.42-.85,1.63-.63,2.18-.07.83,1.7-1.47,2.13-2.25,1.23"/><path class="cls-1" d="M239.83,46.42c-.55-.32-.51.3,0,0m0-.85a.29.29,0,1,0,.56,0c-.16,0-.42-.15-.56,0m-.14-.93a1.21,1.21,0,0,1,1.48,1c.06.87-1.85,2.11-2.39.92a1.57,1.57,0,0,1,.92-1.93"/><path class="cls-1" d="M220.12,46.31c.17,0,.21.13.42.08.17-.32,0-.83-.42-.77-.14.16-.05.51,0,.69m1.13-.31a.64.64,0,0,0-.56-.93,1.17,1.17,0,0,0,.56.93m-1.48,1.08c-1.74-1.5,1.55-3.57,1.9-1.69.21,1.1-.92,1.67-1.9,1.69"/><path class="cls-1" d="M233.78,45.79c0,.55.95.64.92,0-.18-.43-.62-.1-.92,0m-.78.85c-1-2.18,2.78-2.23,2.32-.38-.16.66-1.69.81-2.32.38"/><path class="cls-1" d="M201.47,46.12a.81.81,0,0,0-.49-.93c.24.22.06.91.49.93m.63.31c-.48.83-2.08.8-2.25-.16-.37-2.09,2.44-2.54,2.25.16"/><path class="cls-1" d="M193.65,45c1.59-.29,1.55,2.22.14,2.16a1.09,1.09,0,0,1-.14-2.16"/><path class="cls-1" d="M227.09,45.16a1.36,1.36,0,0,1,1.55,1.31c-.05.67-1.82,1.48-2.39.61a1.4,1.4,0,0,1,.85-1.93"/><path class="cls-1" d="M259.73,46.22a.81.81,0,0,0-.49-.93c.24.22.06.91.49.93m.63.31c-.48.83-2.08.8-2.25-.16-.37-2.09,2.44-2.54,2.25.16"/><path class="cls-1" d="M251.92,45.05c1.59-.29,1.55,2.22.14,2.16a1.09,1.09,0,0,1-.14-2.16"/></g></g></svg>