<svg viewBox="0 0 1197.15 71.75" xmlns="http://www.w3.org/2000/svg"><g fill="#4fb3a2"><path d="m800.75 1.37c.18.06.28.21.49.23a1.35 1.35 0 0 0 .35-.69.72.72 0 0 0 -.59-.23c.1.41-.13.47-.21.69m-.54-1.16c1.13-.69 2.46.45 2.11 1.31a2 2 0 0 1 -1.9.77c-.56-.2-.69-1.52-.21-2.08"/><path d="m828.11 1.57c-.13-.17-.24-.36-.56-.31-.13.43.45.62.56.31m-1.41-1c.94-.54 2.34-.77 2.32.62 0 .85-.93 1.28-1.83 1.15-.54-.14-.67-1.11-.49-1.77"/><path d="m859 1.47c.18.06.28.21.49.23a1.35 1.35 0 0 0 .35-.69.72.72 0 0 0 -.63-.23c.1.41-.13.47-.21.69m-.48-1.16c1.13-.69 2.46.45 2.11 1.31a2 2 0 0 1 -1.9.77c-.56-.2-.69-1.52-.21-2.08"/><path d="m821.35 1.1h-.28c-.1.46.53.34.28 0m-.7.38a.54.54 0 0 0 -.07-.39h-.21c0 .25.08.37.28.39m-1.06.38a1.58 1.58 0 0 1 .07-1.16c.42-.85 1.63-.63 2.18-.07.83 1.7-1.47 2.13-2.25 1.23"/><path d="m853.24 2c-.55-.32-.51.3 0 0m0-.85a.29.29 0 1 0 .56 0c-.16 0-.42-.15-.56 0m-.14-.93a1.21 1.21 0 0 1 1.48 1c.06.87-1.85 2.11-2.39.92a1.57 1.57 0 0 1 .91-1.92"/><path d="m833.53 1.89c.17 0 .21.13.42.08.17-.32 0-.83-.42-.77-.14.16-.05.51 0 .69m1.13-.31a.64.64 0 0 0 -.56-.93 1.17 1.17 0 0 0 .56.93m-1.48 1.08c-1.74-1.5 1.55-3.57 1.9-1.69.21 1.1-.92 1.67-1.9 1.69"/><path d="m847.19 1.37c0 .55.95.64.92 0-.18-.43-.62-.1-.92 0m-.78.85c-1-2.18 2.78-2.23 2.32-.38-.16.66-1.69.81-2.32.38"/><path d="m814.87 1.7a.81.81 0 0 0 -.49-.93c.24.22.06.91.49.93m.63.31c-.48.83-2.08.8-2.25-.16-.37-2.09 2.44-2.54 2.25.16"/><path d="m807.06.53c1.59-.29 1.55 2.22.14 2.16a1.09 1.09 0 0 1 -.14-2.16"/><path d="m840.5.74a1.36 1.36 0 0 1 1.5 1.32c-.05.67-1.82 1.48-2.39.61a1.4 1.4 0 0 1 .89-1.93"/><path d="m885.38 1.67c-.13-.17-.24-.36-.56-.31-.13.43.45.62.56.31m-1.38-1.01c.94-.54 2.34-.77 2.32.62 0 .85-.93 1.28-1.83 1.15-.54-.14-.67-1.11-.49-1.77"/><path d="m916.28 1.56c.18.06.28.21.49.23a1.35 1.35 0 0 0 .35-.69.72.72 0 0 0 -.63-.23c.1.41-.13.47-.21.69m-.49-1.15c1.13-.69 2.46.45 2.11 1.31a2 2 0 0 1 -1.9.77c-.56-.2-.69-1.52-.21-2.08"/><path d="m878.62 1.19h-.28c-.1.46.53.34.28 0m-.7.38a.54.54 0 0 0 -.07-.39h-.21c0 .25.08.37.28.39m-1.06.43a1.58 1.58 0 0 1 .07-1.2c.42-.85 1.63-.63 2.18-.07.83 1.7-1.47 2.13-2.25 1.23"/><path d="m910.51 2.09c-.55-.32-.51.3 0 0m0-.85a.29.29 0 1 0 .56 0c-.16 0-.42-.15-.56 0m-.14-.93a1.21 1.21 0 0 1 1.48 1c.06.87-1.85 2.11-2.39.92a1.57 1.57 0 0 1 .92-1.93"/><path d="m890.8 2c.17 0 .21.13.42.08.17-.32 0-.83-.42-.77-.14.16-.05.51 0 .69m1.13-.31a.64.64 0 0 0 -.56-.93 1.17 1.17 0 0 0 .56.93m-1.48 1.08c-1.74-1.5 1.55-3.57 1.9-1.69.21 1.1-.92 1.67-1.9 1.69"/><path d="m904.46 1.47c0 .55.95.64.92 0-.18-.43-.62-.1-.92 0m-.78.85c-1-2.18 2.78-2.23 2.32-.38-.16.66-1.69.81-2.32.38"/><path d="m872.15 1.8a.81.81 0 0 0 -.49-.93c.24.22.06.91.49.93m.63.31c-.48.83-2.08.8-2.25-.16-.37-2.09 2.44-2.54 2.25.16"/><path d="m864.33.63c1.59-.29 1.55 2.22.14 2.16a1.09 1.09 0 0 1 -.14-2.16"/><path d="m897.77.84a1.36 1.36 0 0 1 1.55 1.31c-.05.67-1.82 1.48-2.39.61a1.4 1.4 0 0 1 .85-1.93"/><path d="m943.65 1.76c-.13-.17-.24-.36-.56-.31-.13.43.45.62.56.31m-1.41-1c.94-.54 2.34-.77 2.32.62 0 .85-.93 1.28-1.83 1.15-.54-.14-.67-1.11-.49-1.77"/><path d="m974.55 1.66c.18.06.28.21.49.23a1.35 1.35 0 0 0 .35-.69.72.72 0 0 0 -.63-.23c.1.41-.13.47-.21.69m-.49-1.16c1.13-.69 2.46.45 2.11 1.31a2 2 0 0 1 -1.9.77c-.56-.2-.69-1.52-.21-2.08"/><path d="m936.89 1.29h-.28c-.1.46.53.34.28 0m-.7.38a.54.54 0 0 0 -.07-.39h-.21c0 .25.08.37.28.39m-1.06.38a1.58 1.58 0 0 1 .07-1.15c.42-.85 1.63-.63 2.18-.07.83 1.7-1.47 2.13-2.25 1.23"/><path d="m968.78 2.19c-.55-.32-.51.3 0 0m0-.85a.29.29 0 1 0 .56 0c-.16 0-.42-.15-.56 0m-.14-.93a1.21 1.21 0 0 1 1.48 1c.06.87-1.85 2.11-2.39.92a1.57 1.57 0 0 1 .92-1.93"/><path d="m949.07 2.08c.17 0 .21.13.42.08.17-.32 0-.83-.42-.77-.14.16-.05.51 0 .69m1.13-.31a.64.64 0 0 0 -.56-.93 1.17 1.17 0 0 0 .56.93m-1.48 1.08c-1.74-1.5 1.55-3.57 1.9-1.69.21 1.1-.92 1.67-1.9 1.69"/><path d="m962.72 1.56c0 .55.95.64.92 0-.18-.43-.62-.1-.92 0m-.78.85c-.94-2.18 2.78-2.23 2.33-.41-.16.66-1.69.81-2.32.38"/><path d="m930.41 1.89a.81.81 0 0 0 -.49-.93c.24.22.06.91.49.93m.63.31c-.47.8-2.04.8-2.25-.2-.37-2 2.44-2.49 2.21.2"/><path d="m922.6.73c1.59-.29 1.55 2.22.14 2.16a1.09 1.09 0 0 1 -.14-2.16"/><path d="m956 .94a1.36 1.36 0 0 1 1.55 1.31c-.05.67-1.82 1.48-2.39.61a1.4 1.4 0 0 1 .84-1.92"/><path d="m1002.68 1.86c-.13-.17-.24-.36-.56-.31-.13.43.45.62.56.31m-1.41-1c.94-.54 2.34-.77 2.32.62 0 .85-.93 1.28-1.83 1.15-.54-.14-.67-1.11-.49-1.77"/><path d="m1033.58 1.76c.18.06.28.21.49.23a1.34 1.34 0 0 0 .35-.69.72.72 0 0 0 -.63-.23c.1.41-.13.47-.21.69m-.49-1.16c1.13-.69 2.46.45 2.11 1.31a2 2 0 0 1 -1.9.77c-.56-.2-.69-1.52-.21-2.08"/><path d="m995.92 1.39h-.28c-.1.46.53.34.28 0m-.7.38a.54.54 0 0 0 -.07-.39h-.21c0 .25.08.37.28.39m-1.06.38a1.58 1.58 0 0 1 .07-1.15c.42-.85 1.63-.63 2.18-.07.83 1.7-1.47 2.13-2.25 1.23"/><path d="m1027.81 2.29c-.55-.32-.51.3 0 0m0-.85a.29.29 0 1 0 .56 0c-.16 0-.42-.15-.56 0m-.14-.93a1.21 1.21 0 0 1 1.48 1c.06.87-1.85 2.11-2.39.92a1.57 1.57 0 0 1 .92-1.93"/><path d="m1008.1 2.18c.17 0 .21.13.42.08.17-.32 0-.83-.42-.77-.14.16-.05.51 0 .69m1.13-.31a.64.64 0 0 0 -.56-.93 1.17 1.17 0 0 0 .56.93m-1.48 1.08c-1.74-1.5 1.55-3.57 1.9-1.69.21 1.1-.92 1.67-1.9 1.69"/><path d="m1021.76 1.66c0 .55.95.64.92 0-.18-.43-.62-.1-.92 0m-.78.85c-1-2.18 2.78-2.23 2.32-.38-.16.66-1.69.81-2.32.38"/><path d="m989.45 2a.81.81 0 0 0 -.49-.93c.24.22.06.91.49.93m.63.31c-.48.83-2.08.8-2.25-.16-.37-2.09 2.44-2.54 2.25.16"/><path d="m981.63.82c1.59-.29 1.55 2.22.14 2.16a1.09 1.09 0 0 1 -.14-2.16"/><path d="m1015.07 1a1.36 1.36 0 0 1 1.55 1.31c-.05.67-1.82 1.48-2.39.61a1.4 1.4 0 0 1 .85-1.93"/><path d="m1060.95 2c-.13-.17-.24-.36-.56-.31-.13.43.45.62.56.31m-1.41-1c.94-.54 2.34-.77 2.32.62 0 .85-.93 1.28-1.83 1.15-.54-.14-.67-1.11-.49-1.77"/><path d="m1091.85 1.85c.18.06.28.21.49.23a1.35 1.35 0 0 0 .35-.69.72.72 0 0 0 -.63-.23c.1.41-.13.47-.21.69m-.49-1.15c1.13-.69 2.46.45 2.11 1.31a2 2 0 0 1 -1.9.77c-.56-.2-.69-1.52-.21-2.08"/><path d="m1054.19 1.48h-.28c-.1.46.53.34.28 0m-.7.38a.54.54 0 0 0 -.07-.39h-.21c0 .25.08.37.28.39m-1.06.38a1.58 1.58 0 0 1 .07-1.16c.42-.85 1.63-.63 2.18-.07.83 1.7-1.47 2.13-2.25 1.23"/><path d="m1086.08 2.38c-.55-.32-.51.3 0 0m0-.85a.29.29 0 1 0 .56 0c-.16 0-.42-.15-.56 0m-.14-.93a1.21 1.21 0 0 1 1.48 1c.06.87-1.85 2.11-2.39.92a1.57 1.57 0 0 1 .92-1.93"/><path d="m1066.37 2.27c.17 0 .21.13.42.08.17-.32 0-.83-.42-.77-.14.16-.05.51 0 .69m1.13-.31a.64.64 0 0 0 -.56-.93 1.17 1.17 0 0 0 .56.93m-1.5 1.04c-1.74-1.5 1.55-3.57 1.9-1.69.21 1.1-.92 1.67-1.9 1.69"/><path d="m1080 1.76c0 .55.95.64.92 0-.18-.43-.62-.1-.92 0m-.78.85c-1-2.18 2.78-2.23 2.32-.38-.16.66-1.69.81-2.32.38"/><path d="m1047.71 2.09a.81.81 0 0 0 -.49-.93c.24.22.06.91.49.93m.63.31c-.48.83-2.08.8-2.25-.16-.37-2.09 2.44-2.54 2.25.16"/><path d="m1039.9.92c1.59-.29 1.55 2.22.14 2.16a1.09 1.09 0 0 1 -.14-2.16"/><path d="m1073.34 1.13a1.36 1.36 0 0 1 1.55 1.31c-.05.67-1.82 1.48-2.39.61a1.4 1.4 0 0 1 .85-1.93"/><path d="m1118.22 2.05c-.13-.17-.24-.36-.56-.31-.13.43.45.62.56.31m-1.41-1c.94-.54 2.34-.77 2.32.62 0 .85-.93 1.28-1.83 1.15-.54-.14-.67-1.11-.49-1.77"/><path d="m1149.12 1.95c.18.06.28.21.49.23a1.35 1.35 0 0 0 .35-.69.72.72 0 0 0 -.63-.23c.1.41-.13.47-.21.69m-.49-1.16c1.13-.69 2.46.45 2.11 1.31a2 2 0 0 1 -1.9.77c-.56-.2-.69-1.52-.21-2.08"/><path d="m1111.46 1.58h-.28c-.1.46.53.34.28 0m-.7.38a.54.54 0 0 0 -.07-.39h-.21c0 .25.08.37.28.39m-1.06.38a1.58 1.58 0 0 1 .07-1.16c.42-.85 1.63-.63 2.18-.07.83 1.7-1.47 2.13-2.25 1.23"/><path d="m1143.35 2.48c-.55-.32-.51.3 0 0m0-.85a.29.29 0 1 0 .56 0c-.16 0-.42-.15-.56 0m-.14-.93a1.21 1.21 0 0 1 1.48 1c.06.87-1.85 2.11-2.39.92a1.57 1.57 0 0 1 .92-1.93"/><path d="m1123.64 2.37c.17 0 .21.13.42.08.17-.32 0-.83-.42-.77-.14.16-.05.51 0 .69m1.13-.31a.64.64 0 0 0 -.56-.93 1.17 1.17 0 0 0 .56.93m-1.48 1.08c-1.74-1.5 1.55-3.57 1.9-1.69.21 1.1-.92 1.67-1.9 1.69"/><path d="m1137.29 1.85c0 .55.95.64.92 0-.18-.43-.62-.1-.92 0m-.78.85c-1-2.18 2.78-2.23 2.32-.38-.16.66-1.69.81-2.32.38"/><path d="m1105 2.18a.81.81 0 0 0 -.49-.93c.24.22.06.91.49.93m.63.31c-.48.83-2.08.8-2.25-.16-.37-2.09 2.44-2.54 2.25.16"/><path d="m1097.17 1c1.59-.29 1.55 2.22.14 2.16a1.09 1.09 0 0 1 -.14-2.16"/><path d="m1130.61 1.23a1.36 1.36 0 0 1 1.55 1.31c-.05.67-1.82 1.48-2.39.61a1.4 1.4 0 0 1 .85-1.93"/><path d="m1176.48 2.15c-.13-.17-.24-.36-.56-.31-.13.43.45.62.56.31m-1.41-1c.94-.54 2.34-.77 2.32.62 0 .85-.93 1.28-1.83 1.15-.54-.14-.67-1.11-.49-1.77"/><path d="m1169.73 1.68h-.28c-.1.46.53.34.28 0m-.7.38a.54.54 0 0 0 -.07-.39h-.21c0 .25.08.37.28.39m-1.06.38a1.58 1.58 0 0 1 .07-1.16c.42-.85 1.63-.63 2.18-.07.83 1.7-1.47 2.13-2.25 1.23"/><path d="m1181.9 2.47c.17 0 .21.13.42.08.17-.32 0-.83-.42-.77-.14.16-.05.51 0 .69m1.13-.31a.64.64 0 0 0 -.56-.93 1.17 1.17 0 0 0 .56.93m-1.48 1.08c-1.74-1.5 1.55-3.57 1.9-1.69.21 1.1-.92 1.67-1.9 1.69"/><path d="m1195.56 1.95c0 .55.95.64.92 0-.18-.43-.62-.1-.92 0m-.78.85c-1-2.18 2.78-2.23 2.32-.38-.16.66-1.69.81-2.32.38"/><path d="m1163.25 2.28a.81.81 0 0 0 -.49-.93c.24.22.06.91.49.93m.63.31c-.48.83-2.08.8-2.25-.16-.37-2.09 2.44-2.54 2.25.16"/><path d="m1155.44 1.11c1.59-.29 1.55 2.22.14 2.16a1.09 1.09 0 0 1 -.14-2.16"/><path d="m1188.87 1.32a1.36 1.36 0 0 1 1.55 1.31c-.05.67-1.82 1.48-2.39.61a1.4 1.4 0 0 1 .85-1.93"/><path d="m401.68 1.37c.18.06.28.21.49.23a1.35 1.35 0 0 0 .35-.69.72.72 0 0 0 -.63-.23c.1.41-.13.47-.21.69m-.49-1.16c1.13-.69 2.46.45 2.11 1.31a2 2 0 0 1 -1.9.77c-.56-.2-.69-1.52-.21-2.08"/><path d="m429 1.57c-.13-.17-.24-.36-.56-.31-.13.43.45.62.56.31m-1.41-1c.94-.54 2.34-.77 2.32.62 0 .85-.93 1.28-1.83 1.15-.54-.14-.67-1.11-.49-1.77"/><path d="m459.95 1.47c.18.06.28.21.49.23a1.35 1.35 0 0 0 .35-.69.72.72 0 0 0 -.63-.23c.1.41-.13.47-.21.69m-.49-1.16c1.13-.69 2.46.45 2.11 1.31a2 2 0 0 1 -1.9.77c-.56-.2-.69-1.52-.21-2.08"/><path d="m422.29 1.1h-.29c-.1.46.53.34.28 0m-.7.38a.54.54 0 0 0 -.07-.39h-.21c0 .25.08.37.28.39m-1.06.38a1.58 1.58 0 0 1 .08-1.15c.42-.85 1.63-.63 2.18-.07.83 1.7-1.47 2.13-2.25 1.23"/><path d="m454.17 2c-.55-.32-.51.3 0 0m0-.85a.29.29 0 1 0 .56 0c-.16 0-.42-.15-.56 0m-.17-.93a1.21 1.21 0 0 1 1.48 1c.06.87-1.85 2.11-2.39.92a1.57 1.57 0 0 1 .91-1.92"/><path d="m434.46 1.89c.17 0 .21.13.42.08.17-.32 0-.83-.42-.77-.14.16-.05.51 0 .69m1.13-.31a.64.64 0 0 0 -.59-.92 1.17 1.17 0 0 0 .56.93m-1.48 1.08c-1.71-1.51 1.58-3.58 1.92-1.67.21 1.1-.92 1.67-1.9 1.69"/><path d="m448.12 1.37c0 .55.95.64.92 0-.18-.43-.62-.1-.92 0m-.78.85c-1-2.18 2.78-2.23 2.32-.38-.16.66-1.69.81-2.32.38"/><path d="m415.81 1.7a.81.81 0 0 0 -.49-.93c.24.22.06.91.49.93m.63.31c-.48.83-2.08.8-2.25-.16-.37-2.09 2.44-2.54 2.25.16"/><path d="m408 .53c1.59-.29 1.55 2.22.14 2.16a1.09 1.09 0 0 1 -.14-2.16"/><path d="m441.43.74a1.36 1.36 0 0 1 1.57 1.32c-.05.67-1.82 1.48-2.39.61a1.4 1.4 0 0 1 .85-1.93"/><path d="m486.31 1.67c-.13-.17-.24-.36-.56-.31-.13.43.45.62.56.31m-1.41-1c.94-.54 2.34-.77 2.32.62 0 .85-.93 1.28-1.83 1.15-.54-.14-.67-1.11-.49-1.77"/><path d="m517.22 1.56c.18.06.28.21.49.23a1.35 1.35 0 0 0 .35-.69.72.72 0 0 0 -.63-.23c.1.41-.13.47-.21.69m-.49-1.15c1.13-.69 2.46.45 2.11 1.31a2 2 0 0 1 -1.9.77c-.56-.2-.69-1.52-.21-2.08"/><path d="m479.56 1.19h-.28c-.1.46.53.34.28 0m-.7.38a.54.54 0 0 0 -.07-.39h-.21c0 .25.08.37.28.39m-1.06.43a1.58 1.58 0 0 1 .07-1.2c.42-.85 1.63-.63 2.18-.07.83 1.7-1.47 2.13-2.25 1.23"/><path d="m511.44 2.09c-.55-.32-.51.3 0 0m0-.85a.29.29 0 1 0 .56 0c-.16 0-.42-.15-.56 0m-.14-.93a1.21 1.21 0 0 1 1.48 1c.06.87-1.85 2.11-2.39.92a1.57 1.57 0 0 1 .92-1.93"/><path d="m491.73 2c.17 0 .21.13.42.08.17-.32 0-.83-.42-.77-.14.16-.05.51 0 .69m1.13-.31a.64.64 0 0 0 -.56-.93 1.17 1.17 0 0 0 .56.93m-1.48 1.08c-1.74-1.5 1.55-3.57 1.9-1.69.21 1.1-.92 1.67-1.9 1.69"/><path d="m505.39 1.47c0 .55.95.64.92 0-.18-.43-.62-.1-.92 0m-.78.85c-1-2.18 2.78-2.23 2.32-.38-.16.66-1.69.81-2.32.38"/><path d="m473.08 1.8a.81.81 0 0 0 -.49-.93c.24.22.06.91.49.93m.63.31c-.48.83-2.08.8-2.25-.16-.37-2.09 2.44-2.54 2.25.16"/><path d="m465.27.63c1.59-.29 1.55 2.22.14 2.16a1.09 1.09 0 0 1 -.14-2.16"/><path d="m498.71.84a1.36 1.36 0 0 1 1.55 1.31c-.05.67-1.82 1.48-2.39.61a1.4 1.4 0 0 1 .85-1.93"/><path d="m544.58 1.76c-.13-.17-.24-.36-.56-.31-.13.43.45.62.56.31m-1.41-1c.94-.54 2.34-.77 2.32.62 0 .85-.93 1.28-1.83 1.15-.54-.14-.67-1.11-.49-1.77"/><path d="m575.48 1.66c.18.06.28.21.49.23a1.35 1.35 0 0 0 .35-.69.72.72 0 0 0 -.62-.2c.1.41-.13.47-.21.69m-.49-1.19c1.13-.69 2.46.45 2.11 1.31a2 2 0 0 1 -1.9.77c-.56-.2-.69-1.52-.21-2.08"/><path d="m537.82 1.29h-.28c-.1.46.53.34.28 0m-.7.38a.54.54 0 0 0 -.07-.39h-.21c0 .25.08.37.28.39m-1.06.38a1.58 1.58 0 0 1 .08-1.15c.42-.85 1.63-.63 2.18-.07.83 1.7-1.47 2.13-2.25 1.23"/><path d="m569.71 2.19c-.55-.32-.51.3 0 0m0-.85a.29.29 0 1 0 .56 0c-.16 0-.42-.15-.56 0m-.14-.93a1.21 1.21 0 0 1 1.48 1c.06.87-1.85 2.11-2.39.92a1.57 1.57 0 0 1 .92-1.93"/><path d="m550 2.08c.17 0 .21.13.42.08.17-.32 0-.83-.42-.77-.14.16-.05.51 0 .69m1.13-.31a.64.64 0 0 0 -.56-.93 1.17 1.17 0 0 0 .56.93m-1.48 1.08c-1.74-1.5 1.55-3.57 1.9-1.69.21 1.1-.92 1.67-1.9 1.69"/><path d="m563.66 1.56c0 .55.95.64.92 0-.18-.43-.62-.1-.92 0m-.78.85c-1-2.18 2.78-2.23 2.32-.38-.16.66-1.69.81-2.32.38"/><path d="m531.35 1.89a.81.81 0 0 0 -.49-.93c.24.22.06.91.49.93m.63.31c-.48.83-2.08.8-2.25-.16-.38-2.04 2.43-2.53 2.27.16"/><path d="m523.54.73c1.59-.29 1.55 2.22.14 2.16a1.09 1.09 0 0 1 -.14-2.16"/><path d="m557 .94a1.36 1.36 0 0 1 1.55 1.31c-.05.67-1.82 1.48-2.39.61a1.4 1.4 0 0 1 .84-1.92"/><path d="m603.61 1.86c-.13-.17-.24-.36-.56-.31-.13.43.45.62.56.31m-1.41-1c.94-.54 2.34-.77 2.32.62 0 .85-.93 1.28-1.83 1.15-.54-.14-.67-1.11-.49-1.77"/><path d="m634.52 1.76c.18.06.28.21.49.23a1.34 1.34 0 0 0 .35-.69.72.72 0 0 0 -.63-.23c.1.41-.13.47-.21.69m-.52-1.16c1.13-.69 2.46.45 2.11 1.31a2 2 0 0 1 -1.9.77c-.56-.2-.69-1.52-.21-2.08"/><path d="m596.86 1.39h-.28c-.1.46.53.34.28 0m-.7.38a.54.54 0 0 0 -.07-.39h-.21c0 .25.08.37.28.39m-1.06.38a1.58 1.58 0 0 1 .07-1.15c.42-.85 1.63-.63 2.18-.07.83 1.7-1.47 2.13-2.25 1.23"/><path d="m628.74 2.29c-.55-.32-.51.3 0 0m0-.85a.29.29 0 1 0 .56 0c-.16 0-.42-.15-.56 0m-.14-.93a1.21 1.21 0 0 1 1.48 1c.06.87-1.85 2.11-2.39.92a1.57 1.57 0 0 1 .92-1.93"/><path d="m609 2.18c.17 0 .21.13.42.08.17-.32 0-.83-.42-.77-.14.16-.05.51 0 .69m1.13-.31a.64.64 0 0 0 -.56-.93 1.17 1.17 0 0 0 .56.93m-1.48 1.08c-1.74-1.5 1.55-3.57 1.9-1.69.21 1.1-.92 1.67-1.9 1.69"/><path d="m622.69 1.66c0 .55.95.64.92 0-.18-.43-.62-.1-.92 0m-.78.85c-1-2.18 2.78-2.23 2.32-.38-.16.66-1.69.81-2.32.38"/><path d="m590.38 2a.81.81 0 0 0 -.49-.93c.24.22.06.91.49.93m.63.31c-.48.83-2.08.8-2.25-.16-.37-2.1 2.44-2.54 2.24.15"/><path d="m582.57.82c1.59-.29 1.55 2.22.14 2.16a1.09 1.09 0 0 1 -.14-2.16"/><path d="m616 1a1.36 1.36 0 0 1 1.55 1.31c-.05.67-1.82 1.48-2.39.61a1.4 1.4 0 0 1 .84-1.92"/><path d="m661.88 2c-.13-.17-.24-.36-.56-.31-.13.43.45.62.56.31m-1.41-1c.94-.54 2.34-.77 2.32.62 0 .85-.93 1.28-1.83 1.15-.54-.14-.67-1.11-.49-1.77"/><path d="m692.78 1.85c.18.06.28.21.49.23a1.35 1.35 0 0 0 .35-.69.72.72 0 0 0 -.63-.23c.1.41-.13.47-.21.69m-.49-1.15c1.13-.69 2.46.45 2.11 1.31a2 2 0 0 1 -1.9.77c-.56-.2-.69-1.52-.21-2.08"/><path d="m655.12 1.48h-.28c-.1.46.53.34.28 0m-.7.38a.54.54 0 0 0 -.07-.39h-.21c0 .25.08.37.28.39m-1.06.38a1.58 1.58 0 0 1 .07-1.16c.42-.85 1.63-.63 2.18-.07.83 1.7-1.47 2.13-2.25 1.23"/><path d="m687 2.38c-.55-.32-.51.3 0 0m0-.85a.29.29 0 1 0 .56 0c-.16 0-.42-.15-.56 0m-.14-.93a1.21 1.21 0 0 1 1.48 1c.06.87-1.85 2.11-2.39.92a1.57 1.57 0 0 1 .92-1.93"/><path d="m667.3 2.27c.17 0 .21.13.42.08.17-.32 0-.83-.42-.77-.14.16-.05.51 0 .69m1.13-.27a.64.64 0 0 0 -.56-.93 1.17 1.17 0 0 0 .56.93m-1.48 1c-1.74-1.5 1.55-3.57 1.9-1.69.21 1.1-.92 1.67-1.9 1.69"/><path d="m681 1.76c0 .55.95.64.92 0-.18-.43-.62-.1-.92 0m-.78.85c-1-2.18 2.78-2.23 2.32-.38-.16.66-1.69.81-2.32.38"/><path d="m648.65 2.09a.81.81 0 0 0 -.49-.93c.24.22.06.91.49.93m.63.31c-.48.83-2.08.8-2.25-.16-.37-2.09 2.44-2.54 2.25.16"/><path d="m640.84.92c1.59-.29 1.55 2.22.14 2.16a1.09 1.09 0 0 1 -.14-2.16"/><path d="m674.27 1.13a1.36 1.36 0 0 1 1.55 1.31c-.05.67-1.82 1.48-2.39.61a1.4 1.4 0 0 1 .85-1.93"/><path d="m719.15 2.05c-.13-.17-.24-.36-.56-.31-.13.43.45.62.56.31m-1.41-1c.94-.54 2.34-.77 2.32.62 0 .85-.93 1.28-1.83 1.15-.54-.14-.67-1.11-.49-1.77"/><path d="m750.05 1.95c.18.06.28.21.49.23a1.35 1.35 0 0 0 .35-.69.72.72 0 0 0 -.63-.23c.1.41-.13.47-.21.69m-.49-1.16c1.13-.69 2.46.45 2.11 1.31a2 2 0 0 1 -1.9.77c-.56-.2-.69-1.52-.21-2.08"/><path d="m712.4 1.58h-.28c-.1.46.53.34.28 0m-.7.38a.54.54 0 0 0 -.07-.39h-.21c0 .25.08.37.28.39m-1.06.38a1.58 1.58 0 0 1 .07-1.16c.42-.85 1.63-.63 2.18-.07.83 1.7-1.47 2.13-2.25 1.23"/><path d="m744.28 2.48c-.55-.32-.51.3 0 0m0-.85a.29.29 0 1 0 .56 0c-.16 0-.42-.15-.56 0m-.14-.93a1.21 1.21 0 0 1 1.48 1c.06.87-1.85 2.11-2.39.92a1.57 1.57 0 0 1 .92-1.93"/><path d="m724.57 2.37c.17 0 .21.13.42.08.17-.32 0-.83-.42-.77-.14.16-.05.51 0 .69m1.13-.31a.64.64 0 0 0 -.56-.93 1.17 1.17 0 0 0 .56.93m-1.48 1.08c-1.74-1.5 1.55-3.57 1.9-1.69.21 1.1-.92 1.67-1.9 1.69"/><path d="m738.23 1.85c0 .55.95.64.92 0-.18-.43-.62-.1-.92 0m-.78.85c-1-2.18 2.78-2.23 2.32-.38-.16.66-1.69.81-2.32.38"/><path d="m705.92 2.18a.81.81 0 0 0 -.49-.93c.24.22.06.91.49.93m.63.31c-.48.83-2.08.8-2.25-.16-.37-2.09 2.44-2.54 2.25.16"/><path d="m698.11 1c1.59-.29 1.55 2.22.14 2.16a1.09 1.09 0 0 1 -.14-2.16"/><path d="m731.54 1.23a1.36 1.36 0 0 1 1.55 1.31c-.05.67-1.82 1.48-2.39.61a1.4 1.4 0 0 1 .85-1.93"/><path d="m777.42 2.15c-.13-.17-.24-.36-.56-.31-.13.43.45.62.56.31m-1.41-1c.94-.54 2.34-.77 2.32.62 0 .85-.93 1.28-1.83 1.15-.54-.14-.67-1.11-.49-1.77"/><path d="m770.66 1.68h-.28c-.1.46.53.34.28 0m-.7.38a.54.54 0 0 0 -.07-.39h-.21c0 .25.08.37.28.39m-1.06.38a1.58 1.58 0 0 1 .1-1.15c.42-.85 1.63-.63 2.18-.07.83 1.7-1.47 2.13-2.25 1.23"/><path d="m782.84 2.47c.17 0 .21.13.42.08.17-.32 0-.83-.42-.77-.14.16-.05.51 0 .69m1.16-.31a.64.64 0 0 0 -.56-.93 1.17 1.17 0 0 0 .56.93m-1.48 1.08c-1.74-1.5 1.55-3.57 1.9-1.69.21 1.1-.92 1.67-1.9 1.69"/><path d="m796.5 1.95c0 .55.95.64.92 0-.18-.43-.62-.1-.92 0m-.78.85c-1-2.18 2.78-2.23 2.32-.38-.16.66-1.69.81-2.32.38"/><path d="m764.18 2.28a.81.81 0 0 0 -.49-.93c.24.22.06.91.49.93m.63.31c-.48.83-2.08.8-2.25-.16-.37-2.09 2.44-2.54 2.25.16"/><path d="m756.37 1.11c1.59-.29 1.55 2.22.14 2.16a1.09 1.09 0 0 1 -.14-2.16"/><path d="m789.81 1.32a1.36 1.36 0 0 1 1.55 1.31c-.05.67-1.82 1.48-2.39.61a1.4 1.4 0 0 1 .85-1.93"/><path d="m.79 1.37c.18.06.28.21.49.23a1.35 1.35 0 0 0 .35-.69.72.72 0 0 0 -.63-.23c.1.41-.13.47-.21.69m-.49-1.16c1.13-.69 2.45.45 2.11 1.32a2 2 0 0 1 -1.9.77c-.56-.2-.7-1.53-.21-2.09"/><path d="m28.15 1.57c-.13-.17-.24-.36-.56-.31-.13.43.45.62.56.31m-1.41-1c.94-.54 2.34-.77 2.32.62 0 .85-.93 1.28-1.83 1.15-.54-.14-.67-1.11-.49-1.77"/><path d="m59.06 1.47c.18.06.28.21.49.23a1.35 1.35 0 0 0 .35-.7.72.72 0 0 0 -.63-.23c.1.41-.13.47-.21.69m-.5-1.15c1.13-.69 2.46.45 2.11 1.31a2 2 0 0 1 -1.9.77c-.56-.2-.69-1.52-.21-2.08"/><path d="m21.4 1.1h-.28c-.1.46.53.34.28 0m-.7.38a.54.54 0 0 0 -.07-.39h-.21c0 .25.08.37.28.39m-1.06.38a1.58 1.58 0 0 1 .07-1.15c.42-.85 1.63-.63 2.18-.07.83 1.7-1.47 2.13-2.25 1.23"/><path d="m53.28 2c-.55-.32-.51.3 0 0m0-.85a.29.29 0 1 0 .56 0c-.16 0-.42-.15-.56 0m-.14-.93a1.21 1.21 0 0 1 1.48 1c.06.87-1.85 2.11-2.39.92a1.57 1.57 0 0 1 .91-1.92"/><path d="m33.57 1.89c.17 0 .21.13.42.08.17-.32 0-.83-.42-.77-.14.16-.05.51 0 .69m1.13-.31a.64.64 0 0 0 -.56-.93 1.17 1.17 0 0 0 .56.93m-1.48 1.08c-1.74-1.5 1.54-3.57 1.9-1.66.21 1.1-.92 1.67-1.9 1.69"/><path d="m47.23 1.37c0 .55.95.64.92 0-.18-.43-.62-.1-.92 0m-.78.85c-.98-2.22 2.78-2.22 2.33-.38-.16.66-1.69.81-2.32.38"/><path d="m14.92 1.7a.81.81 0 0 0 -.49-.93c.24.22.06.91.49.93m.63.31c-.48.83-2.08.8-2.25-.16-.37-2.09 2.44-2.53 2.25.15"/><path d="m7.11.53c1.59-.29 1.55 2.22.14 2.16a1.09 1.09 0 0 1 -.14-2.16"/><path d="m40.54.74a1.36 1.36 0 0 1 1.55 1.31c-.05.67-1.82 1.48-2.39.61a1.4 1.4 0 0 1 .84-1.92"/><path d="m85.42 1.67c-.13-.17-.24-.36-.56-.31-.13.43.45.62.56.31m-1.42-1.01c.94-.54 2.34-.77 2.32.62 0 .85-.93 1.28-1.83 1.15-.49-.14-.65-1.1-.49-1.77"/><path d="m116.33 1.56c.18.06.28.21.49.23a1.35 1.35 0 0 0 .35-.69.72.72 0 0 0 -.63-.23c.1.41-.13.47-.21.69m-.49-1.15c1.13-.69 2.46.45 2.11 1.31a2 2 0 0 1 -1.9.77c-.56-.2-.69-1.52-.21-2.08"/><path d="m78.67 1.19h-.28c-.1.46.53.34.28 0m-.7.38a.54.54 0 0 0 -.07-.39h-.21c0 .25.08.37.28.39m-1.07.43a1.58 1.58 0 0 1 .1-1.2c.39-.8 1.61-.62 2.16-.07.84 1.7-1.47 2.14-2.26 1.27"/><path d="m110.55 2.09c-.55-.32-.51.3 0 0m0-.85a.29.29 0 1 0 .56 0c-.16 0-.42-.15-.56 0m-.14-.93a1.21 1.21 0 0 1 1.48 1c.06.87-1.85 2.11-2.39.92a1.57 1.57 0 0 1 .92-1.93"/><path d="m90.84 2c.17 0 .21.13.42.08.17-.32 0-.83-.42-.77-.14.16-.05.51 0 .69m1.16-.32a.64.64 0 0 0 -.56-.93 1.17 1.17 0 0 0 .56.93m-1.51 1.07c-1.74-1.49 1.51-3.56 1.9-1.69.21 1.1-.92 1.67-1.9 1.69"/><path d="m104.5 1.47c0 .55.95.64.92 0-.18-.43-.62-.1-.92 0m-.78.85c-1-2.18 2.78-2.23 2.32-.38-.16.66-1.69.81-2.32.38"/><path d="m72.19 1.8a.81.81 0 0 0 -.49-.93c.24.22.06.91.49.93m.63.31c-.48.83-2.08.8-2.25-.16-.37-2.09 2.43-2.54 2.25.16"/><path d="m64.38.63c1.59-.29 1.55 2.22.14 2.16a1.09 1.09 0 0 1 -.14-2.16"/><path d="m97.81.84a1.36 1.36 0 0 1 1.55 1.31c-.05.67-1.82 1.48-2.39.61a1.4 1.4 0 0 1 .84-1.92"/><path d="m143.69 1.76c-.13-.17-.24-.36-.56-.31-.13.43.45.62.56.31m-1.41-1c.94-.54 2.34-.77 2.32.62 0 .85-.93 1.28-1.83 1.15-.54-.14-.67-1.11-.49-1.77"/><path d="m174.59 1.66c.18.06.28.21.49.23a1.35 1.35 0 0 0 .35-.69.72.72 0 0 0 -.63-.23c.1.41-.13.47-.21.69m-.49-1.16c1.13-.69 2.46.45 2.11 1.31a2 2 0 0 1 -1.9.77c-.56-.2-.69-1.52-.21-2.08"/><path d="m136.93 1.29h-.28c-.1.46.53.34.28 0m-.7.38a.54.54 0 0 0 -.07-.39h-.21c0 .25.08.37.28.39m-1.06.38a1.58 1.58 0 0 1 .07-1.15c.42-.85 1.63-.63 2.18-.07.83 1.7-1.47 2.13-2.25 1.23"/><path d="m168.82 2.19c-.55-.32-.51.3 0 0m0-.85a.29.29 0 1 0 .56 0c-.16 0-.42-.15-.56 0m-.14-.93a1.21 1.21 0 0 1 1.48 1c.06.87-1.85 2.11-2.39.92a1.57 1.57 0 0 1 .92-1.93"/><path d="m149.11 2.08c.17 0 .21.13.42.08.17-.32 0-.83-.42-.77-.14.16-.05.51 0 .69m1.13-.31a.64.64 0 0 0 -.56-.93 1.17 1.17 0 0 0 .56.93m-1.48 1.08c-1.74-1.5 1.55-3.57 1.9-1.69.21 1.1-.92 1.67-1.9 1.69"/><path d="m162.77 1.56c0 .55.95.64.92 0-.18-.43-.62-.1-.92 0m-.78.85c-.99-2.18 2.78-2.23 2.32-.41-.16.66-1.69.81-2.32.38"/><path d="m130.46 1.89a.81.81 0 0 0 -.46-.89c.24.22.06.91.49.93m.63.31c-.51.76-2.12.76-2.28-.24-.37-2.09 2.44-2.54 2.25.16"/><path d="m122.64.73c1.59-.29 1.55 2.22.14 2.16a1.09 1.09 0 0 1 -.14-2.16"/><path d="m156.08.94a1.36 1.36 0 0 1 1.55 1.31c-.05.67-1.82 1.48-2.39.61a1.4 1.4 0 0 1 .85-1.93"/><path d="m202.72 1.86c-.13-.17-.24-.36-.56-.31-.13.43.45.62.56.31m-1.41-1c.94-.54 2.34-.77 2.32.62 0 .85-.93 1.28-1.83 1.15-.54-.14-.67-1.11-.49-1.77"/><path d="m233.63 1.76c.18.06.28.21.49.23a1.34 1.34 0 0 0 .35-.69.72.72 0 0 0 -.63-.23c.1.41-.13.47-.21.69m-.49-1.16c1.13-.69 2.46.45 2.11 1.31a2 2 0 0 1 -1.9.77c-.56-.2-.69-1.52-.21-2.08"/><path d="m196 1.39h-.28c-.1.46.53.34.28 0m-.7.38a.54.54 0 0 0 -.07-.39h-.23c0 .25.08.37.28.39m-1.06.38a1.58 1.58 0 0 1 .06-1.15c.42-.85 1.63-.63 2.18-.07.83 1.7-1.47 2.13-2.25 1.23"/><path d="m227.85 2.29c-.55-.32-.51.3 0 0m0-.85a.29.29 0 1 0 .56 0c-.16 0-.42-.15-.56 0m-.14-.93a1.21 1.21 0 0 1 1.48 1c.06.87-1.85 2.11-2.39.92a1.57 1.57 0 0 1 .92-1.93"/><path d="m208.14 2.18c.17 0 .21.13.42.08.17-.32 0-.83-.42-.77-.14.16-.05.51 0 .69m1.13-.31a.64.64 0 0 0 -.56-.93 1.17 1.17 0 0 0 .56.93m-1.48 1.08c-1.74-1.5 1.55-3.57 1.9-1.69.21 1.1-.92 1.67-1.9 1.69"/><path d="m221.8 1.66c0 .55.95.64.92 0-.18-.43-.62-.1-.92 0m-.78.85c-1-2.18 2.78-2.23 2.32-.38-.16.66-1.69.81-2.32.38"/><path d="m189.49 2a.81.81 0 0 0 -.49-.93c.24.22.06.91.49.93m.63.31c-.48.83-2.08.8-2.25-.16-.37-2.09 2.44-2.54 2.25.16"/><path d="m181.68.82c1.59-.29 1.55 2.22.14 2.16a1.09 1.09 0 0 1 -.14-2.16"/><path d="m215.11 1a1.36 1.36 0 0 1 1.55 1.31c-.05.67-1.82 1.48-2.39.61a1.4 1.4 0 0 1 .84-1.92"/><path d="m261 2c-.13-.17-.24-.36-.56-.31-.13.43.45.62.56.31m-1.41-1c.94-.54 2.34-.77 2.32.62 0 .85-.93 1.28-1.83 1.15-.54-.14-.67-1.11-.49-1.77"/><path d="m291.89 1.85c.18.06.28.21.49.23a1.35 1.35 0 0 0 .35-.69.72.72 0 0 0 -.63-.23c.1.41-.13.47-.21.69m-.49-1.15c1.13-.69 2.46.45 2.11 1.31a2 2 0 0 1 -1.9.77c-.56-.2-.69-1.52-.21-2.08"/><path d="m254.23 1.48h-.23c-.1.46.53.34.28 0m-.7.38a.54.54 0 0 0 -.07-.39h-.21c0 .25.08.37.28.39m-1.06.38a1.58 1.58 0 0 1 .07-1.16c.42-.85 1.63-.63 2.18-.07.83 1.7-1.47 2.13-2.25 1.23"/><path d="m286.12 2.38c-.55-.32-.51.3 0 0m0-.85a.29.29 0 1 0 .56 0c-.16 0-.42-.15-.56 0m-.12-.92a1.21 1.21 0 0 1 1.48 1c.06.87-1.85 2.11-2.39.92a1.57 1.57 0 0 1 .91-1.92"/><path d="m266.41 2.27c.17 0 .21.13.42.08.17-.32 0-.83-.42-.77-.14.16-.05.51 0 .69m1.13-.27a.64.64 0 0 0 -.54-1 1.17 1.17 0 0 0 .56.93m-1.5 1.07c-1.74-1.5 1.55-3.57 1.9-1.69.21 1.1-.92 1.67-1.9 1.69"/><path d="m280.07 1.76c0 .55.95.64.92 0-.18-.43-.62-.1-.92 0m-.78.85c-1-2.18 2.78-2.23 2.32-.38-.16.66-1.69.81-2.32.38"/><path d="m247.76 2.09a.81.81 0 0 0 -.49-.93c.24.22.06.91.49.93m.63.31c-.48.83-2.08.8-2.25-.16-.37-2.09 2.44-2.54 2.25.16"/><path d="m239.94.92c1.59-.29 1.55 2.22.14 2.16a1.09 1.09 0 0 1 -.14-2.16"/><path d="m273.38 1.13a1.36 1.36 0 0 1 1.55 1.31c-.05.67-1.82 1.48-2.39.61a1.4 1.4 0 0 1 .85-1.93"/><path d="m318.26 2.05c-.13-.17-.24-.36-.56-.31-.13.43.45.62.56.31m-1.41-1c.94-.54 2.34-.77 2.32.62 0 .85-.93 1.28-1.83 1.15-.54-.14-.67-1.11-.49-1.77"/><path d="m349.16 1.95c.18.06.28.21.49.23a1.35 1.35 0 0 0 .35-.69.72.72 0 0 0 -.63-.23c.1.41-.13.47-.21.69m-.49-1.16c1.13-.69 2.46.45 2.11 1.31a2 2 0 0 1 -1.9.77c-.56-.2-.69-1.52-.21-2.08"/><path d="m311.5 1.58h-.28c-.1.46.53.34.28 0m-.7.38a.54.54 0 0 0 -.07-.39h-.21c0 .25.08.37.28.39m-1.06.38a1.58 1.58 0 0 1 .07-1.16c.42-.85 1.63-.63 2.18-.07.83 1.7-1.47 2.13-2.25 1.23"/><path d="m343.39 2.48c-.55-.32-.51.3 0 0m0-.85a.29.29 0 1 0 .56 0c-.16 0-.42-.15-.56 0m-.14-.93a1.21 1.21 0 0 1 1.48 1c.06.87-1.85 2.11-2.39.92a1.57 1.57 0 0 1 .92-1.93"/><path d="m323.68 2.37c.17 0 .21.13.42.08.17-.32 0-.83-.42-.77-.14.16-.05.51 0 .69m1.13-.31a.64.64 0 0 0 -.56-.93 1.17 1.17 0 0 0 .56.93m-1.48 1.08c-1.74-1.5 1.55-3.57 1.9-1.69.21 1.1-.92 1.67-1.9 1.69"/><path d="m337.34 1.85c0 .55.95.64.92 0-.18-.43-.62-.1-.92 0m-.78.85c-1-2.18 2.78-2.23 2.32-.38-.16.66-1.69.81-2.32.38"/><path d="m305 2.18a.81.81 0 0 0 -.49-.93c.24.22.06.91.49.93m.63.31c-.48.83-2.08.8-2.25-.16-.37-2.09 2.44-2.54 2.25.16"/><path d="m297.21 1c1.59-.29 1.55 2.22.14 2.16a1.09 1.09 0 0 1 -.14-2.16"/><path d="m330.65 1.23a1.36 1.36 0 0 1 1.55 1.31c-.05.67-1.82 1.48-2.39.61a1.4 1.4 0 0 1 .85-1.93"/><path d="m376.53 2.15c-.13-.17-.24-.36-.56-.31-.13.43.45.62.56.31m-1.41-1c.94-.54 2.34-.77 2.32.62 0 .85-.93 1.28-1.83 1.15-.54-.14-.67-1.11-.49-1.77"/><path d="m369.77 1.68h-.28c-.1.46.53.34.28 0m-.7.38a.54.54 0 0 0 -.07-.39h-.21c0 .25.08.37.28.39m-1.07.38a1.58 1.58 0 0 1 .07-1.16c.42-.85 1.63-.63 2.18-.07.83 1.7-1.47 2.13-2.25 1.23"/><path d="m381.95 2.47c.17 0 .21.13.42.08.17-.32 0-.83-.42-.77-.14.16-.05.51 0 .69m1.13-.31a.64.64 0 0 0 -.56-.93 1.17 1.17 0 0 0 .56.93m-1.48 1.08c-1.74-1.5 1.55-3.57 1.9-1.69.21 1.1-.92 1.67-1.9 1.69"/><path d="m395.6 1.95c0 .55.95.64.92 0-.18-.43-.62-.1-.92 0m-.78.85c-1-2.18 2.78-2.23 2.32-.38-.16.66-1.69.81-2.32.38"/><path d="m363.29 2.28a.81.81 0 0 0 -.49-.93c.24.22.06.91.49.93m.63.31c-.48.83-2.08.8-2.25-.16-.37-2.09 2.44-2.54 2.25.16"/><path d="m355.48 1.11c1.59-.29 1.55 2.22.14 2.16a1.09 1.09 0 0 1 -.14-2.16"/><path d="m388.92 1.32a1.36 1.36 0 0 1 1.55 1.31c-.05.67-1.82 1.48-2.39.61a1.4 1.4 0 0 1 .85-1.93"/><path d="m800.75 69.5c.18.06.28.21.49.23a1.35 1.35 0 0 0 .35-.69.72.72 0 0 0 -.63-.23c.1.41-.13.47-.21.69m-.49-1.16c1.13-.69 2.46.45 2.11 1.31a2 2 0 0 1 -1.9.77c-.56-.2-.69-1.52-.21-2.08"/><path d="m828.11 69.69c-.13-.17-.24-.36-.56-.31-.13.43.45.62.56.31m-1.41-1c.94-.54 2.34-.77 2.32.62 0 .85-.93 1.28-1.83 1.15-.54-.14-.67-1.11-.49-1.77"/><path d="m859 69.59c.18.06.28.21.49.23a1.35 1.35 0 0 0 .35-.69.72.72 0 0 0 -.63-.23c.1.41-.13.47-.21.69m-.49-1.16c1.13-.69 2.46.45 2.11 1.31a2 2 0 0 1 -1.9.77c-.56-.2-.69-1.52-.21-2.08"/><path d="m821.35 69.22h-.28c-.1.46.53.34.28 0m-.7.38a.54.54 0 0 0 -.07-.39h-.21c0 .25.08.37.28.39m-1.06.38a1.58 1.58 0 0 1 .07-1.16c.42-.85 1.63-.63 2.18-.07.83 1.7-1.47 2.13-2.25 1.23"/><path d="m853.24 70.12c-.55-.32-.51.3 0 0m0-.85a.29.29 0 1 0 .56 0c-.16 0-.42-.15-.56 0m-.14-.93a1.21 1.21 0 0 1 1.48 1c.06.87-1.85 2.11-2.39.92a1.57 1.57 0 0 1 .92-1.93"/><path d="m833.53 70c.17 0 .21.13.42.08.17-.32 0-.83-.42-.77-.14.16-.05.51 0 .69m1.13-.31a.64.64 0 0 0 -.56-.93 1.17 1.17 0 0 0 .56.93m-1.48 1.08c-1.74-1.5 1.55-3.57 1.9-1.69.21 1.1-.92 1.67-1.9 1.69"/><path d="m847.19 69.49c0 .55.95.64.92 0-.18-.43-.62-.1-.92 0m-.78.85c-1-2.18 2.78-2.23 2.32-.38-.16.66-1.69.81-2.32.38"/><path d="m814.87 69.83a.81.81 0 0 0 -.49-.93c.24.22.06.91.49.93m.63.31c-.48.83-2.08.8-2.25-.16-.37-2.09 2.44-2.54 2.25.16"/><path d="m807.06 68.66c1.59-.29 1.55 2.22.14 2.16a1.09 1.09 0 0 1 -.14-2.16"/><path d="m840.5 68.87a1.36 1.36 0 0 1 1.5 1.31c-.05.67-1.82 1.48-2.39.61a1.4 1.4 0 0 1 .85-1.93"/><path d="m885.38 69.79c-.13-.17-.24-.36-.56-.31-.13.43.45.62.56.31m-1.41-1c.94-.54 2.34-.77 2.32.62 0 .85-.93 1.28-1.83 1.15-.54-.14-.67-1.11-.49-1.77"/><path d="m916.28 69.69c.18.06.28.21.49.23a1.35 1.35 0 0 0 .35-.69.72.72 0 0 0 -.63-.23c.1.41-.13.47-.21.69m-.49-1.16c1.13-.69 2.46.45 2.11 1.31a2 2 0 0 1 -1.9.77c-.56-.2-.69-1.52-.21-2.08"/><path d="m878.62 69.32h-.28c-.1.46.53.34.28 0m-.7.38a.54.54 0 0 0 -.07-.39h-.21c0 .25.08.37.28.39m-1.06.38a1.58 1.58 0 0 1 .07-1.16c.42-.85 1.63-.63 2.18-.07.83 1.7-1.47 2.13-2.25 1.23"/><path d="m910.51 70.22c-.55-.32-.51.3 0 0m0-.85a.29.29 0 1 0 .56 0c-.16 0-.42-.15-.56 0m-.14-.93a1.21 1.21 0 0 1 1.48 1c.06.87-1.85 2.11-2.39.92a1.57 1.57 0 0 1 .92-1.93"/><path d="m890.8 70.11c.17 0 .21.13.42.08.17-.32 0-.83-.42-.77-.14.16-.05.51 0 .69m1.13-.31a.64.64 0 0 0 -.56-.93 1.17 1.17 0 0 0 .56.93m-1.48 1.08c-1.74-1.5 1.55-3.57 1.9-1.69.21 1.1-.92 1.67-1.9 1.69"/><path d="m904.46 69.59c0 .55.95.64.92 0-.18-.43-.62-.1-.92 0m-.78.85c-1-2.18 2.78-2.23 2.32-.38-.16.66-1.69.81-2.32.38"/><path d="m872.15 69.92a.81.81 0 0 0 -.49-.93c.24.22.06.91.49.93m.63.31c-.48.83-2.08.8-2.25-.16-.37-2.09 2.44-2.54 2.25.16"/><path d="m864.33 68.75c1.59-.29 1.55 2.22.14 2.16a1.09 1.09 0 0 1 -.14-2.16"/><path d="m897.77 69a1.36 1.36 0 0 1 1.55 1.31c-.05.67-1.82 1.48-2.39.61a1.4 1.4 0 0 1 .85-1.93"/><path d="m943.65 69.89c-.13-.17-.24-.36-.56-.31-.13.43.45.62.56.31m-1.41-1c.94-.54 2.34-.77 2.32.62 0 .85-.93 1.28-1.83 1.15-.54-.14-.67-1.11-.49-1.77"/><path d="m974.55 69.78c.18.06.28.21.49.23a1.35 1.35 0 0 0 .35-.69.72.72 0 0 0 -.63-.23c.1.41-.13.47-.21.69m-.49-1.16c1.13-.69 2.46.45 2.11 1.31a2 2 0 0 1 -1.9.77c-.56-.2-.69-1.52-.21-2.08"/><path d="m936.89 69.41h-.28c-.1.46.53.34.28 0m-.7.38a.54.54 0 0 0 -.07-.39h-.21c0 .25.08.37.28.39m-1.06.38a1.58 1.58 0 0 1 .07-1.17c.42-.85 1.63-.63 2.18-.07.83 1.7-1.47 2.13-2.25 1.23"/><path d="m968.78 70.31c-.55-.32-.51.3 0 0m0-.85a.29.29 0 1 0 .56 0c-.16 0-.42-.15-.56 0m-.14-.93a1.21 1.21 0 0 1 1.48 1c.06.87-1.85 2.11-2.39.92a1.57 1.57 0 0 1 .92-1.93"/><path d="m949.07 70.2c.17 0 .21.13.42.08.17-.32 0-.83-.42-.77-.14.16-.05.51 0 .69m1.13-.31a.64.64 0 0 0 -.56-.93 1.17 1.17 0 0 0 .56.93m-1.49 1.11c-1.74-1.5 1.55-3.57 1.9-1.69.21 1.1-.92 1.67-1.9 1.69"/><path d="m962.72 69.69c0 .55.95.64.92 0-.18-.43-.62-.1-.92 0m-.78.85c-1-2.18 2.78-2.23 2.32-.38-.16.66-1.69.81-2.32.38"/><path d="m930.41 70a.81.81 0 0 0 -.49-.93c.24.22.06.91.49.93m.63.31c-.48.83-2.08.8-2.25-.16-.37-2.09 2.44-2.54 2.25.16"/><path d="m922.6 68.85c1.59-.29 1.55 2.22.14 2.16a1.09 1.09 0 0 1 -.14-2.16"/><path d="m956 69.06a1.36 1.36 0 0 1 1.55 1.31c-.05.67-1.82 1.48-2.39.61a1.4 1.4 0 0 1 .85-1.93"/><path d="m1002.68 70c-.13-.17-.24-.36-.56-.31-.13.43.45.62.56.31m-1.41-1c.94-.54 2.34-.77 2.32.62 0 .85-.93 1.28-1.83 1.15-.54-.14-.67-1.11-.49-1.77"/><path d="m1033.58 69.88c.18.06.28.21.49.23a1.34 1.34 0 0 0 .35-.69.72.72 0 0 0 -.63-.23c.1.41-.13.47-.21.69m-.49-1.16c1.13-.69 2.46.45 2.11 1.31a2 2 0 0 1 -1.9.77c-.56-.2-.69-1.52-.21-2.08"/><path d="m995.92 69.51h-.28c-.1.46.53.34.28 0m-.7.38a.54.54 0 0 0 -.07-.39h-.21c0 .25.08.37.28.39m-1.06.38a1.58 1.58 0 0 1 .07-1.16c.42-.85 1.63-.63 2.18-.07.83 1.7-1.47 2.13-2.25 1.23"/><path d="m1027.81 70.41c-.55-.32-.51.3 0 0m0-.85a.29.29 0 1 0 .56 0c-.16 0-.42-.15-.56 0m-.14-.93a1.21 1.21 0 0 1 1.48 1c.06.87-1.85 2.11-2.39.92a1.57 1.57 0 0 1 .92-1.93"/><path d="m1008.1 70.3c.17 0 .21.13.42.08.17-.32 0-.83-.42-.77-.14.16-.05.51 0 .69m1.13-.31a.64.64 0 0 0 -.56-.93 1.17 1.17 0 0 0 .56.93m-1.48 1.08c-1.74-1.5 1.55-3.57 1.9-1.69.21 1.1-.92 1.67-1.9 1.69"/><path d="m1021.76 69.78c0 .55.95.64.92 0-.18-.43-.62-.1-.92 0m-.78.85c-1-2.18 2.78-2.23 2.32-.38-.16.66-1.69.81-2.32.38"/><path d="m989.45 70.12a.81.81 0 0 0 -.49-.93c.24.22.06.91.49.93m.63.31c-.48.83-2.08.8-2.25-.16-.37-2.09 2.44-2.54 2.25.16"/><path d="m981.63 68.95c1.59-.29 1.55 2.22.14 2.16a1.09 1.09 0 0 1 -.14-2.16"/><path d="m1015.07 69.16a1.36 1.36 0 0 1 1.55 1.31c-.05.67-1.82 1.48-2.39.61a1.4 1.4 0 0 1 .85-1.93"/><path d="m1060.95 70.08c-.13-.17-.24-.36-.56-.31-.13.43.45.62.56.31m-1.41-1c.94-.54 2.34-.77 2.32.62 0 .85-.93 1.28-1.83 1.15-.54-.14-.67-1.11-.49-1.77"/><path d="m1091.85 70c.18.06.28.21.49.23a1.35 1.35 0 0 0 .35-.69.72.72 0 0 0 -.63-.23c.1.41-.13.47-.21.69m-.49-1.16c1.13-.69 2.46.45 2.11 1.31a2 2 0 0 1 -1.9.77c-.56-.2-.69-1.52-.21-2.08"/><path d="m1054.19 69.61h-.28c-.1.46.53.34.28 0m-.7.38a.54.54 0 0 0 -.07-.39h-.21c0 .25.08.37.28.39m-1.06.38a1.58 1.58 0 0 1 .07-1.16c.42-.85 1.63-.63 2.18-.07.83 1.7-1.47 2.13-2.25 1.23"/><path d="m1086.08 70.51c-.55-.32-.51.3 0 0m0-.85a.29.29 0 1 0 .56 0c-.16 0-.42-.15-.56 0m-.14-.93a1.21 1.21 0 0 1 1.48 1c.06.87-1.85 2.11-2.39.92a1.57 1.57 0 0 1 .92-1.93"/><path d="m1066.37 70.4c.17 0 .21.13.42.08.17-.32 0-.83-.42-.77-.14.16-.05.51 0 .69m1.13-.31a.64.64 0 0 0 -.56-.93 1.17 1.17 0 0 0 .56.93m-1.5 1.08c-1.74-1.5 1.55-3.57 1.9-1.69.21 1.1-.92 1.67-1.9 1.69"/><path d="m1080 69.88c0 .55.95.64.92 0-.18-.43-.62-.1-.92 0m-.78.85c-1-2.18 2.78-2.23 2.32-.38-.16.66-1.69.81-2.32.38"/><path d="m1047.71 70.21a.81.81 0 0 0 -.49-.93c.24.22.06.91.49.93m.63.31c-.48.83-2.08.8-2.25-.16-.37-2.09 2.44-2.54 2.25.16"/><path d="m1039.9 69c1.59-.29 1.55 2.22.14 2.16a1.09 1.09 0 0 1 -.14-2.16"/><path d="m1073.34 69.25a1.36 1.36 0 0 1 1.55 1.31c-.05.67-1.82 1.48-2.39.61a1.4 1.4 0 0 1 .85-1.93"/><path d="m1118.22 70.18c-.13-.17-.24-.36-.56-.31-.13.43.45.62.56.31m-1.41-1c.94-.54 2.34-.77 2.32.62 0 .85-.93 1.28-1.83 1.15-.54-.14-.67-1.11-.49-1.77"/><path d="m1149.12 70.07c.18.06.28.21.49.23a1.35 1.35 0 0 0 .35-.69.72.72 0 0 0 -.63-.23c.1.41-.13.47-.21.69m-.49-1.16c1.13-.69 2.46.45 2.11 1.31a2 2 0 0 1 -1.9.77c-.56-.2-.69-1.52-.21-2.08"/><path d="m1111.46 69.7h-.28c-.1.46.53.34.28 0m-.7.38a.54.54 0 0 0 -.07-.39h-.21c0 .25.08.37.28.39m-1.06.38a1.58 1.58 0 0 1 .07-1.16c.42-.85 1.63-.63 2.18-.07.83 1.7-1.47 2.13-2.25 1.23"/><path d="m1143.35 70.6c-.55-.32-.51.3 0 0m0-.85a.29.29 0 1 0 .56 0c-.16 0-.42-.15-.56 0m-.14-.93a1.21 1.21 0 0 1 1.48 1c.06.87-1.85 2.11-2.39.92a1.57 1.57 0 0 1 .92-1.93"/><path d="m1123.64 70.49c.17 0 .21.13.42.08.17-.32 0-.83-.42-.77-.14.16-.05.51 0 .69m1.13-.31a.64.64 0 0 0 -.56-.93 1.17 1.17 0 0 0 .56.93m-1.48 1.08c-1.74-1.5 1.55-3.57 1.9-1.69.21 1.1-.92 1.67-1.9 1.69"/><path d="m1137.29 70c0 .55.95.64.92 0-.18-.43-.62-.1-.92 0m-.78.85c-1-2.18 2.78-2.23 2.32-.38-.16.66-1.69.81-2.32.38"/><path d="m1105 70.31a.81.81 0 0 0 -.49-.93c.24.22.06.91.49.93m.63.31c-.48.83-2.08.8-2.25-.16-.37-2.09 2.44-2.54 2.25.16"/><path d="m1097.17 69.14c1.59-.29 1.55 2.22.14 2.16a1.09 1.09 0 0 1 -.14-2.16"/><path d="m1130.61 69.35a1.36 1.36 0 0 1 1.55 1.31c-.05.67-1.82 1.48-2.39.61a1.4 1.4 0 0 1 .85-1.93"/><path d="m1176.48 70.27c-.13-.17-.24-.36-.56-.31-.13.43.45.62.56.31m-1.41-1c.94-.54 2.34-.77 2.32.62 0 .85-.93 1.28-1.83 1.15-.54-.14-.67-1.11-.49-1.77"/><path d="m1169.73 69.8h-.28c-.1.46.53.34.28 0m-.7.38a.54.54 0 0 0 -.07-.39h-.21c0 .25.08.37.28.39m-1.06.38a1.58 1.58 0 0 1 .07-1.16c.42-.85 1.63-.63 2.18-.07.83 1.7-1.47 2.13-2.25 1.23"/><path d="m1181.9 70.59c.17 0 .21.13.42.08.17-.32 0-.83-.42-.77-.14.16-.05.51 0 .69m1.13-.31a.64.64 0 0 0 -.56-.93 1.17 1.17 0 0 0 .56.93m-1.48 1.08c-1.74-1.5 1.55-3.57 1.9-1.69.21 1.1-.92 1.67-1.9 1.69"/><path d="m1195.56 70.07c0 .55.95.64.92 0-.18-.43-.62-.1-.92 0m-.78.85c-1-2.18 2.78-2.23 2.32-.38-.16.66-1.69.81-2.32.38"/><path d="m1163.25 70.41a.81.81 0 0 0 -.49-.93c.24.22.06.91.49.93m.63.31c-.48.83-2.08.8-2.25-.16-.37-2.09 2.44-2.54 2.25.16"/><path d="m1155.44 69.24c1.59-.29 1.55 2.22.14 2.16a1.09 1.09 0 0 1 -.14-2.16"/><path d="m1188.87 69.45a1.36 1.36 0 0 1 1.55 1.31c-.05.67-1.82 1.48-2.39.61a1.4 1.4 0 0 1 .85-1.93"/><path d="m401.68 69.5c.18.06.28.21.49.23a1.35 1.35 0 0 0 .35-.69.72.72 0 0 0 -.63-.23c.1.41-.13.47-.21.69m-.49-1.16c1.13-.69 2.46.45 2.11 1.31a2 2 0 0 1 -1.9.77c-.56-.2-.69-1.52-.21-2.08"/><path d="m429 69.69c-.13-.17-.24-.36-.56-.31-.13.43.45.62.56.31m-1.41-1c.94-.54 2.34-.77 2.32.62 0 .85-.93 1.28-1.83 1.15-.54-.14-.67-1.11-.49-1.77"/><path d="m459.95 69.59c.18.06.28.21.49.23a1.35 1.35 0 0 0 .35-.69.72.72 0 0 0 -.63-.23c.1.41-.13.47-.21.69m-.49-1.16c1.13-.69 2.46.45 2.11 1.31a2 2 0 0 1 -1.9.77c-.56-.2-.69-1.52-.21-2.08"/><path d="m422.29 69.22h-.29c-.1.46.53.34.28 0m-.7.38a.54.54 0 0 0 -.07-.39h-.21c0 .25.08.37.28.39m-1.06.38a1.58 1.58 0 0 1 .07-1.16c.42-.85 1.63-.63 2.18-.07.83 1.7-1.47 2.13-2.25 1.23"/><path d="m454.17 70.12c-.55-.32-.51.3 0 0m0-.85a.29.29 0 1 0 .56 0c-.16 0-.42-.15-.56 0m-.14-.93a1.21 1.21 0 0 1 1.48 1c.06.87-1.85 2.11-2.39.92a1.57 1.57 0 0 1 .92-1.93"/><path d="m434.46 70c.17 0 .21.13.42.08.17-.32 0-.83-.42-.77-.14.16-.05.51 0 .69m1.13-.31a.64.64 0 0 0 -.56-.93 1.17 1.17 0 0 0 .56.93m-1.48 1.08c-1.74-1.5 1.55-3.57 1.9-1.69.21 1.1-.92 1.67-1.9 1.69"/><path d="m448.12 69.49c0 .55.95.64.92 0-.18-.43-.62-.1-.92 0m-.78.85c-1-2.18 2.78-2.23 2.32-.38-.16.66-1.69.81-2.32.38"/><path d="m415.81 69.83a.81.81 0 0 0 -.49-.93c.24.22.06.91.49.93m.63.31c-.48.83-2.08.8-2.25-.16-.37-2.09 2.44-2.54 2.25.16"/><path d="m408 68.66c1.59-.29 1.55 2.22.14 2.16a1.09 1.09 0 0 1 -.14-2.16"/><path d="m441.43 68.87a1.36 1.36 0 0 1 1.57 1.31c-.05.67-1.82 1.48-2.39.61a1.4 1.4 0 0 1 .85-1.93"/><path d="m486.31 69.79c-.13-.17-.24-.36-.56-.31-.13.43.45.62.56.31m-1.41-1c.94-.54 2.34-.77 2.32.62 0 .85-.93 1.28-1.83 1.15-.54-.14-.67-1.11-.49-1.77"/><path d="m517.22 69.69c.18.06.28.21.49.23a1.35 1.35 0 0 0 .35-.69.72.72 0 0 0 -.63-.23c.1.41-.13.47-.21.69m-.49-1.16c1.13-.69 2.46.45 2.11 1.31a2 2 0 0 1 -1.9.77c-.56-.2-.69-1.52-.21-2.08"/><path d="m479.56 69.32h-.28c-.1.46.53.34.28 0m-.7.38a.54.54 0 0 0 -.07-.39h-.21c0 .25.08.37.28.39m-1.06.38a1.58 1.58 0 0 1 .07-1.16c.42-.85 1.63-.63 2.18-.07.83 1.7-1.47 2.13-2.25 1.23"/><path d="m511.44 70.22c-.55-.32-.51.3 0 0m0-.85a.29.29 0 1 0 .56 0c-.16 0-.42-.15-.56 0m-.14-.93a1.21 1.21 0 0 1 1.48 1c.06.87-1.85 2.11-2.39.92a1.57 1.57 0 0 1 .92-1.93"/><path d="m491.73 70.11c.17 0 .21.13.42.08.17-.32 0-.83-.42-.77-.14.16-.05.51 0 .69m1.13-.31a.64.64 0 0 0 -.56-.93 1.17 1.17 0 0 0 .56.93m-1.48 1.08c-1.74-1.5 1.55-3.57 1.9-1.69.21 1.1-.92 1.67-1.9 1.69"/><path d="m505.39 69.59c0 .55.95.64.92 0-.18-.43-.62-.1-.92 0m-.78.85c-1-2.18 2.78-2.23 2.32-.38-.16.66-1.69.81-2.32.38"/><path d="m473.08 69.92a.81.81 0 0 0 -.49-.93c.24.22.06.91.49.93m.63.31c-.48.83-2.08.8-2.25-.16-.37-2.09 2.44-2.54 2.25.16"/><path d="m465.27 68.75c1.59-.29 1.55 2.22.14 2.16a1.09 1.09 0 0 1 -.14-2.16"/><path d="m498.71 69a1.36 1.36 0 0 1 1.55 1.31c-.05.67-1.82 1.48-2.39.61a1.4 1.4 0 0 1 .85-1.93"/><path d="m544.58 69.89c-.13-.17-.24-.36-.56-.31-.13.43.45.62.56.31m-1.41-1c.94-.54 2.34-.77 2.32.62 0 .85-.93 1.28-1.83 1.15-.54-.14-.67-1.11-.49-1.77"/><path d="m575.48 69.78c.18.06.28.21.49.23a1.35 1.35 0 0 0 .35-.69.72.72 0 0 0 -.63-.23c.1.41-.13.47-.21.69m-.48-1.15c1.13-.69 2.46.45 2.11 1.31a2 2 0 0 1 -1.9.77c-.56-.2-.69-1.52-.21-2.08"/><path d="m537.82 69.41h-.28c-.1.46.53.34.28 0m-.7.38a.54.54 0 0 0 -.07-.39h-.21c0 .25.08.37.28.39m-1.06.38a1.58 1.58 0 0 1 .07-1.16c.42-.85 1.63-.63 2.18-.07.83 1.7-1.47 2.13-2.25 1.23"/><path d="m569.71 70.31c-.55-.32-.51.3 0 0m0-.85a.29.29 0 1 0 .56 0c-.16 0-.42-.15-.56 0m-.14-.93a1.21 1.21 0 0 1 1.48 1c.06.87-1.85 2.11-2.39.92a1.57 1.57 0 0 1 .92-1.93"/><path d="m550 70.2c.17 0 .21.13.42.08.17-.32 0-.83-.42-.77-.14.16-.05.51 0 .69m1.13-.31a.64.64 0 0 0 -.56-.93 1.17 1.17 0 0 0 .56.93m-1.48 1.11c-1.74-1.5 1.55-3.57 1.9-1.69.21 1.1-.92 1.67-1.9 1.69"/><path d="m563.66 69.69c0 .55.95.64.92 0-.18-.43-.62-.1-.92 0m-.78.85c-1-2.18 2.78-2.23 2.32-.38-.16.66-1.69.81-2.32.38"/><path d="m531.35 70a.81.81 0 0 0 -.49-.93c.24.22.06.91.49.93m.63.31c-.48.83-2.08.8-2.25-.16-.37-2.09 2.44-2.54 2.25.16"/><path d="m523.54 68.85c1.59-.29 1.55 2.22.14 2.16a1.09 1.09 0 0 1 -.14-2.16"/><path d="m557 69.06a1.36 1.36 0 0 1 1.55 1.31c-.05.67-1.82 1.48-2.39.61a1.4 1.4 0 0 1 .85-1.93"/><path d="m603.61 70c-.13-.17-.24-.36-.56-.31-.13.43.45.62.56.31m-1.41-1c.94-.54 2.34-.77 2.32.62 0 .85-.93 1.28-1.83 1.15-.54-.14-.67-1.11-.49-1.77"/><path d="m634.52 69.88c.18.06.28.21.49.23a1.34 1.34 0 0 0 .35-.69.72.72 0 0 0 -.63-.23c.1.41-.13.47-.21.69m-.52-1.16c1.13-.69 2.46.45 2.11 1.31a2 2 0 0 1 -1.9.77c-.56-.2-.69-1.52-.21-2.08"/><path d="m596.86 69.51h-.28c-.1.46.53.34.28 0m-.7.38a.54.54 0 0 0 -.07-.39h-.21c0 .25.08.37.28.39m-1.06.38a1.58 1.58 0 0 1 .07-1.16c.42-.85 1.63-.63 2.18-.07.83 1.7-1.47 2.13-2.25 1.23"/><path d="m628.74 70.41c-.55-.32-.51.3 0 0m0-.85a.29.29 0 1 0 .56 0c-.16 0-.42-.15-.56 0m-.14-.93a1.21 1.21 0 0 1 1.48 1c.06.87-1.85 2.11-2.39.92a1.57 1.57 0 0 1 .92-1.93"/><path d="m609 70.3c.17 0 .21.13.42.08.17-.32 0-.83-.42-.77-.14.16-.05.51 0 .69m1.13-.31a.64.64 0 0 0 -.56-.93 1.17 1.17 0 0 0 .56.93m-1.48 1.08c-1.74-1.5 1.55-3.57 1.9-1.69.21 1.1-.92 1.67-1.9 1.69"/><path d="m622.69 69.78c0 .55.95.64.92 0-.18-.43-.62-.1-.92 0m-.78.85c-1-2.18 2.78-2.23 2.32-.38-.16.66-1.69.81-2.32.38"/><path d="m590.38 70.12a.81.81 0 0 0 -.49-.93c.24.22.06.91.49.93m.63.31c-.48.83-2.08.8-2.25-.16-.37-2.09 2.44-2.54 2.25.16"/><path d="m582.57 68.95c1.59-.29 1.55 2.22.14 2.16a1.09 1.09 0 0 1 -.14-2.16"/><path d="m616 69.16a1.36 1.36 0 0 1 1.55 1.31c-.05.67-1.82 1.48-2.39.61a1.4 1.4 0 0 1 .85-1.93"/><path d="m661.88 70.08c-.13-.17-.24-.36-.56-.31-.13.43.45.62.56.31m-1.41-1c.94-.54 2.34-.77 2.32.62 0 .85-.93 1.28-1.83 1.15-.54-.14-.67-1.11-.49-1.77"/><path d="m692.78 70c.18.06.28.21.49.23a1.35 1.35 0 0 0 .35-.69.72.72 0 0 0 -.63-.23c.1.41-.13.47-.21.69m-.49-1.16c1.13-.69 2.46.45 2.11 1.31a2 2 0 0 1 -1.9.77c-.56-.2-.69-1.52-.21-2.08"/><path d="m655.12 69.61h-.28c-.1.46.53.34.28 0m-.7.38a.54.54 0 0 0 -.07-.39h-.21c0 .25.08.37.28.39m-1.06.38a1.58 1.58 0 0 1 .07-1.16c.42-.85 1.63-.63 2.18-.07.83 1.7-1.47 2.13-2.25 1.23"/><path d="m687 70.51c-.55-.32-.51.3 0 0m0-.85a.29.29 0 1 0 .56 0c-.16 0-.42-.15-.56 0m-.14-.93a1.21 1.21 0 0 1 1.48 1c.06.87-1.85 2.11-2.39.92a1.57 1.57 0 0 1 .92-1.93"/><path d="m667.3 70.4c.17 0 .21.13.42.08.17-.32 0-.83-.42-.77-.14.16-.05.51 0 .69m1.13-.31a.64.64 0 0 0 -.56-.93 1.17 1.17 0 0 0 .56.93m-1.48 1.08c-1.74-1.5 1.55-3.57 1.9-1.69.21 1.1-.92 1.67-1.9 1.69"/><path d="m681 69.88c0 .55.95.64.92 0-.18-.43-.62-.1-.92 0m-.78.85c-1-2.18 2.78-2.23 2.32-.38-.16.66-1.69.81-2.32.38"/><path d="m648.65 70.21a.81.81 0 0 0 -.49-.93c.24.22.06.91.49.93m.63.31c-.48.83-2.08.8-2.25-.16-.37-2.09 2.44-2.54 2.25.16"/><path d="m640.84 69c1.59-.29 1.55 2.22.14 2.16a1.09 1.09 0 0 1 -.14-2.16"/><path d="m674.27 69.25a1.36 1.36 0 0 1 1.55 1.31c-.05.67-1.82 1.48-2.39.61a1.4 1.4 0 0 1 .85-1.93"/><path d="m719.15 70.18c-.13-.17-.24-.36-.56-.31-.13.43.45.62.56.31m-1.41-1c.94-.54 2.34-.77 2.32.62 0 .85-.93 1.28-1.83 1.15-.54-.14-.67-1.11-.49-1.77"/><path d="m750.05 70.07c.18.06.28.21.49.23a1.35 1.35 0 0 0 .35-.69.72.72 0 0 0 -.63-.23c.1.41-.13.47-.21.69m-.49-1.16c1.13-.69 2.46.45 2.11 1.31a2 2 0 0 1 -1.9.77c-.56-.2-.69-1.52-.21-2.08"/><path d="m712.4 69.7h-.28c-.1.46.53.34.28 0m-.7.38a.54.54 0 0 0 -.07-.39h-.21c0 .25.08.37.28.39m-1.06.38a1.58 1.58 0 0 1 .07-1.16c.42-.85 1.63-.63 2.18-.07.83 1.7-1.47 2.13-2.25 1.23"/><path d="m744.28 70.6c-.55-.32-.51.3 0 0m0-.85a.29.29 0 1 0 .56 0c-.16 0-.42-.15-.56 0m-.14-.93a1.21 1.21 0 0 1 1.48 1c.06.87-1.85 2.11-2.39.92a1.57 1.57 0 0 1 .92-1.93"/><path d="m724.57 70.49c.17 0 .21.13.42.08.17-.32 0-.83-.42-.77-.14.16-.05.51 0 .69m1.13-.31a.64.64 0 0 0 -.56-.93 1.17 1.17 0 0 0 .56.93m-1.48 1.08c-1.74-1.5 1.55-3.57 1.9-1.69.21 1.1-.92 1.67-1.9 1.69"/><path d="m738.23 70c0 .55.95.64.92 0-.18-.43-.62-.1-.92 0m-.78.85c-1-2.18 2.78-2.23 2.32-.38-.16.66-1.69.81-2.32.38"/><path d="m705.92 70.31a.81.81 0 0 0 -.49-.93c.24.22.06.91.49.93m.63.31c-.48.83-2.08.8-2.25-.16-.37-2.09 2.44-2.54 2.25.16"/><path d="m698.11 69.14c1.59-.29 1.55 2.22.14 2.16a1.09 1.09 0 0 1 -.14-2.16"/><path d="m731.54 69.35a1.36 1.36 0 0 1 1.55 1.31c-.05.67-1.82 1.48-2.39.61a1.4 1.4 0 0 1 .85-1.93"/><path d="m777.42 70.27c-.13-.17-.24-.36-.56-.31-.13.43.45.62.56.31m-1.41-1c.94-.54 2.34-.77 2.32.62 0 .85-.93 1.28-1.83 1.15-.54-.14-.67-1.11-.49-1.77"/><path d="m770.66 69.8h-.28c-.1.46.53.34.28 0m-.7.38a.54.54 0 0 0 -.07-.39h-.21c0 .25.08.37.28.39m-1.06.38a1.58 1.58 0 0 1 .07-1.16c.42-.85 1.63-.63 2.18-.07.83 1.7-1.47 2.13-2.25 1.23"/><path d="m782.84 70.59c.17 0 .21.13.42.08.17-.32 0-.83-.42-.77-.14.16-.05.51 0 .69m1.13-.31a.64.64 0 0 0 -.56-.93 1.17 1.17 0 0 0 .56.93m-1.48 1.08c-1.74-1.5 1.55-3.57 1.9-1.69.21 1.1-.92 1.67-1.9 1.69"/><path d="m796.5 70.07c0 .55.95.64.92 0-.18-.43-.62-.1-.92 0m-.78.85c-1-2.18 2.78-2.23 2.32-.38-.16.66-1.69.81-2.32.38"/><path d="m764.18 70.41a.81.81 0 0 0 -.49-.93c.24.22.06.91.49.93m.63.31c-.48.83-2.08.8-2.25-.16-.37-2.09 2.44-2.54 2.25.16"/><path d="m756.37 69.24c1.59-.29 1.55 2.22.14 2.16a1.09 1.09 0 0 1 -.14-2.16"/><path d="m789.81 69.45a1.36 1.36 0 0 1 1.55 1.31c-.05.67-1.82 1.48-2.39.61a1.4 1.4 0 0 1 .85-1.93"/><path d="m.79 69.5c.18.06.28.21.49.23a1.35 1.35 0 0 0 .35-.73.72.72 0 0 0 -.63-.2c.1.41-.13.47-.21.69m-.49-1.15c1.13-.69 2.46.45 2.11 1.31a2 2 0 0 1 -1.9.77c-.56-.2-.69-1.52-.21-2.08"/><path d="m28.15 69.69c-.13-.17-.24-.36-.56-.31-.13.43.45.62.56.31m-1.41-1c.94-.54 2.34-.77 2.32.62 0 .85-.93 1.28-1.83 1.15-.54-.14-.67-1.11-.49-1.77"/><path d="m59.06 69.59c.18.06.28.21.49.23a1.35 1.35 0 0 0 .35-.69.72.72 0 0 0 -.63-.23c.1.41-.13.47-.21.69m-.49-1.16c1.13-.69 2.46.45 2.11 1.31a2 2 0 0 1 -1.9.77c-.56-.2-.69-1.52-.21-2.08"/><path d="m21.4 69.22h-.28c-.1.46.53.34.28 0m-.7.38a.54.54 0 0 0 -.07-.39h-.21c0 .25.08.37.28.39m-1.07.4a1.58 1.58 0 0 1 .07-1.16c.42-.85 1.63-.63 2.18-.07.83 1.7-1.47 2.13-2.25 1.23"/><path d="m53.28 70.12c-.55-.32-.51.3 0 0m0-.85a.29.29 0 1 0 .56 0c-.16 0-.42-.15-.56 0m-.14-.93a1.21 1.21 0 0 1 1.48 1c.06.87-1.85 2.11-2.39.92a1.57 1.57 0 0 1 .92-1.93"/><path d="m33.57 70c.17 0 .21.13.42.08.17-.32 0-.83-.42-.77-.14.16-.05.51 0 .69m1.13-.31a.64.64 0 0 0 -.56-.93 1.17 1.17 0 0 0 .56.93m-1.48 1.08c-1.74-1.5 1.55-3.57 1.9-1.69.21 1.1-.92 1.67-1.9 1.69"/><path d="m47.23 69.49c0 .55.95.64.92 0-.18-.43-.62-.1-.92 0m-.78.85c-1-2.18 2.78-2.23 2.32-.38-.16.66-1.69.81-2.32.38"/><path d="m14.92 69.83a.81.81 0 0 0 -.49-.93c.24.22.06.91.49.93m.63.31c-.48.83-2.08.8-2.25-.16-.37-2.09 2.44-2.54 2.25.16"/><path d="m7.11 68.66c1.59-.29 1.55 2.22.14 2.16a1.09 1.09 0 0 1 -.14-2.16"/><path d="m40.54 68.87a1.36 1.36 0 0 1 1.55 1.31c-.05.67-1.82 1.48-2.39.61a1.4 1.4 0 0 1 .85-1.93"/><path d="m85.42 69.79c-.13-.17-.24-.36-.56-.31-.13.43.45.62.56.31m-1.41-1c.94-.54 2.34-.77 2.32.62 0 .85-.93 1.28-1.83 1.15-.54-.14-.67-1.11-.49-1.77"/><path d="m116.33 69.69c.18.06.28.21.49.23a1.35 1.35 0 0 0 .35-.69.72.72 0 0 0 -.63-.23c.1.41-.13.47-.21.69m-.49-1.16c1.13-.69 2.46.45 2.11 1.31a2 2 0 0 1 -1.9.77c-.56-.2-.69-1.52-.21-2.08"/><path d="m78.67 69.32h-.28c-.1.46.53.34.28 0m-.7.38a.54.54 0 0 0 -.07-.39h-.21c0 .25.08.37.28.39m-1.06.38a1.58 1.58 0 0 1 .09-1.15c.42-.85 1.63-.63 2.18-.07.83 1.7-1.47 2.13-2.25 1.23"/><path d="m110.55 70.22c-.55-.32-.51.3 0 0m0-.85a.29.29 0 1 0 .56 0c-.16 0-.42-.15-.56 0m-.14-.93a1.21 1.21 0 0 1 1.48 1c.06.87-1.85 2.11-2.39.92a1.57 1.57 0 0 1 .92-1.93"/><path d="m90.84 70.11c.17 0 .21.13.42.08.17-.32 0-.83-.42-.77-.14.16-.05.51 0 .69m1.16-.31a.64.64 0 0 0 -.56-.93 1.17 1.17 0 0 0 .56.93m-1.48 1.08c-1.74-1.5 1.55-3.57 1.9-1.69.21 1.1-.92 1.67-1.9 1.69"/><path d="m104.5 69.59c0 .55.95.64.92 0-.18-.43-.62-.1-.92 0m-.78.85c-1-2.18 2.78-2.23 2.32-.38-.16.66-1.69.81-2.32.38"/><path d="m72.19 69.92a.81.81 0 0 0 -.49-.92c.24.22.06.91.49.93m.63.31c-.48.83-2.08.8-2.25-.16-.37-2.09 2.44-2.54 2.25.16"/><path d="m64.38 68.75c1.59-.29 1.55 2.22.14 2.16a1.09 1.09 0 0 1 -.14-2.16"/><path d="m97.81 69a1.36 1.36 0 0 1 1.55 1.31c-.05.67-1.82 1.48-2.39.61a1.4 1.4 0 0 1 .84-1.92"/><path d="m143.69 69.89c-.13-.17-.24-.36-.56-.31-.13.43.45.62.56.31m-1.41-1c.94-.54 2.34-.77 2.32.62 0 .85-.93 1.28-1.83 1.15-.54-.14-.67-1.11-.49-1.77"/><path d="m174.59 69.78c.18.06.28.21.49.23a1.35 1.35 0 0 0 .35-.69.72.72 0 0 0 -.63-.23c.1.41-.13.47-.21.69m-.49-1.16c1.13-.69 2.46.45 2.11 1.31a2 2 0 0 1 -1.9.77c-.56-.2-.69-1.52-.21-2.08"/><path d="m136.93 69.41h-.28c-.1.46.53.34.28 0m-.7.38a.54.54 0 0 0 -.07-.39h-.21c0 .25.08.37.28.39m-1.06.38a1.58 1.58 0 0 1 .07-1.16c.42-.85 1.63-.63 2.18-.07.83 1.7-1.47 2.13-2.25 1.23"/><path d="m168.82 70.31c-.55-.32-.51.3 0 0m0-.85a.29.29 0 1 0 .56 0c-.16 0-.42-.15-.56 0m-.14-.93a1.21 1.21 0 0 1 1.48 1c.06.87-1.85 2.11-2.39.92a1.57 1.57 0 0 1 .92-1.93"/><path d="m149.11 70.2c.17 0 .21.13.42.08.17-.32 0-.83-.42-.77-.14.16-.05.51 0 .69m1.13-.31a.64.64 0 0 0 -.56-.93 1.17 1.17 0 0 0 .56.93m-1.48 1.11c-1.74-1.5 1.55-3.57 1.9-1.69.21 1.1-.92 1.67-1.9 1.69"/><path d="m162.77 69.69c0 .55.95.64.92 0-.18-.43-.62-.1-.92 0m-.78.85c-1-2.18 2.78-2.23 2.32-.38-.16.66-1.69.81-2.32.38"/><path d="m130.46 70a.81.81 0 0 0 -.49-.93c.24.22.06.91.49.93m.63.31c-.48.83-2.08.8-2.25-.16-.37-2.09 2.44-2.54 2.25.16"/><path d="m122.64 68.85c1.59-.29 1.55 2.22.14 2.16a1.09 1.09 0 0 1 -.14-2.16"/><path d="m156.08 69.06a1.36 1.36 0 0 1 1.55 1.31c-.05.67-1.82 1.48-2.39.61a1.4 1.4 0 0 1 .85-1.93"/><path d="m202.72 70c-.13-.17-.24-.36-.56-.31-.13.43.45.62.56.31m-1.41-1c.94-.54 2.34-.77 2.32.62 0 .85-.93 1.28-1.83 1.15-.54-.14-.67-1.11-.49-1.77"/><path d="m233.63 69.88c.18.06.28.21.49.23a1.34 1.34 0 0 0 .35-.69.72.72 0 0 0 -.63-.23c.1.41-.13.47-.21.69m-.49-1.16c1.13-.69 2.46.45 2.11 1.31a2 2 0 0 1 -1.9.77c-.56-.2-.69-1.52-.21-2.08"/><path d="m196 69.51h-.28c-.1.46.53.34.28 0m-.7.38a.54.54 0 0 0 -.07-.39h-.23c0 .25.08.37.28.39m-1.06.38a1.58 1.58 0 0 1 .07-1.16c.42-.85 1.63-.63 2.18-.07.83 1.7-1.47 2.13-2.25 1.23"/><path d="m227.85 70.41c-.55-.32-.51.3 0 0m0-.85a.29.29 0 1 0 .56 0c-.16 0-.42-.15-.56 0m-.14-.93a1.21 1.21 0 0 1 1.48 1c.06.87-1.85 2.11-2.39.92a1.57 1.57 0 0 1 .92-1.93"/><path d="m208.14 70.3c.17 0 .21.13.42.08.17-.32 0-.83-.42-.77-.14.16-.05.51 0 .69m1.13-.31a.64.64 0 0 0 -.56-.93 1.17 1.17 0 0 0 .56.93m-1.48 1.08c-1.74-1.5 1.55-3.57 1.9-1.69.21 1.1-.92 1.67-1.9 1.69"/><path d="m221.8 69.78c0 .55.95.64.92 0-.18-.43-.62-.1-.92 0m-.78.85c-1-2.18 2.78-2.23 2.32-.38-.16.66-1.69.81-2.32.38"/><path d="m189.49 70.12a.81.81 0 0 0 -.49-.93c.24.22.06.91.49.93m.63.31c-.48.83-2.08.8-2.25-.16-.37-2.09 2.44-2.54 2.25.16"/><path d="m181.68 68.95c1.59-.29 1.55 2.22.14 2.16a1.09 1.09 0 0 1 -.14-2.16"/><path d="m215.11 69.16a1.36 1.36 0 0 1 1.55 1.31c-.05.67-1.82 1.48-2.39.61a1.4 1.4 0 0 1 .85-1.93"/><path d="m261 70.08c-.13-.17-.24-.36-.56-.31-.13.43.45.62.56.31m-1.41-1c.94-.54 2.34-.77 2.32.62 0 .85-.93 1.28-1.83 1.15-.54-.14-.67-1.11-.49-1.77"/><path d="m291.89 70c.18.06.28.21.49.23a1.35 1.35 0 0 0 .35-.69.72.72 0 0 0 -.63-.23c.1.41-.13.47-.21.69m-.49-1.16c1.13-.69 2.46.45 2.11 1.31a2 2 0 0 1 -1.9.77c-.56-.2-.69-1.52-.21-2.08"/><path d="m254.23 69.61h-.23c-.1.46.53.34.28 0m-.7.38a.54.54 0 0 0 -.07-.39h-.21c0 .25.08.37.28.39m-1.06.38a1.58 1.58 0 0 1 .07-1.16c.42-.85 1.63-.63 2.18-.07.83 1.7-1.47 2.13-2.25 1.23"/><path d="m286.12 70.51c-.55-.32-.51.3 0 0m0-.85a.29.29 0 1 0 .56 0c-.16 0-.42-.15-.56 0m-.14-.93a1.21 1.21 0 0 1 1.48 1c.06.87-1.85 2.11-2.39.92a1.57 1.57 0 0 1 .92-1.93"/><path d="m266.41 70.4c.17 0 .21.13.42.08.17-.32 0-.83-.42-.77-.14.16-.05.51 0 .69m1.13-.31a.64.64 0 0 0 -.56-.93 1.17 1.17 0 0 0 .56.93m-1.48 1.08c-1.74-1.5 1.55-3.57 1.9-1.69.21 1.1-.92 1.67-1.9 1.69"/><path d="m280.07 69.88c0 .55.95.64.92 0-.18-.43-.62-.1-.92 0m-.78.85c-1-2.18 2.78-2.23 2.32-.38-.16.66-1.69.81-2.32.38"/><path d="m247.76 70.21a.81.81 0 0 0 -.49-.93c.24.22.06.91.49.93m.63.31c-.48.83-2.08.8-2.25-.16-.37-2.09 2.44-2.54 2.25.16"/><path d="m239.94 69c1.59-.29 1.55 2.22.14 2.16a1.09 1.09 0 0 1 -.14-2.16"/><path d="m273.38 69.25a1.36 1.36 0 0 1 1.55 1.31c-.05.67-1.82 1.48-2.39.61a1.4 1.4 0 0 1 .85-1.93"/><path d="m318.26 70.18c-.13-.17-.24-.36-.56-.31-.13.43.45.62.56.31m-1.41-1c.94-.54 2.34-.77 2.32.62 0 .85-.93 1.28-1.83 1.15-.54-.14-.67-1.11-.49-1.77"/><path d="m349.16 70.07c.18.06.28.21.49.23a1.35 1.35 0 0 0 .35-.69.72.72 0 0 0 -.63-.23c.1.41-.13.47-.21.69m-.49-1.16c1.13-.69 2.46.45 2.11 1.31a2 2 0 0 1 -1.9.77c-.56-.2-.69-1.52-.21-2.08"/><path d="m311.5 69.7h-.28c-.1.46.53.34.28 0m-.7.38a.54.54 0 0 0 -.07-.39h-.21c0 .25.08.37.28.39m-1.06.38a1.58 1.58 0 0 1 .07-1.16c.42-.85 1.63-.63 2.18-.07.83 1.7-1.47 2.13-2.25 1.23"/><path d="m343.39 70.6c-.55-.32-.51.3 0 0m0-.85a.29.29 0 1 0 .56 0c-.16 0-.42-.15-.56 0m-.14-.93a1.21 1.21 0 0 1 1.48 1c.06.87-1.85 2.11-2.39.92a1.57 1.57 0 0 1 .92-1.93"/><path d="m323.68 70.49c.17 0 .21.13.42.08.17-.32 0-.83-.42-.77-.14.16-.05.51 0 .69m1.13-.31a.64.64 0 0 0 -.56-.93 1.17 1.17 0 0 0 .56.93m-1.48 1.08c-1.74-1.5 1.55-3.57 1.9-1.69.21 1.1-.92 1.67-1.9 1.69"/><path d="m337.34 70c0 .55.95.64.92 0-.18-.43-.62-.1-.92 0m-.78.85c-1-2.18 2.78-2.23 2.32-.38-.16.66-1.69.81-2.32.38"/><path d="m305 70.31a.81.81 0 0 0 -.49-.93c.24.22.06.91.49.93m.63.31c-.48.83-2.08.8-2.25-.16-.37-2.09 2.44-2.54 2.25.16"/><path d="m297.21 69.14c1.59-.29 1.55 2.22.14 2.16a1.09 1.09 0 0 1 -.14-2.16"/><path d="m330.65 69.35a1.36 1.36 0 0 1 1.55 1.31c-.05.67-1.82 1.48-2.39.61a1.4 1.4 0 0 1 .85-1.93"/><path d="m376.53 70.27c-.13-.17-.24-.36-.56-.31-.13.43.45.62.56.31m-1.41-1c.94-.54 2.34-.77 2.32.62 0 .85-.93 1.28-1.83 1.15-.54-.14-.67-1.11-.49-1.77"/><path d="m369.77 69.8h-.28c-.1.46.53.34.28 0m-.7.38a.54.54 0 0 0 -.07-.39h-.21c0 .25.08.37.28.39m-1.06.38a1.58 1.58 0 0 1 .07-1.16c.42-.85 1.63-.63 2.18-.07.83 1.7-1.47 2.13-2.25 1.23"/><path d="m381.95 70.59c.17 0 .21.13.42.08.17-.32 0-.83-.42-.77-.14.16-.05.51 0 .69m1.13-.31a.64.64 0 0 0 -.56-.93 1.17 1.17 0 0 0 .56.93m-1.48 1.08c-1.74-1.5 1.55-3.57 1.9-1.69.21 1.1-.92 1.67-1.9 1.69"/><path d="m395.6 70.07c0 .55.95.64.92 0-.18-.43-.62-.1-.92 0m-.78.85c-1-2.18 2.78-2.23 2.32-.38-.16.66-1.69.81-2.32.38"/><path d="m363.29 70.41a.81.81 0 0 0 -.49-.93c.24.22.06.91.49.93m.63.31c-.48.83-2.08.8-2.25-.16-.37-2.09 2.44-2.54 2.25.16"/><path d="m355.48 69.24c1.59-.29 1.55 2.22.14 2.16a1.09 1.09 0 0 1 -.14-2.16"/><path d="m388.92 69.45a1.36 1.36 0 0 1 1.55 1.31c-.05.67-1.82 1.48-2.39.61a1.4 1.4 0 0 1 .85-1.93"/></g></svg>