<svg xmlns="http://www.w3.org/2000/svg" viewBox="0 0 1197.15 71.75"><defs><style>.cls-1{fill:#4fb3a2;}</style></defs><title>Asset 1</title><g id="Layer_2" data-name="Layer 2"><g id="art"><path class="cls-1" d="M800.75,1.37c.18.06.28.21.49.23a1.35,1.35,0,0,0,.35-.69A.72.72,0,0,0,801,.68c.1.41-.13.47-.21.69M800.25.21c1.13-.69,2.46.45,2.11,1.31a2,2,0,0,1-1.9.77c-.56-.2-.69-1.52-.21-2.08"/><path class="cls-1" d="M828.11,1.57c-.13-.17-.24-.36-.56-.31-.13.43.45.62.56.31m-1.41-1c.94-.54,2.34-.77,2.32.62,0,.85-.93,1.28-1.83,1.15-.54-.14-.67-1.11-.49-1.77"/><path class="cls-1" d="M859,1.47c.18.06.28.21.49.23a1.35,1.35,0,0,0,.35-.69.72.72,0,0,0-.63-.23c.1.41-.13.47-.21.69M858.52.31c1.13-.69,2.46.45,2.11,1.31a2,2,0,0,1-1.9.77c-.56-.2-.69-1.52-.21-2.08"/><path class="cls-1" d="M821.35,1.1h-.28c-.1.46.53.34.28,0m-.7.38a.54.54,0,0,0-.07-.39h-.21c0,.25.08.37.28.39m-1.06.38a1.58,1.58,0,0,1,.07-1.16c.42-.85,1.63-.63,2.18-.07.83,1.7-1.47,2.13-2.25,1.23"/><path class="cls-1" d="M853.24,2c-.55-.32-.51.3,0,0m0-.85a.29.29,0,1,0,.56,0c-.16,0-.42-.15-.56,0M853.1.22a1.21,1.21,0,0,1,1.48,1c.06.87-1.85,2.11-2.39.92A1.57,1.57,0,0,1,853.1.22"/><path class="cls-1" d="M833.53,1.89c.17,0,.21.13.42.08.17-.32,0-.83-.42-.77-.14.16-.05.51,0,.69m1.13-.31a.64.64,0,0,0-.56-.93,1.17,1.17,0,0,0,.56.93m-1.48,1.08c-1.74-1.5,1.55-3.57,1.9-1.69.21,1.1-.92,1.67-1.9,1.69"/><path class="cls-1" d="M847.19,1.37c0,.55.95.64.92,0-.18-.43-.62-.1-.92,0m-.78.85c-1-2.18,2.78-2.23,2.32-.38-.16.66-1.69.81-2.32.38"/><path class="cls-1" d="M814.87,1.7a.81.81,0,0,0-.49-.93c.24.22.06.91.49.93m.63.31c-.48.83-2.08.8-2.25-.16-.37-2.09,2.44-2.54,2.25.16"/><path class="cls-1" d="M807.06.53c1.59-.29,1.55,2.22.14,2.16a1.09,1.09,0,0,1-.14-2.16"/><path class="cls-1" d="M840.5.74A1.36,1.36,0,0,1,842,2.06c-.05.67-1.82,1.48-2.39.61A1.4,1.4,0,0,1,840.5.74"/><path class="cls-1" d="M885.38,1.67c-.13-.17-.24-.36-.56-.31-.13.43.45.62.56.31M884,.66c.94-.54,2.34-.77,2.32.62,0,.85-.93,1.28-1.83,1.15-.54-.14-.67-1.11-.49-1.77"/><path class="cls-1" d="M916.28,1.56c.18.06.28.21.49.23a1.35,1.35,0,0,0,.35-.69.72.72,0,0,0-.63-.23c.1.41-.13.47-.21.69M915.79.41c1.13-.69,2.46.45,2.11,1.31a2,2,0,0,1-1.9.77c-.56-.2-.69-1.52-.21-2.08"/><path class="cls-1" d="M878.62,1.19h-.28c-.1.46.53.34.28,0m-.7.38a.54.54,0,0,0-.07-.39h-.21c0,.25.08.37.28.39M876.86,2A1.58,1.58,0,0,1,876.93.8c.42-.85,1.63-.63,2.18-.07.83,1.7-1.47,2.13-2.25,1.23"/><path class="cls-1" d="M910.51,2.09c-.55-.32-.51.3,0,0m0-.85a.29.29,0,1,0,.56,0c-.16,0-.42-.15-.56,0m-.14-.93a1.21,1.21,0,0,1,1.48,1c.06.87-1.85,2.11-2.39.92a1.57,1.57,0,0,1,.92-1.93"/><path class="cls-1" d="M890.8,2c.17,0,.21.13.42.08.17-.32,0-.83-.42-.77-.14.16-.05.51,0,.69m1.13-.31a.64.64,0,0,0-.56-.93,1.17,1.17,0,0,0,.56.93m-1.48,1.08c-1.74-1.5,1.55-3.57,1.9-1.69.21,1.1-.92,1.67-1.9,1.69"/><path class="cls-1" d="M904.46,1.47c0,.55.95.64.92,0-.18-.43-.62-.1-.92,0m-.78.85c-1-2.18,2.78-2.23,2.32-.38-.16.66-1.69.81-2.32.38"/><path class="cls-1" d="M872.15,1.8a.81.81,0,0,0-.49-.93c.24.22.06.91.49.93m.63.31c-.48.83-2.08.8-2.25-.16-.37-2.09,2.44-2.54,2.25.16"/><path class="cls-1" d="M864.33.63c1.59-.29,1.55,2.22.14,2.16a1.09,1.09,0,0,1-.14-2.16"/><path class="cls-1" d="M897.77.84a1.36,1.36,0,0,1,1.55,1.31c-.05.67-1.82,1.48-2.39.61a1.4,1.4,0,0,1,.85-1.93"/><path class="cls-1" d="M943.65,1.76c-.13-.17-.24-.36-.56-.31-.13.43.45.62.56.31m-1.41-1c.94-.54,2.34-.77,2.32.62,0,.85-.93,1.28-1.83,1.15-.54-.14-.67-1.11-.49-1.77"/><path class="cls-1" d="M974.55,1.66c.18.06.28.21.49.23a1.35,1.35,0,0,0,.35-.69.72.72,0,0,0-.63-.23c.1.41-.13.47-.21.69M974.06.5c1.13-.69,2.46.45,2.11,1.31a2,2,0,0,1-1.9.77c-.56-.2-.69-1.52-.21-2.08"/><path class="cls-1" d="M936.89,1.29h-.28c-.1.46.53.34.28,0m-.7.38a.54.54,0,0,0-.07-.39h-.21c0,.25.08.37.28.39m-1.06.38A1.58,1.58,0,0,1,935.2.9c.42-.85,1.63-.63,2.18-.07.83,1.7-1.47,2.13-2.25,1.23"/><path class="cls-1" d="M968.78,2.19c-.55-.32-.51.3,0,0m0-.85a.29.29,0,1,0,.56,0c-.16,0-.42-.15-.56,0m-.14-.93a1.21,1.21,0,0,1,1.48,1c.06.87-1.85,2.11-2.39.92a1.57,1.57,0,0,1,.92-1.93"/><path class="cls-1" d="M949.07,2.08c.17,0,.21.13.42.08.17-.32,0-.83-.42-.77-.14.16-.05.51,0,.69m1.13-.31a.64.64,0,0,0-.56-.93,1.17,1.17,0,0,0,.56.93m-1.48,1.08c-1.74-1.5,1.55-3.57,1.9-1.69.21,1.1-.92,1.67-1.9,1.69"/><path class="cls-1" d="M962.72,1.56c0,.55.95.64.92,0-.18-.43-.62-.1-.92,0m-.78.85C961,.23,964.72.18,964.27,2c-.16.66-1.69.81-2.32.38"/><path class="cls-1" d="M930.41,1.89a.81.81,0,0,0-.49-.93c.24.22.06.91.49.93m.63.31C930.57,3,929,3,928.79,2,928.42,0,931.23-.49,931,2.2"/><path class="cls-1" d="M922.6.73c1.59-.29,1.55,2.22.14,2.16A1.09,1.09,0,0,1,922.6.73"/><path class="cls-1" d="M956,.94a1.36,1.36,0,0,1,1.55,1.31c-.05.67-1.82,1.48-2.39.61A1.4,1.4,0,0,1,956,.94"/><path class="cls-1" d="M1002.68,1.86c-.13-.17-.24-.36-.56-.31-.13.43.45.62.56.31m-1.41-1c.94-.54,2.34-.77,2.32.62,0,.85-.93,1.28-1.83,1.15-.54-.14-.67-1.11-.49-1.77"/><path class="cls-1" d="M1033.58,1.76c.18.06.28.21.49.23a1.34,1.34,0,0,0,.35-.69.72.72,0,0,0-.63-.23c.1.41-.13.47-.21.69M1033.09.6c1.13-.69,2.46.45,2.11,1.31a2,2,0,0,1-1.9.77c-.56-.2-.69-1.52-.21-2.08"/><path class="cls-1" d="M995.92,1.39h-.28c-.1.46.53.34.28,0m-.7.38a.54.54,0,0,0-.07-.39h-.21c0,.25.08.37.28.39m-1.06.38A1.58,1.58,0,0,1,994.23,1c.42-.85,1.63-.63,2.18-.07.83,1.7-1.47,2.13-2.25,1.23"/><path class="cls-1" d="M1027.81,2.29c-.55-.32-.51.3,0,0m0-.85a.29.29,0,1,0,.56,0c-.16,0-.42-.15-.56,0m-.14-.93a1.21,1.21,0,0,1,1.48,1c.06.87-1.85,2.11-2.39.92a1.57,1.57,0,0,1,.92-1.93"/><path class="cls-1" d="M1008.1,2.18c.17,0,.21.13.42.08.17-.32,0-.83-.42-.77-.14.16-.05.51,0,.69m1.13-.31a.64.64,0,0,0-.56-.93,1.17,1.17,0,0,0,.56.93m-1.48,1.08c-1.74-1.5,1.55-3.57,1.9-1.69.21,1.1-.92,1.67-1.9,1.69"/><path class="cls-1" d="M1021.76,1.66c0,.55.95.64.92,0-.18-.43-.62-.1-.92,0m-.78.85c-1-2.18,2.78-2.23,2.32-.38-.16.66-1.69.81-2.32.38"/><path class="cls-1" d="M989.45,2a.81.81,0,0,0-.49-.93c.24.22.06.91.49.93m.63.31c-.48.83-2.08.8-2.25-.16-.37-2.09,2.44-2.54,2.25.16"/><path class="cls-1" d="M981.63.82c1.59-.29,1.55,2.22.14,2.16a1.09,1.09,0,0,1-.14-2.16"/><path class="cls-1" d="M1015.07,1a1.36,1.36,0,0,1,1.55,1.31c-.05.67-1.82,1.48-2.39.61a1.4,1.4,0,0,1,.85-1.93"/><path class="cls-1" d="M1060.95,2c-.13-.17-.24-.36-.56-.31-.13.43.45.62.56.31m-1.41-1c.94-.54,2.34-.77,2.32.62,0,.85-.93,1.28-1.83,1.15-.54-.14-.67-1.11-.49-1.77"/><path class="cls-1" d="M1091.85,1.85c.18.06.28.21.49.23a1.35,1.35,0,0,0,.35-.69.72.72,0,0,0-.63-.23c.1.41-.13.47-.21.69M1091.36.7c1.13-.69,2.46.45,2.11,1.31a2,2,0,0,1-1.9.77c-.56-.2-.69-1.52-.21-2.08"/><path class="cls-1" d="M1054.19,1.48h-.28c-.1.46.53.34.28,0m-.7.38a.54.54,0,0,0-.07-.39h-.21c0,.25.08.37.28.39m-1.06.38a1.58,1.58,0,0,1,.07-1.16c.42-.85,1.63-.63,2.18-.07.83,1.7-1.47,2.13-2.25,1.23"/><path class="cls-1" d="M1086.08,2.38c-.55-.32-.51.3,0,0m0-.85a.29.29,0,1,0,.56,0c-.16,0-.42-.15-.56,0m-.14-.93a1.21,1.21,0,0,1,1.48,1c.06.87-1.85,2.11-2.39.92a1.57,1.57,0,0,1,.92-1.93"/><path class="cls-1" d="M1066.37,2.27c.17,0,.21.13.42.08.17-.32,0-.83-.42-.77-.14.16-.05.51,0,.69m1.13-.31a.64.64,0,0,0-.56-.93,1.17,1.17,0,0,0,.56.93M1066,3c-1.74-1.5,1.55-3.57,1.9-1.69.21,1.1-.92,1.67-1.9,1.69"/><path class="cls-1" d="M1080,1.76c0,.55.95.64.92,0-.18-.43-.62-.1-.92,0m-.78.85c-1-2.18,2.78-2.23,2.32-.38-.16.66-1.69.81-2.32.38"/><path class="cls-1" d="M1047.71,2.09a.81.81,0,0,0-.49-.93c.24.22.06.91.49.93m.63.31c-.48.83-2.08.8-2.25-.16-.37-2.09,2.44-2.54,2.25.16"/><path class="cls-1" d="M1039.9.92c1.59-.29,1.55,2.22.14,2.16a1.09,1.09,0,0,1-.14-2.16"/><path class="cls-1" d="M1073.34,1.13a1.36,1.36,0,0,1,1.55,1.31c-.05.67-1.82,1.48-2.39.61a1.4,1.4,0,0,1,.85-1.93"/><path class="cls-1" d="M1118.22,2.05c-.13-.17-.24-.36-.56-.31-.13.43.45.62.56.31m-1.41-1c.94-.54,2.34-.77,2.32.62,0,.85-.93,1.28-1.83,1.15-.54-.14-.67-1.11-.49-1.77"/><path class="cls-1" d="M1149.12,1.95c.18.06.28.21.49.23a1.35,1.35,0,0,0,.35-.69.72.72,0,0,0-.63-.23c.1.41-.13.47-.21.69m-.49-1.16c1.13-.69,2.46.45,2.11,1.31a2,2,0,0,1-1.9.77c-.56-.2-.69-1.52-.21-2.08"/><path class="cls-1" d="M1111.46,1.58h-.28c-.1.46.53.34.28,0m-.7.38a.54.54,0,0,0-.07-.39h-.21c0,.25.08.37.28.39m-1.06.38a1.58,1.58,0,0,1,.07-1.16c.42-.85,1.63-.63,2.18-.07.83,1.7-1.47,2.13-2.25,1.23"/><path class="cls-1" d="M1143.35,2.48c-.55-.32-.51.3,0,0m0-.85a.29.29,0,1,0,.56,0c-.16,0-.42-.15-.56,0m-.14-.93a1.21,1.21,0,0,1,1.48,1c.06.87-1.85,2.11-2.39.92a1.57,1.57,0,0,1,.92-1.93"/><path class="cls-1" d="M1123.64,2.37c.17,0,.21.13.42.08.17-.32,0-.83-.42-.77-.14.16-.05.51,0,.69m1.13-.31a.64.64,0,0,0-.56-.93,1.17,1.17,0,0,0,.56.93m-1.48,1.08c-1.74-1.5,1.55-3.57,1.9-1.69.21,1.1-.92,1.67-1.9,1.69"/><path class="cls-1" d="M1137.29,1.85c0,.55.95.64.92,0-.18-.43-.62-.1-.92,0m-.78.85c-1-2.18,2.78-2.23,2.32-.38-.16.66-1.69.81-2.32.38"/><path class="cls-1" d="M1105,2.18a.81.81,0,0,0-.49-.93c.24.22.06.91.49.93m.63.31c-.48.83-2.08.8-2.25-.16-.37-2.09,2.44-2.54,2.25.16"/><path class="cls-1" d="M1097.17,1c1.59-.29,1.55,2.22.14,2.16a1.09,1.09,0,0,1-.14-2.16"/><path class="cls-1" d="M1130.61,1.23a1.36,1.36,0,0,1,1.55,1.31c-.05.67-1.82,1.48-2.39.61a1.4,1.4,0,0,1,.85-1.93"/><path class="cls-1" d="M1176.48,2.15c-.13-.17-.24-.36-.56-.31-.13.43.45.62.56.31m-1.41-1c.94-.54,2.34-.77,2.32.62,0,.85-.93,1.28-1.83,1.15-.54-.14-.67-1.11-.49-1.77"/><path class="cls-1" d="M1169.73,1.68h-.28c-.1.46.53.34.28,0m-.7.38a.54.54,0,0,0-.07-.39h-.21c0,.25.08.37.28.39m-1.06.38a1.58,1.58,0,0,1,.07-1.16c.42-.85,1.63-.63,2.18-.07.83,1.7-1.47,2.13-2.25,1.23"/><path class="cls-1" d="M1181.9,2.47c.17,0,.21.13.42.08.17-.32,0-.83-.42-.77-.14.16-.05.51,0,.69m1.13-.31a.64.64,0,0,0-.56-.93,1.17,1.17,0,0,0,.56.93m-1.48,1.08c-1.74-1.5,1.55-3.57,1.9-1.69.21,1.1-.92,1.67-1.9,1.69"/><path class="cls-1" d="M1195.56,1.95c0,.55.95.64.92,0-.18-.43-.62-.1-.92,0m-.78.85c-1-2.18,2.78-2.23,2.32-.38-.16.66-1.69.81-2.32.38"/><path class="cls-1" d="M1163.25,2.28a.81.81,0,0,0-.49-.93c.24.22.06.91.49.93m.63.31c-.48.83-2.08.8-2.25-.16-.37-2.09,2.44-2.54,2.25.16"/><path class="cls-1" d="M1155.44,1.11c1.59-.29,1.55,2.22.14,2.16a1.09,1.09,0,0,1-.14-2.16"/><path class="cls-1" d="M1188.87,1.32a1.36,1.36,0,0,1,1.55,1.31c-.05.67-1.82,1.48-2.39.61a1.4,1.4,0,0,1,.85-1.93"/><path class="cls-1" d="M401.68,1.37c.18.06.28.21.49.23a1.35,1.35,0,0,0,.35-.69.72.72,0,0,0-.63-.23c.1.41-.13.47-.21.69M401.19.21c1.13-.69,2.46.45,2.11,1.31a2,2,0,0,1-1.9.77c-.56-.2-.69-1.52-.21-2.08"/><path class="cls-1" d="M429,1.57c-.13-.17-.24-.36-.56-.31-.13.43.45.62.56.31m-1.41-1c.94-.54,2.34-.77,2.32.62,0,.85-.93,1.28-1.83,1.15-.54-.14-.67-1.11-.49-1.77"/><path class="cls-1" d="M459.95,1.47c.18.06.28.21.49.23a1.35,1.35,0,0,0,.35-.69.72.72,0,0,0-.63-.23c.1.41-.13.47-.21.69M459.46.31c1.13-.69,2.46.45,2.11,1.31a2,2,0,0,1-1.9.77c-.56-.2-.69-1.52-.21-2.08"/><path class="cls-1" d="M422.29,1.1H422c-.1.46.53.34.28,0m-.7.38a.54.54,0,0,0-.07-.39h-.21c0,.25.08.37.28.39m-1.06.38A1.58,1.58,0,0,1,420.6.71c.42-.85,1.63-.63,2.18-.07.83,1.7-1.47,2.13-2.25,1.23"/><path class="cls-1" d="M454.17,2c-.55-.32-.51.3,0,0m0-.85a.29.29,0,1,0,.56,0c-.16,0-.42-.15-.56,0M454,.22a1.21,1.21,0,0,1,1.48,1c.06.87-1.85,2.11-2.39.92A1.57,1.57,0,0,1,454,.22"/><path class="cls-1" d="M434.46,1.89c.17,0,.21.13.42.08.17-.32,0-.83-.42-.77-.14.16-.05.51,0,.69m1.13-.31A.64.64,0,0,0,435,.66a1.17,1.17,0,0,0,.56.93m-1.48,1.08C432.37,1.16,435.66-.91,436,1c.21,1.1-.92,1.67-1.9,1.69"/><path class="cls-1" d="M448.12,1.37c0,.55.95.64.92,0-.18-.43-.62-.1-.92,0m-.78.85c-1-2.18,2.78-2.23,2.32-.38-.16.66-1.69.81-2.32.38"/><path class="cls-1" d="M415.81,1.7a.81.81,0,0,0-.49-.93c.24.22.06.91.49.93m.63.31c-.48.83-2.08.8-2.25-.16-.37-2.09,2.44-2.54,2.25.16"/><path class="cls-1" d="M408,.53c1.59-.29,1.55,2.22.14,2.16A1.09,1.09,0,0,1,408,.53"/><path class="cls-1" d="M441.43.74A1.36,1.36,0,0,1,443,2.06c-.05.67-1.82,1.48-2.39.61a1.4,1.4,0,0,1,.85-1.93"/><path class="cls-1" d="M486.31,1.67c-.13-.17-.24-.36-.56-.31-.13.43.45.62.56.31m-1.41-1c.94-.54,2.34-.77,2.32.62,0,.85-.93,1.28-1.83,1.15-.54-.14-.67-1.11-.49-1.77"/><path class="cls-1" d="M517.22,1.56c.18.06.28.21.49.23a1.35,1.35,0,0,0,.35-.69.72.72,0,0,0-.63-.23c.1.41-.13.47-.21.69M516.73.41c1.13-.69,2.46.45,2.11,1.31a2,2,0,0,1-1.9.77c-.56-.2-.69-1.52-.21-2.08"/><path class="cls-1" d="M479.56,1.19h-.28c-.1.46.53.34.28,0m-.7.38a.54.54,0,0,0-.07-.39h-.21c0,.25.08.37.28.39M477.8,2A1.58,1.58,0,0,1,477.87.8c.42-.85,1.63-.63,2.18-.07.83,1.7-1.47,2.13-2.25,1.23"/><path class="cls-1" d="M511.44,2.09c-.55-.32-.51.3,0,0m0-.85a.29.29,0,1,0,.56,0c-.16,0-.42-.15-.56,0m-.14-.93a1.21,1.21,0,0,1,1.48,1c.06.87-1.85,2.11-2.39.92a1.57,1.57,0,0,1,.92-1.93"/><path class="cls-1" d="M491.73,2c.17,0,.21.13.42.08.17-.32,0-.83-.42-.77-.14.16-.05.51,0,.69m1.13-.31a.64.64,0,0,0-.56-.93,1.17,1.17,0,0,0,.56.93m-1.48,1.08c-1.74-1.5,1.55-3.57,1.9-1.69.21,1.1-.92,1.67-1.9,1.69"/><path class="cls-1" d="M505.39,1.47c0,.55.95.64.92,0-.18-.43-.62-.1-.92,0m-.78.85c-1-2.18,2.78-2.23,2.32-.38-.16.66-1.69.81-2.32.38"/><path class="cls-1" d="M473.08,1.8a.81.81,0,0,0-.49-.93c.24.22.06.91.49.93m.63.31c-.48.83-2.08.8-2.25-.16-.37-2.09,2.44-2.54,2.25.16"/><path class="cls-1" d="M465.27.63c1.59-.29,1.55,2.22.14,2.16a1.09,1.09,0,0,1-.14-2.16"/><path class="cls-1" d="M498.71.84a1.36,1.36,0,0,1,1.55,1.31c-.05.67-1.82,1.48-2.39.61a1.4,1.4,0,0,1,.85-1.93"/><path class="cls-1" d="M544.58,1.76c-.13-.17-.24-.36-.56-.31-.13.43.45.62.56.31m-1.41-1c.94-.54,2.34-.77,2.32.62,0,.85-.93,1.28-1.83,1.15-.54-.14-.67-1.11-.49-1.77"/><path class="cls-1" d="M575.48,1.66c.18.06.28.21.49.23a1.35,1.35,0,0,0,.35-.69A.72.72,0,0,0,575.7,1c.1.41-.13.47-.21.69M575,.5c1.13-.69,2.46.45,2.11,1.31a2,2,0,0,1-1.9.77c-.56-.2-.69-1.52-.21-2.08"/><path class="cls-1" d="M537.82,1.29h-.28c-.1.46.53.34.28,0m-.7.38a.54.54,0,0,0-.07-.39h-.21c0,.25.08.37.28.39m-1.06.38A1.58,1.58,0,0,1,536.14.9c.42-.85,1.63-.63,2.18-.07.83,1.7-1.47,2.13-2.25,1.23"/><path class="cls-1" d="M569.71,2.19c-.55-.32-.51.3,0,0m0-.85a.29.29,0,1,0,.56,0c-.16,0-.42-.15-.56,0m-.14-.93a1.21,1.21,0,0,1,1.48,1c.06.87-1.85,2.11-2.39.92a1.57,1.57,0,0,1,.92-1.93"/><path class="cls-1" d="M550,2.08c.17,0,.21.13.42.08.17-.32,0-.83-.42-.77-.14.16-.05.51,0,.69m1.13-.31a.64.64,0,0,0-.56-.93,1.17,1.17,0,0,0,.56.93m-1.48,1.08c-1.74-1.5,1.55-3.57,1.9-1.69.21,1.1-.92,1.67-1.9,1.69"/><path class="cls-1" d="M563.66,1.56c0,.55.95.64.92,0-.18-.43-.62-.1-.92,0m-.78.85c-1-2.18,2.78-2.23,2.32-.38-.16.66-1.69.81-2.32.38"/><path class="cls-1" d="M531.35,1.89a.81.81,0,0,0-.49-.93c.24.22.06.91.49.93m.63.31c-.48.83-2.08.8-2.25-.16C529.35,0,532.16-.49,532,2.2"/><path class="cls-1" d="M523.54.73c1.59-.29,1.55,2.22.14,2.16a1.09,1.09,0,0,1-.14-2.16"/><path class="cls-1" d="M557,.94a1.36,1.36,0,0,1,1.55,1.31c-.05.67-1.82,1.48-2.39.61A1.4,1.4,0,0,1,557,.94"/><path class="cls-1" d="M603.61,1.86c-.13-.17-.24-.36-.56-.31-.13.43.45.62.56.31m-1.41-1c.94-.54,2.34-.77,2.32.62,0,.85-.93,1.28-1.83,1.15-.54-.14-.67-1.11-.49-1.77"/><path class="cls-1" d="M634.52,1.76c.18.06.28.21.49.23a1.34,1.34,0,0,0,.35-.69.72.72,0,0,0-.63-.23c.1.41-.13.47-.21.69M634,.6c1.13-.69,2.46.45,2.11,1.31a2,2,0,0,1-1.9.77c-.56-.2-.69-1.52-.21-2.08"/><path class="cls-1" d="M596.86,1.39h-.28c-.1.46.53.34.28,0m-.7.38a.54.54,0,0,0-.07-.39h-.21c0,.25.08.37.28.39m-1.06.38A1.58,1.58,0,0,1,595.17,1c.42-.85,1.63-.63,2.18-.07.83,1.7-1.47,2.13-2.25,1.23"/><path class="cls-1" d="M628.74,2.29c-.55-.32-.51.3,0,0m0-.85a.29.29,0,1,0,.56,0c-.16,0-.42-.15-.56,0m-.14-.93a1.21,1.21,0,0,1,1.48,1c.06.87-1.85,2.11-2.39.92a1.57,1.57,0,0,1,.92-1.93"/><path class="cls-1" d="M609,2.18c.17,0,.21.13.42.08.17-.32,0-.83-.42-.77-.14.16-.05.51,0,.69m1.13-.31a.64.64,0,0,0-.56-.93,1.17,1.17,0,0,0,.56.93m-1.48,1.08c-1.74-1.5,1.55-3.57,1.9-1.69.21,1.1-.92,1.67-1.9,1.69"/><path class="cls-1" d="M622.69,1.66c0,.55.95.64.92,0-.18-.43-.62-.1-.92,0m-.78.85c-1-2.18,2.78-2.23,2.32-.38-.16.66-1.69.81-2.32.38"/><path class="cls-1" d="M590.38,2a.81.81,0,0,0-.49-.93c.24.22.06.91.49.93m.63.31c-.48.83-2.08.8-2.25-.16C588.39.05,591.2-.39,591,2.3"/><path class="cls-1" d="M582.57.82c1.59-.29,1.55,2.22.14,2.16a1.09,1.09,0,0,1-.14-2.16"/><path class="cls-1" d="M616,1a1.36,1.36,0,0,1,1.55,1.31c-.05.67-1.82,1.48-2.39.61A1.4,1.4,0,0,1,616,1"/><path class="cls-1" d="M661.88,2c-.13-.17-.24-.36-.56-.31-.13.43.45.62.56.31m-1.41-1c.94-.54,2.34-.77,2.32.62,0,.85-.93,1.28-1.83,1.15-.54-.14-.67-1.11-.49-1.77"/><path class="cls-1" d="M692.78,1.85c.18.06.28.21.49.23a1.35,1.35,0,0,0,.35-.69.72.72,0,0,0-.63-.23c.1.41-.13.47-.21.69M692.29.7c1.13-.69,2.46.45,2.11,1.31a2,2,0,0,1-1.9.77c-.56-.2-.69-1.52-.21-2.08"/><path class="cls-1" d="M655.12,1.48h-.28c-.1.46.53.34.28,0m-.7.38a.54.54,0,0,0-.07-.39h-.21c0,.25.08.37.28.39m-1.06.38a1.58,1.58,0,0,1,.07-1.16c.42-.85,1.63-.63,2.18-.07.83,1.7-1.47,2.13-2.25,1.23"/><path class="cls-1" d="M687,2.38c-.55-.32-.51.3,0,0m0-.85a.29.29,0,1,0,.56,0c-.16,0-.42-.15-.56,0m-.14-.93a1.21,1.21,0,0,1,1.48,1c.06.87-1.85,2.11-2.39.92a1.57,1.57,0,0,1,.92-1.93"/><path class="cls-1" d="M667.3,2.27c.17,0,.21.13.42.08.17-.32,0-.83-.42-.77-.14.16-.05.51,0,.69M668.43,2a.64.64,0,0,0-.56-.93,1.17,1.17,0,0,0,.56.93M666.95,3c-1.74-1.5,1.55-3.57,1.9-1.69.21,1.1-.92,1.67-1.9,1.69"/><path class="cls-1" d="M681,1.76c0,.55.95.64.92,0-.18-.43-.62-.1-.92,0m-.78.85c-1-2.18,2.78-2.23,2.32-.38-.16.66-1.69.81-2.32.38"/><path class="cls-1" d="M648.65,2.09a.81.81,0,0,0-.49-.93c.24.22.06.91.49.93m.63.31c-.48.83-2.08.8-2.25-.16-.37-2.09,2.44-2.54,2.25.16"/><path class="cls-1" d="M640.84.92c1.59-.29,1.55,2.22.14,2.16a1.09,1.09,0,0,1-.14-2.16"/><path class="cls-1" d="M674.27,1.13a1.36,1.36,0,0,1,1.55,1.31c-.05.67-1.82,1.48-2.39.61a1.4,1.4,0,0,1,.85-1.93"/><path class="cls-1" d="M719.15,2.05c-.13-.17-.24-.36-.56-.31-.13.43.45.62.56.31m-1.41-1c.94-.54,2.34-.77,2.32.62,0,.85-.93,1.28-1.83,1.15-.54-.14-.67-1.11-.49-1.77"/><path class="cls-1" d="M750.05,1.95c.18.06.28.21.49.23a1.35,1.35,0,0,0,.35-.69.72.72,0,0,0-.63-.23c.1.41-.13.47-.21.69M749.56.79c1.13-.69,2.46.45,2.11,1.31a2,2,0,0,1-1.9.77c-.56-.2-.69-1.52-.21-2.08"/><path class="cls-1" d="M712.4,1.58h-.28c-.1.46.53.34.28,0m-.7.38a.54.54,0,0,0-.07-.39h-.21c0,.25.08.37.28.39m-1.06.38a1.58,1.58,0,0,1,.07-1.16c.42-.85,1.63-.63,2.18-.07.83,1.7-1.47,2.13-2.25,1.23"/><path class="cls-1" d="M744.28,2.48c-.55-.32-.51.3,0,0m0-.85a.29.29,0,1,0,.56,0c-.16,0-.42-.15-.56,0m-.14-.93a1.21,1.21,0,0,1,1.48,1c.06.87-1.85,2.11-2.39.92a1.57,1.57,0,0,1,.92-1.93"/><path class="cls-1" d="M724.57,2.37c.17,0,.21.13.42.08.17-.32,0-.83-.42-.77-.14.16-.05.51,0,.69m1.13-.31a.64.64,0,0,0-.56-.93,1.17,1.17,0,0,0,.56.93m-1.48,1.08c-1.74-1.5,1.55-3.57,1.9-1.69.21,1.1-.92,1.67-1.9,1.69"/><path class="cls-1" d="M738.23,1.85c0,.55.95.64.92,0-.18-.43-.62-.1-.92,0m-.78.85c-1-2.18,2.78-2.23,2.32-.38-.16.66-1.69.81-2.32.38"/><path class="cls-1" d="M705.92,2.18a.81.81,0,0,0-.49-.93c.24.22.06.91.49.93m.63.31c-.48.83-2.08.8-2.25-.16-.37-2.09,2.44-2.54,2.25.16"/><path class="cls-1" d="M698.11,1c1.59-.29,1.55,2.22.14,2.16A1.09,1.09,0,0,1,698.11,1"/><path class="cls-1" d="M731.54,1.23a1.36,1.36,0,0,1,1.55,1.31c-.05.67-1.82,1.48-2.39.61a1.4,1.4,0,0,1,.85-1.93"/><path class="cls-1" d="M777.42,2.15c-.13-.17-.24-.36-.56-.31-.13.43.45.62.56.31m-1.41-1c.94-.54,2.34-.77,2.32.62,0,.85-.93,1.28-1.83,1.15-.54-.14-.67-1.11-.49-1.77"/><path class="cls-1" d="M770.66,1.68h-.28c-.1.46.53.34.28,0m-.7.38a.54.54,0,0,0-.07-.39h-.21c0,.25.08.37.28.39m-1.06.38A1.58,1.58,0,0,1,769,1.29c.42-.85,1.63-.63,2.18-.07.83,1.7-1.47,2.13-2.25,1.23"/><path class="cls-1" d="M782.84,2.47c.17,0,.21.13.42.08.17-.32,0-.83-.42-.77-.14.16-.05.51,0,.69M784,2.16a.64.64,0,0,0-.56-.93,1.17,1.17,0,0,0,.56.93m-1.48,1.08c-1.74-1.5,1.55-3.57,1.9-1.69.21,1.1-.92,1.67-1.9,1.69"/><path class="cls-1" d="M796.5,1.95c0,.55.95.64.92,0-.18-.43-.62-.1-.92,0m-.78.85c-1-2.18,2.78-2.23,2.32-.38-.16.66-1.69.81-2.32.38"/><path class="cls-1" d="M764.18,2.28a.81.81,0,0,0-.49-.93c.24.22.06.91.49.93m.63.31c-.48.83-2.08.8-2.25-.16-.37-2.09,2.44-2.54,2.25.16"/><path class="cls-1" d="M756.37,1.11c1.59-.29,1.55,2.22.14,2.16a1.09,1.09,0,0,1-.14-2.16"/><path class="cls-1" d="M789.81,1.32a1.36,1.36,0,0,1,1.55,1.31c-.05.67-1.82,1.48-2.39.61a1.4,1.4,0,0,1,.85-1.93"/><path class="cls-1" d="M.79,1.37c.18.06.28.21.49.23A1.35,1.35,0,0,0,1.63.91.72.72,0,0,0,1,.68c.1.41-.13.47-.21.69M.3.21C1.43-.48,2.75.66,2.41,1.53a2,2,0,0,1-1.9.77C-.05,2.1-.19.77.3.21"/><path class="cls-1" d="M28.15,1.57c-.13-.17-.24-.36-.56-.31-.13.43.45.62.56.31m-1.41-1c.94-.54,2.34-.77,2.32.62,0,.85-.93,1.28-1.83,1.15-.54-.14-.67-1.11-.49-1.77"/><path class="cls-1" d="M59.06,1.47c.18.06.28.21.49.23A1.35,1.35,0,0,0,59.9,1a.72.72,0,0,0-.63-.23c.1.41-.13.47-.21.69M58.56.31c1.13-.69,2.46.45,2.11,1.31a2,2,0,0,1-1.9.77c-.56-.2-.69-1.52-.21-2.08"/><path class="cls-1" d="M21.4,1.1h-.28c-.1.46.53.34.28,0m-.7.38a.54.54,0,0,0-.07-.39h-.21c0,.25.08.37.28.39m-1.06.38A1.58,1.58,0,0,1,19.71.71c.42-.85,1.63-.63,2.18-.07.83,1.7-1.47,2.13-2.25,1.23"/><path class="cls-1" d="M53.28,2c-.55-.32-.51.3,0,0m0-.85a.29.29,0,1,0,.56,0c-.16,0-.42-.15-.56,0M53.14.22a1.21,1.21,0,0,1,1.48,1c.06.87-1.85,2.11-2.39.92A1.57,1.57,0,0,1,53.14.22"/><path class="cls-1" d="M33.57,1.89c.17,0,.21.13.42.08.17-.32,0-.83-.42-.77-.14.16-.05.51,0,.69m1.13-.31a.64.64,0,0,0-.56-.93,1.17,1.17,0,0,0,.56.93M33.22,2.66C31.48,1.16,34.76-.91,35.12,1c.21,1.1-.92,1.67-1.9,1.69"/><path class="cls-1" d="M47.23,1.37c0,.55.95.64.92,0-.18-.43-.62-.1-.92,0m-.78.85C45.47,0,49.23,0,48.78,1.84c-.16.66-1.69.81-2.32.38"/><path class="cls-1" d="M14.92,1.7a.81.81,0,0,0-.49-.93c.24.22.06.91.49.93m.63.31c-.48.83-2.08.8-2.25-.16C12.93-.24,15.74-.68,15.55,2"/><path class="cls-1" d="M7.11.53c1.59-.29,1.55,2.22.14,2.16A1.09,1.09,0,0,1,7.11.53"/><path class="cls-1" d="M40.54.74a1.36,1.36,0,0,1,1.55,1.31c-.05.67-1.82,1.48-2.39.61A1.4,1.4,0,0,1,40.54.74"/><path class="cls-1" d="M85.42,1.67c-.13-.17-.24-.36-.56-.31-.13.43.45.62.56.31M84,.66c.94-.54,2.34-.77,2.32.62,0,.85-.93,1.28-1.83,1.15C84,2.29,83.84,1.33,84,.66"/><path class="cls-1" d="M116.33,1.56c.18.06.28.21.49.23a1.35,1.35,0,0,0,.35-.69.72.72,0,0,0-.63-.23c.1.41-.13.47-.21.69M115.84.41c1.13-.69,2.46.45,2.11,1.31a2,2,0,0,1-1.9.77c-.56-.2-.69-1.52-.21-2.08"/><path class="cls-1" d="M78.67,1.19h-.28c-.1.46.53.34.28,0m-.7.38a.54.54,0,0,0-.07-.39h-.21c0,.25.08.37.28.39M76.9,2A1.58,1.58,0,0,1,77,.8C77.39,0,78.61.18,79.16.73,80,2.43,77.69,2.87,76.9,2"/><path class="cls-1" d="M110.55,2.09c-.55-.32-.51.3,0,0m0-.85a.29.29,0,1,0,.56,0c-.16,0-.42-.15-.56,0m-.14-.93a1.21,1.21,0,0,1,1.48,1c.06.87-1.85,2.11-2.39.92a1.57,1.57,0,0,1,.92-1.93"/><path class="cls-1" d="M90.84,2c.17,0,.21.13.42.08.17-.32,0-.83-.42-.77-.14.16-.05.51,0,.69M92,1.68a.64.64,0,0,0-.56-.93,1.17,1.17,0,0,0,.56.93M90.49,2.75C88.75,1.26,92-.81,92.39,1.06c.21,1.1-.92,1.67-1.9,1.69"/><path class="cls-1" d="M104.5,1.47c0,.55.95.64.92,0-.18-.43-.62-.1-.92,0m-.78.85c-1-2.18,2.78-2.23,2.32-.38-.16.66-1.69.81-2.32.38"/><path class="cls-1" d="M72.19,1.8A.81.81,0,0,0,71.7.87c.24.22.06.91.49.93m.63.31c-.48.83-2.08.8-2.25-.16C70.2-.14,73-.59,72.82,2.11"/><path class="cls-1" d="M64.38.63c1.59-.29,1.55,2.22.14,2.16A1.09,1.09,0,0,1,64.38.63"/><path class="cls-1" d="M97.81.84a1.36,1.36,0,0,1,1.55,1.31c-.05.67-1.82,1.48-2.39.61A1.4,1.4,0,0,1,97.81.84"/><path class="cls-1" d="M143.69,1.76c-.13-.17-.24-.36-.56-.31-.13.43.45.62.56.31m-1.41-1c.94-.54,2.34-.77,2.32.62,0,.85-.93,1.28-1.83,1.15-.54-.14-.67-1.11-.49-1.77"/><path class="cls-1" d="M174.59,1.66c.18.06.28.21.49.23a1.35,1.35,0,0,0,.35-.69.72.72,0,0,0-.63-.23c.1.41-.13.47-.21.69M174.1.5c1.13-.69,2.46.45,2.11,1.31a2,2,0,0,1-1.9.77c-.56-.2-.69-1.52-.21-2.08"/><path class="cls-1" d="M136.93,1.29h-.28c-.1.46.53.34.28,0m-.7.38a.54.54,0,0,0-.07-.39h-.21c0,.25.08.37.28.39m-1.06.38A1.58,1.58,0,0,1,135.24.9c.42-.85,1.63-.63,2.18-.07.83,1.7-1.47,2.13-2.25,1.23"/><path class="cls-1" d="M168.82,2.19c-.55-.32-.51.3,0,0m0-.85a.29.29,0,1,0,.56,0c-.16,0-.42-.15-.56,0m-.14-.93a1.21,1.21,0,0,1,1.48,1c.06.87-1.85,2.11-2.39.92a1.57,1.57,0,0,1,.92-1.93"/><path class="cls-1" d="M149.11,2.08c.17,0,.21.13.42.08.17-.32,0-.83-.42-.77-.14.16-.05.51,0,.69m1.13-.31a.64.64,0,0,0-.56-.93,1.17,1.17,0,0,0,.56.93m-1.48,1.08c-1.74-1.5,1.55-3.57,1.9-1.69.21,1.1-.92,1.67-1.9,1.69"/><path class="cls-1" d="M162.77,1.56c0,.55.95.64.92,0-.18-.43-.62-.1-.92,0m-.78.85C161,.23,164.77.18,164.31,2c-.16.66-1.69.81-2.32.38"/><path class="cls-1" d="M130.46,1.89A.81.81,0,0,0,130,1c.24.22.06.91.49.93m.63.31C130.61,3,129,3,128.84,2c-.37-2.09,2.44-2.54,2.25.16"/><path class="cls-1" d="M122.64.73c1.59-.29,1.55,2.22.14,2.16a1.09,1.09,0,0,1-.14-2.16"/><path class="cls-1" d="M156.08.94a1.36,1.36,0,0,1,1.55,1.31c-.05.67-1.82,1.48-2.39.61a1.4,1.4,0,0,1,.85-1.93"/><path class="cls-1" d="M202.72,1.86c-.13-.17-.24-.36-.56-.31-.13.43.45.62.56.31m-1.41-1c.94-.54,2.34-.77,2.32.62,0,.85-.93,1.28-1.83,1.15-.54-.14-.67-1.11-.49-1.77"/><path class="cls-1" d="M233.63,1.76c.18.06.28.21.49.23a1.34,1.34,0,0,0,.35-.69.72.72,0,0,0-.63-.23c.1.41-.13.47-.21.69M233.14.6c1.13-.69,2.46.45,2.11,1.31a2,2,0,0,1-1.9.77c-.56-.2-.69-1.52-.21-2.08"/><path class="cls-1" d="M196,1.39h-.28c-.1.46.53.34.28,0m-.7.38a.54.54,0,0,0-.07-.39H195c0,.25.08.37.28.39m-1.06.38A1.58,1.58,0,0,1,194.28,1c.42-.85,1.63-.63,2.18-.07.83,1.7-1.47,2.13-2.25,1.23"/><path class="cls-1" d="M227.85,2.29c-.55-.32-.51.3,0,0m0-.85a.29.29,0,1,0,.56,0c-.16,0-.42-.15-.56,0m-.14-.93a1.21,1.21,0,0,1,1.48,1c.06.87-1.85,2.11-2.39.92a1.57,1.57,0,0,1,.92-1.93"/><path class="cls-1" d="M208.14,2.18c.17,0,.21.13.42.08.17-.32,0-.83-.42-.77-.14.16-.05.51,0,.69m1.13-.31a.64.64,0,0,0-.56-.93,1.17,1.17,0,0,0,.56.93m-1.48,1.08c-1.74-1.5,1.55-3.57,1.9-1.69.21,1.1-.92,1.67-1.9,1.69"/><path class="cls-1" d="M221.8,1.66c0,.55.95.64.92,0-.18-.43-.62-.1-.92,0m-.78.85c-1-2.18,2.78-2.23,2.32-.38-.16.66-1.69.81-2.32.38"/><path class="cls-1" d="M189.49,2a.81.81,0,0,0-.49-.93c.24.22.06.91.49.93m.63.31c-.48.83-2.08.8-2.25-.16-.37-2.09,2.44-2.54,2.25.16"/><path class="cls-1" d="M181.68.82c1.59-.29,1.55,2.22.14,2.16a1.09,1.09,0,0,1-.14-2.16"/><path class="cls-1" d="M215.11,1a1.36,1.36,0,0,1,1.55,1.31c-.05.67-1.82,1.48-2.39.61A1.4,1.4,0,0,1,215.11,1"/><path class="cls-1" d="M261,2c-.13-.17-.24-.36-.56-.31-.13.43.45.62.56.31m-1.41-1c.94-.54,2.34-.77,2.32.62,0,.85-.93,1.28-1.83,1.15-.54-.14-.67-1.11-.49-1.77"/><path class="cls-1" d="M291.89,1.85c.18.06.28.21.49.23a1.35,1.35,0,0,0,.35-.69.72.72,0,0,0-.63-.23c.1.41-.13.47-.21.69M291.4.7c1.13-.69,2.46.45,2.11,1.31a2,2,0,0,1-1.9.77c-.56-.2-.69-1.52-.21-2.08"/><path class="cls-1" d="M254.23,1.48H254c-.1.46.53.34.28,0m-.7.38a.54.54,0,0,0-.07-.39h-.21c0,.25.08.37.28.39m-1.06.38a1.58,1.58,0,0,1,.07-1.16c.42-.85,1.63-.63,2.18-.07.83,1.7-1.47,2.13-2.25,1.23"/><path class="cls-1" d="M286.12,2.38c-.55-.32-.51.3,0,0m0-.85a.29.29,0,1,0,.56,0c-.16,0-.42-.15-.56,0M286,.61a1.21,1.21,0,0,1,1.48,1c.06.87-1.85,2.11-2.39.92A1.57,1.57,0,0,1,286,.61"/><path class="cls-1" d="M266.41,2.27c.17,0,.21.13.42.08.17-.32,0-.83-.42-.77-.14.16-.05.51,0,.69M267.54,2A.64.64,0,0,0,267,1a1.17,1.17,0,0,0,.56.93M266.06,3c-1.74-1.5,1.55-3.57,1.9-1.69.21,1.1-.92,1.67-1.9,1.69"/><path class="cls-1" d="M280.07,1.76c0,.55.95.64.92,0-.18-.43-.62-.1-.92,0m-.78.85c-1-2.18,2.78-2.23,2.32-.38-.16.66-1.69.81-2.32.38"/><path class="cls-1" d="M247.76,2.09a.81.81,0,0,0-.49-.93c.24.22.06.91.49.93m.63.31c-.48.83-2.08.8-2.25-.16-.37-2.09,2.44-2.54,2.25.16"/><path class="cls-1" d="M239.94.92c1.59-.29,1.55,2.22.14,2.16a1.09,1.09,0,0,1-.14-2.16"/><path class="cls-1" d="M273.38,1.13a1.36,1.36,0,0,1,1.55,1.31c-.05.67-1.82,1.48-2.39.61a1.4,1.4,0,0,1,.85-1.93"/><path class="cls-1" d="M318.26,2.05c-.13-.17-.24-.36-.56-.31-.13.43.45.62.56.31m-1.41-1c.94-.54,2.34-.77,2.32.62,0,.85-.93,1.28-1.83,1.15-.54-.14-.67-1.11-.49-1.77"/><path class="cls-1" d="M349.16,1.95c.18.06.28.21.49.23a1.35,1.35,0,0,0,.35-.69.72.72,0,0,0-.63-.23c.1.41-.13.47-.21.69M348.67.79c1.13-.69,2.46.45,2.11,1.31a2,2,0,0,1-1.9.77c-.56-.2-.69-1.52-.21-2.08"/><path class="cls-1" d="M311.5,1.58h-.28c-.1.46.53.34.28,0m-.7.38a.54.54,0,0,0-.07-.39h-.21c0,.25.08.37.28.39m-1.06.38a1.58,1.58,0,0,1,.07-1.16c.42-.85,1.63-.63,2.18-.07.83,1.7-1.47,2.13-2.25,1.23"/><path class="cls-1" d="M343.39,2.48c-.55-.32-.51.3,0,0m0-.85a.29.29,0,1,0,.56,0c-.16,0-.42-.15-.56,0m-.14-.93a1.21,1.21,0,0,1,1.48,1c.06.87-1.85,2.11-2.39.92a1.57,1.57,0,0,1,.92-1.93"/><path class="cls-1" d="M323.68,2.37c.17,0,.21.13.42.08.17-.32,0-.83-.42-.77-.14.16-.05.51,0,.69m1.13-.31a.64.64,0,0,0-.56-.93,1.17,1.17,0,0,0,.56.93m-1.48,1.08c-1.74-1.5,1.55-3.57,1.9-1.69.21,1.1-.92,1.67-1.9,1.69"/><path class="cls-1" d="M337.34,1.85c0,.55.95.64.92,0-.18-.43-.62-.1-.92,0m-.78.85c-1-2.18,2.78-2.23,2.32-.38-.16.66-1.69.81-2.32.38"/><path class="cls-1" d="M305,2.18a.81.81,0,0,0-.49-.93c.24.22.06.91.49.93m.63.31c-.48.83-2.08.8-2.25-.16-.37-2.09,2.44-2.54,2.25.16"/><path class="cls-1" d="M297.21,1c1.59-.29,1.55,2.22.14,2.16A1.09,1.09,0,0,1,297.21,1"/><path class="cls-1" d="M330.65,1.23a1.36,1.36,0,0,1,1.55,1.31c-.05.67-1.82,1.48-2.39.61a1.4,1.4,0,0,1,.85-1.93"/><path class="cls-1" d="M376.53,2.15c-.13-.17-.24-.36-.56-.31-.13.43.45.62.56.31m-1.41-1c.94-.54,2.34-.77,2.32.62,0,.85-.93,1.28-1.83,1.15-.54-.14-.67-1.11-.49-1.77"/><path class="cls-1" d="M369.77,1.68h-.28c-.1.46.53.34.28,0m-.7.38a.54.54,0,0,0-.07-.39h-.21c0,.25.08.37.28.39M368,2.44a1.58,1.58,0,0,1,.07-1.16c.42-.85,1.63-.63,2.18-.07.83,1.7-1.47,2.13-2.25,1.23"/><path class="cls-1" d="M381.95,2.47c.17,0,.21.13.42.08.17-.32,0-.83-.42-.77-.14.16-.05.51,0,.69m1.13-.31a.64.64,0,0,0-.56-.93,1.17,1.17,0,0,0,.56.93m-1.48,1.08c-1.74-1.5,1.55-3.57,1.9-1.69.21,1.1-.92,1.67-1.9,1.69"/><path class="cls-1" d="M395.6,1.95c0,.55.95.64.92,0-.18-.43-.62-.1-.92,0m-.78.85c-1-2.18,2.78-2.23,2.32-.38-.16.66-1.69.81-2.32.38"/><path class="cls-1" d="M363.29,2.28a.81.81,0,0,0-.49-.93c.24.22.06.91.49.93m.63.31c-.48.83-2.08.8-2.25-.16-.37-2.09,2.44-2.54,2.25.16"/><path class="cls-1" d="M355.48,1.11c1.59-.29,1.55,2.22.14,2.16a1.09,1.09,0,0,1-.14-2.16"/><path class="cls-1" d="M388.92,1.32a1.36,1.36,0,0,1,1.55,1.31c-.05.67-1.82,1.48-2.39.61a1.4,1.4,0,0,1,.85-1.93"/><path class="cls-1" d="M800.75,69.5c.18.06.28.21.49.23a1.35,1.35,0,0,0,.35-.69.72.72,0,0,0-.63-.23c.1.41-.13.47-.21.69m-.49-1.16c1.13-.69,2.46.45,2.11,1.31a2,2,0,0,1-1.9.77c-.56-.2-.69-1.52-.21-2.08"/><path class="cls-1" d="M828.11,69.69c-.13-.17-.24-.36-.56-.31-.13.43.45.62.56.31m-1.41-1c.94-.54,2.34-.77,2.32.62,0,.85-.93,1.28-1.83,1.15-.54-.14-.67-1.11-.49-1.77"/><path class="cls-1" d="M859,69.59c.18.06.28.21.49.23a1.35,1.35,0,0,0,.35-.69.72.72,0,0,0-.63-.23c.1.41-.13.47-.21.69m-.49-1.16c1.13-.69,2.46.45,2.11,1.31a2,2,0,0,1-1.9.77c-.56-.2-.69-1.52-.21-2.08"/><path class="cls-1" d="M821.35,69.22h-.28c-.1.46.53.34.28,0m-.7.38a.54.54,0,0,0-.07-.39h-.21c0,.25.08.37.28.39m-1.06.38a1.58,1.58,0,0,1,.07-1.16c.42-.85,1.63-.63,2.18-.07.83,1.7-1.47,2.13-2.25,1.23"/><path class="cls-1" d="M853.24,70.12c-.55-.32-.51.3,0,0m0-.85a.29.29,0,1,0,.56,0c-.16,0-.42-.15-.56,0m-.14-.93a1.21,1.21,0,0,1,1.48,1c.06.87-1.85,2.11-2.39.92a1.57,1.57,0,0,1,.92-1.93"/><path class="cls-1" d="M833.53,70c.17,0,.21.13.42.08.17-.32,0-.83-.42-.77-.14.16-.05.51,0,.69m1.13-.31a.64.64,0,0,0-.56-.93,1.17,1.17,0,0,0,.56.93m-1.48,1.08c-1.74-1.5,1.55-3.57,1.9-1.69.21,1.1-.92,1.67-1.9,1.69"/><path class="cls-1" d="M847.19,69.49c0,.55.95.64.92,0-.18-.43-.62-.1-.92,0m-.78.85c-1-2.18,2.78-2.23,2.32-.38-.16.66-1.69.81-2.32.38"/><path class="cls-1" d="M814.87,69.83a.81.81,0,0,0-.49-.93c.24.22.06.91.49.93m.63.31c-.48.83-2.08.8-2.25-.16-.37-2.09,2.44-2.54,2.25.16"/><path class="cls-1" d="M807.06,68.66c1.59-.29,1.55,2.22.14,2.16a1.09,1.09,0,0,1-.14-2.16"/><path class="cls-1" d="M840.5,68.87A1.36,1.36,0,0,1,842,70.18c-.05.67-1.82,1.48-2.39.61a1.4,1.4,0,0,1,.85-1.93"/><path class="cls-1" d="M885.38,69.79c-.13-.17-.24-.36-.56-.31-.13.43.45.62.56.31m-1.41-1c.94-.54,2.34-.77,2.32.62,0,.85-.93,1.28-1.83,1.15-.54-.14-.67-1.11-.49-1.77"/><path class="cls-1" d="M916.28,69.69c.18.06.28.21.49.23a1.35,1.35,0,0,0,.35-.69.72.72,0,0,0-.63-.23c.1.41-.13.47-.21.69m-.49-1.16c1.13-.69,2.46.45,2.11,1.31a2,2,0,0,1-1.9.77c-.56-.2-.69-1.52-.21-2.08"/><path class="cls-1" d="M878.62,69.32h-.28c-.1.46.53.34.28,0m-.7.38a.54.54,0,0,0-.07-.39h-.21c0,.25.08.37.28.39m-1.06.38a1.58,1.58,0,0,1,.07-1.16c.42-.85,1.63-.63,2.18-.07.83,1.7-1.47,2.13-2.25,1.23"/><path class="cls-1" d="M910.51,70.22c-.55-.32-.51.3,0,0m0-.85a.29.29,0,1,0,.56,0c-.16,0-.42-.15-.56,0m-.14-.93a1.21,1.21,0,0,1,1.48,1c.06.87-1.85,2.11-2.39.92a1.57,1.57,0,0,1,.92-1.93"/><path class="cls-1" d="M890.8,70.11c.17,0,.21.13.42.08.17-.32,0-.83-.42-.77-.14.16-.05.51,0,.69m1.13-.31a.64.64,0,0,0-.56-.93,1.17,1.17,0,0,0,.56.93m-1.48,1.08c-1.74-1.5,1.55-3.57,1.9-1.69.21,1.1-.92,1.67-1.9,1.69"/><path class="cls-1" d="M904.46,69.59c0,.55.95.64.92,0-.18-.43-.62-.1-.92,0m-.78.85c-1-2.18,2.78-2.23,2.32-.38-.16.66-1.69.81-2.32.38"/><path class="cls-1" d="M872.15,69.92a.81.81,0,0,0-.49-.93c.24.22.06.91.49.93m.63.31c-.48.83-2.08.8-2.25-.16-.37-2.09,2.44-2.54,2.25.16"/><path class="cls-1" d="M864.33,68.75c1.59-.29,1.55,2.22.14,2.16a1.09,1.09,0,0,1-.14-2.16"/><path class="cls-1" d="M897.77,69a1.36,1.36,0,0,1,1.55,1.31c-.05.67-1.82,1.48-2.39.61a1.4,1.4,0,0,1,.85-1.93"/><path class="cls-1" d="M943.65,69.89c-.13-.17-.24-.36-.56-.31-.13.43.45.62.56.31m-1.41-1c.94-.54,2.34-.77,2.32.62,0,.85-.93,1.28-1.83,1.15-.54-.14-.67-1.11-.49-1.77"/><path class="cls-1" d="M974.55,69.78c.18.06.28.21.49.23a1.35,1.35,0,0,0,.35-.69.72.72,0,0,0-.63-.23c.1.41-.13.47-.21.69m-.49-1.16c1.13-.69,2.46.45,2.11,1.31a2,2,0,0,1-1.9.77c-.56-.2-.69-1.52-.21-2.08"/><path class="cls-1" d="M936.89,69.41h-.28c-.1.46.53.34.28,0m-.7.38a.54.54,0,0,0-.07-.39h-.21c0,.25.08.37.28.39m-1.06.38A1.58,1.58,0,0,1,935.2,69c.42-.85,1.63-.63,2.18-.07.83,1.7-1.47,2.13-2.25,1.23"/><path class="cls-1" d="M968.78,70.31c-.55-.32-.51.3,0,0m0-.85a.29.29,0,1,0,.56,0c-.16,0-.42-.15-.56,0m-.14-.93a1.21,1.21,0,0,1,1.48,1c.06.87-1.85,2.11-2.39.92a1.57,1.57,0,0,1,.92-1.93"/><path class="cls-1" d="M949.07,70.2c.17,0,.21.13.42.08.17-.32,0-.83-.42-.77-.14.16-.05.51,0,.69m1.13-.31a.64.64,0,0,0-.56-.93,1.17,1.17,0,0,0,.56.93M948.71,71c-1.74-1.5,1.55-3.57,1.9-1.69.21,1.1-.92,1.67-1.9,1.69"/><path class="cls-1" d="M962.72,69.69c0,.55.95.64.92,0-.18-.43-.62-.1-.92,0m-.78.85c-1-2.18,2.78-2.23,2.32-.38-.16.66-1.69.81-2.32.38"/><path class="cls-1" d="M930.41,70a.81.81,0,0,0-.49-.93c.24.22.06.91.49.93m.63.31c-.48.83-2.08.8-2.25-.16-.37-2.09,2.44-2.54,2.25.16"/><path class="cls-1" d="M922.6,68.85c1.59-.29,1.55,2.22.14,2.16a1.09,1.09,0,0,1-.14-2.16"/><path class="cls-1" d="M956,69.06a1.36,1.36,0,0,1,1.55,1.31c-.05.67-1.82,1.48-2.39.61a1.4,1.4,0,0,1,.85-1.93"/><path class="cls-1" d="M1002.68,70c-.13-.17-.24-.36-.56-.31-.13.43.45.62.56.31m-1.41-1c.94-.54,2.34-.77,2.32.62,0,.85-.93,1.28-1.83,1.15-.54-.14-.67-1.11-.49-1.77"/><path class="cls-1" d="M1033.58,69.88c.18.06.28.21.49.23a1.34,1.34,0,0,0,.35-.69.72.72,0,0,0-.63-.23c.1.41-.13.47-.21.69m-.49-1.16c1.13-.69,2.46.45,2.11,1.31a2,2,0,0,1-1.9.77c-.56-.2-.69-1.52-.21-2.08"/><path class="cls-1" d="M995.92,69.51h-.28c-.1.46.53.34.28,0m-.7.38a.54.54,0,0,0-.07-.39h-.21c0,.25.08.37.28.39m-1.06.38a1.58,1.58,0,0,1,.07-1.16c.42-.85,1.63-.63,2.18-.07.83,1.7-1.47,2.13-2.25,1.23"/><path class="cls-1" d="M1027.81,70.41c-.55-.32-.51.3,0,0m0-.85a.29.29,0,1,0,.56,0c-.16,0-.42-.15-.56,0m-.14-.93a1.21,1.21,0,0,1,1.48,1c.06.87-1.85,2.11-2.39.92a1.57,1.57,0,0,1,.92-1.93"/><path class="cls-1" d="M1008.1,70.3c.17,0,.21.13.42.08.17-.32,0-.83-.42-.77-.14.16-.05.51,0,.69m1.13-.31a.64.64,0,0,0-.56-.93,1.17,1.17,0,0,0,.56.93m-1.48,1.08c-1.74-1.5,1.55-3.57,1.9-1.69.21,1.1-.92,1.67-1.9,1.69"/><path class="cls-1" d="M1021.76,69.78c0,.55.95.64.92,0-.18-.43-.62-.1-.92,0m-.78.85c-1-2.18,2.78-2.23,2.32-.38-.16.66-1.69.81-2.32.38"/><path class="cls-1" d="M989.45,70.12a.81.81,0,0,0-.49-.93c.24.22.06.91.49.93m.63.31c-.48.83-2.08.8-2.25-.16-.37-2.09,2.44-2.54,2.25.16"/><path class="cls-1" d="M981.63,68.95c1.59-.29,1.55,2.22.14,2.16a1.09,1.09,0,0,1-.14-2.16"/><path class="cls-1" d="M1015.07,69.16a1.36,1.36,0,0,1,1.55,1.31c-.05.67-1.82,1.48-2.39.61a1.4,1.4,0,0,1,.85-1.93"/><path class="cls-1" d="M1060.95,70.08c-.13-.17-.24-.36-.56-.31-.13.43.45.62.56.31m-1.41-1c.94-.54,2.34-.77,2.32.62,0,.85-.93,1.28-1.83,1.15-.54-.14-.67-1.11-.49-1.77"/><path class="cls-1" d="M1091.85,70c.18.06.28.21.49.23a1.35,1.35,0,0,0,.35-.69.72.72,0,0,0-.63-.23c.1.41-.13.47-.21.69m-.49-1.16c1.13-.69,2.46.45,2.11,1.31a2,2,0,0,1-1.9.77c-.56-.2-.69-1.52-.21-2.08"/><path class="cls-1" d="M1054.19,69.61h-.28c-.1.46.53.34.28,0m-.7.38a.54.54,0,0,0-.07-.39h-.21c0,.25.08.37.28.39m-1.06.38a1.58,1.58,0,0,1,.07-1.16c.42-.85,1.63-.63,2.18-.07.83,1.7-1.47,2.13-2.25,1.23"/><path class="cls-1" d="M1086.08,70.51c-.55-.32-.51.3,0,0m0-.85a.29.29,0,1,0,.56,0c-.16,0-.42-.15-.56,0m-.14-.93a1.21,1.21,0,0,1,1.48,1c.06.87-1.85,2.11-2.39.92a1.57,1.57,0,0,1,.92-1.93"/><path class="cls-1" d="M1066.37,70.4c.17,0,.21.13.42.08.17-.32,0-.83-.42-.77-.14.16-.05.51,0,.69m1.13-.31a.64.64,0,0,0-.56-.93,1.17,1.17,0,0,0,.56.93M1066,71.17c-1.74-1.5,1.55-3.57,1.9-1.69.21,1.1-.92,1.67-1.9,1.69"/><path class="cls-1" d="M1080,69.88c0,.55.95.64.92,0-.18-.43-.62-.1-.92,0m-.78.85c-1-2.18,2.78-2.23,2.32-.38-.16.66-1.69.81-2.32.38"/><path class="cls-1" d="M1047.71,70.21a.81.81,0,0,0-.49-.93c.24.22.06.91.49.93m.63.31c-.48.83-2.08.8-2.25-.16-.37-2.09,2.44-2.54,2.25.16"/><path class="cls-1" d="M1039.9,69c1.59-.29,1.55,2.22.14,2.16a1.09,1.09,0,0,1-.14-2.16"/><path class="cls-1" d="M1073.34,69.25a1.36,1.36,0,0,1,1.55,1.31c-.05.67-1.82,1.48-2.39.61a1.4,1.4,0,0,1,.85-1.93"/><path class="cls-1" d="M1118.22,70.18c-.13-.17-.24-.36-.56-.31-.13.43.45.62.56.31m-1.41-1c.94-.54,2.34-.77,2.32.62,0,.85-.93,1.28-1.83,1.15-.54-.14-.67-1.11-.49-1.77"/><path class="cls-1" d="M1149.12,70.07c.18.06.28.21.49.23a1.35,1.35,0,0,0,.35-.69.72.72,0,0,0-.63-.23c.1.41-.13.47-.21.69m-.49-1.16c1.13-.69,2.46.45,2.11,1.31a2,2,0,0,1-1.9.77c-.56-.2-.69-1.52-.21-2.08"/><path class="cls-1" d="M1111.46,69.7h-.28c-.1.46.53.34.28,0m-.7.38a.54.54,0,0,0-.07-.39h-.21c0,.25.08.37.28.39m-1.06.38a1.58,1.58,0,0,1,.07-1.16c.42-.85,1.63-.63,2.18-.07.83,1.7-1.47,2.13-2.25,1.23"/><path class="cls-1" d="M1143.35,70.6c-.55-.32-.51.3,0,0m0-.85a.29.29,0,1,0,.56,0c-.16,0-.42-.15-.56,0m-.14-.93a1.21,1.21,0,0,1,1.48,1c.06.87-1.85,2.11-2.39.92a1.57,1.57,0,0,1,.92-1.93"/><path class="cls-1" d="M1123.64,70.49c.17,0,.21.13.42.08.17-.32,0-.83-.42-.77-.14.16-.05.51,0,.69m1.13-.31a.64.64,0,0,0-.56-.93,1.17,1.17,0,0,0,.56.93m-1.48,1.08c-1.74-1.5,1.55-3.57,1.9-1.69.21,1.1-.92,1.67-1.9,1.69"/><path class="cls-1" d="M1137.29,70c0,.55.95.64.92,0-.18-.43-.62-.1-.92,0m-.78.85c-1-2.18,2.78-2.23,2.32-.38-.16.66-1.69.81-2.32.38"/><path class="cls-1" d="M1105,70.31a.81.81,0,0,0-.49-.93c.24.22.06.91.49.93m.63.31c-.48.83-2.08.8-2.25-.16-.37-2.09,2.44-2.54,2.25.16"/><path class="cls-1" d="M1097.17,69.14c1.59-.29,1.55,2.22.14,2.16a1.09,1.09,0,0,1-.14-2.16"/><path class="cls-1" d="M1130.61,69.35a1.36,1.36,0,0,1,1.55,1.31c-.05.67-1.82,1.48-2.39.61a1.4,1.4,0,0,1,.85-1.93"/><path class="cls-1" d="M1176.48,70.27c-.13-.17-.24-.36-.56-.31-.13.43.45.62.56.31m-1.41-1c.94-.54,2.34-.77,2.32.62,0,.85-.93,1.28-1.83,1.15-.54-.14-.67-1.11-.49-1.77"/><path class="cls-1" d="M1169.73,69.8h-.28c-.1.46.53.34.28,0m-.7.38a.54.54,0,0,0-.07-.39h-.21c0,.25.08.37.28.39m-1.06.38a1.58,1.58,0,0,1,.07-1.16c.42-.85,1.63-.63,2.18-.07.83,1.7-1.47,2.13-2.25,1.23"/><path class="cls-1" d="M1181.9,70.59c.17,0,.21.13.42.08.17-.32,0-.83-.42-.77-.14.16-.05.51,0,.69m1.13-.31a.64.64,0,0,0-.56-.93,1.17,1.17,0,0,0,.56.93m-1.48,1.08c-1.74-1.5,1.55-3.57,1.9-1.69.21,1.1-.92,1.67-1.9,1.69"/><path class="cls-1" d="M1195.56,70.07c0,.55.95.64.92,0-.18-.43-.62-.1-.92,0m-.78.85c-1-2.18,2.78-2.23,2.32-.38-.16.66-1.69.81-2.32.38"/><path class="cls-1" d="M1163.25,70.41a.81.81,0,0,0-.49-.93c.24.22.06.91.49.93m.63.31c-.48.83-2.08.8-2.25-.16-.37-2.09,2.44-2.54,2.25.16"/><path class="cls-1" d="M1155.44,69.24c1.59-.29,1.55,2.22.14,2.16a1.09,1.09,0,0,1-.14-2.16"/><path class="cls-1" d="M1188.87,69.45a1.36,1.36,0,0,1,1.55,1.31c-.05.67-1.82,1.48-2.39.61a1.4,1.4,0,0,1,.85-1.93"/><path class="cls-1" d="M401.68,69.5c.18.06.28.21.49.23a1.35,1.35,0,0,0,.35-.69.72.72,0,0,0-.63-.23c.1.41-.13.47-.21.69m-.49-1.16c1.13-.69,2.46.45,2.11,1.31a2,2,0,0,1-1.9.77c-.56-.2-.69-1.52-.21-2.08"/><path class="cls-1" d="M429,69.69c-.13-.17-.24-.36-.56-.31-.13.43.45.62.56.31m-1.41-1c.94-.54,2.34-.77,2.32.62,0,.85-.93,1.28-1.83,1.15-.54-.14-.67-1.11-.49-1.77"/><path class="cls-1" d="M459.95,69.59c.18.06.28.21.49.23a1.35,1.35,0,0,0,.35-.69.72.72,0,0,0-.63-.23c.1.41-.13.47-.21.69m-.49-1.16c1.13-.69,2.46.45,2.11,1.31a2,2,0,0,1-1.9.77c-.56-.2-.69-1.52-.21-2.08"/><path class="cls-1" d="M422.29,69.22H422c-.1.46.53.34.28,0m-.7.38a.54.54,0,0,0-.07-.39h-.21c0,.25.08.37.28.39m-1.06.38a1.58,1.58,0,0,1,.07-1.16c.42-.85,1.63-.63,2.18-.07.83,1.7-1.47,2.13-2.25,1.23"/><path class="cls-1" d="M454.17,70.12c-.55-.32-.51.3,0,0m0-.85a.29.29,0,1,0,.56,0c-.16,0-.42-.15-.56,0m-.14-.93a1.21,1.21,0,0,1,1.48,1c.06.87-1.85,2.11-2.39.92a1.57,1.57,0,0,1,.92-1.93"/><path class="cls-1" d="M434.46,70c.17,0,.21.13.42.08.17-.32,0-.83-.42-.77-.14.16-.05.51,0,.69m1.13-.31a.64.64,0,0,0-.56-.93,1.17,1.17,0,0,0,.56.93m-1.48,1.08c-1.74-1.5,1.55-3.57,1.9-1.69.21,1.1-.92,1.67-1.9,1.69"/><path class="cls-1" d="M448.12,69.49c0,.55.95.64.92,0-.18-.43-.62-.1-.92,0m-.78.85c-1-2.18,2.78-2.23,2.32-.38-.16.66-1.69.81-2.32.38"/><path class="cls-1" d="M415.81,69.83a.81.81,0,0,0-.49-.93c.24.22.06.91.49.93m.63.31c-.48.83-2.08.8-2.25-.16-.37-2.09,2.44-2.54,2.25.16"/><path class="cls-1" d="M408,68.66c1.59-.29,1.55,2.22.14,2.16a1.09,1.09,0,0,1-.14-2.16"/><path class="cls-1" d="M441.43,68.87A1.36,1.36,0,0,1,443,70.18c-.05.67-1.82,1.48-2.39.61a1.4,1.4,0,0,1,.85-1.93"/><path class="cls-1" d="M486.31,69.79c-.13-.17-.24-.36-.56-.31-.13.43.45.62.56.31m-1.41-1c.94-.54,2.34-.77,2.32.62,0,.85-.93,1.28-1.83,1.15-.54-.14-.67-1.11-.49-1.77"/><path class="cls-1" d="M517.22,69.69c.18.06.28.21.49.23a1.35,1.35,0,0,0,.35-.69.72.72,0,0,0-.63-.23c.1.41-.13.47-.21.69m-.49-1.16c1.13-.69,2.46.45,2.11,1.31a2,2,0,0,1-1.9.77c-.56-.2-.69-1.52-.21-2.08"/><path class="cls-1" d="M479.56,69.32h-.28c-.1.46.53.34.28,0m-.7.38a.54.54,0,0,0-.07-.39h-.21c0,.25.08.37.28.39m-1.06.38a1.58,1.58,0,0,1,.07-1.16c.42-.85,1.63-.63,2.18-.07.83,1.7-1.47,2.13-2.25,1.23"/><path class="cls-1" d="M511.44,70.22c-.55-.32-.51.3,0,0m0-.85a.29.29,0,1,0,.56,0c-.16,0-.42-.15-.56,0m-.14-.93a1.21,1.21,0,0,1,1.48,1c.06.87-1.85,2.11-2.39.92a1.57,1.57,0,0,1,.92-1.93"/><path class="cls-1" d="M491.73,70.11c.17,0,.21.13.42.08.17-.32,0-.83-.42-.77-.14.16-.05.51,0,.69m1.13-.31a.64.64,0,0,0-.56-.93,1.17,1.17,0,0,0,.56.93m-1.48,1.08c-1.74-1.5,1.55-3.57,1.9-1.69.21,1.1-.92,1.67-1.9,1.69"/><path class="cls-1" d="M505.39,69.59c0,.55.95.64.92,0-.18-.43-.62-.1-.92,0m-.78.85c-1-2.18,2.78-2.23,2.32-.38-.16.66-1.69.81-2.32.38"/><path class="cls-1" d="M473.08,69.92a.81.81,0,0,0-.49-.93c.24.22.06.91.49.93m.63.31c-.48.83-2.08.8-2.25-.16-.37-2.09,2.44-2.54,2.25.16"/><path class="cls-1" d="M465.27,68.75c1.59-.29,1.55,2.22.14,2.16a1.09,1.09,0,0,1-.14-2.16"/><path class="cls-1" d="M498.71,69a1.36,1.36,0,0,1,1.55,1.31c-.05.67-1.82,1.48-2.39.61a1.4,1.4,0,0,1,.85-1.93"/><path class="cls-1" d="M544.58,69.89c-.13-.17-.24-.36-.56-.31-.13.43.45.62.56.31m-1.41-1c.94-.54,2.34-.77,2.32.62,0,.85-.93,1.28-1.83,1.15-.54-.14-.67-1.11-.49-1.77"/><path class="cls-1" d="M575.48,69.78c.18.06.28.21.49.23a1.35,1.35,0,0,0,.35-.69.72.72,0,0,0-.63-.23c.1.41-.13.47-.21.69M575,68.63c1.13-.69,2.46.45,2.11,1.31a2,2,0,0,1-1.9.77c-.56-.2-.69-1.52-.21-2.08"/><path class="cls-1" d="M537.82,69.41h-.28c-.1.46.53.34.28,0m-.7.38a.54.54,0,0,0-.07-.39h-.21c0,.25.08.37.28.39m-1.06.38a1.58,1.58,0,0,1,.07-1.16c.42-.85,1.63-.63,2.18-.07.83,1.7-1.47,2.13-2.25,1.23"/><path class="cls-1" d="M569.71,70.31c-.55-.32-.51.3,0,0m0-.85a.29.29,0,1,0,.56,0c-.16,0-.42-.15-.56,0m-.14-.93a1.21,1.21,0,0,1,1.48,1c.06.87-1.85,2.11-2.39.92a1.57,1.57,0,0,1,.92-1.93"/><path class="cls-1" d="M550,70.2c.17,0,.21.13.42.08.17-.32,0-.83-.42-.77-.14.16-.05.51,0,.69m1.13-.31a.64.64,0,0,0-.56-.93,1.17,1.17,0,0,0,.56.93M549.65,71c-1.74-1.5,1.55-3.57,1.9-1.69.21,1.1-.92,1.67-1.9,1.69"/><path class="cls-1" d="M563.66,69.69c0,.55.95.64.92,0-.18-.43-.62-.1-.92,0m-.78.85c-1-2.18,2.78-2.23,2.32-.38-.16.66-1.69.81-2.32.38"/><path class="cls-1" d="M531.35,70a.81.81,0,0,0-.49-.93c.24.22.06.91.49.93m.63.31c-.48.83-2.08.8-2.25-.16-.37-2.09,2.44-2.54,2.25.16"/><path class="cls-1" d="M523.54,68.85c1.59-.29,1.55,2.22.14,2.16a1.09,1.09,0,0,1-.14-2.16"/><path class="cls-1" d="M557,69.06a1.36,1.36,0,0,1,1.55,1.31c-.05.67-1.82,1.48-2.39.61a1.4,1.4,0,0,1,.85-1.93"/><path class="cls-1" d="M603.61,70c-.13-.17-.24-.36-.56-.31-.13.43.45.62.56.31m-1.41-1c.94-.54,2.34-.77,2.32.62,0,.85-.93,1.28-1.83,1.15-.54-.14-.67-1.11-.49-1.77"/><path class="cls-1" d="M634.52,69.88c.18.06.28.21.49.23a1.34,1.34,0,0,0,.35-.69.72.72,0,0,0-.63-.23c.1.41-.13.47-.21.69M634,68.72c1.13-.69,2.46.45,2.11,1.31a2,2,0,0,1-1.9.77c-.56-.2-.69-1.52-.21-2.08"/><path class="cls-1" d="M596.86,69.51h-.28c-.1.46.53.34.28,0m-.7.38a.54.54,0,0,0-.07-.39h-.21c0,.25.08.37.28.39m-1.06.38a1.58,1.58,0,0,1,.07-1.16c.42-.85,1.63-.63,2.18-.07.83,1.7-1.47,2.13-2.25,1.23"/><path class="cls-1" d="M628.74,70.41c-.55-.32-.51.3,0,0m0-.85a.29.29,0,1,0,.56,0c-.16,0-.42-.15-.56,0m-.14-.93a1.21,1.21,0,0,1,1.48,1c.06.87-1.85,2.11-2.39.92a1.57,1.57,0,0,1,.92-1.93"/><path class="cls-1" d="M609,70.3c.17,0,.21.13.42.08.17-.32,0-.83-.42-.77-.14.16-.05.51,0,.69m1.13-.31a.64.64,0,0,0-.56-.93,1.17,1.17,0,0,0,.56.93m-1.48,1.08c-1.74-1.5,1.55-3.57,1.9-1.69.21,1.1-.92,1.67-1.9,1.69"/><path class="cls-1" d="M622.69,69.78c0,.55.95.64.92,0-.18-.43-.62-.1-.92,0m-.78.85c-1-2.18,2.78-2.23,2.32-.38-.16.66-1.69.81-2.32.38"/><path class="cls-1" d="M590.38,70.12a.81.81,0,0,0-.49-.93c.24.22.06.91.49.93m.63.31c-.48.83-2.08.8-2.25-.16-.37-2.09,2.44-2.54,2.25.16"/><path class="cls-1" d="M582.57,68.95c1.59-.29,1.55,2.22.14,2.16a1.09,1.09,0,0,1-.14-2.16"/><path class="cls-1" d="M616,69.16a1.36,1.36,0,0,1,1.55,1.31c-.05.67-1.82,1.48-2.39.61a1.4,1.4,0,0,1,.85-1.93"/><path class="cls-1" d="M661.88,70.08c-.13-.17-.24-.36-.56-.31-.13.43.45.62.56.31m-1.41-1c.94-.54,2.34-.77,2.32.62,0,.85-.93,1.28-1.83,1.15-.54-.14-.67-1.11-.49-1.77"/><path class="cls-1" d="M692.78,70c.18.06.28.21.49.23a1.35,1.35,0,0,0,.35-.69.72.72,0,0,0-.63-.23c.1.41-.13.47-.21.69m-.49-1.16c1.13-.69,2.46.45,2.11,1.31a2,2,0,0,1-1.9.77c-.56-.2-.69-1.52-.21-2.08"/><path class="cls-1" d="M655.12,69.61h-.28c-.1.46.53.34.28,0m-.7.38a.54.54,0,0,0-.07-.39h-.21c0,.25.08.37.28.39m-1.06.38a1.58,1.58,0,0,1,.07-1.16c.42-.85,1.63-.63,2.18-.07.83,1.7-1.47,2.13-2.25,1.23"/><path class="cls-1" d="M687,70.51c-.55-.32-.51.3,0,0m0-.85a.29.29,0,1,0,.56,0c-.16,0-.42-.15-.56,0m-.14-.93a1.21,1.21,0,0,1,1.48,1c.06.87-1.85,2.11-2.39.92a1.57,1.57,0,0,1,.92-1.93"/><path class="cls-1" d="M667.3,70.4c.17,0,.21.13.42.08.17-.32,0-.83-.42-.77-.14.16-.05.51,0,.69m1.13-.31a.64.64,0,0,0-.56-.93,1.17,1.17,0,0,0,.56.93m-1.48,1.08c-1.74-1.5,1.55-3.57,1.9-1.69.21,1.1-.92,1.67-1.9,1.69"/><path class="cls-1" d="M681,69.88c0,.55.95.64.92,0-.18-.43-.62-.1-.92,0m-.78.85c-1-2.18,2.78-2.23,2.32-.38-.16.66-1.69.81-2.32.38"/><path class="cls-1" d="M648.65,70.21a.81.81,0,0,0-.49-.93c.24.22.06.91.49.93m.63.31c-.48.83-2.08.8-2.25-.16-.37-2.09,2.44-2.54,2.25.16"/><path class="cls-1" d="M640.84,69c1.59-.29,1.55,2.22.14,2.16a1.09,1.09,0,0,1-.14-2.16"/><path class="cls-1" d="M674.27,69.25a1.36,1.36,0,0,1,1.55,1.31c-.05.67-1.82,1.48-2.39.61a1.4,1.4,0,0,1,.85-1.93"/><path class="cls-1" d="M719.15,70.18c-.13-.17-.24-.36-.56-.31-.13.43.45.62.56.31m-1.41-1c.94-.54,2.34-.77,2.32.62,0,.85-.93,1.28-1.83,1.15-.54-.14-.67-1.11-.49-1.77"/><path class="cls-1" d="M750.05,70.07c.18.06.28.21.49.23a1.35,1.35,0,0,0,.35-.69.72.72,0,0,0-.63-.23c.1.41-.13.47-.21.69m-.49-1.16c1.13-.69,2.46.45,2.11,1.31a2,2,0,0,1-1.9.77c-.56-.2-.69-1.52-.21-2.08"/><path class="cls-1" d="M712.4,69.7h-.28c-.1.46.53.34.28,0m-.7.38a.54.54,0,0,0-.07-.39h-.21c0,.25.08.37.28.39m-1.06.38a1.58,1.58,0,0,1,.07-1.16c.42-.85,1.63-.63,2.18-.07.83,1.7-1.47,2.13-2.25,1.23"/><path class="cls-1" d="M744.28,70.6c-.55-.32-.51.3,0,0m0-.85a.29.29,0,1,0,.56,0c-.16,0-.42-.15-.56,0m-.14-.93a1.21,1.21,0,0,1,1.48,1c.06.87-1.85,2.11-2.39.92a1.57,1.57,0,0,1,.92-1.93"/><path class="cls-1" d="M724.57,70.49c.17,0,.21.13.42.08.17-.32,0-.83-.42-.77-.14.16-.05.51,0,.69m1.13-.31a.64.64,0,0,0-.56-.93,1.17,1.17,0,0,0,.56.93m-1.48,1.08c-1.74-1.5,1.55-3.57,1.9-1.69.21,1.1-.92,1.67-1.9,1.69"/><path class="cls-1" d="M738.23,70c0,.55.95.64.92,0-.18-.43-.62-.1-.92,0m-.78.85c-1-2.18,2.78-2.23,2.32-.38-.16.66-1.69.81-2.32.38"/><path class="cls-1" d="M705.92,70.31a.81.81,0,0,0-.49-.93c.24.22.06.91.49.93m.63.31c-.48.83-2.08.8-2.25-.16-.37-2.09,2.44-2.54,2.25.16"/><path class="cls-1" d="M698.11,69.14c1.59-.29,1.55,2.22.14,2.16a1.09,1.09,0,0,1-.14-2.16"/><path class="cls-1" d="M731.54,69.35a1.36,1.36,0,0,1,1.55,1.31c-.05.67-1.82,1.48-2.39.61a1.4,1.4,0,0,1,.85-1.93"/><path class="cls-1" d="M777.42,70.27c-.13-.17-.24-.36-.56-.31-.13.43.45.62.56.31m-1.41-1c.94-.54,2.34-.77,2.32.62,0,.85-.93,1.28-1.83,1.15-.54-.14-.67-1.11-.49-1.77"/><path class="cls-1" d="M770.66,69.8h-.28c-.1.46.53.34.28,0m-.7.38a.54.54,0,0,0-.07-.39h-.21c0,.25.08.37.28.39m-1.06.38a1.58,1.58,0,0,1,.07-1.16c.42-.85,1.63-.63,2.18-.07.83,1.7-1.47,2.13-2.25,1.23"/><path class="cls-1" d="M782.84,70.59c.17,0,.21.13.42.08.17-.32,0-.83-.42-.77-.14.16-.05.51,0,.69m1.13-.31a.64.64,0,0,0-.56-.93,1.17,1.17,0,0,0,.56.93m-1.48,1.08c-1.74-1.5,1.55-3.57,1.9-1.69.21,1.1-.92,1.67-1.9,1.69"/><path class="cls-1" d="M796.5,70.07c0,.55.95.64.92,0-.18-.43-.62-.1-.92,0m-.78.85c-1-2.18,2.78-2.23,2.32-.38-.16.66-1.69.81-2.32.38"/><path class="cls-1" d="M764.18,70.41a.81.81,0,0,0-.49-.93c.24.22.06.91.49.93m.63.31c-.48.83-2.08.8-2.25-.16-.37-2.09,2.44-2.54,2.25.16"/><path class="cls-1" d="M756.37,69.24c1.59-.29,1.55,2.22.14,2.16a1.09,1.09,0,0,1-.14-2.16"/><path class="cls-1" d="M789.81,69.45a1.36,1.36,0,0,1,1.55,1.31c-.05.67-1.82,1.48-2.39.61a1.4,1.4,0,0,1,.85-1.93"/><path class="cls-1" d="M.79,69.5c.18.06.28.21.49.23A1.35,1.35,0,0,0,1.63,69,.72.72,0,0,0,1,68.8c.1.41-.13.47-.21.69M.3,68.34c1.13-.69,2.46.45,2.11,1.31a2,2,0,0,1-1.9.77c-.56-.2-.69-1.52-.21-2.08"/><path class="cls-1" d="M28.15,69.69c-.13-.17-.24-.36-.56-.31-.13.43.45.62.56.31m-1.41-1c.94-.54,2.34-.77,2.32.62,0,.85-.93,1.28-1.83,1.15-.54-.14-.67-1.11-.49-1.77"/><path class="cls-1" d="M59.06,69.59c.18.06.28.21.49.23a1.35,1.35,0,0,0,.35-.69.72.72,0,0,0-.63-.23c.1.41-.13.47-.21.69m-.49-1.16c1.13-.69,2.46.45,2.11,1.31a2,2,0,0,1-1.9.77c-.56-.2-.69-1.52-.21-2.08"/><path class="cls-1" d="M21.4,69.22h-.28c-.1.46.53.34.28,0m-.7.38a.54.54,0,0,0-.07-.39h-.21c0,.25.08.37.28.39M19.63,70a1.58,1.58,0,0,1,.07-1.16c.42-.85,1.63-.63,2.18-.07.83,1.7-1.47,2.13-2.25,1.23"/><path class="cls-1" d="M53.28,70.12c-.55-.32-.51.3,0,0m0-.85a.29.29,0,1,0,.56,0c-.16,0-.42-.15-.56,0m-.14-.93a1.21,1.21,0,0,1,1.48,1c.06.87-1.85,2.11-2.39.92a1.57,1.57,0,0,1,.92-1.93"/><path class="cls-1" d="M33.57,70c.17,0,.21.13.42.08.17-.32,0-.83-.42-.77-.14.16-.05.51,0,.69m1.13-.31a.64.64,0,0,0-.56-.93,1.17,1.17,0,0,0,.56.93m-1.48,1.08c-1.74-1.5,1.55-3.57,1.9-1.69.21,1.1-.92,1.67-1.9,1.69"/><path class="cls-1" d="M47.23,69.49c0,.55.95.64.92,0-.18-.43-.62-.1-.92,0m-.78.85c-1-2.18,2.78-2.23,2.32-.38-.16.66-1.69.81-2.32.38"/><path class="cls-1" d="M14.92,69.83a.81.81,0,0,0-.49-.93c.24.22.06.91.49.93m.63.31c-.48.83-2.08.8-2.25-.16-.37-2.09,2.44-2.54,2.25.16"/><path class="cls-1" d="M7.11,68.66c1.59-.29,1.55,2.22.14,2.16a1.09,1.09,0,0,1-.14-2.16"/><path class="cls-1" d="M40.54,68.87a1.36,1.36,0,0,1,1.55,1.31c-.05.67-1.82,1.48-2.39.61a1.4,1.4,0,0,1,.85-1.93"/><path class="cls-1" d="M85.42,69.79c-.13-.17-.24-.36-.56-.31-.13.43.45.62.56.31m-1.41-1c.94-.54,2.34-.77,2.32.62,0,.85-.93,1.28-1.83,1.15-.54-.14-.67-1.11-.49-1.77"/><path class="cls-1" d="M116.33,69.69c.18.06.28.21.49.23a1.35,1.35,0,0,0,.35-.69.72.72,0,0,0-.63-.23c.1.41-.13.47-.21.69m-.49-1.16c1.13-.69,2.46.45,2.11,1.31a2,2,0,0,1-1.9.77c-.56-.2-.69-1.52-.21-2.08"/><path class="cls-1" d="M78.67,69.32h-.28c-.1.46.53.34.28,0m-.7.38a.54.54,0,0,0-.07-.39h-.21c0,.25.08.37.28.39m-1.06.38A1.58,1.58,0,0,1,77,68.93c.42-.85,1.63-.63,2.18-.07.83,1.7-1.47,2.13-2.25,1.23"/><path class="cls-1" d="M110.55,70.22c-.55-.32-.51.3,0,0m0-.85a.29.29,0,1,0,.56,0c-.16,0-.42-.15-.56,0m-.14-.93a1.21,1.21,0,0,1,1.48,1c.06.87-1.85,2.11-2.39.92a1.57,1.57,0,0,1,.92-1.93"/><path class="cls-1" d="M90.84,70.11c.17,0,.21.13.42.08.17-.32,0-.83-.42-.77-.14.16-.05.51,0,.69M92,69.8a.64.64,0,0,0-.56-.93,1.17,1.17,0,0,0,.56.93m-1.48,1.08c-1.74-1.5,1.55-3.57,1.9-1.69.21,1.1-.92,1.67-1.9,1.69"/><path class="cls-1" d="M104.5,69.59c0,.55.95.64.92,0-.18-.43-.62-.1-.92,0m-.78.85c-1-2.18,2.78-2.23,2.32-.38-.16.66-1.69.81-2.32.38"/><path class="cls-1" d="M72.19,69.92A.81.81,0,0,0,71.7,69c.24.22.06.91.49.93m.63.31c-.48.83-2.08.8-2.25-.16-.37-2.09,2.44-2.54,2.25.16"/><path class="cls-1" d="M64.38,68.75c1.59-.29,1.55,2.22.14,2.16a1.09,1.09,0,0,1-.14-2.16"/><path class="cls-1" d="M97.81,69a1.36,1.36,0,0,1,1.55,1.31c-.05.67-1.82,1.48-2.39.61A1.4,1.4,0,0,1,97.81,69"/><path class="cls-1" d="M143.69,69.89c-.13-.17-.24-.36-.56-.31-.13.43.45.62.56.31m-1.41-1c.94-.54,2.34-.77,2.32.62,0,.85-.93,1.28-1.83,1.15-.54-.14-.67-1.11-.49-1.77"/><path class="cls-1" d="M174.59,69.78c.18.06.28.21.49.23a1.35,1.35,0,0,0,.35-.69.72.72,0,0,0-.63-.23c.1.41-.13.47-.21.69m-.49-1.16c1.13-.69,2.46.45,2.11,1.31a2,2,0,0,1-1.9.77c-.56-.2-.69-1.52-.21-2.08"/><path class="cls-1" d="M136.93,69.41h-.28c-.1.46.53.34.28,0m-.7.38a.54.54,0,0,0-.07-.39h-.21c0,.25.08.37.28.39m-1.06.38a1.58,1.58,0,0,1,.07-1.16c.42-.85,1.63-.63,2.18-.07.83,1.7-1.47,2.13-2.25,1.23"/><path class="cls-1" d="M168.82,70.31c-.55-.32-.51.3,0,0m0-.85a.29.29,0,1,0,.56,0c-.16,0-.42-.15-.56,0m-.14-.93a1.21,1.21,0,0,1,1.48,1c.06.87-1.85,2.11-2.39.92a1.57,1.57,0,0,1,.92-1.93"/><path class="cls-1" d="M149.11,70.2c.17,0,.21.13.42.08.17-.32,0-.83-.42-.77-.14.16-.05.51,0,.69m1.13-.31a.64.64,0,0,0-.56-.93,1.17,1.17,0,0,0,.56.93M148.76,71c-1.74-1.5,1.55-3.57,1.9-1.69.21,1.1-.92,1.67-1.9,1.69"/><path class="cls-1" d="M162.77,69.69c0,.55.95.64.92,0-.18-.43-.62-.1-.92,0m-.78.85c-1-2.18,2.78-2.23,2.32-.38-.16.66-1.69.81-2.32.38"/><path class="cls-1" d="M130.46,70a.81.81,0,0,0-.49-.93c.24.22.06.91.49.93m.63.31c-.48.83-2.08.8-2.25-.16-.37-2.09,2.44-2.54,2.25.16"/><path class="cls-1" d="M122.64,68.85c1.59-.29,1.55,2.22.14,2.16a1.09,1.09,0,0,1-.14-2.16"/><path class="cls-1" d="M156.08,69.06a1.36,1.36,0,0,1,1.55,1.31c-.05.67-1.82,1.48-2.39.61a1.4,1.4,0,0,1,.85-1.93"/><path class="cls-1" d="M202.72,70c-.13-.17-.24-.36-.56-.31-.13.43.45.62.56.31m-1.41-1c.94-.54,2.34-.77,2.32.62,0,.85-.93,1.28-1.83,1.15-.54-.14-.67-1.11-.49-1.77"/><path class="cls-1" d="M233.63,69.88c.18.06.28.21.49.23a1.34,1.34,0,0,0,.35-.69.72.72,0,0,0-.63-.23c.1.41-.13.47-.21.69m-.49-1.16c1.13-.69,2.46.45,2.11,1.31a2,2,0,0,1-1.9.77c-.56-.2-.69-1.52-.21-2.08"/><path class="cls-1" d="M196,69.51h-.28c-.1.46.53.34.28,0m-.7.38a.54.54,0,0,0-.07-.39H195c0,.25.08.37.28.39m-1.06.38a1.58,1.58,0,0,1,.07-1.16c.42-.85,1.63-.63,2.18-.07.83,1.7-1.47,2.13-2.25,1.23"/><path class="cls-1" d="M227.85,70.41c-.55-.32-.51.3,0,0m0-.85a.29.29,0,1,0,.56,0c-.16,0-.42-.15-.56,0m-.14-.93a1.21,1.21,0,0,1,1.48,1c.06.87-1.85,2.11-2.39.92a1.57,1.57,0,0,1,.92-1.93"/><path class="cls-1" d="M208.14,70.3c.17,0,.21.13.42.08.17-.32,0-.83-.42-.77-.14.16-.05.51,0,.69m1.13-.31a.64.64,0,0,0-.56-.93,1.17,1.17,0,0,0,.56.93m-1.48,1.08c-1.74-1.5,1.55-3.57,1.9-1.69.21,1.1-.92,1.67-1.9,1.69"/><path class="cls-1" d="M221.8,69.78c0,.55.95.64.92,0-.18-.43-.62-.1-.92,0m-.78.85c-1-2.18,2.78-2.23,2.32-.38-.16.66-1.69.81-2.32.38"/><path class="cls-1" d="M189.49,70.12a.81.81,0,0,0-.49-.93c.24.22.06.91.49.93m.63.31c-.48.83-2.08.8-2.25-.16-.37-2.09,2.44-2.54,2.25.16"/><path class="cls-1" d="M181.68,68.95c1.59-.29,1.55,2.22.14,2.16a1.09,1.09,0,0,1-.14-2.16"/><path class="cls-1" d="M215.11,69.16a1.36,1.36,0,0,1,1.55,1.31c-.05.67-1.82,1.48-2.39.61a1.4,1.4,0,0,1,.85-1.93"/><path class="cls-1" d="M261,70.08c-.13-.17-.24-.36-.56-.31-.13.43.45.62.56.31m-1.41-1c.94-.54,2.34-.77,2.32.62,0,.85-.93,1.28-1.83,1.15-.54-.14-.67-1.11-.49-1.77"/><path class="cls-1" d="M291.89,70c.18.06.28.21.49.23a1.35,1.35,0,0,0,.35-.69.72.72,0,0,0-.63-.23c.1.41-.13.47-.21.69m-.49-1.16c1.13-.69,2.46.45,2.11,1.31a2,2,0,0,1-1.9.77c-.56-.2-.69-1.52-.21-2.08"/><path class="cls-1" d="M254.23,69.61H254c-.1.46.53.34.28,0m-.7.38a.54.54,0,0,0-.07-.39h-.21c0,.25.08.37.28.39m-1.06.38a1.58,1.58,0,0,1,.07-1.16c.42-.85,1.63-.63,2.18-.07.83,1.7-1.47,2.13-2.25,1.23"/><path class="cls-1" d="M286.12,70.51c-.55-.32-.51.3,0,0m0-.85a.29.29,0,1,0,.56,0c-.16,0-.42-.15-.56,0m-.14-.93a1.21,1.21,0,0,1,1.48,1c.06.87-1.85,2.11-2.39.92a1.57,1.57,0,0,1,.92-1.93"/><path class="cls-1" d="M266.41,70.4c.17,0,.21.13.42.08.17-.32,0-.83-.42-.77-.14.16-.05.51,0,.69m1.13-.31a.64.64,0,0,0-.56-.93,1.17,1.17,0,0,0,.56.93m-1.48,1.08c-1.74-1.5,1.55-3.57,1.9-1.69.21,1.1-.92,1.67-1.9,1.69"/><path class="cls-1" d="M280.07,69.88c0,.55.95.64.92,0-.18-.43-.62-.1-.92,0m-.78.85c-1-2.18,2.78-2.23,2.32-.38-.16.66-1.69.81-2.32.38"/><path class="cls-1" d="M247.76,70.21a.81.81,0,0,0-.49-.93c.24.22.06.91.49.93m.63.31c-.48.83-2.08.8-2.25-.16-.37-2.09,2.44-2.54,2.25.16"/><path class="cls-1" d="M239.94,69c1.59-.29,1.55,2.22.14,2.16a1.09,1.09,0,0,1-.14-2.16"/><path class="cls-1" d="M273.38,69.25a1.36,1.36,0,0,1,1.55,1.31c-.05.67-1.82,1.48-2.39.61a1.4,1.4,0,0,1,.85-1.93"/><path class="cls-1" d="M318.26,70.18c-.13-.17-.24-.36-.56-.31-.13.43.45.62.56.31m-1.41-1c.94-.54,2.34-.77,2.32.62,0,.85-.93,1.28-1.83,1.15-.54-.14-.67-1.11-.49-1.77"/><path class="cls-1" d="M349.16,70.07c.18.06.28.21.49.23a1.35,1.35,0,0,0,.35-.69.72.72,0,0,0-.63-.23c.1.41-.13.47-.21.69m-.49-1.16c1.13-.69,2.46.45,2.11,1.31a2,2,0,0,1-1.9.77c-.56-.2-.69-1.52-.21-2.08"/><path class="cls-1" d="M311.5,69.7h-.28c-.1.46.53.34.28,0m-.7.38a.54.54,0,0,0-.07-.39h-.21c0,.25.08.37.28.39m-1.06.38a1.58,1.58,0,0,1,.07-1.16c.42-.85,1.63-.63,2.18-.07.83,1.7-1.47,2.13-2.25,1.23"/><path class="cls-1" d="M343.39,70.6c-.55-.32-.51.3,0,0m0-.85a.29.29,0,1,0,.56,0c-.16,0-.42-.15-.56,0m-.14-.93a1.21,1.21,0,0,1,1.48,1c.06.87-1.85,2.11-2.39.92a1.57,1.57,0,0,1,.92-1.93"/><path class="cls-1" d="M323.68,70.49c.17,0,.21.13.42.08.17-.32,0-.83-.42-.77-.14.16-.05.51,0,.69m1.13-.31a.64.64,0,0,0-.56-.93,1.17,1.17,0,0,0,.56.93m-1.48,1.08c-1.74-1.5,1.55-3.57,1.9-1.69.21,1.1-.92,1.67-1.9,1.69"/><path class="cls-1" d="M337.34,70c0,.55.95.64.92,0-.18-.43-.62-.1-.92,0m-.78.85c-1-2.18,2.78-2.23,2.32-.38-.16.66-1.69.81-2.32.38"/><path class="cls-1" d="M305,70.31a.81.81,0,0,0-.49-.93c.24.22.06.91.49.93m.63.31c-.48.83-2.08.8-2.25-.16-.37-2.09,2.44-2.54,2.25.16"/><path class="cls-1" d="M297.21,69.14c1.59-.29,1.55,2.22.14,2.16a1.09,1.09,0,0,1-.14-2.16"/><path class="cls-1" d="M330.65,69.35a1.36,1.36,0,0,1,1.55,1.31c-.05.67-1.82,1.48-2.39.61a1.4,1.4,0,0,1,.85-1.93"/><path class="cls-1" d="M376.53,70.27c-.13-.17-.24-.36-.56-.31-.13.43.45.62.56.31m-1.41-1c.94-.54,2.34-.77,2.32.62,0,.85-.93,1.28-1.83,1.15-.54-.14-.67-1.11-.49-1.77"/><path class="cls-1" d="M369.77,69.8h-.28c-.1.46.53.34.28,0m-.7.38a.54.54,0,0,0-.07-.39h-.21c0,.25.08.37.28.39m-1.06.38a1.58,1.58,0,0,1,.07-1.16c.42-.85,1.63-.63,2.18-.07.83,1.7-1.47,2.13-2.25,1.23"/><path class="cls-1" d="M381.95,70.59c.17,0,.21.13.42.08.17-.32,0-.83-.42-.77-.14.16-.05.51,0,.69m1.13-.31a.64.64,0,0,0-.56-.93,1.17,1.17,0,0,0,.56.93m-1.48,1.08c-1.74-1.5,1.55-3.57,1.9-1.69.21,1.1-.92,1.67-1.9,1.69"/><path class="cls-1" d="M395.6,70.07c0,.55.95.64.92,0-.18-.43-.62-.1-.92,0m-.78.85c-1-2.18,2.78-2.23,2.32-.38-.16.66-1.69.81-2.32.38"/><path class="cls-1" d="M363.29,70.41a.81.81,0,0,0-.49-.93c.24.22.06.91.49.93m.63.31c-.48.83-2.08.8-2.25-.16-.37-2.09,2.44-2.54,2.25.16"/><path class="cls-1" d="M355.48,69.24c1.59-.29,1.55,2.22.14,2.16a1.09,1.09,0,0,1-.14-2.16"/><path class="cls-1" d="M388.92,69.45a1.36,1.36,0,0,1,1.55,1.31c-.05.67-1.82,1.48-2.39.61a1.4,1.4,0,0,1,.85-1.93"/></g></g></svg>