<svg xmlns="http://www.w3.org/2000/svg" viewBox="0 0 64.42 47.85"><defs><style>.cls-1{fill:#53b0a1;fill-rule:evenodd;}</style></defs><title>Asset 16</title><g id="Layer_2" data-name="Layer 2"><g id="art"><path class="cls-1" d="M28.15,10.42c-.54.21-.6.85-1.11.91-2.21.23-.81-3.73.81-2.12C28.09,9.45,28.11,9.7,28.15,10.42Z"/><path class="cls-1" d="M32.48,9.51a7.38,7.38,0,0,0,.3,2.82c-.46.61-1.21.82-1.51.1,0,0-.13-2.61-.1-2.72C31.37,9.06,32,9,32.48,9.51Z"/><path class="cls-1" d="M34.4,13.84c-.17,2.14-5.13,1.44-5.64,0,.09-.28.38-.37.4-.71.58-.08,1.22.52,1.91.6C32.22,13.88,33.35,13.44,34.4,13.84Z"/><path class="cls-1" d="M14.26,18.87c-.49-1,1-1.68,1.21-.81A.79.79,0,0,1,14.26,18.87Z"/><path class="cls-1" d="M7,18.16A1.22,1.22,0,0,1,5.2,19.47C4.75,18.3,6,17.58,7,18.16Z"/><path class="cls-1" d="M11.54,18.27c-.48,1.31.18,2.69-.5,3.62a2.24,2.24,0,0,1-.81,0,6,6,0,0,1,.4-3.93A.93.93,0,0,1,11.54,18.27Z"/><path class="cls-1" d="M59,18.47c.21.91-.56,1.18-1.11,1.61C56.41,19.62,58,17.41,59,18.47Z"/><path class="cls-1" d="M51.11,20.88H50.3a10.1,10.1,0,0,1-.3-1.61c.38-.84,1.74-.88,1.91-.1S51.22,20.08,51.11,20.88Z"/><path class="cls-1" d="M55.53,19.37a5.89,5.89,0,0,0-.1,2.42,1.15,1.15,0,0,1-1.11.3C53.65,21.27,54.31,17.67,55.53,19.37Z"/><path class="cls-1" d="M57.35,23.7c0,1.34-1.7.92-2.62,1.31-1-.4-3.05-.32-3.12-1.51s1-.87,1.61-.1C54.71,24,56.41,22.84,57.35,23.7Z"/><path class="cls-1" d="M6.71,23c1.4.48,3.27,2,5.23,1.41.66-.18,1.91-1.36,2.11-.1.13.81-1.87,1.5-2.72,1.61C9.91,26.1,5,24.58,6.71,23Z"/><path class="cls-1" d="M59.36,28.63c.61,1.18,3.32,1.13,3.62,2.62a4.1,4.1,0,0,1-.7,2.52c.36,1.31-.54,2.16-.2,3.52-.17.13-.2.4-.4.5.37,1.5-.73,2.67-.4,4.53-.89,1.69-3.35,1.82-5.44,2.32a3.26,3.26,0,0,0-.1,2.32c-1.66.92-5.36,1.35-7,.2-.41-2-.13-4.63-2.22-4.93-.68-1.12-.27-3.71-.1-5.54a66.6,66.6,0,0,1,1.21-6.94,4.67,4.67,0,0,0,2.11-1.41c-2.49-1.93-5.16-4.1-5.64-8.25a9.62,9.62,0,0,1,.4-3.12,10.24,10.24,0,0,1,.81-2.82c1-2.26,2.85-3.31,5.23-4.33,2.65-.53,5.69-.86,8,.2.89.42,1.42,1.21,2.32,1.31a10.07,10.07,0,0,1,3.62,8.35,12.17,12.17,0,0,1-1.91,5.64C61.56,26.63,60.09,27.34,59.36,28.63Zm-3-14.7a3.3,3.3,0,0,0,2-1.21C57.43,11.88,56.56,12.94,56.34,13.94Zm-8.56,10a25.83,25.83,0,0,0,2.82,2.52c1.36,1,2.57.69,4.13.4a9.29,9.29,0,0,0,3.63-1,8.29,8.29,0,0,0,2-2.32c1.59-2.36,2.32-8.44-.6-9.86,0-.17-.13,0-.3,0a16.41,16.41,0,0,1-7.55,3.22c-1.71.28-3.58-.26-5.24.5C46.23,19.6,46.58,22.51,47.78,23.9Zm-.2-8.56a4.31,4.31,0,0,0,1.51-1.71C48.25,13.87,47.9,14.6,47.58,15.35Zm6.54-.6c.55.4,1.37-.7.6-1C54.67,14.21,54.13,14.21,54.12,14.74Zm-1,14.5c-.09.45-.42.66-.6,1,.7,1.89.67,3.94,2.21,5,1.1-1.25,1.67-3,2.62-4.43-.21-.43-.13-1.14-.3-1.61A10.7,10.7,0,0,1,53.12,29.24Zm4.83,3c.55-.12.75-.59.91-1.11h-.3C58.47,31.64,58,31.72,57.95,32.26Zm-6.54,2.62c.33-.15.65-.28.7-.71C51.65,34.18,51.57,34.57,51.41,34.87Zm5.44,3.42c1.06.13,1.21-1.46,2.21-1.71.1-.58.7-.64.71-1.31A14,14,0,0,0,56.84,38.3Zm-5.13-1.61a3.08,3.08,0,0,0,1.21-1A1,1,0,0,0,51.71,36.69Zm4.63,4.23c.59,0,1.43-.78,2-1.31a2.82,2.82,0,0,0,1.11-1.81C58.3,38.31,57.22,39.78,56.34,40.92Zm-5.23.4a17.26,17.26,0,0,0,2.72-2.72.28.28,0,0,0-.2-.3C52.79,39.25,51.25,40,51.11,41.32Zm-2.32-1.71a.71.71,0,0,0,.6-.71c-.08-.25-.41-.26-.6-.4A1.35,1.35,0,0,0,48.79,39.61Zm9,2.42c.81-.07.94-.81,1.21-1.41C58.21,40.74,57.91,41.31,57.75,42Zm-5.13,1.61A4.25,4.25,0,0,0,54,42.43C53.65,41.77,52.22,42.87,52.61,43.63Z"/><path class="cls-1" d="M37.62,9.71c-.16.92-2.29,2-2.42.6C35.12,9.47,37,8.44,37.62,9.71Z"/><path class="cls-1" d="M20.5,13.23a15.85,15.85,0,0,1-.71-2.52c-.19-1.47.32-2.76-.2-3.93C20.86,5.72,21.53,4.17,23,3.07A21.22,21.22,0,0,1,28.36.45c3.51-1,8.4-.17,10.67,1.61A17.48,17.48,0,0,1,42.85,7a11.72,11.72,0,0,1,.5,5.24,14.82,14.82,0,0,1-2.21,4.63c1,.48,2.34,1.13,2.52,2.11a24.53,24.53,0,0,0-.3,4.23,17.11,17.11,0,0,1-.5,2.62c-.47,3.77,0,7.76-1.21,11.27-1.21,1.28-3.81.74-4.73,2.42.34,2.59-1.19,3.68-1.51,6-.61.62-1.59.09-2.72.1-.17,0-.33.27-.5.3a9.38,9.38,0,0,1-1.21-.1c-1.8.07-3.08.41-4.53-.3-1.38-1.88-1-6.52-2.32-8.65-1.22-.38-3.19-.87-3.42-2.32A23.24,23.24,0,0,1,20.6,30c.13-1.78.43-3.85.6-5.94a23.39,23.39,0,0,1,.7-5c.64-.6,1.79-.69,2.42-1.31C23,16.32,21.49,15.1,20.5,13.33c1.66,4.09.72,8.09-.6,12.18a12.23,12.23,0,0,0-2.11,2.82c.93,2.26.11,6.94.3,9.86.09,1.36.37,2.72-.3,3.53s-2.42.67-3.42,1.21a38.73,38.73,0,0,0-.3,3.93c-1.06.67-2.65,0-4,.1s-4.16-.15-4.73-1.41c-.41-.92.11-2.2-.5-3.32C4,41.54,2.06,42,1.18,41.42c-2-3.16.08-9.24-.3-12.48.5-.88,2-.78,2.42-1.71A25.28,25.28,0,0,1,.47,23.6,13.15,13.15,0,0,1,4.4,10.52,13.76,13.76,0,0,1,7.12,8.3c1.91-.82,3.85,0,5.94,0,.7,0,1.06-.49,1.81-.4a6.85,6.85,0,0,1,2.92,1.81A23.39,23.39,0,0,1,20.5,13.23ZM30.87,2.56c.36,1.21-1.28,1.77-1.41,3.12a17.29,17.29,0,0,0,2.42-3c0-.11-.11-.16-.2-.2C31.6,2.69,31.11,2.5,30.87,2.56Zm1.41,1.71c.37-.41,1.16-.92.91-1.61A6.16,6.16,0,0,0,32.28,4.27Zm2.12-.6c.42-.12.93-.14,1-.6A.6.6,0,0,0,34.4,3.67ZM31.88,17c.38.09.38.56.81.6a9.75,9.75,0,0,0,4.63-1.31c.22-.11.52,0,.6-.1a7.55,7.55,0,0,0,1.81-1.91,8.05,8.05,0,0,0,.1-8.15c-.94-.88-1.69-1.93-3.12-2.31A21.59,21.59,0,0,1,22.52,7.9C21,14,26.06,17.35,31.88,17ZM23.52,6.39c1.16.38,1.49-.84,2-1.41A3,3,0,0,0,23.52,6.39ZM3.29,24c.89,1.55,4.63,3.76,6.84,4,5.19.62,7.38-3.37,8.46-6.95A38.56,38.56,0,0,1,19,17c-.65-2-1-4.41-2.62-5.44a3.75,3.75,0,0,0-1.91,1,23.47,23.47,0,0,1-11,4.13C2,18.63,2.22,22.14,3.29,24Zm27.88-4.23c-.36-.67-1.05-.34-2.12-.4,0,.45.65.29.7.71a.57.57,0,0,0-.3.6c1.14,1.91,2,4.11,3.32,5.84.51-.13.54-.73,1-.91.94-2.38,2.65-4,3.73-6.24C35.33,20.26,33.26,19.93,31.17,19.77Zm2.11,9.36a8.69,8.69,0,0,0,2.31-3,24.13,24.13,0,0,0,3.63-4.83c.59-.39,1.46-1,1.31-1.81A44.33,44.33,0,0,0,33.29,29.14Zm-8.56-7.45a6.54,6.54,0,0,0,2.12-2A5.73,5.73,0,0,0,24.73,21.69Zm15.91-.4a14.1,14.1,0,0,0-1.71,2.42c-1.65,2.29-3.82,4.37-4.83,7.25a76.57,76.57,0,0,0,4.83-6.24c.87-.82,2.1-1.79,1.91-3.33C40.82,21.31,40.75,21.27,40.64,21.29Zm-15,3.32c.82-1.06,2-1.8,2.62-3,0-.08-.08-.11-.2-.1C27.25,22.46,25.93,23.45,25.64,24.61Zm3.12-1.91a29.23,29.23,0,0,0-3.12,4,13.76,13.76,0,0,0,3.52-3.62C29,22.95,29.07,22.65,28.76,22.7ZM23.52,25c.54-.24.53-1,.91-1.41-.3-.11-.42-.38-.6-.6C23.69,23.63,23.62,24.33,23.52,25Zm5.94,1.71c.53-.2.67-.81,1-1.21a6.84,6.84,0,0,0-.71-1.31c-.7.94-2.2,1.62-2.21,2.92.76-.41,1-1.36,1.71-1.81C30.46,25.46,29.58,26.09,29.46,26.72Zm.7,1.31a1.05,1.05,0,0,0,1.11-.91C30.85,26.66,30.22,27.48,30.17,28Zm9.76-1a9.1,9.1,0,0,1-1.51,1.71,10.18,10.18,0,0,1-1.71,2.21c-.52.68-1.49,1.66-.91,2.52,1.21-1.29,2.29-2.81,3.42-4.23A4.08,4.08,0,0,0,40.43,27Zm-8.15,2.52c-1.27.6-2,2-2.82,2.92-.25.3-.83.28-.6.81.72-.89,2.18-1.9,3.12-2.82a1.9,1.9,0,0,0,.5-1.71h-.3A1.85,1.85,0,0,0,31.78,29.54Zm-21.95,6a21.42,21.42,0,0,0,3.63-5.34c-2.35.63-4.6-.21-6.74-.81A21.2,21.2,0,0,0,9.83,35.58Zm15.5-5.64a.57.57,0,0,0,.7-.5A1.45,1.45,0,0,0,25.34,29.94Zm-22,3.12c.92-.66,1.24-1.91,2.22-2.52a.57.57,0,0,0-.1-.4C4.37,30.78,4,32.07,3.29,33.06Zm34.53.1c.65-.93,2.42-1.8,2.12-3C39.19,31.11,38.23,31.86,37.82,33.16ZM26.64,30.55c-.78.84-2.41,1.71-2.22,2.92,1.06-.85,2.82-1.54,2.72-3.22C26.68,30.11,26.76,30.42,26.64,30.55ZM3.19,35.48c1.31-.8,1.43-2.8,3.12-3.22,0-.31-.22-.45-.3-.7A19.73,19.73,0,0,0,3.19,35.48ZM29.56,35v.5c-.6.34-1.62,1.22-1.41,1.71a22.19,22.19,0,0,0,2.92-2.92c.7-.67,1.78-1,1.91-2C31.19,32.51,31,34.35,29.56,35Zm9.36-1.61c-.12,1-1.49,1.7-1.21,2.42C38.25,34.5,39.56,34,40,32.66,39.38,32.61,39.55,33.39,38.92,33.36Zm-23.56-.6A33,33,0,0,0,12,36.89c1.47-.68,2.42-2.74,3.62-4C15.54,32.86,15.53,32.73,15.37,32.76ZM5.1,35.18a11.21,11.21,0,0,0,1.61-1.81c-.09-.18,0-.54-.3-.5C6.08,33.74,5.4,34.27,5.1,35.18ZM37,34a1.35,1.35,0,0,0,.71-.81h-.3C37.44,33.59,37,33.59,37,34Zm-.5.71c.32.05.54-.52.3-.71C36.71,34.2,36.46,34.3,36.51,34.67Zm-6.24,2.22c.66-.72,2.44-1.79,2.32-2.42A7.4,7.4,0,0,0,30.27,36.89ZM33.59,35a47.77,47.77,0,0,0-4.43,4.73A25.81,25.81,0,0,0,34,35.08C33.86,35,33.8,34.93,33.59,35ZM6.81,36.79c.11-.16.33-.21.3-.5C6.86,36.23,6.54,36.64,6.81,36.79Zm26.68.5c.25-.2,1.06-.63.6-.91C34,36.81,33.55,36.85,33.49,37.29Zm-20,2.32c.84-.6,1-1.88,2.31-2,.08-.48-.16-.65-.1-1.11A6.08,6.08,0,0,0,13.46,39.61Zm-7.35,0c.18.09.26.28.6.2.57-1,1.75-1.47,1.81-3C7.17,37.18,6.88,38.63,6.11,39.61ZM5.91,38c.1-.24.53-.67.4-.81C6.17,37.39,5.59,37.68,5.91,38Zm26.37.4c.5,0,.62-.39.81-.71C32.61,37.72,32.53,38.15,32.28,38.4Zm2-.2c.24,0,.68-.56.3-.5C34.67,38,34.19,37.82,34.29,38.2Zm-18.62,1c0-.2.28-.13.2-.4-.13,0-.14-.13-.3-.1S15.42,39.19,15.67,39.21Zm-7.75,1c.41.05,1.24-.82,1-1.41A3.92,3.92,0,0,0,7.92,40.21Zm23.76,3.12h.5c0-1.77,2.55-2.08,2.12-3.63C33.27,40.94,32.23,41.81,31.68,43.33Zm-21.24,1a4,4,0,0,0,1.41-2.62C10.66,42,10.71,43.29,10.44,44.34Zm17.72-1c.28.35,1.13.15,1.71.2a1,1,0,0,0,0-.91c-.67.33-.79-.21-1.21-.4A1.89,1.89,0,0,0,28.15,43.33Zm-20,1.21c.24-.09.27-.4.3-.71-.24,0-.3-.17-.6-.1C7.73,44,7.76,44.47,8.12,44.54Z"/></g></g></svg>