<svg xmlns="http://www.w3.org/2000/svg" viewBox="0 0 53.45 67.38"><defs><style>.cls-1{fill:#53b0a1;fill-rule:evenodd;}</style></defs><title>Asset 19</title><g id="Layer_2" data-name="Layer 2"><g id="art"><path class="cls-1" d="M47.77.35c.65,1.71-.85,2.25-1.94,3.18A37.17,37.17,0,0,0,42,7.82a59.06,59.06,0,0,0,8.44,0c1.21-.09,2.59-.59,3,.83-.83,2.42-3.12,3.85-4.84,5.54s-3.23,3.68-5,5.39c-3.5,3.42-6.86,7-10.37,10.38a192,192,0,0,0-1.52,27,50.79,50.79,0,0,1,8.85,4.84c1.58,1,3.29,1.93,4.29,3.46a13.61,13.61,0,0,1-.69,1.94c-9,.65-19.65-.37-29.6-.55-2.14,0-4.79.5-6.36-1.1,0-2,1.93-2.52,3.46-3.46a31.13,31.13,0,0,1,9.82-4.15c-.12-1.58,0-2.57,0-4.15,0-3.84-.36-10,.28-14.8.22-1.67.84-3.87,1-5.95a10.82,10.82,0,0,0-.14-3.46C21.81,27.46,17.39,27,16.37,25c-1.43.05-1.61-1.15-2.91-1.24C12.2,22,9.68,21,7.94,19.58c-1.51-1.26-2.7-2.79-4.43-3.73-.81-2.2-4.87-3.43-3-6.5,5.57-.6,11.59-.11,17.85-.83A150.16,150.16,0,0,1,35,8a15.47,15.47,0,0,0,3,0c.89-.24,1.94-1.8,3.18-3S43.8,2.74,44.45,2C45.37,1,45.88-.75,47.77.35ZM15.68,11.14c-2.19.25-4.7,0-6.92.14s-2.53,1-3.87,1.94c.17.43.31.89.83,1C7,13.62,7.15,12,8.63,11.69c0,.2.23.23.28.42-.17,1.59-1.91,1.6-2.21,3a1.27,1.27,0,0,0,.83.55c1.06-.69,1-2.51,2.63-2.63.42,1.63-1.46,2.12-1.8,3.46a5.12,5.12,0,0,0,2.08,1.52c.69-.51.82-1.58,1.52-2.08.34,0,.67,0,.69.28-.07,1.23-1.19,1.4-1.38,2.49a3.57,3.57,0,0,0,1.66,1.11A4.1,4.1,0,0,0,14,18.2,1.34,1.34,0,0,1,12.92,17c.45-.92,1.57-.85,2.49-.41.36-.19.48-.63,1-.69,3.27.71,6.39-.35,10.1-.14,1.38-1.75,4.18-1.66,6.92-1.8.83-1.2,1.88-2.17,2.63-3.46A130.45,130.45,0,0,0,15.68,11.14Zm23.65-.69c-1.29,1.61-3,2.86-3.73,5,.74.74,2.86.09,3.46,1,0,1.7-1.74,2.29-2.63,3.32-.65.75-1,1.82-1.8,2.49a12.72,12.72,0,0,1-3,1.52c-.33,0-.41-.24-.83-.14-1.18.71-1.9,1.88-3.73,1.94-2.16-1.67-4.86-2.8-7.33-4.15-.3.89-1.18,1.21-1.24,2.35a10.11,10.11,0,0,0,2.77,1.52c.36-.64.66-1.82,1.66-1.38.46,1.06-.64,1.26-.69,2.21,1.08.44,2.37.67,2.91,1.66.16.57-.29.54-.28,1s.47.44.41,1c.47,3.49-.73,6.45-1,10.1A102.14,102.14,0,0,0,24,50.7c.15,3.32,1,7.51-1,9-.83.14-1.34.6-2.21.69.55,1.64-1.66,2.46-2.21,3.87,1.92.91,2.23-1.7,3.6-2.21,0-.8,1-2,1.8-1.11-.28,1.71-2.37,2.32-2.63,3.6H23A16.68,16.68,0,0,1,25.37,62c.22-.65.38-1.37,1.38-1.24.07.21.2.35.28.55-.65,1.28-1.93,1.95-2.49,3.32.78.26,1.47-.12,2.49,0,1-.84,1.53-2.16,2.49-3a.69.69,0,0,1,.69.55c-.07,1.27-1.2,1.47-1.52,2.49.41.28,1.31.08,1.94.14.79-.51.84-1.74,1.66-2.21.4,0,.51.32.69.55.06.8-.64.83-.55,1.66H33.8c.59-.52.47-1.74,1.38-1.94.14.28.61.22.55.69.3.47-.53.79-.55,1.38,1.47.68,2.33-.39,3.6-.69a1.37,1.37,0,0,0,1.66.69c-2.62-2.78-6.26-4.52-10.51-5.67-.73-1-.64-2.78-1.52-3.6,1-1.06.46-2.78.55-4.43.07-1.14.32-2.35.41-3.6.11-1.44-.11-2.93,0-4.29.24-2.94.8-6,1.11-8.71.25-2.15.56-4.41,0-5.67,6.28-6.08,12.67-12,18.4-18.67C45.73,10.42,43,10.46,39.34,10.45Zm-36,1.11c-.27.41.46.77.83,1,.23-.32.77-.33.69-1C4.24,11.72,3.76,11.24,3.37,11.56Zm24.07,6.78C27.17,20,29,21.66,30.9,21.52c1.47-.12,3.79-2.35,3.32-3.87C32.32,15.88,27.9,15.49,27.44,18.33Zm-7.19,1.11c.34.08.29.54.83.42.24-1.09,1.38-1.29,1.66-2.35C21.22,17.47,20.93,18.64,20.25,19.44Zm-2.63-1.66c.28,1.11,2.31,1.32,2.49,0C19.4,17.4,18.44,17.82,17.62,17.78ZM14,20.68c.51.08.56.64,1.11.69A7.4,7.4,0,0,0,16,19.3a2.88,2.88,0,0,0-.83-.41C14.85,19.57,14.22,19.92,14,20.68Zm2.08,1.38a2.06,2.06,0,0,0,1.24.83,8.06,8.06,0,0,0,1.11-2.08A2.08,2.08,0,0,0,17.07,20,15.21,15.21,0,0,1,16.1,22.07Zm6.5-1.24c.15,0,.22.15.28.28A1.05,1.05,0,0,0,23.71,20,1.49,1.49,0,0,0,22.6,20.83Zm1.38.69a6.84,6.84,0,0,0,1.52.83c.75-.59.07-1.44-.42-1.94C24.69,20.75,24.19,21,24,21.52Zm3.87,1.8c-.44-.3-.73-.75-1.38-.83C26.06,23.05,27.66,23.37,27.85,23.31ZM16.37,64.12c.33,0,.52.22,1,.14.33-1.42,1.75-1.76,2.08-3.18C17.45,61.14,17.38,63.09,16.37,64.12Zm-3.46,0H15c.26-.84,1-1.19,1.24-2.08A4.16,4.16,0,0,0,12.92,64.12Z"/><path class="cls-1" d="M29.38,30.51a36.35,36.35,0,0,1-.28,5.81c-.22,1.8-1,3.62-1,5.39,0,1,.36,2.07.28,3.18s-.47,2-.55,3,0,2.32-.14,3.46c-.11.91.11,2.63-1.66,2.21a14.41,14.41,0,0,1,.28-3c.23-3.18,0-6.54.28-9.68a24.67,24.67,0,0,1,.69-2.77c.47-2.49,0-5.81.83-7.61C28.41,30.11,29,30.23,29.38,30.51Z"/><path class="cls-1" d="M27.85,55c.18,1.07-.79,1.27-1.38.83A.82.82,0,0,1,27.85,55Z"/></g></g></svg>