<svg xmlns="http://www.w3.org/2000/svg" viewBox="0 0 64.11 71.07"><defs><style>.cls-1{fill:#53b0a1;fill-rule:evenodd;}</style></defs><title>Asset 12</title><g id="Layer_2" data-name="Layer 2"><g id="art"><path class="cls-1" d="M23.85,26.77a1.92,1.92,0,0,0-1,0A2.29,2.29,0,0,0,21.79,28c-.17,1.22,1.64,2.76,2.94,1.85A1.76,1.76,0,0,0,23.85,26.77Z"/><path class="cls-1" d="M47.63,41.8c-.25,1.11.46,1.89.48,3-.65,0-.9-.41-1.35-.61-.5.21-.52.94-.72,1.49-.91,0-1-1-1.91-1,.85.71,1.29,2.32,2.63,2.2.17-.61-.1-1.26.48-1.5.57.11.8.58,1.59.44.31-1.43-.71-2.14-.56-3.69C48,42.06,48,41.71,47.63,41.8Z"/><path class="cls-1" d="M50.41,56.3A24.29,24.29,0,0,0,50.49,59c-.53,0-.86-1-1.43-1.23-.72.46-.62,1.84-1,2.64-.78-.34-1-1.31-1.75-1.67.53,1.17.92,2.49,2.15,2.9a24.11,24.11,0,0,1,1-2.55c.78.28.86,1.34,1.83,1.41C51,59,51.59,56.81,50.41,56.3Z"/><path class="cls-1" d="M56.53,65.18c.14,1,.05,2.17.48,2.81a5.17,5.17,0,0,0,0-3C56.73,64.93,56.67,65.1,56.53,65.18Z"/><path class="cls-1" d="M32,66.06c-.68.4-.19,2.08.08,2.55C32.26,68.23,32.46,66.31,32,66.06Z"/><path class="cls-1" d="M33.4,66.23c-.11.62-.21,1.95.32,2.46C34,68.16,34.17,66.36,33.4,66.23Z"/><path class="cls-1" d="M34.83,66.32c-.45.35,0,2.28.48,2.64C35.53,68.28,35.38,66.7,34.83,66.32Z"/><path class="cls-1" d="M21.95,5.68a2.09,2.09,0,0,1-1.27,1.14,34.46,34.46,0,0,0-7,12.13c-.13.27-.53.23-.64.53a8,8,0,0,1-.56,3c-2.48,0-5.39-.21-7.87-.26-1.63,0-2.87.31-3.5,1.5-1,2-.44,4.79-1.11,7.21.57,2.27.25,5.37.64,7.91.23,1.57.53,3.63.88,5.36.31,1.54,1.17,4.85,2.23,5.1a5.4,5.4,0,0,0,2.15-.53c.55-.19,1.37-.91,1.83-.88,1.16.07,1.35,2.2,2.38,3a13.67,13.67,0,0,0,1.43-.18c1.06-.38,1.72-2.07,2.7-2s1.41,2.75,2.31,2.9c1.13.19,1.9-1.69,2.78-2.2,1,.34.74,2.09,1.75,2.29.71.14,2.65-1,3.18-1.32.35-.23.64-.63,1-.79,1.6.52,3.57.63,5.09,1.23.12.4-.33.6-.32,1.05s.47.66.56,1.06a31.4,31.4,0,0,1,0,4.92c0,1.37,0,1.87-.79,2.46s-2.68,2.16-2.78,4a7.26,7.26,0,0,0,1.11,3.16,4.82,4.82,0,0,0,3,2.72,21.5,21.5,0,0,0,4.69.09c1.23,0,2.55-1,3.1.26a29,29,0,0,0,5.65.61c1.21,0,2.45,0,3.66-.09a26.32,26.32,0,0,0,4-.79c.55-.11,1.15-.1,1.75-.26a8.86,8.86,0,0,1,1.51-.44,10.48,10.48,0,0,0,2.46-.09A12.91,12.91,0,0,0,60,68.52a8.54,8.54,0,0,0,4.05-7c0-.16-.1-.42-.08-.61.06-.58.4-1.74-.64-1.5-.34.08-.38.67-.64,1.06a11.4,11.4,0,0,1-1.19,1.23c-.58.55-1.48,1.62-2.31,1.67-1.18.07-1-1.08-1.59-2.11A54.6,54.6,0,0,0,48.9,36.35c-.09-.89-.78-1.13-1-1.93a11.8,11.8,0,0,1-1.27-1.49c0-.38.19-.56.16-1-.9-1.56-2.77-1.92-4-3.07-1-.92-1.75-1.88-2.63-2.81-.27-.05-.41-.25-.79-.18.46-3.1,1-7-.24-9.67a29.23,29.23,0,0,0-10,4.66,83.92,83.92,0,0,0-5.72-14.5c.5-.62,1.2-.63,1.67-1.14A3.78,3.78,0,0,0,26,2.78c-.21-1.23-2.11-3.34-4-2.64C19.59,1.07,19.25,4.73,21.95,5.68Zm3-2.81A1.78,1.78,0,0,1,23.38,5c-2.53.27-3.3-3.91-.4-3.69A1.94,1.94,0,0,1,25,2.87ZM22.18,9.28c-.26-.27-.45-1-.24-1.14A6,6,0,0,1,22.18,9.28ZM23.3,11a5,5,0,0,1-.4-2.55,12,12,0,0,1,.64,1.93A1.18,1.18,0,0,0,23.3,11Zm-2.7-1.67c1.47,1.69,2.71,3.63,5,4.4a44.47,44.47,0,0,1,2.15,6.06c-.67,0-.84-.57-1.59-.35a26.49,26.49,0,0,1-7.47-7.73A6.51,6.51,0,0,1,20.59,9.37ZM25,12.27c-.22.19-.39-.22-.64-.26a5.4,5.4,0,0,0,.32-.79C24.71,11.61,25,11.8,25,12.27ZM19.64,18c-.29,0-.29-.26-.56-.26.13-1.34-.56-2.63-.16-3.69A13.73,13.73,0,0,1,19.64,18Zm-1.83-1.14c-.42-.53-1-.88-1.11-1.76C17.35,15.36,17.6,16.08,17.81,16.84Zm-1.59-.26c1.67,2.11,3.51,4,5.25,6.06a29.77,29.77,0,0,0-3.58-.09c-.88-1.35-2.13-2.28-2.78-3.87C15.52,18,15.54,16.94,16.22,16.58Zm5.57,1.58c.05-.43-.24-.5-.24-1.06.1,0,.11-.11.24-.09C21.86,17.26,22,17.93,21.79,18.16ZM4.85,29.76a15.05,15.05,0,0,0,2.78-2.37c1-1.1,1.43-2.54,2.31-3.69a7.12,7.12,0,0,1,3.18.26,33.09,33.09,0,0,1,5.72-.26c1.77.08,3.69-.12,4.61.61,1.38-1,3.51.34,4.93-.53.58-.35.8-1.46,1.19-1.93a15.11,15.11,0,0,1,4.69-3,16.54,16.54,0,0,1,4.21-1.41c.82,2,.59,5.56.08,7.47-.12.43-.44.64-.4,1.05s.54.75.8,1c.67,1.52,1.52,2.83,2.07,4.48C38.21,36.35,36.29,42.24,33.32,47a.77.77,0,0,0-.79.26c.07.22.15.68,0,.88-1.23,2.31-4.14.61-6.44.44-.29-.23-.42-.65-1-.62a5,5,0,0,1-3.9,2.37c-.78-.6-.63-2.24-1.67-2.55-.68.26-1.84,2.52-2.78,2.37-.79-.13-1.22-2.69-2.39-2.72s-2.61,2.41-3.74,2.2c-.4-.08-1-1.06-1.35-1.58S8.45,46.32,8,46.28s-1.1.82-1.51,1.05A5.37,5.37,0,0,1,3.9,48C1.75,43.88,1.6,37.57,1.27,31.61A30.23,30.23,0,0,0,4.85,29.76ZM23.53,21.5c0,.2-.23.1-.24.26.2.3.35.66.72.79a.77.77,0,0,1,.32-.35c0,.48.6.27.72.61-1.44.07-2.59-.18-3.1-1.14.43,0,.56.38,1.11.26.25-1.24-.6-2.89-.24-4C23.35,18.83,23.25,20.38,23.53,21.5Zm-2.15-1.76c-.4,0-.46-1.22-.24-1.32C21.23,18.86,21.47,19.12,21.39,19.74Zm-6,2.72a3.63,3.63,0,0,1-.32-1.93h.24C15.47,21.06,15.81,22.18,15.42,22.47Zm-.56,0c-.23.1-.54-.06-1,0,.05-.53.08-1.09.48-1.23C14.63,21.55,14.45,22.34,14.87,22.47Zm11.77-.53c0-.15-.26-.64.08-.61A.47.47,0,0,1,26.64,21.94Zm-.64.18c-.3,0-.43-.72-.16-.79C26,21.47,25.84,22,26,22.11Zm-8.91.44a1.16,1.16,0,0,1-.87-.18c0-.21-.1-.64.08-.7A6,6,0,0,1,17.09,22.55Zm9.07.18a.48.48,0,0,1-.4.09c0-.22,0-.43.16-.44C25.94,22.56,26.14,22.55,26.16,22.73Zm-20.75.7c.48.4,1.44,2.69,1,3.25-.44-.24-.52-1-.71-1.49a4.13,4.13,0,0,1-.48-1.67A.36.36,0,0,0,5.41,23.43Zm3,.26c0,.26-.18.33-.32.44A.82.82,0,0,1,8,23.61.47.47,0,0,1,8.43,23.7Zm-5.33.7c-.23-.27-.66,0-.88-.18.11-.25.39-.33.64-.44C3,23.93,3.25,24.2,3.1,24.4Zm-.64,1.76c-.49-.24-.46-1-.56-1.5.1,0,.11-.11.24-.09C1.93,25.16,2.69,25.59,2.46,26.16ZM4.21,27c-.72-.21-1-1.79-.88-2.37C3.61,25.43,4.23,26.24,4.21,27Zm3.26-1.58c-.27.14-.38-.59-.08-.53A.81.81,0,0,1,7.47,25.45Zm-5,3.87v.26c-.37.15-.76.27-1.11.44,0-.13-.12-.22-.16-.35.17-.4.94.42.88-.44A.48.48,0,0,1,2.46,29.32Zm39,.7c-.08-.23-.29-.33-.32-.62C41.44,29.43,41.8,29.93,41.5,30Zm3.58,2.9a11.13,11.13,0,0,1-.79-1.85C45,31.22,46,32.34,45.08,32.92ZM42.38,36c-.35-.66-1.11-1.74-.88-2.46A6.67,6.67,0,0,1,42.38,36Zm2.15-.62a.75.75,0,0,1,.48-1C44.9,34.8,44.87,35.26,44.53,35.38Zm2-.88a43.72,43.72,0,0,1,3.58,5.63,51.55,51.55,0,0,1,6.44,21.8c.82,1.07,1.16,2.7,2.7,2.55s2.24-2.16,3.58-2.64a4.34,4.34,0,0,1-1.51,3.69c-.22-.34-.09-1.07-.48-1.23-.52.33.1,1.15.08,1.76-.4.47-.71,1-1.51,1.05,0-.81,0-1.68-.64-1.76.82,2.38-1,3.13-2.86,2.81-.27-.38,0-1.11-.08-1.58-.52-.15-.75-.64-1.19-.88-.25.84.31,1.52.32,2.37-.35.46-1.09.49-1.67.7-.41-.83.21-2.8-.71-3.07C52.21,67,52.92,68,52.8,69a8.21,8.21,0,0,1-1.59.26c-.11-1.08.27-2.7-.64-2.9a29.49,29.49,0,0,0,.24,3,3.8,3.8,0,0,1-1.19.18c-.39-.75,0-2.35-.79-2.64-.35.94.37,1.85.16,2.64a1.3,1.3,0,0,1-1.27.18c-.4-.74.17-2.08-.48-2.64-.78.59.16,1.8-.08,2.72a11.51,11.51,0,0,1-1.43,0c-.31-.88.43-1.91-.32-2.29-.68.26-.21,1.57-.16,2.29a2.12,2.12,0,0,1-1.35-.09c0-.69.43-1.71-.24-1.85a.34.34,0,0,1-.32.18,16.28,16.28,0,0,0,0,1.67,1.93,1.93,0,0,1-1.27-.09c0-.42.3-1.12-.16-1.23s-.29.67-.48,1c-2.69-.6-.32-3.59,1.83-2.9.67-.85-.22-1.2-.56-1.85a18.28,18.28,0,0,1-.79-2.29c-.83-2.6-.67-5.86.64-7.56,2-1.89,4.83-1.87,7.71-1a1.22,1.22,0,0,0,.4-.61c-.18-.15-.19-.49-.4-.61-2.53-.94-6-.9-7.87.61a6.74,6.74,0,0,0-2.07,5.1,20.6,20.6,0,0,0,1.51,6.86c-1.09.4-2.66.29-3.66.79-.32.59.13,1.92-.08,2.64a1.18,1.18,0,0,1-1,.26c-.39-.8.05-2.52-1-2.64,0,1.07.48,1.64.48,2.72-2.11.37-5,.57-6.6-.53.13-.82.62-2.18-.08-2.64-.35.26-.25.86-.32,1.58-.36-.13-.25-.77-.32-1.23A5.24,5.24,0,0,0,30,64.74a7.33,7.33,0,0,1,3.18-1.23A12.83,12.83,0,0,0,33.47,60c.08-2,.08-3.81.16-5.27.21-.21.55-.27.56-.7,1,1.28,2-.38,2.62-1.23,2.54-3.21,4.42-7.23,6.36-10.81,1.11-2.43,2.12-5,3.18-7.47Zm-2.23,2.11c-.11,0-.09.19-.16.26-.29,0-.64-.64-.32-.79C43.78,36.47,44.24,36.32,44.29,36.62Zm-4.13-.18a20.16,20.16,0,0,1,.79,1.93c.19.41.81,1.12,0,1.23a15.42,15.42,0,0,1-1.19-2.9C40,36.69,39.84,36.33,40.15,36.44Zm2,1.85a2.63,2.63,0,0,1-.71-1.41A4,4,0,0,1,42.14,38.29Zm-2.94,0c.57,1.1,1.44,2.33,1.43,3.78-.62,0-.54-.82-.71-1.23a8.76,8.76,0,0,1-1-2.37C39,38.46,39,38.22,39.2,38.29Zm.08,3.78c-.47-.51-.64-1.34-1.27-1.67.16-.09.12-.39.4-.35A9.49,9.49,0,0,1,39.28,42.06Zm2.62-.35a1.72,1.72,0,0,1-.56-1.32C41.5,40.87,41.75,41.24,41.9,41.71Zm-2.78,2.55c0,.2-.32.12-.4.26a3.31,3.31,0,0,1,.64,2c-.36,0-.44-.39-.4-.88a11.92,11.92,0,0,1-1.43-4.22c.1,0,.11-.11.24-.09A23.87,23.87,0,0,1,39.12,44.26Zm1.75-.79c0-.21-.15-.19-.08-.44C41.08,43,41.26,43.5,40.87,43.47Zm-3,3.25c-.36-1-1.39-2.51-1-3.52C37.27,44.29,38.24,45.86,37.85,46.72Zm-.79,1.14c-.21-.09-.41-.19-.64-.26,0-1-1.26-2.12-.32-2.81A23.4,23.4,0,0,1,37.05,47.87Zm-1.27,1a1.62,1.62,0,0,1-1-2C35.5,47,35.78,48.15,35.78,48.83Zm2.94-1.23c-.1.31-.17.63-.48.7A2.73,2.73,0,0,1,37.93,47C38.38,47,38.49,47.36,38.72,47.6Zm-1.43,2.11c-.08-.15-.36-.53-.16-.7C37.14,49.23,37.47,49.56,37.29,49.71ZM36.49,51a17.45,17.45,0,0,1-2.3,2.64c0-.07,0-.17-.08-.18.15-.63,1.15-1.07,1.19-2.11a1.2,1.2,0,0,0,.56-.7c0-.36-.27-.52-.24-1,0-.07.07-.1.16-.09C35.88,50.24,36.32,50.49,36.49,51Zm-3.66,1.76a7.83,7.83,0,0,1-.48-2.55c.1,0,.11-.11.24-.09C32.81,50.85,33.73,52.21,32.84,52.79Zm-.48,4.31c-.26-1-.88-1.48-.63-2.72C32,55.18,33,56,32.36,57.09Zm.08,2.37a5.15,5.15,0,0,1-.79-2.29c0-.07.07-.1.16-.09A2.92,2.92,0,0,1,32.44,59.47ZM32,62.28a2,2,0,0,1-.24-2.46C32.15,60.25,32.8,61.75,32,62.28ZM30.77,61c.24.56.77.79.72,1.67-.37.21-.62.55-1.19.53a8.65,8.65,0,0,1-.48-1.58C30.23,61.47,30.34,61,30.77,61Zm-.88,2.55c-.59.52-1,1.19-1.59,1.76-.31-.3-.17-.69-.16-1.23.28,0,.19.31.48.26-.09-.79-.11-1.74.79-2C29.53,62.74,29.86,63,29.9,63.51Z"/><path class="cls-1" d="M31.33,23.78c.15.38.46.35.4.79,1,.34,2.31.33,3.1.88.46.32.71,1,1.43.35.42-1.76.67-3.17,1-5a.76.76,0,0,0-1.35-.18A5.19,5.19,0,0,0,31.33,23.78Zm4.61-1.58c-.24.14-.24-.58,0-.44Zm-.48,1.58a5.67,5.67,0,0,1-.56-1.85h.24C35.17,22.53,35.92,23.23,35.46,23.78ZM33.87,24c-.73.14-.82-1.45-.24-1.5C33.74,23,34,23.59,33.87,24ZM35,24.4c-.6,0-.44-.8-.56-1.32C34.86,23.25,34.91,23.83,35,24.4Z"/></g></g></svg>