<svg xmlns="http://www.w3.org/2000/svg" viewBox="0 0 62.98 49.23"><defs><style>.cls-1{fill:#53b0a1;}</style></defs><title>Asset 10</title><g id="Layer_2" data-name="Layer 2"><g id="art"><path class="cls-1" d="M20.3,30.44a65,65,0,0,0-11.65,1c-.19-.16-.35.14-.54-.15s.06-.65-.13-1c.22-.41.92-.29.85-.75-.83-.09-1.63.46-2.49-.25C5.67,30.58,5,31,4.41,32a49.91,49.91,0,0,0,9.06.49c.6-1.69,2.67-1.44,4-.79.21.4-.38.84.41,1.22,1-1.15,1.84-1.35,2.74-2.24l-.28-.25M23.38,28c-3.68.41-7.36.59-11,1.1-.17.26-.35,0-.52.38a30.66,30.66,0,0,0,6.63-.37c2.1-.23,3.85.55,5.38-.68L23.38,28m-5.24-4.29c-1.89.37-4.39.41-6.18.62-.93.11-1.59-.41-2.18.71,3.2.2,6.35-.63,9.54-.77.09-.12.17-.24,0-.36a3.27,3.27,0,0,1-1.16-.21m9.8,1.17c-1.31-.52-3.76.38-5.48.42-.38,0-.71-.25-1-.22s-.59.34-.87.39c-.65.12-1.49.2-2.12.27-.22,0-.4-.25-.63-.24-.63,0-1.28.28-1.85.35-.89.1-2,.07-2.56.2-.22,0-.69.47-1,.58-1.88.56-4.66-.63-4.89,1.63,5.51-.38,11.3-1.08,16.68-1.52,1.76-.15,2.56-.14,3.92-1.68l-.19-.17m-2.29-1.76A7.23,7.23,0,0,0,31,22.89c-1.81-.81-3.53.34-5.31.23m8.71-3.39C28.56,19.92,22.78,21,17,21.63l-.37-.34c-1.51.58-3.06.25-4.55,1.26A56.71,56.71,0,0,0,20,22.48c2.41-.22,4.78-.76,7-1,.16,0,.45.25.63.24.85,0,1.94-.5,2.9-.57,1.59-.12,2.92.46,4.11-1.15l-.28-.25m2.12-2.31c-.3-.1-.59,0-.9-.31-5.24,1-10.57.28-15.75,2.72,1,.64,2.75-.43,4.08,0,3.4-.69,6.81-.94,10.21-1.51a3.39,3.39,0,0,0,3.78-.78.37.37,0,0,0,0-.35c-.48-.16-.94.14-1.41.24m1.13-2.53c-3.29.36-6.62,0-9.85,1.67.42.26.83,0,1.25.3L34.74,16c2.81-.42,5.76.42,7.9-1.76,0-.09,0-.18-.1-.26-1.63.53-3.31.09-4.93.92m7.65-3.35a28.33,28.33,0,0,0-5.79,1.31c-.33-.12-.65.09-1,0-.44.57-1.8.13-1.65.69,2.71-.26,5.39-.94,8.11-1.06.36-.52.75-.5,1.11-1l-.28-.25c-.16.26-.35,0-.52.38m1.52-1.84c.94.75,2.67-.52,3-1.37-1,.53-2,.57-3,1.37m0,5.05a46.08,46.08,0,0,1-4.18,3.64c-.47.32-1.18.37-1.65.69-.66.44-1.22,1.18-1.88,1.68-1,.71-1.69,1.27-2.48,2-2.22,2-4.94,3.26-6.94,5.53a2,2,0,0,0-.88.22c-2,2.07-5.16,3.59-7.37,5.81,1.38,2.65,3.7,4.92,5.28,7.39.66,1,.81,2.39,1.81,3A70.68,70.68,0,0,0,35.2,37c4.64-5.72,8.73-11.73,13.15-17.67C50.87,15.92,53,12.1,55.6,8.62c0-.09,0-.18-.1-.26-3,1.62-5.71,4.74-8.76,6.4m.4-11.19c-.68,0-1.37-.19-2-.17-3.48.1-6.94.71-10.43.63A90.59,90.59,0,0,1,20.35,5c-3.83.87-7.71.76-11.54,1.65,1.4,4,3.41,7.89,4.94,11.84.89-.5,1.82-.32,2.7-1.09,5.53-1.09,11-4.83,16.5-5.77,2.23-1.35,4.75-1.71,7.07-2.52,4.68-1.64,9-3.87,13.85-5.48,0-.09.16-.18.08-.27-2.28-.16-4.55.19-6.81.2M31,46.9c-1.12,0-1.35,1.53-1.42,1.92a6.36,6.36,0,0,1-1.23.41,20.4,20.4,0,0,1-4-6.21c-2.27-2.85-4.1-5.36-6.12-8.33-.46-.24-.37.47-.85.75-2.46.64-5.76.2-8.59.11-1.27,0-2.48.07-3.9,0C2.63,35.4.2,35.12,0,32.38c3.38-4.87,6.83-8.71,10.93-13.59C9.58,13.71,6.09,8.72,5,3.63c.83-.69,1.67-1,2.57,0,4.27-.42,8.5-1.48,12.8-1.17.31-.38.64-.3,1-.49a17.71,17.71,0,0,1,2,.27c.57-.5,1.17-.22,1.75-.6a22,22,0,0,0,6.36-.45,8,8,0,0,0,3.8-.25.81.81,0,0,0,.55.33A22.93,22.93,0,0,1,44.18.69c1-.66,2.48-.28,3.88-.34C50.53.23,53.34.11,55.94.09c1.77,0,6.16-.59,7,1.3.41.94-1.13,3.85-1.82,5s-1.6,2.08-2.43,3.21c-2.59,3.53-4.65,7.18-7.5,11C46.21,27,40.84,34.4,35.23,41.58A52.15,52.15,0,0,1,31,46.9"/></g></g></svg>