<svg xmlns="http://www.w3.org/2000/svg" viewBox="0 0 41.01 60.86"><defs><style>.cls-1{fill:#53b0a1;fill-rule:evenodd;}</style></defs><title>Asset 24</title><g id="Layer_2" data-name="Layer 2"><g id="art"><path class="cls-1" d="M33.14,0c.92.33.93,1.57,1.25,2.5C36,2.31,36.52.64,37.88.54c.22,1.19-1,2.16-.8,3.31,1.25.51,2.74-.53,3.93-.36,0,1-.78,1.58-1.25,2.23a11.21,11.21,0,0,1-1.43,2c-.64-1.06,1-1.92,1.25-2.95-1-.2-2.76.74-3.66-.09a10.37,10.37,0,0,1,.63-2.05c-1,.11-1.81,1.1-2.95,1.34-.47-.45-.08-1.76-.63-2.14-.84.44-.91,2.52-1.88,2.5-.63,0-.46-.87-1.16-1-.23,1,.53,1.79,1,2.41-.12.49-.61.93-1.07.8-.25-1.78-.82-3.23-1.07-5,.28,0,.35-.25.54-.36.87.32,1.18,1.2,2,1.61C32.22,2.18,32.21.62,33.14,0Z"/><path class="cls-1" d="M33.77,12c.2,1.6-.53,3-.81,4.65-1.59.15-4,.77-5.18-.18a17.22,17.22,0,0,1,.27-4.56C29.49,10.94,31.67,12,33.77,12Zm-4.29.89a2.88,2.88,0,0,0-.36,2.32,7.49,7.49,0,0,0,2.77.09c.38-.45.34-1.32.54-2A5.34,5.34,0,0,0,29.48,12.86Z"/><path class="cls-1" d="M16.88,22.78a6.33,6.33,0,0,1,6.43,3.66,7.48,7.48,0,0,1-1.43,7.68c-2.57,2.65-7.9.89-9.2-1.7a6.94,6.94,0,0,1-.18-4.73C13.18,25.66,14.76,23.15,16.88,22.78Zm-2.59,4.65c2-.75,4.21-1.27,5.63-2.59C17.69,22.92,14.76,25,14.29,27.43Zm4.11,1.25c.67-.23,3.39-1.08,3.48-1.7s-.63-.81-.72-1.25c-.29,0-.44.15-.8.09-2,1.24-4.54,2-6.61,3.13v1.34c.4,0,.28-.55.71-.54C15.53,29.44,16.86,29.21,18.4,28.68ZM14,30.91c.36,1.9,2.52,2.95,4.56,2.86a4.23,4.23,0,0,0,3.75-5.45C19.36,29,17,30.29,14,30.91Z"/><path class="cls-1" d="M7.68,5.54c.86.63.46,2.41.54,3.75,2,.11,4.06,0,6.07,0,5.38-.08,9.89-.37,15.81-.36,2.23,0,4.44-.67,6.61-.36,1.5,5.55,1.37,12.78,1,19.3-.19,3.32-.5,6.61-.89,9.83-.19,1.59-.5,3.18-.63,4.73s-.06,3.2-.8,4.56c-.63,0-1.72-.23-2.59-.27.67,2.52,0,5.95-.18,9.29a17.66,17.66,0,0,1-.45,4.2c-7,.24-15.51.56-22.69.63-1.77,0-5.58.26-6.08-1.07-.19-.49.15-1.2.18-1.88.11-3.08-.17-7.83-.09-11.43C2.11,46.38,1,45.4,0,44.67c.21-2.32,0-4.78,0-7.06s.3-4.18.45-6.88c.18-3.21.58-6.48.63-9.83a70.94,70.94,0,0,1,.45-10.63c.4-.37.94-.61,1.34-1,.44-1.22-.38-2.56.36-3.31C3.8,5.39,6.64,6,7.68,5.54ZM7,8.58c.26-.13.23-.91.09-1.16a.42.42,0,0,1-.27-.09C6.56,7.58,6.45,8.56,7,8.58ZM2.59,10.81v.8c1,.39,2-.39,2.86-.18-.38,1.17-1.86,1.24-2.86,1.79v.45c.83.34,2.26-.67,2.86,0-.45.92-1.79,1-2.86,1.25,0,.46-.2.93,0,1.34.94.36,2.61-.35,2.77.63-.66.51-1.84.49-2.77.71a3.92,3.92,0,0,0,0,2c.56.21,1.61-.06,1.7.62-.38.45-1.17.5-1.79.71a5.49,5.49,0,0,0-.09,1.52c1,0,2.23-.08,2.59.63-.63.41-1.88.2-2.68.45a2,2,0,0,0,.18,1.79c.6,0,1.64-.33,2.06.09-.34.64-1.38.59-1.79,1.16a42.32,42.32,0,0,1,5.81.27c1.15-2.52,2.92-5.88,5.36-7.42a6.56,6.56,0,0,1,5.9-.62c1.56-.54,3,.5,3.93.89.39.16.78.18,1.16.36a5.79,5.79,0,0,1,2.41,2.23,10.93,10.93,0,0,1,2,5.09,44.91,44.91,0,0,0,7.06-.18c.38-5.87.58-11.68-.71-16.8C24.86,10.59,13.43,11.25,2.59,10.81Zm17.06,9.11a6.69,6.69,0,0,0-5.81,1.25,19,19,0,0,0-2.23,2.68,10.41,10.41,0,0,0-2.23,6.61c.17,5.23,4.78,7.09,10.1,6.7a8.87,8.87,0,0,0,5.27-2.32,12.86,12.86,0,0,0,3.13-7.06C28,22.56,24.16,21.1,20,19.48,19.81,19.54,19.74,19.74,19.65,19.92ZM4.2,30.73c.29-.74,1.2-1.75,1-2.41C4.78,28.9,3.39,30.1,4.2,30.73Zm1.43,0c-.3,1.16-1.25,2.14-1.43,3.13.9-1.1,1.27-2.72,2.23-3.75.05-.69.45-1,.63-1.61-.13-.14-.46-.08-.71-.09C6,29.16,5.17,29.74,5.63,30.73ZM2.41,29.3c.37,0,.66-.47.45-.71C2.67,28.78,2.41,28.91,2.41,29.3Zm26.26,2.86c.71-.78.89-2.09,1.25-3.22-.37.08-.42-.17-.71-.18C30.05,29.77,28.89,31.11,28.68,32.16Zm2.15-3c-.07.52.56.33.63.71-.14,2-1.25,3-1.79,4.65.28,0,.31.16.63.09.63-1.84,1.29-3.65,2.05-5.36A2.19,2.19,0,0,0,30.82,29.12Zm2.14.36c.36.17.88-.17,1.34-.18.72,1.42-.73,2.79-.89,4.2.74-.24.72-1.18,1-1.79a11.07,11.07,0,0,0,1.07-2.5C34.65,29.18,33.36,28.93,33,29.48ZM6.52,35.29a.78.78,0,0,0,.18-1.16C7.16,33,8.39,31.73,8,30.37c-.66,1.72-1.38,3.39-2.14,5,.48,0,.42-.59.8-.71.05,0,.11,0,.09.09A.88.88,0,0,0,6.52,35.29Zm-.27-2.86c.05-.22.45-.56.18-.8C6.38,31.85,6,32.18,6.25,32.43Zm-4.56.89c.15-.56.52-.91.53-1.61C1.41,31.53,1.5,33.08,1.7,33.32Zm1.25,1a6.18,6.18,0,0,0,.89-1.88c0-.07-.07-.1-.18-.09A4.32,4.32,0,0,0,2.95,34.3ZM27.87,34c.5-.2,1-1.28.71-1.7C28.25,32.81,28.25,33.61,27.87,34Zm5.45,4c.45,0,.38-.45.81-.45.5-1.61,1.65-3.44,1.43-5.18C34.75,34.24,34.28,36.4,33.32,38.06ZM4.91,34.57a.63.63,0,0,1,.27.18c-.09.18-.39.14-.36.45.41.08.47-.19.45-.54A3.37,3.37,0,0,0,6,33H5.72C5.5,33.55,5,33.85,4.91,34.57Zm24-.8c.28,0,.59-.48.36-.71C29.19,33.3,28.9,33.37,28.94,33.77ZM7.59,35.2c.3,0,.47-.59.36-.71C7.82,34.71,7.5,34.75,7.59,35.2Zm18.49,4.2c0-.2.38,0,.54-.09.52-1.3,1-2.63,1.43-4-.11,0-.12-.11-.27-.09C27.52,36.84,26,37.74,26.09,39.4Zm5.81-1.07h.71c.34-.93.9-2,.63-3H33C32.65,36.35,32.21,37.27,31.89,38.33Zm-3.31.89c.09.18.4.14.36.45-.45,1.48-1.36,2.51-1.88,3.93.23.1.43-.27.54,0s-.38.34-.18.54c.25,0,.37.16.63.18.43-1.27,1.38-2.55,1-4.11a36.08,36.08,0,0,0,1.79-4.56.25.25,0,0,0-.18-.27C29.63,36.33,29.37,38,28.59,39.22ZM1.34,35.82c0,.68-.28,1.72.09,2.32a4.36,4.36,0,0,0,.89-2.68C1.81,35.47,1.91,36.1,1.34,35.82Zm6.79,2.59c.16-.83,1.13-1.78.81-2.5C8.78,36.8,8,37.55,8.13,38.41Zm27-1.61c.27-.06.26.15.53.09a5.23,5.23,0,0,0,.18-1C35.24,35.87,35.23,36.39,35.11,36.81Zm-31-.8a10.46,10.46,0,0,0-1.88,3.57c.33-.06.38.15.72.09C3.23,38.45,4.38,37.17,4.11,36Zm4.47,3.22c.56,0,0,.43.54.45a26.36,26.36,0,0,0,1.34-3c-.22-.05-.19-.35-.54-.27C9.58,37.43,8.94,38.18,8.58,39.22Zm18.58.18c-.1.33.33.14.27.45-.12,1.11-1.18,1.62-1,2.77a2.58,2.58,0,0,0-.71,1.52c.76,0,.7-.84.89-1.34a58.91,58.91,0,0,0,2.23-6.34c0-.07-.08-.1-.18-.09C28.19,37.39,27.59,38.31,27.16,39.4ZM30.37,39c.84.05,1-1.69,1.07-2.41C31.21,37.46,30.64,38.06,30.37,39ZM5.09,36.63c-.29.93-.93,1.52-1.07,2.59a4.66,4.66,0,0,0,1.43-2.59ZM6,39.84C7.12,39.46,7.16,38,7.68,37,6.67,37.49,6.45,38.79,6,39.84Zm4,0c.22,0,.28.14.45.18.39-.7,1-2.05.8-2.77A7,7,0,0,0,10,39.84ZM24.3,38.77c.34,0,.63-.88.27-1C24.57,38.18,24,38.37,24.3,38.77ZM12,39.22c.11-.4.57-.92.36-1.34C12.23,38.28,11.56,38.89,12,39.22Zm1-.09a.76.76,0,0,0,.54.09c0-.33.22-.49.27-.8-.13,0-.15-.15-.27-.18C13.22,38.44,13.13,38.83,13,39.13Zm8.13-.36a13.16,13.16,0,0,0-.89,2c.8-.31.44-1.77,1.7-1.61a1.4,1.4,0,0,0,.18-.71A4.17,4.17,0,0,0,21.08,38.77Zm-6.7.45c.59,0,.43.53.53.89.11-.51.37-.88.45-1.43A.66.66,0,0,0,14.38,39.22Zm-9.11-.09c.23,0,.29-.12.27-.36C5.3,38.78,5.11,39,5.27,39.13Zm12.33.45c.21,0,.26.15.53.09,0-.39.22-.5.27-.8C17.94,38.58,17.55,39.05,17.6,39.58Zm-1.52,1a9.7,9.7,0,0,0,.71-1.7C16,38.91,16,40,16.08,40.56ZM33,41.9c0,.28.26-.23.27.09-.3,1.07-1,1.74-1.25,2.86.15.15.53.07.81.09.05-1.63,1.08-3.33,1.07-5C33.78,40.8,33.14,41.13,33,41.9Zm-8.22.54c.27.07.26-.15.54-.09.22-.71,1-1.75.8-2.32A4,4,0,0,0,24.75,42.43Zm-6.25-1.88c.33.14.49-.33.27-.45C18.68,40.27,18.54,40.37,18.49,40.56Zm3.66,1.88c-.31.32-1,1.12-.63,1.52a19.75,19.75,0,0,0,1.61-3.57c0-.07-.07-.1-.18-.09A3,3,0,0,0,22.15,42.43Zm2-2.05c-.4,1-1,1.76-1.43,2.68.49,0,.41-.54.81-.63-.06.66-.6.83-.63,1.52.94-.69,1.09-2.42,1.7-3.48A.59.59,0,0,0,24.12,40.38ZM6.79,43.33c.91,0,1.23-1.8,1.25-2.68A8.12,8.12,0,0,0,6.79,43.33Zm23.76.18c.37,0,.44-.69.71-.45-.11.64-.57.92-.63,1.61.12.12.39.09.63.09,0-.94.5-1.34.54-2.23-.26-.25-.17.35-.54.27a.71.71,0,0,1,.71-.54c.08-.45.34-.73.27-1.34-.21,0-.17-.31-.45-.27A13.61,13.61,0,0,0,30.55,43.51ZM5,44.4c.77,0,.69-.85.89-1.34a15.13,15.13,0,0,0,.89-2,.24.24,0,0,0-.18-.27A18,18,0,0,0,5,44.4Zm-3.66-3c.39.07.41-.35.18-.45C1.48,41.09,1.26,41.08,1.34,41.36Zm1.34-.27c.12.4-.27.79.09.89,0-.35.54-.9.18-1.07C2.92,41,2.75,41,2.68,41.09Zm11,2.5A3.8,3.8,0,0,0,14.38,41,8,8,0,0,0,13.67,43.6Zm15.63-.54c.1.21.37-.44.63-.09A5.7,5.7,0,0,0,29,44.4a.76.76,0,0,0,.54.09,27.34,27.34,0,0,0,1-3.22c-.18,0-.18-.24-.36-.27A6.44,6.44,0,0,0,29.3,43.06ZM5.18,41.63c.05-.19.22-.25.18-.54H5.09C5.14,41.25,5,41.62,5.18,41.63ZM14.74,44c.26.23.51-.08.89,0a10.49,10.49,0,0,0,.72-2.23c-.79.17-.27-.61-.63-.71C15.33,42,15.19,43.18,14.74,44Zm5.63-1.61c-.08.29.29.12.27.36a3.9,3.9,0,0,1-.81,1.07c0,.19.32,0,.45.09a13.37,13.37,0,0,0,1.07-2.59c0-.07-.08-.1-.18-.09C20.86,41.62,20.73,42.14,20.37,42.43Zm-3-.54A10.32,10.32,0,0,1,16.79,44a.64.64,0,0,0,.81,0c-.36-1,.75-1.67.53-2.5C18.06,41.79,17.63,41.78,17.33,41.9Zm1.7-.09c-.07.26-.33.33-.45.54s.28.26.18.63-.78.68-.63,1.07c.37,0,.56-.16,1-.09,0-.93,1-1.77.71-2.41C19.7,41.93,19.48,41.89,19,41.81Zm-8.67,2.41c1.09-.23,1-1.58,1.43-2.5C10.36,41.79,11,43.4,10.36,44.22Zm1.7,0A2.92,2.92,0,0,0,13,42.43C12,42.53,12.17,43.41,12.06,44.22Zm12.06-.89c.22-.09.77-.67.36-.8C24.4,42.83,24.09,42.91,24.12,43.33Zm-21.8-.09c.06-.18.31-.38,0-.45C2.22,42.93,2,43.17,2.32,43.24Zm22.07.62c.47,0,.45-.56.63-.89C24.53,43,24.6,43.57,24.39,43.86ZM6.7,44.4c0-.31.48-.64.27-.89C7,43.81,6.25,44.23,6.7,44.4Zm.89,0c.76,0,2.11.16,1.7-.71-.33.08-.47.37-.8.45-.1-.22,0-.61-.36-.63C8.08,43.94,7.62,44,7.59,44.4Zm25.64.54c.32.22.92.15,1.34.27.16-.34.41-1.47.09-1.7C34.53,44.33,33.26,44,33.23,44.94ZM2.59,44.58c.43,0,.53-.3.53-.71C2.7,43.83,2.38,44.26,2.59,44.58Zm1.34,0c0-.13.19-.1.27-.18s0-.33-.09-.36C4.2,44.32,3.63,44.39,3.93,44.58ZM15.37,46c-.61,2-1.6,5-.89,7.41a39.62,39.62,0,0,1,7.32.09,10.2,10.2,0,0,0-2-7.06c-.23-.22.19-.59-.18-.71C18.3,45.91,16.64,45.77,15.37,46Zm7,1.88a3.84,3.84,0,0,0,1.25-2.05H21.44A22.3,22.3,0,0,0,22.33,47.88Zm2.32-2c-.6.22-1.95,2.65-2,3.13,0,.65.52,1.37.36,2,.46.11.58-.84,1.07-1,.64-1.45,1.72-2.44,2.32-3.93A2.93,2.93,0,0,0,24.66,45.92ZM9.11,46.1a8.56,8.56,0,0,0-.18,2.68,4.87,4.87,0,0,0,1.88-2.68C10.41,45.94,9.74,46.2,9.11,46.1Zm.27,3.31c-.08.33.16.48,0,.63s-.42.11-.36.45c.1.63.1,1,.18,1.52a28.56,28.56,0,0,0,4.38-6C10.78,45.74,10.73,48.22,9.38,49.4ZM4.91,46.28a31.54,31.54,0,0,0-.18,4.38c-.12,1.86.17,4.05.18,5.9,0,.83-.46,1.86.45,2.32.2-.57-.13-1.67.89-1.43.26.55-.13,1.16-.18,1.7a4.3,4.3,0,0,0,1.7.18c.36-.85-.12-2,.72-2.32,0,.07.07.1.18.09.36.52-.16,1.36-.09,2.14a2.37,2.37,0,0,0,1.7,0c0-.72.12-1.24.63-1.43.6.33-.13,1,.09,1.43a3.5,3.5,0,0,0,1.7-.09c.22-.53.08-1.41.81-1.43.32.34,0,.82.09,1.43a5.66,5.66,0,0,0,1.88,0c.08-.64,0-1.41.71-1.43a2.46,2.46,0,0,1,.09,1.34A5.21,5.21,0,0,0,18,59c.18-.45-.21-1.16.53-1.16.42.12.17.9.36,1.25a14.61,14.61,0,0,0,1.7-.18c.26-.51,0-1.2.89-1.16a4.4,4.4,0,0,1,.09,1.16H23c0-.57.19-.94.63-1.07a1.67,1.67,0,0,1,.18,1,3.88,3.88,0,0,0,1.25.09c.29-.43.14-1.29,1-1.16a2.16,2.16,0,0,1,0,1.07,10.55,10.55,0,0,0,2.41-.09c.16-.31-.23-1.09.45-1.07.49,0,.26.75.45,1.07.45-.21,1.34,0,1.79-.18.27-3.66.74-8.31.36-12-1.43,0-1.87-.37-3.22-.36a37,37,0,0,1-.71,9c-4.63.33-9.07-.63-13.49-.27-1.48.12-5.63,0-6.07-1.34-.07-.22.09-.48.09-.72,0-2-.47-4.76-.53-6.7A17.74,17.74,0,0,0,4.91,46.28Zm21.62,1.07c-1,2.17-3.59,3.39-3.39,6.25,1.1.1,1.65-1.25,2.15-2.14C26,50.18,27,48.9,26.8,47.35ZM9.83,52.89a4.38,4.38,0,0,0,1.34.36c.78-1.78,2.11-3,2.32-5.36,0-.07-.08-.1-.18-.09C12.13,49.47,10.56,50.76,9.83,52.89Zm14.83.63a8.1,8.1,0,0,0,1.87-.09,8.47,8.47,0,0,0,.09-2.95A22.72,22.72,0,0,0,24.66,53.51ZM12,53.42h.71c.18-.35.28-1.1-.09-1.34C12.45,52.59,11.95,52.75,12,53.42Z"/></g></g></svg>