<svg xmlns="http://www.w3.org/2000/svg" viewBox="0 0 66.5 71.36"><defs><style>.cls-1{fill:#53b0a1;fill-rule:evenodd;}</style></defs><title>Asset 17</title><g id="Layer_2" data-name="Layer 2"><g id="art"><path class="cls-1" d="M54.68,5.49c-.17,1.52-1.59,2-2.24,3.05C52.71,7.15,53.34,5.62,54.68,5.49Z"/><path class="cls-1" d="M63.14,15.8c-1.12.92-1.81,3.19-3.42,3A6.56,6.56,0,0,1,63.14,15.8Z"/><path class="cls-1" d="M61,54a10.23,10.23,0,0,1-1.09,5.65c-1.79-.41-3-2.44-4.44-3.64,0-.31-.11-.69,0-.86.49-.14.65.09,1,.14C55.19,53,59.13,54.34,61,54Zm-1.91,3.24a5.66,5.66,0,0,0,.31-1.63c-.91-.32-1.79,0-2.69-.23C57.34,56.16,57.91,57,59.08,57.24Z"/><path class="cls-1" d="M33.68,1c-1.54,1.44-1.35,4.69.23,6.09-.28.29-.29.82-.45,1.21-1-.12-1.36-.9-1.93-1.47-2.6-.4-2.23,2.72-1.21,4.05,2-.34,2.89,2.27,1.4,3.11a3.46,3.46,0,0,0-1.2-.24c-.67.86-.08,2.33.34,3.19a1.69,1.69,0,0,1-1.16.3c-1.22-1-.8-3.53-.33-4.58-1.16-2.32-1.9-7.64,2-7.33A7.51,7.51,0,0,1,32.82,1,2,2,0,0,1,33.68,1Z"/><path class="cls-1" d="M49.9.05c.75,1.56-1.11,2.38-1.45,3.64-2,.75-2.91,3.26-3.25,5.48-.17,1.1.11,2.34-.17,3.55-.43,1.88-2.31,4.53-3.53,5.94s-2.57,2-4.49,3.11c-1.06.6-2.38,1.77-3.58.9-.06-1.51,1.87-1.46,2.6-2.55.29-.42.59-1.35,1-2.11.78-1.36,1.51-2.5.83-4.78-.31-1.05-1.2-2-.79-3.48.46-1.63,2-3.07,3.33-4.31.45-.43.77-1,1.19-1.37,2.19-1.76,5.46-2.52,7.43-4A1.11,1.11,0,0,1,49.9.05Zm-11,9c-1,1.79.53,3.39.71,5.31.22,2.47-1.2,3.29-1.56,5,2.32-1.69,4.73-3.76,5.39-6.93.42-2,.09-4.22.83-6.27a26,26,0,0,1,1.62-2.8C42.52,4.46,40.72,6.8,38.87,9.1Z"/><path class="cls-1" d="M60.22,5c-.09,1.12-1.73,3-.14,4a4.48,4.48,0,0,0-.78,1.13C58.62,9.5,58,8.68,57.08,9s-1.45,3.08.22,3c.94,1.15.48,3-.63,3.15-1.41.15-1.44-1.79-2.13-2.74-.18.5-.6,1.07-.84,1.78,1.59.84,2.22,3.82.79,5-1.26,1-2.65-1-2.66-2.7-1.56.47-1.15,3.13-1,4.57-1.23.15-1.3-.56-1.3-1.62,0-1.52.16-3.28,1.08-4.36.46-.55,1.26-.77,1.64-1.08.15-1.11,1.09-1.52,1.43-2.46.35-.09.52-.34,1-.29.45-1.37.45-3.14,1.88-3.67.53,0,.85.24,1.41.22C58.53,6.71,59,4.64,60.22,5ZM53.87,18c.73-.63.06-2.27-.82-2.41A2.79,2.79,0,0,0,53.87,18Z"/><path class="cls-1" d="M32.06,20a9.64,9.64,0,0,1-1.92,3C30.44,21.86,30.62,18.88,32.06,20Z"/><path class="cls-1" d="M47.14,22.64c0,1.32-.41,2.46,0,3.86-.62.07-.7.59-.89,1a5.34,5.34,0,0,1-3.31-1.37.93.93,0,0,1-1.27-1.3C43.7,24.39,44.81,22.56,47.14,22.64Zm-3,2.9a2.11,2.11,0,0,0,1,.36,1.21,1.21,0,0,0,.55-1.22A1.79,1.79,0,0,0,44.14,25.54Z"/><path class="cls-1" d="M54.84,25.4c-.49,1.27-2.89.9-3.83,1.78-.54-.48-.83.48-1.49.11.22-1.37,1.75-1.91,2.68-2.87.43-.45.49-1,1.09-1.26C54.09,23.58,54.26,24.73,54.84,25.4ZM51,26.65c.81-.53,2.15-.6,2.23-1.77C52.13,24.81,51.55,26,51,26.65Z"/><path class="cls-1" d="M58.55,44.1c2.4-.64,5.5-.66,6.9.57.35.91,1.39,2.35.93,3.9-.2.66-.88,1.7-1.82,1.52.94-1.55,1.22-4.12-.69-5.09a6.3,6.3,0,0,0-5.11.48c-.39,1.53-.62,3.19-2,3.89a2.55,2.55,0,0,1-1-.78,4.45,4.45,0,0,1,.57-2.5c.41-.67,1.21-.9,1.06-1.58-.22-1.07-2.61-.73-3.31.13.23,1.69-.63,2.45-1.14,3.51-3.42.75-1.81-3.3-.64-4.35-.6-.69-1,0-1.82,0-.06,1.87-2.32,3.92-3.61,1.87.2-1.29,1.09-2,1.83-2.81-1.08-1.14-2.31.6-3.52.25a.29.29,0,0,0-.24-.3c.1-2.65,4.53-1.63,5.43-.5a4.72,4.72,0,0,1,3.27.83C55.31,42.49,58.19,42.27,58.55,44.1ZM52.4,46.37c.27.06.42-.49.17-.55C52.54,46,52.28,46,52.4,46.37Z"/><path class="cls-1" d="M56.24,66.87c.09.64-.22.89,0,1.39a11.12,11.12,0,0,0-1.71,1.52c-.32.31-1,1.37-1.39,1.49s-1.87-.58-2.41-.79C47.87,69.38,45.5,67.85,45,64c-.23-1.77.54-3.57.16-5.16C44.74,57.08,42.85,56,42,55c-1.34.38-1.8-.9-3-1.07.58-1.3-.89-1.64-.53-3,2-1.16,3.43.09,5.2.8,1.58.63,3,1.1,4,2.28a8,8,0,0,1,1.76,5.12c0,2.52-.25,5.41,2,6.39.25.11.7.09,1.09.24A15,15,0,0,0,56.24,66.87ZM41.09,53A18,18,0,0,1,46,56.69c0,.82.57,1.33.69,2.2.22,1.5-.3,3.23-.08,4.83A6.55,6.55,0,0,0,50,68.61c1.47.72,3.69,1.11,3.92-.61-2.19-1-4.22-1.15-5.36-2.93s-.59-4-.8-6.58c-.34-4.18-3.67-5.11-6.87-6.14C41,52.59,41.15,52.64,41.09,53Z"/><path class="cls-1" d="M38.31,63.35c1.37,1.77,3.93,3.83,2.86,7-.44.6-2,1.51-2.95.75.55-.78,1.73-.83,1.91-1.75.48-2.49-3.06-4.84-4.57-5.45,0-.3.12-.57.15-.87.85-.16,1.7-.33,1.85-1.1-.4-1.19-1.64-1.42-2.31-2.3.83-1.35,3.64.52,3.78,1.87C39.11,62.25,38.43,62.59,38.31,63.35Z"/><path class="cls-1" d="M33.94,54.88c-2.62-.4-6.3-.45-9-1.17-1.07.72-1.75-.11-2.7-.34-1.41-.34-4-.26-5.82-.54-1-.16-1.68-.64-2.91-.22-2.76-1.55-6.9-1.49-9.55-3.16C2,50.67.9,52.89,3,54.56a19,19,0,0,0,2.55,1.21c.8.43,2.28,1.36,2.43,2.5a4.21,4.21,0,0,1-.38,2.17C7,61.58,4.84,63.38,7,64.65c1-.11,2-.81,3-.64.75,1.49,1.7,4.4.74,5.84-1.42-.28-3.1-.27-4.14-1a6.27,6.27,0,0,1,.17-2C5.5,65.7,4,64.37,4.68,62c.25-1.2,2.25-1.75,1.9-3.35-.14-.63-1.64-1.42-2.49-1.85-1.37-.69-3.5-1.41-4-2.93a5.21,5.21,0,0,1,.5-3.46,6.46,6.46,0,0,1,3.24-2.59,4.23,4.23,0,0,0,.57-1c4-3.14,7.6-7.2,11.74-10.92S24,28.3,28.49,25.49c1.24-.77,4,.33,5.12,1.13a22.57,22.57,0,0,1,3.74,8.73c0,.29.21.58,0,.86a23.2,23.2,0,0,1,.08,14.46A8.66,8.66,0,0,1,36.06,53C35.4,53.83,34.49,54,33.94,54.88Zm.74-3.05c1.9-1.91,2.66-5.92,2.16-10.12-.67-5.61-2.29-12.29-5.1-14.2-1.75-1.18-3.5.41-3.7,2.2,1.06.26,2.38-1.11,3.27-.67-.85,1.63-4.38.94-4.48,3.22,1.28.22,2.56-.9,3.69-.8-.49,1.65-3.68.95-4,2.75,1.26.27,2.87-1.25,4.22-.84-.85,1.27-3.29,1.15-4.34,2.24l.07,1c1.42-.21,3-1.32,4.32-1,0,.81-.87.59-1.34.74a15.6,15.6,0,0,0-2.9,1.39c0,.38-.27.89,0,1.18,1.44.08,3.65-1.72,5-.79-1.12,1.07-3.68.88-4.79,2a1.7,1.7,0,0,0,.3,1.16,9,9,0,0,1,2.1-.58c1.16-.29,2.57-1.09,3.39-.46-.14.68-.9.39-1.35.53-1.35.4-2.85,1-4.07,1.47a6.48,6.48,0,0,0,.21,1.38,14.16,14.16,0,0,0,3.14-1c1-.32,2.36-.74,3-.22-1.7,1-4.19,1.24-5.72,2.34-.19.19.16.73.28.94,1-.26,2.06-.77,3.14-1,.69-.13,1.66-.42,2.15.06-1.45.78-3.48,1.05-4.9,1.86a3.89,3.89,0,0,0,.43,1.47c1.57-.21,3.83-1.59,5.2-.7-1.36.75-3.5.83-4.7,1.73a2.15,2.15,0,0,1,.37.72c1.91.13,3.86-1.52,5.32-.49-1.47.46-3,.91-4.4,1.39a4.72,4.72,0,0,0,2,1.67A3.75,3.75,0,0,1,34.69,51.83ZM26.3,29.3c.06-.22.33-.48,0-.53C26.15,28.93,25.92,29.24,26.3,29.3ZM24.89,32c.3-.44,1-.52.87-1.35,0-.08-.1-.12-.22-.09C25.48,31.08,24.53,31.39,24.89,32ZM16,38c-1.46,3.34-3.28,7.6-2,12.36a5.14,5.14,0,0,0,2.06.39c-.17-.85-1-3.09.38-3.56.41,1-.16,2.34.26,3.62a2.25,2.25,0,0,0,1.73.2c-.09-.85-.66-2.34.47-2.39.53.53.15,1.81.39,2.44a2.25,2.25,0,0,0,1.84.3,7.18,7.18,0,0,0-.41-1.26c.16-.3.59-.36.58-.79-1.54-5.91-.18-12.18,1.23-17C20.15,34,18.26,36.12,16,38Zm7.53-2.58c.88-.41,2.21-1.48,1.64-2.48C24.74,33.83,23.49,34.06,23.53,35.39ZM22.83,39c.91-1.1,2.67-1.56,2.2-3.59A3.46,3.46,0,0,0,22.83,39Zm-.36,2.38c1-.45.91-1.81,2.21-2,0,.11.1.12.12.21-.43,2-3.17,2.46-2.3,5.2,1.18-.95,1.41-2.71,2.86-3.42-.21-1,.11-2.67-.55-3.18C24.1,39.31,22.27,39.45,22.46,41.36Zm-10.22.85c0-.16.25-.12.42-.14-.06-.38.29-.42.27-.77C12.45,41.33,12,41.93,12.24,42.21Zm10.55,5.13c.83-1.27,4.16-3,2.54-4.9C24.75,44.22,22.12,45.12,22.79,47.33ZM8.36,46.24c-.85.75-1.82,1.55-1.1,2.54.55.05,1,.27,1.52.32a4.48,4.48,0,0,0,1.06-1.58c-1,.1-1.06.95-1.84,1.21-.44-.65.53-.84.65-1.33,1-.81,1.88-1.7,2.81-2.56.2-.22.69-.2.71-.59.22-.24-.08-.3,0-.64A17,17,0,0,0,8.36,46.24Zm2.6.35c.39.29.44-.36.94-.29,0-.26,0-.52-.25-.52C11.44,46.07,10.94,46.11,11,46.59Zm12.21,3a12.6,12.6,0,0,0,2.37-2.85c.31-.4.76-.79.76-1.34,0-.12-.13-.16-.23-.2C25.25,46.7,22.75,47.29,23.17,49.56ZM9.33,49.28a2.31,2.31,0,0,0,1.31.33c.47-.36.71-.92,1.31-1.17-.1-.42.1-1.19-.31-1.26C10.9,47.91,9.85,48.36,9.33,49.28ZM23.45,50.5c.26.47.14,1.37.95,1.22.31-.47-.44-.52-.4-1,.82-1.16,3.2-2,2.62-3.73A34.83,34.83,0,0,1,23.45,50.5ZM11.6,49.65c0,.28.24.26.45.29l0-.43A.58.58,0,0,0,11.6,49.65Zm15.57-1c-.27.93-1.34,1.17-1.56,2.15.27.19.37.57.79.59C26.71,50.55,28.62,49.42,27.17,48.62ZM27,51.85c.13.27.46.32.88.26.1-.55.68-.68.54-1.43A2,2,0,0,0,27,51.85Zm2.94.64a.81.81,0,0,0-.69-.59C29.31,52.27,29.43,52.59,29.92,52.5ZM8.32,67.88c.49,0,.74.22,1.3.12a5.45,5.45,0,0,0-.49-2.32C8,65.68,7.9,67.16,8.32,67.88Z"/><path class="cls-1" d="M62.92,21.6c.23.24.78.1,1,.36,0,1.59,1.2,2.45,1,3.89.11.18.4.15.46.4-.07.65-.53.68-.12,1.3-2.81,2.7-4.85,6.59-9.54,7.33-2.62,1.48-6.57.7-9.64,1.56-.53.44-1.4.59-1.73,1.2a2.53,2.53,0,0,1-1.9-1,8.87,8.87,0,0,1,4.12-5.23,5,5,0,0,1,2.93-1c1.8,0,3.31.34,4.81-.13,1.93-.61,3-2.05,4.32-4l.43,0A42.56,42.56,0,0,1,62.92,21.6ZM60,30.49a1.7,1.7,0,0,0,1.38-1.71c-.38.08-.6.22-1,.07A9,9,0,0,0,60,30.49Zm-2.55.29c0-.37.57-.84.35-1.1C57.75,30,57.16,30.43,57.48,30.79Zm.12,1.6c.54,0,.72-.24,1-.39-.25-.58.33-1.4-.22-1.59A18.27,18.27,0,0,0,57.6,32.38Zm-2.94-.64a10,10,0,0,0-.2,1.62c.73-.33.92-1.13,1.26-1.8A3.73,3.73,0,0,0,54.66,31.74Zm-2.18,2.51.53,0c0-.31.36-.66.15-.87C52.7,33.44,52.57,33.83,52.48,34.25Z"/><path class="cls-1" d="M45.12,45a3.59,3.59,0,0,1-1.71,3c-.69-.66-.86-1.93-1.58-2.56C41.86,43.84,44.16,44.87,45.12,45Z"/></g></g></svg>