<svg xmlns="http://www.w3.org/2000/svg" viewBox="0 0 50.67 56.25"><defs><style>.cls-1{fill:#53b0a1;fill-rule:evenodd;}</style></defs><title>Asset 14</title><g id="Layer_2" data-name="Layer 2"><g id="art"><path class="cls-1" d="M11.47,18.12c.5.49.16,1.13.11,1.89a82.6,82.6,0,0,0,.11,9.05c.67,0,.41-.92.63-1.37,1-.83,2.23.21,3.16.42,1.12,1.55,2.83,2.5,4.42,3.58-.43.65-.06.55,0,1.37-.37.12-.61.38-1.05.42q-3.18,4-6.63,7.68c-.62,1.53.66,4.6-1.26,4.21-1.39-.28-.09-2.37-.53-4A2.74,2.74,0,0,0,9.16,40a18,18,0,0,1-2.11-1.26c-1-.66-1.82-1.17-1.05-2.53.92-.2,1.23-1,1.9-1.47.08-.32-.11-.38-.11-.63.66-1,2.26-2.12,2.42-3.89A14.09,14.09,0,0,0,10,27.8a37.64,37.64,0,0,1-.21-6.63c0-.42.23-.88.21-1.26C10,18.92,9.71,17.8,11.47,18.12Zm1.89,11.26c0,.3.65-.09.63.21a47.93,47.93,0,0,0,0,7.26c1.06-.1.85-1.15.74-1.89-.27-1.74.19-4.56-.53-5.68C13.95,29.34,13.39,28.89,13.37,29.38Zm2.21,5.79c.22-.16.39-.38.63-.53-.47-1.14,0-3.18-.74-4.11A23.91,23.91,0,0,0,15.58,35.17Zm-2.95-4.11c.66,1.81-.14,4.82,0,7.37,1.06-.33.61-1.21.53-2.21-.16-1.8.21-4.88-.21-5.47A.53.53,0,0,1,12.63,31.07Zm4.32,2.42c.51-.16.7-.64.84-1.16-.33-.3-.52-.74-1.05-.84C16.94,32.39,16.55,32.94,16.95,33.49Zm-5.47-1.16a68,68,0,0,1-.21,7.37c1.55-.45.42-2.65.63-4.74.09-.91.13-2,.21-2.95-.13,0-.14-.13-.31-.11A1.8,1.8,0,0,1,11.47,32.33ZM9.69,38.86c.41.18.61.59,1.16.63-.2-2.15-.14-3.85-.21-5.68,0-.08-.09-.12-.21-.11C9.74,35,9.76,37.12,9.69,38.86ZM7.79,37.07c.36.38.87,1.17,1.37,1.05-.35-.8.15-2-.32-2.53A4.14,4.14,0,0,0,7.79,37.07Z"/><path class="cls-1" d="M22.74,19.28c.51,7.55-.87,15.38-.53,22.42a5,5,0,0,1-.63,3.05,1.58,1.58,0,0,1-1.05,0c-.67-.6-.17-1.27-.11-2,.1-1.17,0-2.53.11-3.9.31-4.31.25-10.37.63-14.95.07-.81.3-1.59.31-2.32C21.49,20.55,20.89,18.35,22.74,19.28Z"/><path class="cls-1" d="M34.95,21c.25.17.23.61.21,1.05a13,13,0,0,1,1.37.21A3.53,3.53,0,0,1,36.84,24c.53.83,1.34.1,2-.11A6.74,6.74,0,0,1,39.9,25.8c-.84.43-1.42-.24-1.79-.63-1.39.43-2.82-.71-2.21-1.89,0-.21-.29-.21-.31-.42-.56,0-.7.49-1.37.42C34,22.72,33.87,20.89,34.95,21Z"/><path class="cls-1" d="M37.27,17c1.34,3.54,4.71,5,7.26,7.37,0,1.28-1.46,2.07-2.74,3.16a6.75,6.75,0,0,0-2,2.42c-.37,1.44.29,2.89.11,4.63.56,1,1.43,2,1.47,3.47a6.92,6.92,0,0,1-1.89,4.53c.43.87-.25,1.41,0,2.42-.52.22-.8.68-1.68.53-.27-.49,0-1.24.11-1.69-3.12.45-5.77-.38-6.95-2.21a4.67,4.67,0,0,0,.31,3.68c-.34.47-.63,1-1.47.95a5.62,5.62,0,0,1-.63-2.84c-.21-3.23-.22-7.24-.11-10.11.07-1.85.06-4.1.21-5.89a2.79,2.79,0,0,0-.32-1.89c.4-.34.5-1,1.05-1.16-.17-.43-.86-.34-1.16-.63a6.81,6.81,0,0,0-.21-.95c.24-.36.65-.54.95-.84a15,15,0,0,1-.31-3.05,1.32,1.32,0,0,1,1.68,0c-.07.53-.12,1.07-.21,1.58,1.82-.68,3-2.93,5.26-3.47C36.18,16.38,36.77,17,37.27,17Zm-.42,10.21c1,.63,1.56,1.37,2.63.84.43-.21,3.06-2.65,3.05-3.16s-1.34-1-2-1.79A24.5,24.5,0,0,0,38,20.75c-.56-.5-1.34-1.75-2.11-1.79a5,5,0,0,0-1.37.42A10.28,10.28,0,0,0,31.05,23,45.38,45.38,0,0,0,36.84,27.17Zm-6.21,9.05c1.4-2,4.56-4.55,7.58-2.74.1-1.3,0-2.32,0-3.79a79.54,79.54,0,0,1-6.84-4.63A42,42,0,0,0,30.63,36.23Zm1.26,2.11c1.33-.32,2.8.32,4-.11a10.46,10.46,0,0,0-.21-3.37C33.29,34.88,32.19,36.21,31.9,38.33Zm4.84,0A13.48,13.48,0,0,0,39.79,38,5,5,0,0,0,36.95,35C36.54,36,36.9,37.28,36.74,38.33Zm2.42,1.05a4.38,4.38,0,0,0-2.53-.11,5.2,5.2,0,0,0-.11,2.95c2.15-.06,3.08-1.9,3.16-3.68C39.56,38.88,39.51,39.28,39.16,39.38Zm-7.26,0a3.17,3.17,0,0,0,3.26,2.74c.37-.76.26-2,.63-2.74A7.72,7.72,0,0,0,31.9,39.38Z"/><path class="cls-1" d="M34.11.65c1.35,2.9,1.31,7.38,1.16,10.74a13.15,13.15,0,0,0,2.42,0c.79-.42.23-1.58.74-2.31,2.76,0,6.24.21,8.31,1.26a3.44,3.44,0,0,1,0,1.47c2.68,1.38,3.35,4.08,3.58,8.53a123.57,123.57,0,0,1,.11,16.74c-.36,4-.24,8.79-.84,12-1.94,1.34-.69,5.13-2.21,7.16-3.11.18-4.51-.78-7.37-.74-.83-1.24-.57-3.11-.42-4.74-8.22-.47-19-.36-27.79-.32-.39,1.39,0,3.68-1.05,4.84a18.1,18.1,0,0,1-7.89-.74c-.5-1.39.29-2.55.11-4.42a4.65,4.65,0,0,1-2.32-.74C.3,48.53.35,47.28,0,46.44c.42-8.8-.37-19.71,1.16-29.58,0-.46-.3-.54-.31-.95.59-1,0-1.86.53-2.74.53-.28,1.25-.37,1.79-.63-.11-1.2-.35-2.2.42-2.84a20.61,20.61,0,0,0,5.47.42c.78-.12,1.41-.7,2.1-.11a7.56,7.56,0,0,1,.32,1.47c.48,0,1.16.11,1.47-.11-.13-3,.66-5.79.42-8-.09-.81-.61-1.62,0-2.21C19.56-.56,27.34,0,34.11.65ZM19.9,3.8c.37-.79,1.06-1.25,1.47-2-.83-.11-2,.12-3.05.11-1.17,1.84-3.8,2.7-3.68,5.47a8.4,8.4,0,0,0,2.84-3.05c1.06-.38,1.29-2.6,2.63-2-.15,1-1,1.24-1.37,2,2.68.27,3.7-1.41,5.05-2.74C21.76,1.56,21.24,3.65,19.9,3.8Zm2.53.11c1.9.45,2.43-1.36,3.37-2.21C24,1.75,23.39,3,22.42,3.91Zm2.1.21a6.64,6.64,0,0,0,1.89.11c.55-.85,1.43-1.38,1.9-2.31C26.57,1.42,25.5,3.16,24.53,4.12Zm2.95.11a2.89,2.89,0,0,0,3.89-2.1C29.34,1.36,28.28,3.09,27.48,4.22ZM14.74,2.65a12.48,12.48,0,0,1,0,1.89,7.41,7.41,0,0,0,2-2.42A2.91,2.91,0,0,0,14.74,2.65ZM30.95,5.28c.67-1,1.72-1.65,2.11-2.95C32,2.43,30.14,4.31,30.95,5.28Zm.31,2a5.79,5.79,0,0,0,2.21-3.37C32.43,4.24,30.8,5.43,31.26,7.28Zm-16.1.63a.69.69,0,0,1-.53-.11c0,.43-.18.66-.11,1.16a10.78,10.78,0,0,0,3.26-3.58c0-.08-.09-.12-.21-.11A34,34,0,0,1,15.16,7.91Zm6.63-2.32c-.8,0-2.18.29-2.32.84-.29,1.17-.5,3.68.21,4.84,3.71-.1,6.12.07,9.69.21,1-1.3.32-3.87.1-5.37A75.14,75.14,0,0,0,21.79,5.59Zm11.58.74c-1,.83-2.24,2-1.9,3.79a8,8,0,0,0,2.21-3.47C33.43,6.69,33.74,6.17,33.37,6.33ZM14.42,10a12.15,12.15,0,0,1,.42,1.37c1-.24,1.31-1.24,1.89-2S18,8.11,18,6.86C16.55,7.66,15.65,9,14.42,10Zm17.05.84c0,.32-.06.69.32.63.82-.45.67-1.86,2-1.79.1-.27.22-.83-.21-.84C32.65,9.29,32.62,10.64,31.47,10.86Zm-15.37.32c.28.21.92.06,1.37.1.2-.44.5-1.22,0-1.58C17.14,10.31,16.38,10.5,16.11,11.17Zm17.05.21c.25,0,.44.21.63,0-.27-.3.14-.74-.11-.95C33.56,10.8,33.15,10.89,33.16,11.38ZM48.84,37.6c.06-1.27.34-2.5.42-3.68.07-1-.21-2.29-.21-3.37,0-4.37.1-9.88-.74-13.79a4.8,4.8,0,0,0-2.42-3.47c-1.7-.2-3.64-.14-5.47-.21-2.49-.1-5.27-.07-8.1,0-5.59.13-12.18-.47-18.11-.21-2.82.12-6.45.69-9.26.84-1.13.06-2.12.3-2,1.58.83.4,2.14-.5,2.84.11-.58,1.07-2.62.68-3.37,1.58.31.09-.06.34,0,.53.73.25,2.13-.66,2.63.21a14.92,14.92,0,0,1-2.63.95,3.61,3.61,0,0,0-.21,1.69c1.07.13,2.35-.48,2.74.42-.92.21-1.75.49-2.74.63-.33.23-.18.94-.21,1.47.78.15,1.51-.31,2.1,0-.42.66-1.54.63-2.1,1.16.09.45-.28.75,0,1.05.78.24,1.87-.19,2.63.21a7.35,7.35,0,0,1-2.84.95V27.6c1,.11,2.22-.42,2.63.21-.81.42-1.88.57-2.74.95a11.24,11.24,0,0,0,0,1.68c.78,0,1.93-.54,2.42-.1-.51.68-1.64.74-2.42,1.16,0,.49-.21.68,0,1.05.85.11,2.14-.2,2.53.11A15.24,15.24,0,0,1,1.58,33.7a7,7,0,0,0,0,1.58,26,26,0,0,1,2.74.11c-.48.75-1.7.75-2.63,1.05.06.92-.16,2.13.21,2.74.77,0,2.09-.52,2.74,0-1,.22-1.77.75-2.84.95,0,.57-.38,1.56.21,1.79.81.17,2.1-.62,3.05-.31-.86.79-2.35.94-3.26,1.68a4.91,4.91,0,0,1,.11,1.37c1-.17,2.8-.68,3.68-.32-.7.68-2.4.77-3.58,1.26.09.65-.41,1.53.21,1.79.73,0,1.76-1.12,2.84-.74-.7.6-1.8.8-2.31,1.58a121.88,121.88,0,0,0,16.32.63c7-.33,14.84.22,22.53.21,2.29,0,4.82.18,6.63-.42C48.51,45.38,48.67,41.34,48.84,37.6ZM41.05,52.44a.91.91,0,0,0,.11-1.16C41,51.47,40.79,52.17,41.05,52.44Zm3.69,1.89c0,.3.26.3.53.32C45.38,54.22,44.94,54.13,44.74,54.33Z"/></g></g></svg>