<svg xmlns="http://www.w3.org/2000/svg" viewBox="0 0 55.38 56.25"><defs><style>.cls-1{fill:#53b0a1;fill-rule:evenodd;}</style></defs><title>Asset 13</title><g id="Layer_2" data-name="Layer 2"><g id="art"><path class="cls-1" d="M48.18.11c0-.09,0-.1.1-.11,1.34.46,2.41,0,3.54.37a6.21,6.21,0,0,1,3,3.4c1,3.84-2.36,8.46-5.86,8.76a10.28,10.28,0,0,1-3.66-.68c-1.23-.54-3-2-3.25-3.39A8.59,8.59,0,0,1,44.3,1.62,10.49,10.49,0,0,1,48.18.11Zm5.27,4.45c-1.13-4.23-8.54-3.78-9.31.7.79-.13,1.46-.59,2.07-.09-.29,1.07-2,.78-2.42,1.76.54.3,1.54-.7,2.07-.09A2.16,2.16,0,0,1,44.15,8a2.07,2.07,0,0,0,1.42,1.7c.46-.51.06-1.8,1-1.91.76.6-.29,1.59-.42,2.3a1.79,1.79,0,0,0,1.47.46c-.05-.86.56-1.59,1.18-1.5,0,.64-.51.79-.35,1.57a1.92,1.92,0,0,0,1.45-.16c0-.5-.46-1,.05-1.25l.41,0c.31.06.37.4.35.82C52.47,9.06,54,6.68,53.45,4.56Z"/><path class="cls-1" d="M11.34,7.46c-.6-.16-.37-1-.27-1.44-.52-.85-1-1.62-2-1.68s-2,1.07-2.69.11c.33-1.43,2.88-1.53,4.11-1C11.3,4.2,13.11,6.46,11.34,7.46Z"/><path class="cls-1" d="M51.05,6.73c-.48-.52,0-1-.07-1.55-.29-1.7-2.88-2.33-4.3-1.17-.21-.17-.46-.3-.54-.6,1.67-2.27,6.54-.82,5.91,2.35C51.73,6.09,51.72,6.72,51.05,6.73Z"/><path class="cls-1" d="M12,11.48c1.14.44,3,.11,4.06.35a16.77,16.77,0,0,1-.42,4.79c-.27.36-.79-.5-.93,0,.19.74,1.42,1.34,1.86,2.31-.05.6.29,1,.06,1.45,1.49.31,1.85,1.73,3.69,1.4,1.75,2.23,3.67,4,6.82,4.28a9,9,0,0,0,7.75-3.33c.24-.28.4-1,.78-1.17s.86.13,1.25.05c1.13-.22,2.25-1.65,3.79-1.2a5.41,5.41,0,0,1,1.47-2.14c-.49-1.56-.13-3.67.09-5.19a9.06,9.06,0,0,0,.91-.66,42.67,42.67,0,0,0,6.45.35c2,0,4-.36,5.72.18.11,1.51-.44,2.79-.14,4.16a1.88,1.88,0,0,0-.78,1.17c-.56,0-.79-.3-1.46-.15-.56.63-.29,1.61-.32,2.3-.18,5.21-.37,11.14-.55,16.63a40.09,40.09,0,0,1-.16,6,12.89,12.89,0,0,0-.56,4c.55.45,1.61.07,2.08.12.58.24.53,1.16,1.2,1.3-.2,1.71-1,4.26-.46,6.25a7.69,7.69,0,0,1-1,1.49c-2.78-.48-6.59.16-9.87-.31-1.37-.2-2.75-.83-3.86-.46-.54-.89-.36-2.89-.29-4.45.05-1.18.24-2.72,1.22-3,.78-.19,1.59.43,2.7,0,1.08-7.37.17-16.15,1.11-23.09-.34-.46-1.28-.27-1.69-.66-.68,1-1.56,1.16-2.21,1.86a18.39,18.39,0,0,0-1.25,2.44c-1,1.69-3,4.25-5.19,4.89-.61.18-1.47.07-2.27.2-3.08.51-7.21,1-10,0a20.34,20.34,0,0,1-3.83-2.33c-1.35-.89-3-2.06-3.56-3.17-.16-.34-.17-.82-.37-1.33a11.64,11.64,0,0,1-.69-1.53c-.09-.75.5-1.49.32-2.19s-1.49-.77-1.83-1.69c-.21,8-.58,16.55-1,24.88a11.49,11.49,0,0,0,4.27.34c.63,2-.86,4.15.14,5.81-.07,1-.78,1.54-1.57,2.14-4.56.61-9-.06-13.41-.48C-.23,51.88.6,49.31,1,47c.7-.12,1.49-.16,2.17-.3,0-3.9.44-8.5.45-12.3a26.14,26.14,0,0,1,0-3.53c.13-.84.46-1.54.53-2.31S4,26.92,4,26c0-1.11.32-2.22.38-3.34.08-1.59-.45-3.11,0-4.67-1-.47-2.67-.13-3.66-.57A12.32,12.32,0,0,1,.4,14c-.26-.59-.58-.89-.28-1.65a39.39,39.39,0,0,1,4.55-.29c-.34-.71-1.07-1-1.62-1.49A6.83,6.83,0,0,1,4.64,1.21C5.94.22,10,.29,11.48.92c1.24.53,3.61,3,3.71,4.41A7.09,7.09,0,0,1,12,11.48Zm1-2.95c1.36-2.07.08-4.45-1.69-5.64C9,1.31,4.27,2.31,3.66,5.09c.45.52,1.43.47,1.71,1.17a7.41,7.41,0,0,1-2,.19A2.92,2.92,0,0,0,3.47,8.1a5.37,5.37,0,0,1,2.89-.33c-.51.7-1.74.73-2.33,1.34.37.36.49,1,1.08,1.1.56-.6,1.73-1.63,2.54-1.35-.43.77-1.43,1-1.57,2a3.71,3.71,0,0,0,1.35,0c.52-.49,1-1.54,1.81-1.42-.09.58-.61.76-.56,1.48A7.17,7.17,0,0,0,13,8.53ZM1.85,13.88A4.42,4.42,0,0,0,1.94,16c4.15.34,8.13-.16,12.44-.31a6,6,0,0,0,.23-2C10.8,13.07,6.18,14.1,1.85,13.88Zm41.95.42a9,9,0,0,0-.1,2.6,66.56,66.56,0,0,0,9.64-.2,5.56,5.56,0,0,0,.22-2.19C50.21,14.46,47.14,14.46,43.79,14.3Zm-37,4.45a1.5,1.5,0,0,0,.88-1.18C6.95,17.54,7,18.23,6.83,18.76Zm7.9,2.68c0-.08.08-.12.2-.11a2.51,2.51,0,0,0-.2-2.38,4,4,0,0,0-2.34-1.36c-1,.21-.65,2-.81,2.84C13.2,20.13,13.28,21.53,14.72,21.44ZM6.29,23.24a9.87,9.87,0,0,0,3.26-3.87A19.22,19.22,0,0,0,6.29,23.24Zm40-1.57a7.73,7.73,0,0,0,2.46-3.22l-.83,0C48.59,20,46.22,20.11,46.28,21.67Zm-3.77-.88a2.4,2.4,0,0,1,.5,2c.48.11.81.39,1.36.15a16.18,16.18,0,0,0,.26-3.75A2.18,2.18,0,0,0,42.51,20.79ZM46,25.11a24.24,24.24,0,0,0,4.25-5.06c.48-.18.6.31.83.07s0-.76.06-1.14a25.75,25.75,0,0,0-4.58,4.76c.24,0,.39,0,.42.19A3.07,3.07,0,0,0,46,25.11ZM8.54,22.52c-.36.55-1.13,1-1,1.7a19,19,0,0,0,2.25-3.31C9,21,8.9,22,8.54,22.52ZM6.15,24.8c.38-.71,1.25-1.5,1.25-2.23C7,23.3,5.59,23.84,6.15,24.8Zm8.82,0c1.09-.08,3.2-1.28,2.17-2.69A2.29,2.29,0,0,0,15,24.85Zm-7.24.61A5.15,5.15,0,0,0,9.5,23.21,5,5,0,0,0,7.73,25.46ZM38,23.05a2.31,2.31,0,0,0,1.52,1.7,1.6,1.6,0,0,0,1-2.74C39.45,22.09,38.12,22.24,38,23.05Zm9.12,2.11c.66.29,1.32-.59,1.72-1.11a14.94,14.94,0,0,0,1.26-2.23A12,12,0,0,0,47.16,25.16ZM19.29,23.84c-1.11,1-2.42,1.89-3.62,2.85.19.83.53,1.52,1.32,1.71a42.21,42.21,0,0,0,3.38-3.46C20.08,24.49,19.83,24,19.29,23.84Zm31.3-1a36.68,36.68,0,0,0-3.75,4.72,26.58,26.58,0,0,0,4.06-4.74ZM8,26.39c-.34,1.09-1.76,1.7-1.64,2.87,1.45-1.12,2.13-3,3.24-4.39C8.75,25.11,8.69,26,8,26.39Zm28-2.63a10.3,10.3,0,0,0-1.39,1.51c.87.82,1.07,2.37,2.2,2.92C39,26.88,37.58,24.88,36,23.76ZM6.6,30.7c1.11-.17,1.39-1.42,1.88-2.15a14.69,14.69,0,0,0,1.66-2.46C8.44,27.15,7.63,29,6.6,30.7Zm39.11-.39c.72-.17.83-1.15,1.63-.69,1-1.67,2.43-2.94,3.44-4.61,0-.12-.12-.16-.22-.2A26.1,26.1,0,0,0,45.71,30.31Zm.19-2.91a8.61,8.61,0,0,0,1.48-1.83A2.06,2.06,0,0,0,45.9,27.39ZM6.39,33.1c.53.37.88-.33,1.11-.67A44.07,44.07,0,0,0,10,28.27c0-.12-.12-.16-.22-.2A21.37,21.37,0,0,0,6.39,33.1Zm39.32-.4c2-1.13,2.71-3.42,4.47-4.75a2.36,2.36,0,0,0,.63.18,1.63,1.63,0,0,0-.16-1.34A32,32,0,0,0,45.71,32.7Zm-.22,2.08c.6,0,.42-.61,1-.56-.29.63-1.11.77-1.07,1.71,1.18-.81,2.31-2.83,3.25-4.18.43-.62,1-1.95,1.71-1.21,0,1-.93,1.27-1.16,2.12a24.12,24.12,0,0,0-3.07,3.55c-.19.26-.53.65-.38.85.34.36.76-.09.92-.25a21.42,21.42,0,0,0,1.66-2.46,13.53,13.53,0,0,0,1.76-2.46c.32,0,.39-.24.61-.34a9.86,9.86,0,0,0-.13-3A43.65,43.65,0,0,0,45.48,34.78Zm-39.2.81a9.68,9.68,0,0,0,3.44-4.71c0-.08-.09-.12-.21-.1A17.79,17.79,0,0,0,6.29,35.59Zm39.26-4.14a3.49,3.49,0,0,0,1.39-1.61C46.3,30.22,45.54,30.48,45.55,31.46Zm-36,1.82A10.13,10.13,0,0,0,8,35.21,6.93,6.93,0,0,0,7,37.33a10.42,10.42,0,0,0,2.74-4C9.7,33.29,9.63,33.26,9.51,33.28Zm15.85-.56c-.41.09-.59-.07-.94-.06C24.48,33.13,25.15,32.89,25.37,32.72ZM5.93,34.47c.35-.17.47-.56.69-.86C6.29,33.81,5.94,34,5.93,34.47Zm39.55,5.09c1.12.07,1.31-.83,1.9-1.64.86-1.18,1.7-2.59,2.55-3.64.27-.33.85-.31.69-1A21.72,21.72,0,0,0,45.47,39.55ZM6,37.37c0-.77,1.25-1.49.85-2C6.75,36,5.32,36.52,6,37.37ZM7.6,39.69c0-.1-.09-.12-.11-.2.93-1.1,2.08-2,2.23-3.83C8.24,36.73,7.5,38.47,6.58,40,7.08,40,7.37,39.46,7.6,39.69Zm42.49-4c.36,0,.59-.06.5-.44C50.25,35.28,50.1,35.44,50.09,35.73Zm-44.15,4c.16-.63,1.24-1.43.85-1.9C6.55,38.42,5.26,39,5.94,39.76Zm.95,2.76a13.11,13.11,0,0,0,2.64-4A9.36,9.36,0,0,0,6.89,42.52ZM50,37.5c.24.06.29.33.54.39a2.24,2.24,0,0,0,.06-.94C50.11,36.91,50.09,37.25,50,37.5Zm-4.29,4.23a35.52,35.52,0,0,0,2.94-4.17c.11,0,.08-.14-.11-.1C47.63,38.88,46.06,40.19,45.67,41.73Zm-40,1.05A5.48,5.48,0,0,0,7.2,40C6.79,41,5.22,41,5.65,42.78ZM45.1,45.49c2.32-1.32,3-4.16,4.73-6,.31-.09.38.09.62.08.07-.3.23-1.23-.16-1.34C48.41,40.49,46.26,42.53,45.1,45.49ZM8.9,41.09c.14.14.51.14.51-.13S8.9,40.82,8.9,41.09Zm36.61-.6c0-.3.58-.52.28-.74C45.63,39.93,45,40.29,45.51,40.49Zm3.78,1a12.24,12.24,0,0,1-2,2.68c0,.83-1.45,1.4-.64,2.1a19.34,19.34,0,0,0,3.81-5.66c0-.08-.09-.12-.21-.09C50,40.87,49.79,41.3,49.29,41.47Zm-40.6,2c0-.27.34-.22.61-.23,0-.21,0-.41,0-.62C8.79,42.58,8.5,43.24,8.69,43.48Zm-.7.76c.23-.09.66-.51.38-.74A1.59,1.59,0,0,0,8,44.24Zm37.42-1c.29,0,.59-.51.39-.64C45.76,42.83,45.39,42.83,45.42,43.19ZM8.57,46.43l.62,0c-.06-.26.34-1.78-.14-1.79A5.78,5.78,0,0,0,8.57,46.43Zm39.35-.54A5,5,0,0,0,50,43.41,13.93,13.93,0,0,0,47.92,45.89ZM2.43,48.55A12.77,12.77,0,0,0,2,51.68a51.54,51.54,0,0,0,11.32.25c-.1-1.33.36-2.13.27-3.44A45.11,45.11,0,0,0,2.43,48.55Zm46-1.23.93,0a2.07,2.07,0,0,0,.25-1.57A5,5,0,0,0,48.39,47.32Zm-2.69.22a1.82,1.82,0,0,0,.79-1C46,46.71,45.95,47.2,45.7,47.54ZM41.77,50.3a16,16,0,0,0-.27,3.44c3.12,1.17,7.46.2,11.11.16,0-1.38.52-2.47.25-3.85C49.35,50,45.38,49.67,41.77,50.3Z"/></g></g></svg>