<svg xmlns="http://www.w3.org/2000/svg" viewBox="0 0 296.05 67.72"><defs><style>.cls-1,.cls-3{fill:#666565;}.cls-1{fill-rule:evenodd;}.cls-2{fill:#fff;opacity:0.79;}</style></defs><title>Asset 11</title><g id="Layer_2" data-name="Layer 2"><g id="art"><path class="cls-1" d="M35.87,30.84c0,.09-.12.19,0,.25A.59.59,0,0,0,35.87,30.84Z"/><rect class="cls-2" x="114.17" y="-114.17" width="67.72" height="296.05" transform="translate(114.17 181.89) rotate(-90)"/><path class="cls-3" d="M172.46,22.49l0,4.18a6.85,6.85,0,0,0-.39.87.4.4,0,0,0,.38.54l0,7.07c-.11.28-.23.57-.33.85a.41.41,0,0,0,.32.54l0,5.59c0,.15-.07.3-.1.46a.51.51,0,0,0,.09.35l0,3.65,20.1.14.16-24.1Zm4.89,9.58V34a.45.45,0,0,0-.65-.32l-.11.08C176.86,33.22,177.13,32.65,177.36,32.07Zm-.64-.5a14.68,14.68,0,0,0,.66-1.37v1.59A.48.48,0,0,0,176.71,31.57Zm.61,5.32v1.34a.44.44,0,0,0-.42,0,10.31,10.31,0,0,0,.38-1.16.48.48,0,0,0,0-.17Zm-.4,5.95.36-.37v.25h.23a15.88,15.88,0,0,1-1,1.34l-.16.15C176.58,43.76,176.77,43.3,176.93,42.83Zm11.3-8.67c.53-.63,1.05-1.26,1.56-1.91q.28-.32.58-.61a19.61,19.61,0,0,1-1.11,1.62c-.6.88-1.15,1.79-1.73,2.68V34A.4.4,0,0,0,188.22,34.17Zm-.69-1v-1.5a.44.44,0,0,0,.53-.06l.26-.29a5.28,5.28,0,0,0,.9-.7C188.69,31.45,188.07,32.27,187.54,33.14Zm3.66-5.26c.16-.22.31-.45.45-.67l0,3.15a.43.43,0,0,0-.29-.35.47.47,0,0,0-.41-.61,7.67,7.67,0,0,0,.4-1.08A.42.42,0,0,0,191.19,27.88Zm.42,2.71v1.74a.45.45,0,0,0-.34-.43A4.56,4.56,0,0,0,191.62,30.59Zm0-5.37a.45.45,0,0,0-.09.14,6.94,6.94,0,0,1-.56,1.13.44.44,0,0,0-.55-.28,11.51,11.51,0,0,0,1.19-1.59ZM191.32,37a.49.49,0,0,0-.22-.65c.15-.24.29-.49.43-.74a.45.45,0,0,0-.62-.6,9.82,9.82,0,0,0,.47-1.1c.12-.35-.18-.56-.47-.54.21-.28.42-.55.62-.84a.41.41,0,0,0,.07-.2l0,7a.44.44,0,0,0-.67-.08c-.1.09-.19.19-.28.29,0-.08.08-.15.12-.23.13-.3-.09-.83-.5-.66l-.23.12A9.93,9.93,0,0,0,191.32,37Zm0,6.79v.05a.44.44,0,0,0-.13.09l-.34.37a3.76,3.76,0,0,1,.25-.91c.16-.47-.59-.81-.82-.35l-.33.69c.22-.53.45-1.06.69-1.59a15.07,15.07,0,0,0,.86-1.55.53.53,0,0,0,0-.11l0,3A.43.43,0,0,0,191.33,43.8Zm-3.51-6.3a20.07,20.07,0,0,0,1.6-1.61c-.62,1-1.32,1.93-1.91,2.95V37.62A.46.46,0,0,0,187.82,37.5Zm-3.42,6c.16-.4-.47-.78-.74-.44-.12.15-.24.32-.35.49.09-.18.18-.36.28-.54a.43.43,0,0,0,.06-.25h1.43l-.8,1Zm-3-.56a6.13,6.13,0,0,0-1,1s0-.07,0-.1c.09-.34-.32-.75-.65-.51l-.16.14.19-.31a.41.41,0,0,0,0-.42l2.89,0c-.21.28-.41.56-.63.82l.08-.2C182.31,42.91,181.68,42.7,181.38,42.94Zm5.21-1.24c0,.06-.05.13-.08.19l-7.72-.05a2,2,0,0,0,0-.77.43.43,0,0,0-.55-.3l.09-13.46,8.4.06Zm-8.1,1H179c-.3.34-.59.69-.88,1l0-.06a.42.42,0,0,0,0-.4A5.67,5.67,0,0,0,178.49,42.73ZM178,45.11a.45.45,0,0,0,.74.27l.48-.43a2.86,2.86,0,0,0,0,.5.55.55,0,0,0,.15.3h-2.14A6.11,6.11,0,0,0,178,45.11Zm2.42.14a.44.44,0,0,0,.66.39,6.6,6.6,0,0,0,.62-.49.43.43,0,0,0,.54.46,2.48,2.48,0,0,0,.61-.33,2.59,2.59,0,0,0,0,.27.45.45,0,0,0,.07.2l-2.89,0Zm3.81,0a.53.53,0,0,0,.64,0c.09-.08.16-.17.25-.25,0,.12,0,.22-.05.35a.45.45,0,0,0,.76.32c.59-.6,1.09-1.26,1.62-1.91a3.9,3.9,0,0,0-.15.9.45.45,0,0,0,.76.32c.16-.12.29-.26.43-.39a.54.54,0,0,0,.12.16c-.12.35-.22.7-.31,1.07l-4.59,0C183.93,45.59,184.1,45.41,184.27,45.22Zm5.31-21.56a.43.43,0,0,0,.06-.16h2v.54a.39.39,0,0,0-.46-.16,6.37,6.37,0,0,0-.62.27.45.45,0,0,0-.66-.43,6.77,6.77,0,0,0-.66.35C189.37,23.94,189.48,23.81,189.57,23.66Zm-1.65,3.67,0,0A10.76,10.76,0,0,0,189.4,26l.21-.17c-.56.63-1.16,1.23-1.7,1.89a.46.46,0,0,0,.06.66,7.29,7.29,0,0,0-.41.8V27.47a.35.35,0,0,0,.26-.07l.09-.07Zm-7.2-1c.82-.59,1.54-1.36,2.38-1.92-.32.38-.68.72-1,1.07a.45.45,0,0,0,.63.64l.41-.37a.44.44,0,0,0,.58.63,6.62,6.62,0,0,0,1-.69c-.22.36.21.91.6.62l.09-.07h0a23.59,23.59,0,0,1,2.42-1.84c-.53.6-1.1,1.17-1.62,1.79a.46.46,0,0,0-.1.27l-7.81-.05a11,11,0,0,1,3.15-2.49c-.41.63-.93,1.21-1.37,1.8C179.85,26.08,180.37,26.6,180.72,26.34Zm-3.46-.51A11.65,11.65,0,0,1,179.08,24c-.51.7-1.11,1.33-1.64,2h0l-.07.09a.35.35,0,0,0,0,.49V27a.37.37,0,0,0-.54.05l-.22.27A11.55,11.55,0,0,0,177.26,25.83Zm.12,2.15v1.15a.42.42,0,0,0-.53.06c-.15.16-.28.33-.42.49A18.61,18.61,0,0,0,177.38,28Zm-4-4.59h.91a10,10,0,0,1-.92,1.75Zm0,4.1A26.07,26.07,0,0,0,175,25.4c0,.1-.11.2-.15.3a.33.33,0,0,0,0,.17c-.45.79-1,1.53-1.48,2.31Zm0,2.27a.45.45,0,0,0,.2-.08,15.56,15.56,0,0,0,2.39-2.82c-.79,1.64-1.9,3.13-2.6,4.82Zm0,6.17c.23-.26.46-.53.67-.81a7.58,7.58,0,0,0-.27,1,.43.43,0,0,0,.39.54c-.29.62-.54,1.26-.8,1.9Zm-.06,9,.13-.06a.44.44,0,0,0,.54.31.49.49,0,0,0,.23.06.45.45,0,0,0,.53.29,2.29,2.29,0,0,0,.64-.19.44.44,0,0,0,.26.35l-2.34,0Z"/><path class="cls-3" d="M204.82,25.2V23.7l.08-.14a.49.49,0,0,0-.07-.53v-.33l-3.85,0a.43.43,0,0,0-.71,0l-5.21,0,0,3.23L195,26a.48.48,0,0,0,.06.67v.79l3.38,0a.47.47,0,0,0,.54.47l-.06,8.75,5.85,0,.07-10.91A.45.45,0,0,0,204.82,25.2Zm-5,6.87a.45.45,0,0,0,.37-.1c.76-.66,1.47-1.36,2.21-2-.75,1.09-1.76,2-2.59,3.11ZM203.9,29v1.1a.4.4,0,0,0-.41,0c-.12.09-.23.19-.35.28A7.14,7.14,0,0,0,203.9,29Zm-.64,4.64a8.88,8.88,0,0,0,.62-1.2v2l-.27.11a3.07,3.07,0,0,0,.05-.52A.44.44,0,0,0,203.26,33.65Zm.65-5.83a.35.35,0,0,0-.42,0c-.4.3-.78.63-1.15,1,.5-.67,1-1.31,1.57-2Zm0-2.37a41,41,0,0,0-4.1,5.44l0-2.71a.49.49,0,0,0,.69.1,19.25,19.25,0,0,0,3.4-3.19Zm-1.71-1.88h1.12c-.49.34-1,.69-1.44,1.06a3,3,0,0,0,.33-.88A.5.5,0,0,0,202.22,23.58Zm.51,1.55a21.31,21.31,0,0,1-2.82,2.52.4.4,0,0,0-.06.07v-.4C200.83,26.61,201.77,25.86,202.72,25.13Zm-5.48-1.52a.43.43,0,0,0,0-.07h.37l-1,1.22C196.86,24.39,197,24,197.24,23.62Zm-.13,2.76a.43.43,0,0,0-.12.16h-.42A2.7,2.7,0,0,1,197,26a.43.43,0,0,0,.12-.31c.51-.72,1.1-1.38,1.62-2.1a.38.38,0,0,0,0-.07h1A15.56,15.56,0,0,1,197.11,26.38Zm1.18.17a18,18,0,0,1,2.62-2,16.18,16.18,0,0,1-1.86,2Zm1.51,8.14c.56-.47,1.07-1,1.58-1.5-.39.47-.78.94-1.13,1.44s.35.9.7.55l.6-.61-.72.87a.47.47,0,0,0-.12.35h-.92Z"/><path class="cls-3" d="M227.59,35.83l0-6a.48.48,0,0,0,0-.34l0-6.63-5.83,0-.1,14.25a5.93,5.93,0,0,1-1,3.49,5,5,0,0,1-2.38,1.77,11.66,11.66,0,0,1-.76-2.46l-3.53-17.11-5.9,0,3.72,16.89a7.49,7.49,0,0,0,.73,2l0,.1a.43.43,0,0,0,.43.56c.06.09.11.19.18.28a25.42,25.42,0,0,1-4.46-1.32l-.45-.17-1.38,4.5.39.15a25.55,25.55,0,0,0,8.91,1.75,13.57,13.57,0,0,0,5.89-1.17,9.18,9.18,0,0,0,4-3.59,11.1,11.1,0,0,0,1.46-5.75v-.66A.48.48,0,0,0,227.59,35.83Zm-.88-2.73c-1,.37-2,1.08-3,1.47,1-1.07,2.13-2.12,3-3.28Zm-4,.58a.46.46,0,0,0,.34-.1c.84-.69,1.62-1.43,2.44-2.12-.88,1-1.92,2-2.79,3Zm4.07-4.25a12.16,12.16,0,0,0-1.1.73,7.18,7.18,0,0,0,.89-1.67c.16-.47-.43-.69-.74-.44l-.15.14c.38-.49.76-1,1.13-1.48ZM222.68,31V29.92a.43.43,0,0,0,.22-.06,7.09,7.09,0,0,0,.81-.56A14.28,14.28,0,0,0,222.68,31Zm0,6.06V35.73a10.27,10.27,0,0,0,3.5-1.43c-.88,1.37-2.53,2.56-3.58,3.76A8.84,8.84,0,0,0,222.64,37.07Zm4.06-2v.7a12.63,12.63,0,0,0-1.2.62A11.36,11.36,0,0,0,226.7,35.07Zm-.79,6-.16,0a.46.46,0,0,0,0-.09,6.7,6.7,0,0,0,.34-.64.45.45,0,0,0-.7-.55,28,28,0,0,1-2.64,2.41c.86-1.25,2.4-2.08,3.36-3.21.28-.33,0-.92-.45-.75q.51-.56,1-1.1A10.93,10.93,0,0,1,225.91,41.08Zm.85-15.26a.39.39,0,0,0-.41,0c-.2.14-.4.28-.58.44a11,11,0,0,0,.81-1c.26-.4-.23-.8-.61-.62-.11.05-.2.12-.3.18a4.94,4.94,0,0,0,.24-.45.49.49,0,0,0-.14-.59h1Zm-3.41-2.09-.63.93v-.93ZM222.4,39a.46.46,0,0,0,.47,0c.68-.37,1.31-.8,2-1.22-.95,1-1.86,2.11-2.76,3.19a.46.46,0,0,0-.43-.17A6.08,6.08,0,0,0,222.4,39Zm-7-2.15c.15-.32.31-.64.44-1L216.1,37a.4.4,0,0,0-.11,0,4.07,4.07,0,0,0-.92.71C215.19,37.44,215.3,37.15,215.44,36.87Zm.62,2.61a11.62,11.62,0,0,1-1.1,3.67l-.23-.24C215.11,41.76,215.63,40.63,216.06,39.48Zm-1.17-8.38a8.92,8.92,0,0,0-1,1.29,10.17,10.17,0,0,0,.74-2.67Zm-.4-2a.51.51,0,0,0-.47-.06c.06-.14.12-.27.17-.41.15-.39-.38-.71-.68-.49.18-.44.35-.88.51-1.34Zm-.59-2.88a.39.39,0,0,0-.49,0c-.1.07-.18.16-.28.24a7,7,0,0,0,.56-1.19Zm-.54-2.61.16.79a.46.46,0,0,0-.22,0,.49.49,0,0,0-.65-.22h0l0-.1a.41.41,0,0,0-.16-.46Zm-2.9,5.21-.58-2.63a.44.44,0,0,0,.18-.09c.3-.25.67-.71,1.08-1.08-.3.45-.62.89-.88,1.36a.45.45,0,0,0,.61.62L211,27c-.19.28-.38.56-.56.85a.41.41,0,0,0,.28.64Zm.28,1.26.08-.05c.61-.59,1.15-1.24,1.73-1.85-.4,1-.83,1.91-1.21,2.88-.14.35.21.59.51.54l-.55,1ZM211.81,35l-.27-1.2a.48.48,0,0,0,.21-.15c.63-.82,1.1-1.76,1.67-2.61C213,32.43,212.29,33.7,211.81,35Zm.65,3L212,35.95a.45.45,0,0,0,.41-.11,17.11,17.11,0,0,0,2.21-3A53.25,53.25,0,0,1,212.46,38Zm.57,2.3a6.71,6.71,0,0,1-.26-.89l0-.19A.43.43,0,0,0,213,39c.6-.92,1.15-1.87,1.76-2.78-.28.57-.62,1.12-.84,1.63C213.6,38.69,213.31,39.5,213,40.31Zm-4.71,4.76L208,45l.17-.55.11,0a7.82,7.82,0,0,0,1-.75,11.72,11.72,0,0,1-.89,1A.46.46,0,0,0,208.33,45.08Zm1.68.54c-.33-.09-.66-.21-1-.32h0a5.18,5.18,0,0,1,1.43-1.2c-.18.33-.42.65-.57,1A.44.44,0,0,0,210,45.61Zm3.28.67-.4-.06c.32-.33.62-.68.93-1C213.63,45.55,213.44,45.91,213.28,46.28Zm.38-4.71a17.08,17.08,0,0,1,1.74-2.93c-.39,1.17-.94,2.33-1.36,3.5C213.91,42,213.79,41.77,213.66,41.57Zm2.21,4.87a.34.34,0,0,0,0,.05c-.49,0-1,0-1.47-.08l.48-.52a.5.5,0,0,0,.42.26.39.39,0,0,0,.24,0,3,3,0,0,0,.91-.49C216.25,45.93,216.06,46.2,215.87,46.44Zm.73-2.32a6.46,6.46,0,0,1,1-1.4c.06.12.11.25.17.36-.35.36-.69.77-1,1.15A.47.47,0,0,0,216.6,44.12Zm3.95,1.76a13.13,13.13,0,0,1-3.6.6c.37-.49.74-1,1.07-1.5a6.55,6.55,0,0,1,1.34-1.34,8.3,8.3,0,0,1-.72,1.54.45.45,0,0,0,.77.46c.69-.91,1-2.1,1.66-3-.2,1-.47,2-.58,3A.36.36,0,0,0,220.55,45.88Z"/><path class="cls-3" d="M241.86,37.51l0-7,0-.06a.41.41,0,0,0,0-.26l0-7.2-10.13-.07,0,4.78,4.29,0L236,35l-.1.14a.37.37,0,0,0,.1.55l0,3.9a3.37,3.37,0,0,1-.62,2.24,2.32,2.32,0,0,1-1.86.66c-.34,0-.66,0-1,0,.35-.38-.24-1-.66-.6a1.7,1.7,0,0,0-.4.5c-.25,0-.5-.05-.74-.09l-.51-.09-.1,4.65.36.08c.78.18,1.51.31,2.16.39a16.8,16.8,0,0,0,2.05.13,6.9,6.9,0,0,0,5.24-1.93,7.68,7.68,0,0,0,1.9-5.48V38.44l.2-.11C242.48,38.12,242.24,37.56,241.86,37.51Zm-10.59,7-.19.33,0-1.63.28,0a2.84,2.84,0,0,0-.21,1A.44.44,0,0,0,231.27,44.49Zm5.66-7.71V35.29a21.34,21.34,0,0,1,3.53-3.61A29.41,29.41,0,0,1,236.92,36.79Zm2.85-1.62a30.79,30.79,0,0,1-2.87,4v-.94C237.89,37.22,238.8,36.15,239.78,35.16Zm-2.83-1.51V31.6a.45.45,0,0,0,.33-.13,17.3,17.3,0,0,0,3.75-5v1.43a.37.37,0,0,0-.32.14A53,53,0,0,0,236.95,33.66Zm2.39-2.17A25.75,25.75,0,0,1,241,29.05v1.07Q240.15,30.77,239.34,31.48Zm-1-7.66,2.75,0v.27h0a6.71,6.71,0,0,0-1.46.71,2.62,2.62,0,0,0,.08-.34c0-.37-.4-.52-.67-.39a4.63,4.63,0,0,0-.75.46,2.73,2.73,0,0,0,.14-.4A.45.45,0,0,0,238.3,23.83Zm.24,2.86c-.16.23-.32.45-.49.67-.37.47-.73.94-1.08,1.42v-1a.46.46,0,0,0,.39-.1C237.77,27.36,238.15,27,238.54,26.69Zm-5.84-1.38V23.79h.42A8.29,8.29,0,0,1,232.71,25.3Zm2.09-1.5,2.44,0a5.07,5.07,0,0,0-.8.48.42.42,0,0,0-.41-.36,1.88,1.88,0,0,0-1.21.4s0-.09.05-.14A.41.41,0,0,0,234.8,23.8Zm.92,2.69a.42.42,0,0,0-.06.3h-.6a15.15,15.15,0,0,1,1.77-1.69A12.18,12.18,0,0,0,235.71,26.5Zm-2.66,16.84.47,0c.14,0,.26,0,.39,0l-.19.21A19.7,19.7,0,0,1,232,45C232.35,44.42,232.72,43.88,233.06,43.34Zm-1.3,2.88.12-.07A4.86,4.86,0,0,0,234,44.53q.68-.61,1.34-1.25a.4.4,0,0,0,.32-.13A35.71,35.71,0,0,0,241,36.91v1a18.94,18.94,0,0,0-2.7,2.79c-1.61,1.75-3.34,3.46-5.11,5a.44.44,0,0,0,0,.65l-.41,0Zm4.53.16c-.23,0-.47.07-.72.1.76-.55,1.51-1.11,2.25-1.68q-.69.62-1.4,1.22A.37.37,0,0,0,236.28,46.38Zm-1.6-.36a.43.43,0,0,0-.08.49l-.9,0c.89-.63,1.76-1.28,2.63-1.94C235.76,45,235.2,45.49,234.68,46Zm4.62-1.16a4.93,4.93,0,0,1-1.26.94c.7-.62,1.38-1.26,2-1.95A5.08,5.08,0,0,1,239.3,44.85ZM240.95,40a10.44,10.44,0,0,1-.11,1.5l-.67.47a7.76,7.76,0,0,0,.47-.75.45.45,0,0,0-.7-.55l-1.4,1.08.08-.09c.74-.79,1.47-1.81,2.33-2.57Z"/><path class="cls-3" d="M57.81,38.59a.46.46,0,0,0,.81,0h.84l.42-13.4c.08-.23.17-.45.23-.68a.4.4,0,0,0-.2-.49l0-1.5a5,5,0,0,0,.22-1.37.45.45,0,0,0-.16-.32l.1-3.12-6.05,0,.37,20.89ZM55,22.14l0,0c.46-.46.85-1.09,1.3-1.63-.42.76-.88,1.49-1.33,2.23Zm.06,3.17a.47.47,0,0,0,.52.1c-.17.3-.34.6-.51.9Zm0,2.6a.44.44,0,0,0,.21-.12c1.47-1.48,2.27-3.69,3.64-5.29a21.35,21.35,0,0,1-1.75,3,14.54,14.54,0,0,0-2,4.11.45.45,0,0,0,.74.44l.08-.08c-.32.5-.62,1-.88,1.51Zm.14,7.63,0-.85a.47.47,0,0,0,.59-.14c.77-1,1.45-2.11,2.28-3.07C57.35,32.91,56.16,34.14,55.27,35.53Zm.28-2.78c.31-.38.59-.77.88-1.16-.41.72-.8,1.45-1.19,2.18l0-.9A.36.36,0,0,0,55.55,32.76Zm-.47-8v-.39l.08-.07c.49-.59.94-1.21,1.42-1.8C56.08,23.23,55.58,24,55.08,24.73Zm.21,11.87a.45.45,0,0,0,.41-.1c.79-.68,1.41-1.52,2.13-2.27a22.09,22.09,0,0,0-1.2,2.05.48.48,0,0,0,.45.68.45.45,0,0,0,.63.55l.4-.2L58,37.7l-2.68,0Zm3.88-17.42a.41.41,0,0,0-.62.13l-.2.33-.13.06a6.93,6.93,0,0,0-.7.52c.18-.35.36-.71.5-1.08a.43.43,0,0,0-.27-.53h1.44Z"/><path class="cls-3" d="M59.28,42.07A3.15,3.15,0,0,0,57,41.19a.43.43,0,0,0-.46,0l-.06,0a2.93,2.93,0,0,0-2.72,3,2.94,2.94,0,0,0,.86,2.19,3.57,3.57,0,0,0,4.65,0,3.16,3.16,0,0,0,0-4.37Zm-.63.63a2,2,0,0,1,.47.72.52.52,0,0,0-.29.15v-.07a.43.43,0,0,0-.56-.3v0a.45.45,0,0,0-.65-.26,2.84,2.84,0,0,0,0-.41.39.39,0,0,0-.48-.31l0-.11a2.21,2.21,0,0,1,1.53.61ZM56.94,46.4a2.29,2.29,0,0,1-1.69-.62,2,2,0,0,1-.57-1.13.42.42,0,0,0,.4,0l0,.07c-.17.41.46.77.74.44a6.86,6.86,0,0,0,.57-.81c-.19.46-.42.91-.57,1.31s.57.79.82.35.34-.67.51-1c-.09.27-.18.54-.29.8-.21.54.64.76.86.24l.3-.76a.48.48,0,0,0,.74.16.49.49,0,0,0,.08.11,2,2,0,0,1-.19.23A2.29,2.29,0,0,1,56.94,46.4Z"/><path class="cls-3" d="M78.64,43.5l.08-12.22a8.72,8.72,0,0,0-1-4.4A7.09,7.09,0,0,0,74.62,24a10.65,10.65,0,0,0-4.7-1L61.82,23l0,4.78h1.32a.38.38,0,0,0,.64.06l0-.06,5.81,0a3.38,3.38,0,0,1,2.43.84,3.07,3.07,0,0,1,.82,2.33l-.11,16.18,5.85,0V45.06a5.14,5.14,0,0,0,.25-1.16A.38.38,0,0,0,78.64,43.5ZM62.7,25V23.85h.57A9.42,9.42,0,0,0,62.7,25Zm2.39,1.5a.4.4,0,0,0-.06.34h-.48c.35-.41.72-.8,1.1-1.18C65.46,26,65.27,26.23,65.09,26.52Zm.34-1.84c.07-.16.14-.31.2-.48a.4.4,0,0,0,0-.32h.85A9.59,9.59,0,0,0,65.43,24.67Zm3,2.21h-.75c.47-.43.87-.94,1.3-1.41A7.93,7.93,0,0,0,68.42,26.88Zm.18-2.28.08-.16a.53.53,0,0,0-.09-.55h.82A4.64,4.64,0,0,0,68.61,24.6ZM77.81,31a.44.44,0,0,0-.43-.35,6.13,6.13,0,0,0,.17-.84c.05-.39-.44-.53-.71-.35a11.68,11.68,0,0,0,.46-1.33A8.31,8.31,0,0,1,77.81,31Zm-1.2-4a.42.42,0,0,0,0-.09c.08.13.18.25.25.38s.07.16.11.23a.47.47,0,0,0-.43.1,8.22,8.22,0,0,0-.67.67C76.14,27.86,76.38,27.43,76.62,27ZM74.21,39.94A7.3,7.3,0,0,0,74,41.53a.42.42,0,0,0,.12.28,6.62,6.62,0,0,0-.38,1.81l-.11.26,0-4.06a.41.41,0,0,0,.4-.2l.36-.64-.06.22c-.06.12-.13.24-.19.36A.45.45,0,0,0,74.21,39.94Zm-.49-1.72,0-3.35a.46.46,0,0,0,.16-.15c.42-.62.85-1.3,1.28-2,.32-.45.66-.89,1-1.31a12.68,12.68,0,0,1-.66,1.29l-.36.62A18.13,18.13,0,0,0,74.25,35c-.24.51.48,1,.77.46.44-.76.84-1.58,1.31-2.34q-.19.51-.41,1A19.65,19.65,0,0,0,73.72,38.22Zm0-5v-.83a.42.42,0,0,0,.58-.16c.4-.71.79-1.42,1.25-2.09-.34.69-.72,1.38-1.12,2C74.21,32.55,74,32.9,73.75,33.25Zm-3.39-6.31a6,6,0,0,0-.66-.05c.36-.32.69-.66,1-1Zm.91-2.87A17.4,17.4,0,0,0,70,25.37a9.38,9.38,0,0,0,.49-1.2.41.41,0,0,0,0-.24c.3,0,.6,0,.89.07Zm.62,1c0-.19.09-.38.13-.58a.48.48,0,0,0-.14-.44,8.53,8.53,0,0,1,2.35.73c.18.09.32.2.48.3a.36.36,0,0,0-.18.18.46.46,0,0,0-.65-.3,3.84,3.84,0,0,0-.92.61,6,6,0,0,0,.15-.73c.05-.39-.52-.59-.76-.32S72,24.92,71.88,25.1Zm.73,2.83a3.42,3.42,0,0,0-.44-.35.44.44,0,0,0,.13-.09c.37-.36.7-.74,1.07-1.08A12.25,12.25,0,0,1,72.61,27.93Zm1.73,1.58c.1-.95.47-1.75.53-2.7,0,0,0,0,0-.05.13-.33.27-.66.41-1a.45.45,0,0,0,0-.28,6.33,6.33,0,0,1,.93.89.4.4,0,0,0-.38.2,23,23,0,0,0-2.09,4.58V31a5.17,5.17,0,0,0-.11-1.07A.48.48,0,0,0,74.34,29.51Zm-.68,16.73h0a.35.35,0,0,0,.36-.32c0-.13.05-.26.08-.39a.49.49,0,0,0,.74-.05,27.36,27.36,0,0,0,1.58-2.87,15,15,0,0,0-1.22,3.15.48.48,0,0,0,.23.5Zm4.06,0H75.84A.48.48,0,0,0,76,46.1c.38-.57.68-1.18,1-1.75-.1.28-.2.55-.29.84a.46.46,0,0,0,.55.56l.35.27.08,0Zm0-5.53a.4.4,0,0,0-.46-.37,11.49,11.49,0,0,0,.47-1.16Zm0-5a.39.39,0,0,0-.51.11q.28-.55.51-1.13Z"/><path class="cls-3" d="M84.83,23.11a.46.46,0,0,0-.68-.07l-.06.06-3.41,0,0,4.78,3.92,0V28a.48.48,0,0,0,0,.4l-.06,8.73,5.85,0,.09-14ZM82.39,27h-.77a5.66,5.66,0,0,0,1-.78c-.07.17-.16.34-.22.52A.39.39,0,0,0,82.39,27Zm-.11-1.71c.11-.37.23-.73.32-1.11a.46.46,0,0,0,0-.17h.74C83,24.43,82.66,24.87,82.28,25.27Zm3.18,5.54a.49.49,0,0,0,.28-.13.44.44,0,0,0,.33.4c-.22.4-.44.8-.62,1.21Zm1.87-3.16a.4.4,0,0,0-.27,0,4,4,0,0,0-1.11,1.11,8,8,0,0,1,.73-1.67,8.3,8.3,0,0,1,1.9-1.8A7.62,7.62,0,0,1,87.32,27.64ZM86.81,25c-.45.71-1.07,1.35-1.59,2h-.37C85.51,26.32,86.1,25.57,86.81,25ZM85.58,36.21c.16-.49.34-1,.53-1.45a.41.41,0,0,0,.29,0,5.4,5.4,0,0,0,.8-.6c-.14.32-.28.64-.4,1s.45.74.74.44c.07-.07.13-.15.19-.22a3.31,3.31,0,0,0,0,.5.5.5,0,0,0,.28.41Zm3.9,0H88.36a.42.42,0,0,0,.12-.09c.14-.15.28-.31.41-.47a1.41,1.41,0,0,0,.59-.22Zm0-6.62,0,0c-.13.16-.25.33-.37.51A3.62,3.62,0,0,0,89.33,29a.47.47,0,0,0-.47-.45c.24-.42.46-.85.68-1.28Zm0-5.23a.46.46,0,0,0-.52-.24,3.55,3.55,0,0,0-.87.41.43.43,0,0,0,0-.4s0-.09,0-.14h1.37Z"/><path class="cls-3" d="M107.71,23.26a.43.43,0,0,0-.45,0h0l-5,0a.47.47,0,0,0-.67-.32,5.63,5.63,0,0,0-.49.31l-7.24,0,0,4.78,11.24.08L105,37.86a4.93,4.93,0,0,1-1.38,3.75,6.12,6.12,0,0,1-4.2,1.29,22.48,22.48,0,0,1-5.24-.76L93.76,42l-1,4.51.41.11a27.65,27.65,0,0,0,6.8,1,16.46,16.46,0,0,0,2.15-.13.47.47,0,0,0,.38,0,11.61,11.61,0,0,0,3-.86.48.48,0,0,0,.37-.1l.29-.26A8.89,8.89,0,0,0,107.94,45c1.93-1.77,2.92-4.49,2.94-8.09L111,23.28ZM94.87,44.58a4.39,4.39,0,0,1,.57-.94.45.45,0,0,0,.1-.29l.44.09C95.62,43.83,95.25,44.21,94.87,44.58Zm2.93,1.94a.37.37,0,0,0,0,.1l-.61-.08a7.53,7.53,0,0,1,1.07-1.29A6.38,6.38,0,0,1,97.8,46.52ZM98.59,44a2.67,2.67,0,0,0-1.15.75c.07-.25.13-.5.17-.75a.53.53,0,0,0-.09-.37,18,18,0,0,0,1.92.13h.07a3.6,3.6,0,0,0-.42.47A.46.46,0,0,0,98.59,44Zm1,2.7-.89,0a12.28,12.28,0,0,1,1.19-2,17,17,0,0,1-.29,1.87A.48.48,0,0,0,99.61,46.74Zm1.84-3.16a7.66,7.66,0,0,0-.63.87c0-.23,0-.47,0-.71,0,0,0,0,0,0C101,43.67,101.24,43.62,101.45,43.58Zm-.94,3.16c.43-.72.79-1.47,1.26-2.15,0,.69,0,1.39,0,2.08C101.37,46.72,100.94,46.73,100.51,46.74Zm7.68-5.12a.45.45,0,0,0-.09-.53l.13-.29a.37.37,0,0,0,.42-.21l.14-.29-.26.67a19.77,19.77,0,0,1-1,2.17C107.72,42.63,107.95,42.12,108.19,41.62ZM109.72,34a.45.45,0,0,0-.43.3c-.12.33-.26.66-.39,1a3.3,3.3,0,0,0-.4.17A12.83,12.83,0,0,0,110,32.83V34A.5.5,0,0,0,109.72,34Zm-1.81-.49c.71-1.11,1.49-2.17,2.12-3.32v1.22a.39.39,0,0,0-.44.1C109,32.13,108.46,32.82,107.91,33.49ZM110,28.38a.37.37,0,0,0-.15.09,27,27,0,0,0-2.14,2.76c.69-1.3,1.69-2.51,2.29-3.83Zm-3.38,5.49a13.36,13.36,0,0,0-.74,1.41l0-4.15a.36.36,0,0,0,.34-.05,9,9,0,0,0,1.18-1,7.41,7.41,0,0,0-1.32,3.37A.45.45,0,0,0,106.67,33.87Zm-.3,2.62a12.58,12.58,0,0,0,1-1c-.49.66-1,1.31-1.42,2v-1A.48.48,0,0,0,106.37,36.49Zm3.7-11.43v1.54a.49.49,0,0,0-.59,0,12.62,12.62,0,0,0-.9.91A26.87,26.87,0,0,0,110.07,25.07Zm-1.82,1.33c-.77,1.19-1.58,2.36-2.28,3.6V28.33a.38.38,0,0,0,.22-.07l.09-.07h0A18.55,18.55,0,0,0,108.25,26.39Zm-.91-.46c-.44.44-.9.87-1.35,1.3v-.11h-.22C106.3,26.75,106.81,26.32,107.34,25.93Zm-9.73-1.85h1.31c-.81.57-1.55,1.23-2.34,1.81A6.28,6.28,0,0,0,97.61,24.09Zm-1.16,3c.27-.18.54-.36.8-.56v0a.5.5,0,0,0,.08.54Zm1.5,0a15.19,15.19,0,0,0,2.47-2.14c-.37.52-.77,1-1.11,1.58a.4.4,0,0,0,.13.57Zm4.68,0-2.68,0,.05,0c.59-.53,1.18-1.18,1.83-1.71-.29.33-.57.67-.83,1a.45.45,0,0,0,.26.66,2.09,2.09,0,0,0,1.41-.32A.49.49,0,0,0,102.64,27.11Zm1.27-2.95,0,0h.45c-.48.43-1,1-1.6,1.48A14.09,14.09,0,0,0,103.91,24.16Zm.95,2.57a.38.38,0,0,0,0,.39h-1.28c1-.8,2-1.66,3.09-2.41C106.15,25.44,105.3,26.11,104.86,26.73Zm-2.33,16.65a.36.36,0,0,0-.05-.09,5.2,5.2,0,0,0,1.78-1,4.67,4.67,0,0,0,.92-1.18.47.47,0,0,0,.82.1l.2-.29c-.27.52-.53,1-.79,1.58l-.17.29,0-.07a.45.45,0,0,0-.7-.1,2.88,2.88,0,0,0-.37.51.44.44,0,0,0-.76,0,14.53,14.53,0,0,0-.73,2A7.16,7.16,0,0,0,102.53,43.39Zm1,1.85a.38.38,0,0,0,.1.14,4.82,4.82,0,0,0-.15.89s0,0,0,.07l-.39.11C103.24,46.05,103.38,45.64,103.51,45.24Z"/><path class="cls-3" d="M116.61,33.63l-.13.21a9.09,9.09,0,0,0-.95,2,7.15,7.15,0,0,0-.28,1.31v0a.42.42,0,0,0,0,.38c0,.43-.07.9-.07,1.43l-.06,8.39,5.68,0,.06-8.84a18.82,18.82,0,0,1,.45-4.4l.14-.55ZM116,43.69a.38.38,0,0,0,.28-.13c1-1.07,1.91-2.55,3.24-3.25-.47,1.78-2.52,3-3.34,4.69a.46.46,0,0,0,.51.66q-.31.42-.6.86H116Zm0-3.18V39s0-.07,0-.11a.47.47,0,0,0,.28-.09c.76-.59,1.42-1.28,2.12-1.94A21,21,0,0,0,116,40.51Zm0,.81a.41.41,0,0,0,.6,0,27.18,27.18,0,0,1,2.46-2.92c-.48,1.45-2.07,2.89-3.07,4.08Zm4-4.26a.38.38,0,0,0-.54-.12h0a8.84,8.84,0,0,0,.67-1.16Q120,36.39,120,37.06Zm-2.88-2.54h1.17q-.26.21-.49.44a.46.46,0,0,0-.72-.16l-.2.21C116.93,34.85,117,34.68,117.1,34.52Zm.21,12a15.88,15.88,0,0,0,1.5-1.91l.15-.15a8.88,8.88,0,0,1-.82,1.26c-.33.45.33.83.7.55l.19-.1a.43.43,0,0,0,.7.13l.13-.15v.39Z"/><path class="cls-3" d="M132.25,25.76c-1.66-1.56-4.07-2.36-7.17-2.38h-.38a.5.5,0,0,0-.5-.23,3.17,3.17,0,0,0-.71.22l-8.22-.06,0,3.6c-.07.13-.15.26-.21.4a.47.47,0,0,0,.2.62v.16l9.47.06a4.82,4.82,0,0,1,3,.82l-.13.16c-.36.44.25,1.08.63.64l.11-.13a4.89,4.89,0,0,1,.59,2.62l-.1,15.24,5.83,0,.1-15A8.75,8.75,0,0,0,132.25,25.76Zm-2.59,4.12a8.39,8.39,0,0,0,1.27-1c-.34.78-.86,1.52-1.17,2.25a.34.34,0,0,0,0,.08,5.71,5.71,0,0,0-.3-1.27A.39.39,0,0,0,129.66,29.88Zm.09,1.51a.48.48,0,0,0,.75.17l.38-.42a10.88,10.88,0,0,0-1.08,2.19V32.27A8.14,8.14,0,0,0,129.75,31.39Zm0,2.51a.42.42,0,0,0,.68.09c.22-.25.42-.52.61-.79-.45.7-.92,1.38-1.3,2.11Zm0,3.82.09-.06a17,17,0,0,0,2.75-3.93c-.76,2.58-2.12,5-2.86,7.64Zm4.08-5.33s0,.07,0,.1l0,2.55a.5.5,0,0,0-.25.17c-.42.55-.81,1.12-1.17,1.7A21.38,21.38,0,0,0,133.85,32.39Zm-.05,8.47a.47.47,0,0,0-.75,0c-.61,1-1.11,2.08-1.68,3.11.67-2,1.76-3.81,2.45-5.78Zm-2,4.09a4.68,4.68,0,0,0-.16,1.41.46.46,0,0,0,.1.27h-1.08A13.23,13.23,0,0,0,131.83,44.95Zm2-3.25v1.58a.49.49,0,0,0-.19.09,3.53,3.53,0,0,0-.51.53A14.22,14.22,0,0,0,133.79,41.69Zm0-10a.42.42,0,0,0-.66-.08,6.29,6.29,0,0,0-.47.5,6.17,6.17,0,0,0,.59-1.74.45.45,0,0,0-.74-.44c-.06.05-.11.12-.17.17a4.49,4.49,0,0,0,.29-1,.45.45,0,0,0-.71-.46,3.55,3.55,0,0,0,.18-1.06.45.45,0,0,0-.76-.32l-.42.38a4.54,4.54,0,0,0,.18-.74.45.45,0,0,0-.65-.51c-.1,0-.17.11-.27.16a6.59,6.59,0,0,0,.25-.75.45.45,0,0,0,0-.27,6.67,6.67,0,0,1,1.2.89A7.54,7.54,0,0,1,133.83,31.71Zm-4.62-6.76c.24.09.47.19.7.29a2.79,2.79,0,0,0-1,.42Q129,25.31,129.21,24.95Zm-13-.74h1.07a9.11,9.11,0,0,0-1.08,1.21ZM117.37,27a.46.46,0,0,0,0,.17h-.92a17.53,17.53,0,0,1,2.17-2A14.67,14.67,0,0,0,117.37,27Zm2.77-2.8H121c-.54.4-1.06.82-1.58,1.24A8.11,8.11,0,0,0,120.14,24.24Zm.64,3h-1c1.41-.54,2.29-2,3.52-2.74C122.51,25.43,121.34,26.09,120.78,27.23Zm3.71-3h.59l.67,0c-.14.24-.29.48-.44.72a.47.47,0,0,0-.5-.06,14.29,14.29,0,0,0-2.2,1.28A9.45,9.45,0,0,0,124.49,24.27Zm0,1.86h.1c-.16.25-.32.51-.45.78a.46.46,0,0,0,0,.35h-1.41C123.28,26.87,123.86,26.48,124.47,26.13Zm2,1.32a13.37,13.37,0,0,0,1-1.15l.25-.24c-.12.22-.24.45-.34.67a.45.45,0,0,0,.61.62c.45-.23.91-.62,1.39-.91a8.22,8.22,0,0,1-1,1.83A4.51,4.51,0,0,0,126.43,27.45Zm2.48,1.48a9.68,9.68,0,0,1,1-1,11.5,11.5,0,0,1-.75,1.28C129,29.09,129,29,128.9,28.93Zm.83,14.55a.34.34,0,0,0,.47-.2,47.81,47.81,0,0,1,3-5.92c-.83,3-2.9,5.77-3.25,8.93a.37.37,0,0,0,.15.33h-.37Zm2.72,3.16s0,0,.06,0c.38-.57.63-1.2,1-1.76a.48.48,0,0,0,.27,0v1.77Z"/><path class="cls-3" d="M143,23.5l0-6.77-5.85,0-.08,11.55,11.4.08a.51.51,0,0,0,.33,0h1.05l-1.22,2.9A4.53,4.53,0,0,0,147.48,33a.43.43,0,0,0,.18.48l-5.92,14.07,3.8,0a.36.36,0,0,0,.27,0H148l8.31-20.29.06-3.76Zm-2.24-5.76a.49.49,0,0,0,0-.14h1.34v1.18a.47.47,0,0,0-.53.16c-.24.3-.46.61-.69.92a8.51,8.51,0,0,0,.65-1.6.45.45,0,0,0-.65-.51c-.1.07-.19.15-.29.22Zm1.36,2.82v1.17a.37.37,0,0,0-.13.1,27.78,27.78,0,0,0-1.6,2.29C140.88,22.91,141.53,21.71,142.09,20.55Zm-3-2.9a.41.41,0,0,0,0-.07h.71a13.65,13.65,0,0,1-1.18,1.77A11.22,11.22,0,0,1,139,17.66Zm.32,9.42a.38.38,0,0,0,0,.28H138l0-3.4.13,0a.47.47,0,0,0,.6.05c-.17.3-.34.61-.52.91-.27.46.3.82.67.55a11.19,11.19,0,0,0-.33,1.19c-.09.4.43.8.74.44l.2-.25Zm-.86-4.72a.46.46,0,0,0-.46.29l0,.08V21h0c.09.3.5.51.74.21.39-.5.77-1,1.18-1.43C139.5,20.63,139,21.47,138.51,22.36Zm3.21,5h-1.49l.3-.42a.41.41,0,0,0,.62-.12,8.86,8.86,0,0,1,.68-1.12c0,.23-.09.46-.15.69a.45.45,0,0,0,.82.35l0,0A.51.51,0,0,0,143,27,9,9,0,0,1,141.72,27.37Zm2.47-3v0h1.42a3.25,3.25,0,0,0-.79.62.39.39,0,0,0-.49-.24A2.69,2.69,0,0,0,144,25C144.07,24.77,144.14,24.6,144.19,24.42Zm2.39,3-2.33,0,.91-.39a.41.41,0,0,0,.7.14c.33-.38.61-.84.94-1.25a6.17,6.17,0,0,0-.27,1.33A.37.37,0,0,0,146.58,27.41Zm-.31-2.26c0-.11,0-.21,0-.33a.44.44,0,0,0-.28-.4h1.09A3.22,3.22,0,0,0,146.27,25.14Zm2,2.27h-.86a11.39,11.39,0,0,0,1.21-1.26C148.51,26.57,148.38,27,148.29,27.42Zm-.54-1.6a8.89,8.89,0,0,0,.27-1,.46.46,0,0,0-.08-.36H149A14,14,0,0,0,147.75,25.81Zm2.07-1.38,3.69,0a8,8,0,0,0-1.1,1.07.42.42,0,0,0-.19.09,3.71,3.71,0,0,0,.14-.55c0-.3-.19-.68-.55-.55a5.56,5.56,0,0,0-2.31,1.79,7.26,7.26,0,0,0,.38-1.62A.38.38,0,0,0,149.81,24.44Zm-.14,3a9.35,9.35,0,0,1,1.5-1.57c-.23.53-.5,1-.73,1.57Zm-6,19.09a.42.42,0,0,0-.09.19h-.49l1.2-2.86a.46.46,0,0,0,.53.35c-.45.53-.9,1.06-1.32,1.59A.47.47,0,0,0,143.66,46.52Zm1.77.2h-.57l1-.74C145.71,46.22,145.57,46.47,145.44,46.72Zm1.27-8.63a.38.38,0,0,0,.42.11q-.57.75-1.1,1.51Zm1.39,4.33a6,6,0,0,0-.6,1.15l-.86.68C147.12,43.64,147.6,43,148.1,42.42Zm0,2.53A.46.46,0,0,0,148,45c-.27.21-.55.41-.83.61.2-.28.4-.55.62-.82a.36.36,0,0,0,.38-.32c0-.08,0-.15.06-.22l.29-.35a.53.53,0,0,0,.09-.15Zm-.51-9L148.84,33c.54-.45,1-1,1.6-1.39a7.74,7.74,0,0,0-1,2.14C148.86,34.5,148.18,35.22,147.61,36Zm3-.29a.42.42,0,0,0-.39.11c-.09.09-.18.19-.27.28a9,9,0,0,0,.7-1.05l.61-.91a.42.42,0,0,0,.1,0,6.46,6.46,0,0,0,1-1.21C151.84,33.79,151.23,34.74,150.62,35.66Zm3.08-10c.55-.54,1.5-1.6,1.17-.26h0a.43.43,0,0,0-.48,0,6.84,6.84,0,0,0-1.54,1.25A11.47,11.47,0,0,1,153.69,25.65Zm1.74,1.44-1,2.53a.42.42,0,0,0-.31,0l-.07.05c.09-.2.18-.39.26-.59a.41.41,0,0,0-.24-.51q.32-.38.62-.76h0l.07-.09a.34.34,0,0,0,0-.44c.24-.35.48-.7.7-1.06Z"/></g></g></svg>