<svg xmlns="http://www.w3.org/2000/svg" viewBox="0 0 19.46 25.71"><defs><style>.cls-1{fill:#575756;}</style></defs><title>Asset 4</title><g id="Layer_2" data-name="Layer 2"><g id="menu"><path class="cls-1" d="M9.9,14.73V9.65l-.08-.06c-.4.42-.82.84-1.21,1.27a1.21,1.21,0,0,1-1,.4c-1.1,0-2.21,0-3.31,0a.94.94,0,1,1,0-1.86c.94,0,1.89,0,2.83,0a.75.75,0,0,0,.47-.19c.82-.8,1.63-1.62,2.44-2.43A7.25,7.25,0,0,1,10.79,6,2,2,0,0,1,14,7.43a4.18,4.18,0,0,1,0,.44c0,2.3,0,4.59,0,6.89a2,2,0,0,1-1.15,2,3,3,0,0,1-1.15.2c-.75,0-1.5,0-2.25,0s-1.41,0-2.11,0a.67.67,0,0,0-.68.36c-1,1.64-2.1,3.27-3.15,4.91a1.18,1.18,0,0,1-1.43.62,1.12,1.12,0,0,1-.56-1.71c.46-.76,1-1.5,1.43-2.24.74-1.16,1.5-2.3,2.23-3.47a1.44,1.44,0,0,1,1.35-.74C7.67,14.74,8.77,14.73,9.9,14.73Z"/><path class="cls-1" d="M17.65,18.25a5.64,5.64,0,0,0-2.09-4.38l-.28-.25a.89.89,0,0,1,1.13-1.37,7.05,7.05,0,0,1,2.21,2.6,7.3,7.3,0,0,1-.34,7.38A7.43,7.43,0,0,1,7,23.8a7.69,7.69,0,0,1-1.54-1.9.91.91,0,0,1,.26-1.31A.88.88,0,0,1,7,21a5.67,5.67,0,0,0,10.64-2.73Z"/><path class="cls-1" d="M13.29,2.47a2.47,2.47,0,1,1-4.93,0,2.47,2.47,0,1,1,4.93,0Z"/><path class="cls-1" d="M5.2,13.51c-.89,0-1.77,0-2.66,0A.57.57,0,0,1,2,13.14l-1.86-4c-.17-.36-.11-.6.16-.73s.48,0,.66.36C1.47,10,2,11.15,2.57,12.34a.4.4,0,0,0,.43.28H8c.27,0,.46.18.45.46a.42.42,0,0,1-.47.43H5.2Z"/></g></g></svg>