<svg xmlns="http://www.w3.org/2000/svg" viewBox="0 0 26.92 26.14"><defs><style>.cls-1{fill:#575756;}</style></defs><title>Asset 4</title><g id="Layer_2" data-name="Layer 2"><g id="menu"><path class="cls-1" d="M23.47,0h-20A3.42,3.42,0,0,0,0,3.36V22.79a3.42,3.42,0,0,0,3.46,3.35h20a3.41,3.41,0,0,0,3.45-3.35V3.36A3.42,3.42,0,0,0,23.47,0ZM18.4,4.08A1.2,1.2,0,0,1,19.61,2.9h3a1.2,1.2,0,0,1,1.21,1.18V6.9a1.2,1.2,0,0,1-1.21,1.18h-3A1.2,1.2,0,0,1,18.4,6.9ZM13.49,7.93A5.25,5.25,0,0,1,18.89,13a5.26,5.26,0,0,1-5.41,5.09A5.25,5.25,0,0,1,8.08,13,5.25,5.25,0,0,1,13.49,7.93ZM23.88,22.1a1.06,1.06,0,0,1-1.07,1H4.06A1.06,1.06,0,0,1,3,22.1v-11H5.46a7.47,7.47,0,0,0-.35,2.24,8.13,8.13,0,0,0,8.37,7.87,8.13,8.13,0,0,0,8.37-7.87,7.44,7.44,0,0,0-.35-2.24h2.37Z"/></g></g></svg>