<svg xmlns="http://www.w3.org/2000/svg" viewBox="0 0 118.88 3.4"><defs><style>.cls-1{fill:#545453;}</style></defs><title>Asset 2</title><g id="Layer_2" data-name="Layer 2"><g id="menu"><path class="cls-1" d="M29.36,1.53c.2.07.31.24.55.26A1.5,1.5,0,0,0,30.3,1,.8.8,0,0,0,29.6.76c.11.46-.15.53-.24.77M28.81.24c1.26-.77,2.74.5,2.35,1.46A2.26,2.26,0,0,1,29,2.56c-.62-.22-.77-1.7-.23-2.32"/><path class="cls-1" d="M22.92,2.12c-.61-.36-.57.34,0,0m0-.95a.33.33,0,1,0,.63,0c-.18-.05-.47-.17-.63,0m-.16-1a1.35,1.35,0,0,1,1.65,1.12c.06,1-2.07,2.35-2.67,1a1.75,1.75,0,0,1,1-2.15"/><path class="cls-1" d="M1,2c.18,0,.23.15.47.09.18-.36,0-.93-.47-.86C.8,1.4.9,1.79,1,2m1.26-.34a.72.72,0,0,0-.63-1,1.3,1.3,0,0,0,.63,1M.56,2.85C-1.37,1.19,2.28-1.12,2.68,1c.23,1.22-1,1.86-2.12,1.89"/><path class="cls-1" d="M16.18,1.42c0,.61,1.06.72,1,0-.2-.48-.69-.11-1,0m-.86.94C14.22-.07,18.41-.12,17.9,1.94c-.18.73-1.89.91-2.59.43"/><path class="cls-1" d="M8.73.72a1.52,1.52,0,0,1,1.72,1.46c-.06.74-2,1.65-2.67.68A1.56,1.56,0,0,1,8.73.72"/><path class="cls-1" d="M60.71,1.75c-.14-.19-.26-.4-.63-.35-.15.48.51.69.63.35M59.15.63c1-.61,2.6-.86,2.59.69,0,.95-1,1.42-2,1.29-.6-.16-.74-1.23-.55-2"/><path class="cls-1" d="M95.16,1.64c.2.07.31.24.55.26a1.5,1.5,0,0,0,.39-.77A.8.8,0,0,0,95.4.86c.11.46-.15.53-.24.77M94.61.35c1.26-.77,2.74.5,2.35,1.46a2.26,2.26,0,0,1-2.12.86c-.62-.22-.77-1.7-.23-2.32"/><path class="cls-1" d="M53.18,1.22h-.31c-.11.51.6.38.31,0m-.79.43a.6.6,0,0,0-.08-.43h-.24c0,.28.09.41.31.43m-1.18.43A1.77,1.77,0,0,1,51.3.79c.46-1,1.82-.7,2.43-.08.92,1.89-1.64,2.38-2.51,1.37"/><path class="cls-1" d="M88.72,2.23c-.61-.36-.57.34,0,0m0-.95a.33.33,0,1,0,.63,0c-.18-.05-.47-.17-.63,0m-.16-1a1.35,1.35,0,0,1,1.65,1.12c.06,1-2.07,2.35-2.67,1a1.75,1.75,0,0,1,1-2.15"/><path class="cls-1" d="M66.76,2.11c.18,0,.23.15.47.09.18-.36,0-.93-.47-.86-.15.18-.06.57,0,.77M68,1.76a.72.72,0,0,0-.63-1,1.3,1.3,0,0,0,.63,1M66.36,3c-1.94-1.67,1.72-4,2.12-1.89.23,1.22-1,1.86-2.12,1.89"/><path class="cls-1" d="M82,1.53c0,.61,1.06.72,1,0-.2-.48-.69-.11-1,0m-.86.94C80,0,84.21,0,83.7,2c-.18.73-1.89.91-2.59.43"/><path class="cls-1" d="M46,1.9a.9.9,0,0,0-.55-1c.27.25.07,1,.55,1m.71.35c-.53.92-2.32.9-2.51-.18-.42-2.33,2.72-2.83,2.51.18"/><path class="cls-1" d="M37.26.6C39,.28,39,3.07,37.41,3A1.22,1.22,0,0,1,37.26.6"/><path class="cls-1" d="M74.53.83a1.52,1.52,0,0,1,1.72,1.46c-.06.74-2,1.65-2.67.68A1.56,1.56,0,0,1,74.53.83"/><path class="cls-1" d="M118.13,1.33h-.31c-.11.51.6.38.31,0m-.79.43a.6.6,0,0,0-.08-.43H117c0,.28.09.41.31.43m-1.18.43A1.77,1.77,0,0,1,116.25.9c.46-1,1.82-.7,2.43-.08.92,1.89-1.64,2.38-2.51,1.37"/><path class="cls-1" d="M110.91,2a.9.9,0,0,0-.55-1c.27.25.07,1,.55,1m.71.35c-.53.92-2.32.9-2.51-.18-.42-2.33,2.72-2.83,2.51.18"/><path class="cls-1" d="M102.2.7c1.77-.32,1.73,2.47.15,2.41A1.22,1.22,0,0,1,102.2.7"/></g></g></svg>