<svg xmlns="http://www.w3.org/2000/svg" viewBox="0 0 133.9 132.37"><defs><style>.cls-1{fill:#fff;}.cls-2{fill:#53b0a1;}.cls-3{fill:#ffba20;}.cls-4,.cls-5{fill:#303030;}.cls-5{font-size:13.45px;font-family:AlmoniTzarAAA, AlmoniTzarAAA;}</style></defs><title>Asset 35</title><g id="Layer_2" data-name="Layer 2"><g id="instaraction"><path class="cls-1" d="M91.91,27.15l11.35,16.36,9.89,31.78-6,19.36L99.3,105.32l-25.52,5.36s-24.84.56-26.7-.25-12.87-4.66-12.87-4.66-9.13-23.05-8.8-24.12,1.46-35.29,1.46-35.29,4.43-17,5.51-18S62.31,24.4,62.31,24.4Z"/><path class="cls-2" d="M44.51,99.77c0-.16-.16-.21-.21-.34a25.4,25.4,0,0,1-3-2,.14.14,0,0,1-.09,0c-.09.17,0,.3.12.41a26.77,26.77,0,0,1,2.5,1.42A3.52,3.52,0,0,0,44.51,99.77Z"/><path class="cls-2" d="M44.17,97.06a1,1,0,0,0-.62-.6A1.93,1.93,0,0,0,44.17,97.06Z"/><path class="cls-2" d="M41.87,97.41a22.23,22.23,0,0,0,2,1.35c-.24-.52-.78-.73-1.23-1-.19-.15-.83-.87-1.08-.6C41.56,97.31,41.75,97.33,41.87,97.41Z"/><path class="cls-2" d="M43.49,96.37c-.14-.25-.36-.57-.65-.57C42.95,96.1,43.23,96.23,43.49,96.37Z"/><path class="cls-2" d="M42.68,97c-.29,0-.45-.56-.74-.29a6.22,6.22,0,0,0,1.51,1.07C43.22,97.48,42.88,97.3,42.68,97Z"/><path class="cls-2" d="M37.22,95.35a5,5,0,0,0,.8.78,7.49,7.49,0,0,0-1-1.22c-.08,0-.18,0-.19.06A.68.68,0,0,0,37.22,95.35Z"/><path class="cls-2" d="M45.13,100.55c-.3-.23-.82-.35-1-.69-.14,0-.15-.05-.25-.06-.63-.47-1.38-.84-2-1.32,0,0-.06,0-.06,0a2.77,2.77,0,0,0,.61.78c.1,0,.14,0,.22,0,1.07.63,2.06,1.34,3.09,2A2,2,0,0,0,45.13,100.55Z"/><path class="cls-2" d="M45.49,101.55c-.79-.43-1.44-1-2.16-1.48a.67.67,0,0,1-.4-.22h-.09c.17.29.39.54.58.81,1.09.19,1.62.91,2.47,1.33C45.85,101.74,45.55,101.77,45.49,101.55Z"/><path class="cls-2" d="M43.82,101.1c.35.72,1.16,1,1.79,1.45a.74.74,0,0,0,.16-.15,16,16,0,0,0-1.88-1.32S43.83,101.07,43.82,101.1Z"/><path class="cls-2" d="M45.11,102.63c-.12,0,0,.23,0,.31s.11-.08.13-.15S45.14,102.7,45.11,102.63Z"/><path class="cls-2" d="M37.09,95.84c-.22-.23-.28-.45-.55-.56a.22.22,0,0,0-.22.18,16.68,16.68,0,0,0,1.29,1.16C37.79,96.35,37.35,96.13,37.09,95.84Z"/><path class="cls-2" d="M35.77,96.92c-.29,0-.45-.56-.74-.29a6.23,6.23,0,0,0,1.51,1.07C36.31,97.41,36,97.24,35.77,96.92Z"/><path class="cls-2" d="M35,97.35a22.23,22.23,0,0,0,2,1.35c-.24-.52-.78-.73-1.23-1-.19-.15-.83-.87-1.08-.6C34.66,97.25,34.84,97.26,35,97.35Z"/><path class="cls-2" d="M37.61,99.7c0-.16-.16-.21-.21-.34a25.4,25.4,0,0,1-3-2,.14.14,0,0,1-.09,0c-.09.17,0,.3.12.41a26.79,26.79,0,0,1,2.5,1.42A3.51,3.51,0,0,0,37.61,99.7Z"/><path class="cls-2" d="M37.26,97a1,1,0,0,0-.62-.6A1.93,1.93,0,0,0,37.26,97Z"/><path class="cls-2" d="M44,95.91c-.22-.23-.28-.45-.55-.56a.22.22,0,0,0-.22.18,16.68,16.68,0,0,0,1.29,1.16C44.7,96.41,44.26,96.19,44,95.91Z"/><path class="cls-2" d="M36.58,96.31c-.14-.25-.36-.57-.65-.57C36,96,36.32,96.16,36.58,96.31Z"/><path class="cls-2" d="M36.88,97.36a.18.18,0,0,0-.18-.25c-.18-.19-1-1.4-1.26-.85l1,.85C36.6,97.21,36.7,97.41,36.88,97.36Z"/><path class="cls-2" d="M38.22,100.48c-.3-.23-.82-.35-1-.69-.14,0-.15-.05-.25-.06-.63-.47-1.38-.84-2-1.32,0,0-.06,0-.06,0a2.77,2.77,0,0,0,.61.78c.1,0,.14,0,.22,0,1.07.63,2.06,1.34,3.09,2A2,2,0,0,0,38.22,100.48Z"/><path class="cls-2" d="M38.2,102.56c-.12,0,0,.23,0,.31s.11-.08.13-.15S38.23,102.64,38.2,102.56Z"/><path class="cls-2" d="M44.12,95.41a5,5,0,0,0,.8.78,7.48,7.48,0,0,0-1-1.22c-.08,0-.18,0-.19.06A.68.68,0,0,0,44.12,95.41Z"/><path class="cls-2" d="M45.68,95.12c-.17-.47-.6-.69-.86-1.06-.12,0-.11.1-.19.12A3.41,3.41,0,0,0,45.68,95.12Z"/><path class="cls-2" d="M44.59,95.23c.25.24.54.42.65.57.39-.31-.15-.45-.33-.75s0-.15-.21-.25-.21-.28-.31-.31C43.93,94.61,44.36,95,44.59,95.23Z"/><path class="cls-2" d="M36.91,101c.35.72,1.16,1,1.79,1.45a.74.74,0,0,0,.16-.15A16,16,0,0,0,37,101S36.92,101,36.91,101Z"/><path class="cls-2" d="M38.77,95.05c-.17-.47-.6-.69-.86-1.06-.12,0-.11.1-.19.12A3.41,3.41,0,0,0,38.77,95.05Z"/><path class="cls-2" d="M38.59,101.48c-.79-.43-1.44-1-2.16-1.48a.67.67,0,0,1-.4-.22h-.09c.17.29.39.54.58.81,1.09.19,1.62.91,2.47,1.33C38.95,101.68,38.64,101.7,38.59,101.48Z"/><path class="cls-2" d="M43.79,97.43a.18.18,0,0,0-.18-.25c-.18-.19-1-1.4-1.26-.85l1,.85C43.51,97.27,43.6,97.48,43.79,97.43Z"/><path class="cls-2" d="M97.82,96.89c.27-.14.55-.26.66-.55C98.19,96.32,98,96.65,97.82,96.89Z"/><path class="cls-2" d="M97,95c-.1,0-.16.22-.31.31s-.12.09-.22.25-.73.43-.35.74c.11-.14.41-.32.66-.55S97.42,95.12,97,95Z"/><path class="cls-2" d="M96.73,94.67c-.08,0-.06-.14-.19-.13-.27.37-.7.59-.88,1A3.41,3.41,0,0,0,96.73,94.67Z"/><path class="cls-2" d="M96.09,103.12c0,.07-.16,0-.16.15s0,.15.12.16S96.21,103.16,96.09,103.12Z"/><path class="cls-2" d="M97.89,95.86c-.27.11-.34.33-.57.55s-.72.49-.53.77a16.65,16.65,0,0,0,1.32-1.14A.22.22,0,0,0,97.89,95.86Z"/><path class="cls-2" d="M97.13,97.57a1.92,1.92,0,0,0,.63-.58A1,1,0,0,0,97.13,97.57Z"/><path class="cls-2" d="M93.08,98a25.4,25.4,0,0,1-3,1.9c-.05.13-.19.18-.22.34a3.51,3.51,0,0,0,.69-.43A26.79,26.79,0,0,1,93,98.4c.08-.1.21-.23.13-.4A.14.14,0,0,1,93.08,98Z"/><path class="cls-2" d="M97.69,97.7a.18.18,0,0,0-.19.25c.19.05.29-.15.41-.24L99,96.87C98.67,96.31,97.87,97.51,97.69,97.7Z"/><path class="cls-2" d="M96.73,100.26a3.51,3.51,0,0,0,.69-.43A26.79,26.79,0,0,1,100,98.46c.08-.1.21-.23.13-.4a.14.14,0,0,1-.09,0,25.38,25.38,0,0,1-3,1.9C96.9,100.06,96.76,100.1,96.73,100.26Z"/><path class="cls-2" d="M97.43,99.28a22.21,22.21,0,0,0,2-1.32c.12-.08.31-.09.35-.28-.24-.27-.9.43-1.09.58C98.22,98.56,97.67,98.76,97.43,99.28Z"/><path class="cls-2" d="M98.62,97.52c-.2.31-.55.48-.78.77a6.22,6.22,0,0,0,1.53-1C99.08,97,98.91,97.5,98.62,97.52Z"/><path class="cls-2" d="M65.19,11.92A54.86,54.86,0,1,0,119.52,67.3,54.85,54.85,0,0,0,65.19,11.92ZM68.72,32l7.12,13.55c1.44-.39,2.24-1.09,2.27-3.77l.09-9.69,5,0-.09,9c0,4-1.16,6.15-5.71,7.53l5.49,10.49-5.09,0L69.92,43.75c-.94.23-1.26,1-1.27,2.74L68.53,59l-5,0,.11-11.44c0-3.39.95-6.08,4.7-6.84l-4.6-8.74Zm9,31L77.6,77.18l-5.19,0,.14-14.23ZM56,38.6l5,0-.19,20.29-5,0ZM40.28,31.72l4.37,0c8,.08,8.7,4.26,8.63,11.12l-.15,16-5.09,0,.16-16.49c0-4-.44-7-3.94-7l-4,0Zm-6.75-.06,4.38,0-.55,57.88-4.38,0Zm6.5,71a4.08,4.08,0,0,1-.53.58v.28c-.53-.18-.64.26-1.09.33-.41-.31-.86-.6-1.26-.91-.5-1.12-1.45-1.8-2-2.85A13.89,13.89,0,0,1,33.46,98c-.09,0-.12-.07-.19-.1s-.05-.25-.06-.4a39.79,39.79,0,0,1,3.89-3.75A5.21,5.21,0,0,1,38,92.56c.24,0,.32.09.56.07a6.71,6.71,0,0,0,1.22,1.84c0,.2.11.31.06.5a21,21,0,0,1-2.26,2.9c.38.72.93,1.26,1.32,2a9.43,9.43,0,0,1,.83,1.06c.25.3.82.76.8,1.13S40.19,102.49,40,102.68Zm6.91.07a4.08,4.08,0,0,1-.53.58v.28c-.53-.18-.64.26-1.09.33-.41-.31-.86-.6-1.26-.91-.5-1.12-1.45-1.8-2-2.85A13.89,13.89,0,0,1,40.37,98c-.09,0-.12-.07-.19-.1s-.05-.25-.06-.4A39.79,39.79,0,0,1,44,93.77a5.21,5.21,0,0,1,.88-1.14c.24,0,.32.09.56.07a6.7,6.7,0,0,0,1.22,1.84c0,.2.11.31.06.5a21,21,0,0,1-2.26,2.9c.38.72.93,1.26,1.32,2a9.47,9.47,0,0,1,.83,1.06c.25.3.81.76.8,1.13S47.09,102.55,46.94,102.74ZM47.1,66.2l-.22,23.48-7.42-.07,0-3.54,2.38,0,.19-19.94-2,0,0-3.54,8.64.08c8.35.08,8.93,4.9,8.87,11.76l-.15,15.34-5,0,.16-16.59c0-4,.11-6.88-3.75-6.92Zm10.84,36.93c-.06.81-.19.89-.93.61l-.37-.16a20.59,20.59,0,0,0,0-5.34c-.09-.9-.21-1.79-.33-2.69-.2-1.59-.62-1.87-2.4-1.54-.09,1.2-.26,2.44-.25,3.68,0,1.74.16,3.47.23,5.21,0,.89-.14,1.07-1,1.11l-1.61.05c-.06-.84.05-1,.72-1.17.9-.2.94-.2,1-1.08,0-1.16,0-2.32,0-3.48S53,96,53,94.86c0-.83,0-.82-.83-1.13-.17-.07-.29-.28-.43-.42.14-.11.25-.28.41-.33a4.8,4.8,0,0,1,4.4.63,2.33,2.33,0,0,1,.74,1.2,9.16,9.16,0,0,1,.31,1.9c.15,1.76.27,3.51.39,5.27A8.52,8.52,0,0,1,57.94,103.13Zm2.75.61a.74.74,0,0,1-.57.24c-.11,0-.26-.24-.31-.4a1.83,1.83,0,0,1-.06-.57q-.09-4.78-.17-9.56a3.14,3.14,0,0,1,.12-.61c1,0,1.13.09,1.16.95,0,1.42,0,2.83,0,4.25s-.08,2.89-.1,4.34c0,.22.12.44.11.66A1.4,1.4,0,0,1,60.69,103.74Zm2.95,2.78a1,1,0,0,1-.14.33c-.78-.15-.8-.16-.82-.9q-.07-2.7-.12-5.4c0-.86,0-1.73,0-2.59,0-.38.05-.76.09-1.2l1-.09a1.9,1.9,0,0,1,.16.51Q63.72,101.84,63.64,106.52Zm4.18-6.28c0,.58,0,1.16-.06,1.74a2,2,0,0,1-2.2,2s-.06,0-.16-.08a.61.61,0,0,1,.43-.84A1.82,1.82,0,0,0,67.18,101c0-1.9,0-3.8,0-5.7,0-.38-.06-.76-.1-1.26l-4.45-.23a3.15,3.15,0,0,1,0-.46,1.06,1.06,0,0,1,.11-.26,22.72,22.72,0,0,1,5.5.33C68.12,95.69,68,98,67.82,100.23Zm1.81-17.31c0,4.84-1.6,7-6.5,6.9l-3.82,0,0-3.54,2.23,0c3,0,3-1.44,3-4.3l.15-15.61-3.46,0,0-3.54,8.52.08Zm5.46,18.26a11.26,11.26,0,0,1-.12,1.25A1.62,1.62,0,0,1,73.38,104c-.83.09-1.66.15-2.5.19a5.54,5.54,0,0,1-.82-.08c.15-.88.19-.89.8-1s1.46-.19,2.18-.32a1.42,1.42,0,0,0,1.2-1.22,2.54,2.54,0,0,0,.1-.57c0-1.83-.09-3.66-.18-5.49a1.13,1.13,0,0,0-1.08-1.15c-.63-.08-1.22-.44-2-.18a12.5,12.5,0,0,0,.29,4.38c-.91.52-1.22.39-1.24-.46q-.05-2-.1-4c0-1,0-1,1-1s1.73.17,2.59.24A1.39,1.39,0,0,1,75,94.66a11.36,11.36,0,0,1,.2,1.9C75.18,98.1,75.14,99.64,75.09,101.18ZM77,104.6a11.08,11.08,0,0,1-.21-1.35c0-1.66-.06-3.33-.1-5,0-.64.12-.73,1.05-.66.09.94.2,1.89.27,2.84s.12,2.11.15,3.17C78.2,104.43,78.11,104.51,77,104.6Zm5.6-.55c-.84-.23-.86-.23-.91-1-.12-2-.22-4-.33-6A8.63,8.63,0,0,0,81.31,96c-.15-.81-.51-1.48-1.43-1.6s-1.59-.18-2.39-.23c-.43,0-.84,0-1.06-.49A1.13,1.13,0,0,1,77.51,93c1.09,0,2.18,0,3.28,0a1.39,1.39,0,0,1,1.35,1.18,13,13,0,0,1,.4,2c.19,2.12.31,4.24.5,6.36A1.86,1.86,0,0,1,82.6,104ZM79.76,66.51l0-3.54,5.55.05c8,.08,8.7,4.26,8.63,11.12l-.09,9.18-5.09,0,.09-9.69c0-4-.44-7-3.94-7Zm10.47,37c-.41.31-.86.59-1.28.89-.45-.08-.55-.52-1.08-.35v-.28a4.07,4.07,0,0,1-.52-.59c-.15-.19-.45-.41-.46-.66s.56-.82.82-1.11a9.45,9.45,0,0,1,.85-1c.4-.7,1-1.24,1.35-1.94a21,21,0,0,1-2.21-2.94c0-.19,0-.3.07-.5A6.71,6.71,0,0,0,89,93.11c.24,0,.32-.09.56-.06a5.21,5.21,0,0,1,.86,1.16A39.79,39.79,0,0,1,94.26,98c0,.15-.05.26-.07.4s-.09.09-.19.09a13.89,13.89,0,0,1-1.7,2.13C91.71,101.69,90.75,102.36,90.23,103.46Zm10.87-5c-.07,0-.09.09-.19.09a13.88,13.88,0,0,1-1.7,2.13c-.6,1-1.55,1.7-2.08,2.81-.42.31-.86.59-1.28.89-.45-.08-.55-.52-1.08-.35v-.28a4.07,4.07,0,0,1-.52-.59c-.15-.19-.45-.41-.46-.66s.56-.82.82-1.11a9.41,9.41,0,0,1,.85-1c.4-.7,1-1.24,1.35-1.94a21,21,0,0,1-2.21-2.94c0-.19,0-.3.07-.5a6.71,6.71,0,0,0,1.26-1.82c.24,0,.32-.09.56-.06a5.21,5.21,0,0,1,.86,1.16,39.79,39.79,0,0,1,3.82,3.83C101.16,98.25,101.12,98.36,101.1,98.5Zm.44-8.31-5,0,.26-27,5,0Z"/><path class="cls-2" d="M92.51,99c-.64.47-1.39.82-2,1.28-.09,0-.11.09-.25.06-.2.33-.72.45-1,.67a2,2,0,0,0-.6.77c1-.66,2-1.35,3.12-2,.07,0,.12,0,.22,0a2.77,2.77,0,0,0,.63-.77S92.55,98.95,92.51,99Z"/><path class="cls-2" d="M97.91,100.59c-.73.47-1.39,1-2.19,1.44-.06.22-.37.19-.41.43.86-.4,1.41-1.12,2.5-1.28.2-.27.42-.51.6-.8h-.09A.67.67,0,0,1,97.91,100.59Z"/><path class="cls-2" d="M97.34,101.58a16.06,16.06,0,0,0-1.91,1.29.74.74,0,0,0,.15.16c.64-.43,1.45-.69,1.82-1.41C97.4,101.58,97.38,101.57,97.34,101.58Z"/><path class="cls-2" d="M99.42,99c-.64.47-1.39.82-2,1.28-.09,0-.11.09-.25.06-.2.33-.72.45-1,.67a2,2,0,0,0-.6.77c1-.66,2-1.35,3.12-2,.07,0,.12,0,.22,0a2.77,2.77,0,0,0,.63-.77S99.45,99,99.42,99Z"/><path class="cls-2" d="M97.21,95.92a.68.68,0,0,0,.41-.37c0-.08-.1-.06-.19-.06a7.5,7.5,0,0,0-1,1.2A5,5,0,0,0,97.21,95.92Z"/><path class="cls-2" d="M90.93,98.22a6.23,6.23,0,0,0,1.53-1c-.29-.28-.46.25-.75.27C91.51,97.77,91.17,97.94,90.93,98.22Z"/><path class="cls-2" d="M90.78,97.63a.18.18,0,0,0-.19.25c.19.05.29-.15.41-.24l1.06-.83C91.77,96.24,91,97.45,90.78,97.63Z"/><path class="cls-2" d="M90.92,96.82c.27-.14.55-.26.66-.55C91.28,96.26,91.06,96.58,90.92,96.82Z"/><path class="cls-2" d="M90.52,99.21a22.21,22.21,0,0,0,2-1.32c.12-.08.3-.09.35-.28-.24-.27-.9.43-1.09.58C91.31,98.49,90.77,98.7,90.52,99.21Z"/><path class="cls-2" d="M37.68,95.17c.25.24.54.42.65.57.39-.31-.15-.45-.33-.75s0-.15-.21-.25-.21-.28-.31-.31C37,94.54,37.45,94.94,37.68,95.17Z"/><path class="cls-2" d="M90.23,97.5a1.93,1.93,0,0,0,.63-.58A1,1,0,0,0,90.23,97.5Z"/><path class="cls-2" d="M89.82,94.61c-.08,0-.06-.14-.19-.13-.27.37-.7.59-.88,1A3.41,3.41,0,0,0,89.82,94.61Z"/><path class="cls-2" d="M90.44,101.51a16.05,16.05,0,0,0-1.91,1.29.74.74,0,0,0,.15.16c.64-.43,1.45-.69,1.82-1.41C90.49,101.52,90.47,101.5,90.44,101.51Z"/><path class="cls-2" d="M91,95.8c-.27.11-.34.33-.57.55s-.72.49-.53.77A16.61,16.61,0,0,0,91.2,96,.22.22,0,0,0,91,95.8Z"/><path class="cls-2" d="M89.18,103.05c0,.07-.16,0-.16.15s0,.15.12.16S89.3,103.09,89.18,103.05Z"/><path class="cls-2" d="M91,100.52c-.73.47-1.39,1-2.19,1.44-.06.22-.37.19-.41.43.86-.4,1.41-1.12,2.5-1.28.2-.27.42-.51.6-.8h-.09A.67.67,0,0,1,91,100.52Z"/><path class="cls-2" d="M90.3,95.85a.68.68,0,0,0,.41-.37c0-.08-.1-.06-.19-.06a7.5,7.5,0,0,0-1,1.2A5,5,0,0,0,90.3,95.85Z"/><path class="cls-2" d="M90.06,94.92c-.1,0-.16.22-.31.31s-.12.09-.22.25-.73.43-.35.74c.11-.14.41-.32.66-.55S90.51,95.05,90.06,94.92Z"/><rect class="cls-3" x="56.08" y="31.87" width="4.99" height="5.04" transform="translate(23.62 92.63) rotate(-89.45)"/><rect class="cls-3" x="88.81" y="85.13" width="4.99" height="5.11" transform="translate(2.75 178.15) rotate(-89.45)"/><rect class="cls-4" x="103.98" y="11.51" width="4.39" height="1.42" transform="translate(28.61 85.75) rotate(-50.03)"/><path class="cls-4" d="M111.39,14c1.64,1.59.73,2.77-.74,4.29l-3.29,3.4-1-1L109.93,17c.86-.89,1.48-1.52.72-2.25l-.34-.33-5,5.2-1.78-1.72.76-.78.78.76,4.27-4.42-.39-.37.76-.78Z"/><path class="cls-4" d="M114.81,17.57c1.45,1.66.6,2.65-1,4l-3.71,3.24-.92-1L113,20.46c.92-.8,1.53-1.52.9-2.24L113,17.15l.82-.72Z"/><rect class="cls-4" x="113.61" y="21.49" width="4.39" height="1.42" transform="translate(11.27 76.75) rotate(-38.41)"/><path class="cls-4" d="M112.82,26.57l1.56,2.23,4.13-6.73.85,1.21-2.24,3.63c.26.31.45.4,1.17-.1l2.38-1.66.8,1.14-2.09,1.46c-1.22.85-2,.85-2.8,0l-2,3.28-2.68-3.83Z"/><rect class="cls-4" x="118.38" y="28.46" width="4.39" height="1.42" transform="translate(2.04 65.75) rotate(-30.75)"/><text class="cls-5" transform="translate(115.8 32.92) rotate(60.62)"> </text><path class="cls-4" d="M121.56,38.29c-1.67.81-2.88.47-3.77-1.37l-.62-1.27,7.21-4.22.61,1.27-6.26,3.68.08.17c.48,1,1,1,2.36.39L125,35.11l-.34-.7,1-.48.95,2Z"/><rect class="cls-4" x="119.33" y="38.89" width="8.33" height="1.38" transform="translate(-5.9 48.25) rotate(-21.61)"/><path class="cls-4" d="M130,45.82l-4.31,1.35c-2.9.91-4-.07-4.55-1.79L120.39,43l7.76-3.11.41,1.32-6.75,2.68.27.87c.32,1,.78,1.82,2.83,1.18l4.67-1.46Zm-5.89-.54L123.68,44l5.21-1.63.41,1.32Z"/><path class="cls-4" d="M130.67,49.12c.37,1.81-.36,2.71-2.57,3.17l-2,.41c-2.21.45-3.22-.1-3.59-1.9L122.15,49l1.07-.22.38,1.83c.14.71.54,1,2.15.72l2.18-.45c1.6-.33,1.83-.8,1.69-1.51l-.1-.48-3.17.65-.28-1.35,4.24-.87Z"/><path class="cls-4" d="M64,132.37a63.16,63.16,0,0,1-29.47-7.66A65.39,65.39,0,0,1,2.71,85.07c-10.2-35,9.31-72,43.48-82.46C63.66-2.74,83.78.24,100,10.59a.22.22,0,0,1-.24.37C83.65.68,63.67-2.29,46.31,3,12.37,13.42-7,50.17,3.13,84.95a65,65,0,0,0,31.59,39.38A62.49,62.49,0,0,0,83,129.15a64.55,64.55,0,0,0,34.5-25.71A67.33,67.33,0,0,0,128.81,62a.22.22,0,1,1,.44,0,67.77,67.77,0,0,1-11.33,41.68,65,65,0,0,1-34.74,25.88A63.42,63.42,0,0,1,64,132.37Z"/><path class="cls-4" d="M132.78,62.05c.06,0,.12,0,.13-.1s-.24-.1-.27,0,.05.11.14.1m-.32.39a.62.62,0,0,0,.13-.13c-.42-.44-.7-1-1.34-1.24,0,0,0,0,0,0a12.06,12.06,0,0,0,1.24,1.31m-1.87-1.65c.11.05-.23-.27-.18-.16.46.51.9,1.1,1.31,1.66.2,0,.19.26.4.27-.4-.61-1.06-1-1.27-1.75-.25-.13,0,0-.26-.09v.07m0,.69c0,.07.09.08.07.18.3.12,0,.21.18.42a1.69,1.69,0,0,0,.71.38c-.64-.72-.83-1.11-1.43-1.87,0-.05,0-.08,0-.16a2.39,2.39,0,0,0-.71-.41s0,0,0,0c.45.44.8,1,1.24,1.41m-2.14-1.75a18.77,18.77,0,0,1,1.84,2.1c.12,0,.17.13.31.14-.1-.2-.28-.31-.42-.48-.38-.66-1-1-1.35-1.77-.09-.05-.21-.14-.36-.06a.1.1,0,0,1,0,.07m.29.95c.28.32.5.71,1,.85a16.39,16.39,0,0,0-1.27-1.38c-.08-.08-.1-.22-.26-.23-.22.2.43.63.57.76m-.64.1a8.08,8.08,0,0,1,.72.52,4.68,4.68,0,0,0-1-1.06c-.22.24.25.32.28.53m.14,1.1a1.55,1.55,0,0,0-.55-.42.76.76,0,0,0,.55.42m.07-.42a.15.15,0,0,0,.23.12c0-.14-.15-.2-.24-.28l-.79-.72c-.46.26.63.77.8.89m-.71,0a.9.9,0,0,0-.52-.44c0,.22.3.36.52.44m-.89,0c.11.19.3.23.52.38s.47.49.7.34a13.31,13.31,0,0,0-1.07-.89c-.09,0-.15.08-.15.17m-.3.37a6.36,6.36,0,0,0,1.11.68,4,4,0,0,0-.72-.54.55.55,0,0,0-.35-.27c-.07,0,0,.08,0,.14m.25.49c-.21-.16-.57-.45-.66-.11,0,.07.2.1.29.21s.08.08.23.14.42.51.66.2c-.13-.07-.3-.28-.52-.45m-1,.24c.34.17.55.47,1,.57a2.71,2.71,0,0,0-.87-.72c0,.06-.12.06-.1.15m-1.08.3c.26-.28.44-.66.79-.88a32.44,32.44,0,0,1,3.06-3.11c.13,0,.23,0,.35,0s.09.06.09.13a11.13,11.13,0,0,1,1.85,1.13,6.43,6.43,0,0,0,2,1.07c.29.28.87.51,1.16.8,0,.34-.3.28-.51.67-.08,0,0,.18-.08.19a3.39,3.39,0,0,1-.48.43c-.15.12-.32.36-.54.39s-.74-.36-1-.52-.26,0-.49-.26c-.63-.24-1.13-.62-1.77-.86a18.2,18.2,0,0,1-2.4,1.85c-.16,0-.26,0-.43,0-.48-.33-1.14-.62-1.67-1,0-.18.07.1.08-.08"/></g></g></svg>