<svg xmlns="http://www.w3.org/2000/svg" viewBox="0 0 94.98 31.5"><defs><style>.cls-1{fill:#656668;}</style></defs><title>Asset 14</title><g id="Layer_2" data-name="Layer 2"><g id="grid_1200x950"><path class="cls-1" d="M72,1.2c.15.06.23.18.41.2a1.2,1.2,0,0,0,.29-.6c-.14-.11-.25-.25-.53-.2.08.36-.11.41-.18.61m-.41-1c.94-.6,2,.39,1.75,1.15A1.65,1.65,0,0,1,71.8,2c-.47-.17-.57-1.33-.17-1.82"/><path class="cls-1" d="M6,1.66c-.45-.28-.42.26,0,0M6,.92a.25.25,0,1,0,.47,0c-.13,0-.35-.13-.47,0M5.91.11A1,1,0,0,1,7.14,1c0,.76-1.54,1.84-2,.8A1.39,1.39,0,0,1,5.91.11"/><path class="cls-1" d="M1,1.11c0,.48.79.56.76,0C1.61.74,1.24,1,1,1.11m-.64.74C-.46-.05,2.66-.09,2.28,1.52c-.13.57-1.41.71-1.93.33"/><path class="cls-1" d="M88.33,1h-.23c-.08.4.44.3.23,0m-.59.34A.49.49,0,0,0,87.68,1h-.18c0,.22.07.32.23.34m-.88.33a1.45,1.45,0,0,1,.06-1c.34-.74,1.35-.55,1.81-.06.69,1.48-1.22,1.86-1.87,1.07"/><path class="cls-1" d="M82.95,1.48c0-.46-.13-.7-.41-.81.2.19.05.79.41.81m.53.27c-.4.72-1.73.7-1.87-.14-.31-1.83,2-2.21,1.87.14"/><path class="cls-1" d="M76.46.46c1.32-.25,1.29,1.94.11,1.88A1,1,0,0,1,76.46.46"/><path class="cls-1" d="M57.8,1.2c.15.06.23.18.41.2a1.2,1.2,0,0,0,.29-.6c-.14-.11-.25-.25-.53-.2.08.36-.11.41-.18.61m-.41-1c.94-.6,2,.39,1.75,1.15A1.65,1.65,0,0,1,57.57,2C57.1,1.83,57,.67,57.4.19"/><path class="cls-1" d="M68.71,1.48c0-.46-.13-.7-.41-.81.2.19.05.79.41.81m.53.27c-.4.72-1.73.7-1.87-.14-.31-1.83,2-2.21,1.87.14"/><path class="cls-1" d="M62.23.46c1.32-.25,1.29,1.94.11,1.88A1,1,0,0,1,62.23.46"/><path class="cls-1" d="M48.42,1.2c.15.06.23.18.41.2a1.2,1.2,0,0,0,.29-.6c-.14-.11-.25-.25-.53-.2.08.36-.11.41-.18.61M48,.19c.94-.6,2,.39,1.75,1.15A1.65,1.65,0,0,1,48.18,2C47.72,1.83,47.61.67,48,.19"/><path class="cls-1" d="M52.84.46C54.16.22,54.13,2.4,53,2.35A1,1,0,0,1,52.84.46"/><path class="cls-1" d="M56.93,29.88c.15.06.23.18.41.2a1.2,1.2,0,0,0,.29-.6c-.14-.11-.25-.25-.53-.2.08.36-.11.41-.18.61m-.41-1c.94-.6,2,.39,1.75,1.15a1.65,1.65,0,0,1-1.58.67c-.47-.17-.57-1.33-.17-1.82"/><path class="cls-1" d="M67.84,30.17c0-.46-.13-.7-.41-.81.2.19.05.79.41.81m.53.27c-.4.72-1.73.7-1.87-.14-.31-1.83,2-2.21,1.87.14"/><path class="cls-1" d="M61.35,29.15c1.32-.25,1.29,1.94.11,1.88a1,1,0,0,1-.11-1.88"/><path class="cls-1" d="M47.54,29.88c.15.06.23.18.41.2a1.2,1.2,0,0,0,.29-.6c-.14-.11-.25-.25-.53-.2.08.36-.11.41-.18.61m-.41-1c.94-.6,2,.39,1.75,1.15a1.65,1.65,0,0,1-1.58.67c-.47-.17-.57-1.33-.17-1.82"/><path class="cls-1" d="M52,29.15c1.32-.25,1.29,1.94.11,1.88A1,1,0,0,1,52,29.15"/><path class="cls-1" d="M39.47,1.2c.15.06.23.18.41.2a1.2,1.2,0,0,0,.29-.6c-.14-.11-.25-.25-.53-.2.08.36-.11.41-.18.61m-.41-1c.94-.6,2,.39,1.75,1.15A1.65,1.65,0,0,1,39.23,2c-.47-.17-.57-1.33-.17-1.82"/><path class="cls-1" d="M43.89.46C45.21.22,45.18,2.4,44,2.35A1,1,0,0,1,43.89.46"/><path class="cls-1" d="M30.08,1.2c.15.06.23.18.41.2a1.2,1.2,0,0,0,.29-.6c-.14-.11-.25-.25-.53-.2.08.36-.11.41-.18.61m-.41-1c.94-.6,2,.39,1.75,1.15A1.65,1.65,0,0,1,29.85,2c-.47-.17-.57-1.33-.17-1.82"/><path class="cls-1" d="M34.5.46c1.32-.25,1.29,1.94.11,1.88A1,1,0,0,1,34.5.46"/><path class="cls-1" d="M38.59,29.88c.15.06.23.18.41.2a1.2,1.2,0,0,0,.29-.6c-.14-.11-.25-.25-.53-.2.08.36-.11.41-.18.61m-.41-1c.94-.6,2,.39,1.75,1.15a1.65,1.65,0,0,1-1.58.67c-.47-.17-.57-1.33-.17-1.82"/><path class="cls-1" d="M43,29.15c1.32-.25,1.29,1.94.11,1.88A1,1,0,0,1,43,29.15"/><path class="cls-1" d="M29.2,29.88c.15.06.23.18.41.2a1.2,1.2,0,0,0,.29-.6c-.14-.11-.25-.25-.53-.2.08.36-.11.41-.18.61m-.41-1c.94-.6,2,.39,1.75,1.15a1.65,1.65,0,0,1-1.58.67c-.47-.17-.57-1.33-.17-1.82"/><path class="cls-1" d="M33.62,29.15c1.32-.25,1.29,1.94.11,1.88a1,1,0,0,1-.11-1.88"/><path class="cls-1" d="M21.34,1.2c.15.06.23.18.41.2A1.2,1.2,0,0,0,22,.79c-.14-.11-.25-.25-.53-.2.08.36-.11.41-.18.61m-.41-1c.94-.6,2,.39,1.75,1.15A1.65,1.65,0,0,1,21.1,2c-.47-.17-.57-1.33-.17-1.82"/><path class="cls-1" d="M25.76.46c1.32-.25,1.29,1.94.11,1.88A1,1,0,0,1,25.76.46"/><path class="cls-1" d="M12,1.2c.15.06.23.18.41.2a1.2,1.2,0,0,0,.29-.6c-.14-.11-.25-.25-.53-.2C12.21,1,12,1,12,1.2m-.41-1c.94-.6,2,.39,1.75,1.15A1.65,1.65,0,0,1,11.72,2c-.47-.17-.57-1.33-.17-1.82"/><path class="cls-1" d="M16.37.46c1.32-.25,1.29,1.94.11,1.88A1,1,0,0,1,16.37.46"/><path class="cls-1" d="M20.46,29.88c.15.06.23.18.41.2a1.2,1.2,0,0,0,.29-.6c-.14-.11-.25-.25-.53-.2.08.36-.11.41-.18.61m-.41-1c.94-.6,2,.39,1.75,1.15a1.65,1.65,0,0,1-1.58.67c-.47-.17-.57-1.33-.17-1.82"/><path class="cls-1" d="M24.88,29.15c1.32-.25,1.29,1.94.11,1.88a1,1,0,0,1-.11-1.88"/><path class="cls-1" d="M11.07,29.88c.15.06.23.18.41.2a1.2,1.2,0,0,0,.29-.6c-.14-.11-.25-.25-.53-.2.08.36-.11.41-.18.61m-.41-1c.94-.6,2,.39,1.75,1.15a1.65,1.65,0,0,1-1.58.67c-.47-.17-.57-1.33-.17-1.82"/><path class="cls-1" d="M15.49,29.15c1.32-.25,1.29,1.94.11,1.88a1,1,0,0,1-.11-1.88"/><path class="cls-1" d="M72,30.35c.15.06.23.18.41.2a1.2,1.2,0,0,0,.29-.6c-.14-.11-.25-.25-.53-.2.08.36-.11.41-.18.61m-.41-1c.94-.6,2,.39,1.75,1.15a1.65,1.65,0,0,1-1.58.67c-.47-.17-.57-1.33-.17-1.82"/><path class="cls-1" d="M6,30.81c-.45-.28-.42.26,0,0m0-.74a.25.25,0,1,0,.47,0c-.13,0-.35-.13-.47,0m-.12-.81a1,1,0,0,1,1.23.88c0,.76-1.54,1.84-2,.8a1.39,1.39,0,0,1,.76-1.68"/><path class="cls-1" d="M1,30.27c0,.48.79.56.76,0-.15-.37-.52-.09-.76,0M.35,31c-.81-1.9,2.31-1.94,1.93-.33-.13.57-1.41.71-1.93.33"/><path class="cls-1" d="M88.33,30.11h-.23c-.08.4.44.3.23,0m-.59.34a.49.49,0,0,0-.06-.34h-.18c0,.22.07.32.23.34m-.88.33a1.45,1.45,0,0,1,.06-1c.34-.74,1.35-.55,1.81-.06.69,1.48-1.22,1.86-1.87,1.07"/><path class="cls-1" d="M82.95,30.64c0-.46-.13-.7-.41-.81.2.19.05.79.41.81m.53.27c-.4.72-1.73.7-1.87-.14-.31-1.83,2-2.21,1.87.14"/><path class="cls-1" d="M76.46,29.62c1.32-.25,1.29,1.94.11,1.88a1,1,0,0,1-.11-1.88"/><path class="cls-1" d="M1.29,8c.15-.11.31-.2.27-.47C1.18,7.41,1,7.9,1.29,8m.88-1.17c.48.78.67,1.94-.54,1.93C.88,8.74.51,8,.62,7.23c.12-.44,1-.55,1.55-.41"/><path class="cls-1" d="M1,12.49c0,.14-.12.17-.07.35.28.14.73,0,.67-.35-.14-.12-.45,0-.61,0m.27.94A.56.56,0,0,0,2.09,13a1,1,0,0,0-.81.47M.34,12.2c1.31-1.44,3.11,1.28,1.48,1.58C.86,14,.36,13,.34,12.2"/><path class="cls-1" d="M1.46,23.84c-.48,0-.56.79,0,.76.37-.15.09-.52,0-.76m-.74-.64c1.9-.81,1.94,2.31.33,1.93C.48,25,.34,23.72.72,23.19"/><path class="cls-1" d="M2,18.28A1.15,1.15,0,0,1,.86,19.57c-.58,0-1.29-1.51-.53-2a1.24,1.24,0,0,1,1.68.7"/><path class="cls-1" d="M93.44,1.28c0,.48.79.56.76,0-.15-.37-.52-.09-.76,0M92.8,2C92,.12,95.1.08,94.73,1.69c-.13.57-1.41.71-1.93.33"/><path class="cls-1" d="M93.44,30.43c0,.48.79.56.76,0-.15-.37-.52-.09-.76,0m-.64.74c-.81-1.9,2.31-1.94,1.93-.33-.13.57-1.41.71-1.93.33"/><path class="cls-1" d="M93.73,8c.15-.11.31-.2.27-.47-.38-.11-.54.38-.27.47m.88-1.17c.48.78.67,1.94-.54,1.93-.74,0-1.11-.78-1-1.52.12-.44,1-.55,1.55-.41"/><path class="cls-1" d="M93.45,12.49c0,.14-.12.17-.07.35.28.14.73,0,.67-.35-.14-.12-.45,0-.61,0m.27.94a.56.56,0,0,0,.81-.47,1,1,0,0,0-.81.47m-.94-1.23c1.31-1.44,3.11,1.28,1.48,1.58-1,.17-1.46-.77-1.48-1.58"/><path class="cls-1" d="M93.9,23.84c-.48,0-.56.79,0,.76.37-.15.09-.52,0-.76m-.74-.64c1.9-.81,1.94,2.31.33,1.93-.57-.13-.71-1.41-.33-1.93"/><path class="cls-1" d="M94.45,18.28a1.15,1.15,0,0,1-1.15,1.28c-.58,0-1.29-1.51-.53-2a1.24,1.24,0,0,1,1.68.7"/></g></g></svg>