<svg xmlns="http://www.w3.org/2000/svg" viewBox="0 0 133.9 132.37"><defs><style>.cls-1{fill:#fff;}.cls-2{fill:#53b0a1;}.cls-3{fill:#ffba20;}.cls-4,.cls-5{fill:#565759;}.cls-5{font-size:13.45px;font-family:AlmoniTzarAAA, Almoni Tzar AAA;}</style></defs><title>Asset 4</title><g id="Layer_2" data-name="Layer 2"><g id="header"><path class="cls-1" d="M91.91,27.15l11.35,16.36,9.89,31.78-6,19.36L99.3,105.32l-25.52,5.36s-24.84.56-26.7-.25-12.87-4.66-12.87-4.66-9.13-23.05-8.8-24.12,1.46-35.29,1.46-35.29,4.43-17,5.51-18S62.31,24.4,62.31,24.4Z"/><path class="cls-2" d="M65.19,11.92A54.86,54.86,0,1,0,119.52,67.3,54.85,54.85,0,0,0,65.19,11.92ZM68.72,32l7.12,13.55c1.44-.39,2.24-1.09,2.27-3.77l.09-9.69,5,0-.09,9c0,4-1.16,6.15-5.71,7.53l5.49,10.49-5.09,0L69.92,43.75c-.94.23-1.26,1-1.27,2.74L68.53,59l-5,0,.11-11.44c0-3.39.95-6.08,4.7-6.84l-4.6-8.74Zm9,31L77.6,77.18l-5.19,0,.14-14.23ZM56,38.6l5,0-.19,20.29-5,0ZM40.28,31.72l4.37,0c8,.08,8.7,4.26,8.63,11.12l-.15,16-5.09,0,.16-16.49c0-4-.44-7-3.94-7l-4,0Zm-6.75-.06,4.38,0-.55,57.88-4.38,0Zm6.5,71a4.08,4.08,0,0,1-.53.58v.28c-.53-.18-.64.26-1.09.33-.41-.31-.86-.6-1.26-.91-.5-1.12-1.45-1.8-2-2.85A13.89,13.89,0,0,1,33.46,98c-.09,0-.12-.07-.19-.1s-.05-.25-.06-.4a39.79,39.79,0,0,1,3.89-3.75A5.21,5.21,0,0,1,38,92.56c.24,0,.32.09.56.07a6.71,6.71,0,0,0,1.22,1.84c0,.2.11.31.06.5a21,21,0,0,1-2.26,2.9c.38.72.93,1.26,1.32,2a9.43,9.43,0,0,1,.83,1.06c.25.3.82.76.8,1.13S40.19,102.49,40,102.68Zm6.91.07a4.08,4.08,0,0,1-.53.58v.28c-.53-.18-.64.26-1.09.33-.41-.31-.86-.6-1.26-.91-.5-1.12-1.45-1.8-2-2.85A13.89,13.89,0,0,1,40.37,98c-.09,0-.12-.07-.19-.1s-.05-.25-.06-.4A39.79,39.79,0,0,1,44,93.77a5.21,5.21,0,0,1,.88-1.14c.24,0,.32.09.56.07a6.7,6.7,0,0,0,1.22,1.84c0,.2.11.31.06.5a21,21,0,0,1-2.26,2.9c.38.72.93,1.26,1.32,2a9.47,9.47,0,0,1,.83,1.06c.25.3.81.76.8,1.13S47.09,102.55,46.94,102.74ZM47.1,66.2l-.22,23.48-7.42-.07,0-3.54,2.38,0,.19-19.94-2,0,0-3.54,8.64.08c8.35.08,8.93,4.9,8.87,11.76l-.15,15.34-5,0,.16-16.59c0-4,.11-6.88-3.75-6.92Zm10.84,36.93c-.06.81-.19.89-.93.61l-.37-.16a20.59,20.59,0,0,0,0-5.34c-.09-.9-.21-1.79-.33-2.69-.2-1.59-.62-1.87-2.4-1.54-.09,1.2-.26,2.44-.25,3.68,0,1.74.16,3.47.23,5.21,0,.89-.14,1.07-1,1.11l-1.61.05c-.06-.84.05-1,.72-1.17.9-.2.94-.2,1-1.08,0-1.16,0-2.32,0-3.48S53,96,53,94.86c0-.83,0-.82-.83-1.13-.17-.07-.29-.28-.43-.42.14-.11.25-.28.41-.33a4.8,4.8,0,0,1,4.4.63,2.33,2.33,0,0,1,.74,1.2,9.16,9.16,0,0,1,.31,1.9c.15,1.76.27,3.51.39,5.27A8.52,8.52,0,0,1,57.94,103.13Zm2.75.61a.74.74,0,0,1-.57.24c-.11,0-.26-.24-.31-.4a1.83,1.83,0,0,1-.06-.57q-.09-4.78-.17-9.56a3.14,3.14,0,0,1,.12-.61c1,0,1.13.09,1.16.95,0,1.42,0,2.83,0,4.25s-.08,2.89-.1,4.34c0,.22.12.44.11.66A1.4,1.4,0,0,1,60.69,103.74Zm2.95,2.78a1,1,0,0,1-.14.33c-.78-.15-.8-.16-.82-.9q-.07-2.7-.12-5.4c0-.86,0-1.73,0-2.59,0-.38.05-.76.09-1.2l1-.09a1.9,1.9,0,0,1,.16.51Q63.72,101.84,63.64,106.52Zm4.18-6.28c0,.58,0,1.16-.06,1.74a2,2,0,0,1-2.2,2s-.06,0-.16-.08a.61.61,0,0,1,.43-.84A1.82,1.82,0,0,0,67.18,101c0-1.9,0-3.8,0-5.7,0-.38-.06-.76-.1-1.26l-4.45-.23a3.15,3.15,0,0,1,0-.46,1.06,1.06,0,0,1,.11-.26,22.72,22.72,0,0,1,5.5.33C68.12,95.69,68,98,67.82,100.23Zm1.81-17.31c0,4.84-1.6,7-6.5,6.9l-3.82,0,0-3.54,2.23,0c3,0,3-1.44,3-4.3l.15-15.61-3.46,0,0-3.54,8.52.08Zm5.46,18.26a11.26,11.26,0,0,1-.12,1.25A1.62,1.62,0,0,1,73.38,104c-.83.09-1.66.15-2.5.19a5.54,5.54,0,0,1-.82-.08c.15-.88.19-.89.8-1s1.46-.19,2.18-.32a1.42,1.42,0,0,0,1.2-1.22,2.54,2.54,0,0,0,.1-.57c0-1.83-.09-3.66-.18-5.49a1.13,1.13,0,0,0-1.08-1.15c-.63-.08-1.22-.44-2-.18a12.5,12.5,0,0,0,.29,4.38c-.91.52-1.22.39-1.24-.46q-.05-2-.1-4c0-1,0-1,1-1s1.73.17,2.59.24A1.39,1.39,0,0,1,75,94.66a11.36,11.36,0,0,1,.2,1.9C75.18,98.1,75.14,99.64,75.09,101.18ZM77,104.6a11.08,11.08,0,0,1-.21-1.35c0-1.66-.06-3.33-.1-5,0-.64.12-.73,1.05-.66.09.94.2,1.89.27,2.84s.12,2.11.15,3.17C78.2,104.43,78.11,104.51,77,104.6Zm5.6-.55c-.84-.23-.86-.23-.91-1-.12-2-.22-4-.33-6A8.63,8.63,0,0,0,81.31,96c-.15-.81-.51-1.48-1.43-1.6s-1.59-.18-2.39-.23c-.43,0-.84,0-1.06-.49A1.13,1.13,0,0,1,77.51,93c1.09,0,2.18,0,3.28,0a1.39,1.39,0,0,1,1.35,1.18,13,13,0,0,1,.4,2c.19,2.12.31,4.24.5,6.36A1.86,1.86,0,0,1,82.6,104ZM79.76,66.51l0-3.54,5.55.05c8,.08,8.7,4.26,8.63,11.12l-.09,9.18-5.09,0,.09-9.69c0-4-.44-7-3.94-7Zm10.47,37c-.41.31-.86.59-1.28.89-.45-.08-.55-.52-1.08-.35v-.28a4.07,4.07,0,0,1-.52-.59c-.15-.19-.45-.41-.46-.66s.56-.82.82-1.11a9.45,9.45,0,0,1,.85-1c.4-.7,1-1.24,1.35-1.94a21,21,0,0,1-2.21-2.94c0-.19,0-.3.07-.5A6.71,6.71,0,0,0,89,93.11c.24,0,.32-.09.56-.06a5.21,5.21,0,0,1,.86,1.16A39.79,39.79,0,0,1,94.26,98c0,.15-.05.26-.07.4s-.09.09-.19.09a13.89,13.89,0,0,1-1.7,2.13C91.71,101.69,90.75,102.36,90.23,103.46Zm10.87-5c-.07,0-.09.09-.19.09a13.88,13.88,0,0,1-1.7,2.13c-.6,1-1.55,1.7-2.08,2.81-.42.31-.86.59-1.28.89-.45-.08-.55-.52-1.08-.35v-.28a4.07,4.07,0,0,1-.52-.59c-.15-.19-.45-.41-.46-.66s.56-.82.82-1.11a9.41,9.41,0,0,1,.85-1c.4-.7,1-1.24,1.35-1.94a21,21,0,0,1-2.21-2.94c0-.19,0-.3.07-.5a6.71,6.71,0,0,0,1.26-1.82c.24,0,.32-.09.56-.06a5.21,5.21,0,0,1,.86,1.16,39.79,39.79,0,0,1,3.82,3.83C101.16,98.25,101.12,98.36,101.1,98.5Zm.44-8.31-5,0,.26-27,5,0Z"/><rect class="cls-3" x="56.08" y="31.87" width="4.99" height="5.04" transform="translate(23.62 92.63) rotate(-89.45)"/><rect class="cls-4" x="103.98" y="11.51" width="4.39" height="1.42" transform="translate(28.61 85.75) rotate(-50.03)"/><path class="cls-4" d="M111.39,14c1.64,1.59.73,2.77-.74,4.29l-3.29,3.4-1-1L109.93,17c.86-.89,1.48-1.52.72-2.25l-.34-.33-5,5.2-1.78-1.72.76-.78.78.76,4.27-4.42-.39-.37.76-.78Z"/><path class="cls-4" d="M114.81,17.57c1.45,1.66.6,2.65-1,4l-3.71,3.24-.92-1L113,20.46c.92-.8,1.53-1.52.9-2.24L113,17.15l.82-.72Z"/><rect class="cls-4" x="113.61" y="21.49" width="4.39" height="1.42" transform="translate(11.27 76.75) rotate(-38.41)"/><path class="cls-4" d="M112.82,26.57l1.56,2.23,4.13-6.73.85,1.21-2.24,3.63c.26.31.45.4,1.17-.1l2.38-1.66.8,1.14-2.09,1.46c-1.22.85-2,.85-2.8,0l-2,3.28-2.68-3.83Z"/><rect class="cls-4" x="118.38" y="28.46" width="4.39" height="1.42" transform="translate(2.04 65.75) rotate(-30.75)"/><text class="cls-5" transform="translate(115.8 32.92) rotate(60.62)"> </text><path class="cls-4" d="M121.56,38.29c-1.67.81-2.88.47-3.77-1.37l-.62-1.27,7.21-4.22.61,1.27-6.26,3.68.08.17c.48,1,1,1,2.36.39L125,35.11l-.34-.7,1-.48.95,2Z"/><rect class="cls-4" x="119.33" y="38.89" width="8.33" height="1.38" transform="translate(-5.9 48.25) rotate(-21.61)"/><path class="cls-4" d="M130,45.82l-4.31,1.35c-2.9.91-4-.07-4.55-1.79L120.39,43l7.76-3.11.41,1.32-6.75,2.68.27.87c.32,1,.78,1.82,2.83,1.18l4.67-1.46Zm-5.89-.54L123.68,44l5.21-1.63.41,1.32Z"/><path class="cls-4" d="M130.67,49.12c.37,1.81-.36,2.71-2.57,3.17l-2,.41c-2.21.45-3.22-.1-3.59-1.9L122.15,49l1.07-.22.38,1.83c.14.71.54,1,2.15.72l2.18-.45c1.6-.33,1.83-.8,1.69-1.51l-.1-.48-3.17.65-.28-1.35,4.24-.87Z"/><path class="cls-4" d="M64,132.37a63.16,63.16,0,0,1-29.47-7.66A65.39,65.39,0,0,1,2.71,85.07c-10.2-35,9.31-72,43.48-82.46C63.66-2.74,83.78.24,100,10.59a.22.22,0,0,1-.24.37C83.65.68,63.67-2.29,46.31,3,12.37,13.42-7,50.17,3.13,84.95a65,65,0,0,0,31.59,39.38A62.49,62.49,0,0,0,83,129.15a64.55,64.55,0,0,0,34.5-25.71A67.33,67.33,0,0,0,128.81,62a.22.22,0,1,1,.44,0,67.77,67.77,0,0,1-11.33,41.68,65,65,0,0,1-34.74,25.88A63.42,63.42,0,0,1,64,132.37Z"/><path class="cls-4" d="M132.78,62.05c.06,0,.12,0,.13-.1s-.24-.1-.27,0,.05.11.14.1m-.32.39a.62.62,0,0,0,.13-.13c-.42-.44-.7-1-1.34-1.24,0,0,0,0,0,0a12.06,12.06,0,0,0,1.24,1.31m-1.87-1.65c.11.05-.23-.27-.18-.16.46.51.9,1.1,1.31,1.66.2,0,.19.26.4.27-.4-.61-1.06-1-1.27-1.75-.25-.13,0,0-.26-.09v.07m0,.69c0,.07.09.08.07.18.3.12,0,.21.18.42a1.69,1.69,0,0,0,.71.38c-.64-.72-.83-1.11-1.43-1.87,0-.05,0-.08,0-.16a2.39,2.39,0,0,0-.71-.41s0,0,0,0c.45.44.8,1,1.24,1.41m-2.14-1.75a18.77,18.77,0,0,1,1.84,2.1c.12,0,.17.13.31.14-.1-.2-.28-.31-.42-.48-.38-.66-1-1-1.35-1.77-.09-.05-.21-.14-.36-.06a.1.1,0,0,1,0,.07m.29.95c.28.32.5.71,1,.85a16.39,16.39,0,0,0-1.27-1.38c-.08-.08-.1-.22-.26-.23-.22.2.43.63.57.76m-.64.1a8.08,8.08,0,0,1,.72.52,4.68,4.68,0,0,0-1-1.06c-.22.24.25.32.28.53m.14,1.1a1.55,1.55,0,0,0-.55-.42.76.76,0,0,0,.55.42m.07-.42a.15.15,0,0,0,.23.12c0-.14-.15-.2-.24-.28l-.79-.72c-.46.26.63.77.8.89m-.71,0a.9.9,0,0,0-.52-.44c0,.22.3.36.52.44m-.89,0c.11.19.3.23.52.38s.47.49.7.34a13.31,13.31,0,0,0-1.07-.89c-.09,0-.15.08-.15.17m-.3.37a6.36,6.36,0,0,0,1.11.68,4,4,0,0,0-.72-.54.55.55,0,0,0-.35-.27c-.07,0,0,.08,0,.14m.25.49c-.21-.16-.57-.45-.66-.11,0,.07.2.1.29.21s.08.08.23.14.42.51.66.2c-.13-.07-.3-.28-.52-.45m-1,.24c.34.17.55.47,1,.57a2.71,2.71,0,0,0-.87-.72c0,.06-.12.06-.1.15m-1.08.3c.26-.28.44-.66.79-.88a32.44,32.44,0,0,1,3.06-3.11c.13,0,.23,0,.35,0s.09.06.09.13a11.13,11.13,0,0,1,1.85,1.13,6.43,6.43,0,0,0,2,1.07c.29.28.87.51,1.16.8,0,.34-.3.28-.51.67-.08,0,0,.18-.08.19a3.39,3.39,0,0,1-.48.43c-.15.12-.32.36-.54.39s-.74-.36-1-.52-.26,0-.49-.26c-.63-.24-1.13-.62-1.77-.86a18.2,18.2,0,0,1-2.4,1.85c-.16,0-.26,0-.43,0-.48-.33-1.14-.62-1.67-1,0-.18.07.1.08-.08"/></g></g></svg>