<svg xmlns="http://www.w3.org/2000/svg" viewBox="0 0 3.1 25.11"><defs><style>.cls-1{fill:#545453;}</style></defs><title>Asset 6</title><g id="Layer_2" data-name="Layer 2"><g id="menu"><path class="cls-1" d="M1.21,9.58c.19-.14.4-.26.35-.63-.48-.15-.69.51-.35.63M2.33,8c.61,1,.86,2.6-.69,2.59-.95,0-1.42-1-1.29-2,.16-.6,1.23-.74,2-.55"/><path class="cls-1" d="M1.74,2c0-.1,0-.21,0-.31-.51-.11-.38.6,0,.31m-.43-.79a.6.6,0,0,0,.43-.08c0-.08,0-.16,0-.24-.28,0-.41.09-.43.31M.88.08A1.77,1.77,0,0,1,2.17.16c1,.46.7,1.82.08,2.43C.36,3.52-.12,1,.88.08"/><path class="cls-1" d="M.86,15.62c0,.18-.15.23-.09.47.36.18.93,0,.86-.47-.18-.15-.57-.06-.77,0m.34,1.26a.72.72,0,0,0,1-.63,1.3,1.3,0,0,0-1,.63M0,15.22c1.67-1.94,4,1.72,1.89,2.12C.66,17.58,0,16.32,0,15.22"/><path class="cls-1" d="M3.07,23.39A1.52,1.52,0,0,1,1.6,25.11c-.74-.06-1.65-2-.68-2.67a1.56,1.56,0,0,1,2.15.95"/></g></g></svg>