<svg xmlns="http://www.w3.org/2000/svg" viewBox="0 0 18.23 18.19"><defs><style>.cls-1{fill:#575756;}</style></defs><title>Asset 5</title><g id="Layer_2" data-name="Layer 2"><g id="menu"><path class="cls-1" d="M17.78,16.45l-.8.79,0,0a4.58,4.58,0,0,1-1.15.65,4.75,4.75,0,0,1-1.17.29c-.18,0-4.44.42-9.72-4.86C1.09,9.49-.31,6.67.06,3.59A4.78,4.78,0,0,1,.35,2.42,4.59,4.59,0,0,1,1,1.27l0,0,.79-.8a1.47,1.47,0,0,1,2.07,0L6.66,3.22a1.47,1.47,0,0,1,0,2.07l-.47.47-1,1L5.35,7A14.19,14.19,0,0,0,7.82,10.4a14.11,14.11,0,0,0,3.41,2.47l.28.16,1.42-1.42a1.47,1.47,0,0,1,2.07,0l2.81,2.82A1.47,1.47,0,0,1,17.78,16.45Z"/></g></g></svg>