<svg xmlns="http://www.w3.org/2000/svg" viewBox="0 0 42.55 43.86"><defs><style>.cls-1{fill:#fff;}</style></defs><title>Asset 25</title><g id="Layer_2" data-name="Layer 2"><g id="footer"><path class="cls-1" d="M19.32,43.86h-.17c-5.73,0-10.56-2.07-14-5.88-3.93-4.39-5.76-11-5-18.11A23.4,23.4,0,0,1,10.67,2.7,17.18,17.18,0,0,1,26,1.1a16.05,16.05,0,0,0,1.59.44c1.37.33,2.92.71,3.62,1.44C38.91,6.51,42.1,15.66,42.51,23.05h0a17.9,17.9,0,0,1-4.88,13.68C33.38,41.2,26.54,43.86,19.32,43.86ZM19.87.63A16.75,16.75,0,0,0,11,3.26,22.73,22.73,0,0,0,.81,19.94c-.73,6.93,1,13.35,4.85,17.6,3.29,3.67,8,5.63,13.49,5.66h.17c7,0,13.7-2.58,17.84-6.93a17.26,17.26,0,0,0,4.7-13.19h0c-.4-7.22-3.5-16.15-11-19.55l-.11-.08c-.53-.61-2.08-1-3.33-1.29a16.4,16.4,0,0,1-1.66-.46A16.93,16.93,0,0,0,19.87.63Z"/><path class="cls-1" d="M27.1,21.93H23.29V35.52H17.64V21.93H15v-4.8h2.69V14c0-2.22,1.06-5.7,5.7-5.7l4.18,0V13h-3a1.15,1.15,0,0,0-1.2,1.31v2.82h4.31Z"/></g></g></svg>