<svg xmlns="http://www.w3.org/2000/svg" viewBox="0 0 64.23 66.26"><defs><style>.cls-1{fill:#fff;}.cls-2{fill:#666665;}</style></defs><title>Asset 12</title><g id="Layer_2" data-name="Layer 2"><g id="Layer_8" data-name="Layer 8"><path class="cls-1" d="M64.18,34.89C63.49,22.51,58,9.48,47,4.49c-1.34-1.54-5.8-2.06-7.86-2.81C19.67-5.5,2.19,11.52.25,30c-2,19.1,8,36.1,28.62,36.22C47.3,66.36,65.3,55.15,64.18,34.89Z"/><path class="cls-2" d="M41,33.15H35.2V54H26.54V33.15H22.43V25.78h4.12V21c0-3.41,1.62-8.74,8.74-8.74l6.41,0v7.15H37a1.76,1.76,0,0,0-1.84,2v4.33h6.6Z"/></g></g></svg>