<svg xmlns="http://www.w3.org/2000/svg" viewBox="0 0 42.55 43.86"><defs><style>.cls-1{fill:#fff;}</style></defs><title>Asset 26</title><g id="Layer_2" data-name="Layer 2"><g id="footer"><path class="cls-1" d="M19.32,43.86h-.17c-5.73,0-10.56-2.07-14-5.88-3.93-4.39-5.76-11-5-18.11A23.4,23.4,0,0,1,10.67,2.7,17.18,17.18,0,0,1,26,1.1a16.05,16.05,0,0,0,1.59.44c1.37.33,2.92.71,3.62,1.44C38.91,6.51,42.1,15.66,42.51,23.05h0a17.9,17.9,0,0,1-4.88,13.68C33.38,41.2,26.54,43.86,19.32,43.86ZM19.87.63A16.75,16.75,0,0,0,11,3.26,22.73,22.73,0,0,0,.81,19.94c-.73,6.93,1,13.35,4.85,17.6,3.29,3.67,8,5.63,13.49,5.66,7.13,0,13.84-2.55,18-6.93a17.26,17.26,0,0,0,4.7-13.19h0c-.4-7.22-3.5-16.15-11-19.55l-.11-.08c-.53-.61-2.08-1-3.33-1.29a16.4,16.4,0,0,1-1.66-.46A16.93,16.93,0,0,0,19.87.63Z"/><path class="cls-1" d="M28.83,13.32H13.71a2.58,2.58,0,0,0-2.61,2.54V30.54a2.58,2.58,0,0,0,2.61,2.54H28.83a2.58,2.58,0,0,0,2.61-2.54V15.86A2.58,2.58,0,0,0,28.83,13.32ZM25,16.4a.91.91,0,0,1,.92-.89h2.3a.91.91,0,0,1,.92.89v2.13a.91.91,0,0,1-.92.89h-2.3a.91.91,0,0,1-.92-.89Zm-3.71,2.91a4,4,0,0,1,4.09,3.85A4,4,0,0,1,21.29,27a4,4,0,0,1-4.09-3.84A4,4,0,0,1,21.29,19.31ZM29.15,30a.8.8,0,0,1-.81.78H14.17a.8.8,0,0,1-.81-.78V21.67h1.87a5.65,5.65,0,0,0-.26,1.7,6.15,6.15,0,0,0,6.32,5.95,6.15,6.15,0,0,0,6.32-5.95,5.62,5.62,0,0,0-.26-1.7h1.79Z"/></g></g></svg>