<svg xmlns="http://www.w3.org/2000/svg" viewBox="0 0 64.23 66.26"><defs><style>.cls-1{fill:#fff;}.cls-2{fill:#666665;}</style></defs><title>Asset 11</title><g id="Layer_2" data-name="Layer 2"><g id="Layer_8" data-name="Layer 8"><path class="cls-1" d="M64.18,34.89C63.49,22.51,58,9.48,47,4.49c-1.34-1.54-5.8-2.06-7.86-2.81C19.67-5.5,2.19,11.52.25,30c-2,19.1,8,36.1,28.62,36.22C47.3,66.36,65.3,55.15,64.18,34.89Z"/><path class="cls-2" d="M43.71,19.94H20.52a4,4,0,0,0-4,3.89V46.34a4,4,0,0,0,4,3.89H43.71a4,4,0,0,0,4-3.89V23.83A4,4,0,0,0,43.71,19.94Zm-5.87,4.73a1.39,1.39,0,0,1,1.4-1.37h3.52a1.39,1.39,0,0,1,1.4,1.37v3.26a1.39,1.39,0,0,1-1.4,1.36H39.24a1.39,1.39,0,0,1-1.4-1.36Zm-5.69,4.46A6.09,6.09,0,0,1,38.41,35a6.09,6.09,0,0,1-6.26,5.89A6.09,6.09,0,0,1,25.88,35,6.09,6.09,0,0,1,32.14,29.12Zm12,16.42a1.22,1.22,0,0,1-1.24,1.2H21.23A1.22,1.22,0,0,1,20,45.54V32.75h2.86a8.66,8.66,0,0,0-.4,2.6c0,5,4.34,9.12,9.7,9.12s9.7-4.08,9.7-9.12a8.62,8.62,0,0,0-.4-2.6h2.74Z"/></g></g></svg>