<svg xmlns="http://www.w3.org/2000/svg" viewBox="0 0 230.23 588.51"><defs><style>.cls-1{fill:#231f20;opacity:0.38;}.cls-2,.cls-3,.cls-4{fill:#fff;}.cls-2{fill-rule:evenodd;}.cls-3{font-size:22.14px;font-family:Heebo-Medium, Heebo;}.cls-5{fill:#febf3e;}.cls-6{fill:#4fb3a2;}</style></defs><title>Asset 1</title><g id="Layer_2" data-name="Layer 2"><g id="art"><rect class="cls-1" x="60.8" y="549.64" width="111.15" height="36.91"/><path class="cls-2" d="M124.69,502.46q-.57-3.42-2.3-4.57a3.37,3.37,0,0,0-2.68-.41,7.13,7.13,0,0,0-2.38,1.13,1.43,1.43,0,0,0-.74,1.07,2,2,0,0,0,.36,1.06c.24.39.58.76,1,.43a11.11,11.11,0,0,1,1.7-1.1,1.44,1.44,0,0,1,1.36-.09c.55.35,1,1.32,1.2,2.9a23.32,23.32,0,0,1,.22,4.82A38.3,38.3,0,0,1,122,512a58.6,58.6,0,0,1-10.52,24.33q1.14-5.46,0-8.81a1.31,1.31,0,0,0-.63-.71,1.12,1.12,0,0,0-.93-.06,1.23,1.23,0,0,0-.72.61,1.2,1.2,0,0,0-.08.94,9,9,0,0,1,.45,2.11,11,11,0,0,1-.06,2.38c-.11.86-.22,1.59-.34,2.21l-.55,2.55-.51,2.44s0,.08-.08.21l-.21.49a1.72,1.72,0,0,0,.56,2.11,1.37,1.37,0,0,0,1,.22,1,1,0,0,0,.29-.09,3.56,3.56,0,0,0,.4-.23,7.78,7.78,0,0,0,1-.6q.92-.57,3-2,5.8-3.89,7.31-4.88a1.21,1.21,0,0,0,.53-.78,1.23,1.23,0,0,0-.18-.93,1.15,1.15,0,0,0-.76-.54,1.32,1.32,0,0,0-.94.16q-1.74,1.14-6.3,4.22a60,60,0,0,0,6.74-11.86,58.21,58.21,0,0,0,3.89-13.05,42.65,42.65,0,0,0,.46-4.68A25.09,25.09,0,0,0,124.69,502.46Z"/><text class="cls-3" transform="translate(72.16 574.9)">גלול מטה</text><path class="cls-2" d="M171.67,548.34a8.41,8.41,0,0,0-1.55-.13H62.85c-3.33-.59-4.52,1.41-3.21,2.59v34.82a1.34,1.34,0,0,0,.22,2.26,1.37,1.37,0,0,0,1.58.56,6.48,6.48,0,0,0,.94.07l107.73-.4a8.86,8.86,0,0,0,1.11-.07,1.37,1.37,0,0,0,2.41-1V549.65A1.37,1.37,0,0,0,171.67,548.34ZM62.85,585.11l-.46-.06V551.61l107.73-.4c.27,0,.53,0,.77,0v34c-.24,0-.5,0-.77,0Z"/><rect class="cls-4" x="213.3" y="103.66" width="16.93" height="90.71"/><path class="cls-4" d="M204.3,171.56H187.21V139c0-13.31-1.69-23.46-13.46-23.46H156.33V103.66H175c27,0,29.34,14,29.34,37.06Z"/><path class="cls-4" d="M166.91,30.19c0,13.45-3.71,20.67-18.94,25.47l18.78,35.05H149.66L122.58,39.42c-3.14.79-4.19,3.36-4.19,9.23V90.71H101.62V52.29c0-11.37,3-20.46,15.56-23.11L101.45,0h16.69l24.35,45.28c4.84-1.36,7.5-3.72,7.5-12.73V0h16.93Z"/><path class="cls-4" d="M105.85,168V115.54H94.24V103.66h28.62V171c0,16.24-5.16,23.39-21.6,23.39H88.44V182.5h7.5c9.92,0,9.92-4.94,9.92-14.52"/><rect class="cls-4" x="75.69" y="22.57" width="16.93" height="68.13"/><path class="cls-4" d="M82.3,142.87v51.5H65.37V138.64c0-13.52.16-23.1-12.82-23.1H46.67v78.83H21.75V182.5h8v-67H23.13V103.66h29c28.05,0,30.15,16.17,30.15,39.2"/><path class="cls-4" d="M66.68,90.71H49.59V35.34c0-13.3-1.69-23.46-13.46-23.46H22.65V0H37.34c27,0,29.34,14,29.34,37.05Z"/><rect class="cls-4" width="14.72" height="194.37"/><rect class="cls-4" x="132.02" y="103.66" width="17.41" height="47.79"/><rect class="cls-5" x="75.69" width="16.93" height="16.75"/><rect class="cls-6" x="187.2" y="177.9" width="17.15" height="16.75"/><path class="cls-4" d="M89.84,204.56c3.42.08,3.81.27,3.92,3.14.18,4.75.18,9.51.16,14.27s-.17,9.72-.21,14.58c0,.73.41,1.47.38,2.2a4.7,4.7,0,0,1-.61,2.4,2.49,2.49,0,0,1-1.89.81c-.38,0-.86-.81-1.06-1.34a6.16,6.16,0,0,1-.22-1.92q-.45-16-.87-32.09a10.57,10.57,0,0,1,.4-2.05"/><path class="cls-4" d="M79.87,240.72c.9-6.09.47-12-.18-17.92-.33-3-.78-6-1.18-9-.72-5.32-2.13-6.26-8.12-5.08-.26,4-.79,8.21-.73,12.37.09,5.83.64,11.66.95,17.49.15,3-.45,3.61-3.42,3.75-1.8.09-3.6.15-5.39.22-.24-2.83.15-3.42,2.37-3.94,3-.71,3.15-.71,3.22-3.67.09-3.89-.11-7.79-.12-11.68s.11-7.78.07-11.67c0-2.78-.12-2.74-2.82-3.75-.58-.22-1-.93-1.47-1.41.45-.39.84-1,1.36-1.13a16.12,16.12,0,0,1,14.81,2,7.82,7.82,0,0,1,2.52,4,30.76,30.76,0,0,1,1.1,6.38c.56,5.89,1,11.79,1.46,17.69a28.61,28.61,0,0,1-.05,3.87c-.17,2.73-.61,3-3.12,2.07-.3-.11-.58-.25-1.25-.54"/><path class="cls-4" d="M125,242.26c.49-3,.61-3,2.66-3.23,2.45-.28,4.89-.69,7.32-1.13a4.76,4.76,0,0,0,4-4.15,8.52,8.52,0,0,0,.33-1.91c-.22-6.15-.41-12.3-.77-18.43a3.81,3.81,0,0,0-3.66-3.84c-2.11-.26-4.11-1.43-6.69-.54a42,42,0,0,0,1.11,14.69c-3.05,1.77-4.08,1.35-4.18-1.5q-.25-6.8-.47-13.59c-.11-3.43-.09-3.5,3.23-3.33,2.91.15,5.8.51,8.71.72a4.67,4.67,0,0,1,4.64,4.18,38.1,38.1,0,0,1,.72,6.38c.06,5.18,0,10.36-.14,15.53a37.89,37.89,0,0,1-.37,4.2c-.45,3.42-2,5.07-5.29,5.46-2.78.33-5.58.54-8.38.73a18.58,18.58,0,0,1-2.75-.24"/><path class="cls-4" d="M146,206.89a3.79,3.79,0,0,1,3.58-2.35c3.66-.17,7.34-.11,11,0,2.49.07,4,1.61,4.57,3.92a43.79,43.79,0,0,1,1.41,6.65c.71,7.11,1.17,14.24,1.89,21.34a6.23,6.23,0,0,1-1.41,5.06c-2.84-.74-2.9-.73-3.07-3.3-.46-6.7-.87-13.4-1.29-20.1a29,29,0,0,0-.22-3.56c-.52-2.73-1.75-5-4.84-5.34-2.67-.32-5.36-.57-8-.68-1.44-.06-2.83.07-3.57-1.63"/><path class="cls-4" d="M109.34,241.63a2.05,2.05,0,0,1,1.43-2.85c3.41-1.11,4.54-3.45,4.43-7-.2-6.37,0-12.75-.07-19.13,0-1.27-.22-2.55-.38-4.24l-15-.64a10.54,10.54,0,0,1,0-1.53,3.54,3.54,0,0,1,.36-.87c5.17-.46,16.37.06,18.49.93-.42,7.55-.86,15.18-1.26,22.81-.1,1.94,0,3.9-.14,5.83-.37,4.43-3.25,7.11-7.31,6.92-.09,0-.19-.09-.53-.28"/><path class="cls-4" d="M99.69,217.65l3.35-.34a6.4,6.4,0,0,1,.56,1.69q0,15.69-.13,31.38a3.25,3.25,0,0,1-.47,1.12c-2.63-.5-2.68-.52-2.77-3q-.32-9.07-.58-18.13c-.09-2.9-.19-5.81-.22-8.71,0-1.27.15-2.55.25-4"/><path class="cls-4" d="M148.3,243.51a37.11,37.11,0,0,1-.74-4.53c-.22-5.58-.31-11.17-.48-16.75-.07-2.14.37-2.46,3.51-2.25.34,3.15.74,6.33,1,9.52.28,3.54.46,7.09.61,10.64.12,2.79-.19,3.05-3.89,3.38"/><path class="cls-4" d="M41.66,238.45c-.07.25-.14.49-.42.52-.08-.28-.52-.91-.1-1,.1.25.52.17.52.52m1.67-1.36a2.48,2.48,0,0,1-.52.52c-2.13-1.48-4.86-2.37-6.05-4.8,0-.08.09-.12.21-.1,2.11,1.47,4.52,2.64,6.36,4.38m-9.59-8.45a2.26,2.26,0,0,0,1.35.73c2.45,1.61,4.64,3.5,7.3,4.9.19.75,1.22.65,1.35,1.46-2.87-1.37-4.69-3.79-8.34-4.38-.66-.91-1.39-1.74-2-2.71Zm3.13-.21c.32,0,.37.32.83.21.67,1.13,2.42,1.55,3.44,2.29a6.54,6.54,0,0,1,2,2.61c-3.46-2.24-6.8-4.6-10.43-6.68-.25,0-.4-.16-.73-.1a9.31,9.31,0,0,1-2.08-2.61c0-.08.09-.12.21-.1,2.13,1.59,4.63,2.81,6.78,4.38m-8.66-7.72c3.35,2.18,6.36,4.69,10.12,6.47.18.45.65.6.73,1.15a11.8,11.8,0,0,1-2.29-1.46c-3.11-1.27-5.08-3.68-8.45-4.69-.26-.34-.7-.78-.42-1.36a.48.48,0,0,0,.31-.1m4.38.84c1.54,1,3.36,1.71,4.17,3.44a74.6,74.6,0,0,1-6.67-4.49c-.4-.28-1-.32-1.15-.94.82-.92,3,1.47,3.65,2m.21-2.5c.67,1.06,1.84,1.64,2.61,2.61-1.84-.63-3.51-2.33-5.11-3.55,1-.94,1.54.85,2.5.94m5,.21a6.46,6.46,0,0,1-2.09-2,3.18,3.18,0,0,1,2.09,2m-1.88.42a.6.6,0,0,1,.63.84c-.63.17-1-.52-1.36-.84-1.13-.91-2.4-1.92-3.55-2.82,1-1.87,3.68,2.2,4.27,2.82M35.51,217c-.89-.46-1.83-.88-2.19-1.88,1,0,1.71,1.06,2.19,1.88m-.21-3.44c.91.37,1.13,1.11,1.88,1.88.9.94,2.39,1.67,1.77,2.61a55.91,55.91,0,0,1-4.38-3.86.75.75,0,0,1,.73-.63m1.56-1.25c1.15,1.36,2.56,2.45,3.44,4.07a16.73,16.73,0,0,1-2.71-2.61,2.29,2.29,0,0,1-1.36-1.25c0-.27.35-.21.62-.21m2.29.84c-.79-.76-2.23-2.07-.73-2.5.33.11.53.73,1,1s.39.3.73.83c.63,1,2.43,1.45,1.15,2.5-.37-.49-1.36-1.07-2.19-1.88m.73-4c.9,1.26,2.32,2,2.92,3.55a11.46,11.46,0,0,1-3.55-3.13c.26-.09.22-.48.63-.42m.21-4.8a17.5,17.5,0,0,0-2.92,3.86,133.65,133.65,0,0,0-12.94,12.72c0,.5.16.88.21,1.36.22.09.31.32.63.31a46.64,46.64,0,0,0,5.63,7.2c2,3.48,5.17,5.75,6.89,9.49,1.38,1.05,2.87,2,4.27,3,1.5-.26,1.87-1.72,3.65-1.15v-.94a13.67,13.67,0,0,0,1.77-2c.51-.63,1.53-1.36,1.56-2.19,0-1.23-1.87-2.76-2.71-3.75-1.13-1.33-1.8-2.71-2.82-3.55-1.32-2.37-3.19-4.18-4.48-6.57a70.45,70.45,0,0,0,7.51-9.8c.16-.63-.14-1-.21-1.67A22.5,22.5,0,0,1,42,204.56c-.79.09-1.06-.33-1.88-.21"/><path class="cls-4" d="M18.47,238.45c-.07.25-.14.49-.42.52-.08-.28-.52-.91-.1-1,.1.25.52.17.52.52m1.67-1.36a2.48,2.48,0,0,1-.52.52c-2.13-1.48-4.86-2.37-6.05-4.8,0-.08.09-.12.21-.1,2.11,1.47,4.52,2.64,6.36,4.38m-9.59-8.45a2.26,2.26,0,0,0,1.35.73c2.45,1.61,4.64,3.5,7.3,4.9.19.75,1.22.65,1.35,1.46-2.87-1.37-4.69-3.79-8.34-4.38-.66-.91-1.39-1.74-2-2.71Zm3.13-.21c.32,0,.37.32.83.21.67,1.13,2.42,1.55,3.44,2.29a6.54,6.54,0,0,1,2,2.61c-3.46-2.24-6.8-4.6-10.43-6.68-.25,0-.4-.16-.73-.1a9.31,9.31,0,0,1-2.08-2.61c0-.08.09-.12.21-.1,2.13,1.59,4.63,2.81,6.78,4.38M5,220.72c3.35,2.18,6.36,4.69,10.12,6.47.18.45.65.6.73,1.15a11.8,11.8,0,0,1-2.29-1.46c-3.11-1.27-5.08-3.68-8.45-4.69-.26-.34-.7-.78-.42-1.36a.48.48,0,0,0,.31-.1m4.38.84c1.54,1,3.36,1.71,4.17,3.44a74.6,74.6,0,0,1-6.67-4.49c-.4-.28-1-.32-1.15-.94.82-.92,3,1.47,3.65,2m.21-2.5c.67,1.06,1.84,1.64,2.61,2.61-1.84-.63-3.51-2.33-5.11-3.55,1-.94,1.54.85,2.5.94m5,.21a6.46,6.46,0,0,1-2.09-2,3.18,3.18,0,0,1,2.09,2m-1.88.42a.6.6,0,0,1,.63.84c-.63.17-1-.52-1.36-.84-1.13-.91-2.4-1.92-3.55-2.82,1-1.87,3.68,2.2,4.27,2.82M12.31,217c-.89-.46-1.83-.88-2.19-1.88,1,0,1.71,1.06,2.19,1.88m-.21-3.44c.91.37,1.13,1.11,1.88,1.88.9.94,2.39,1.67,1.77,2.61a55.91,55.91,0,0,1-4.38-3.86.74.74,0,0,1,.73-.63m1.56-1.25c1.15,1.36,2.56,2.45,3.44,4.07a16.73,16.73,0,0,1-2.71-2.61A2.29,2.29,0,0,1,13,212.48c0-.27.35-.21.62-.21m2.29.84c-.79-.76-2.23-2.07-.73-2.5.33.11.53.73,1,1s.39.3.73.83c.63,1,2.43,1.45,1.15,2.5-.37-.49-1.36-1.07-2.19-1.88m.73-4c.9,1.26,2.32,2,2.92,3.55a11.45,11.45,0,0,1-3.55-3.13c.26-.09.22-.48.63-.42m.21-4.8A17.5,17.5,0,0,0,14,208.21,133.65,133.65,0,0,0,1,220.93c0,.5.16.88.21,1.36.22.09.31.32.63.31a46.64,46.64,0,0,0,5.63,7.2c2,3.48,5.17,5.75,6.89,9.49,1.38,1.05,2.87,2,4.27,3,1.5-.26,1.87-1.72,3.65-1.15v-.94a13.67,13.67,0,0,0,1.77-2c.51-.63,1.53-1.36,1.56-2.19,0-1.23-1.87-2.76-2.71-3.75-1.13-1.33-1.8-2.71-2.81-3.55-1.32-2.37-3.19-4.18-4.48-6.57a70.45,70.45,0,0,0,7.51-9.8c.16-.63-.14-1-.21-1.67a22.53,22.53,0,0,1-4.17-6.15c-.79.09-1.06-.33-1.88-.21"/><path class="cls-4" d="M188.61,238.45c.07.25.14.49.42.52.08-.28.52-.91.1-1-.1.25-.52.17-.52.52m-1.67-1.36a2.48,2.48,0,0,0,.52.52c2.13-1.48,4.86-2.37,6.05-4.8,0-.08-.09-.12-.21-.1-2.11,1.47-4.52,2.64-6.36,4.38m9.59-8.45a2.26,2.26,0,0,1-1.35.73c-2.45,1.61-4.64,3.5-7.3,4.9-.19.75-1.22.65-1.35,1.46,2.87-1.37,4.69-3.79,8.34-4.38.66-.91,1.39-1.74,2-2.71Zm-3.13-.21c-.32,0-.37.32-.83.21-.67,1.13-2.42,1.55-3.44,2.29a6.54,6.54,0,0,0-2,2.61c3.46-2.24,6.8-4.6,10.43-6.68.25,0,.4-.16.73-.1a9.31,9.31,0,0,0,2.08-2.61c0-.08-.09-.12-.21-.1-2.13,1.59-4.63,2.81-6.78,4.38m8.66-7.72c-3.35,2.18-6.36,4.69-10.12,6.47-.18.45-.65.6-.73,1.15a11.8,11.8,0,0,0,2.29-1.46c3.11-1.27,5.08-3.68,8.45-4.69.26-.34.7-.78.42-1.36a.48.48,0,0,1-.31-.1m-4.38.84c-1.54,1-3.36,1.71-4.17,3.44a74.6,74.6,0,0,0,6.67-4.49c.4-.28,1-.32,1.15-.94-.82-.92-3,1.47-3.65,2m-.21-2.5c-.67,1.06-1.84,1.64-2.61,2.61,1.84-.63,3.51-2.33,5.11-3.55-1-.94-1.54.85-2.5.94m-5,.21a6.46,6.46,0,0,0,2.09-2,3.18,3.18,0,0,0-2.09,2m1.88.42a.6.6,0,0,0-.63.84c.63.17,1-.52,1.36-.84,1.13-.91,2.4-1.92,3.55-2.82-1-1.87-3.68,2.2-4.27,2.82m.42-2.71c.89-.46,1.83-.88,2.19-1.88-1,0-1.71,1.06-2.19,1.88m.21-3.44c-.91.37-1.13,1.11-1.88,1.88-.9.94-2.39,1.67-1.77,2.61a55.91,55.91,0,0,0,4.38-3.86.75.75,0,0,0-.73-.63m-1.56-1.25c-1.15,1.36-2.56,2.45-3.44,4.07a16.73,16.73,0,0,0,2.71-2.61,2.29,2.29,0,0,0,1.36-1.25c0-.27-.35-.21-.62-.21m-2.29.84c.79-.76,2.23-2.07.73-2.5-.33.11-.53.73-1,1s-.39.3-.73.83c-.63,1-2.43,1.45-1.15,2.5.37-.49,1.36-1.07,2.19-1.88m-.73-4c-.9,1.26-2.32,2-2.92,3.55a11.46,11.46,0,0,0,3.55-3.13c-.26-.09-.22-.48-.63-.42m-.21-4.8a17.5,17.5,0,0,1,2.92,3.86A133.65,133.65,0,0,1,206,220.93c0,.5-.16.88-.21,1.36-.22.09-.31.32-.63.31a46.64,46.64,0,0,1-5.63,7.2c-2,3.48-5.17,5.75-6.89,9.49-1.38,1.05-2.87,2-4.27,3-1.5-.26-1.87-1.72-3.65-1.15v-.94a13.67,13.67,0,0,1-1.77-2c-.51-.63-1.53-1.36-1.56-2.19,0-1.23,1.87-2.76,2.71-3.75,1.13-1.33,1.8-2.71,2.82-3.55,1.32-2.37,3.19-4.18,4.48-6.57a70.45,70.45,0,0,1-7.51-9.8c-.16-.63.14-1,.21-1.67a22.5,22.5,0,0,0,4.17-6.15c.79.09,1.06-.33,1.88-.21"/><path class="cls-4" d="M211.8,238.45c.07.25.14.49.42.52.08-.28.52-.91.1-1-.1.25-.52.17-.52.52m-1.67-1.36a2.48,2.48,0,0,0,.52.52c2.13-1.48,4.86-2.37,6.05-4.8,0-.08-.09-.12-.21-.1-2.11,1.47-4.52,2.64-6.36,4.38m9.59-8.45a2.26,2.26,0,0,1-1.35.73c-2.45,1.61-4.64,3.5-7.3,4.9-.19.75-1.22.65-1.35,1.46,2.87-1.37,4.69-3.79,8.34-4.38.66-.91,1.39-1.74,2-2.71Zm-3.13-.21c-.32,0-.37.32-.83.21-.67,1.13-2.42,1.55-3.44,2.29a6.54,6.54,0,0,0-2,2.61c3.46-2.24,6.8-4.6,10.43-6.68.25,0,.4-.16.73-.1a9.31,9.31,0,0,0,2.08-2.61c0-.08-.09-.12-.21-.1-2.13,1.59-4.63,2.81-6.78,4.38m8.66-7.72c-3.35,2.18-6.36,4.69-10.12,6.47-.18.45-.65.6-.73,1.15a11.8,11.8,0,0,0,2.29-1.46c3.11-1.27,5.08-3.68,8.45-4.69.26-.34.7-.78.42-1.36a.48.48,0,0,1-.31-.1m-4.38.84c-1.54,1-3.36,1.71-4.17,3.44a74.6,74.6,0,0,0,6.67-4.49c.4-.28,1-.32,1.15-.94-.82-.92-3,1.47-3.65,2m-.21-2.5c-.67,1.06-1.84,1.64-2.61,2.61,1.84-.63,3.51-2.33,5.11-3.55-1-.94-1.54.85-2.5.94m-5,.21a6.46,6.46,0,0,0,2.09-2,3.18,3.18,0,0,0-2.09,2m1.88.42a.6.6,0,0,0-.63.84c.63.17,1-.52,1.36-.84,1.13-.91,2.4-1.92,3.55-2.82-1-1.87-3.68,2.2-4.27,2.82M218,217c.89-.46,1.83-.88,2.19-1.88-1,0-1.71,1.06-2.19,1.88m.21-3.44c-.91.37-1.13,1.11-1.88,1.88-.9.94-2.39,1.67-1.77,2.61a55.91,55.91,0,0,0,4.38-3.86.74.74,0,0,0-.73-.63m-1.56-1.25c-1.15,1.36-2.56,2.45-3.44,4.07a16.79,16.79,0,0,0,2.71-2.61,2.29,2.29,0,0,0,1.35-1.25c0-.27-.35-.21-.62-.21m-2.29.84c.79-.76,2.23-2.07.73-2.5-.33.11-.53.73-1,1s-.39.3-.73.83c-.63,1-2.43,1.45-1.15,2.5.37-.49,1.36-1.07,2.19-1.88m-.73-4c-.9,1.26-2.32,2-2.92,3.55a11.45,11.45,0,0,0,3.55-3.13c-.26-.09-.22-.48-.63-.42m-.21-4.8a17.5,17.5,0,0,1,2.92,3.86,133.65,133.65,0,0,1,12.94,12.72c0,.5-.16.88-.21,1.36-.22.09-.31.32-.63.31a46.64,46.64,0,0,1-5.63,7.2c-2,3.48-5.17,5.75-6.88,9.49-1.38,1.05-2.88,2-4.28,3-1.5-.26-1.87-1.72-3.65-1.15v-.94a13.67,13.67,0,0,1-1.77-2c-.51-.63-1.53-1.36-1.56-2.19,0-1.23,1.87-2.76,2.71-3.75,1.13-1.33,1.8-2.71,2.81-3.55,1.32-2.37,3.19-4.18,4.48-6.57a70.45,70.45,0,0,1-7.51-9.8c-.16-.63.14-1,.21-1.67a22.53,22.53,0,0,0,4.17-6.15c.79.09,1.06-.33,1.88-.21"/></g></g></svg>