<svg xmlns="http://www.w3.org/2000/svg" viewBox="0 0 136.41 351.36"><defs><style>.cls-1{fill:#1d1d1b;opacity:0.38;}.cls-2,.cls-3{fill:#fff;}.cls-2{fill-rule:evenodd;}.cls-4{fill:#fbc02f;}.cls-5{fill:#52afa0;}</style></defs><title>Asset 3</title><g id="Layer_2" data-name="Layer 2"><g id="art"><rect class="cls-1" x="9.02" y="312.49" width="111.15" height="36.91"/><path class="cls-2" d="M72.91,265.32q-.57-3.42-2.3-4.57a3.37,3.37,0,0,0-2.68-.41,7.13,7.13,0,0,0-2.38,1.13,1.43,1.43,0,0,0-.74,1.07,2,2,0,0,0,.36,1.06c.24.39.58.76,1,.43a11.11,11.11,0,0,1,1.7-1.1,1.44,1.44,0,0,1,1.36-.09c.55.35,1,1.32,1.2,2.9a23.32,23.32,0,0,1,.22,4.82,38.3,38.3,0,0,1-.43,4.29,57.12,57.12,0,0,1-3.86,12.75,57.47,57.47,0,0,1-6.66,11.58q1.14-5.46,0-8.81a1.31,1.31,0,0,0-.63-.71,1.12,1.12,0,0,0-.93-.06,1.23,1.23,0,0,0-.72.61,1.2,1.2,0,0,0-.08.94,9,9,0,0,1,.45,2.11,11,11,0,0,1-.06,2.38c-.11.86-.22,1.59-.34,2.21l-.55,2.55-.51,2.44s0,.08-.08.21l-.21.49a1.72,1.72,0,0,0,.56,2.11,1.37,1.37,0,0,0,1,.22,1,1,0,0,0,.29-.09,3.56,3.56,0,0,0,.4-.23,7.78,7.78,0,0,0,1-.6q.92-.57,3-2,5.8-3.89,7.31-4.88a1.21,1.21,0,0,0,.53-.78,1.23,1.23,0,0,0-.18-.93,1.15,1.15,0,0,0-.76-.54,1.32,1.32,0,0,0-.94.16q-1.74,1.14-6.3,4.22a60,60,0,0,0,6.74-11.86,58.21,58.21,0,0,0,3.89-13.05,42.65,42.65,0,0,0,.46-4.68A25.09,25.09,0,0,0,72.91,265.32Z"/><path class="cls-2" d="M119.89,311.19a8.41,8.41,0,0,0-1.55-.13H11.07c-3.33-.59-4.52,1.41-3.21,2.59v34.82a1.34,1.34,0,0,0,.22,2.26,1.37,1.37,0,0,0,1.58.56,6.48,6.48,0,0,0,.94.07l107.73-.4a8.86,8.86,0,0,0,1.11-.07,1.37,1.37,0,0,0,2.41-1V312.5A1.37,1.37,0,0,0,119.89,311.19ZM11.07,348l-.46-.06V314.46l107.73-.4c.27,0,.53,0,.77,0v34c-.24,0-.5,0-.77,0Z"/><rect class="cls-3" x="126.38" y="61.42" width="10.03" height="53.74"/><path class="cls-3" d="M121,101.65H110.92V82.36c0-7.88-1-13.9-8-13.9H92.63v-7h11c16,0,17.39,8.31,17.39,22Z"/><path class="cls-3" d="M98.9,17.89c0,8-2.2,12.25-11.22,15.09L98.8,53.74H88.68l-16-30.39c-1.86.47-2.48,2-2.48,5.47V53.74H60.21V31c0-6.74,1.77-12.12,9.22-13.69L60.11,0H70L84.42,26.83c2.87-.81,4.44-2.2,4.44-7.54V0h10Z"/><path class="cls-3" d="M62.72,99.52V68.46H55.84v-7h17V101.3c0,9.62-3.06,13.86-12.8,13.86H52.4v-7h4.44c5.87,0,5.87-2.92,5.87-8.6"/><rect class="cls-3" x="44.84" y="13.37" width="10.03" height="40.37"/><path class="cls-3" d="M48.76,84.65v30.52h-10v-33c0-8,.1-13.69-7.59-13.69H27.65v46.71H12.89v-7h4.73V68.46H13.71v-7H30.9c16.62,0,17.86,9.58,17.86,23.23"/><path class="cls-3" d="M39.51,53.74H29.38V20.94c0-7.88-1-13.9-8-13.9h-8V0h8.7c16,0,17.39,8.31,17.39,22Z"/><rect class="cls-3" width="8.72" height="115.16"/><rect class="cls-3" x="78.22" y="61.42" width="10.32" height="28.31"/><rect class="cls-4" x="44.84" width="10.03" height="9.92"/><rect class="cls-5" x="110.91" y="105.41" width="10.16" height="9.92"/><path class="cls-3" d="M53.23,121.2c2,0,2.26.16,2.32,1.86.11,2.82.11,5.64.1,8.46s-.1,5.76-.12,8.64c0,.43.24.87.22,1.3a2.78,2.78,0,0,1-.36,1.42,1.48,1.48,0,0,1-1.12.48c-.23,0-.51-.48-.63-.8a3.65,3.65,0,0,1-.13-1.14q-.27-9.51-.51-19a6.26,6.26,0,0,1,.23-1.22"/><path class="cls-3" d="M47.32,142.63A41,41,0,0,0,47.22,132c-.2-1.78-.46-3.56-.7-5.34-.43-3.15-1.26-3.71-4.81-3-.15,2.39-.47,4.86-.43,7.33.05,3.46.38,6.91.56,10.37.09,1.78-.27,2.14-2,2.22l-3.19.13c-.14-1.68.09-2,1.4-2.33,1.78-.42,1.87-.42,1.91-2.18.05-2.31-.07-4.61-.07-6.92s.07-4.61,0-6.92c0-1.65-.07-1.62-1.67-2.22-.35-.13-.58-.55-.87-.84.27-.23.5-.56.81-.67a9.55,9.55,0,0,1,8.78,1.16,4.63,4.63,0,0,1,1.49,2.37,18.23,18.23,0,0,1,.65,3.78c.33,3.49.6,7,.87,10.48a17,17,0,0,1,0,2.29c-.1,1.62-.36,1.78-1.85,1.23-.17-.06-.34-.15-.74-.32"/><path class="cls-3" d="M74.05,143.54c.29-1.75.36-1.77,1.58-1.91,1.45-.17,2.9-.41,4.34-.67a2.82,2.82,0,0,0,2.37-2.46,5,5,0,0,0,.19-1.13c-.13-3.64-.24-7.29-.46-10.92a2.25,2.25,0,0,0-2.17-2.28c-1.25-.15-2.44-.85-4-.32a24.85,24.85,0,0,0,.66,8.71c-1.81,1-2.42.8-2.48-.89q-.15-4-.28-8.05c-.06-2-.05-2.07,1.91-2,1.72.09,3.44.3,5.16.43a2.77,2.77,0,0,1,2.75,2.48,22.58,22.58,0,0,1,.43,3.78c0,3.07,0,6.14-.08,9.2a22.45,22.45,0,0,1-.22,2.49c-.26,2-1.19,3-3.13,3.24-1.65.2-3.31.32-5,.43a11,11,0,0,1-1.63-.14"/><path class="cls-3" d="M86.53,122.58a2.25,2.25,0,0,1,2.12-1.39c2.17-.1,4.35-.07,6.52,0a2.77,2.77,0,0,1,2.71,2.32,26,26,0,0,1,.83,3.94c.42,4.21.69,8.44,1.12,12.65a3.69,3.69,0,0,1-.83,3c-1.68-.44-1.72-.43-1.82-2-.27-4-.51-7.94-.77-11.91a17.19,17.19,0,0,0-.13-2.11c-.31-1.62-1-2.94-2.87-3.16-1.58-.19-3.17-.34-4.76-.4-.85,0-1.68,0-2.12-1"/><path class="cls-3" d="M64.78,143.17a1.22,1.22,0,0,1,.85-1.69c2-.66,2.69-2,2.62-4.12-.12-3.78,0-7.56,0-11.34,0-.76-.13-1.51-.22-2.51l-8.87-.38a6.25,6.25,0,0,1,0-.91,2.1,2.1,0,0,1,.21-.51c3.06-.27,9.7,0,11,.55-.25,4.48-.51,9-.75,13.52-.06,1.15,0,2.31-.09,3.45-.22,2.63-1.93,4.21-4.33,4.1-.06,0-.11-.06-.32-.17"/><path class="cls-3" d="M59.07,129l2-.2a3.79,3.79,0,0,1,.33,1q0,9.3-.07,18.6A1.93,1.93,0,0,1,61,149c-1.56-.29-1.59-.31-1.64-1.77q-.19-5.37-.35-10.74c-.05-1.72-.11-3.44-.13-5.16,0-.75.09-1.51.15-2.39"/><path class="cls-3" d="M87.86,144.28a22,22,0,0,1-.44-2.68c-.13-3.31-.18-6.62-.29-9.93,0-1.27.22-1.46,2.08-1.33.2,1.87.44,3.75.59,5.64.17,2.1.27,4.2.36,6.3.07,1.66-.11,1.81-2.31,2"/><path class="cls-3" d="M24.68,141.28c0,.15-.08.29-.25.31,0-.17-.31-.54-.06-.62.06.15.31.1.31.31m1-.8a1.47,1.47,0,0,1-.31.31c-1.26-.88-2.88-1.41-3.58-2.84,0,0,.05-.07.12-.06a31.94,31.94,0,0,1,3.77,2.6m-5.68-5a1.34,1.34,0,0,0,.8.43c1.45,1,2.75,2.07,4.33,2.9.11.44.72.39.8.87-1.7-.81-2.78-2.25-4.94-2.6-.39-.54-.82-1-1.17-1.61Zm1.85-.12c.19,0,.22.19.49.12.4.67,1.43.92,2,1.36a3.88,3.88,0,0,1,1.17,1.54c-2.05-1.33-4-2.73-6.18-4-.15,0-.23-.1-.43-.06a5.52,5.52,0,0,1-1.24-1.55s.05-.07.12-.06c1.26.94,2.74,1.66,4,2.59m-5.13-4.57a50.5,50.5,0,0,0,6,3.83c.11.27.38.36.43.68a7,7,0,0,1-1.36-.87c-1.84-.75-3-2.18-5-2.78-.15-.2-.42-.46-.25-.8a.28.28,0,0,0,.19-.06m2.6.49c.91.59,2,1,2.47,2a44.2,44.2,0,0,1-4-2.66c-.24-.17-.6-.19-.68-.56.49-.54,1.79.87,2.16,1.17m.12-1.48c.4.63,1.09,1,1.54,1.54a12.38,12.38,0,0,1-3-2.1c.59-.56.91.5,1.48.56m3,.12a3.83,3.83,0,0,1-1.24-1.17,1.88,1.88,0,0,1,1.24,1.17m-1.11.25a.36.36,0,0,1,.37.49c-.37.1-.57-.31-.8-.49l-2.1-1.67c.6-1.11,2.18,1.3,2.53,1.67M21,128.55c-.53-.27-1.08-.52-1.3-1.11.58,0,1,.63,1.3,1.11m-.12-2c.54.22.67.66,1.11,1.11s1.42,1,1,1.54a33.13,33.13,0,0,1-2.6-2.29.44.44,0,0,1,.43-.37m.93-.74a14.91,14.91,0,0,1,2,2.41,9.91,9.91,0,0,1-1.61-1.54,1.35,1.35,0,0,1-.8-.74c0-.16.21-.12.37-.12m1.36.49c-.47-.45-1.32-1.23-.43-1.48.2.07.31.43.62.62s.23.18.43.49c.38.59,1.44.86.68,1.48-.22-.29-.8-.64-1.3-1.11m.43-2.35c.53.75,1.38,1.18,1.73,2.1a6.79,6.79,0,0,1-2.1-1.85c.15-.05.13-.28.37-.25m.12-2.84A10.37,10.37,0,0,0,22,123.36a79.19,79.19,0,0,0-7.66,7.54c0,.3.1.52.12.8.13.05.18.19.37.19a27.64,27.64,0,0,0,3.34,4.26c1.17,2.06,3.06,3.41,4.08,5.62.82.62,1.7,1.18,2.53,1.79.89-.15,1.11-1,2.16-.68v-.56A8.1,8.1,0,0,0,28,141.16c.3-.37.91-.8.93-1.3,0-.73-1.11-1.64-1.61-2.22a18.83,18.83,0,0,0-1.67-2.1c-.78-1.4-1.89-2.48-2.66-3.89a41.74,41.74,0,0,0,4.45-5.81c.09-.38-.08-.59-.12-1a13.33,13.33,0,0,1-2.47-3.65c-.47.06-.63-.19-1.11-.12"/><path class="cls-3" d="M10.94,141.28c0,.15-.08.29-.25.31,0-.17-.31-.54-.06-.62.06.15.31.1.31.31m1-.8a1.47,1.47,0,0,1-.31.31c-1.26-.88-2.88-1.41-3.58-2.84,0,0,.05-.07.12-.06a31.94,31.94,0,0,1,3.77,2.6m-5.68-5a1.34,1.34,0,0,0,.8.43c1.45,1,2.75,2.07,4.33,2.9.11.44.72.39.8.87-1.7-.81-2.78-2.25-4.94-2.6-.39-.54-.82-1-1.17-1.61Zm1.85-.12c.19,0,.22.19.49.12.4.67,1.43.92,2,1.36a3.88,3.88,0,0,1,1.17,1.54c-2.05-1.33-4-2.73-6.18-4-.15,0-.23-.1-.43-.06A5.52,5.52,0,0,1,4,132.82s.05-.07.12-.06c1.26.94,2.74,1.66,4,2.59M3,130.78a50.5,50.5,0,0,0,6,3.83c.11.27.38.36.43.68A7,7,0,0,1,8,134.42c-1.84-.75-3-2.18-5-2.78-.15-.2-.42-.46-.25-.8a.28.28,0,0,0,.19-.06m2.6.49c.91.59,2,1,2.47,2a44.2,44.2,0,0,1-4-2.66c-.24-.17-.6-.19-.68-.56.49-.54,1.79.87,2.16,1.17m.12-1.48c.4.63,1.09,1,1.54,1.54a12.38,12.38,0,0,1-3-2.1c.59-.56.91.5,1.48.56m3,.12a3.83,3.83,0,0,1-1.24-1.17,1.88,1.88,0,0,1,1.24,1.17m-1.11.25a.36.36,0,0,1,.37.49c-.37.1-.57-.31-.8-.49L5,128.49c.6-1.11,2.18,1.3,2.53,1.67m-.25-1.61c-.53-.27-1.08-.52-1.3-1.11.58,0,1,.63,1.3,1.11m-.12-2c.54.22.67.66,1.11,1.11s1.42,1,1,1.54a33.13,33.13,0,0,1-2.6-2.29.44.44,0,0,1,.43-.37m.93-.74a14.91,14.91,0,0,1,2,2.41,9.91,9.91,0,0,1-1.61-1.54,1.35,1.35,0,0,1-.8-.74c0-.16.21-.12.37-.12m1.36.49C9,125.82,8.13,125,9,124.78c.2.07.31.43.62.62s.23.18.43.49c.38.59,1.44.86.68,1.48-.22-.29-.8-.64-1.3-1.11m.43-2.35c.53.75,1.38,1.18,1.73,2.1a6.78,6.78,0,0,1-2.1-1.85c.15-.05.13-.28.37-.25m.12-2.84a10.37,10.37,0,0,0-1.73,2.29A79.19,79.19,0,0,0,.62,130.9c0,.3.1.52.12.8.13.05.18.19.37.19a27.64,27.64,0,0,0,3.34,4.26c1.17,2.06,3.06,3.41,4.08,5.62.82.62,1.7,1.18,2.53,1.79.89-.15,1.11-1,2.16-.68v-.56a8.1,8.1,0,0,0,1.05-1.17c.3-.37.91-.8.93-1.3,0-.73-1.11-1.64-1.61-2.22a18.75,18.75,0,0,0-1.67-2.1c-.78-1.4-1.89-2.48-2.66-3.89a41.74,41.74,0,0,0,4.45-5.81c.09-.38-.08-.59-.12-1a13.35,13.35,0,0,1-2.47-3.65c-.47.06-.63-.19-1.11-.12"/><path class="cls-3" d="M111.75,141.28c0,.15.08.29.25.31,0-.17.31-.54.06-.62-.06.15-.31.1-.31.31m-1-.8a1.47,1.47,0,0,0,.31.31c1.26-.88,2.88-1.41,3.58-2.84,0,0-.05-.07-.12-.06a31.94,31.94,0,0,0-3.77,2.6m5.68-5a1.34,1.34,0,0,1-.8.43c-1.45,1-2.75,2.07-4.33,2.9-.11.44-.72.39-.8.87,1.7-.81,2.78-2.25,4.94-2.6.39-.54.82-1,1.17-1.61Zm-1.85-.12c-.19,0-.22.19-.49.12-.4.67-1.43.92-2,1.36a3.88,3.88,0,0,0-1.17,1.54c2.05-1.33,4-2.73,6.18-4,.15,0,.23-.1.43-.06a5.52,5.52,0,0,0,1.24-1.55s-.05-.07-.12-.06c-1.26.94-2.74,1.66-4,2.59m5.13-4.57a50.5,50.5,0,0,1-6,3.83c-.11.27-.38.36-.43.68a7,7,0,0,0,1.36-.87c1.84-.75,3-2.18,5-2.78.15-.2.42-.46.25-.8a.28.28,0,0,1-.19-.06m-2.6.49c-.91.59-2,1-2.47,2a44.2,44.2,0,0,0,4-2.66c.24-.17.6-.19.68-.56-.49-.54-1.79.87-2.16,1.17m-.12-1.48c-.4.63-1.09,1-1.54,1.54a12.38,12.38,0,0,0,3-2.1c-.59-.56-.91.5-1.48.56m-3,.12a3.83,3.83,0,0,0,1.24-1.17,1.88,1.88,0,0,0-1.24,1.17m1.11.25a.36.36,0,0,0-.37.49c.37.1.57-.31.8-.49l2.1-1.67c-.6-1.11-2.18,1.3-2.53,1.67m.25-1.61c.53-.27,1.08-.52,1.3-1.11-.58,0-1,.63-1.3,1.11m.12-2c-.54.22-.67.66-1.11,1.11s-1.42,1-1,1.54a33.13,33.13,0,0,0,2.6-2.29.44.44,0,0,0-.43-.37m-.93-.74a14.91,14.91,0,0,0-2,2.41,9.91,9.91,0,0,0,1.61-1.54,1.35,1.35,0,0,0,.8-.74c0-.16-.21-.12-.37-.12m-1.36.49c.47-.45,1.32-1.23.43-1.48-.2.07-.31.43-.62.62s-.23.18-.43.49c-.38.59-1.44.86-.68,1.48.22-.29.8-.64,1.3-1.11m-.43-2.35c-.53.75-1.38,1.18-1.73,2.1a6.79,6.79,0,0,0,2.1-1.85c-.15-.05-.13-.28-.37-.25m-.12-2.84a10.37,10.37,0,0,1,1.73,2.29,79.18,79.18,0,0,1,7.66,7.54c0,.3-.1.52-.12.8-.13.05-.18.19-.37.19a27.64,27.64,0,0,1-3.34,4.26c-1.17,2.06-3.06,3.41-4.08,5.62-.82.62-1.7,1.18-2.53,1.79-.89-.15-1.11-1-2.16-.68v-.56a8.1,8.1,0,0,1-1.05-1.17c-.3-.37-.91-.8-.93-1.3,0-.73,1.11-1.64,1.61-2.22a18.83,18.83,0,0,1,1.67-2.1c.78-1.4,1.89-2.48,2.66-3.89a41.74,41.74,0,0,1-4.45-5.81c-.09-.38.08-.59.12-1a13.33,13.33,0,0,0,2.47-3.65c.47.06.63-.19,1.11-.12"/><path class="cls-3" d="M125.49,141.28c0,.15.08.29.25.31,0-.17.31-.54.06-.62-.06.15-.31.1-.31.31m-1-.8a1.47,1.47,0,0,0,.31.31c1.26-.88,2.88-1.41,3.58-2.84,0,0-.05-.07-.12-.06a31.94,31.94,0,0,0-3.77,2.6m5.68-5a1.34,1.34,0,0,1-.8.43c-1.45,1-2.75,2.07-4.33,2.9-.11.44-.72.39-.8.87,1.7-.81,2.78-2.25,4.94-2.6.39-.54.82-1,1.17-1.61Zm-1.85-.12c-.19,0-.22.19-.49.12-.4.67-1.43.92-2,1.36a3.88,3.88,0,0,0-1.17,1.54c2.05-1.33,4-2.73,6.18-4,.15,0,.23-.1.43-.06a5.52,5.52,0,0,0,1.24-1.55s-.05-.07-.12-.06c-1.26.94-2.74,1.66-4,2.59m5.13-4.57a50.5,50.5,0,0,1-6,3.83c-.11.27-.38.36-.43.68a7,7,0,0,0,1.36-.87c1.84-.75,3-2.18,5-2.78.15-.2.42-.46.25-.8a.28.28,0,0,1-.19-.06m-2.6.49c-.91.59-2,1-2.47,2a44.2,44.2,0,0,0,4-2.66c.24-.17.6-.19.68-.56-.49-.54-1.79.87-2.16,1.17m-.12-1.48c-.4.63-1.09,1-1.54,1.54a12.38,12.38,0,0,0,3-2.1c-.59-.56-.91.5-1.48.56m-3,.12a3.83,3.83,0,0,0,1.24-1.17,1.88,1.88,0,0,0-1.24,1.17m1.11.25a.36.36,0,0,0-.37.49c.37.1.57-.31.8-.49l2.1-1.67c-.6-1.11-2.18,1.3-2.53,1.67m.25-1.61c.53-.27,1.08-.52,1.3-1.11-.58,0-1,.63-1.3,1.11m.12-2c-.54.22-.67.66-1.11,1.11s-1.42,1-1,1.54a33.13,33.13,0,0,0,2.6-2.29.44.44,0,0,0-.43-.37m-.93-.74a14.91,14.91,0,0,0-2,2.41,10,10,0,0,0,1.61-1.54,1.35,1.35,0,0,0,.8-.74c0-.16-.21-.12-.37-.12m-1.36.49c.47-.45,1.32-1.23.43-1.48-.2.07-.31.43-.62.62s-.23.18-.43.49c-.38.59-1.44.86-.68,1.48.22-.29.8-.64,1.3-1.11m-.43-2.35c-.53.75-1.38,1.18-1.73,2.1a6.78,6.78,0,0,0,2.1-1.85c-.15-.05-.13-.28-.37-.25m-.12-2.84a10.37,10.37,0,0,1,1.73,2.29,79.18,79.18,0,0,1,7.66,7.54c0,.3-.1.52-.12.8-.13.05-.18.19-.37.19a27.64,27.64,0,0,1-3.34,4.26c-1.17,2.06-3.06,3.41-4.08,5.62-.82.62-1.7,1.18-2.53,1.79-.89-.15-1.11-1-2.16-.68v-.56a8.1,8.1,0,0,1-1.05-1.17c-.3-.37-.91-.8-.93-1.3,0-.73,1.11-1.64,1.61-2.22a18.75,18.75,0,0,1,1.67-2.1c.78-1.4,1.89-2.48,2.66-3.89a41.74,41.74,0,0,1-4.45-5.81c-.09-.38.08-.59.12-1a13.35,13.35,0,0,0,2.47-3.65c.47.06.63-.19,1.11-.12"/></g></g></svg>