<svg xmlns="http://www.w3.org/2000/svg" viewBox="0 0 30.15 17.92"><defs><style>.cls-1{fill:#fff;}</style></defs><title>Asset 17</title><g id="Layer_2" data-name="Layer 2"><g id="art"><path class="cls-1" d="M25.7,16.1c0,.12-.09.23-.26.25,0-.13-.32-.43-.06-.49.06.12.32.08.32.25m1-.64a1.41,1.41,0,0,1-.32.25c-1.32-.7-3-1.12-3.74-2.26,0,0,.05-.06.13,0a35.14,35.14,0,0,1,3.93,2.07m-5.93-4a1.56,1.56,0,0,0,.84.34c1.52.76,2.87,1.65,4.51,2.31.12.35.76.31.84.69-1.78-.65-2.9-1.79-5.16-2.07-.41-.43-.86-.82-1.22-1.28Zm1.93-.1c.2,0,.23.15.52.1.41.53,1.49.73,2.13,1.08a3.33,3.33,0,0,1,1.22,1.23c-2.14-1.06-4.2-2.17-6.44-3.15a1.38,1.38,0,0,0-.45,0,4.85,4.85,0,0,1-1.29-1.23s.05-.06.13,0c1.31.75,2.86,1.33,4.19,2.07M17.39,7.73a56.82,56.82,0,0,0,6.25,3.05c.11.21.4.28.45.54a7.87,7.87,0,0,1-1.42-.69c-1.92-.6-3.14-1.74-5.22-2.21-.16-.16-.43-.37-.26-.64a.36.36,0,0,0,.19,0m2.71.39c.95.47,2.08.81,2.58,1.62-1.47-.61-2.78-1.41-4.12-2.12-.25-.13-.63-.15-.71-.44.51-.43,1.86.69,2.26.93m.13-1.18a19.08,19.08,0,0,0,1.61,1.23,13.58,13.58,0,0,1-3.16-1.67c.61-.44,1,.4,1.55.44m3.09.1A3.75,3.75,0,0,1,22,6.11,1.83,1.83,0,0,1,23.32,7m-1.16.2c.32,0,.51.24.39.39-.39.08-.59-.24-.84-.39L19.52,5.91c.63-.88,2.27,1,2.64,1.33M21.9,6c-.55-.22-1.13-.42-1.35-.89A1.82,1.82,0,0,1,21.9,6m-.13-1.62c.56.18.7.52,1.16.89S24.41,6,24,6.46c-1-.55-1.82-1.2-2.71-1.82a.44.44,0,0,1,.45-.3m1-.59a13.41,13.41,0,0,1,2.13,1.92,9.68,9.68,0,0,1-1.67-1.23,1.33,1.33,0,0,1-.84-.59c0-.13.21-.1.39-.1m1.42.39c-.49-.36-1.38-1-.45-1.18.2.05.33.35.65.49s.24.14.45.39c.39.47,1.5.68.71,1.18-.23-.23-.84-.51-1.35-.89m.45-1.87c.55.59,1.44.94,1.8,1.67a6.84,6.84,0,0,1-2.19-1.48c.16,0,.14-.22.39-.2M24.74,0a8.92,8.92,0,0,0-1.8,1.82,76.65,76.65,0,0,0-8,6c0,.24.1.42.13.64.14,0,.19.15.39.15A24.1,24.1,0,0,0,18.94,12c1.22,1.64,3.19,2.71,4.26,4.48.85.5,1.78.94,2.64,1.43.93-.12,1.15-.81,2.26-.54v-.44a7.46,7.46,0,0,0,1.1-.93c.31-.3.95-.64,1-1,0-.58-1.15-1.3-1.68-1.77a16.54,16.54,0,0,0-1.74-1.67c-.81-1.12-2-2-2.77-3.1A36.09,36.09,0,0,0,28.6,3.8c.1-.3-.09-.47-.13-.79A11,11,0,0,1,25.9.11c-.49,0-.66-.15-1.16-.1"/><path class="cls-1" d="M10.76,16.1c0,.12-.09.23-.26.25,0-.13-.32-.43-.06-.49.06.12.32.08.32.25m1-.64a1.41,1.41,0,0,1-.32.25c-1.32-.7-3-1.12-3.74-2.26,0,0,.05-.06.13,0a35.14,35.14,0,0,1,3.93,2.07m-5.93-4a1.56,1.56,0,0,0,.84.34c1.52.76,2.87,1.65,4.51,2.31.12.35.76.31.84.69-1.78-.65-2.9-1.79-5.16-2.07-.41-.43-.86-.82-1.22-1.28Zm1.93-.1c.2,0,.23.15.52.1.41.53,1.49.73,2.13,1.08a3.33,3.33,0,0,1,1.22,1.23c-2.14-1.06-4.2-2.17-6.44-3.15a1.38,1.38,0,0,0-.45,0A4.85,4.85,0,0,1,3.48,9.36s.05-.06.13,0c1.31.75,2.86,1.33,4.19,2.07M2.45,7.73A56.82,56.82,0,0,0,8.7,10.79c.11.21.4.28.45.54a7.87,7.87,0,0,1-1.42-.69C5.81,10,4.6,8.9,2.51,8.42c-.16-.16-.43-.37-.26-.64a.36.36,0,0,0,.19,0m2.71.39c.95.47,2.08.81,2.58,1.62C6.26,9.14,5,8.34,3.61,7.64c-.25-.13-.63-.15-.71-.44.51-.43,1.86.69,2.26.93m.13-1.18A19.08,19.08,0,0,0,6.9,8.18,13.58,13.58,0,0,1,3.74,6.51c.61-.44,1,.4,1.55.44M8.38,7a3.75,3.75,0,0,1-1.29-.93A1.83,1.83,0,0,1,8.38,7m-1.16.2c.32,0,.51.24.39.39-.39.08-.59-.24-.84-.39L4.58,5.91C5.21,5,6.85,7,7.22,7.24M7,6c-.55-.22-1.13-.42-1.35-.89A1.82,1.82,0,0,1,7,6M6.83,4.34c.56.18.7.52,1.16.89S9.47,6,9.09,6.46c-1-.55-1.82-1.2-2.71-1.82a.44.44,0,0,1,.45-.3m1-.59A13.41,13.41,0,0,1,9.93,5.67,9.68,9.68,0,0,1,8.25,4.44a1.33,1.33,0,0,1-.84-.59c0-.13.21-.1.39-.1m1.42.39c-.49-.36-1.38-1-.45-1.18.2.05.33.35.65.49s.24.14.45.39c.39.47,1.5.68.71,1.18-.23-.23-.84-.51-1.35-.89m.45-1.87c.55.59,1.44.94,1.8,1.67A6.84,6.84,0,0,1,9.28,2.47c.16,0,.14-.22.39-.2M9.8,0A8.92,8.92,0,0,0,8,1.83a76.65,76.65,0,0,0-8,6c0,.24.1.42.13.64.14,0,.19.15.39.15A24.1,24.1,0,0,0,4,12c1.22,1.64,3.19,2.71,4.26,4.48.85.5,1.78.94,2.64,1.43.93-.12,1.15-.81,2.26-.54v-.44a7.46,7.46,0,0,0,1.1-.93c.31-.3.95-.64,1-1,0-.58-1.15-1.3-1.68-1.77a16.54,16.54,0,0,0-1.74-1.67c-.81-1.12-2-2-2.77-3.1A36.09,36.09,0,0,0,13.66,3.8c.1-.3-.09-.47-.13-.79A11,11,0,0,1,11,.11C10.47.15,10.3,0,9.8,0"/></g></g></svg>