<svg xmlns="http://www.w3.org/2000/svg" viewBox="0 0 285.54 254.58"><defs><style>.cls-1{font-size:57.89px;fill:#fff;font-family:Heebo-Medium, Heebo;}.cls-2{fill:#4fb3a2;fill-rule:evenodd;}</style></defs><title>Asset 1</title><g id="Layer_2" data-name="Layer 2"><g id="art"><text class="cls-1" transform="translate(-14.42 161.82)">העדוה וחלש</text></g><g id="thank_you" data-name="thank you"><path class="cls-2" d="M92.16,101.8a6.53,6.53,0,0,0-3.24-.09c-1.24.41-3.66,2.69-3.88,4.08-.69,4.13,5.3,9.51,9.81,6.53C98.85,109.67,97.31,103,92.16,101.8Z"/><path class="cls-2" d="M175.06,160.53c-1,3.74,1.39,6.44,1.34,10.18-2.19,0-3-1.46-4.53-2.21-1.72.66-1.86,3.15-2.57,5-3.08-.15-3.22-3.39-6.39-3.45,2.83,2.48,4.15,8,8.71,7.69.63-2.06-.23-4.29,1.76-5,1.91.41,2.66,2,5.35,1.63,1.18-4.84-2.22-7.32-1.55-12.56C176.39,161.44,176.43,160.24,175.06,160.53Z"/><path class="cls-2" d="M138.59,202.42c1.5,2.3,1.38,4.56,2.63,7,1.38-.6,1.23-3.4,2.45-4.66,2.37.4,3.53,4,5.45,5.6,1.69-1.7,1.22-4.39,2.83-6.12-.18,3.54.19,7.34-2.58,9.68-1.84-1.49-3.19-4.27-5.15-5.46-1.74,1.55-.84,4.32-3.31,5.54C139.92,210,136,205,138.59,202.42Z"/><path class="cls-2" d="M115.95,244.37c-2.35,1.29-.82,7,0,8.65C116.77,251.77,117.62,245.25,115.95,244.37Z"/><path class="cls-2" d="M119.95,244.17c-.44,2.09-.9,6.59.85,8.37C121.9,250.77,122.55,244.67,119.95,244.17Z"/><path class="cls-2" d="M125.17,242.74c-1.55,1.14-.25,7.73,1.38,9C127.36,249.45,127,244.08,125.17,242.74Z"/><path class="cls-2" d="M163.32,245.17c-2.35,1.29-.82,7,0,8.65C164.14,252.57,165,246,163.32,245.17Z"/><path class="cls-2" d="M167.13,243.11c-.44,2.09-.9,6.59.85,8.37C170,253.23,170.19,246.49,167.13,243.11Z"/><path class="cls-2" d="M172,243.54c-1.55,1.14-.25,7.73,1.38,9C174.17,250.25,173.82,244.88,172,243.54Z"/><path class="cls-2" d="M117.77,92.34c.47,1.32,1.54,1.23,1.28,2.72,3.21,1.22,7.82,1.34,10.44,3.26,1.52,1.11,2.33,3.33,4.82,1.32,1.6-5.92,2.57-10.7,4-16.9-.38-1.95-3.64-2.55-4.57-.72C125.78,82.41,120.84,86.29,117.77,92.34Zm15.79-5c-.84.44-.77-2,0-1.49Zm-1.76,5.32a19.24,19.24,0,0,1-1.73-6.31l.81,0C130.93,88.45,133.42,90.86,131.81,92.71Zm-5.42.75c-2.48.4-2.66-5-.68-5.09C126,89.84,127,91.93,126.38,93.46Zm3.75,1.29c-2,0-1.43-2.75-1.77-4.52C129.81,90.84,129.93,92.84,130.13,94.75Z"/><path class="cls-2" d="M142.84,35.22c-.27,2.68.7,6.7,3.5,4.56,1.16-.88,1.82-2.76,2.41-4.1a3.7,3.7,0,0,1,1.21.23c.07.49-.45.88-.14,1.29-1.31,1.63-2.44,5.32-5.37,4.82s-3.67-4.21-2.81-7C142.09,35,142.64,34.94,142.84,35.22Z"/><path class="cls-2" d="M144.94,6.69c5.67,4,9.54,10.07,10.52,18.54a19.23,19.23,0,0,1,2.14,1c1.69,1.79.34,4.51-.95,5.43-.6.43-1.42.47-1.35,1.06.1.85,2.86,1.34,3.76,1.59a17.58,17.58,0,0,1,3.85,1.39c-.75,2.15-3.59,2.25-5.22,3.53,1.15,1.37,3.29,1.72,5,2.52.06.63-.33.82-.23,1.48a10.87,10.87,0,0,0-4.23,1.28c-.7.39-1.14,1-2,0-.38,2.4-.45,4.61-.9,6.63a10.73,10.73,0,0,1-3.8,6.35c-.48.39-.79,1-1.23,1.36-1.85,1.62-4.31,2.14-6.74,3.1-.95,1.38-1.26,3.8-1,6-.44.24-.55.79-.74,1.27-2.19-.64-.1-4.92-.21-6.75-2.84,0-6,.49-9.07.16-.58,1.17-.42,6.8-.6,8.15-.08.34.72.3.42.51.27,1.11-.82,1.57-1.19,2.35-1.34-.44-1-6.19-.85-7.29a24.47,24.47,0,0,0,.43-3.66c-1.63-.75-3.36-.83-4.95-1.32-6.4-2-10.72-6.2-10.92-14.19A14,14,0,0,1,115,44c.15-.64.66-1.09.71-2,.08-1.45-.71-3.09-.62-4.78a8.73,8.73,0,0,1,1.21-4c2.47.09,2.36,2.81,3.2,4.55a28.82,28.82,0,0,1,1.79-4.52c1-1.58,2.38-.38,2.84,1.07.54,3-.39,5.37,0,8.24a26.59,26.59,0,0,0,6.92.78c.28-2.31.59-4.63,1-7,.34-2.08.22-4.48.71-6.34-.7-1-2.77-1.1-3-2.46a7.12,7.12,0,0,1,.88-2.56c.69-.75,1.85-.35,3-.22.52-.35.23-1.48.71-1.87.69-6.67,2.56-12.19,5.84-16.32-1.2-.88-2.77-2.54-1.7-4.41s4.7-2.89,7.11-1.6S146.82,5.49,144.94,6.69Zm-5.35-3.62c-1.19,1.7,3,3,4,2.89s2.93-2.45,1.52-3.83a4.4,4.4,0,0,0-2.61-.47A3.68,3.68,0,0,0,139.59,3.07Zm2,4.62c-1.7.83-3,4.07-3.63,5.76,1.89-.9,4.1-1.5,5-3.34.86-.14,1.2-.79,1.53-1.45C143.61,8.28,142.52,7.24,141.59,7.69Zm4.83,3.11c.17-.05.59.14.59-.08-.16-.12-.22-.33-.51-.31C146.48,10.54,146.37,10.59,146.42,10.8Zm1.5,2.22c.1-.28.42-.35.47-.68a.59.59,0,0,0-.62-.51C147.73,12.06,147.49,13,147.91,13Zm1.81,6.9c.25-.3.31-.73.55-1,.45-.46,1.4-.68,1.43-1.35s-.82-1.58-1.2-2.22a9.81,9.81,0,0,0-1.39-2,47.57,47.57,0,0,1-13.21,7.79,21.21,21.21,0,0,0-.64,3.56,38.29,38.29,0,0,0,8.21.62C145.14,23.82,148,22,149.72,19.92ZM143,16.46c-.33-.2,0-.46-.33-.6a5.17,5.17,0,0,0-.05,1A5,5,0,0,0,145.31,15c-.51-.39-.73.39-1.19.07,0-.2,0-.4,0-.6C143.45,14.89,144.13,16.57,143,16.46Zm-1.25,1.06a8.54,8.54,0,0,0-.09-2C141.66,16.18,140.72,17.32,141.74,17.52Zm10.48,2.26c.32-.1.16-.73.05-1H152C152,19.13,151.86,19.73,152.21,19.79Zm-16.15.27c.25,0,.48,0,.6-.08s0-.37-.22-.4C136.34,19.75,135.92,19.62,136.07,20.05Zm16.68,4.81c.22-.87.71-2.46.14-3.47A5.92,5.92,0,0,0,152.74,24.86Zm-7.67.29a.93.93,0,0,0,.9.12C146.45,23.85,145.43,24.48,145.07,25.16Zm1.8,0h.4l0-.7C146.82,24.46,147,25,146.87,25.2Zm1.28,1.72c-4.61,0-8.46.17-12.5-.63-.31-.1-.34-.49-.72-.52,0-.17-.13,0-.3,0-.43,0-.35.49-.78.48A5.13,5.13,0,0,0,132,26a5.52,5.52,0,0,0-.55,1c3.46,3.25,10.56,4.46,17,4.62,3.55.09,6.7-.37,8.38-2.06a2.32,2.32,0,0,0-1.64-3.12c-.36.22-.22.92-.65,1.07C153,26.61,150.64,26.92,148.15,26.92Zm-13.89,3.9c-.33,3.63-.82,7.12-1.32,10.58-1.09.62.24,1.93.31,2.39a1.22,1.22,0,0,1-.64,1.27c-5.06-.21-10.34-1.5-15.36-2.3a3.88,3.88,0,0,0-.6,2.17c.76,0,1.22-1,1.78-.35-.24,1.25-2.31.72-1.87,2.63.94.11,1.88-1.94,2.94-1.11-.56,1.49-3.62,1.29-2.73,3.6,1.19-.37,1.64-2.43,3.1-1.9-.41,1.2-1.88,1.45-2.58,2.41-.15.21-.13.69-.36.88.21.49.37,1,.57,1.5,1.24-.66,1.13-3.13,3-2.9-.74,1.46-2.11,2.31-2.4,4.21.29.29.34.84.84.92.84-1,1.1-2.54,2.35-3.11.21,1.81-3.47,3.79-.56,5.15.86-.87.82-2.62,1.95-3.22.39,1.3-.85,2.56-1.23,3.74a3.43,3.43,0,0,0,1.54.94c.83-.74.64-3,2-2.93.19,1.28-.94,2-1,3.35.26.36.79.44,1.22.63,1.18-.69.8-2.89,2.24-3.32.57,1.35-1,2.16-1,3.55a5.1,5.1,0,0,0,1.53.73c.6-.84.15-2.7,1.15-3.15,1,.75-.28,2.16-.15,3.27a2.37,2.37,0,0,0,1.61.24c.61-.89.28-2.71,1.46-3,.57,1.08-.49,2.08-.45,3.27.6.28,1,.11,1.8.14.2-1-.25-3,1-2.75.43.89-.38,2.1.13,2.78.55.23,1.15-.08,1.9.05.23-1,.13-2.41.65-3.16-1.39-.53-1.81-2.49-2-3.92-1.77.89-4.76,1.34-5.71-.65-1.49-3.1,2.38-5.46,5-5.82a2.29,2.29,0,0,1,1.91.25,1,1,0,0,1-.26.89c-1.95.24-5.58,1.09-5.44,3.33.07,1,1.08,1.74,2.66,1.36.24-.45.56-.17,1-.37,1.25-.6,1.86-2.5,2.93-1.31-.49,1.4-.93,4.58.82,4.89.89.15,1.71-.61,2.15-1a8,8,0,0,0,1.22-1.76c.52-1.15,0-2.78,1.48-2.54,0,.08.09.12.2.1.58,1.69,1.36,4.69,3.48,4.26,1.53-.31,3.3-3.65,2.13-5.9-.48-.31-1.16-.42-1.34-1,.65-.93,2.06-.15,2.51.46,1.75,2.32-.77,6.11-1.76,7.3.12.53.23,1.08.37,1.6A3,3,0,0,0,150,56.85a17.69,17.69,0,0,1-.68-1.71.82.82,0,0,1,1-.37c.14.41.3.81.45,1.2a1.15,1.15,0,0,0,1-.87c0-.53-.45-.65-.36-1.3.17-.09.28-.23.49-.29.43,0,.41.55.83.62,3-4.45,2.05-14.39,1-21.11A47.33,47.33,0,0,1,134.26,30.82Zm-12.72,5.32c.23-.4.69-.9,1.27-.66-.1-.46,0-1.09-.45-1.2A3.35,3.35,0,0,0,121.54,36.14Zm36,1.45a3.81,3.81,0,0,0,1.76-.85C158.51,36.86,157.79,37,157.51,37.59ZM120.78,39.2c1.09-.52,1-2.14,2.28-2.52-.14-.17,0-.63-.33-.6C122.1,37.13,120.53,37.28,120.78,39.2Zm-4.22-.61c.44-.5,1.62-1.44.9-2.16C117.12,37,115.93,37.71,116.56,38.59Zm39.38-.34c.42-.41,1-.28,1.27-.66C156.78,37.76,155.73,37.75,155.94,38.25Zm-39.09,2.24a1.09,1.09,0,0,0,.43.71c.17-.33.82-1,.23-1.48C117.22,39.9,117.09,40.25,116.85,40.48Zm5.39,0c.43.2.74-.52.27-.59C122.48,40.2,122.22,40.23,122.24,40.53ZM120.61,42c.2.18.66.09,1,.13a3.52,3.52,0,0,0,.35-1.18C121.49,40.88,120.91,41.54,120.61,42Zm37.42.5A1.29,1.29,0,0,0,159.1,42a1.31,1.31,0,0,0-.91-.22C158.31,42.18,157.91,42.07,158,42.47Zm-39.94-1c.19,0,.23.12.4.11s.15-.68-.23-.6C118.23,41.21,118,41.19,118.09,41.51Zm24.13,13c-1.13,1.64-2.21,3.35-4.72,3.64,0,.81-.19,1.71-.17,2.78a2,2,0,0,0,1.19-.17c.22-.8-.4-2.41.59-2.47.79.42.15,1.56.31,2.49a4.73,4.73,0,0,0,2.18-.24c.18-.88-.48-3,.86-3,.4.8-.15,1.92.22,2.69a7.9,7.9,0,0,0,1.88-.45c-.14-1-.39-2.45.16-3.07C143.54,56.41,143.09,55.27,142.22,54.56Zm3.31,4.85c1.44.06,2.35-.78,1.39-2.25l-1.6,0A10.75,10.75,0,0,0,145.53,59.41Z"/><path class="cls-2" d="M232.86,100.9c-3.83-6.54-5-14.35-8.66-21.06a69.05,69.05,0,0,0-6.78-10.34,1.39,1.39,0,0,0-.86-1,37.74,37.74,0,0,0-4.19-4.26c-8.5-7.23-18.59-2.75-19.25,8.33-.42,7.08,3.22,14.37,7,20.14,1.28,2,4.26,4.29,4.59,6.58s-3.26,3.78-5,5c-6.76,4.77-13.46,9.61-20.26,14.32-3.22,2.23-6.78,4.62-9.17,7.81-.41-.57-.82-1.13-1.25-1.68,0-1.29.68-1.88.62-3.27-2.9-5.39-9.22-6.78-13.2-10.79-3.2-3.22-5.75-6.52-8.65-9.78-.9-.21-1.36-.89-2.68-.67,1.85-10.48,3.86-23.71.06-32.82a99.17,99.17,0,0,0-34.4,14.9A284.74,284.74,0,0,0,92.65,32.6c1.76-2,4.13-2,5.77-3.73s3.52-6,3.18-8.27c-.61-4.19-6.85-11.53-13.25-9.3-8.35,2.92-9.82,15.32-.76,18.77-.83,2-2.51,3-4.42,3.76-10.23,11.24-19,24.1-24.82,40.51-.46.89-1.83.74-2.21,1.73C56.33,80.5,54.86,83,54,86.17c-8.4-.39-18.25-1.2-26.68-1.6-5.51-.27-9.75.78-12,4.76-3.7,6.54-1.91,16.21-4.43,24.34,1.73,7.76.38,18.25,1.45,26.89.65,5.34,1.47,12.36,2.49,18.27.91,5.27,3.54,16.56,7.09,17.49,1.76.45,5-.87,7.33-1.6,1.88-.6,4.72-3,6.28-2.82,3.93.35,4.37,7.57,7.82,10.34,2.19-.38,3.46,0,4.87-.47,3.62-1.19,6-6.88,9.35-6.61,3.6.29,4.52,9.44,7.56,10,3.8.76,6.59-5.56,9.64-7.2,3.49,1.24,2.33,7.16,5.72,7.91,2.38.52,9.07-3,10.91-4.18,1.22-.76,2.22-2.09,3.3-2.6,4.43,1.57,9.72,2.23,14.3,3.63l.16.42c.19.53,1,.41,1,0,.57.2,1.14.4,1.68.64a1.62,1.62,0,0,1-.19,1.27,1.29,1.29,0,0,0-.94-.28,108.72,108.72,0,0,0-24,4.54,86.41,86.41,0,0,0-8.87,3c-3.74,1.55-7.83,4.27-11.79,1.95-5-3-8.57-7.05-14.77-3.77-4.5,2.38-7.67,7.75-7.07,12.86.7,6,5.73,10.63,9.85,14.51,3.7,3.48,6,6.4,11.13,4.25,8.28-3.47,16.4-7.17,24.84-10.3,3.65-1.35,7.34-2.62,11-4,4.5-1.75,18.76-7,24.31-8.66-1.22,9.79-3.35,16.26-8.81,24.37-4.92,1.46-8.57,6-10.54,10.59a23.69,23.69,0,0,0-2,9.91c.12,3.62,2.14,6,3.13,9.32a1.51,1.51,0,0,0,1,1.08c3.88.93,6.66-1,10.64-.65,1.58.16,3,.78,2,0,18.87.55,60.67,1.52,79.37-.84a1.3,1.3,0,0,0,.77-.35,16.67,16.67,0,0,0,5.75-3.58,1.45,1.45,0,0,0,.34-.45,44.18,44.18,0,0,0,4.15-1.75c7.11-3.62,13.62-12.55,14.38-23.48,0-.54-.3-1.43-.22-2.09.26-2,1.52-5.86-2-5.13-1.17.25-1.33,2.25-2.25,3.53a38.69,38.69,0,0,1-4.15,4.06c-2,1.81-5.15,5.38-8,5.46-4,.12-3.45-3.75-5.2-7.3-2.52-32.88-12.43-60.35-26-82.72,2-1.23,4.17-2.27,6.18-3.49a1.47,1.47,0,0,0,.58-1.93c6-3.92,12.86-7,18.63-10.81,9.88-6.55,19.56-13.4,29.94-19.15A1.52,1.52,0,0,0,232.86,100.9Zm-69.25,23.68c-.74-2.22-2.1-3.78-2.53-6.33C163.39,118.79,166.79,122.67,163.61,124.58Zm-.41,5.06c-.38,1.3-.54,2.86-1.7,3.24A2.55,2.55,0,0,1,163.21,129.64ZM159,135.2c-.14,1.31,1.43.82,1.57,1.83-.38.07-.33.64-.57.88C159,137.81,157.92,135.67,159,135.2Zm-10.87,23.28c1-.13,1.56,1.63.23,1.5C148.5,159.26,147.89,159.31,148.14,158.48Zm.85-11.61c-1.7-2.86-2.64-6.51-3.78-10,.7,0,.31-1.27,1.37-.85,1.06,1.89,1.59,4.37,2.52,6.63C149.69,144.11,151.76,146.57,149,146.87Zm-11.77,6c.35,0,.39-.38.82-.28a81,81,0,0,1,4.33,10c-.12.68-1.09.37-1.37.86.92,1.87,2.53,4.46,2,6.91-1.22-.17-1.46-1.36-1.27-3A40.44,40.44,0,0,1,137.22,152.82Zm-2.31,5.9c1.18,3.71,4.33,9.12,2.92,12C136.7,167.33,133.35,162.09,134.91,158.72Zm.76,22.09c-.25-.53-1.19-1.82-.48-2.39C135.22,179.19,136.29,180.34,135.67,180.82Zm-6.9,5.49a4.06,4.06,0,0,0,2-2.34c-.13-1.21-.88-1.77-.72-3.3.07-.22.24-.34.55-.28.3,2.1,1.77,3,2.3,4.84-1.35,1.47-2.57,3.09-3.86,4.63a1.38,1.38,0,0,0-.87-1.32A5.43,5.43,0,0,0,128.78,186.3Zm-1.2-15.55c2.26.84,3.1,4.64,3.05,6.94C128.33,176.81,126.3,173.59,127.58,170.76Zm5.32,2.83c.08-3.39-4.09-7.32-.83-9.57.81,3.72,2.75,7.05,3,10.52C134.31,174.23,133.66,173.84,132.9,173.59Zm5.18-2c1.55,0,1.88,1.31,2.64,2.16-.35,1-.65,2.12-1.68,2.34A9.25,9.25,0,0,1,138.08,171.63Zm.86-22.35c.55-.28.46-1.3,1.38-1.15.8,2.44,2.42,4,2.79,6.93C141.55,153.3,141,150.46,138.94,149.28Zm3.14-6.48c.54,0,.36-.8,1.09-.57,1.84,3.78,4.67,8,4.51,12.94-2.11-.14-1.77-2.82-2.31-4.24C144.37,148.3,142.31,145.88,142.08,142.81Zm8.19,6.78c.48,1.63,1.29,2.9,1.77,4.53C150.89,153.37,150.06,150.77,150.26,149.58Zm.59-11.91c1.24,1.11,1.58,3.17,2.3,4.84A8.92,8.92,0,0,1,150.85,137.67Zm.57-11.33c.92,2.66,3,5.51,2.75,8.43C153.05,132.5,150.56,128.77,151.42,126.34Zm.32-11.92c-.27-.79-.95-1.14-1-2.12C151.57,112.42,152.75,114.13,151.74,114.42ZM96.26,49.1c.18,1.35,1,2,1,3.61-.75.64-1.31-.77-2.13-1A18.32,18.32,0,0,0,96.26,49.1Zm-3.71-2.78a4,4,0,0,0-.87,2.06,16.94,16.94,0,0,1-1.12-8.68C91.62,41.5,91.8,44.2,92.55,46.33ZM91.49,15.27c3.5.35,6.19,2.2,6.6,5.54a6,6,0,0,1-5.58,7C83.9,28.51,81.65,14.27,91.49,15.27ZM87.36,38.43a20.34,20.34,0,0,1,.71,3.9C87.2,41.38,86.64,39.07,87.36,38.43Zm-4.7,4C87.5,48.33,91.54,55,99.26,57.84A150.9,150.9,0,0,1,106,78.6c-2.26-.07-2.79-2-5.36-1.33C91,69.73,82.12,61.51,76,50.36A22.09,22.09,0,0,1,82.66,42.48ZM102,85.65c0-.49-.82-2.2.33-2.08C102.81,84.1,102.6,85.43,102,85.65Zm-2.46,1.43c.06.61.71.61.78,1.22a1.62,1.62,0,0,1-1.36.26C99,87.82,99,87.11,99.57,87.08Zm-.18-3.58c.54.5-.07,2.2.47,2.69C98.84,86.25,98.45,83.7,99.39,83.5ZM89.45,71.89c1.73,2.92,1.25,8.17,2.11,12,.07.69-.79.31-.83.87.66,1,1.14,2.28,2.36,2.74a2.61,2.61,0,0,1,1.11-1.16c-.09,1.64,2,1,2.38,2.15-4.88.1-8.77-.85-10.42-4.15,1.45.12,1.86,1.34,3.75,1C90.85,81.14,88.12,75.48,89.45,71.89ZM85.21,68.8c.34,0,.38-.37.82-.27.21.84.51,3.12-.1,3.88C86.14,70.94,85.17,70.7,85.21,68.8Zm-.77,8.93c-1.36,0-1.46-4.18-.69-4.49C84,74.75,84.77,75.63,84.43,77.73Zm-7.85-19.6a46.57,46.57,0,0,1,2.07,13.47c-1,0-1-.92-1.86-.94C77.35,66.14,75.12,61.7,76.59,58.13Zm-4,9.43c-1.37-1.85-3.34-3.07-3.62-6.06C71.11,62.51,71.9,65,72.56,67.57Zm-5.37-1c5.47,7.3,11.56,14,17.25,21-4-.62-7.43-.46-12.12-.62-2.85-4.65-7-7.91-9.09-13.37C64.69,71.4,64.85,67.7,67.19,66.54ZM67,83.83c.84,1.06,2,1.8,2.62,3.05a3.93,3.93,0,0,1-2.94-.67C66.84,85.5,66.38,84,67,83.83Zm-3.94-4,.81,0c.36,1.8,1.42,5.64.09,6.57A12.33,12.33,0,0,1,63.05,79.84Zm-2.49,2.32c.79,1.11.1,3.76,1.51,4.22-.8.33-1.83-.24-3.23-.09C59.06,84.51,59.2,82.62,60.56,82.17ZM38.77,89.65a1.6,1.6,0,0,1,1.34.34c0,.87-.64,1.09-1.11,1.45A2.77,2.77,0,0,1,38.77,89.65Zm-2.28,4.41a2.75,2.75,0,0,1,.23,1.8C35.78,96.3,35.49,93.82,36.49,94.06Zm-7.42-5a1.22,1.22,0,0,0,.82-.27c1.6,1.41,4.63,9.25,2.94,11.11-1.48-.85-1.68-3.35-2.29-5.13S28.82,90.84,29.07,89.09Zm-6.3,3.71c.83,2.64,2.89,5.44,2.76,8.13C23.09,100.14,22.26,94.75,22.77,92.8Zm-1.54-3c.44.51,1.29,1.47.76,2.11-.76-1-2.24-.21-3-.67C19.44,90.36,20.37,90.11,21.22,89.78ZM18.73,92.4c-.79,2,1.74,3.48.93,5.39-1.64-.87-1.45-3.6-1.75-5.12C18.25,92.66,18.29,92.3,18.73,92.4ZM18,108.19a1.63,1.63,0,0,1,1.34.34l0,.9c-1.27.46-2.6.86-3.81,1.39-.13-.45-.38-.76-.51-1.21C15.63,108.26,18.17,111.1,18,108.19ZM98.5,176l-.76-.09c-1-.81-1.35-2.26-3.18-2.18a17.09,17.09,0,0,1-13.44,7.7c-2.6-2.1-1.92-7.64-5.43-8.8-2.34.83-6.48,8.39-9.66,7.8-2.65-.5-3.89-9.23-7.85-9.46-4.19-.25-9.06,7.94-12.87,7.11-1.34-.3-3.32-3.7-4.44-5.49s-2.73-5.9-4.16-6.07-3.81,2.67-5.21,3.44a18.22,18.22,0,0,1-9,2.15c-6.89-14.32-6.85-35.74-7.42-56,4.54-2,8.18-3.44,12.31-5.94a51.07,51.07,0,0,0,9.65-7.8c3.34-3.64,5.08-8.5,8.15-12.31,3.11-.27,8.24-.14,10.77,1.17a112.26,112.26,0,0,1,19.44-.37c6,.42,12.54-.08,15.59,2.5,4.77-3.4,11.87,1.47,16.77-1.35,2-1.15,2.84-4.88,4.22-6.45,3.34-3.81,11.29-7.7,16.18-9.71,4.2-1.73,9.46-3.85,14.42-4.39,2.59,6.87,1.51,18.93-.41,25.35-.43,1.45-1.55,2.12-1.44,3.54.13,1.74,1.76,2.58,2.62,3.35,2.13,5.21,4.89,9.75,6.61,15.4-10,16.42-17,36.25-27.56,52.07a2.61,2.61,0,0,0-2.72.82c.22.75.46,2.33-.08,3a7.9,7.9,0,0,1-2,2.36c.17-2.45.45-4.85.77-7.21l.16.37c.24.6,1.11.11.88-.48s-.5-1.15-.77-1.72c1.38-9.56,3.16-18.6.84-28.51-.4-1.69-3.38-.11-4,1.42-3.6,8.58-3.74,11.12-7.4,17.44-3.17,5.47-6.77,10.89-9.46,16.65A1.59,1.59,0,0,0,98.5,176ZM126,191.24q0,.93-.08,1.87c-.35.3-.7.58-1.07.85-.05-.23,0-.59-.26-.6A5.43,5.43,0,0,1,126,191.24Zm-5.66-.39a26.56,26.56,0,0,1-1.39-8.69c.35,0,.39-.37.82-.27C120.36,184.3,123.38,189,120.29,190.85Zm-4.42-27.49c-.56-1-1.11-1.91-1.59-2.9.28-1.24.55-2.49.74-3.74a43.69,43.69,0,0,1,1.25-7A114.4,114.4,0,0,1,115.87,163.36Zm-8,14.59c-1.1-2.37-2-4.82-1.64-7.15.74-1.45,1.47-2.89,2.21-4.32a44.67,44.67,0,0,0,1.75,5.45C109.48,174,108.71,176,107.84,178Zm1.27-12.85c1.08-2.12,2.17-4.26,3.26-6.5.24.65.53,1.28.83,1.91q-.34,1.5-.69,3c-.54,2.27-1.16,4.59-1.87,6.89A38.73,38.73,0,0,1,109.11,165.11Zm4.45-6.22c-.21-.52-.4-1-.57-1.58.52-1.11,1-2.24,1.42-3.38l-.08.56C114.13,156,113.86,157.43,113.56,158.89Zm-.3,5.83.68-2.77c.57,1.05,1.19,2.08,1.8,3.11-.39,4.57-.88,9.14-1.16,13.69l-.35,0c-1-2.26-2.09-4.55-3-6.88C112,169.51,112.68,167.09,113.26,164.71Zm-10,12c.65-1.35,1.3-2.66,1.94-4a17.13,17.13,0,0,0,1.5,4.9C105.63,177.38,104.5,177,103.25,176.75Zm5.51,1.54q1.07-2.42,2-5c.77,1.88,1.62,3.74,2.46,5.58A14.19,14.19,0,0,1,108.75,178.29ZM95.52,206.58c-6,2.2-12,4.4-18,6.79-3.2,1.29-6.38,2.63-9.52,4.07-3.64,1.67-6,3.71-9.46.51l-.4-.37a57.5,57.5,0,0,0,8.44-5.86c1.44-1.29-.62-3.46-2.06-2.18a58.3,58.3,0,0,1-8.5,5.83l-.18.14-1.09-1c2.39-1.33,4.89-2.8,6.24-5.21.94-1.68-1.61-3.27-2.55-1.58-1.24,2.21-3.76,3.42-5.93,4.61a31.66,31.66,0,0,1-2.21-2.53c2.48-1.42,5-2.65,6.87-4.93,1.21-1.5-1.35-3.06-2.55-1.58-1.51,1.86-3.91,2.86-6,4a10.92,10.92,0,0,1-1.52-5.36,10.47,10.47,0,0,1,6.7-9.27c4.11-1.34,6.51,1.19,9.57,3.33,3.52,2.46,6.39,2.62,10.41,1.2,12.12-4.29,23.8-8.69,36.83-9.46l.1,0a15.22,15.22,0,0,0,1.43,2.42.51.51,0,0,1,.41.22l.73,1q3.15,2,6.23,4l.29.19h0l2.5,1.22C114.63,199.31,101,204.57,95.52,206.58Zm29.82-10.63-.92.26a1.85,1.85,0,0,0,.34-1,5.54,5.54,0,0,0,.68.77Zm9,54.58c-5.94.26-10.79,1.43-16.75,1.09-.53,0-1.36-.42-1.61-.1-.94,1.21-3.12,1.26-4.54.7a5.29,5.29,0,0,1-1.14-.6c-1.12-.8-2-2.86-2.59-4.22-2.26-5.68.61-13.93,4.84-18a11.4,11.4,0,0,1,4.51-2.75,1.45,1.45,0,0,0,.93-.23c4.43-.9,11.63,2.14,15.18,5.91,4.86,5.17,3,10.65,1.16,17.33A1.47,1.47,0,0,0,134.32,250.52Zm20.07,1.54a1.79,1.79,0,0,0-.07-.34c0-.16.05-.37.07-.47.14-.57.3-1.13.42-1.7,0-.18.06-.37.09-.55.59.07,1.4,1.78,1.85,2.86C155.81,251.93,155,252,154.38,252.06Zm28-1.25c-9.42.35-20,.67-25.6,1-1.37-5.69,2.13-18.86,5.73-22.1,7.12-6.41,14.72,4,15.85,11.22.34,2.15-1.77,7.91,4,9.78Zm18.48-6.21a17.61,17.61,0,0,0,.31-10c.4-2.06.82-4.14,1.18-6.22,1.43,2.56,3,4.73,6.38,4.48,5.33-.39,7.81-7.13,12.38-8.63,0,5-2,10.36-5.46,12.39-.71-1.18-.22-3.62-1.5-4.21-1.8,1.07.25,3.93.11,6-1.38,1.56-2.49,3.44-5.21,3.44.06-2.76.26-5.68-2-6,2.38,7.56-2.94,10.16-8.63,9.49a30.39,30.39,0,0,0,1.48-4.39A8.71,8.71,0,0,0,200.91,244.61Zm-.81-123.46c-7.75,5.1-17.29,8.7-24,15.16a1.59,1.59,0,0,0-.26.33,22,22,0,0,0-4.1,3.17c-1.36,1.37.7,3.55,2.06,2.18a16.44,16.44,0,0,1,1.4-1.25c1.62,2.81,3.2,5.72,4.77,8.74A175.82,175.82,0,0,1,199.35,216a1.59,1.59,0,0,0-.06.17c-1.28,5.05-.37,10.49-1.38,15.66a93.39,93.39,0,0,1-3.65,12.59l-.36.14c0,.06,0,.11,0,.17a3,3,0,0,1-.26.25,11,11,0,0,1-2.25,2.7c-1.94,0-3.9,0-5.86,0a1.4,1.4,0,0,0-1.44,1.11c-2.94-1.23-2.21-5.09-2.71-8.4-.81-5.36-4.57-11.77-9.94-13.63-8.42-2.91-17.58,8-18.31,16.7a1.21,1.21,0,0,0-.59.9c-.32,1.84-.59,3.66-.93,5.49-.84-.22-1.68-.43-2.52-.62a1.6,1.6,0,0,0-1.18.21c0-.23,0-.46,0-.69a1.52,1.52,0,0,0-2.15-1.38,1.52,1.52,0,0,0-2.19-.13,4.15,4.15,0,0,0-.73,1,14.75,14.75,0,0,0-4.66-.92,1.65,1.65,0,0,0-.36,0c.91-5.51.23-11-3.3-15.7-3.24-4.31-8.52-8.51-14.16-8.77,5.39-8.86,7.32-16.1,8.25-26.48,1.91-.91,3.72-3.58,5.14-5.28,8.89-10.65,15.66-24.14,22.55-36.1,3.21-6.56,6.2-13.4,9.25-20.16a1.86,1.86,0,0,1,.78-1.83l.09-.07c.45-1,.9-2,1.35-3h.51c-.2,1.53,2.31,2.14,3,.49,2.15-5.43,8.93-8.9,13.52-12,5.24-3.51,10.33-7.26,15.42-11,2.2-1.61,7.12-3.71,7.74-6.74.71-3.51-3.8-7.38-5.45-10-3.82-6-8-14.1-5.84-21.4,2.22-7.53,8.24-6.69,13-3.36-1.41,1.11-2.76,2.31-4.22,3.35a1.7,1.7,0,0,0-.77,1.36c-.41.52-.8,1.07-1.18,1.61-1.11,1.59,1.45,3.16,2.55,1.58a10.29,10.29,0,0,1,3.09-3.31,1.4,1.4,0,0,0,.71-.9c.72-.59,1.44-1.18,2.18-1.74h0c.34.33.67.66,1,1s.78.89,1.16,1.34a4.52,4.52,0,0,1-.8.84,1.4,1.4,0,0,0-1.35.34c-.41.37-.82.76-1.23,1.14-.27.11-.52.19-.74.26A1.45,1.45,0,0,0,209,74.29c-.22.17-.44.34-.67.5a1.54,1.54,0,0,0-.59,2,1.51,1.51,0,0,0,2,.59,24,24,0,0,0,2.67-2.15,11.91,11.91,0,0,0,3.68-2.48c.9,1.18,1.77,2.4,2.59,3.64a1.61,1.61,0,0,0-.36.34c-1.53,2-3.81,3.31-5.26,5.37-1.12,1.58,1.44,3.15,2.55,1.58A17.8,17.8,0,0,1,218,81.38,29.35,29.35,0,0,0,220.3,79c.76,1.29,1.47,2.61,2.13,3.94-2.22.69-3.88,2.32-6,3.16a1.69,1.69,0,0,0-.79,2.44,1.36,1.36,0,0,0,1.73,1A10,10,0,0,0,222,86.95a1.49,1.49,0,0,0,.41-.79,7.57,7.57,0,0,1,1.3-.43c2.23,5.34,3.44,11.11,6.27,16.17C219.66,107.76,210,114.64,200.1,121.15Z"/></g></g></svg>