<svg xmlns="http://www.w3.org/2000/svg" viewBox="0 0 412.46 9.42"><defs><style>.cls-1{fill:#424242;}</style></defs><title>Asset 14</title><g id="Layer_2" data-name="Layer 2"><g id="Layer_8" data-name="Layer 8"><path class="cls-1" d="M376,5.31c-.5-.19-.79-.63-1.41-.7a4.11,4.11,0,0,0-1,2.08c.49.36.86.86,1.81.7-.27-1.24.38-1.42.61-2.08m1.4,3.47c-3.22,2.08-7-1.34-6-3.94.51-1.33,3.81-2.9,5.43-2.3s2,4.57.59,6.24"/><path class="cls-1" d="M392.49,3.72c1.56,1,1.45-.91,0,0m0,2.54a.85.85,0,1,0-1.61,0c.46.15,1.21.46,1.61,0m.4,2.77a3.47,3.47,0,0,1-4.22-3c-.16-2.62,5.29-6.32,6.84-2.76.95,2.17-.76,5.2-2.62,5.78"/><path class="cls-1" d="M409.78,5.6c0-1.65-2.71-1.93-2.61,0,.52,1.28,1.78.29,2.61,0M412,3.06c2.8,6.54-7.93,6.68-6.63,1.15.46-2,4.84-2.44,6.63-1.15"/><path class="cls-1" d="M300.71,4.71c.36.51.67,1.07,1.61.93.39-1.3-1.29-1.87-1.61-.93m4,3C302,9.36,298.06,10,298.1,5.87c0-2.55,2.67-3.83,5.23-3.46,1.53.43,1.9,3.32,1.4,5.32"/><path class="cls-1" d="M212.47,5c-.5-.19-.79-.63-1.41-.7a4.11,4.11,0,0,0-1,2.08c.49.36.86.86,1.81.7-.27-1.24.38-1.42.61-2.08m1.4,3.47c-3.22,2.08-7-1.34-6-3.94.51-1.33,3.81-2.9,5.43-2.3s2,4.57.59,6.24"/><path class="cls-1" d="M320,6.13h.81c.28-1.39-1.53-1-.81,0M322,5a1.7,1.7,0,0,0,.2,1.16h.6c.05-.75-.24-1.11-.8-1.16m3-1.15a5,5,0,0,1-.21,3.47c-1.19,2.56-4.65,1.88-6.23.22-2.36-5.09,4.2-6.4,6.44-3.69"/><path class="cls-1" d="M229,3.43c1.56,1,1.45-.91,0,0m0,2.54a.85.85,0,1,0-1.61,0c.46.15,1.21.46,1.61,0m.4,2.77a3.47,3.47,0,0,1-4.22-3C225,3.12,230.42-.58,232,3c.95,2.17-.76,5.2-2.62,5.78"/><path class="cls-1" d="M285.24,3.76c-.47,0-.59-.4-1.21-.23-.47,1,0,2.5,1.2,2.32.4-.48.16-1.54,0-2.08M282,4.68a1.93,1.93,0,0,0,1.6,2.78A3.53,3.53,0,0,0,282,4.68m4.23-3.23c5,4.49-4.41,10.7-5.44,5.08-.6-3.29,2.64-5,5.44-5.08"/><path class="cls-1" d="M246.24,5.31c0-1.65-2.71-1.93-2.61,0,.52,1.28,1.78.29,2.61,0m2.22-2.54c2.8,6.54-7.93,6.68-6.63,1.15.46-2,4.84-2.44,6.63-1.15"/><path class="cls-1" d="M338.5,4.32c-.09,1.57.46,2.39,1.4,2.78-.7-.67-.18-2.72-1.4-2.78m-1.81-.93c1.36-2.48,5.94-2.41,6.43.47,1.07,6.28-7,7.61-6.43-.47"/><path class="cls-1" d="M360.81,7.83c-4.53.86-4.44-6.66-.39-6.48,3.31.15,4.3,5.74.39,6.48"/><path class="cls-1" d="M265.33,7.2c-1.9.56-4.59-1.6-4.42-3.94.15-2,5.19-4.44,6.84-1.84,1.34,2.12-.44,5.19-2.42,5.78"/><path class="cls-1" d="M134.33,4.42c.36.51.67,1.07,1.61.93.39-1.3-1.29-1.87-1.61-.93m4,3c-2.69,1.63-6.67,2.31-6.63-1.86,0-2.55,2.67-3.83,5.23-3.46,1.53.43,1.9,3.32,1.4,5.32"/><path class="cls-1" d="M153.62,5.84h.81c.28-1.39-1.53-1-.81,0m2-1.15a1.7,1.7,0,0,0,.2,1.16h.6c.05-.75-.24-1.11-.8-1.16m3-1.15A5,5,0,0,1,158.44,7c-1.19,2.56-4.65,1.88-6.23.22-2.36-5.09,4.2-6.4,6.44-3.69"/><path class="cls-1" d="M118.85,3.47c-.47,0-.59-.4-1.21-.23-.47,1,0,2.5,1.2,2.32.4-.48.16-1.54,0-2.08m-3.22.92a1.93,1.93,0,0,0,1.6,2.78,3.53,3.53,0,0,0-1.6-2.78m4.23-3.23c5,4.49-4.41,10.7-5.44,5.08-.6-3.29,2.64-5,5.44-5.08"/><path class="cls-1" d="M79.85,5c0-1.65-2.71-1.93-2.61,0,.52,1.28,1.78.29,2.61,0m2.22-2.54c2.8,6.54-7.93,6.68-6.63,1.15.46-2,4.84-2.44,6.63-1.15"/><path class="cls-1" d="M172.12,4c-.09,1.57.46,2.39,1.4,2.78-.7-.67-.18-2.72-1.4-2.78m-1.81-.93c1.36-2.48,5.94-2.41,6.43.47,1.07,6.28-7,7.61-6.43-.47"/><path class="cls-1" d="M194.43,7.53c-4.53.86-4.44-6.66-.39-6.48,3.31.15,4.3,5.74.39,6.48"/><path class="cls-1" d="M98.95,6.91C97,7.47,94.36,5.3,94.53,3c.15-2,5.19-4.44,6.84-1.84,1.34,2.12-.44,5.19-2.42,5.78"/><path class="cls-1" d="M39.81,4.42c.36.51.67,1.07,1.61.93.39-1.3-1.29-1.87-1.61-.93m4,3c-2.69,1.63-6.67,2.31-6.63-1.86,0-2.55,2.67-3.83,5.23-3.46,1.53.43,1.9,3.32,1.4,5.32"/><path class="cls-1" d="M59.1,5.84h.81c.28-1.39-1.53-1-.81,0m2-1.15a1.7,1.7,0,0,0,.2,1.16h.6c.05-.75-.24-1.11-.8-1.16m3-1.15A5,5,0,0,1,63.92,7c-1.19,2.56-4.65,1.88-6.23.22-2.36-5.09,4.2-6.4,6.44-3.69"/><path class="cls-1" d="M24.33,3.47c-.47,0-.59-.4-1.21-.23-.47,1,0,2.5,1.2,2.32.4-.48.16-1.54,0-2.08m-3.22.92a1.93,1.93,0,0,0,1.6,2.78,3.53,3.53,0,0,0-1.6-2.78m4.23-3.23c5,4.49-4.41,10.7-5.44,5.08-.6-3.29,2.64-5,5.44-5.08"/><path class="cls-1" d="M4.42,6.91C2.52,7.47-.16,5.3,0,3,.16,1,5.2-1.47,6.85,1.13,8.19,3.25,6.4,6.32,4.42,6.91"/></g></g></svg>