<svg xmlns="http://www.w3.org/2000/svg" viewBox="0 0 65.23 67.24"><defs><style>.cls-1{fill:#666665;}</style></defs><title>Asset 29</title><g id="Layer_2" data-name="Layer 2"><g id="instaraction"><path class="cls-1" d="M29.63,67.24h-.26c-8.78-.05-16.19-3.17-21.42-9C1.91,51.49-.89,41.38.25,30.47A35.87,35.87,0,0,1,16.36,4.14,26.34,26.34,0,0,1,39.83,1.69a24.61,24.61,0,0,0,2.44.67c2.1.51,4.48,1.08,5.55,2.2C59.66,10,64.55,24,65.18,35.34h0a27.44,27.44,0,0,1-7.48,21C51.17,63.16,40.69,67.24,29.63,67.24ZM30.46,1A25.67,25.67,0,0,0,16.89,5,34.85,34.85,0,0,0,1.24,30.57C.13,41.2,2.84,51,8.69,57.56c5,5.63,12.19,8.63,20.68,8.68h.25c10.8,0,21-4,27.35-10.62a26.47,26.47,0,0,0,7.21-20.23h0c-.61-11.08-5.37-24.76-16.87-30l-.17-.13c-.81-.94-3.19-1.51-5.1-2a25.14,25.14,0,0,1-2.55-.7A26,26,0,0,0,30.46,1Z"/><path class="cls-1" d="M41.54,33.63H35.7V54.46H27V33.63H22.92V26.27H27V21.5c0-3.41,1.62-8.74,8.74-8.74l6.41,0v7.15H37.54a1.76,1.76,0,0,0-1.84,2v4.33h6.6Z"/></g></g></svg>