<svg xmlns="http://www.w3.org/2000/svg" viewBox="0 0 65.23 67.24"><defs><style>.cls-1{fill:#666665;}</style></defs><title>Asset 30</title><g id="Layer_2" data-name="Layer 2"><g id="instaraction"><path class="cls-1" d="M29.63,67.24h-.26c-8.78-.05-16.19-3.17-21.42-9C1.91,51.49-.89,41.38.25,30.47A35.87,35.87,0,0,1,16.36,4.14,26.34,26.34,0,0,1,39.83,1.69a24.61,24.61,0,0,0,2.44.67c2.1.51,4.48,1.08,5.55,2.2C59.66,10,64.55,24,65.18,35.34h0a27.44,27.44,0,0,1-7.48,21C51.17,63.16,40.69,67.24,29.63,67.24ZM30.46,1A25.67,25.67,0,0,0,16.89,5,34.85,34.85,0,0,0,1.24,30.57C.13,41.2,2.84,51,8.69,57.56c5,5.63,12.19,8.63,20.68,8.68C40.3,66.3,50.58,62.33,57,55.62a26.47,26.47,0,0,0,7.21-20.23h0c-.61-11.08-5.37-24.76-16.87-30l-.17-.13c-.81-.94-3.19-1.51-5.1-2a25.14,25.14,0,0,1-2.55-.7A26,26,0,0,0,30.46,1Z"/><path class="cls-1" d="M44.2,20.42H21a4,4,0,0,0-4,3.89V46.82a4,4,0,0,0,4,3.89H44.2a4,4,0,0,0,4-3.89V24.31A4,4,0,0,0,44.2,20.42Zm-5.87,4.73a1.39,1.39,0,0,1,1.4-1.37h3.52a1.39,1.39,0,0,1,1.4,1.37v3.26a1.39,1.39,0,0,1-1.4,1.36H39.74a1.39,1.39,0,0,1-1.4-1.36ZM32.64,29.6a6.09,6.09,0,0,1,6.26,5.9,6.09,6.09,0,0,1-6.26,5.89,6.09,6.09,0,0,1-6.26-5.89A6.09,6.09,0,0,1,32.64,29.6ZM44.68,46a1.22,1.22,0,0,1-1.24,1.2H21.72A1.22,1.22,0,0,1,20.48,46V33.23h2.86a8.66,8.66,0,0,0-.4,2.6c0,5,4.34,9.12,9.7,9.12s9.7-4.08,9.7-9.12a8.62,8.62,0,0,0-.4-2.6h2.74Z"/></g></g></svg>