<?xml version="1.0" encoding="utf-8"?>
<!-- Generator: Adobe Illustrator 21.0.2, SVG Export Plug-In . SVG Version: 6.00 Build 0)  -->
<svg version="1.1" id="Layer_1" xmlns="http://www.w3.org/2000/svg" xmlns:xlink="http://www.w3.org/1999/xlink" x="0px" y="0px"
	 viewBox="0 0 36.4 35.3" style="enable-background:new 0 0 36.4 35.3;" xml:space="preserve">
<style type="text/css">
	.st0{fill:#FFFFFF;}
	.st1{fill:#575756;}
</style>
<title>Asset 2</title>
<g id="instaraction">
	<circle class="st0" cx="18.7" cy="17.7" r="15.4"/>
	<path class="st0" d="M18.7,0C8.9,0,1,7.9,1,17.7c0,2.6,0.6,5.1,1.7,7.4l0.1-0.8c0,0,0,0,0-0.1c-3.8-8.8,0.3-19,9.1-22.7
		s19,0.3,22.7,9.1s-0.3,19-9.1,22.7C19.7,35.9,13,35,8,31c-0.1,0.1-0.2,0.1-0.2,0.1c-0.1,0-0.2,0-0.3,0.1c7.5,6.3,18.6,5.3,24.9-2.2
		s5.3-18.6-2.2-24.9C26.9,1.4,22.9,0,18.7,0z"/>
	<path class="st1" d="M28.6,24.8l-0.9,0.9l0,0c-0.4,0.3-0.8,0.5-1.2,0.7c-0.4,0.2-0.8,0.3-1.3,0.3c-0.2,0-4.8,0.5-10.6-5.3
		c-4.2-4.2-5.7-7.2-5.3-10.6c0-0.4,0.2-0.9,0.3-1.3c0.2-0.5,0.4-0.9,0.7-1.2l0,0l0.9-0.9c0.6-0.6,1.6-0.6,2.3,0l3.1,3.1
		c0.6,0.6,0.6,1.6,0,2.2c0,0,0,0,0,0L16,13.2l-1,1l0.2,0.3c0.7,1.4,1.6,2.6,2.7,3.7c1.1,1.1,2.4,2,3.7,2.7l0.3,0.2l1.5-1.5
		c0.6-0.6,1.6-0.6,2.2,0c0,0,0,0,0,0l3.1,3C29.3,23.3,29.2,24.2,28.6,24.8z"/>
	<path class="st0" d="M8.1,31l-7.4,2.2l2.1-8.8l-0.5-0.1L0,33.9l8.5-2.5C8.4,31.3,8.2,31.2,8.1,31z"/>
</g>
</svg>
