<svg xmlns="http://www.w3.org/2000/svg" viewBox="0 0 72.71 4.56"><defs><style>.cls-1{fill:#52afa0;}</style></defs><title>Asset 1</title><g id="Layer_2" data-name="Layer 2"><g id="art"><path class="cls-1" d="M13.29,2.28c-.2-.26-.36-.55-.87-.48-.21.67.7,1,.87.48M11.11.73c1.46-.84,3.61-1.19,3.59,1,0,1.31-1.45,2-2.83,1.78-.83-.22-1-1.71-.76-2.74"/><path class="cls-1" d="M61.09,2.12c.27.1.43.33.76.36a2.08,2.08,0,0,0,.55-1.07,1.11,1.11,0,0,0-1-.36c.15.64-.21.73-.33,1.07M60.33.33c1.74-1.07,3.8.69,3.26,2a3.14,3.14,0,0,1-2.94,1.19c-.87-.3-1.07-2.36-.32-3.22"/><path class="cls-1" d="M2.84,1.55H2.4c-.15.71.83.52.44,0m-1.09.59a.84.84,0,0,0-.11-.6H1.31c0,.39.13.57.43.6M.11,2.73A2.45,2.45,0,0,1,.23.95C.87-.37,2.75,0,3.6.83,4.88,3.46,1.33,4.13.11,2.73"/><path class="cls-1" d="M52.16,2.94c-.85-.5-.78.47,0,0m0-1.31a.46.46,0,1,0,.87,0c-.25-.08-.66-.24-.87,0M51.94.2a1.87,1.87,0,0,1,2.28,1.55c.09,1.35-2.87,3.26-3.7,1.42a2.42,2.42,0,0,1,1.42-3"/><path class="cls-1" d="M21.67,2.77c.26,0,.32.21.65.12.26-.49,0-1.29-.65-1.19-.21.25-.08.79,0,1.07m1.74-.47A1,1,0,0,0,22.55.86a1.81,1.81,0,0,0,.87,1.43M21.13,4c-2.69-2.32,2.39-5.52,2.94-2.62C24.39,3,22.64,3.92,21.13,4"/><path class="cls-1" d="M42.8,2c0,.85,1.47,1,1.42,0-.28-.66-1-.15-1.42,0M41.6,3.28c-1.52-3.37,4.29-3.44,3.59-.59-.25,1-2.62,1.26-3.59.59"/><path class="cls-1" d="M32.45,1a2.11,2.11,0,0,1,2.39,2c-.08,1-2.81,2.29-3.7.95-.73-1.09.24-2.68,1.31-3"/><path class="cls-1" d="M70.86.83c2.45-.44,2.4,3.43.21,3.34-1.79-.08-2.33-3-.21-3.34"/></g></g></svg>