<svg xmlns="http://www.w3.org/2000/svg" viewBox="0 0 191.99 154.47"><defs><style>.cls-1{fill:#fcc130;}</style></defs><title>Asset 2</title><g id="Layer_2" data-name="Layer 2"><g id="header"><path class="cls-1" d="M61.27,0l-.05,7.81a12.8,12.8,0,0,0-.73,1.63.74.74,0,0,0,.71,1l-.09,13.22c-.21.53-.43,1.06-.62,1.6a.76.76,0,0,0,.6,1L61,36.71c-.07.28-.13.56-.18.85a1,1,0,0,0,.17.66l0,6.83,37.57.25.3-45Zm9.15,17.91,0,3.64A.84.84,0,0,0,69.17,21L69,21.1C69.48,20.06,70,19,70.42,17.92ZM69.21,17a27.44,27.44,0,0,0,1.22-2.55l0,3A.9.9,0,0,0,69.21,17Zm1.14,9.94,0,2.51a.83.83,0,0,0-.79.09,19.26,19.26,0,0,0,.71-2.16.9.9,0,0,0,0-.32ZM69.61,38c.22-.24.44-.47.67-.69v.48h.43a29.67,29.67,0,0,1-1.82,2.51l-.29.28C69,39.76,69.31,38.9,69.61,38Zm21.11-16.2c1-1.18,2-2.36,2.91-3.56q.52-.6,1.09-1.15a36.65,36.65,0,0,1-2.08,3c-1.12,1.64-2.14,3.34-3.24,5l0-3.59A.76.76,0,0,0,90.73,21.84Zm-1.29-1.92,0-2.8a.83.83,0,0,0,1-.12l.49-.55a9.86,9.86,0,0,0,1.68-1.3C91.6,16.76,90.43,18.3,89.44,19.92Zm6.84-9.83c.29-.42.57-.83.83-1.26l0,5.89a.8.8,0,0,0-.54-.66.87.87,0,0,0-.77-1.15,14.33,14.33,0,0,0,.75-2A.78.78,0,0,0,96.28,10.09Zm.79,5.06,0,3.26a.84.84,0,0,0-.63-.8A8.53,8.53,0,0,0,97.07,15.15Zm.07-10a.85.85,0,0,0-.16.27,13,13,0,0,1-1,2.11.82.82,0,0,0-1-.53,21.51,21.51,0,0,0,2.23-3Zm-.62,22a.92.92,0,0,0-.41-1.21c.28-.45.55-.91.8-1.38a.83.83,0,0,0-1.15-1.12,18.35,18.35,0,0,0,.88-2.06c.23-.66-.34-1-.89-1,.4-.51.79-1,1.16-1.58a.77.77,0,0,0,.14-.38L97,31.55a.83.83,0,0,0-1.26-.14c-.19.17-.35.36-.53.54.07-.15.16-.29.23-.44.25-.57-.17-1.54-.94-1.23-.15.06-.29.15-.43.22A18.56,18.56,0,0,0,96.52,27.16Zm0,12.68s0,.06,0,.1a.82.82,0,0,0-.23.17l-.63.7a7,7,0,0,1,.48-1.71c.3-.89-1.1-1.51-1.52-.65-.19.39-.4.84-.62,1.3.41-1,.84-2,1.29-3a28.16,28.16,0,0,0,1.62-2.89,1,1,0,0,0,.06-.2l0,5.52A.81.81,0,0,0,96.53,39.84ZM90,28.07a37.51,37.51,0,0,0,3-3c-1.15,1.85-2.47,3.62-3.57,5.51,0,0,0,0,0,.05l0-2.34A.86.86,0,0,0,90,28.07ZM83.59,39.27c.31-.76-.88-1.47-1.39-.82-.23.29-.44.6-.66.92.18-.33.33-.67.53-1a.8.8,0,0,0,.12-.46l2.68,0c-.5.62-1,1.26-1.49,1.89Zm-5.66-1a11.46,11.46,0,0,0-1.88,1.87c0-.06,0-.13,0-.19.17-.64-.6-1.41-1.22-1-.11.08-.2.17-.31.26l.36-.58a.77.77,0,0,0,0-.79l5.41,0c-.38.53-.78,1-1.18,1.53.05-.12.11-.25.16-.37C79.66,38.17,78.5,37.79,77.93,38.22Zm9.73-2.32c-.06.11-.1.24-.16.36l-14.43-.1A3.73,3.73,0,0,0,73,34.73a.81.81,0,0,0-1-.56L72.15,9l15.69.11ZM72.53,37.83h.9c-.56.63-1.1,1.29-1.64,1.93l.07-.12a.79.79,0,0,0,0-.75A10.59,10.59,0,0,0,72.53,37.83Zm-.86,4.46a.83.83,0,0,0,1.39.5L74,42a5.35,5.35,0,0,0,0,.93,1,1,0,0,0,.28.56l-4,0A11.42,11.42,0,0,0,71.67,42.29Zm4.53.27a.83.83,0,0,0,1.24.74,12.33,12.33,0,0,0,1.16-.91.81.81,0,0,0,1,.86,4.64,4.64,0,0,0,1.15-.61,4.84,4.84,0,0,0,0,.51.84.84,0,0,0,.13.38l-5.41,0C75.71,43.18,76,42.87,76.2,42.56Zm7.13-.07a1,1,0,0,0,1.19,0c.17-.14.31-.31.46-.46,0,.22-.09.42-.1.65a.84.84,0,0,0,1.42.6c1.09-1.12,2-2.36,3-3.57A7.29,7.29,0,0,0,89,41.42a.85.85,0,0,0,1.42.6c.29-.23.55-.48.81-.73a1,1,0,0,0,.23.29c-.22.65-.41,1.32-.58,2l-8.57-.06C82.69,43.19,83,42.85,83.33,42.49ZM93.24,2.2a.8.8,0,0,0,.12-.3l3.8,0v1a.73.73,0,0,0-.86-.3,11.9,11.9,0,0,0-1.17.5.84.84,0,0,0-1.23-.81A12.65,12.65,0,0,0,92.67,3C92.86,2.72,93.06,2.47,93.24,2.2ZM90.16,9.05,90.22,9a20.12,20.12,0,0,0,2.7-2.42l.4-.32c-1.05,1.18-2.17,2.3-3.18,3.52A.86.86,0,0,0,90.25,11a13.62,13.62,0,0,0-.76,1.5l0-3.2A.65.65,0,0,0,90,9.18L90.16,9ZM76.7,7.21c1.52-1.11,2.88-2.54,4.45-3.58-.59.7-1.27,1.34-1.91,2a.84.84,0,0,0,1.17,1.19l.76-.69a.82.82,0,0,0,1.09,1.17,12.38,12.38,0,0,0,2-1.28c-.41.66.39,1.7,1.11,1.16L85.51,7h0l0,0a44.08,44.08,0,0,1,4.52-3.43c-1,1.12-2.05,2.19-3,3.34a.85.85,0,0,0-.19.51l-14.59-.1C74,5.74,75.9,3.53,78.14,2.69c-.76,1.18-1.73,2.25-2.57,3.37C75.07,6.72,76,7.69,76.7,7.21Zm-6.47-1a21.77,21.77,0,0,1,3.41-3.42c-1,1.3-2.08,2.49-3.07,3.78h0l-.13.17a.66.66,0,0,0,.06.92v.78a.68.68,0,0,0-1,.1l-.42.5A21.59,21.59,0,0,0,70.23,6.26Zm.23,4v2.15a.79.79,0,0,0-1,.12c-.27.3-.52.61-.78.92A34.77,34.77,0,0,0,70.47,10.27ZM62.93,1.69h1.69A18.77,18.77,0,0,1,62.91,5Zm-.05,7.66A48.72,48.72,0,0,0,66,5.44c-.09.19-.2.37-.28.57a.61.61,0,0,0,0,.32c-.84,1.47-1.89,2.86-2.77,4.31Zm0,4.24a.83.83,0,0,0,.37-.16,29.07,29.07,0,0,0,4.47-5.28c-1.48,3.06-3.55,5.85-4.86,9Zm-.08,11.53c.43-.49.86-1,1.25-1.51a14.17,14.17,0,0,0-.51,1.78.8.8,0,0,0,.73,1c-.53,1.16-1,2.35-1.5,3.56ZM62.66,42a.79.79,0,0,0,.24-.12.82.82,0,0,0,1,.57.92.92,0,0,0,.43.11.85.85,0,0,0,1,.55,4.28,4.28,0,0,0,1.2-.36.82.82,0,0,0,.49.65l-4.37,0Z"/><path class="cls-1" d="M121.75,5.08l0-2.81c0-.09.1-.17.14-.25a.91.91,0,0,0-.13-1V.41l-7.2,0a.8.8,0,0,0-1.33,0L103.51.29l0,6c0,.06-.08.13-.13.19a.89.89,0,0,0,.12,1.25V9.22l6.32,0a.88.88,0,0,0,1,.88l-.11,16.35,10.94.07.14-20.4A.83.83,0,0,0,121.75,5.08Zm-9.35,12.85a.84.84,0,0,0,.69-.2c1.42-1.23,2.75-2.54,4.13-3.81-1.41,2-3.29,3.82-4.83,5.81ZM120,12.2v2a.75.75,0,0,0-.77,0c-.23.16-.43.35-.65.52A13.34,13.34,0,0,0,120,12.2Zm-1.2,8.67A16.6,16.6,0,0,0,120,18.62l0,3.83c-.18.06-.34.13-.51.2a5.74,5.74,0,0,0,.1-1A.83.83,0,0,0,118.83,20.87ZM120,10a.66.66,0,0,0-.78,0c-.74.57-1.45,1.17-2.15,1.79.94-1.24,1.93-2.45,2.94-3.65Zm0-4.42a76.62,76.62,0,0,0-7.66,10.16l0-5.07a.91.91,0,0,0,1.29.2,36,36,0,0,0,6.35-6Zm-3.2-3.5H119c-.92.63-1.82,1.29-2.7,2a5.59,5.59,0,0,0,.61-1.65A.94.94,0,0,0,116.88,2.05Zm.95,2.9a39.84,39.84,0,0,1-5.27,4.7.75.75,0,0,0-.11.12V9C114.28,7.72,116,6.31,117.82,4.95ZM107.58,2.11a.8.8,0,0,0,0-.12h.69c-.59.77-1.2,1.52-1.79,2.28C106.87,3.56,107.21,2.83,107.58,2.11Zm-.24,5.16a.8.8,0,0,0-.22.3h-.79a5,5,0,0,1,.72-.94.8.8,0,0,0,.22-.58c.95-1.35,2.06-2.58,3-3.92a.7.7,0,0,0,.06-.12h1.84A29.08,29.08,0,0,1,107.34,7.27Zm2.2.32a33.7,33.7,0,0,1,4.9-3.67A30.23,30.23,0,0,1,111,7.6Zm2.82,15.22c1-.87,2-1.83,3-2.8-.73.88-1.46,1.75-2.1,2.69s.65,1.68,1.31,1l1.11-1.14c-.43.54-.88,1.08-1.34,1.62a.87.87,0,0,0-.22.65h-1.72Z"/><path class="cls-1" d="M164.29,24.95l.08-11.22a.9.9,0,0,0,0-.63L164.46.7,153.55.63l-.18,26.63a11.09,11.09,0,0,1-1.84,6.53,9.37,9.37,0,0,1-4.45,3.31,21.8,21.8,0,0,1-1.43-4.59L139,.53,128,.46,135,32a14,14,0,0,0,1.36,3.65l-.06.19a.81.81,0,0,0,.8,1c.11.17.21.36.33.52A47.51,47.51,0,0,1,129.06,35l-.84-.32L125.64,43l.73.28A47.75,47.75,0,0,0,143,46.59a25.37,25.37,0,0,0,11-2.2,17.16,17.16,0,0,0,7.52-6.72,20.74,20.74,0,0,0,2.73-10.75V25.69A.89.89,0,0,0,164.29,24.95Zm-1.64-5.11c-1.92.69-3.69,2-5.6,2.75,1.85-2,4-4,5.62-6.12Zm-7.57,1.09a.86.86,0,0,0,.64-.19c1.56-1.3,3-2.68,4.56-4-1.65,1.91-3.59,3.72-5.21,5.56ZM162.7,13a22.73,22.73,0,0,0-2.05,1.36,13.43,13.43,0,0,0,1.66-3.12c.3-.87-.8-1.29-1.39-.82-.1.08-.19.18-.29.27.71-.91,1.41-1.83,2.1-2.76Zm-7.58,3v-2a.8.8,0,0,0,.4-.11A13.25,13.25,0,0,0,157,12.74,26.68,26.68,0,0,0,155.12,15.94ZM155,27.27l0-2.51c2.46-.23,4.4-1.63,6.55-2.68-1.64,2.57-4.73,4.78-6.68,7A16.52,16.52,0,0,0,155,27.27Zm7.59-3.75v1.31A23.61,23.61,0,0,0,160.38,26,21.23,21.23,0,0,0,162.63,23.52Zm-1.48,11.24a.94.94,0,0,0-.3.07.86.86,0,0,0-.08-.18,12.53,12.53,0,0,0,.64-1.2.84.84,0,0,0-1.31-1,52.28,52.28,0,0,1-4.93,4.5c1.6-2.33,4.48-3.89,6.29-6,.53-.62-.07-1.72-.84-1.39q1-1,2-2A20.43,20.43,0,0,1,161.15,34.76Zm1.59-28.53a.73.73,0,0,0-.77,0c-.38.25-.74.53-1.09.81a20.6,20.6,0,0,0,1.51-1.95c.49-.74-.44-1.5-1.14-1.15-.2.1-.37.23-.56.34a9.23,9.23,0,0,0,.45-.84.91.91,0,0,0-.27-1.11h1.89Zm-6.37-3.91L155.2,4.05V2.31ZM154.59,30.9a.86.86,0,0,0,.87.07c1.26-.68,2.45-1.49,3.65-2.27-1.77,1.94-3.48,3.94-5.16,6a.87.87,0,0,0-.81-.33A11.37,11.37,0,0,0,154.59,30.9Zm-13-4c.28-.6.58-1.19.83-1.8l.42,2a.76.76,0,0,0-.21,0,7.61,7.61,0,0,0-1.73,1.33C141.13,27.94,141.34,27.41,141.59,26.89Zm1.16,4.88a21.71,21.71,0,0,1-2.05,6.87l-.44-.44C141,36,141.95,33.91,142.75,31.77ZM140.56,16.1a16.67,16.67,0,0,0-1.92,2.42,19,19,0,0,0,1.38-5Zm-.76-3.65a1,1,0,0,0-.87-.11c.1-.25.22-.5.32-.76.28-.73-.7-1.33-1.27-.91.34-.82.66-1.65.95-2.5Zm-1.11-5.38a.73.73,0,0,0-.91-.07c-.19.14-.35.3-.52.44a13,13,0,0,0,1.05-2.23Zm-1-4.88.3,1.47a.85.85,0,0,0-.42,0,.92.92,0,0,0-1.21-.42l0,0,.09-.18a.77.77,0,0,0-.3-.86Zm-5.42,9.74L131.18,7a.83.83,0,0,0,.34-.17c.56-.48,1.26-1.32,2-2-.56.84-1.15,1.66-1.64,2.55A.84.84,0,0,0,133,8.52c.08,0,.15-.09.22-.13-.35.52-.7,1-1,1.59a.76.76,0,0,0,.53,1.19C132.58,11.42,132.41,11.67,132.26,11.93Zm.52,2.35a.93.93,0,0,0,.14-.1c1.13-1.1,2.15-2.31,3.23-3.46-.75,1.8-1.55,3.58-2.27,5.39-.26.66.39,1.09,1,1q-.5,1-1,1.9Zm2,9.18-.5-2.25a.9.9,0,0,0,.38-.28c1.18-1.53,2-3.28,3.13-4.87C137,18.58,135.71,21,134.8,23.46ZM136,29l-.85-3.86a.84.84,0,0,0,.77-.2c1.73-1.62,2.81-3.71,4.13-5.62C139.18,22.69,137.27,25.77,136,29Zm1.07,4.31a12.54,12.54,0,0,1-.49-1.66l-.08-.35a.81.81,0,0,0,.56-.36c1.12-1.72,2.14-3.5,3.29-5.19-.52,1.06-1.15,2.09-1.57,3C138.15,30.28,137.61,31.8,137.1,33.33Zm-8.8,8.9L127.7,42l.31-1a.91.91,0,0,0,.21-.08,14.61,14.61,0,0,0,1.89-1.41,21.91,21.91,0,0,1-1.66,1.89A.85.85,0,0,0,128.3,42.23Zm3.14,1c-.61-.17-1.23-.39-1.84-.59l0,0a9.67,9.67,0,0,1,2.67-2.24c-.34.62-.78,1.22-1.06,1.82A.83.83,0,0,0,131.43,43.23Zm6.13,1.25-.75-.11c.59-.63,1.16-1.28,1.74-1.92C138.2,43.12,137.86,43.79,137.56,44.48Zm.71-8.8a31.93,31.93,0,0,1,3.26-5.47c-.73,2.18-1.75,4.36-2.55,6.54C138.73,36.41,138.5,36,138.28,35.68Zm4.13,9.11a.63.63,0,0,0,0,.1c-.91,0-1.83-.06-2.75-.15l.9-1a.93.93,0,0,0,.79.48.72.72,0,0,0,.45,0,5.51,5.51,0,0,0,1.69-.92C143.1,43.83,142.75,44.32,142.4,44.78Zm1.37-4.34a12.06,12.06,0,0,1,1.83-2.61c.1.23.21.46.32.67-.66.67-1.28,1.44-1.93,2.15A.88.88,0,0,0,143.77,40.45Zm7.38,3.29a24.54,24.54,0,0,1-6.74,1.13c.69-.92,1.37-1.85,2-2.81a12.24,12.24,0,0,1,2.5-2.5,15.52,15.52,0,0,1-1.35,2.89.84.84,0,0,0,1.44.85c1.29-1.7,1.91-3.92,3.09-5.7-.37,1.87-.87,3.72-1.08,5.63A.67.67,0,0,0,151.15,43.74Z"/><path class="cls-1" d="M191,28.09l.09-13.15,0-.11a.77.77,0,0,0,0-.49L191.15.88,172.22.75l-.06,8.93,8,.05-.09,13.6-.19.26a.69.69,0,0,0,.18,1l0,7.3a6.3,6.3,0,0,1-1.17,4.18,4.34,4.34,0,0,1-3.47,1.23c-.63,0-1.23,0-1.84-.08.66-.72-.45-1.8-1.23-1.12a3.18,3.18,0,0,0-.74.94c-.46-.05-.94-.1-1.38-.17l-1-.16-.19,8.69.67.15c1.46.33,2.82.58,4,.73a31.4,31.4,0,0,0,3.84.25c4.16,0,7.45-1.18,9.79-3.6s3.52-5.85,3.55-10.24l0-2.91c.12-.07.24-.15.37-.21C192.13,29.22,191.69,28.18,191,28.09Zm-19.79,13c-.12.2-.24.41-.35.61l.07-3.05.53.05a5.31,5.31,0,0,0-.4,1.91A.82.82,0,0,0,171.18,41.13Zm10.57-14.41,0-2.79a39.89,39.89,0,0,1,6.59-6.75A55,55,0,0,1,181.75,26.73Zm5.34-3a57.54,57.54,0,0,1-5.37,7.47V29.41C183.55,27.54,185.25,25.55,187.08,23.7Zm-5.3-2.82,0-3.84a.83.83,0,0,0,.61-.24,32.34,32.34,0,0,0,7-9.4l0,2.68a.69.69,0,0,0-.6.27C186.07,13.58,184.09,17.33,181.79,20.88Zm4.47-4.06a48.13,48.13,0,0,1,3.14-4.55v2Q187.78,15.5,186.26,16.82ZM184.32,2.51l5.15,0V3h-.05a12.53,12.53,0,0,0-2.73,1.33,4.9,4.9,0,0,0,.15-.64c.09-.69-.75-1-1.25-.73a8.65,8.65,0,0,0-1.4.86,5.1,5.1,0,0,0,.25-.74A.84.84,0,0,0,184.32,2.51Zm.45,5.35c-.29.43-.59.85-.91,1.25-.7.88-1.37,1.76-2,2.66V9.9a.87.87,0,0,0,.72-.19C183.33,9.11,184,8.48,184.77,7.86ZM173.87,5.27l0-2.83h.79A15.49,15.49,0,0,1,173.87,5.27Zm3.9-2.81,4.57,0a9.48,9.48,0,0,0-1.49.89.78.78,0,0,0-.77-.68,3.51,3.51,0,0,0-2.26.76c0-.09.07-.18.1-.27A.77.77,0,0,0,177.77,2.46Zm1.71,5a.79.79,0,0,0-.1.56h-1.12a28.32,28.32,0,0,1,3.3-3.16A22.76,22.76,0,0,0,179.48,7.5Zm-5,31.47.88,0c.26,0,.49,0,.74-.05l-.35.39A36.82,36.82,0,0,1,172.57,42C173.2,41,173.88,40,174.52,39Zm-2.43,5.38.22-.14a9.08,9.08,0,0,0,3.9-3q1.28-1.14,2.5-2.33a.75.75,0,0,0,.6-.23c3.63-3.64,7.3-7.3,10-11.68v1.93c-1.95,1.37-3.5,3.53-5.05,5.21-3,3.27-6.25,6.46-9.55,9.44a.82.82,0,0,0,.05,1.21l-.76-.07C173.39,44.58,172.75,44.48,172.08,44.35Zm8.46.3c-.44.08-.88.14-1.35.18,1.42-1,2.82-2.07,4.21-3.13q-1.29,1.16-2.61,2.28A.69.69,0,0,0,180.54,44.65Zm-3-.67a.81.81,0,0,0-.15.91c-.57,0-1.14,0-1.69-.06,1.67-1.17,3.29-2.4,4.92-3.62C179.57,42.1,178.52,43,177.55,44Zm8.64-2.18a9.21,9.21,0,0,1-2.35,1.75c1.31-1.16,2.57-2.36,3.76-3.64A9.5,9.5,0,0,1,186.19,41.8Zm3.08-9.09a19.51,19.51,0,0,1-.21,2.81c-.42.28-.83.58-1.25.87a14.5,14.5,0,0,0,.87-1.41.84.84,0,0,0-1.31-1l-2.61,2,.16-.16c1.38-1.47,2.75-3.38,4.36-4.81Z"/><path class="cls-1" d="M7.59,101.37a.86.86,0,0,0,1.51,0h1.56l.78-25c.15-.42.32-.84.44-1.27a.75.75,0,0,0-.37-.91l.09-2.81A9.37,9.37,0,0,0,12,68.8a.85.85,0,0,0-.31-.6l.18-5.83L.57,62.29l.69,39ZM2.39,70.61l.08-.05c.85-.87,1.59-2,2.42-3-.79,1.41-1.65,2.78-2.48,4.17Zm.11,5.92a.89.89,0,0,0,1,.19c-.33.56-.64,1.11-.94,1.68Zm.09,4.85a.82.82,0,0,0,.4-.22c2.75-2.77,4.25-6.9,6.8-9.89A39.9,39.9,0,0,1,6.5,76.92c-1.5,2.49-3,4.83-3.69,7.69a.84.84,0,0,0,1.39.82l.15-.14c-.59.93-1.15,1.87-1.64,2.83Zm.25,14.26,0-1.59a.87.87,0,0,0,1.1-.27c1.43-1.89,2.71-3.94,4.26-5.74C6.73,90.75,4.5,93,2.83,95.65Zm.53-5.19C3.93,89.76,4.47,89,5,88.29,4.23,89.63,3.51,91,2.77,92.37l0-1.68A.67.67,0,0,0,3.36,90.46Zm-.89-15v-.73a.75.75,0,0,0,.15-.12c.91-1.09,1.75-2.26,2.64-3.37C4.35,72.65,3.42,74.06,2.47,75.46Zm.39,22.19a.84.84,0,0,0,.77-.18c1.47-1.27,2.64-2.84,4-4.23a41.29,41.29,0,0,0-2.25,3.84.89.89,0,0,0,.84,1.27.83.83,0,0,0,1.18,1A8.38,8.38,0,0,0,8.14,99l-.23.71-5,0Zm7.25-32.55A.77.77,0,0,0,9,65.33l-.38.61a.77.77,0,0,0-.25.1A12.94,12.94,0,0,0,7,67c.34-.66.66-1.33.94-2a.81.81,0,0,0-.5-1l2.68,0Z"/><path class="cls-1" d="M10.33,107.87a5.9,5.9,0,0,0-4.28-1.65.81.81,0,0,0-.86,0l-.12.09A5.48,5.48,0,0,0,0,111.9,5.5,5.5,0,0,0,1.61,116a5.94,5.94,0,0,0,4.33,1.64A5.94,5.94,0,0,0,10.3,116a5.9,5.9,0,0,0,0-8.18Zm-1.18,1.18A3.75,3.75,0,0,1,10,110.4a1,1,0,0,0-.55.28s0-.08,0-.13A.81.81,0,0,0,8.4,110s0-.05,0-.07a.84.84,0,0,0-1.21-.48,5.31,5.31,0,0,0,0-.77.73.73,0,0,0-.9-.57c0-.07,0-.13.05-.2a4.14,4.14,0,0,1,2.86,1.14ZM6,116a4.28,4.28,0,0,1-3.16-1.15,3.68,3.68,0,0,1-1.06-2.11.78.78,0,0,0,.76,0l-.06.13c-.32.77.87,1.44,1.39.82a12.83,12.83,0,0,0,1.07-1.51c-.36.86-.79,1.69-1.07,2.45s1.07,1.48,1.52.65c.33-.61.64-1.24,1-1.87-.17.51-.33,1-.53,1.5-.39,1,1.2,1.43,1.61.46.17-.44.37-.92.57-1.42a.89.89,0,0,0,1.39.29.91.91,0,0,0,.16.21,3.82,3.82,0,0,1-.36.42A4.28,4.28,0,0,1,6,116Z"/><path class="cls-1" d="M46.51,110.54l.15-22.84a16.3,16.3,0,0,0-1.93-8.22A13.25,13.25,0,0,0,39,74.11a19.91,19.91,0,0,0-8.78-1.88l-15.14-.1L15,81.06l2.48,0a.7.7,0,0,0,1.2.12l.09-.11,10.86.07a6.32,6.32,0,0,1,4.55,1.56,5.73,5.73,0,0,1,1.54,4.36l-.2,30.24,10.94.07,0-3.95a9.61,9.61,0,0,0,.47-2.18A.71.71,0,0,0,46.51,110.54ZM16.72,76V73.81h1.06A17.62,17.62,0,0,0,16.72,76Zm4.47,2.8a.76.76,0,0,0-.11.63h-.89c.66-.77,1.34-1.5,2.05-2.2C21.89,77.74,21.53,78.25,21.19,78.8Zm.63-3.45c.12-.3.27-.59.37-.9a.75.75,0,0,0-.07-.6h1.59A17.92,17.92,0,0,0,21.82,75.35Zm5.6,4.12H26c.89-.8,1.62-1.76,2.43-2.64A14.82,14.82,0,0,0,27.42,79.47Zm.34-4.27.15-.3a1,1,0,0,0-.16-1h1.53A8.67,8.67,0,0,0,27.77,75.2ZM45,87.25a.83.83,0,0,0-.8-.65A11.46,11.46,0,0,0,44.49,85c.1-.73-.81-1-1.33-.66A21.83,21.83,0,0,0,44,81.88,15.53,15.53,0,0,1,45,87.25Zm-2.23-7.48a.79.79,0,0,0,.06-.17c.16.24.33.46.48.71s.13.29.2.43a.87.87,0,0,0-.81.18,15.36,15.36,0,0,0-1.25,1.25C41.85,81.31,42.29,80.49,42.74,79.77Zm-4.51,24.12a13.64,13.64,0,0,0-.31,3,.79.79,0,0,0,.22.53,12.38,12.38,0,0,0-.7,3.38l-.2.49.05-7.59a.76.76,0,0,0,.74-.38l.67-1.2c0,.14-.08.27-.12.41s-.24.44-.35.67A.83.83,0,0,0,38.23,103.89Zm-.92-3.21,0-6.25a.87.87,0,0,0,.29-.27c.78-1.17,1.6-2.43,2.39-3.73.6-.85,1.24-1.67,1.92-2.45a23.71,23.71,0,0,1-1.24,2.4q-.35.57-.68,1.15a33.89,33.89,0,0,0-1.72,3.12c-.44,1,.89,1.81,1.44.85.82-1.43,1.57-3,2.45-4.37q-.35.95-.76,1.9A36.72,36.72,0,0,0,37.31,100.68Zm.06-9.29V89.83a.78.78,0,0,0,1.08-.3c.74-1.33,1.48-2.66,2.33-3.91-.63,1.29-1.35,2.57-2.1,3.81C38.24,90.07,37.79,90.72,37.37,91.39ZM31,79.6a11.2,11.2,0,0,0-1.23-.1c.66-.6,1.29-1.24,1.9-1.89C31.48,78.27,31.25,78.93,31,79.6Zm1.69-5.36a32.52,32.52,0,0,0-2.37,2.41,17.53,17.53,0,0,0,.92-2.23.77.77,0,0,0,0-.45c.56,0,1.12.07,1.66.14A1,1,0,0,0,32.72,74.23Zm1.15,1.91c.09-.36.18-.72.24-1.08a.9.9,0,0,0-.26-.82,15.94,15.94,0,0,1,4.39,1.37c.33.16.6.38.9.57a.67.67,0,0,0-.35.34A.87.87,0,0,0,37.58,76a7.17,7.17,0,0,0-1.72,1.13,11.12,11.12,0,0,0,.29-1.36c.1-.73-1-1.09-1.42-.6C34.42,75.46,34.16,75.8,33.87,76.14Zm1.37,5.29a6.39,6.39,0,0,0-.83-.65.82.82,0,0,0,.23-.16c.69-.68,1.31-1.39,2-2A22.89,22.89,0,0,1,35.24,81.43Zm3.24,3c.18-1.77.88-3.28,1-5,0,0,0-.06,0-.1.25-.62.5-1.24.77-1.85a.85.85,0,0,0,0-.52A11.83,11.83,0,0,1,42,78.53a.76.76,0,0,0-.71.38,42.9,42.9,0,0,0-3.9,8.56v-.38a9.66,9.66,0,0,0-.2-2A.9.9,0,0,0,38.47,84.39Zm-1.26,31.27v0a.66.66,0,0,0,.67-.6c0-.25.1-.48.16-.73a.92.92,0,0,0,1.37-.1,51.13,51.13,0,0,0,3-5.37c-.8,1.94-1.92,3.78-2.28,5.89a.89.89,0,0,0,.44.94Zm7.6.05-3.52,0a.89.89,0,0,0,.31-.29c.7-1.07,1.28-2.2,1.93-3.27-.18.52-.37,1-.55,1.57a.87.87,0,0,0,1,1c.15.13.32.26.65.51a.57.57,0,0,0,.14.06Zm.07-10.33a.75.75,0,0,0-.86-.69,21.48,21.48,0,0,0,.88-2.16ZM44.94,96a.72.72,0,0,0-.95.21q.53-1,1-2.11Z"/><path class="cls-1" d="M58.09,72.42a.86.86,0,0,0-1.27-.12l-.1.12-6.37,0-.06,8.93,7.33,0v.17a.9.9,0,0,0,0,.74L57.5,98.57l10.94.07.18-26.15Zm-4.57,7.23H52.09a10.58,10.58,0,0,0,1.84-1.45c-.14.32-.29.64-.41,1A.72.72,0,0,0,53.52,79.65Zm-.2-3.19c.21-.68.42-1.37.6-2.07a.85.85,0,0,0,0-.33h1.39C54.67,74.89,54,75.71,53.31,76.46Zm5.94,10.35a.92.92,0,0,0,.52-.24.83.83,0,0,0,.62.75c-.4.75-.82,1.5-1.16,2.26Zm3.5-5.91a.76.76,0,0,0-.51.08,7.52,7.52,0,0,0-2.08,2.08,14.88,14.88,0,0,1,1.36-3.12,15.51,15.51,0,0,1,3.55-3.36A14.23,14.23,0,0,1,62.75,80.89Zm-1-5c-.84,1.33-2,2.53-3,3.8h-.7C59.35,78.42,60.47,77,61.79,75.88Zm-2.29,21c.3-.92.63-1.82,1-2.7a.77.77,0,0,0,.54-.08A10.1,10.1,0,0,0,62.52,93c-.26.6-.52,1.2-.75,1.82-.3.8.83,1.39,1.39.82.13-.13.24-.28.36-.42a6.19,6.19,0,0,0,0,.94.93.93,0,0,0,.53.77Zm7.29,0H64.69a.78.78,0,0,0,.23-.17c.27-.29.52-.59.77-.89a2.64,2.64,0,0,0,1.1-.4Zm.08-12.37-.08.07c-.24.31-.46.62-.69.95a6.77,6.77,0,0,0,.41-2.23.88.88,0,0,0-.88-.84c.44-.79.86-1.59,1.27-2.39Zm.07-9.77a.86.86,0,0,0-1-.46,6.64,6.64,0,0,0-1.63.77.81.81,0,0,0,0-.75c0-.09.07-.17.09-.26l2.56,0Z"/><path class="cls-1" d="M100.84,72.71a.81.81,0,0,0-.85,0l0,0-9.26-.06A.87.87,0,0,0,89.45,72a10.52,10.52,0,0,0-.92.58L75,72.53l-.06,8.93,21,.14L95.83,100c0,3.1-.89,5.46-2.57,7s-4.35,2.38-7.85,2.4A42,42,0,0,1,75.61,108l-.83-.21-1.86,8.44.77.21a51.69,51.69,0,0,0,12.71,1.9,30.76,30.76,0,0,0,4-.24.88.88,0,0,0,.71-.09,21.7,21.7,0,0,0,5.62-1.6.9.9,0,0,0,.7-.19c.19-.15.36-.32.54-.48a16.61,16.61,0,0,0,3.3-2.28c3.6-3.3,5.45-8.39,5.49-15.11L107,72.75Zm-24,39.84a8.21,8.21,0,0,1,1.06-1.76.84.84,0,0,0,.19-.53l.83.16C78.25,111.15,77.56,111.86,76.84,112.55Zm5.48,3.63a.69.69,0,0,0,0,.18c-.37,0-.76-.11-1.13-.16a14.08,14.08,0,0,1,2-2.42A11.92,11.92,0,0,1,82.32,116.18Zm1.48-4.64a5,5,0,0,0-2.15,1.4c.12-.46.23-.93.32-1.41a1,1,0,0,0-.16-.7,33.67,33.67,0,0,0,3.59.25h.14a6.73,6.73,0,0,0-.79.87A.87.87,0,0,0,83.8,111.54Zm1.9,5.05c-.55,0-1.11,0-1.67-.09a23,23,0,0,1,2.21-3.76,31.83,31.83,0,0,1-.55,3.49A.9.9,0,0,0,85.7,116.59Zm3.45-5.91A14.32,14.32,0,0,0,88,112.3c0-.44,0-.88,0-1.33,0,0,0,0,0-.06C88.38,110.85,88.76,110.76,89.15,110.68Zm-1.76,5.91c.81-1.35,1.47-2.75,2.36-4,0,1.29-.07,2.59,0,3.89C89,116.55,88.2,116.57,87.39,116.59ZM101.74,107a.85.85,0,0,0-.17-1l.23-.53a.7.7,0,0,0,.79-.4c.09-.18.17-.37.25-.55-.17.46-.34.89-.49,1.26a37,37,0,0,1-1.91,4C100.87,108.91,101.29,108,101.74,107Zm2.86-14.27a.84.84,0,0,0-.81.56c-.23.62-.48,1.24-.73,1.85a6.16,6.16,0,0,0-.75.31,24,24,0,0,0,2.84-4.88v2.18A.93.93,0,0,0,104.6,92.74Zm-3.37-.91c1.32-2.07,2.78-4.06,4-6.21l0,2.28a.72.72,0,0,0-.83.19C103.25,89.29,102.25,90.57,101.23,91.83Zm4-9.55a.69.69,0,0,0-.27.17,50.54,50.54,0,0,0-4,5.17c1.28-2.44,3.15-4.69,4.28-7.16ZM98.91,92.55a25,25,0,0,0-1.37,2.64l.05-7.76a.67.67,0,0,0,.63-.1,16.91,16.91,0,0,0,2.2-1.91,13.86,13.86,0,0,0-2.46,6.31A.84.84,0,0,0,98.91,92.55Zm-.57,4.89a23.52,23.52,0,0,0,1.82-1.78c-.91,1.23-1.84,2.45-2.65,3.75v-1.8A.89.89,0,0,0,98.34,97.44Zm6.92-21.36,0,2.88a.92.92,0,0,0-1.1,0,23.59,23.59,0,0,0-1.67,1.71A50.21,50.21,0,0,0,105.26,76.08Zm-3.39,2.48c-1.44,2.23-3,4.41-4.26,6.72l0-3.1a.7.7,0,0,0,.41-.13l.17-.13h0A34.66,34.66,0,0,0,101.86,78.57Zm-1.7-.86c-.82.82-1.69,1.62-2.53,2.44v-.2h-.41C98.22,79.22,99.17,78.43,100.16,77.7ZM82,74.25l2.44,0c-1.51,1.06-2.9,2.29-4.38,3.39A11.73,11.73,0,0,0,82,74.25Zm-2.16,5.57c.51-.33,1-.67,1.49-1l0,0a.93.93,0,0,0,.15,1Zm2.81,0a28.4,28.4,0,0,0,4.61-4c-.69,1-1.44,1.93-2.08,2.95a.76.76,0,0,0,.24,1.07Zm8.75.06-5,0,.1-.06c1.1-1,2.21-2.2,3.42-3.2-.53.62-1.07,1.24-1.55,1.9a.84.84,0,0,0,.49,1.23,3.91,3.91,0,0,0,2.64-.6A.91.91,0,0,0,91.37,79.9Zm2.38-5.51a.65.65,0,0,0,0-.06h.83c-.89.8-2,1.94-3,2.77A26.33,26.33,0,0,0,93.74,74.39Zm1.77,4.81a.7.7,0,0,0,0,.73l-2.39,0c1.93-1.5,3.78-3.1,5.77-4.5C97.93,76.79,96.35,78,95.51,79.2Zm-4.35,31.13a.67.67,0,0,0-.1-.17,9.73,9.73,0,0,0,3.32-1.92A8.73,8.73,0,0,0,96.1,106a.87.87,0,0,0,1.53.19l.38-.55c-.5,1-1,2-1.48,2.95l-.31.54-.05-.14a.84.84,0,0,0-1.31-.18,5.39,5.39,0,0,0-.69,1,.82.82,0,0,0-1.42-.05,27.15,27.15,0,0,0-1.37,3.72A13.37,13.37,0,0,0,91.16,110.33ZM93,113.78a.71.71,0,0,0,.18.26,9,9,0,0,0-.27,1.67c0,.06,0,.09,0,.14-.25.06-.48.14-.73.2C92.5,115.31,92.75,114.54,93,113.78Z"/><path class="cls-1" d="M117.48,92.08l-.25.39a17,17,0,0,0-1.77,3.83,13.37,13.37,0,0,0-.52,2.45l0,0a.78.78,0,0,0-.05.71c-.07.81-.12,1.68-.13,2.67l-.11,15.68,10.61.07.11-16.52a35.17,35.17,0,0,1,.83-8.22l.27-1Zm-1.13,18.81a.72.72,0,0,0,.53-.24c1.87-2,3.56-4.76,6.06-6.07-.88,3.34-4.72,5.7-6.24,8.76a.87.87,0,0,0,1,1.24q-.59.78-1.12,1.61h-.22Zm0-5.94,0-2.77c0-.07,0-.14,0-.21a.87.87,0,0,0,.52-.18c1.41-1.11,2.66-2.4,4-3.62C119.35,100.39,117.48,102.42,116.39,105Zm0,1.51a.76.76,0,0,0,1.11,0,50.79,50.79,0,0,1,4.6-5.45c-.9,2.72-3.87,5.4-5.73,7.63Zm7.4-8a.72.72,0,0,0-1-.22l0,0A16.52,16.52,0,0,0,124,96.15Q123.85,97.26,123.78,98.5Zm-5.38-4.74h2.19q-.48.39-.92.81a.86.86,0,0,0-1.35-.29c-.14.12-.25.26-.38.38C118.09,94.37,118.23,94.05,118.41,93.76Zm.4,22.45a29.68,29.68,0,0,0,2.81-3.56l.28-.28a16.6,16.6,0,0,1-1.52,2.35c-.61.84.62,1.55,1.31,1l.35-.19a.8.8,0,0,0,1.31.25c.11-.11.17-.2.25-.29v.72Z"/><path class="cls-1" d="M146.72,77.38c-3.1-2.92-7.61-4.42-13.4-4.45h-.7a.93.93,0,0,0-.93-.42,5.93,5.93,0,0,0-1.32.41L115,72.8l0,6.73c-.13.25-.28.49-.4.74a.88.88,0,0,0,.38,1.17v.29l17.69.12a9,9,0,0,1,5.59,1.54l-.24.3c-.68.82.47,2,1.17,1.19l.2-.25a9.14,9.14,0,0,1,1.1,4.9L140.28,118l10.9.07L151.37,90C151.41,84.55,149.85,80.32,146.72,77.38Zm-4.85,7.7a15.69,15.69,0,0,0,2.36-1.89c-.63,1.45-1.6,2.84-2.18,4.21a.64.64,0,0,0,0,.15,10.67,10.67,0,0,0-.55-2.37A.72.72,0,0,0,141.87,85.08Zm.17,2.83a.89.89,0,0,0,1.4.32c.24-.26.47-.52.71-.78a20.34,20.34,0,0,0-2,4.1v-2A15.2,15.2,0,0,0,142,87.91Zm.08,4.69a.78.78,0,0,0,1.26.17c.4-.48.78-1,1.14-1.48-.83,1.3-1.71,2.58-2.42,3.95Zm0,7.15a1,1,0,0,0,.16-.1c2.33-2,3.51-4.84,5.15-7.35-1.42,4.83-4,9.39-5.35,14.28Zm7.62-10c0,.06,0,.12,0,.18l0,4.76a.94.94,0,0,0-.48.32c-.79,1-1.51,2.09-2.19,3.19A40,40,0,0,0,149.7,89.78Zm-.1,15.82a.89.89,0,0,0-1.41.07c-1.14,1.89-2.07,3.89-3.13,5.81,1.25-3.66,3.3-7.13,4.57-10.8Zm-3.66,7.64a8.75,8.75,0,0,0-.3,2.64.87.87,0,0,0,.19.51h-2.06l0,0A24.73,24.73,0,0,0,145.93,113.24Zm3.65-6.08,0,2.94a.91.91,0,0,0-.36.17,6.59,6.59,0,0,0-.95,1A26.58,26.58,0,0,0,149.59,107.16Zm.07-18.66a.78.78,0,0,0-1.23-.14,11.75,11.75,0,0,0-.88.94,11.53,11.53,0,0,0,1.1-3.24.84.84,0,0,0-1.39-.82c-.12.1-.2.22-.31.32a8.39,8.39,0,0,0,.55-1.95.84.84,0,0,0-1.34-.86,6.63,6.63,0,0,0,.34-2,.85.85,0,0,0-1.42-.6c-.27.23-.53.47-.79.71a8.49,8.49,0,0,0,.34-1.38.85.85,0,0,0-1.22-1c-.18.08-.32.21-.5.31a12.32,12.32,0,0,0,.46-1.41.85.85,0,0,0,0-.51,12.46,12.46,0,0,1,2.24,1.66C148.07,80.94,149.43,84.27,149.66,88.5ZM141,75.86c.45.17.89.35,1.3.55a5.21,5.21,0,0,0-1.94.79Q140.73,76.55,141,75.86Zm-24.35-1.38h2a17,17,0,0,0-2,2.27Zm2.23,5.29a.85.85,0,0,0-.08.31H117.1a32.77,32.77,0,0,1,4.06-3.78A27.41,27.41,0,0,0,118.9,79.78Zm5.18-5.24h1.62c-1,.75-2,1.53-3,2.32A15.16,15.16,0,0,0,124.08,74.54Zm1.19,5.6H123.4c2.64-1,4.27-3.67,6.58-5.12C128.51,76.76,126.32,78,125.27,80.13Zm6.94-5.54h1.1c.43,0,.83,0,1.24,0-.26.46-.54.9-.82,1.34a.88.88,0,0,0-.93-.12,26.71,26.71,0,0,0-4.11,2.4A17.67,17.67,0,0,0,132.21,74.59Zm0,3.48h.19c-.3.47-.59,1-.85,1.46a.86.86,0,0,0,0,.65l-2.64,0C129.94,79.45,131,78.72,132.17,78.07Zm3.66,2.47a25,25,0,0,0,1.83-2.15l.46-.45c-.22.42-.44.83-.64,1.26a.84.84,0,0,0,1.14,1.15c.85-.42,1.71-1.16,2.6-1.7a15.36,15.36,0,0,1-2,3.41A8.43,8.43,0,0,0,135.83,80.55Zm4.63,2.76a18.09,18.09,0,0,1,1.78-1.91,21.5,21.5,0,0,1-1.41,2.39C140.72,83.61,140.57,83.47,140.46,83.31ZM142,110.5a.64.64,0,0,0,.88-.37,89.35,89.35,0,0,1,5.57-11.07c-1.56,5.67-5.42,10.79-6.07,16.69a.7.7,0,0,0,.28.62H142Zm5.08,5.9s.08,0,.11-.08c.7-1.07,1.18-2.24,1.86-3.29a.9.9,0,0,0,.5.09l0,3.3Z"/><path class="cls-1" d="M166.73,73.15l.09-12.66-10.94-.07L155.73,82l21.3.14a1,1,0,0,0,.61,0h2l-2.28,5.42a8.46,8.46,0,0,0-2.15,3.4.81.81,0,0,0,.34.9l-11.07,26.3,7.11,0a.67.67,0,0,0,.51,0l4.05,0,15.53-37.92.11-7Zm-4.18-10.76a.92.92,0,0,0,.07-.25l2.51,0v2.21a.88.88,0,0,0-1,.31c-.44.57-.86,1.15-1.28,1.73a15.9,15.9,0,0,0,1.21-3,.84.84,0,0,0-1.22-1c-.19.13-.35.28-.53.41C162.38,62.71,162.47,62.55,162.55,62.39Zm2.55,5.26v2.18a.69.69,0,0,0-.23.19,51.93,51.93,0,0,0-3,4.29C162.85,72.05,164.05,69.81,165.1,67.65Zm-5.68-5.41a.76.76,0,0,0,0-.12h1.32a25.5,25.5,0,0,1-2.2,3.32A21,21,0,0,1,159.42,62.24Zm.6,17.6a.72.72,0,0,0,0,.52l-2.6,0,0-6.35a.85.85,0,0,0,.23-.09.87.87,0,0,0,1.13.1c-.32.57-.63,1.14-1,1.71-.51.87.56,1.53,1.24,1a20.92,20.92,0,0,0-.62,2.22c-.16.75.79,1.49,1.39.82.13-.15.24-.31.37-.46C160.16,79.5,160.09,79.67,160,79.84ZM158.42,71a.87.87,0,0,0-.85.55c0,.05-.06.09-.09.14l0-3.26h.05c.18.56.94,1,1.38.4.73-.93,1.43-1.84,2.2-2.68C160.27,67.79,159.25,69.36,158.42,71Zm6,9.38-2.79,0,.56-.79a.76.76,0,0,0,1.17-.23,16.57,16.57,0,0,1,1.27-2.1c-.09.43-.17.86-.29,1.28a.84.84,0,0,0,1.52.65l.05-.08a1,1,0,0,0,.85.51A16.9,16.9,0,0,1,164.41,80.39ZM169,74.88s0,0,0,0l2.76,0-.1,0A6.08,6.08,0,0,0,170.22,76a.74.74,0,0,0-.91-.44,5,5,0,0,0-.62.27C168.8,75.54,168.93,75.22,169,74.88Zm4.47,5.58-4.35,0,1.7-.73a.77.77,0,0,0,1.3.26c.61-.71,1.15-1.58,1.76-2.34a11.53,11.53,0,0,0-.5,2.48A.69.69,0,0,0,173.5,80.46Zm-.58-4.23c0-.2,0-.4,0-.61a.83.83,0,0,0-.53-.75h2A6,6,0,0,0,172.93,76.23Zm3.77,4.25h-1.6a21.29,21.29,0,0,0,2.26-2.36C177.1,78.89,176.87,79.67,176.69,80.48Zm-1-3a16.61,16.61,0,0,0,.51-1.93.86.86,0,0,0-.15-.67h2.06A26.1,26.1,0,0,0,175.68,77.48Zm3.86-2.57,6.9,0a15,15,0,0,0-2.06,2,.78.78,0,0,0-.36.17,6.93,6.93,0,0,0,.26-1c.08-.56-.35-1.27-1-1a10.39,10.39,0,0,0-4.32,3.34,13.57,13.57,0,0,0,.71-3A.7.7,0,0,0,179.54,74.91Zm-.26,5.59a17.48,17.48,0,0,1,2.8-2.93c-.42,1-.94,1.95-1.37,2.94ZM168,116.18a.79.79,0,0,0-.16.35H167l2.25-5.34a.86.86,0,0,0,1,.65c-.85,1-1.68,2-2.47,3A.88.88,0,0,0,168,116.18Zm3.32.38H170.3l1.85-1.38C171.87,115.62,171.61,116.09,171.36,116.56Zm2.38-16.13a.7.7,0,0,0,.78.2q-1.06,1.39-2.05,2.83Zm2.6,8.09a11.15,11.15,0,0,0-1.12,2.15l-1.61,1.28C174.5,110.79,175.4,109.64,176.34,108.52Zm0,4.72a.86.86,0,0,0-.22.11c-.51.39-1,.76-1.54,1.14.37-.52.75-1,1.15-1.54a.68.68,0,0,0,.71-.59c0-.15.08-.28.12-.42l.54-.65a1,1,0,0,0,.16-.28Zm-.94-16.81,2.3-5.46c1-.84,2-1.82,3-2.6a14.47,14.47,0,0,0-1.8,4C177.75,93.72,176.49,95.07,175.42,96.43Zm5.62-.54a.79.79,0,0,0-.73.21c-.18.16-.33.35-.5.52a16.8,16.8,0,0,0,1.32-2q.56-.86,1.14-1.7a.78.78,0,0,0,.19-.08,12.07,12.07,0,0,0,1.92-2.27C183.33,92.39,182.19,94.16,181,95.89Zm5.75-18.72c1-1,2.8-3,2.19-.49v0a.8.8,0,0,0-.89-.07A12.78,12.78,0,0,0,185.2,79,21.44,21.44,0,0,1,186.79,77.17ZM190,79.86l-1.93,4.72a.79.79,0,0,0-.59.07l-.14.1c.17-.37.33-.73.48-1.11a.76.76,0,0,0-.45-1q.6-.71,1.16-1.42h0l.13-.17a.64.64,0,0,0,0-.81c.45-.65.91-1.3,1.3-2Z"/><path class="cls-1" d="M192,140l-.79-.08-.31,0c-.32.17-.65.33-1,.51.13-.15.25-.31.37-.46l-1.1.1c-.15.17-.31.33-.47.5h-.88l.13-.17.42-.28-1.7.08c-.17.12-.33.26-.49.38h-1.15l.23-.35h-1.11l-.33.35h-1.34l.22-.3a.3.3,0,0,0,0-.08l-1,0-.43.41h-3.37c0-.06,0-.13,0-.19,0-.28-.36-.44-.63-.31s-.64.32-1,.5H174l.78-.84-1.21.06-.84.77h-2a.44.44,0,0,0-.38-.23,2.74,2.74,0,0,0-1.14.23h-1.61l.11-.13a.28.28,0,0,0-.08-.43l-.61,0-.61.53h-1.73c.12-.16.26-.32.38-.48l-1.66,0-.49.45H160a.45.45,0,0,0-.65-.1l-.13.1h-5a.3.3,0,0,0-.05-.38h-.33l-.29,0-.56.41h-5.81l.1-.11c.3-.32-.06-.73-.51-.56a10.13,10.13,0,0,0-1.4.67h-2.88a.36.36,0,0,0-.4,0h-12a1.06,1.06,0,0,1-.55-.3l-.48.3H126.8v1.79c-.12.11-.24.22-.34.34a1,1,0,0,1,.07.49c0,.3,0,.6-.06.9a1.22,1.22,0,0,1,.33.24v3.56l-.09.13c0,.16,0,.31-.07.47s0,.31,0,.47,0,.44,0,.66l.14-.16v.76h0a.28.28,0,0,0,0,.37v3h6.59l0,.09a.34.34,0,0,0,0,.11,11.46,11.46,0,0,1,1.37-.07l.18-.12H141a.29.29,0,0,0-.1.23h.17a1.69,1.69,0,0,1,.43.06H142l.52-.27h5.38l-.44.53,1.07-.07c.14-.16.29-.3.43-.46h.87c-.34.15-.69.3-1,.44.67,0,1.34-.06,2-.07l.73-.37h3c-.16.17-.32.33-.47.51a1.36,1.36,0,0,1,.39.27l1.2-.11.62-.67h1.48a.4.4,0,0,0,.68.34l.37-.34h.95a3.71,3.71,0,0,0-.1.48h1.68l.56-.48h2c-.15.18-.31.36-.45.55l1,0,.57-.6h5.8l-.89.67,1.48-.16.69-.51h12.24a1.14,1.14,0,0,1,.63.44c.15-.14.31-.29.46-.44H191v-13c.26-.14.51-.28.78-.41A.31.31,0,0,0,192,140Zm-3.92,1.32q-.91.94-1.86,1.86-.62.55-1.22,1.12,1.2-1.47,2.32-3ZM182.83,153h-1.21c.49-.42,1-.84,1.45-1.28a.41.41,0,0,0,.34-.09,45.64,45.64,0,0,0,3.86-3.85l.62-.55c.42-.32.85-.63,1.3-.92C187.15,148.57,184.24,150.35,182.83,153Zm6.3-4.46c-.07.14-.17.27-.25.4l-2.14,1.82c.4-.43.81-.86,1.18-1.3S188.72,148.81,189.13,148.52ZM186.3,153h-.14l.05,0Zm.52-5.9a29.29,29.29,0,0,0-2.7,2.58c-1.19,1.14-2.41,2.25-3.68,3.32h-.38a14.72,14.72,0,0,1,1.1-1.48l.54-.68a.42.42,0,0,0,.44-.07,48.67,48.67,0,0,0,5.55-5.51q.58-.45,1.18-.87A25.29,25.29,0,0,1,186.82,147.08Zm-11,5.9a16.65,16.65,0,0,0,2.87-2.77A19.43,19.43,0,0,0,177,153Zm-2.41,0c.54-.5,1.07-1,1.59-1.54l1.3-1c-.65.84-1.28,1.69-1.86,2.56Zm4.71-6.39c-1,1-2,2-2.93,3.09-.32.3-.64.62-1,.93.8-1,1.88-2,2.37-2.56.85-1,1.7-2,2.54-3.08a33.56,33.56,0,0,1,2.79-2.26l-2.1,2.38C179.22,145.62,178.6,146.11,178.13,146.59ZM169.75,153h-.16l.25-.13Zm-.33-.71a24.61,24.61,0,0,1,3.38-4.63l1.74-1.76a36.55,36.55,0,0,1,3.59-2.44,3.3,3.3,0,0,1-.45.69l-1.08,1.1c-.63.56-1.28,1.07-1.68,1.48-1.22,1.28-2.38,2.61-3.47,4A9.06,9.06,0,0,1,169.42,152.27Zm7.52-10.94a4.93,4.93,0,0,1-.48,1l-.56.44c-1.16.86-2.24,1.79-3.31,2.73a24.55,24.55,0,0,0,1.66-2.46,19.9,19.9,0,0,1,2.45-1.68Zm2.26,2.38-.51.65c-.84.75-1.64,1.52-2.43,2.31.53-.55,1.07-1.09,1.6-1.63l.18-.19Zm6.1-2.38q-.59.51-1.13,1.07c-.16,0-.31.11-.46.17q.45-.61.88-1.24Zm-2.22.12a.52.52,0,0,0-.23-.12h.34Zm-.43-.12-.1,0c-.41.26-.8.54-1.19.82.21-.28.41-.57.62-.86Zm-2.08,0-1.45,1.41s0,0,0-.06a.43.43,0,0,0-.63-.31c-.37.21-.73.43-1.1.66l.63-.62a.33.33,0,0,0-.09-.56.76.76,0,0,0-.3-.06,4.29,4.29,0,0,0,.16-.45Zm-5.32,0c-.37.25-.72.51-1.07.78a.45.45,0,0,0-.36.09c-1.12.87-2.24,1.75-3.34,2.65.32-.38.64-.76.95-1.14a.26.26,0,0,0,0-.29q.91-1,1.84-2.08Zm-4.57,1.12a.42.42,0,0,0-.69-.25l-.84.68c.4-.51.79-1,1.17-1.54h1.58Zm-2.38-.51a4.74,4.74,0,0,1,1-.61h0q-.79,1.07-1.63,2.11c.24-.36.47-.72.67-1.1A.34.34,0,0,0,168.3,141.93Zm-.36-.61a11.87,11.87,0,0,0-1.13,1,14,14,0,0,0-2,1.43l2.08-2.47Zm-1.21,6.33a65.37,65.37,0,0,1-5.24,5.33h-.59a10.07,10.07,0,0,1,1.3-1.87c1.51-1.39,3-2.81,4.59-4.14A1.6,1.6,0,0,0,166.73,147.65Zm-1.26-6.33-.51.42a6.84,6.84,0,0,0-3.16,2.15c.78-.83,1.51-1.69,2.22-2.57Zm-13.67,3.8c-.55.6-1.1,1.2-1.63,1.81h0a.44.44,0,0,0-.29-.16C150.51,146.22,151.15,145.66,151.8,145.12Zm-.75-.4a7.85,7.85,0,0,1,2.83-2.18C152.9,143.24,152,144,151,144.72Zm1.33,4.74-.3.4c-.46.37-.91.74-1.35,1.12a10,10,0,0,1-1.51.81,7,7,0,0,1,.45-.87A28.56,28.56,0,0,0,152.37,149.47Zm-.16-1.51c1.87-1.78,3.68-3.61,5.66-5.3-1.3,1.78-2.79,3.45-4.21,5.17h0A5.5,5.5,0,0,0,152.21,148Zm1.93-3.2c-.41.43-.82.89-1.24,1.36l-.14,0a11.61,11.61,0,0,0-1.7.92c1.67-1.42,3.41-2.81,4.23-4.69a.26.26,0,0,0-.13-.36.4.4,0,0,0-.28-.23,2.49,2.49,0,0,0-1.7.26q.31-.36.59-.74h4.06A17.77,17.77,0,0,0,154.14,144.76Zm6-3.44h1.14a12.08,12.08,0,0,0-2.11,1.7A18,18,0,0,0,160.15,141.32Zm-8.1,0q-1.31,1-2.58,2a5.67,5.67,0,0,0,.27-.91c.06-.32-.25-.52-.59-.41a.53.53,0,0,0-.31,0,21.87,21.87,0,0,0-4.19,2.12.48.48,0,0,0-.49,0l-1.11.8.34-.39q1.6-1.61,3.16-3.26Zm-4.16,3.25-1.5,1.2-.64.52a.52.52,0,0,0-.16,0l-.77,0c1.26-1,2.56-2,3.82-3.08A7.13,7.13,0,0,1,147.89,144.57Zm.66,3.49-1.13,1.32-.1.07-.65.21.51-.51,1-.87Zm-20.91-4.45c.33-.39.66-.78,1-1.15s.66-.72,1.08-1.14h.6c-.41.48-.83,1-1.24,1.4-.23.25-.8.94-1.45,1.57Zm3.42.11a27.39,27.39,0,0,0,2-2.4h.16c-.2.32-.39.64-.6,1q-.84.76-1.63,1.55Zm7.4-1.19a3,3,0,0,0,0-.48,7,7,0,0,1,1-.38,6.73,6.73,0,0,1-.48,1.8l-.78.95-.48.22c.45-.52.89-1.05,1.28-1.61C139.22,142.72,138.8,142.4,138.46,142.53Zm-.68,5.58q.52-.48,1-1c.59-.51,1.17-1,1.74-1.52l.9-.82c.59-.47,1.16-1,1.7-1.46a.31.31,0,0,0,.09-.17l.26-.22h0a3.55,3.55,0,0,1-.47.94q-1.27,1.29-2.57,2.56c-.55.45-1.07.86-1.46,1.21-.9.8-1.84,1.62-2.72,2.48C136.82,149.45,137.31,148.78,137.78,148.11Zm2.46-6a6.44,6.44,0,0,0,.09-.81h.82C140.83,141.58,140.53,141.85,140.24,142.14Zm-2.51-.52h0a5.49,5.49,0,0,0-2.31,1.08c.35-.45.69-.91,1-1.37h1.9C138.13,141.41,137.93,141.51,137.73,141.61Zm-2.39-.19a.43.43,0,0,0-.21.05l-.51.31.51-.45h.28Zm-3.56,4.13q.47-.55.91-1.11a12.41,12.41,0,0,1,1.32-1.28q-1.08,1.36-2.21,2.7l-.61.52Q131.49,145.95,131.79,145.54Zm4.69.48.68-.32-.59.71c-.58.67-1.15,1.4-1.75,2.13l-.6.5a17,17,0,0,0-1.35,1.05A49.49,49.49,0,0,1,136.48,146Zm.19,5.19.16-.12c-.15.21-.3.43-.44.64q-.69.54-1.44,1a16.05,16.05,0,0,1,1.25-1.5A.47.47,0,0,0,136.67,151.21Zm1.28,1.21-.06.05a.31.31,0,0,0,0,.51h-.83C137.39,152.8,137.68,152.61,138,152.42Zm5.29-.83,1-.35a.51.51,0,0,0,.25.06c-.86.54-1.71,1.09-2.52,1.68h-2.28A23.43,23.43,0,0,0,143.25,151.59Zm-.28-9.25-.73.3.91-1.32h1.14C143.83,141.64,143.38,142,143,142.34Zm-14.92-1-.4.32v-.32Zm-.4,9.24.12-.09a.41.41,0,0,0,.7.32q1-1.09,2-2.19l.31-.11a.42.42,0,0,0,.7.3c.31-.29.62-.62.93-1l0,0-.82,1c-1.06,1.23-2.65,2.53-3,4.1a.36.36,0,0,0,0,.11h-1Zm2.27,2.41h-.36l.57-.68c-.07.15-.15.29-.22.44A.26.26,0,0,0,129.91,153Zm.82,0,.54-.45h0l.18-.1a.45.45,0,0,0,.63.07c1-.72,1.91-1.47,2.85-2.22l-.54.72c-.22.29.2.64.52.52a13.93,13.93,0,0,0-1.12,1.47Zm5.39-.13a.36.36,0,0,0,0,.13h-.2Zm7.75.13.92-.52c-.09.3.42.55.72.32s.39-.32.58-.48l.36-.11a.46.46,0,0,0,.66.1c.29-.21.57-.42.85-.64l.49-.2a6.09,6.09,0,0,0-.33.88.39.39,0,0,0,.52.44l.2-.07-.27.28Zm5.79,0q.6-.59,1.24-1.14c-.14.29.28.56.61.42a9.64,9.64,0,0,0,3.42-3c1-.95,1.89-2,2.86-2.87l2.11-2c-.91,1.14-1.94,2.21-2.93,3.27-.67.72-1.42,1.42-2.06,2.17l-.32.34a.38.38,0,0,0-.09.17,6,6,0,0,0-.74,1.29c-.78.46-1.57.91-2.38,1.32Zm10.28-5.86,0,.1c-.43.46-.84.94-1.25,1.41l-1.13.7.66-.67.53-.48Zm-6.27,5.44a.43.43,0,0,0,.59,0c.33-.31.64-.62,1-.94l1.73-1.08-1.88,2.19a.24.24,0,0,0-.05.23h-2.11Zm7-3.77.63-.57a16.81,16.81,0,0,0,4.07-3.27c.36-.34.81-.86,1.31-1.41a48.58,48.58,0,0,1-3.59,4.24c-.8.89-1.54,1.81-2.31,2.72s-1.61,1.66-2.4,2.49h-1.43Q158.82,150.91,160.64,148.79ZM159.53,153c.61-.62,1.18-1.26,1.74-1.91h0A9.15,9.15,0,0,0,160,153Zm1,.83,0-.11h.08Zm2.34-.83q.81-.9,1.64-1.79c1.18-1.21,2.42-2.37,3.71-3.5a28,28,0,0,0,3.79-2.86,48,48,0,0,1-4.22,4.83,41,41,0,0,0-3.38,3.31Zm5.08-2.37,2-1.73q-1.38,1.34-2.66,2.75c-.32.35.19.83.59.51s.93-.78,1.38-1.17a14.63,14.63,0,0,0-1.06,2s0,0,0,.06h-2.52Q166.82,151.79,168,150.61Zm3,2.37q1-.94,2-1.91a3.08,3.08,0,0,0-.52,1.37l-.72.54Zm7.72,0c.26-.23.5-.47.75-.7a4.88,4.88,0,0,0-.35.7Zm8.2,0a8.18,8.18,0,0,0,3.28-1.89q0-.48,0-1a11.25,11.25,0,0,1-2.2,1.64c.69-.64,1.45-1.24,2.17-1.85h0c0-.91-.08-1.82-.11-2.73a.38.38,0,0,0-.3,0l-.17.11c.16-.23.31-.46.46-.69a20.62,20.62,0,0,1,.06-2.08l-.71.49c.28-.41.54-.84.79-1.27l0-.1V153Zm3.3-11.66v1.42a.37.37,0,0,0-.3,0c-.35.21-.69.44-1,.66.09-.16.19-.32.28-.49a.25.25,0,0,0,0-.23c.21-.23.42-.46.62-.7s0-.39-.17-.48l.38-.23Z"/></g></g></svg>