<svg xmlns="http://www.w3.org/2000/svg" viewBox="0 0 151.61 4.56"><defs><style>.cls-1{fill:#56ac86;}</style></defs><title>Asset 3</title><g id="Layer_2" data-name="Layer 2"><g id="art"><path class="cls-1" d="M2.84,1.6H2.4c-.15.71.83.52.44,0m-1.09.59a.84.84,0,0,0-.11-.6H1.31c0,.39.13.57.43.6M.11,2.78A2.45,2.45,0,0,1,.23,1C.87-.32,2.75,0,3.6.88,4.88,3.51,1.33,4.18.11,2.78"/><path class="cls-1" d="M92.2,2.28c-.2-.26-.36-.55-.87-.48-.21.67.7,1,.87.48M90,.73c1.46-.84,3.61-1.19,3.59,1,0,1.31-1.45,2-2.83,1.78-.83-.22-1-1.71-.76-2.74"/><path class="cls-1" d="M140,2.12c.27.1.43.33.76.36a2.08,2.08,0,0,0,.55-1.07,1.11,1.11,0,0,0-1-.36c.15.64-.21.73-.33,1.07M139.23.33c1.74-1.07,3.8.69,3.26,2a3.14,3.14,0,0,1-2.94,1.19c-.87-.3-1.07-2.36-.32-3.22"/><path class="cls-1" d="M81.74,1.55h-.44c-.15.71.83.52.44,0m-1.09.59a.84.84,0,0,0-.11-.6h-.33c0,.39.13.57.43.6M79,2.73A2.45,2.45,0,0,1,79.13.95c.64-1.32,2.52-1,3.38-.11,1.28,2.63-2.27,3.3-3.49,1.9"/><path class="cls-1" d="M131.06,2.94c-.85-.5-.78.47,0,0m0-1.31a.46.46,0,1,0,.87,0c-.25-.08-.66-.24-.87,0M130.85.2a1.87,1.87,0,0,1,2.28,1.55c.09,1.35-2.87,3.26-3.7,1.42a2.42,2.42,0,0,1,1.42-3"/><path class="cls-1" d="M100.58,2.77c.26,0,.32.21.65.12.26-.49,0-1.29-.65-1.19-.21.25-.08.79,0,1.07m1.74-.47a1,1,0,0,0-.87-1.43,1.81,1.81,0,0,0,.87,1.43M100,4c-2.69-2.32,2.39-5.52,2.94-2.62C103.3,3,101.55,3.92,100,4"/><path class="cls-1" d="M121.7,2c0,.85,1.47,1,1.42,0-.28-.66-1-.15-1.42,0m-1.2,1.31C119-.09,124.79-.16,124.1,2.69c-.25,1-2.62,1.26-3.59.59"/><path class="cls-1" d="M111.36,1a2.11,2.11,0,0,1,2.39,2c-.08,1-2.81,2.29-3.7.95-.73-1.09.24-2.68,1.31-3"/><path class="cls-1" d="M149.76.83c2.45-.44,2.4,3.43.21,3.34-1.79-.08-2.33-3-.21-3.34"/><path class="cls-1" d="M13,2.28c-.2-.26-.36-.55-.87-.48-.21.67.7,1,.87.48M10.79.73c1.46-.84,3.61-1.19,3.59,1,0,1.31-1.45,2-2.83,1.78-.83-.22-1-1.71-.76-2.74"/><path class="cls-1" d="M62.61,2.12c.27.1.43.33.76.36a2.08,2.08,0,0,0,.55-1.07,1.11,1.11,0,0,0-1-.36c.15.64-.21.73-.33,1.07M61.85.33c1.74-1.07,3.8.69,3.26,2a3.14,3.14,0,0,1-2.94,1.19c-.87-.3-1.07-2.36-.32-3.22"/><path class="cls-1" d="M53.68,2.94c-.85-.5-.78.47,0,0m0-1.31a.46.46,0,1,0,.87,0c-.25-.08-.66-.24-.87,0M53.47.2a1.87,1.87,0,0,1,2.28,1.55C55.84,3.1,52.89,5,52,3.18a2.42,2.42,0,0,1,1.42-3"/><path class="cls-1" d="M23.2,2.77c.26,0,.32.21.65.12.26-.49,0-1.29-.65-1.19-.21.25-.08.79,0,1.07m1.74-.47A1,1,0,0,0,24.07.86a1.81,1.81,0,0,0,.87,1.43M22.65,4C20,1.65,25-1.55,25.59,1.34,25.92,3,24.17,3.92,22.65,4"/><path class="cls-1" d="M44.32,2c0,.85,1.47,1,1.42,0-.28-.66-1-.15-1.42,0m-1.2,1.31C41.6-.09,47.41-.16,46.71,2.69c-.25,1-2.62,1.26-3.59.59"/><path class="cls-1" d="M34,1a2.11,2.11,0,0,1,2.39,2c-.08,1-2.81,2.29-3.7.95-.73-1.09.24-2.68,1.31-3"/><path class="cls-1" d="M72.38.83c2.45-.44,2.4,3.43.21,3.34-1.79-.08-2.33-3-.21-3.34"/></g></g></svg>