<svg xmlns="http://www.w3.org/2000/svg" viewBox="0 0 24 24"><defs><style>.cls-1{fill:none;}</style></defs><title>Asset 1</title><g id="Layer_2" data-name="Layer 2"><g id="Layer_1-2" data-name="Layer 1"><path class="cls-1" d="M0,0H24V24H0ZM0,0H24V24H0ZM0,0H24V24H0ZM0,0H24V24H0Z"/><path d="M12,7a5,5,0,0,1,5,5,4.85,4.85,0,0,1-.36,1.83l2.92,2.92A11.82,11.82,0,0,0,23,12,11.83,11.83,0,0,0,12,4.5a11.65,11.65,0,0,0-4,.7l2.16,2.16A4.85,4.85,0,0,1,12,7ZM2,4.27,4.28,6.55,4.74,7A11.8,11.8,0,0,0,1,12a11.82,11.82,0,0,0,15.38,6.66l.42.42L19.73,22,21,20.73,3.27,3ZM7.53,9.8l1.55,1.55A2.82,2.82,0,0,0,9,12a3,3,0,0,0,3,3,2.82,2.82,0,0,0,.65-.08l1.55,1.55A5,5,0,0,1,7.53,9.8ZM11.84,9,15,12.17,15,12a3,3,0,0,0-3-3Z"/></g></g></svg>