<svg id="Layer_1" data-name="Layer 1" xmlns="http://www.w3.org/2000/svg" viewBox="0 0 24 24"><defs><style>.cls-1{fill:none;}.cls-2{opacity:0.3;isolation:isolate;}</style></defs><title>Artboard 1</title><g id="Bounding_Boxes" data-name="Bounding Boxes"><path class="cls-1" d="M0,0H24V24H0Z"/></g><g id="Duotone"><path class="cls-2" d="M12,4a8,8,0,1,0,8,8A8,8,0,0,0,12,4Zm5,9H13v4H11V13H7V11h4V7h2v4h4Z"/><polygon points="13 7 11 7 11 11 7 11 7 13 11 13 11 17 13 17 13 13 17 13 17 11 13 11 13 7"/><path d="M12,2A10,10,0,1,0,22,12,10,10,0,0,0,12,2Zm0,18a8,8,0,1,1,8-8A8,8,0,0,1,12,20Z"/></g></svg>