<svg xmlns="http://www.w3.org/2000/svg" viewBox="0 0 28.53 17.31"><defs><style>.cls-1{fill:#fcc130;}</style></defs><title>Asset 32</title><g id="Layer_2" data-name="Layer 2"><g id="instaraction"><path class="cls-1" d="M4.3,1.76c0-.11.08-.22.25-.24s.31.41.06.47c-.06-.11-.31-.08-.31-.24m-1,.62a1.37,1.37,0,0,1,.31-.24c1.27.67,2.9,1.08,3.61,2.19,0,0-.05.06-.12,0a33.93,33.93,0,0,1-3.8-2M9,6.22a1.51,1.51,0,0,0-.81-.33C6.75,5.16,5.45,4.3,3.86,3.66c-.11-.34-.73-.3-.81-.67,1.71.62,2.8,1.73,5,2,.39.41.83.79,1.18,1.24Zm-1.87.1c-.19,0-.22-.15-.5-.1-.4-.52-1.44-.7-2.05-1A3.22,3.22,0,0,1,3.42,4c2.07,1,4.06,2.1,6.22,3a1.33,1.33,0,0,0,.44,0,4.68,4.68,0,0,1,1.24,1.19s-.05.06-.12,0c-1.27-.72-2.76-1.28-4-2m5.17,3.52a54.88,54.88,0,0,0-6-2.95c-.11-.2-.39-.27-.44-.52A7.6,7.6,0,0,1,7.22,7c1.86.58,3,1.68,5,2.14.15.16.42.36.25.62a.35.35,0,0,0-.19,0M9.71,9.46c-.92-.46-2-.78-2.49-1.57,1.42.59,2.68,1.36,4,2,.24.13.61.15.69.43-.49.42-1.8-.67-2.18-.9M9.59,10.6A18.42,18.42,0,0,0,8,9.41,13.12,13.12,0,0,1,11.08,11c-.59.43-.92-.39-1.49-.43m-3-.09a3.62,3.62,0,0,1,1.25.9,1.77,1.77,0,0,1-1.25-.9m1.12-.19c-.31,0-.49-.23-.37-.38.38-.08.57.24.81.38l2.12,1.28c-.61.85-2.2-1-2.55-1.28M8,11.55c.53.21,1.09.4,1.31.86A1.76,1.76,0,0,1,8,11.55m.13,1.57c-.54-.17-.68-.5-1.12-.86s-1.43-.76-1.06-1.19c.94.53,1.76,1.16,2.61,1.76a.42.42,0,0,1-.44.29m-.93.57A13,13,0,0,1,5.1,11.83,9.34,9.34,0,0,1,6.72,13a1.29,1.29,0,0,1,.81.57c0,.12-.21.09-.37.1M5.79,13.3c.47.35,1.33.94.44,1.14-.2-.05-.32-.33-.62-.48s-.23-.14-.43-.38c-.38-.45-1.45-.66-.68-1.14.22.22.81.49,1.31.86m-.44,1.81c-.53-.57-1.39-.91-1.74-1.62a6.6,6.6,0,0,1,2.12,1.43c-.15,0-.13.22-.37.19M5.23,17.3A8.62,8.62,0,0,0,7,15.54a74,74,0,0,0,7.72-5.8c0-.23-.1-.4-.12-.62-.13,0-.18-.14-.37-.14A23.28,23.28,0,0,0,10.83,5.7C9.65,4.12,7.75,3.08,6.72,1.38,5.9.9,5,.47,4.17,0,3.28.12,3.06.78,2,.52V1a7.21,7.21,0,0,0-1.06.9c-.3.29-.91.62-.93,1,0,.56,1.12,1.26,1.62,1.71A16,16,0,0,0,3.3,6.18c.79,1.08,1.9,1.9,2.68,3a34.85,34.85,0,0,0-4.48,4.47c-.1.29.08.46.12.76a10.63,10.63,0,0,1,2.49,2.8c.47,0,.63.15,1.12.1"/><path class="cls-1" d="M18.13,1.76c0-.11.08-.22.25-.24s.31.41.06.47c-.06-.11-.31-.08-.31-.24m-1,.62a1.37,1.37,0,0,1,.31-.24c1.27.67,2.9,1.08,3.61,2.19,0,0-.05.06-.12,0a33.93,33.93,0,0,1-3.8-2m5.73,3.85a1.51,1.51,0,0,0-.81-.33c-1.46-.74-2.77-1.59-4.36-2.23-.11-.34-.73-.3-.81-.67,1.71.62,2.8,1.73,5,2,.39.41.83.79,1.18,1.24ZM21,6.32c-.19,0-.22-.15-.5-.1-.4-.52-1.44-.7-2.05-1A3.22,3.22,0,0,1,17.26,4c2.07,1,4.06,2.1,6.22,3a1.33,1.33,0,0,0,.44,0,4.68,4.68,0,0,1,1.24,1.19s-.05.06-.12,0c-1.27-.72-2.76-1.28-4-2m5.17,3.52a54.88,54.88,0,0,0-6-2.95c-.11-.2-.39-.27-.44-.52A7.6,7.6,0,0,1,21.06,7c1.86.58,3,1.68,5,2.14.15.16.42.36.25.62a.35.35,0,0,0-.19,0m-2.61-.38c-.92-.46-2-.78-2.49-1.57,1.42.59,2.68,1.36,4,2,.24.13.61.15.69.43-.49.42-1.8-.67-2.18-.9m-.12,1.14a18.42,18.42,0,0,0-1.56-1.19A13.12,13.12,0,0,1,24.92,11c-.59.43-.92-.39-1.49-.43m-3-.09a3.62,3.62,0,0,1,1.25.9,1.77,1.77,0,0,1-1.25-.9m1.12-.19c-.31,0-.49-.23-.37-.38.38-.08.57.24.81.38l2.12,1.28c-.61.85-2.2-1-2.55-1.28m.25,1.24c.53.21,1.09.4,1.31.86a1.76,1.76,0,0,1-1.31-.86m.13,1.57c-.54-.17-.68-.5-1.12-.86s-1.43-.76-1.06-1.19c.94.53,1.76,1.16,2.61,1.76a.42.42,0,0,1-.44.29m-.93.57a13,13,0,0,1-2.05-1.85A9.34,9.34,0,0,1,20.56,13a1.29,1.29,0,0,1,.81.57c0,.12-.21.09-.37.1m-1.37-.38c.47.35,1.33.94.44,1.14-.2-.05-.32-.33-.62-.48s-.23-.14-.43-.38c-.38-.45-1.45-.66-.68-1.14.22.22.81.49,1.31.86m-.44,1.81c-.53-.57-1.39-.91-1.74-1.62a6.6,6.6,0,0,1,2.12,1.43c-.15,0-.13.22-.37.19m-.12,2.19a8.62,8.62,0,0,0,1.74-1.76,74,74,0,0,0,7.72-5.8c0-.23-.1-.4-.12-.62-.13,0-.18-.14-.37-.14A23.28,23.28,0,0,0,24.67,5.7c-1.18-1.59-3.08-2.62-4.11-4.32C19.73.9,18.84.47,18,0c-.89.12-1.11.78-2.18.52V1a7.21,7.21,0,0,0-1.06.9c-.3.29-.91.62-.93,1,0,.56,1.12,1.26,1.62,1.71a16,16,0,0,0,1.68,1.62c.79,1.08,1.9,1.9,2.68,3a34.85,34.85,0,0,0-4.48,4.47c-.1.29.08.46.12.76a10.63,10.63,0,0,1,2.49,2.8c.47,0,.63.15,1.12.1"/></g></g></svg>