<svg xmlns="http://www.w3.org/2000/svg" viewBox="0 0 28.53 17.31"><defs><style>.cls-1{fill:#fcc130;}</style></defs><title>Asset 33</title><g id="Layer_2" data-name="Layer 2"><g id="instaraction"><path class="cls-1" d="M24.23,15.55c0,.11-.08.22-.25.24s-.31-.41-.06-.47c.06.11.31.08.31.24m1-.62a1.37,1.37,0,0,1-.31.24C23.64,14.49,22,14.09,21.3,13c0,0,.05-.06.12,0a33.93,33.93,0,0,1,3.8,2M19.5,11.08a1.51,1.51,0,0,0,.81.33c1.46.74,2.77,1.59,4.36,2.23.11.34.73.3.81.67-1.71-.62-2.8-1.73-5-2-.39-.41-.83-.79-1.18-1.24Zm1.87-.1c.19,0,.22.15.5.1.4.52,1.44.7,2.05,1a3.22,3.22,0,0,1,1.18,1.19c-2.07-1-4.06-2.1-6.22-3a1.33,1.33,0,0,0-.44,0A4.68,4.68,0,0,1,17.2,9s.05-.06.12,0c1.27.72,2.76,1.28,4,2M16.2,7.47a54.88,54.88,0,0,0,6,2.95c.11.2.39.27.44.52a7.6,7.6,0,0,1-1.37-.67c-1.86-.58-3-1.68-5-2.14-.15-.16-.42-.36-.25-.62a.35.35,0,0,0,.19,0m2.61.38c.92.46,2,.78,2.49,1.57-1.42-.59-2.68-1.36-4-2-.24-.13-.61-.15-.69-.43.49-.42,1.8.67,2.18.9m.12-1.14A18.42,18.42,0,0,0,20.5,7.9a13.12,13.12,0,0,1-3.05-1.62c.59-.43.92.39,1.49.43m3,.09a3.62,3.62,0,0,1-1.25-.9,1.77,1.77,0,0,1,1.25.9M20.81,7c.31,0,.49.23.37.38-.38.08-.57-.24-.81-.38L18.26,5.71c.61-.85,2.2,1,2.55,1.28m-.25-1.24c-.53-.21-1.09-.4-1.31-.86a1.76,1.76,0,0,1,1.31.86m-.13-1.57c.54.17.68.5,1.12.86s1.43.76,1.06,1.19C21.67,5.7,20.85,5.07,20,4.48a.42.42,0,0,1,.44-.29m.93-.57a13,13,0,0,1,2.05,1.85A9.34,9.34,0,0,1,21.8,4.29,1.29,1.29,0,0,1,21,3.72c0-.12.21-.09.37-.1M22.74,4c-.47-.35-1.33-.94-.44-1.14.2.05.32.33.62.48s.23.14.43.38c.38.45,1.45.66.68,1.14-.22-.22-.81-.49-1.31-.86m.44-1.81c.53.57,1.39.91,1.74,1.62A6.6,6.6,0,0,1,22.8,2.39c.15,0,.13-.22.37-.19M23.3,0a8.62,8.62,0,0,0-1.74,1.76,74,74,0,0,0-7.72,5.8c0,.23.1.4.12.62.13,0,.18.14.37.14a23.28,23.28,0,0,0,3.36,3.28c1.18,1.59,3.08,2.62,4.11,4.32.83.48,1.72.91,2.55,1.38.89-.12,1.11-.78,2.18-.52v-.43a7.21,7.21,0,0,0,1.06-.9c.3-.29.91-.62.93-1,0-.56-1.12-1.26-1.62-1.71a16,16,0,0,0-1.68-1.62c-.79-1.08-1.9-1.9-2.68-3A34.85,34.85,0,0,0,27,3.67c.1-.29-.08-.46-.12-.76A10.63,10.63,0,0,1,24.42.1c-.47,0-.63-.15-1.12-.1"/><path class="cls-1" d="M10.4,15.55c0,.11-.08.22-.25.24s-.31-.41-.06-.47c.06.11.31.08.31.24m1-.62a1.37,1.37,0,0,1-.31.24c-1.27-.67-2.9-1.08-3.61-2.19,0,0,.05-.06.12,0a33.93,33.93,0,0,1,3.8,2M5.67,11.08a1.51,1.51,0,0,0,.81.33c1.46.74,2.77,1.59,4.36,2.23.11.34.73.3.81.67-1.71-.62-2.8-1.73-5-2-.39-.41-.83-.79-1.18-1.24ZM7.53,11c.19,0,.22.15.5.1.4.52,1.44.7,2.05,1a3.22,3.22,0,0,1,1.18,1.19c-2.07-1-4.06-2.1-6.22-3a1.33,1.33,0,0,0-.44,0A4.68,4.68,0,0,1,3.36,9s.05-.06.12,0c1.27.72,2.76,1.28,4,2M2.37,7.47a54.88,54.88,0,0,0,6,2.95c.11.2.39.27.44.52a7.6,7.6,0,0,1-1.37-.67c-1.86-.58-3-1.68-5-2.14C2.27,8,2,7.78,2.18,7.52a.35.35,0,0,0,.19,0M5,7.85c.92.46,2,.78,2.49,1.57-1.42-.59-2.68-1.36-4-2-.24-.13-.61-.15-.69-.43.49-.42,1.8.67,2.18.9M5.1,6.71A18.42,18.42,0,0,0,6.66,7.9,13.12,13.12,0,0,1,3.61,6.28c.59-.43.92.39,1.49.43m3,.09a3.62,3.62,0,0,1-1.25-.9,1.77,1.77,0,0,1,1.25.9M7,7c.31,0,.49.23.37.38C7,7.45,6.77,7.14,6.54,7L4.42,5.71C5,4.86,6.62,6.71,7,7M6.72,5.76c-.53-.21-1.09-.4-1.31-.86a1.76,1.76,0,0,1,1.31.86M6.6,4.19c.54.17.68.5,1.12.86s1.43.76,1.06,1.19C7.84,5.7,7,5.07,6.16,4.48a.42.42,0,0,1,.44-.29m.93-.57A13,13,0,0,1,9.59,5.48,9.34,9.34,0,0,1,8,4.29a1.29,1.29,0,0,1-.81-.57c0-.12.21-.09.37-.1M8.9,4c-.47-.35-1.33-.94-.44-1.14.2.05.32.33.62.48s.23.14.43.38c.38.45,1.45.66.68,1.14C10,4.63,9.4,4.37,8.9,4M9.34,2.2c.53.57,1.39.91,1.74,1.62A6.6,6.6,0,0,1,9,2.39c.15,0,.13-.22.37-.19M9.46,0A8.62,8.62,0,0,0,7.72,1.77,74,74,0,0,0,0,7.57c0,.23.1.4.12.62.13,0,.18.14.37.14A23.28,23.28,0,0,0,3.86,11.6C5,13.19,6.94,14.23,8,15.93c.83.48,1.72.91,2.55,1.38.89-.12,1.11-.78,2.18-.52v-.43a7.21,7.21,0,0,0,1.06-.9c.3-.29.91-.62.93-1,0-.56-1.12-1.26-1.62-1.71a16,16,0,0,0-1.68-1.62c-.79-1.08-1.9-1.9-2.68-3A34.85,34.85,0,0,0,13.2,3.67c.1-.29-.08-.46-.12-.76A10.63,10.63,0,0,1,10.58.1C10.11.15,9.95,0,9.46,0"/></g></g></svg>