<svg xmlns="http://www.w3.org/2000/svg" viewBox="0 0 22.66 20.97"><defs><style>.cls-1{fill:#666665;fill-rule:evenodd;}</style></defs><title>Asset 3</title><g id="Layer_2" data-name="Layer 2"><g id="over_gallery" data-name="over gallery"><path class="cls-1" d="M12.25,5.11c.74-.62,1.45-1.25,2.32-1.94S16.42,2,17.34,1.28c.52-.4,1.39-1.35,2.18-.58S21,3.24,21.84,4.14a5.21,5.21,0,0,0,.44.92c-.07.34-.29.41-.58.68-.66.6-1.49,1.35-2.23,2-.2.18-.45.27-.63.44s-.07.24-.14.34-.51.39-.77.63-.51.57-.68.68-.23,0-.29,0c-.22.18-.18.29-.48.48a2.39,2.39,0,0,0-.53.44c0,.26.34.27.39.53,1.45,1,2.78,2.1,4.16,3.15.61.77,1.47,1.27,2.13,2a1.4,1.4,0,0,1,0,.53,14.72,14.72,0,0,1-3.15,1.89c-.27.33-.74.46-1,.82h-.73c-2.32-1.23-4-3.11-5.86-4.79-1,.5-1.46,1.54-2.47,2a11.43,11.43,0,0,1-1.84,1.69,12.9,12.9,0,0,1-2.08,1.65,1.66,1.66,0,0,1-2.08.53c-.23-.11-.48-.38-.77-.53a6.59,6.59,0,0,1-1.21-.63c-.12-.1-.2-.23-.34-.34A7.81,7.81,0,0,1,0,18c.06-.17.11-.18,0-.39.57-.48.87-1.23,1.5-1.65.09-.09,0-.12,0-.29.3-.18.46-.51.82-.63A61.74,61.74,0,0,1,7.84,9.52C6.09,7.82,3.43,5.94,1.69,4.29c-.23-.21-.75-.41-.77-.73S1.84,2.32,2,2.11C2.7,1.38,3.72.93,4.31.22c1.16-.68,2.39.4,3.24,1C8.65,2,9.63,3,10.7,3.95A11.11,11.11,0,0,0,12.25,5.11ZM5.13,1.19c-.38,1.22-1.15,2-1.4,3.39.47-.27.4-1.09.82-1.4,0-.45.29-.55.29-1,.16-.25.47-.85.39-1Zm1.11.53c-.15,1.06-.83,1.85-.92,2.81A27.89,27.89,0,0,0,6.49,1.82C6.4,1.8,6.4,1.68,6.25,1.72ZM3.15,4.09c.48-.26.39-1.1.82-1.41,0-.33.21-.47.24-.77C3.56,2.33,3.36,3.39,3.15,4.09ZM18.21,2c0,.07-.08.08-.1.14-.22.31-.27.79-.48,1.11-.24,1.87-1.07,3.42-1.07,5.37.22,0,.26-.22.44-.29,0-.74.29-1.24.29-2a2.6,2.6,0,0,0,.19-.39c.17-1.45.87-2.72.82-3.92Zm.73,0a33.34,33.34,0,0,0-1,3.68c.58-.8.62-2.16,1.07-3.1a.4.4,0,0,1,.34,0A.79.79,0,0,0,18.93,2.06ZM7,2.25c-.23.3-.29.78-.58,1a5.75,5.75,0,0,1-.58,1.36C5.62,5,5.25,5.56,5.52,6c.31,0,.25-.82.58-1a11.8,11.8,0,0,1,.58-1.36A2.4,2.4,0,0,0,7.12,2.3C7.06,2.3,7.05,2.24,7,2.25Zm-2.37,3a1,1,0,0,1,.29-1.07c0-.67.5-1.1.48-1.65A9.9,9.9,0,0,0,4.26,5C4.33,5.11,4.51,5.34,4.6,5.26ZM16.75,3.12c0,.21.27.12.24.34-.31,1.28-.72,2.18-1,3.53a17.62,17.62,0,0,0-.53,1.94c-.08.35.06.63-.29.63a.33.33,0,0,1-.29-.19C15.33,7.2,16,5.3,16.56,3.27a9,9,0,0,0-1.55,1c0,.15.13.16.1.34a38.71,38.71,0,0,0-1.21,4c-.15.53-.59,1.23-.24,1.69a38.71,38.71,0,0,1,1.79-5.86c.12-.1.42-.06.44.1-.57,2.17-1.68,4.06-1.69,6.63a4.61,4.61,0,0,0-.24,3.92,26.32,26.32,0,0,1,.48-4.16,1.11,1.11,0,0,1-.1-.44c.43-.57,1.18-.82,1.65-1.36,0-.19-.13-.2-.1-.39.36-2.07,1-4.11,1.45-5.91C17,2.82,17,3.05,16.75,3.12ZM18.5,6.8a.33.33,0,0,1-.53.1c-.21-.23.24-.57,0-.73a6.43,6.43,0,0,0-.29,1.55c.54-.26.79-.8,1.26-1.11a7.33,7.33,0,0,1,.92-3.24c-.08-.22-.14-.48-.39-.53A24.71,24.71,0,0,0,18.5,6.8ZM7.6,2.88A26.76,26.76,0,0,0,6.1,6.42c.15.14.22.37.48.39C6.83,5.35,7.7,4.53,7.89,3,7.77,3,7.79,2.84,7.6,2.88Zm-5,.73c.26,0,.41-.61.29-.68C2.8,3.2,2.42,3.29,2.57,3.61Zm4.7,2.57c0,.13-.06.38,0,.44a14.87,14.87,0,0,0,1.31-2.9c-.09,0-.14-.12-.24-.14C8,4.4,7.73,5.4,7.26,6.17ZM19.61,6a9.83,9.83,0,0,0,1.21-1.16c-.33-.31-.4-.89-.82-1.11C19.88,4.5,19.3,5.44,19.61,6ZM9,4.24C8.7,5.22,8.15,6,7.84,6.95c-.29,0-.29.54-.19.78a10,10,0,0,0,.82-1.79A6,6,0,0,0,9.2,4.24ZM8.86,6.76a17.91,17.91,0,0,0,1-2c-.06,0-.07-.06-.14,0C9.44,5.39,8.88,6,8.86,6.76Zm1.36-1.55c-.47,1.18-1.25,2-1.5,3.44.14,0,.13.23.34.19a12.86,12.86,0,0,1,.73-2,4.71,4.71,0,0,0,.63-1.6Zm3.34.34c-.18.06-.14.34-.19.53a2.72,2.72,0,0,0-.68,1.07c-.15.36-.34.71-.48,1.06s-.11.67-.24,1a1.25,1.25,0,0,0-.19,1c-.14.09-.2.25-.48.19a2.8,2.8,0,0,0,0,.58c-.14,1-.47,2.07,0,2.71.37-.08.26-.45.29-.73a7.66,7.66,0,0,1,.63-3.1c0-.3,0-.6.24-.73A21.94,21.94,0,0,1,13.7,5.54ZM9.44,9.42a32.82,32.82,0,0,0,1.65-3.53c-.12,0-.1-.19-.29-.15A30.24,30.24,0,0,0,9.44,9.42Zm3-3.34A8.31,8.31,0,0,0,11.33,8.6c-.36.22-.4.77-.53,1.21.14,0,.13.23.34.19.38-1.41,1-2.56,1.5-3.87C12.52,6.15,12.53,6,12.4,6.08Zm1.21,1.16a2.23,2.23,0,0,0,.39-1s0-.06-.1,0A8.43,8.43,0,0,0,13.61,7.24ZM10,9.9c-.11,0-.13.16-.24.19s-.17,0-.34,0c.08.17-.16.39,0,.39s0-.28.24-.24c.38.13.12.56.1.82a31.93,31.93,0,0,0-.1,4.07.75.75,0,0,0,.44-.48c-.38-1.07.12-2.63.19-3.73,0-.3-.26-.55-.24-.87,0-.16.24-.41.29-.63a18.4,18.4,0,0,1,1.26-3.05c0-.05-.05-.08-.1-.1A15.37,15.37,0,0,0,10,9.9Zm-3-2.71c0-.15.27-.34.15-.48C7.14,6.82,6.87,7.1,7.07,7.19Zm1.4.24c.14,0,.24-.31.14-.39C8.59,7.19,8.43,7.22,8.47,7.43Zm4.07,3.34C12.16,11,12,12.1,12,12.86c0,.37.08.88.44.82a27.22,27.22,0,0,1,1.21-6.34s0-.06-.1,0A8.19,8.19,0,0,0,12.54,10.78Zm-4.16-.1c-.1,1.44-.22,3.15-.29,4.41,0,.52.18,1.11-.15,1.5a.61.61,0,0,1-.39-.29c0-1.23.15-2.54.24-3.63,0-.48.18-1-.1-1.4-.4.13-.33.62-.34,1,0,1.79-.16,3.22-.15,5.13A5.29,5.29,0,0,0,8.38,16.3c-.1-1.9.57-4.26.44-6.2,0-.05-.05-.08-.1-.1C8.68,10.3,8.49,10.45,8.38,10.68Zm5-.1c-.27.19-.22.43-.24.87a11.33,11.33,0,0,0-.1,2.76,24.13,24.13,0,0,1,.48-3.58C13.5,10.63,13.49,10.57,13.41,10.58Zm1.36,1a16.68,16.68,0,0,0-.24,3.1c0,.47-.14,1.06.29,1.36a26.2,26.2,0,0,1,.39-4.26.56.56,0,0,0-.44-.34ZM9.2,12c.16,0,.2-.28,0-.29A.42.42,0,0,0,9.2,12Zm6.3,1.21c-.14,1.4-.53,3.55.39,3.68,0-1.43-.08-2.76,0-4.55-.14,0-.13-.23-.34-.19A4.28,4.28,0,0,0,15.5,13.2ZM8.91,15.81c.25,0,.46-.34.63-.53-.09-.07-.27-.05-.34-.14-.21-1,.19-2.27,0-3A28.09,28.09,0,0,0,8.91,15.81ZM5.42,13.54c.09.12.33.09.34.29a17.33,17.33,0,0,0-.24,2.62c0,.74-.27,1.93.15,2.23.1-2,.3-3.44.39-5.52.17,0,.1-.29.34-.24s.16.49.15.73c-.05.9-.18,1.89-.24,2.76a4.6,4.6,0,0,0,0,1.84c.42-.24.22-.81.24-1.21a20.3,20.3,0,0,0,.19-4.79A10.87,10.87,0,0,0,5.42,13.54Zm10.94-.63c-.07.84,0,1.83,0,2.81,0,.61-.13,1.38.24,1.84.17-1.33,0-3.11.29-4.45a.68.68,0,0,0-.53-.34Zm.82.53a8.21,8.21,0,0,1,0,1.84c0,.59.06,1.25,0,1.79s-.32,1,.24,1.11c.08-1.4-.26-3.16.24-4.41a1,1,0,0,0-.48-.48C17.17,13.36,17.13,13.37,17.19,13.44ZM4.7,14.21c0,1.3-.05,3,0,4.26,0,.27,0,.7.24.82a33.3,33.3,0,0,1,.44-5.57c0-.06,0-.12-.1-.1A2.27,2.27,0,0,1,4.7,14.21Zm13.22-.29a20.09,20.09,0,0,0,.1,4.5,1.37,1.37,0,0,0,.53-.14C18.26,17.06,19.14,14.13,17.92,13.92ZM19,16.44c0,.54-.14,1.15.14,1.45.35-.16.11-.62.1-.92a7.82,7.82,0,0,0,0-2.13h-.15A6.14,6.14,0,0,0,19,16.44ZM3.78,15.28a25.54,25.54,0,0,0,0,3.29c0,.32,0,1.15.44,1.16a42.83,42.83,0,0,1,0-4.84C3.94,14.86,3.94,15.15,3.78,15.28Zm16.08,2.13c.85-.1.56-.81.48-1.5-.17-.17-.28-.4-.58-.44A8.33,8.33,0,0,0,19.85,17.41ZM2.91,16c.18.92-.22,2.13.29,2.86-.1-1,.2-2.13.1-3.1C3.09,15.77,3,15.94,2.91,16Zm18,.68c.13,0,.16-.07.15-.19s-.11-.05-.19,0S20.94,16.57,20.92,16.68Zm-19,1.69a1.67,1.67,0,0,0-.14-.87C1.42,17.7,1.43,18.35,1.89,18.38Z"/></g></g></svg>