<svg xmlns="http://www.w3.org/2000/svg" viewBox="0 0 35.79 21.72"><defs><style>.cls-1{fill:#666665;}</style></defs><title>Asset 2</title><g id="Layer_2" data-name="Layer 2"><g id="over_gallery" data-name="over gallery"><path class="cls-1" d="M5.39,2.21c0-.14.11-.28.31-.3.06.16.39.52.08.6-.08-.14-.39-.1-.39-.3M4.14,3a1.71,1.71,0,0,1,.39-.3C6.13,3.53,8.17,4,9.06,5.43c0,0-.07.07-.16.06A42.58,42.58,0,0,1,4.14,3m7.18,4.83a1.89,1.89,0,0,0-1-.42c-1.84-.92-3.48-2-5.47-2.8-.14-.43-.92-.37-1-.84,2.15.78,3.51,2.17,6.25,2.5.49.52,1,1,1.48,1.55ZM9,7.93c-.24,0-.28-.18-.62-.12-.5-.65-1.81-.88-2.58-1.31A4,4,0,0,1,4.3,5C6.89,6.29,9.39,7.64,12.1,8.82a1.67,1.67,0,0,0,.55.06,5.88,5.88,0,0,1,1.56,1.49s-.06.07-.16.06C12.46,9.52,10.59,8.83,9,7.93m6.48,4.41a68.86,68.86,0,0,0-7.57-3.7C7.75,8.39,7.4,8.3,7.34,8a9.54,9.54,0,0,1,1.72.84c2.33.72,3.8,2.1,6.33,2.68.19.2.53.45.31.78a.43.43,0,0,0-.23.06m-3.28-.48c-1.15-.57-2.52-1-3.12-2,1.79.74,3.37,1.71,5,2.56.3.16.76.19.86.54-.62.52-2.26-.84-2.73-1.13M12,13.3a23.12,23.12,0,0,0-2-1.49,16.46,16.46,0,0,1,3.83,2c-.74.54-1.15-.49-1.87-.54m-3.75-.12a4.54,4.54,0,0,1,1.56,1.13,2.22,2.22,0,0,1-1.56-1.13m1.41-.24c-.39,0-.62-.29-.47-.48.47-.1.72.3,1,.48l2.65,1.61c-.76,1.07-2.75-1.26-3.2-1.61M10,14.49c.67.27,1.37.5,1.64,1.07A2.21,2.21,0,0,1,10,14.49m.16,2c-.68-.21-.85-.63-1.41-1.07s-1.79-1-1.33-1.49c1.18.67,2.21,1.46,3.28,2.21a.53.53,0,0,1-.55.36M9,17.17a16.25,16.25,0,0,1-2.58-2.33,11.72,11.72,0,0,1,2,1.49,1.61,1.61,0,0,1,1,.72c0,.15-.26.12-.47.12m-1.72-.48c.59.43,1.67,1.18.55,1.43-.25-.06-.4-.42-.78-.6s-.29-.17-.55-.48c-.47-.57-1.82-.83-.86-1.43.27.28,1,.61,1.64,1.07M6.72,19c-.67-.72-1.74-1.14-2.19-2a8.29,8.29,0,0,1,2.66,1.79C7,18.77,7,19,6.72,19M6.56,21.7A10.81,10.81,0,0,0,8.75,19.5a92.88,92.88,0,0,0,9.69-7.27c0-.29-.12-.5-.16-.78-.17-.05-.23-.18-.47-.18a29.21,29.21,0,0,0-4.22-4.11c-1.48-2-3.87-3.29-5.16-5.42C7.4,1.13,6.28.59,5.23,0,4.11.15,3.84,1,2.5.66v.54A9,9,0,0,0,1.17,2.32C.79,2.69,0,3.1,0,3.58c0,.7,1.4,1.58,2,2.15a20,20,0,0,0,2.11,2c1,1.35,2.39,2.39,3.36,3.76a43.73,43.73,0,0,0-5.62,5.61c-.12.36.11.57.16,1a13.34,13.34,0,0,1,3.12,3.52c.59-.05.8.19,1.41.12"/><path class="cls-1" d="M22.75,2.21c0-.14.11-.28.31-.3.06.16.39.52.08.6-.08-.14-.39-.1-.39-.3M21.5,3a1.71,1.71,0,0,1,.39-.3c1.6.85,3.64,1.36,4.53,2.74,0,0-.07.07-.16.06A42.58,42.58,0,0,1,21.5,3m7.18,4.83a1.89,1.89,0,0,0-1-.42c-1.84-.92-3.48-2-5.47-2.8-.14-.43-.92-.37-1-.84,2.15.78,3.51,2.17,6.25,2.5.49.52,1,1,1.48,1.55Zm-2.34.12c-.24,0-.28-.18-.62-.12-.5-.65-1.81-.88-2.58-1.31A4,4,0,0,1,21.66,5c2.59,1.28,5.09,2.63,7.81,3.82a1.67,1.67,0,0,0,.55.06,5.88,5.88,0,0,1,1.56,1.49s-.06.07-.16.06c-1.59-.91-3.47-1.61-5.07-2.5m6.48,4.41a68.86,68.86,0,0,0-7.57-3.7c-.13-.26-.48-.34-.55-.66a9.54,9.54,0,0,1,1.72.84c2.33.72,3.8,2.1,6.33,2.68.19.2.53.45.31.78a.43.43,0,0,0-.23.06m-3.28-.48c-1.15-.57-2.52-1-3.12-2,1.79.74,3.37,1.71,5,2.56.3.16.76.19.86.54-.62.52-2.26-.84-2.73-1.13m-.16,1.43a23.12,23.12,0,0,0-2-1.49,16.46,16.46,0,0,1,3.83,2c-.74.54-1.15-.49-1.87-.54m-3.75-.12a4.54,4.54,0,0,1,1.56,1.13,2.22,2.22,0,0,1-1.56-1.13M27,12.94c-.39,0-.62-.29-.47-.48.47-.1.72.3,1,.48l2.65,1.61c-.76,1.07-2.75-1.26-3.2-1.61m.31,1.55c.67.27,1.37.5,1.64,1.07a2.21,2.21,0,0,1-1.64-1.07m.16,2c-.68-.21-.85-.63-1.41-1.07s-1.79-1-1.33-1.49c1.18.67,2.21,1.46,3.28,2.21a.53.53,0,0,1-.55.36m-1.17.72a16.25,16.25,0,0,1-2.58-2.33,11.72,11.72,0,0,1,2,1.49,1.61,1.61,0,0,1,1,.72c0,.15-.26.12-.47.12m-1.72-.48c.59.43,1.67,1.18.55,1.43-.25-.06-.4-.42-.78-.6s-.29-.17-.55-.48c-.47-.57-1.82-.83-.86-1.43.27.28,1,.61,1.64,1.07M24.08,19c-.67-.72-1.74-1.14-2.19-2a8.29,8.29,0,0,1,2.66,1.79c-.19,0-.16.27-.47.24m-.16,2.74a10.81,10.81,0,0,0,2.19-2.21,92.88,92.88,0,0,0,9.69-7.27c0-.29-.12-.5-.16-.78-.17-.05-.23-.18-.47-.18a29.21,29.21,0,0,0-4.22-4.11c-1.48-2-3.87-3.29-5.16-5.42-1-.6-2.15-1.14-3.2-1.73-1.12.15-1.4,1-2.73.66v.54a9,9,0,0,0-1.33,1.13c-.38.36-1.15.78-1.17,1.25,0,.7,1.4,1.58,2,2.15a20,20,0,0,0,2.11,2c1,1.35,2.39,2.39,3.36,3.76a43.73,43.73,0,0,0-5.62,5.61c-.12.36.11.57.16,1a13.34,13.34,0,0,1,3.12,3.52c.59-.05.8.19,1.41.12"/></g></g></svg>