<svg xmlns="http://www.w3.org/2000/svg" viewBox="0 0 18.06 16.71"><defs><style>.cls-1{fill:#fcc130;fill-rule:evenodd;}</style></defs><title>Asset 31</title><g id="Layer_2" data-name="Layer 2"><g id="instaraction"><path class="cls-1" d="M9.76,4.07c.59-.49,1.16-1,1.85-1.54s1.47-.94,2.2-1.51C14.23.7,14.93-.05,15.55.56s1.15,2,1.85,2.74a4.15,4.15,0,0,0,.35.73c-.06.27-.23.33-.46.54-.52.48-1.19,1.07-1.78,1.58-.16.14-.36.22-.5.35s-.06.19-.12.27-.4.31-.62.5-.41.45-.54.54-.18,0-.23,0-.15.23-.39.39a1.9,1.9,0,0,0-.42.35c0,.21.27.22.31.42,1.16.78,2.21,1.67,3.32,2.51.48.61,1.18,1,1.7,1.58a1.11,1.11,0,0,1,0,.42A11.73,11.73,0,0,1,15.55,15c-.21.26-.59.37-.77.66H14.2a23.77,23.77,0,0,1-4.67-3.82c-.8.4-1.16,1.23-2,1.62A9.11,9.11,0,0,1,6.1,14.84a10.28,10.28,0,0,1-1.66,1.31,1.33,1.33,0,0,1-1.66.42c-.18-.08-.38-.31-.62-.42a5.26,5.26,0,0,1-1-.5c-.1-.08-.16-.18-.27-.27a6.22,6.22,0,0,1-.93-1c0-.14.09-.14,0-.31.45-.39.69-1,1.2-1.31.07-.07,0-.1,0-.23.24-.15.36-.41.66-.5A49.21,49.21,0,0,1,6.25,7.58c-1.4-1.35-3.52-2.85-4.9-4.17-.18-.17-.6-.32-.62-.58s.73-1,.89-1.16C2.15,1.1,3,.74,3.43.17,4.36-.37,5.34.5,6,1c.87.62,1.65,1.44,2.51,2.16A8.86,8.86,0,0,0,9.76,4.07ZM4.09.95A21.77,21.77,0,0,0,3,3.65c.38-.21.32-.87.66-1.12,0-.36.23-.44.23-.77s.37-.68.31-.81ZM5,1.37c-.12.85-.66,1.48-.73,2.24a22.22,22.22,0,0,0,.93-2.16C5.1,1.43,5.1,1.34,5,1.37ZM2.51,3.26c.39-.21.31-.88.66-1.12,0-.26.16-.38.19-.62C2.84,1.86,2.68,2.7,2.51,3.26Zm12-1.66c0,.06-.06.07-.08.12-.18.25-.22.63-.39.89-.19,1.49-.85,2.73-.85,4.28.18,0,.21-.18.35-.23,0-.59.23-1,.23-1.62a2.07,2.07,0,0,0,.15-.31c.13-1.16.7-2.17.66-3.13Zm.58,0a26.57,26.57,0,0,0-.77,2.93,16.64,16.64,0,0,0,.85-2.47.32.32,0,0,1,.27,0A.63.63,0,0,0,15.09,1.64Zm-9.53.15c-.18.24-.23.62-.46.81a4.58,4.58,0,0,1-.46,1.08c-.15.33-.45.74-.23,1.08.25,0,.2-.65.46-.77a9.4,9.4,0,0,1,.46-1.08,1.91,1.91,0,0,0,.35-1.08S5.62,1.78,5.56,1.79ZM3.67,4.19a.79.79,0,0,1,.23-.85c0-.53.4-.88.39-1.31A7.89,7.89,0,0,0,3.4,4C3.45,4.07,3.6,4.26,3.67,4.19Zm9.69-1.7c0,.17.21.1.19.27-.25,1-.57,1.74-.77,2.82a14,14,0,0,0-.42,1.54c-.06.28,0,.5-.23.5a.26.26,0,0,1-.23-.15c.33-1.73.87-3.25,1.31-4.86A7.19,7.19,0,0,0,12,3.42c0,.12.1.13.08.27a30.85,30.85,0,0,0-1,3.16c-.12.42-.47,1-.19,1.35a30.85,30.85,0,0,1,1.43-4.67c.1-.08.34-.05.35.08-.46,1.73-1.34,3.24-1.35,5.29A3.67,3.67,0,0,0,11.11,12,21,21,0,0,1,11.5,8.7a.88.88,0,0,1-.08-.35c.34-.45.94-.65,1.31-1.08,0-.15-.1-.16-.08-.31.29-1.65.79-3.27,1.16-4.71C13.57,2.25,13.53,2.43,13.35,2.49Zm1.39,2.93a.26.26,0,0,1-.42.08c-.17-.18.19-.46,0-.58A5.12,5.12,0,0,0,14,6.16c.43-.2.63-.64,1-.89a5.84,5.84,0,0,1,.73-2.59c-.07-.18-.11-.38-.31-.42A19.7,19.7,0,0,0,14.74,5.42ZM6.06,2.3a21.33,21.33,0,0,0-1.2,2.82c.12.11.17.29.39.31.19-1.16.89-1.82,1-3C6.2,2.39,6.21,2.26,6.06,2.3ZM2,2.88c.21,0,.33-.48.23-.54C2.23,2.55,1.93,2.62,2,2.88Zm3.74,2c0,.11,0,.31,0,.35A11.85,11.85,0,0,0,6.87,3c-.07,0-.11-.09-.19-.12C6.35,3.5,6.16,4.3,5.79,4.92Zm9.84-.12a7.84,7.84,0,0,0,1-.93c-.26-.25-.32-.71-.66-.89C15.84,3.59,15.39,4.33,15.63,4.81ZM7.18,3.38c-.25.78-.68,1.38-.93,2.16C6,5.55,6,6,6.1,6.16a8,8,0,0,0,.66-1.43,4.75,4.75,0,0,0,.58-1.35Zm-.12,2A14.27,14.27,0,0,0,7.83,3.8s-.05-.05-.12,0C7.52,4.3,7.08,4.8,7.06,5.38ZM8.14,4.15a13.06,13.06,0,0,0-1.2,2.74c.11,0,.1.18.27.15A10.25,10.25,0,0,1,7.8,5.42a3.75,3.75,0,0,0,.5-1.27Zm2.66.27c-.14,0-.11.27-.15.42a2.17,2.17,0,0,0-.54.85c-.12.29-.27.57-.39.85s-.09.53-.19.77a1,1,0,0,0-.15.77c-.11.07-.16.2-.39.15A2.23,2.23,0,0,0,9,8.7c-.11.76-.38,1.65,0,2.16.3-.06.21-.36.23-.58a6.11,6.11,0,0,1,.5-2.47c0-.24,0-.48.19-.58a17.48,17.48,0,0,1,1-2.82ZM7.53,7.51A26.16,26.16,0,0,0,8.84,4.69c-.09,0-.08-.15-.23-.12A24.1,24.1,0,0,0,7.53,7.51ZM9.88,4.84a6.63,6.63,0,0,0-.85,2c-.29.17-.32.61-.42,1,.11,0,.1.18.27.15.3-1.12.81-2,1.2-3.09C10,4.9,10,4.81,9.88,4.84Zm1,.93A1.77,1.77,0,0,0,11.15,5s0,0-.08,0A6.72,6.72,0,0,0,10.84,5.77ZM8,7.89c-.09,0-.1.13-.19.15s-.13,0-.27,0c.06.14-.13.31,0,.31s0-.22.19-.19.1.45.08.66a25.45,25.45,0,0,0-.08,3.24.6.6,0,0,0,.35-.39c-.3-.85.1-2.1.15-3,0-.24-.21-.44-.19-.69s.19-.33.23-.5a14.66,14.66,0,0,1,1-2.43S9.26,5,9.22,5A12.25,12.25,0,0,0,8,7.89ZM5.63,5.73c0-.12.22-.27.12-.39C5.69,5.44,5.47,5.66,5.63,5.73Zm1.12.19c.11,0,.19-.25.12-.31C6.84,5.73,6.72,5.75,6.75,5.92ZM10,8.59c-.31.2-.43,1.06-.42,1.66,0,.29.06.7.35.66a21.7,21.7,0,0,1,1-5.06s0,0-.08,0A6.53,6.53,0,0,0,10,8.59ZM6.68,8.51C6.6,9.66,6.5,11,6.45,12c0,.41.14.88-.12,1.2A.49.49,0,0,1,6,13c0-1,.12-2,.19-2.9,0-.38.14-.82-.08-1.12-.32.1-.26.49-.27.77,0,1.43-.13,2.57-.12,4.09A4.22,4.22,0,0,0,6.68,13C6.6,11.47,7.13,9.59,7,8,7,8,7,8,6.95,8,6.92,8.21,6.77,8.33,6.68,8.51Zm4-.08c-.22.15-.17.35-.19.69a9,9,0,0,0-.08,2.2,19.23,19.23,0,0,1,.39-2.86S10.75,8.42,10.69,8.43Zm1.08.77a13.3,13.3,0,0,0-.19,2.47c0,.38-.12.85.23,1.08a20.88,20.88,0,0,1,.31-3.4.45.45,0,0,0-.35-.27Zm-4.44.35c.13,0,.16-.22,0-.23A.33.33,0,0,0,7.33,9.55Zm5,1c-.11,1.11-.43,2.83.31,2.93,0-1.14-.07-2.2,0-3.63-.11,0-.1-.18-.27-.15A3.41,3.41,0,0,0,12.35,10.52ZM7.1,12.6c.2,0,.37-.27.5-.42-.07-.06-.22,0-.27-.12-.16-.8.15-1.81,0-2.35A22.39,22.39,0,0,0,7.1,12.6ZM4.32,10.79c.07.09.26.07.27.23A13.82,13.82,0,0,0,4.4,13.1c0,.59-.22,1.54.12,1.78.08-1.63.24-2.74.31-4.4.13,0,.08-.23.27-.19s.13.39.12.58c0,.72-.15,1.51-.19,2.2a3.67,3.67,0,0,0,0,1.47c.34-.19.17-.65.19-1A16.18,16.18,0,0,0,5.4,9.74,8.66,8.66,0,0,0,4.32,10.79Zm8.72-.5c-.05.67,0,1.46,0,2.24,0,.49-.11,1.1.19,1.47.14-1.06,0-2.48.23-3.55a.54.54,0,0,0-.42-.27Zm.66.42a6.55,6.55,0,0,1,0,1.47c0,.47,0,1,0,1.43s-.26.83.19.89c.06-1.11-.21-2.52.19-3.51a.81.81,0,0,0-.39-.39C13.69,10.65,13.65,10.66,13.7,10.71Zm-10,.62c0,1,0,2.38,0,3.4,0,.21,0,.56.19.66a26.54,26.54,0,0,1,.35-4.44s0-.09-.08-.08A1.81,1.81,0,0,1,3.74,11.33Zm10.54-.23a16,16,0,0,0,.08,3.59,1.09,1.09,0,0,0,.42-.12C14.55,13.6,15.25,11.26,14.28,11.1Zm.89,2c0,.43-.11.91.12,1.16.28-.13.09-.49.08-.73a6.24,6.24,0,0,0,0-1.7h-.12A4.89,4.89,0,0,0,15.17,13.1ZM3,12.18A20.35,20.35,0,0,0,3,14.8c0,.25,0,.92.35.93a34.13,34.13,0,0,1,0-3.86C3.14,11.84,3.14,12.08,3,12.18Zm12.81,1.7c.68-.08.45-.65.39-1.2-.13-.14-.22-.32-.46-.35A6.64,6.64,0,0,0,15.82,13.87ZM2.32,12.76c.15.73-.18,1.7.23,2.28-.08-.81.16-1.7.08-2.47C2.46,12.57,2.43,12.7,2.32,12.76Zm14.36.54c.1,0,.13-.05.12-.15s-.09,0-.15,0S16.69,13.2,16.67,13.3ZM1.5,14.65A1.33,1.33,0,0,0,1.39,14C1.13,14.11,1.14,14.62,1.5,14.65Z"/></g></g></svg>