<svg xmlns="http://www.w3.org/2000/svg" viewBox="0 0 30.6 30.45"><defs><style>.cls-1{fill:#53b0a1;}.cls-2{fill:#fff;}</style></defs><title>Asset 21</title><g id="Layer_2" data-name="Layer 2"><g id="instaraction"><path class="cls-1" d="M30.58,15.5A17.06,17.06,0,0,0,21.13,1.36C20.49.62,19.48.63,18.45.45,6.48-1.74,1,4.37.12,13.19c-1,9.1,3.82,17.2,13.64,17.26C22.53,30.5,31.11,25.16,30.58,15.5Z"/><path class="cls-2" d="M23.91,22.83H6.69a1.79,1.79,0,0,1-1.23-.47l5.94-6,.41.3q.67.49,1.08.77A6.62,6.62,0,0,0,14,18a3.35,3.35,0,0,0,1.29.29h0A3.35,3.35,0,0,0,16.6,18a6.64,6.64,0,0,0,1.11-.56q.42-.28,1.08-.77l.41-.3,5.94,6A1.79,1.79,0,0,1,23.91,22.83Z"/><path class="cls-2" d="M5.06,20.69V11.6a6.21,6.21,0,0,0,1.18,1q2.49,1.7,4.05,2.8Z"/><path class="cls-2" d="M25.54,20.69l-5.23-5.26q1.67-1.18,4.06-2.8a6.46,6.46,0,0,0,1.17-1Z"/><path class="cls-2" d="M25.21,10.16a5.58,5.58,0,0,1-1.43,1.45l-4.29,3-1.18.83-.17.13-.32.23-.63.45-.61.38a3.54,3.54,0,0,1-.67.32,1.85,1.85,0,0,1-.58.11h0a1.85,1.85,0,0,1-.58-.11,3.55,3.55,0,0,1-.67-.32l-.61-.38-.63-.45-.32-.23-.17-.13-1.18-.83L9.23,13.29l-2.4-1.68a5.82,5.82,0,0,1-1.37-1.36,2.76,2.76,0,0,1-.64-1.61A2.38,2.38,0,0,1,5.3,7.12,1.67,1.67,0,0,1,6.69,6.5H23.91a1.89,1.89,0,0,1,1.87,1.88A3.12,3.12,0,0,1,25.21,10.16Z"/></g></g></svg>