<svg xmlns="http://www.w3.org/2000/svg" viewBox="0 0 924.56 3.62"><defs><style>.cls-1{fill:#656668;}</style></defs><title>Asset 2</title><g id="Layer_2" data-name="Layer 2"><g id="art"><path class="cls-1" d="M626.94,1.37c.18.06.28.21.49.23a1.35,1.35,0,0,0,.35-.69.72.72,0,0,0-.63-.23c.1.41-.13.47-.21.69M626.45.21c1.13-.69,2.46.45,2.11,1.31a2,2,0,0,1-1.9.77c-.56-.2-.69-1.52-.21-2.08"/><path class="cls-1" d="M654.31,1.57c-.13-.17-.24-.36-.56-.31-.13.43.45.62.56.31m-1.41-1c.94-.54,2.34-.77,2.32.62,0,.85-.93,1.28-1.83,1.15-.54-.14-.67-1.11-.49-1.77"/><path class="cls-1" d="M685.21,1.47c.18.06.28.21.49.23a1.35,1.35,0,0,0,.35-.69.72.72,0,0,0-.63-.23c.1.41-.13.47-.21.69M684.72.31c1.13-.69,2.46.45,2.11,1.31a2,2,0,0,1-1.9.77c-.56-.2-.69-1.52-.21-2.08"/><path class="cls-1" d="M647.55,1.1h-.28c-.1.46.53.34.28,0m-.7.38a.54.54,0,0,0-.07-.39h-.21c0,.25.08.37.28.39m-1.06.38a1.58,1.58,0,0,1,.07-1.16c.42-.85,1.63-.63,2.18-.07.83,1.7-1.47,2.13-2.25,1.23"/><path class="cls-1" d="M679.43,2c-.55-.32-.51.3,0,0m0-.85a.29.29,0,1,0,.56,0c-.16,0-.42-.15-.56,0M679.3.22a1.21,1.21,0,0,1,1.48,1c.06.87-1.85,2.11-2.39.92A1.57,1.57,0,0,1,679.3.22"/><path class="cls-1" d="M659.73,1.89c.17,0,.21.13.42.08.17-.32,0-.83-.42-.77-.14.16-.05.51,0,.69m1.13-.31a.64.64,0,0,0-.56-.93,1.17,1.17,0,0,0,.56.93m-1.48,1.08c-1.74-1.5,1.55-3.57,1.9-1.69.21,1.1-.92,1.67-1.9,1.69"/><path class="cls-1" d="M673.38,1.37c0,.55.95.64.92,0-.18-.43-.62-.1-.92,0m-.78.85c-1-2.18,2.78-2.23,2.32-.38-.16.66-1.69.81-2.32.38"/><path class="cls-1" d="M641.07,1.7a.81.81,0,0,0-.49-.93c.24.22.06.91.49.93m.63.31c-.48.83-2.08.8-2.25-.16-.37-2.09,2.44-2.54,2.25.16"/><path class="cls-1" d="M633.26.53c1.59-.29,1.55,2.22.14,2.16a1.09,1.09,0,0,1-.14-2.16"/><path class="cls-1" d="M666.7.74a1.36,1.36,0,0,1,1.55,1.31c-.05.67-1.82,1.48-2.39.61A1.4,1.4,0,0,1,666.7.74"/><path class="cls-1" d="M711.58,1.67c-.13-.17-.24-.36-.56-.31-.13.43.45.62.56.31m-1.41-1c.94-.54,2.34-.77,2.32.62,0,.85-.93,1.28-1.83,1.15-.54-.14-.67-1.11-.49-1.77"/><path class="cls-1" d="M742.48,1.56c.18.06.28.21.49.23a1.35,1.35,0,0,0,.35-.69.72.72,0,0,0-.63-.23c.1.41-.13.47-.21.69M742,.41c1.13-.69,2.46.45,2.11,1.31a2,2,0,0,1-1.9.77c-.56-.2-.69-1.52-.21-2.08"/><path class="cls-1" d="M704.82,1.19h-.28c-.1.46.53.34.28,0m-.7.38a.54.54,0,0,0-.07-.39h-.21c0,.25.08.37.28.39M703.06,2A1.58,1.58,0,0,1,703.13.8c.42-.85,1.63-.63,2.18-.07.83,1.7-1.47,2.13-2.25,1.23"/><path class="cls-1" d="M736.71,2.09c-.55-.32-.51.3,0,0m0-.85a.29.29,0,1,0,.56,0c-.16,0-.42-.15-.56,0m-.14-.93a1.21,1.21,0,0,1,1.48,1c.06.87-1.85,2.11-2.39.92a1.57,1.57,0,0,1,.92-1.93"/><path class="cls-1" d="M717,2c.17,0,.21.13.42.08.17-.32,0-.83-.42-.77-.14.16-.05.51,0,.69m1.13-.31a.64.64,0,0,0-.56-.93,1.17,1.17,0,0,0,.56.93m-1.48,1.08c-1.74-1.5,1.55-3.57,1.9-1.69.21,1.1-.92,1.67-1.9,1.69"/><path class="cls-1" d="M730.65,1.47c0,.55.95.64.92,0-.18-.43-.62-.1-.92,0m-.78.85c-1-2.18,2.78-2.23,2.32-.38-.16.66-1.69.81-2.32.38"/><path class="cls-1" d="M698.34,1.8a.81.81,0,0,0-.49-.93c.24.22.06.91.49.93m.63.31c-.48.83-2.08.8-2.25-.16-.37-2.09,2.44-2.54,2.25.16"/><path class="cls-1" d="M690.53.63c1.59-.29,1.55,2.22.14,2.16a1.09,1.09,0,0,1-.14-2.16"/><path class="cls-1" d="M724,.84a1.36,1.36,0,0,1,1.55,1.31c-.05.67-1.82,1.48-2.39.61A1.4,1.4,0,0,1,724,.84"/><path class="cls-1" d="M769.84,1.76c-.13-.17-.24-.36-.56-.31-.13.43.45.62.56.31m-1.41-1c.94-.54,2.34-.77,2.32.62,0,.85-.93,1.28-1.83,1.15-.54-.14-.67-1.11-.49-1.77"/><path class="cls-1" d="M800.75,1.66c.18.06.28.21.49.23a1.35,1.35,0,0,0,.35-.69A.72.72,0,0,0,801,1c.1.41-.13.47-.21.69M800.25.5c1.13-.69,2.46.45,2.11,1.31a2,2,0,0,1-1.9.77c-.56-.2-.69-1.52-.21-2.08"/><path class="cls-1" d="M763.09,1.29h-.28c-.1.46.53.34.28,0m-.7.38a.54.54,0,0,0-.07-.39h-.21c0,.25.08.37.28.39m-1.06.38A1.58,1.58,0,0,1,761.4.9c.42-.85,1.63-.63,2.18-.07.83,1.7-1.47,2.13-2.25,1.23"/><path class="cls-1" d="M795,2.19c-.55-.32-.51.3,0,0m0-.85a.29.29,0,1,0,.56,0c-.16,0-.42-.15-.56,0m-.14-.93a1.21,1.21,0,0,1,1.48,1c.06.87-1.85,2.11-2.39.92a1.57,1.57,0,0,1,.92-1.93"/><path class="cls-1" d="M775.26,2.08c.17,0,.21.13.42.08.17-.32,0-.83-.42-.77-.14.16-.05.51,0,.69m1.13-.31a.64.64,0,0,0-.56-.93,1.17,1.17,0,0,0,.56.93m-1.48,1.08c-1.74-1.5,1.55-3.57,1.9-1.69.21,1.1-.92,1.67-1.9,1.69"/><path class="cls-1" d="M788.92,1.56c0,.55.95.64.92,0-.18-.43-.62-.1-.92,0m-.78.85c-1-2.18,2.78-2.23,2.32-.38-.16.66-1.69.81-2.32.38"/><path class="cls-1" d="M756.61,1.89a.81.81,0,0,0-.49-.93c.24.22.06.91.49.93m.63.31C756.76,3,755.16,3,755,2c-.37-2.09,2.44-2.54,2.25.16"/><path class="cls-1" d="M748.8.73c1.59-.29,1.55,2.22.14,2.16A1.09,1.09,0,0,1,748.8.73"/><path class="cls-1" d="M782.23.94a1.36,1.36,0,0,1,1.55,1.31c-.05.67-1.82,1.48-2.39.61a1.4,1.4,0,0,1,.85-1.93"/><path class="cls-1" d="M828.88,1.86c-.13-.17-.24-.36-.56-.31-.13.43.45.62.56.31m-1.41-1c.94-.54,2.34-.77,2.32.62,0,.85-.93,1.28-1.83,1.15-.54-.14-.67-1.11-.49-1.77"/><path class="cls-1" d="M859.78,1.76c.18.06.28.21.49.23a1.34,1.34,0,0,0,.35-.69.72.72,0,0,0-.63-.23c.1.41-.13.47-.21.69M859.29.6c1.13-.69,2.46.45,2.11,1.31a2,2,0,0,1-1.9.77c-.56-.2-.69-1.52-.21-2.08"/><path class="cls-1" d="M822.12,1.39h-.28c-.1.46.53.34.28,0m-.7.38a.54.54,0,0,0-.07-.39h-.21c0,.25.08.37.28.39m-1.06.38A1.58,1.58,0,0,1,820.43,1c.42-.85,1.63-.63,2.18-.07.83,1.7-1.47,2.13-2.25,1.23"/><path class="cls-1" d="M854,2.29c-.55-.32-.51.3,0,0m0-.85a.29.29,0,1,0,.56,0c-.16,0-.42-.15-.56,0m-.14-.93a1.21,1.21,0,0,1,1.48,1c.06.87-1.85,2.11-2.39.92a1.57,1.57,0,0,1,.92-1.93"/><path class="cls-1" d="M834.3,2.18c.17,0,.21.13.42.08.17-.32,0-.83-.42-.77-.14.16-.05.51,0,.69m1.13-.31a.64.64,0,0,0-.56-.93,1.17,1.17,0,0,0,.56.93m-1.48,1.08c-1.74-1.5,1.55-3.57,1.9-1.69.21,1.1-.92,1.67-1.9,1.69"/><path class="cls-1" d="M848,1.66c0,.55.95.64.92,0-.18-.43-.62-.1-.92,0m-.78.85c-1-2.18,2.78-2.23,2.32-.38-.16.66-1.69.81-2.32.38"/><path class="cls-1" d="M815.64,2a.81.81,0,0,0-.49-.93c.24.22.06.91.49.93m.63.31c-.48.83-2.08.8-2.25-.16-.37-2.09,2.44-2.54,2.25.16"/><path class="cls-1" d="M807.83.82C809.42.54,809.38,3,808,3a1.09,1.09,0,0,1-.14-2.16"/><path class="cls-1" d="M841.27,1a1.36,1.36,0,0,1,1.55,1.31c-.05.67-1.82,1.48-2.39.61A1.4,1.4,0,0,1,841.27,1"/><path class="cls-1" d="M887.14,2c-.13-.17-.24-.36-.56-.31-.13.43.45.62.56.31m-1.41-1c.94-.54,2.34-.77,2.32.62,0,.85-.93,1.28-1.83,1.15-.54-.14-.67-1.11-.49-1.77"/><path class="cls-1" d="M918,1.85c.18.06.28.21.49.23a1.35,1.35,0,0,0,.35-.69.72.72,0,0,0-.63-.23c.1.41-.13.47-.21.69M917.55.7C918.68,0,920,1.14,919.66,2a2,2,0,0,1-1.9.77c-.56-.2-.69-1.52-.21-2.08"/><path class="cls-1" d="M880.39,1.48h-.28c-.1.46.53.34.28,0m-.7.38a.54.54,0,0,0-.07-.39h-.21c0,.25.08.37.28.39m-1.06.38a1.58,1.58,0,0,1,.07-1.16c.42-.85,1.63-.63,2.18-.07.83,1.7-1.47,2.13-2.25,1.23"/><path class="cls-1" d="M912.27,2.38c-.55-.32-.51.3,0,0m0-.85a.29.29,0,1,0,.56,0c-.16,0-.42-.15-.56,0m-.14-.93a1.21,1.21,0,0,1,1.48,1c.06.87-1.85,2.11-2.39.92a1.57,1.57,0,0,1,.92-1.93"/><path class="cls-1" d="M892.56,2.27c.17,0,.21.13.42.08.17-.32,0-.83-.42-.77-.14.16-.05.51,0,.69M893.69,2a.64.64,0,0,0-.56-.93,1.17,1.17,0,0,0,.56.93M892.21,3c-1.74-1.5,1.55-3.57,1.9-1.69.21,1.1-.92,1.67-1.9,1.69"/><path class="cls-1" d="M906.22,1.76c0,.55.95.64.92,0-.18-.43-.62-.1-.92,0m-.78.85c-1-2.18,2.78-2.23,2.32-.38-.16.66-1.69.81-2.32.38"/><path class="cls-1" d="M873.91,2.09a.81.81,0,0,0-.49-.93c.24.22.06.91.49.93m.63.31c-.48.83-2.08.8-2.25-.16-.37-2.09,2.44-2.54,2.25.16"/><path class="cls-1" d="M866.1.92c1.59-.29,1.55,2.22.14,2.16A1.09,1.09,0,0,1,866.1.92"/><path class="cls-1" d="M899.53,1.13a1.36,1.36,0,0,1,1.55,1.31c-.05.67-1.82,1.48-2.39.61a1.4,1.4,0,0,1,.85-1.93"/><path class="cls-1" d="M923.37,1c1.59-.29,1.55,2.22.14,2.16A1.09,1.09,0,0,1,923.37,1"/><path class="cls-1" d="M227.88,1.37c.18.06.28.21.49.23a1.35,1.35,0,0,0,.35-.69.72.72,0,0,0-.63-.23c.1.41-.13.47-.21.69M227.39.21c1.13-.69,2.46.45,2.11,1.31a2,2,0,0,1-1.9.77c-.56-.2-.69-1.52-.21-2.08"/><path class="cls-1" d="M255.24,1.57c-.13-.17-.24-.36-.56-.31-.13.43.45.62.56.31m-1.41-1c.94-.54,2.34-.77,2.32.62,0,.85-.93,1.28-1.83,1.15-.54-.14-.67-1.11-.49-1.77"/><path class="cls-1" d="M286.14,1.47c.18.06.28.21.49.23A1.35,1.35,0,0,0,287,1a.72.72,0,0,0-.63-.23c.1.41-.13.47-.21.69M285.65.31c1.13-.69,2.46.45,2.11,1.31a2,2,0,0,1-1.9.77c-.56-.2-.69-1.52-.21-2.08"/><path class="cls-1" d="M248.48,1.1h-.28c-.1.46.53.34.28,0m-.7.38a.54.54,0,0,0-.07-.39h-.21c0,.25.08.37.28.39m-1.06.38a1.58,1.58,0,0,1,.07-1.16c.42-.85,1.63-.63,2.18-.07.83,1.7-1.47,2.13-2.25,1.23"/><path class="cls-1" d="M280.37,2c-.55-.32-.51.3,0,0m0-.85a.29.29,0,1,0,.56,0c-.16,0-.42-.15-.56,0m-.14-.93a1.21,1.21,0,0,1,1.48,1c.06.87-1.85,2.11-2.39.92a1.57,1.57,0,0,1,.92-1.93"/><path class="cls-1" d="M260.66,1.89c.17,0,.21.13.42.08.17-.32,0-.83-.42-.77-.14.16-.05.51,0,.69m1.13-.31a.64.64,0,0,0-.56-.93,1.17,1.17,0,0,0,.56.93m-1.48,1.08c-1.74-1.5,1.55-3.57,1.9-1.69.21,1.1-.92,1.67-1.9,1.69"/><path class="cls-1" d="M274.32,1.37c0,.55.95.64.92,0-.18-.43-.62-.1-.92,0m-.78.85c-1-2.18,2.78-2.23,2.32-.38-.16.66-1.69.81-2.32.38"/><path class="cls-1" d="M242,1.7a.81.81,0,0,0-.49-.93c.24.22.06.91.49.93m.63.31c-.48.83-2.08.8-2.25-.16C240-.24,242.82-.68,242.64,2"/><path class="cls-1" d="M234.19.53c1.59-.29,1.55,2.22.14,2.16a1.09,1.09,0,0,1-.14-2.16"/><path class="cls-1" d="M267.63.74a1.36,1.36,0,0,1,1.55,1.31c-.05.67-1.82,1.48-2.39.61a1.4,1.4,0,0,1,.85-1.93"/><path class="cls-1" d="M312.51,1.67c-.13-.17-.24-.36-.56-.31-.13.43.45.62.56.31m-1.41-1c.94-.54,2.34-.77,2.32.62,0,.85-.93,1.28-1.83,1.15-.54-.14-.67-1.11-.49-1.77"/><path class="cls-1" d="M343.41,1.56c.18.06.28.21.49.23a1.35,1.35,0,0,0,.35-.69.72.72,0,0,0-.63-.23c.1.41-.13.47-.21.69M342.92.41c1.13-.69,2.46.45,2.11,1.31a2,2,0,0,1-1.9.77c-.56-.2-.69-1.52-.21-2.08"/><path class="cls-1" d="M305.75,1.19h-.28c-.1.46.53.34.28,0m-.7.38a.54.54,0,0,0-.07-.39h-.21c0,.25.08.37.28.39M304,2A1.58,1.58,0,0,1,304.07.8c.42-.85,1.63-.63,2.18-.07.83,1.7-1.47,2.13-2.25,1.23"/><path class="cls-1" d="M337.64,2.09c-.55-.32-.51.3,0,0m0-.85a.29.29,0,1,0,.56,0c-.16,0-.42-.15-.56,0M337.5.32a1.21,1.21,0,0,1,1.48,1c.06.87-1.85,2.11-2.39.92A1.57,1.57,0,0,1,337.5.32"/><path class="cls-1" d="M317.93,2c.17,0,.21.13.42.08.17-.32,0-.83-.42-.77-.14.16-.05.51,0,.69m1.13-.31a.64.64,0,0,0-.56-.93,1.17,1.17,0,0,0,.56.93m-1.48,1.08c-1.74-1.5,1.55-3.57,1.9-1.69.21,1.1-.92,1.67-1.9,1.69"/><path class="cls-1" d="M331.59,1.47c0,.55.95.64.92,0-.18-.43-.62-.1-.92,0m-.78.85c-1-2.18,2.78-2.23,2.32-.38-.16.66-1.69.81-2.32.38"/><path class="cls-1" d="M299.28,1.8a.81.81,0,0,0-.49-.93c.24.22.06.91.49.93m.63.31c-.48.83-2.08.8-2.25-.16-.37-2.09,2.44-2.54,2.25.16"/><path class="cls-1" d="M291.47.63c1.59-.29,1.55,2.22.14,2.16a1.09,1.09,0,0,1-.14-2.16"/><path class="cls-1" d="M324.9.84a1.36,1.36,0,0,1,1.55,1.31c-.05.67-1.82,1.48-2.39.61A1.4,1.4,0,0,1,324.9.84"/><path class="cls-1" d="M370.78,1.76c-.13-.17-.24-.36-.56-.31-.13.43.45.62.56.31m-1.41-1c.94-.54,2.34-.77,2.32.62,0,.85-.93,1.28-1.83,1.15-.54-.14-.67-1.11-.49-1.77"/><path class="cls-1" d="M401.68,1.66c.18.06.28.21.49.23a1.35,1.35,0,0,0,.35-.69.72.72,0,0,0-.63-.23c.1.41-.13.47-.21.69M401.19.5c1.13-.69,2.46.45,2.11,1.31a2,2,0,0,1-1.9.77c-.56-.2-.69-1.52-.21-2.08"/><path class="cls-1" d="M364,1.29h-.28c-.1.46.53.34.28,0m-.7.38a.54.54,0,0,0-.07-.39H363c0,.25.08.37.28.39m-1.06.38A1.58,1.58,0,0,1,362.33.9c.42-.85,1.63-.63,2.18-.07.83,1.7-1.47,2.13-2.25,1.23"/><path class="cls-1" d="M395.91,2.19c-.55-.32-.51.3,0,0m0-.85a.29.29,0,1,0,.56,0c-.16,0-.42-.15-.56,0m-.14-.93a1.21,1.21,0,0,1,1.48,1c.06.87-1.85,2.11-2.39.92a1.57,1.57,0,0,1,.92-1.93"/><path class="cls-1" d="M376.2,2.08c.17,0,.21.13.42.08.17-.32,0-.83-.42-.77-.14.16-.05.51,0,.69m1.13-.31a.64.64,0,0,0-.56-.93,1.17,1.17,0,0,0,.56.93m-1.48,1.08c-1.74-1.5,1.55-3.57,1.9-1.69.21,1.1-.92,1.67-1.9,1.69"/><path class="cls-1" d="M389.85,1.56c0,.55.95.64.92,0-.18-.43-.62-.1-.92,0m-.78.85C388.1.23,391.85.18,391.4,2c-.16.66-1.69.81-2.32.38"/><path class="cls-1" d="M357.54,1.89a.81.81,0,0,0-.49-.93c.24.22.06.91.49.93m.63.31c-.48.83-2.08.8-2.25-.16-.37-2.09,2.44-2.54,2.25.16"/><path class="cls-1" d="M349.73.73c1.59-.29,1.55,2.22.14,2.16a1.09,1.09,0,0,1-.14-2.16"/><path class="cls-1" d="M383.17.94a1.36,1.36,0,0,1,1.55,1.31c-.05.67-1.82,1.48-2.39.61a1.4,1.4,0,0,1,.85-1.93"/><path class="cls-1" d="M429.81,1.86c-.13-.17-.24-.36-.56-.31-.13.43.45.62.56.31m-1.41-1c.94-.54,2.34-.77,2.32.62,0,.85-.93,1.28-1.83,1.15-.54-.14-.67-1.11-.49-1.77"/><path class="cls-1" d="M460.71,1.76c.18.06.28.21.49.23a1.34,1.34,0,0,0,.35-.69.72.72,0,0,0-.63-.23c.1.41-.13.47-.21.69M460.22.6c1.13-.69,2.46.45,2.11,1.31a2,2,0,0,1-1.9.77c-.56-.2-.69-1.52-.21-2.08"/><path class="cls-1" d="M423.05,1.39h-.28c-.1.46.53.34.28,0m-.7.38a.54.54,0,0,0-.07-.39h-.21c0,.25.08.37.28.39m-1.06.38A1.58,1.58,0,0,1,421.37,1c.42-.85,1.63-.63,2.18-.07.83,1.7-1.47,2.13-2.25,1.23"/><path class="cls-1" d="M454.94,2.29c-.55-.32-.51.3,0,0m0-.85a.29.29,0,1,0,.56,0c-.16,0-.42-.15-.56,0M454.8.51a1.21,1.21,0,0,1,1.48,1c.06.87-1.85,2.11-2.39.92A1.57,1.57,0,0,1,454.8.51"/><path class="cls-1" d="M435.23,2.18c.17,0,.21.13.42.08.17-.32,0-.83-.42-.77-.14.16-.05.51,0,.69m1.13-.31a.64.64,0,0,0-.56-.93,1.17,1.17,0,0,0,.56.93m-1.48,1.08c-1.74-1.5,1.55-3.57,1.9-1.69.21,1.1-.92,1.67-1.9,1.69"/><path class="cls-1" d="M448.89,1.66c0,.55.95.64.92,0-.18-.43-.62-.1-.92,0m-.78.85c-1-2.18,2.78-2.23,2.32-.38-.16.66-1.69.81-2.32.38"/><path class="cls-1" d="M416.58,2a.81.81,0,0,0-.49-.93c.24.22.06.91.49.93m.63.31c-.48.83-2.08.8-2.25-.16-.37-2.09,2.44-2.54,2.25.16"/><path class="cls-1" d="M408.77.82C410.35.54,410.32,3,408.9,3a1.09,1.09,0,0,1-.14-2.16"/><path class="cls-1" d="M442.2,1a1.36,1.36,0,0,1,1.55,1.31c-.05.67-1.82,1.48-2.39.61A1.4,1.4,0,0,1,442.2,1"/><path class="cls-1" d="M488.08,2c-.13-.17-.24-.36-.56-.31-.13.43.45.62.56.31m-1.41-1c.94-.54,2.34-.77,2.32.62,0,.85-.93,1.28-1.83,1.15-.54-.14-.67-1.11-.49-1.77"/><path class="cls-1" d="M519,1.85c.18.06.28.21.49.23a1.35,1.35,0,0,0,.35-.69.72.72,0,0,0-.63-.23c.1.41-.13.47-.21.69M518.49.7c1.13-.69,2.46.45,2.11,1.31a2,2,0,0,1-1.9.77c-.56-.2-.69-1.52-.21-2.08"/><path class="cls-1" d="M481.32,1.48H481c-.1.46.53.34.28,0m-.7.38a.54.54,0,0,0-.07-.39h-.21c0,.25.08.37.28.39m-1.06.38a1.58,1.58,0,0,1,.07-1.16c.42-.85,1.63-.63,2.18-.07.83,1.7-1.47,2.13-2.25,1.23"/><path class="cls-1" d="M513.21,2.38c-.55-.32-.51.3,0,0m0-.85a.29.29,0,1,0,.56,0c-.16,0-.42-.15-.56,0m-.14-.93a1.21,1.21,0,0,1,1.48,1c.06.87-1.85,2.11-2.39.92a1.57,1.57,0,0,1,.92-1.93"/><path class="cls-1" d="M493.5,2.27c.17,0,.21.13.42.08.17-.32,0-.83-.42-.77-.14.16-.05.51,0,.69M494.62,2a.64.64,0,0,0-.56-.93,1.17,1.17,0,0,0,.56.93M493.14,3c-1.74-1.5,1.55-3.57,1.9-1.69.21,1.1-.92,1.67-1.9,1.69"/><path class="cls-1" d="M507.15,1.76c0,.55.95.64.92,0-.18-.43-.62-.1-.92,0m-.78.85c-1-2.18,2.78-2.23,2.32-.38-.16.66-1.69.81-2.32.38"/><path class="cls-1" d="M474.84,2.09a.81.81,0,0,0-.49-.93c.24.22.06.91.49.93m.63.31c-.48.83-2.08.8-2.25-.16-.37-2.09,2.44-2.54,2.25.16"/><path class="cls-1" d="M467,.92c1.59-.29,1.55,2.22.14,2.16A1.09,1.09,0,0,1,467,.92"/><path class="cls-1" d="M500.47,1.13A1.36,1.36,0,0,1,502,2.44c-.05.67-1.82,1.48-2.39.61a1.4,1.4,0,0,1,.85-1.93"/><path class="cls-1" d="M545.35,2.05c-.13-.17-.24-.36-.56-.31-.13.43.45.62.56.31m-1.41-1c.94-.54,2.34-.77,2.32.62,0,.85-.93,1.28-1.83,1.15-.54-.14-.67-1.11-.49-1.77"/><path class="cls-1" d="M576.25,1.95c.18.06.28.21.49.23a1.35,1.35,0,0,0,.35-.69.72.72,0,0,0-.63-.23c.1.41-.13.47-.21.69M575.76.79c1.13-.69,2.46.45,2.11,1.31a2,2,0,0,1-1.9.77c-.56-.2-.69-1.52-.21-2.08"/><path class="cls-1" d="M538.59,1.58h-.28c-.1.46.53.34.28,0m-.7.38a.54.54,0,0,0-.07-.39h-.21c0,.25.08.37.28.39m-1.06.38a1.58,1.58,0,0,1,.07-1.16c.42-.85,1.63-.63,2.18-.07.83,1.7-1.47,2.13-2.25,1.23"/><path class="cls-1" d="M570.48,2.48c-.55-.32-.51.3,0,0m0-.85a.29.29,0,1,0,.56,0c-.16,0-.42-.15-.56,0m-.14-.93a1.21,1.21,0,0,1,1.48,1c.06.87-1.85,2.11-2.39.92a1.57,1.57,0,0,1,.92-1.93"/><path class="cls-1" d="M550.77,2.37c.17,0,.21.13.42.08.17-.32,0-.83-.42-.77-.14.16-.05.51,0,.69m1.13-.31a.64.64,0,0,0-.56-.93,1.17,1.17,0,0,0,.56.93m-1.48,1.08c-1.74-1.5,1.55-3.57,1.9-1.69.21,1.1-.92,1.67-1.9,1.69"/><path class="cls-1" d="M564.43,1.85c0,.55.95.64.92,0-.18-.43-.62-.1-.92,0m-.78.85c-1-2.18,2.78-2.23,2.32-.38-.16.66-1.69.81-2.32.38"/><path class="cls-1" d="M532.11,2.18a.81.81,0,0,0-.49-.93c.24.22.06.91.49.93m.63.31c-.48.83-2.08.8-2.25-.16-.37-2.09,2.44-2.54,2.25.16"/><path class="cls-1" d="M524.3,1c1.59-.29,1.55,2.22.14,2.16A1.09,1.09,0,0,1,524.3,1"/><path class="cls-1" d="M557.74,1.23a1.36,1.36,0,0,1,1.55,1.31c-.05.67-1.82,1.48-2.39.61a1.4,1.4,0,0,1,.85-1.93"/><path class="cls-1" d="M603.61,2.15c-.13-.17-.24-.36-.56-.31-.13.43.45.62.56.31m-1.41-1c.94-.54,2.34-.77,2.32.62,0,.85-.93,1.28-1.83,1.15-.54-.14-.67-1.11-.49-1.77"/><path class="cls-1" d="M596.86,1.68h-.28c-.1.46.53.34.28,0m-.7.38a.54.54,0,0,0-.07-.39h-.21c0,.25.08.37.28.39m-1.06.38a1.58,1.58,0,0,1,.07-1.16c.42-.85,1.63-.63,2.18-.07.83,1.7-1.47,2.13-2.25,1.23"/><path class="cls-1" d="M609,2.47c.17,0,.21.13.42.08.17-.32,0-.83-.42-.77-.14.16-.05.51,0,.69m1.13-.31a.64.64,0,0,0-.56-.93,1.17,1.17,0,0,0,.56.93m-1.48,1.08c-1.74-1.5,1.55-3.57,1.9-1.69.21,1.1-.92,1.67-1.9,1.69"/><path class="cls-1" d="M622.69,1.95c0,.55.95.64.92,0-.18-.43-.62-.1-.92,0m-.78.85c-1-2.18,2.78-2.23,2.32-.38-.16.66-1.69.81-2.32.38"/><path class="cls-1" d="M590.38,2.28a.81.81,0,0,0-.49-.93c.24.22.06.91.49.93m.63.31c-.48.83-2.08.8-2.25-.16C588.39.34,591.2-.1,591,2.59"/><path class="cls-1" d="M582.57,1.11c1.59-.29,1.55,2.22.14,2.16a1.09,1.09,0,0,1-.14-2.16"/><path class="cls-1" d="M616,1.32a1.36,1.36,0,0,1,1.55,1.31c-.05.67-1.82,1.48-2.39.61A1.4,1.4,0,0,1,616,1.32"/><path class="cls-1" d="M.79,1.66c.18.06.28.21.49.23a1.35,1.35,0,0,0,.35-.69A.72.72,0,0,0,1,1c.1.41-.13.47-.21.69M.3.5C1.43-.19,2.75.95,2.41,1.82a2,2,0,0,1-1.9.77C-.05,2.39-.19,1.06.3.5"/><path class="cls-1" d="M28.92,1.86c-.13-.17-.24-.36-.56-.31-.13.43.45.62.56.31m-1.41-1c.94-.54,2.34-.77,2.32.62,0,.85-.93,1.28-1.83,1.15-.54-.14-.67-1.11-.49-1.77"/><path class="cls-1" d="M59.82,1.76c.18.06.28.21.49.23a1.34,1.34,0,0,0,.35-.69A.72.72,0,0,0,60,1.06c.1.41-.13.47-.21.69M59.33.6c1.13-.69,2.46.45,2.11,1.31a2,2,0,0,1-1.9.77c-.56-.2-.69-1.52-.21-2.08"/><path class="cls-1" d="M22.16,1.39h-.28c-.1.46.53.34.28,0m-.7.38a.54.54,0,0,0-.07-.39h-.21c0,.25.08.37.28.39m-1.06.38A1.58,1.58,0,0,1,20.47,1C20.89.15,22.1.37,22.66.93c.83,1.7-1.47,2.13-2.25,1.23"/><path class="cls-1" d="M54,2.29c-.55-.32-.51.3,0,0m0-.85a.29.29,0,1,0,.56,0c-.16,0-.42-.15-.56,0M53.91.51a1.21,1.21,0,0,1,1.48,1c.06.87-1.85,2.11-2.39.92A1.57,1.57,0,0,1,53.91.51"/><path class="cls-1" d="M34.34,2.18c.17,0,.21.13.42.08.17-.32,0-.83-.42-.77-.14.16-.05.51,0,.69m1.13-.31A.64.64,0,0,0,34.9.95a1.17,1.17,0,0,0,.56.93M34,2.95c-1.74-1.5,1.55-3.57,1.9-1.69C36.1,2.35,35,2.92,34,2.95"/><path class="cls-1" d="M48,1.66c0,.55.95.64.92,0-.18-.43-.62-.1-.92,0m-.78.85C46.24.33,50,.28,49.54,2.13c-.16.66-1.69.81-2.32.38"/><path class="cls-1" d="M15.68,2a.81.81,0,0,0-.49-.93c.24.22.06.91.49.93m.63.31c-.48.83-2.08.8-2.25-.16C13.69.05,16.5-.39,16.32,2.3"/><path class="cls-1" d="M7.87.82C9.46.54,9.43,3,8,3A1.09,1.09,0,0,1,7.87.82"/><path class="cls-1" d="M41.31,1a1.36,1.36,0,0,1,1.55,1.31C42.8,3,41,3.83,40.46,3A1.4,1.4,0,0,1,41.31,1"/><path class="cls-1" d="M87.19,2c-.13-.17-.24-.36-.56-.31-.13.43.45.62.56.31M85.78,1c.94-.54,2.34-.77,2.32.62,0,.85-.93,1.28-1.83,1.15-.54-.14-.67-1.11-.49-1.77"/><path class="cls-1" d="M118.09,1.85c.18.06.28.21.49.23a1.35,1.35,0,0,0,.35-.69.72.72,0,0,0-.63-.23c.1.41-.13.47-.21.69M117.6.7c1.13-.69,2.46.45,2.11,1.31a2,2,0,0,1-1.9.77c-.56-.2-.69-1.52-.21-2.08"/><path class="cls-1" d="M80.43,1.48h-.28c-.1.46.53.34.28,0m-.7.38a.54.54,0,0,0-.07-.39h-.21c0,.25.08.37.28.39m-1.06.38a1.58,1.58,0,0,1,.07-1.16C79.16.24,80.37.47,80.92,1c.83,1.7-1.47,2.13-2.25,1.23"/><path class="cls-1" d="M112.32,2.38c-.55-.32-.51.3,0,0m0-.85a.29.29,0,1,0,.56,0c-.16,0-.42-.15-.56,0m-.14-.93a1.21,1.21,0,0,1,1.48,1c.06.87-1.85,2.11-2.39.92a1.57,1.57,0,0,1,.92-1.93"/><path class="cls-1" d="M92.61,2.27c.17,0,.21.13.42.08.17-.32,0-.83-.42-.77-.14.16-.05.51,0,.69M93.73,2A.64.64,0,0,0,93.17,1a1.17,1.17,0,0,0,.56.93M92.25,3c-1.74-1.5,1.55-3.57,1.9-1.69.21,1.1-.92,1.67-1.9,1.69"/><path class="cls-1" d="M106.26,1.76c0,.55.95.64.92,0-.18-.43-.62-.1-.92,0m-.78.85c-1-2.18,2.78-2.23,2.32-.38-.16.66-1.69.81-2.32.38"/><path class="cls-1" d="M74,2.09a.81.81,0,0,0-.49-.93c.24.22.06.91.49.93m.63.31c-.48.83-2.08.8-2.25-.16C72,.15,74.77-.3,74.58,2.4"/><path class="cls-1" d="M66.14.92c1.59-.29,1.55,2.22.14,2.16A1.09,1.09,0,0,1,66.14.92"/><path class="cls-1" d="M99.58,1.13a1.36,1.36,0,0,1,1.55,1.31c-.05.67-1.82,1.48-2.39.61a1.4,1.4,0,0,1,.85-1.93"/><path class="cls-1" d="M144.46,2.05c-.13-.17-.24-.36-.56-.31-.13.43.45.62.56.31m-1.41-1c.94-.54,2.34-.77,2.32.62,0,.85-.93,1.28-1.83,1.15-.54-.14-.67-1.11-.49-1.77"/><path class="cls-1" d="M175.36,1.95c.18.06.28.21.49.23a1.35,1.35,0,0,0,.35-.69.72.72,0,0,0-.63-.23c.1.41-.13.47-.21.69M174.87.79c1.13-.69,2.46.45,2.11,1.31a2,2,0,0,1-1.9.77c-.56-.2-.69-1.52-.21-2.08"/><path class="cls-1" d="M137.7,1.58h-.28c-.1.46.53.34.28,0M137,2a.54.54,0,0,0-.07-.39h-.21c0,.25.08.37.28.39m-1.06.38A1.58,1.58,0,0,1,136,1.19c.42-.85,1.63-.63,2.18-.07.83,1.7-1.47,2.13-2.25,1.23"/><path class="cls-1" d="M169.59,2.48c-.55-.32-.51.3,0,0m0-.85a.29.29,0,1,0,.56,0c-.16,0-.42-.15-.56,0m-.14-.93a1.21,1.21,0,0,1,1.48,1c.06.87-1.85,2.11-2.39.92a1.57,1.57,0,0,1,.92-1.93"/><path class="cls-1" d="M149.88,2.37c.17,0,.21.13.42.08.17-.32,0-.83-.42-.77-.14.16-.05.51,0,.69M151,2.06a.64.64,0,0,0-.56-.93,1.17,1.17,0,0,0,.56.93m-1.48,1.08c-1.74-1.5,1.55-3.57,1.9-1.69.21,1.1-.92,1.67-1.9,1.69"/><path class="cls-1" d="M163.53,1.85c0,.55.95.64.92,0-.18-.43-.62-.1-.92,0m-.78.85c-1-2.18,2.78-2.23,2.32-.38-.16.66-1.69.81-2.32.38"/><path class="cls-1" d="M131.22,2.18a.81.81,0,0,0-.49-.93c.24.22.06.91.49.93m.63.31c-.48.83-2.08.8-2.25-.16-.37-2.09,2.44-2.54,2.25.16"/><path class="cls-1" d="M123.41,1c1.59-.29,1.55,2.22.14,2.16A1.09,1.09,0,0,1,123.41,1"/><path class="cls-1" d="M156.85,1.23a1.36,1.36,0,0,1,1.55,1.31c-.05.67-1.82,1.48-2.39.61a1.4,1.4,0,0,1,.85-1.93"/><path class="cls-1" d="M202.72,2.15c-.13-.17-.24-.36-.56-.31-.13.43.45.62.56.31m-1.41-1c.94-.54,2.34-.77,2.32.62,0,.85-.93,1.28-1.83,1.15-.54-.14-.67-1.11-.49-1.77"/><path class="cls-1" d="M196,1.68h-.28c-.1.46.53.34.28,0m-.7.38a.54.54,0,0,0-.07-.39H195c0,.25.08.37.28.39m-1.06.38a1.58,1.58,0,0,1,.07-1.16c.42-.85,1.63-.63,2.18-.07.83,1.7-1.47,2.13-2.25,1.23"/><path class="cls-1" d="M208.14,2.47c.17,0,.21.13.42.08.17-.32,0-.83-.42-.77-.14.16-.05.51,0,.69m1.13-.31a.64.64,0,0,0-.56-.93,1.17,1.17,0,0,0,.56.93m-1.48,1.08c-1.74-1.5,1.55-3.57,1.9-1.69.21,1.1-.92,1.67-1.9,1.69"/><path class="cls-1" d="M221.8,1.95c0,.55.95.64.92,0-.18-.43-.62-.1-.92,0M221,2.8c-1-2.18,2.78-2.23,2.32-.38-.16.66-1.69.81-2.32.38"/><path class="cls-1" d="M189.49,2.28a.81.81,0,0,0-.49-.93c.24.22.06.91.49.93m.63.31c-.48.83-2.08.8-2.25-.16-.37-2.09,2.44-2.54,2.25.16"/><path class="cls-1" d="M181.68,1.11c1.59-.29,1.55,2.22.14,2.16a1.09,1.09,0,0,1-.14-2.16"/><path class="cls-1" d="M215.11,1.32a1.36,1.36,0,0,1,1.55,1.31c-.05.67-1.82,1.48-2.39.61a1.4,1.4,0,0,1,.85-1.93"/></g></g></svg>