<svg xmlns="http://www.w3.org/2000/svg" viewBox="0 0 31.68 32.6"><defs><style>.cls-1{fill:#53b0a1;}.cls-2{fill:#fff;}</style></defs><title>Asset 23</title><g id="Layer_2" data-name="Layer 2"><g id="instaraction"><path class="cls-1" d="M23.54,2.49c-.64-.74-2.83-1.33-3.8-1.69C10.45-2.62,2.12,5.49,1.2,14.31A19.29,19.29,0,0,0,2,22.41H2S0,32.77,0,32.6s4.05-2.46,6.38-3.79a13.49,13.49,0,0,0,8.45,2.76c8.78.05,17.36-5.29,16.82-14.95C31.33,10.72,28.8,4.86,23.54,2.49Z"/><path class="cls-2" d="M16.44,29a12.9,12.9,0,1,1,12.93-12.9A12.93,12.93,0,0,1,16.44,29Zm0-25.43A12.53,12.53,0,1,0,29,16.08,12.56,12.56,0,0,0,16.44,3.55Z"/><path class="cls-2" d="M24.93,23l-.76.74h0a4.31,4.31,0,0,1-1.08.61,4.48,4.48,0,0,1-1.1.28c-.17,0-4.18.39-9.14-4.56-3.59-3.59-4.92-6.23-4.57-9.12a4.48,4.48,0,0,1,.27-1.1,4.3,4.3,0,0,1,.61-1.08l0,0L9.88,8a1.38,1.38,0,0,1,1.95,0l2.65,2.64a1.37,1.37,0,0,1,0,1.94L14,13l-.9.89.14.26a13.32,13.32,0,0,0,2.32,3.21,13.27,13.27,0,0,0,3.21,2.31l.26.15,1.33-1.33a1.38,1.38,0,0,1,1.95,0L25,21A1.38,1.38,0,0,1,24.93,23Z"/></g></g></svg>