<svg xmlns="http://www.w3.org/2000/svg" viewBox="0 0 30.6 31.57"><defs><style>.cls-1{fill:#53b0a1;}.cls-2{fill:#fff;}</style></defs><title>Asset 19</title><g id="Layer_2" data-name="Layer 2"><g id="instaraction"><path class="cls-1" d="M30.58,16.62c-.33-5.9-2.92-12.1-8.18-14.48-.64-.74-2.76-1-3.74-1.34C9.37-2.62,1,5.49.12,14.31c-1,9.1,3.82,17.2,13.64,17.26C22.53,31.62,31.11,26.28,30.58,16.62Z"/><path class="cls-2" d="M19.56,15.79H16.77v9.93H12.65V15.79h-2V12.29h2V10a3.87,3.87,0,0,1,4.16-4.16h3.06v3.4H17.65a.84.84,0,0,0-.88,1v2.06h3.15Z"/></g></g></svg>