<svg xmlns="http://www.w3.org/2000/svg" viewBox="0 0 79.64 6.04"><defs><style>.cls-1{fill:#febf3e;}</style></defs><title>Asset 1</title><g id="Layer_2" data-name="Layer 2"><g id="over"><path class="cls-1" d="M3,3c-.26-.35-.48-.73-1.15-.63C1.6,3.27,2.81,3.66,3,3M.15,1C2.08-.15,4.93-.62,4.91,2.23,4.89,4,3,4.85,1.15,4.59.06,4.3-.21,2.32.15,1"/><path class="cls-1" d="M66.3,2.81c.36.13.57.43,1,.47A2.75,2.75,0,0,0,68,1.86a1.47,1.47,0,0,0-1.3-.48c.19.85-.27,1-.44,1.42m-1-2.37c2.31-1.42,5,.91,4.32,2.69-.36.91-2.73,2-3.89,1.57S64.3,1.58,65.29.44"/><path class="cls-1" d="M54.48,3.89c-1.12-.66-1,.62,0,0m0-1.74a.6.6,0,1,0,1.15,0c-.33-.1-.87-.31-1.15,0M54.2.26a2.47,2.47,0,0,1,3,2.06c.11,1.79-3.8,4.31-4.9,1.89A3.21,3.21,0,0,1,54.2.26"/><path class="cls-1" d="M14.13,3.67c.34,0,.42.27.86.16.34-.65,0-1.71-.86-1.58-.28.33-.11,1,0,1.42M16.43,3a1.32,1.32,0,0,0-1.15-1.9A2.39,2.39,0,0,0,16.43,3m-3,2.2c-3.55-3.07,3.16-7.3,3.9-3.47.43,2.25-1.89,3.41-3.9,3.47"/><path class="cls-1" d="M42.09,2.61c0,1.13,1.94,1.32,1.87,0-.38-.88-1.27-.2-1.87,0M40.5,4.34c-2-4.46,5.68-4.56,4.76-.78-.33,1.34-3.47,1.67-4.76.78"/><path class="cls-1" d="M28.4,1.32A2.79,2.79,0,0,1,31.56,4c-.11,1.36-3.72,3-4.9,1.25-1-1.45.32-3.54,1.74-3.94"/><path class="cls-1" d="M77.19,1.09c3.25-.58,3.18,4.54.28,4.42-2.37-.1-3.09-3.91-.28-4.42"/></g></g></svg>