<svg xmlns="http://www.w3.org/2000/svg" viewBox="0 0 285.08 3.42"><defs><style>.cls-1{fill:#545453;}</style></defs><title>Asset 2</title><g id="Layer_2" data-name="Layer 2"><g id="art"><path class="cls-1" d="M13.1,1.41c.18.07.28.22.51.24A1.38,1.38,0,0,0,14,.93.74.74,0,0,0,13.32.7c.1.42-.14.48-.22.71M12.6.22c1.16-.71,2.52.46,2.16,1.35a2.08,2.08,0,0,1-2,.79c-.57-.2-.71-1.56-.21-2.14"/><path class="cls-1" d="M7.18,2c-.56-.33-.52.31,0,0m0-.87a.3.3,0,1,0,.58,0c-.17-.05-.44-.16-.58,0M7,.13a1.24,1.24,0,0,1,1.51,1c.06.9-1.9,2.16-2.46.95A1.61,1.61,0,0,1,7,.13"/><path class="cls-1" d="M1,1.31c0,.56,1,.66.94,0-.19-.44-.64-.1-.94,0m-.8.87C-.84-.06,3-.11,2.55,1.78c-.16.67-1.74.84-2.38.39"/><path class="cls-1" d="M41.18,1.61c-.13-.17-.24-.37-.58-.32-.14.44.47.64.58.32m-1.44-1c1-.56,2.4-.79,2.38.64,0,.87-1,1.31-1.88,1.18-.55-.15-.68-1.14-.5-1.82"/><path class="cls-1" d="M72.9,1.51c.18.07.28.22.51.24A1.38,1.38,0,0,0,73.77,1a.74.74,0,0,0-.65-.24c.1.42-.14.48-.22.71M72.39.32c1.16-.71,2.52.46,2.16,1.35a2.08,2.08,0,0,1-2,.79C72,2.25,71.9.89,72.39.32"/><path class="cls-1" d="M34.25,1.13H34c-.1.47.55.35.29,0m-.72.39a.56.56,0,0,0-.07-.4h-.22c0,.26.09.38.29.4m-1.08.39A1.63,1.63,0,0,1,32.52.73c.43-.88,1.67-.64,2.24-.08.85,1.74-1.51,2.19-2.31,1.26"/><path class="cls-1" d="M67,2.05c-.56-.33-.52.31,0,0m0-.87a.3.3,0,1,0,.58,0c-.17-.05-.44-.16-.58,0M66.83.23a1.24,1.24,0,0,1,1.51,1c.06.9-1.9,2.16-2.46.95a1.61,1.61,0,0,1,.94-2"/><path class="cls-1" d="M46.75,1.94c.17,0,.21.14.43.08.17-.33,0-.86-.43-.79-.14.17-.06.53,0,.71m1.16-.31a.66.66,0,0,0-.58-1,1.2,1.2,0,0,0,.58,1M46.38,2.73C44.6,1.19,48-.93,48.34,1c.22,1.13-.95,1.71-2,1.74"/><path class="cls-1" d="M60.76,1.41c0,.56,1,.66.94,0-.19-.44-.64-.1-.94,0m-.8.87C59,0,62.81,0,62.35,1.88c-.16.67-1.74.84-2.38.39"/><path class="cls-1" d="M27.6,1.75a.83.83,0,0,0-.5-1c.25.23.07.93.5,1m.65.32c-.49.85-2.14.83-2.31-.16-.38-2.15,2.5-2.6,2.31.16"/><path class="cls-1" d="M19.58.55c1.63-.29,1.59,2.28.14,2.22A1.12,1.12,0,0,1,19.58.55"/><path class="cls-1" d="M53.9.76a1.4,1.4,0,0,1,1.59,1.35c-.05.68-1.87,1.52-2.46.63a1.44,1.44,0,0,1,.87-2"/><path class="cls-1" d="M101.77,1.71c-.13-.17-.24-.37-.58-.32-.14.44.47.64.58.32m-1.44-1c1-.56,2.4-.79,2.38.64,0,.87-1,1.31-1.88,1.18-.55-.15-.68-1.14-.5-1.82"/><path class="cls-1" d="M133.48,1.61c.18.07.28.22.51.24a1.38,1.38,0,0,0,.36-.71A.74.74,0,0,0,133.7.9c.1.42-.14.48-.22.71M133,.42c1.16-.71,2.52.46,2.16,1.35a2.08,2.08,0,0,1-2,.79c-.57-.2-.71-1.56-.21-2.14"/><path class="cls-1" d="M94.83,1.23h-.29c-.1.47.55.35.29,0m-.72.39a.56.56,0,0,0-.07-.4h-.22c0,.26.09.38.29.4M93,2A1.63,1.63,0,0,1,93.1.83C93.52,0,94.77.19,95.34.75,96.19,2.49,93.83,2.94,93,2"/><path class="cls-1" d="M127.56,2.15c-.56-.33-.52.31,0,0m0-.87a.3.3,0,1,0,.58,0c-.17-.05-.44-.16-.58,0m-.14-.95a1.24,1.24,0,0,1,1.51,1c.06.9-1.9,2.16-2.46.95a1.61,1.61,0,0,1,.94-2"/><path class="cls-1" d="M107.33,2c.17,0,.21.14.43.08.17-.33,0-.86-.43-.79-.14.17-.06.53,0,.71m1.16-.31a.66.66,0,0,0-.58-1,1.2,1.2,0,0,0,.58,1M107,2.83c-1.78-1.54,1.59-3.66,2-1.74.22,1.13-.95,1.71-2,1.74"/><path class="cls-1" d="M121.34,1.51c0,.56,1,.66.94,0-.19-.44-.64-.1-.94,0m-.8.87c-1-2.24,2.85-2.28,2.38-.39-.16.67-1.74.84-2.38.39"/><path class="cls-1" d="M88.18,1.85a.83.83,0,0,0-.5-1c.25.23.07.93.5,1m.65.32C88.35,3,86.7,3,86.52,2c-.38-2.15,2.5-2.6,2.31.16"/><path class="cls-1" d="M80.17.65c1.63-.29,1.59,2.28.14,2.22A1.12,1.12,0,0,1,80.17.65"/><path class="cls-1" d="M114.48.86a1.4,1.4,0,0,1,1.59,1.35c-.05.68-1.87,1.52-2.46.63a1.44,1.44,0,0,1,.87-2"/><path class="cls-1" d="M161.56,1.81c-.13-.17-.24-.37-.58-.32-.14.44.47.64.58.32m-1.44-1c1-.56,2.4-.79,2.38.64,0,.87-1,1.31-1.88,1.18-.55-.15-.68-1.14-.5-1.82"/><path class="cls-1" d="M193.28,1.71c.18.07.28.22.51.24a1.38,1.38,0,0,0,.36-.71A.74.74,0,0,0,193.5,1c.1.42-.14.48-.22.71m-.5-1.19c1.16-.71,2.52.46,2.16,1.35a2.08,2.08,0,0,1-2,.79c-.57-.2-.71-1.56-.21-2.14"/><path class="cls-1" d="M154.63,1.33h-.29c-.1.47.55.35.29,0m-.72.39a.56.56,0,0,0-.07-.4h-.22c0,.26.09.38.29.4m-1.08.39A1.63,1.63,0,0,1,152.9.93c.43-.88,1.67-.64,2.24-.08.85,1.74-1.51,2.19-2.31,1.26"/><path class="cls-1" d="M187.35,2.25c-.56-.33-.52.31,0,0m0-.87a.3.3,0,1,0,.58,0c-.17-.05-.44-.16-.58,0m-.14-.95a1.24,1.24,0,0,1,1.51,1c.06.9-1.9,2.16-2.46.95a1.61,1.61,0,0,1,.94-2"/><path class="cls-1" d="M167.12,2.14c.17,0,.21.14.43.08.17-.33,0-.86-.43-.79-.14.17-.06.53,0,.71m1.16-.31a.66.66,0,0,0-.58-1,1.2,1.2,0,0,0,.58,1m-1.52,1.11c-1.78-1.54,1.59-3.66,2-1.74.22,1.13-.95,1.71-2,1.74"/><path class="cls-1" d="M181.14,1.61c0,.56,1,.66.94,0-.19-.44-.64-.1-.94,0m-.8.87c-1-2.24,2.85-2.28,2.38-.39-.16.67-1.74.84-2.38.39"/><path class="cls-1" d="M148,1.95a.83.83,0,0,0-.5-1c.25.23.07.93.5,1m.65.32c-.49.85-2.14.83-2.31-.16-.38-2.15,2.5-2.6,2.31.16"/><path class="cls-1" d="M140,.75C141.59.45,141.56,3,140.1,3A1.12,1.12,0,0,1,140,.75"/><path class="cls-1" d="M174.28,1a1.4,1.4,0,0,1,1.59,1.35c-.05.68-1.87,1.52-2.46.63a1.44,1.44,0,0,1,.87-2"/><path class="cls-1" d="M220.34,1.91c-.13-.17-.24-.37-.58-.32-.14.44.47.64.58.32m-1.44-1c1-.56,2.4-.79,2.38.64,0,.87-1,1.31-1.88,1.18-.55-.15-.68-1.14-.5-1.82"/><path class="cls-1" d="M252.05,1.8c.18.07.28.22.51.24a1.38,1.38,0,0,0,.36-.71.74.74,0,0,0-.65-.24c.1.42-.14.48-.22.71m-.5-1.19c1.16-.71,2.52.46,2.16,1.35a2.08,2.08,0,0,1-2,.79c-.57-.2-.71-1.56-.21-2.14"/><path class="cls-1" d="M213.4,1.42h-.29c-.1.47.55.35.29,0m-.72.39a.56.56,0,0,0-.07-.4h-.22c0,.26.09.38.29.4m-1.08.39A1.63,1.63,0,0,1,211.67,1c.43-.88,1.67-.64,2.24-.08.85,1.74-1.51,2.19-2.31,1.26"/><path class="cls-1" d="M246.13,2.35c-.56-.33-.52.31,0,0m0-.87a.3.3,0,1,0,.58,0c-.17-.05-.44-.16-.58,0M246,.53a1.24,1.24,0,0,1,1.51,1c.06.9-1.9,2.16-2.46.95a1.61,1.61,0,0,1,.94-2"/><path class="cls-1" d="M225.9,2.24c.17,0,.21.14.43.08.17-.33,0-.86-.43-.79-.14.17-.06.53,0,.71m1.16-.31a.66.66,0,0,0-.58-1,1.2,1.2,0,0,0,.58,1M225.54,3c-1.78-1.54,1.59-3.66,2-1.74.22,1.13-.95,1.71-2,1.74"/><path class="cls-1" d="M239.91,1.7c0,.56,1,.66.94,0-.19-.44-.64-.1-.94,0m-.8.87c-1-2.24,2.85-2.28,2.38-.39-.16.67-1.74.84-2.38.39"/><path class="cls-1" d="M206.75,2a.83.83,0,0,0-.5-1c.25.23.07.93.5,1m.65.32c-.49.85-2.14.83-2.31-.16-.38-2.15,2.5-2.6,2.31.16"/><path class="cls-1" d="M198.74.85c1.63-.29,1.59,2.28.14,2.22a1.12,1.12,0,0,1-.14-2.22"/><path class="cls-1" d="M233.05,1.06a1.4,1.4,0,0,1,1.59,1.35c-.05.68-1.87,1.52-2.46.63a1.44,1.44,0,0,1,.87-2"/><path class="cls-1" d="M258.53.94c1.63-.29,1.59,2.28.14,2.22a1.12,1.12,0,0,1-.14-2.22"/><path class="cls-1" d="M277.37,1.8c.18.07.28.22.51.24a1.38,1.38,0,0,0,.36-.71.74.74,0,0,0-.65-.24c.1.42-.14.48-.22.71m-.5-1.19C278-.1,279.38,1.07,279,2a2.08,2.08,0,0,1-2,.79c-.57-.2-.71-1.56-.21-2.14"/><path class="cls-1" d="M271.44,2.35c-.56-.33-.52.31,0,0m0-.87a.3.3,0,1,0,.58,0c-.17-.05-.44-.16-.58,0M271.3.53a1.24,1.24,0,0,1,1.51,1c.06.9-1.9,2.16-2.46.95a1.61,1.61,0,0,1,.94-2"/><path class="cls-1" d="M265.23,1.7c0,.56,1,.66.94,0-.19-.44-.64-.1-.94,0m-.8.87c-1-2.24,2.85-2.28,2.38-.39-.16.67-1.74.84-2.38.39"/><path class="cls-1" d="M283.85.94c1.63-.29,1.59,2.28.14,2.22a1.12,1.12,0,0,1-.14-2.22"/></g></g></svg>