<svg xmlns="http://www.w3.org/2000/svg" viewBox="0 0 32.68 33.6"><defs><style>.cls-1{fill:none;stroke:#53b0a1;stroke-miterlimit:10;}.cls-2{fill:#53b0a1;}.cls-3{fill:#fff;}</style></defs><title>Asset 24</title><g id="Layer_2" data-name="Layer 2"><g id="instaraction"><path class="cls-1" d="M24,3c-.64-.74-2.83-1.33-3.8-1.69C11-2.12,2.62,6,1.7,14.81a19.29,19.29,0,0,0,.79,8.1h0S.48,33.27.5,33.1s4.05-2.46,6.38-3.79a13.49,13.49,0,0,0,8.45,2.76c8.78.05,17.36-5.29,16.82-14.95C31.83,11.22,29.3,5.36,24,3Z"/><path class="cls-2" d="M16.94,29.48a12.9,12.9,0,1,1,12.93-12.9A12.93,12.93,0,0,1,16.94,29.48Z"/><path class="cls-3" d="M25.43,23.49l-.76.74h0a4.31,4.31,0,0,1-1.08.61,4.48,4.48,0,0,1-1.1.28c-.17,0-4.18.39-9.14-4.56-3.59-3.59-4.92-6.23-4.57-9.12A4.48,4.48,0,0,1,9,10.32a4.3,4.3,0,0,1,.61-1.08l0,0,.75-.75a1.38,1.38,0,0,1,1.95,0L15,11.07a1.37,1.37,0,0,1,0,1.94l-.44.44-.9.89.14.26a13.32,13.32,0,0,0,2.32,3.21,13.27,13.27,0,0,0,3.21,2.31l.26.15,1.33-1.33a1.38,1.38,0,0,1,1.95,0l2.65,2.64A1.38,1.38,0,0,1,25.43,23.49Z"/></g></g></svg>