<svg xmlns="http://www.w3.org/2000/svg" viewBox="0 0 84.86 87.54"><defs><style>.cls-1,.cls-2{fill:#fff;}.cls-1{fill-rule:evenodd;}</style></defs><title>Asset 2</title><g id="Layer_2" data-name="Layer 2"><g id="over"><path class="cls-1" d="M49.31,37.35c1.89.11,3.75.19,5.92.38s4.21.81,6.48,1c1.28.13,3.8,0,3.88,2.12.09,2.48-1.38,5.56-1.34,8a10.21,10.21,0,0,0-.62,1.9c-.56.39-1,.19-1.74.18C60.15,51,58,50.9,56,50.81c-.52,0-1-.23-1.48-.23-.24,0-.43.25-.66.29-.43.06-1.25-.13-2-.15s-1.49.11-1.88,0c-.16,0-.31-.31-.48-.32-.56,0-.66.17-1.34,0a4.69,4.69,0,0,0-1.35-.1c-.28.43.12.85-.17,1.28.74,3.36,1.12,6.73,1.67,10.1-.17,1.91.38,3.8.35,5.7a2.74,2.74,0,0,1-.65.82c-2.3-.5-4.94-.5-7-1.57-.83.1-1.67-.34-2.49-.14l-1-1c-1.65-4.89-1.48-9.82-1.86-14.74-2.1-.65-4.16.23-6.26-.44a22.43,22.43,0,0,1-4.91-.07,25.31,25.31,0,0,1-5.18-.47,3.27,3.27,0,0,1-3.68-2.05c-.18-.46-.16-1.19-.38-1.8a12.94,12.94,0,0,1-.87-2.53c0-.3,0-.6,0-.94a15.31,15.31,0,0,1,0-3.36c.32-.16.39-.1.59-.48,1.46.08,2.9-.58,4.36-.32.24,0,.11-.23.39-.41.67.14,1.34-.11,2,.22,5.09-.68,10.2-.5,15.31-.53-.21-4.77-1.44-11.05-1.68-15.75,0-.61-.52-1.59-.12-2.08s3-.52,3.55-.56c1.93-.14,4,.59,5.79.39,2.57.59,2.85,3.8,3.24,5.83.5,2.59.5,5.38.82,8.11A21.8,21.8,0,0,0,49.31,37.35ZM44.48,22.15c-2.19,1.22-4.4,1.35-6.58,2.92,1,.26,2-1,3.07-.89.57-.68,1.16-.38,1.72-1,.56-.14,1.81-.58,1.93-.92Zm.86,2.26c-1.65,1.31-3.68,1.52-5.1,2.75a54.7,54.7,0,0,0,5.32-2.29C45.46,24.73,45.63,24.56,45.35,24.41Zm-7.62-.81c1,.28,2-1,3.07-.89.46-.45.93-.39,1.39-.78C40.7,21.66,39,22.89,37.73,23.6ZM62,41c-.11.08-.22,0-.33.07-.74.15-1.46.76-2.19.93-2.87,2.34-6.14,3.42-8.77,6.21.34.27.67,0,1,.18,1-1,2.09-1.38,3.16-2.5a5.09,5.09,0,0,0,.8-.29c2.2-1.84,4.92-2.69,6.47-4.47Zm1,1A65.41,65.41,0,0,0,56.59,46c1.92-.36,3.79-2.24,5.7-3a.78.78,0,0,1,.48.46A1.56,1.56,0,0,0,62.94,42ZM45.66,26.15c-.74.12-1.46.72-2.2.66A11.27,11.27,0,0,1,40.8,28c-.84.33-2.06.56-2.24,1.53.46.41,1.46-.82,2.13-.59a23.14,23.14,0,0,1,2.66-1.14c.9-.34,2-.59,2.45-1.34C45.72,26.33,45.79,26.24,45.66,26.15Zm-7.43,1.07a1.94,1.94,0,0,1,1.85-1.13c.93-.93,2.2-.89,2.91-1.69a19.42,19.42,0,0,0-4.92,2C38,26.65,38,27.22,38.23,27.22ZM58.4,40.61c-.31.28.22.53-.11.81-2.17,1.4-4,2.13-6.15,3.72a34.56,34.56,0,0,0-3.37,2c-.59.39-.77,1-1.26.5a.65.65,0,0,1-.15-.67c3.52-2.52,7.06-4.32,10.59-6.46a17.69,17.69,0,0,0-3.58-.65c-.22.21,0,.4-.32.61a75.94,75.94,0,0,0-7.08,4c-.92.55-2.5,1-2.63,2.08A75.93,75.93,0,0,1,54.77,40.7c.3,0,.69.48.49.73-3.75,2.32-7.88,3.51-11.37,7.15-2,.24-5.3,3.39-5.64,5.25,2.15-1.72,4.06-4,6.31-5.27a2.18,2.18,0,0,1,.45-.75c1.38-.23,2.79.43,4.17.3.31-.23.08-.45.38-.68,3.3-2.45,7-4.51,10-6.44C59.2,40.54,58.81,40.8,58.4,40.61ZM55.91,48.2c-.3.21-1-.14-.89-.58,0-.61,1.11-.5.91-1.1a12.6,12.6,0,0,0-2.51,1.81c1.11.36,2.19-.07,3.3.12,1.89-1.55,3.77-3,5.69-3.37.18-.43.45-.86.17-1.28C60.4,45.34,57.86,46.27,55.91,48.2ZM45.71,27.9a52.49,52.49,0,0,0-6.91,3c0,.4-.19.81.16,1.21,2.31-1.74,4.66-1.74,7-3.61C45.79,28.3,46,28.09,45.71,27.9Zm-8.15-5.77c.38.34,1.4-.31,1.33-.57C38.46,21.87,37.78,21.48,37.56,22.13Zm3.22,10c-.14.23-.61.46-.52.69A29.17,29.17,0,0,0,46,30.44a2.52,2.52,0,0,0-.15-.53C44.19,30.55,42.49,31.66,40.78,32.13ZM58.54,48.6a19.29,19.29,0,0,0,3.29,0c0-.9.62-1.81.33-2.7C61,46.79,58.9,47.34,58.54,48.6ZM45.87,31.73c-1.77,1-3.55,1.3-5.32,2.29-.43-.37-1.13.38-1.32.84,1.24-.15,2.38-1,3.59-1.44A11.69,11.69,0,0,0,46.15,32Zm-3.61,3.39a35.13,35.13,0,0,0,4.06-1.52c-.08-.09,0-.18-.14-.27C44.92,34,43.29,34.09,42.27,35.11Zm4-.37c-2.26,1-4.54,1.22-6.78,2.86.15.24-.13.5.22.73a25.23,25.23,0,0,1,3.78-1.91c1-.47,2.24-.6,3.05-1.42Zm4.29,5c-.34-.16-.66.29-1,.5a5.34,5.34,0,0,0-2.41.6c-.7.31-1.45.55-2.13.86s-1.06.79-1.65,1.05-1.21.35-1.58,1.12c-.32-.06-.62.09-1-.38-.34.16-.57.54-.85.76-1.49,1.17-3.47,2.3-3.66,3.86.64.39,1-.29,1.39-.64,1.75-1.45,3.14-3,5.08-3.56.44-.41.88-.79,1.33-.71a43,43,0,0,1,6.64-3.26Zm-11.09,0a64.39,64.39,0,0,0,7.12-2.8c-.13-.2.11-.41-.22-.6A59.32,59.32,0,0,0,39.5,39.68Zm8.72-.76a16.31,16.31,0,0,0-4.92,2.14c-.81-.18-1.6.55-2.39,1,.15.24-.13.5.22.73,2.45-1.49,4.91-2.26,7.37-3.48C48.3,39.19,48.46,39,48.21,38.92Zm.15,3.29a4.37,4.37,0,0,0,1.86-.85c0-.07,0-.14-.07-.2A16.53,16.53,0,0,0,48.36,42.21Zm-8.69-1.05c-.2-.11-.4.05-.61-.05s-.18-.28-.48-.46c-.12.36-.76.33-.45.62.22,0,.44-.34.67,0,.37.69-.59,1-1,1.3a62.63,62.63,0,0,0-5.63,5.66,1.47,1.47,0,0,0,1.27-.1c.9-2,3.73-3.58,5.31-5,.43-.4.37-1.14.83-1.57.24-.22.9-.26,1.26-.5,1.93-1.32,4.11-1.8,5.91-2.64a.28.28,0,0,0,0-.27C44.41,39,42,39.48,39.67,41.16Zm-.54-7.85c.25-.18.85-.11.86-.49C39.73,32.87,39,32.91,39.13,33.31Zm1.67,2.24c.21.19.75-.12.73-.36C41.29,35.36,41,35.19,40.8,35.55ZM42.07,45.8C41.19,45.63,39.5,47,38.5,48c-.49.53-1.08,1.35-.49,1.76A53.4,53.4,0,0,1,48.3,42.41c0-.07,0-.13-.07-.2A16.07,16.07,0,0,0,42.07,45.8ZM36.28,40c-2.08,1.92-4.57,4.19-6.36,5.88-.74.7-1.24,1.81-2.24,1.94a1.2,1.2,0,0,1-.16-.94c1.71-1.7,3.64-3.41,5.25-4.84.71-.63,1.64-1.22,1.76-2.13-.74-.36-1.31.44-1.79.92-2.49,2.49-4.58,4.37-7.14,7.11a10.38,10.38,0,0,0,3.09.05c2.43-2.84,6.58-5.29,9-8.23a.28.28,0,0,0,0-.27A3.52,3.52,0,0,1,36.28,40Zm7.29,6.66c-.64-.1-.9.32-1.52.91-1.31,1.24-3.09,2.47-3.87,3.8A47.34,47.34,0,0,1,43.71,47C43.63,46.88,43.7,46.79,43.57,46.7Zm.62,3.21A32.73,32.73,0,0,0,39.66,54c-.63.68-1.64,1.32-1.42,2.32a51.39,51.39,0,0,1,6.31-5.54,1.1,1.1,0,0,0-.16-1.07ZM35.68,43c.2.25.67-.12.46-.35C36,42.67,35.84,42.83,35.68,43ZM43,53.23C40.92,55,37.45,57.57,38.58,59c2-2,3.61-4,6.22-6.41-.15-.24.13-.5-.22-.73A8.39,8.39,0,0,0,43,53.23ZM30.1,48.06c.3.39,1.11.14,1.62.09,0-.22-.32-.44-.29-.66,1.07-1.71,3.33-3,4-4.2A55.11,55.11,0,0,0,30.1,48.06Zm-1.89-7.95c0,.29.35.57.09.87a34,34,0,0,0-3.88,3.39c-1,1-3,2.37-2.8,3.37,2.92-2.78,5.07-4.48,8-7.33.27.19.53-.28.81.11.09.46-.43.91-.77,1.23-1.29,1.21-2.81,2.44-4.07,3.6A9,9,0,0,0,23.18,48c.93.22,1.4-.86,2-1.39,2.24-2.07,5.09-4,6.75-6.56A21.32,21.32,0,0,0,28.22,40.11ZM44.64,54c-1.24,1.11-2.5,2.59-3.79,4-.81.88-2,1.78-2.14,2.95,2-1.66,4.19-4.45,6.43-5.95a1.33,1.33,0,0,0-.3-1.2Zm.45,1.87a16.11,16.11,0,0,1-2.55,2.55c-.83.81-1.61,1.86-2.35,2.61-.55.56-1.87,1-1.16,1.91,2-1.88,3.9-4.85,6.3-5.94a2,2,0,0,0,0-1.34C45.16,55.73,45.09,55.7,45.09,55.87ZM26.27,40.09c-1.7,1.92-4.11,4.18-5.82,6-.36.38-1,.95-.77,1.5a65.32,65.32,0,0,1,8.14-7.33c.07-.09.14-.18,0-.27A4.44,4.44,0,0,1,26.27,40.09Zm19.2,17.44a39.41,39.41,0,0,0-5.95,6.54,2.68,2.68,0,0,0,1,.51C41.72,62.46,46.93,59.49,45.47,57.54Zm-1.82,5.09c-.7.79-1.75,1.44-1.76,2.26.71.24,1-.73,1.38-1.18.78-.89,2.13-1.75,2.81-3.1l-.21-.2A12,12,0,0,0,43.65,62.62ZM23.52,40.37A50.09,50.09,0,0,0,19.07,45c-.39.49-1.57,1.63-1,2.24,1.62-2.24,4.65-4.75,6.61-6.82C24.32,40,23.93,40.41,23.52,40.37Zm20,24.75c1.35,1,1.9-.4,2.72-1.48,0-.47.15-.94-.24-1.4A16.33,16.33,0,0,0,43.51,65.11ZM21.3,40.22c-1,1.55-3.19,2.72-3.45,4.46,1.24-1.58,3.16-2.77,4.32-4.28C21.88,40.13,21.59,40.32,21.3,40.22ZM46,65.52c.16.19.32.12.47-.08-.15-.11-.08-.22-.21-.33C46,65.25,46.19,65.38,46,65.52ZM16.65,42.22a3.29,3.29,0,0,0,1-1.44C16.89,40.63,16,41.55,16.65,42.22Z"/><path class="cls-2" d="M38.14,87.54C10.93,87.39-2.31,64.92.33,39.69,2.89,15.22,26-7.26,51.73,2.22c2.71,1,8.61,1.68,10.38,3.72,14.58,6.59,21.78,23.8,22.68,40.15C86.28,72.87,62.49,87.68,38.14,87.54ZM81.41,45.91C80.57,30.86,73.95,15,60.54,9,58.91,7.09,53.48,6.46,51,5.54,27.3-3.18,6.05,17.5,3.7,40,1.27,63.23,13.45,83.9,38.49,84,60.88,84.17,82.77,70.54,81.41,45.91Z"/></g></g></svg>