<svg xmlns="http://www.w3.org/2000/svg" viewBox="0 0 31.6 31.45"><defs><style>.cls-1{fill:none;stroke:#53b0a1;stroke-miterlimit:10;}.cls-2{fill:#53b0a1;}</style></defs><title>Asset 22</title><g id="Layer_2" data-name="Layer 2"><g id="instaraction"><path class="cls-1" d="M31.08,16A17.06,17.06,0,0,0,21.63,1.86C21,1.12,20,1.13,19,.95,7-1.24,1.54,4.87.62,13.69c-1,9.1,3.82,17.2,13.64,17.26C23,31,31.61,25.66,31.08,16Z"/><path class="cls-2" d="M24.41,23.33H7.19A1.79,1.79,0,0,1,6,22.86l5.94-6,.41.3q.67.49,1.08.77a6.62,6.62,0,0,0,1.11.56,3.35,3.35,0,0,0,1.29.29h0a3.35,3.35,0,0,0,1.29-.29A6.64,6.64,0,0,0,18.21,18q.42-.28,1.08-.77l.41-.3,5.94,6A1.79,1.79,0,0,1,24.41,23.33Z"/><path class="cls-2" d="M5.56,21.19V12.1a6.21,6.21,0,0,0,1.18,1q2.49,1.7,4.05,2.8Z"/><path class="cls-2" d="M26,21.19l-5.23-5.26q1.67-1.18,4.06-2.8a6.46,6.46,0,0,0,1.17-1Z"/><path class="cls-2" d="M25.71,10.66a5.58,5.58,0,0,1-1.43,1.45l-4.29,3-1.18.83-.17.13-.32.23-.63.45-.61.38a3.54,3.54,0,0,1-.67.32,1.85,1.85,0,0,1-.58.11h0a1.85,1.85,0,0,1-.58-.11,3.55,3.55,0,0,1-.67-.32l-.61-.38-.63-.45L13,16.06l-.17-.13-1.18-.83L9.73,13.79l-2.4-1.68A5.82,5.82,0,0,1,6,10.75a2.76,2.76,0,0,1-.64-1.61A2.38,2.38,0,0,1,5.8,7.62,1.67,1.67,0,0,1,7.19,7H24.41a1.89,1.89,0,0,1,1.87,1.88A3.12,3.12,0,0,1,25.71,10.66Z"/></g></g></svg>