<svg xmlns="http://www.w3.org/2000/svg" viewBox="0 0 31.6 32.57"><defs><style>.cls-1{fill:none;stroke:#53b0a1;stroke-miterlimit:10;}.cls-2{fill:#53b0a1;}</style></defs><title>Asset 20</title><g id="Layer_2" data-name="Layer 2"><g id="instaraction"><path class="cls-1" d="M31.08,17.12C30.75,11.22,28.15,5,22.9,2.64c-.64-.74-2.76-1-3.74-1.34C9.87-2.12,1.54,6,.62,14.81c-1,9.1,3.82,17.2,13.64,17.26C23,32.12,31.61,26.78,31.08,17.12Z"/><path class="cls-2" d="M20.06,16.29H17.27v9.93H13.15V16.29h-2V12.79h2V10.52a3.87,3.87,0,0,1,4.16-4.16h3.06v3.4H18.15a.84.84,0,0,0-.88,1v2.06h3.15Z"/></g></g></svg>